<svg width="88" height="32" viewBox="0 0 88 32" fill="none" xmlns="http://www.w3.org/2000/svg">
<path d="M17.9644 11.7414L10.1445 7.01796C9.99125 6.92533 9.7984 6.92533 9.64514 7.01796L1.82782 11.7414C1.6855 11.8273 1.59961 11.9797 1.59961 12.1439V16.3486C1.59961 20.8294 5.20806 24.581 9.64346 24.7116C9.68135 24.7124 9.7184 24.7132 9.7563 24.7132H10.0367C10.0738 24.7132 10.1117 24.7132 10.1496 24.7116C14.585 24.5819 18.1934 20.8303 18.1934 16.3486V12.1439C18.1926 11.9797 18.1058 11.8273 17.9644 11.7414ZM16.1302 16.3721C16.1302 19.7237 13.4422 22.5507 10.1386 22.6737C10.067 22.6762 9.99546 22.677 9.89609 22.677H9.86746C9.79672 22.677 9.72514 22.677 9.65356 22.6737C6.34912 22.5507 3.6611 19.7229 3.6611 16.3721V13.2462C3.6611 13.1283 3.72341 13.0188 3.82531 12.9565L9.73188 9.38935C9.84219 9.32282 9.9803 9.32282 10.0906 9.38935L15.9652 12.9388C16.0671 13.0003 16.1294 13.1098 16.1294 13.2285V16.3721H16.1302Z" fill="#2864FF"/>
<path d="M12.6834 15.8669C12.1276 15.7625 11.5911 16.1229 11.485 16.6728C11.341 17.4223 10.6741 17.9671 9.89934 17.9671C9.1246 17.9671 8.45849 17.4231 8.31365 16.6728C8.20839 16.1237 7.67196 15.7633 7.11532 15.8669C6.55953 15.9713 6.19405 16.501 6.29932 17.05C6.6269 18.7536 8.14102 19.9907 9.8985 19.9907C11.656 19.9907 13.1701 18.7536 13.4977 17.05C13.6046 16.501 13.24 15.9713 12.6834 15.8669Z" fill="#2864FF"/>
<path d="M84.2858 11.3237V11.3271C84.2858 11.3271 84.2858 11.3271 84.285 11.3271L81.2416 16.9945V16.9953H81.2399V16.9945L78.1965 11.3271C78.1957 11.3271 78.194 11.3271 78.1915 11.3271V11.3263H76.0879V21.2657H78.1915V15.472L80.3751 19.5183H81.2399V19.3339H81.2416V19.5183H82.1065L84.2858 15.4804V21.2674H86.3995V11.3237H84.2858Z" fill="#2864FF"/>
<path d="M27.4464 21.2513H25.9887C23.9297 21.2513 22.2539 19.8239 22.2539 18.069V14.5574C22.2539 12.8024 23.9196 11.3186 25.9786 11.3186H27.4363C29.3807 11.3186 30.9714 12.7266 30.9714 14.3881H28.9125C28.9125 13.8315 28.2413 13.3607 27.4464 13.3607H25.9887C25.0809 13.3607 24.3137 13.9081 24.3137 14.5565V18.0681C24.3137 18.7165 25.0809 19.2639 25.9887 19.2639H27.4464C28.2413 19.2639 28.9125 18.7932 28.9125 18.2365H30.9714C30.9723 19.8989 29.3908 21.2513 27.4464 21.2513Z" fill="#2864FF"/>
<path d="M38.3186 11.3159H36.4247C34.5493 11.3159 33.0293 12.8435 33.0293 14.7273V17.8465C33.0293 19.7303 34.5493 21.2579 36.4247 21.2579H38.5047C40.2765 21.2579 41.7131 19.8145 41.7131 18.0343V14.7273C41.714 12.8435 40.194 11.3159 38.3186 11.3159ZM39.6491 17.8692C39.6491 18.6195 39.0437 19.2267 38.2975 19.2267H36.4348C35.6887 19.2267 35.0832 18.6187 35.0832 17.8684V14.7997C35.0832 14.0494 35.6887 13.4422 36.4348 13.4422H38.2975C39.0437 13.4422 39.6491 14.0503 39.6491 14.7997V17.8692Z" fill="#2864FF"/>
<path d="M49.051 11.3364H47.1571C45.2817 11.3364 43.7617 12.864 43.7617 14.7478V17.867C43.7617 19.7508 45.2817 21.2784 47.1571 21.2784H49.2371C51.0089 21.2784 52.4456 19.835 52.4456 18.0548V14.7478C52.4464 12.864 50.9264 11.3364 49.051 11.3364ZM50.3816 17.8897C50.3816 18.6401 49.7761 19.2472 49.03 19.2472H47.1672C46.4211 19.2472 45.8156 18.6392 45.8156 17.8889V14.8202C45.8156 14.0699 46.4211 13.4628 47.1672 13.4628H49.03C49.7761 13.4628 50.3816 14.0708 50.3816 14.8202V17.8897Z" fill="#2864FF"/>
<path d="M70.637 11.3254H68.743C66.8677 11.3254 65.3477 12.853 65.3477 14.7368V17.856C65.3477 19.7398 66.8677 21.2674 68.743 21.2674H70.8231C72.5949 21.2674 74.0315 19.824 74.0315 18.0438V14.7368C74.0323 12.853 72.5123 11.3254 70.637 11.3254ZM71.9675 17.8787C71.9675 18.6291 71.362 19.2362 70.6159 19.2362H68.7531C68.007 19.2362 67.4016 18.6282 67.4016 17.8779V14.8093C67.4016 14.0589 68.007 13.4518 68.7531 13.4518H70.6159C71.362 13.4518 71.9675 14.0598 71.9675 14.8093V17.8787Z" fill="#2864FF"/>
<path d="M61.2202 11.3102V15.3506L56.576 15.3422V11.3018L54.5195 11.3102V21.2488L56.576 21.2395V17.306L61.2109 17.3144V21.2488H63.2505V11.3102H61.2202Z" fill="#2864FF"/>
</svg>
