<svg width="219" height="52" viewBox="0 0 219 52" fill="none" xmlns="http://www.w3.org/2000/svg">
<path d="M0 25.8372C0 33.0979 2.64069 39.0999 7.92208 43.8295C13.2035 48.5635 20.1359 50.926 28.7193 50.926C37.3027 50.926 44.235 48.5635 49.5164 43.8295C54.7978 39.0999 57.4385 33.1025 57.4385 25.8372C57.4385 18.3575 54.7978 12.2506 49.5164 7.5165C44.235 2.78697 37.3027 0.419922 28.7193 0.419922C20.1359 0.419922 13.2035 2.78697 7.92208 7.5165C2.64069 12.2506 0 18.3575 0 25.8372Z" fill="#212530"/>
<path d="M93.3909 40.3586V9.3042H87.5166V21.9376C86.9009 20.3732 85.9021 19.1236 84.5156 18.2023C83.1291 17.281 81.4599 16.8158 79.5033 16.8158C77.5422 16.8158 75.7817 17.2901 74.2128 18.2433C72.6439 19.1965 71.4216 20.5739 70.5414 22.3754C69.6611 24.1815 69.2188 26.2977 69.2188 28.7331C69.2188 31.1686 69.6611 33.2848 70.5414 35.0909C71.4216 36.8969 72.6439 38.2743 74.2128 39.2229C75.7772 40.1761 77.5422 40.6505 79.5033 40.6505C81.4599 40.6505 83.1337 40.1807 84.5156 39.2457C85.9021 38.3108 86.9009 37.0566 87.5166 35.4877V40.354H93.3909V40.3586ZM87.5166 28.7331C87.5166 30.7764 86.9374 32.4046 85.7744 33.6223C84.6114 34.84 83.1383 35.4466 81.3459 35.4466C79.4988 35.4466 78.0165 34.8537 76.8991 33.6633C75.7817 32.473 75.2207 30.8311 75.2207 28.7331C75.2207 26.6352 75.7817 24.9842 76.8991 23.7801C78.0165 22.5761 79.5033 21.9741 81.3459 21.9741C83.1337 21.9741 84.6114 22.5806 85.7744 23.7984C86.9374 25.0207 87.5166 26.6625 87.5166 28.7331Z" fill="#212530"/>
<path d="M119.369 27.853C119.369 25.7277 118.899 23.8304 117.964 22.1657C117.024 20.501 115.697 19.1921 113.978 18.2434C112.258 17.2948 110.247 16.8159 107.957 16.8159C105.691 16.8159 103.675 17.2902 101.914 18.2434C100.154 19.1966 98.7812 20.574 97.8006 22.3755C96.82 24.1816 96.332 26.2978 96.332 28.7332C96.332 31.1687 96.82 33.2803 97.8006 35.0727C98.7812 36.8651 100.149 38.2425 101.914 39.2048C103.675 40.1717 105.691 40.6551 107.957 40.6551C109.887 40.6551 111.643 40.2903 113.225 39.5651C114.803 38.8354 116.098 37.832 117.106 36.5413C118.114 35.2552 118.771 33.8003 119.081 32.1766H112.828C112.578 33.326 111.994 34.2336 111.086 34.904C110.179 35.5744 109.038 35.9119 107.666 35.9119C106.129 35.9119 104.838 35.4239 103.807 34.4433C102.772 33.4628 102.211 31.9395 102.129 29.8689H119.168C119.3 29.1118 119.369 28.4368 119.369 27.853ZM113.408 27.2647H102.12C102.229 25.3628 102.831 23.9216 103.926 22.941C105.016 21.9605 106.361 21.4725 107.953 21.4725C109.517 21.4725 110.84 21.9605 111.921 22.941C112.997 23.9216 113.494 25.3628 113.408 27.2647Z" fill="#212530"/>
<path d="M122.043 9.3042V40.3586H127.958V9.3042H122.043Z" fill="#212530"/>
<path d="M155.979 28.7332C155.979 26.2978 155.536 24.1816 154.656 22.3755C153.776 20.5694 152.549 19.1921 150.985 18.2434C149.416 17.2948 147.655 16.8159 145.699 16.8159C143.742 16.8159 142.068 17.2766 140.682 18.2024C139.295 19.1237 138.31 20.3733 137.722 21.9377V17.1124H131.807V51.4414H137.722V35.4923C138.31 37.0612 139.295 38.3109 140.682 39.2504C142.068 40.1899 143.738 40.6551 145.699 40.6551C147.655 40.6551 149.42 40.1808 150.985 39.2276C152.549 38.279 153.776 36.897 154.656 35.0955C155.536 33.2849 155.979 31.1687 155.979 28.7332ZM149.977 28.7332C149.977 30.8312 149.416 32.4776 148.298 33.6635C147.181 34.8538 145.699 35.4467 143.852 35.4467C142.059 35.4467 140.586 34.8401 139.423 33.6224C138.26 32.4047 137.681 30.7765 137.681 28.7332C137.681 26.6627 138.26 25.0208 139.423 23.803C140.582 22.5853 142.059 21.9787 143.852 21.9787C145.699 21.9787 147.181 22.5807 148.298 23.7848C149.416 24.9843 149.977 26.6353 149.977 28.7332Z" fill="#212530"/>
<path d="M172.499 16.7704C170.652 16.7704 169.024 17.2128 167.61 18.093C166.196 18.9732 165.183 20.2001 164.568 21.7644V9.2998H158.652V40.3542H164.568V28.0173C164.568 25.974 165.069 24.4097 166.077 23.3151C167.085 22.2251 168.426 21.6778 170.104 21.6778C171.755 21.6778 173.055 22.1886 174.009 23.2102C174.957 24.2318 175.436 25.6639 175.436 27.511V40.3542H181.31V26.8406C181.31 23.6526 180.512 21.1761 178.92 19.4111C177.324 17.6552 175.185 16.7704 172.499 16.7704Z" fill="#212530"/>
<path d="M208.255 40.3584V17.1075H202.381V21.9328C201.793 20.3685 200.799 19.1188 199.403 18.1975C198.003 17.2762 196.324 16.811 194.368 16.811C192.411 16.811 190.646 17.2854 189.082 18.2386C187.513 19.1918 186.291 20.5691 185.411 22.3706C184.53 24.1767 184.088 26.2929 184.088 28.7284C184.088 31.1638 184.53 33.28 185.411 35.0861C186.291 36.8922 187.513 38.2695 189.082 39.2182C190.646 40.1714 192.411 40.6457 194.368 40.6457C196.324 40.6457 198.003 40.1759 199.403 39.241C200.803 38.306 201.797 37.0518 202.381 35.4829V40.3492H208.255V40.3584ZM202.381 28.7329C202.381 30.7762 201.802 32.4044 200.639 33.6221C199.476 34.8398 198.003 35.4464 196.21 35.4464C194.363 35.4464 192.881 34.8535 191.764 33.6631C190.646 32.4728 190.085 30.8309 190.085 28.7329C190.085 26.635 190.646 24.984 191.764 23.7799C192.881 22.5759 194.363 21.9738 196.21 21.9738C197.998 21.9738 199.476 22.5804 200.639 23.7982C201.797 25.0204 202.381 26.6623 202.381 28.7329Z" fill="#212530"/>
<path d="M211.693 10.4353C211.693 11.3565 212.031 12.1228 212.701 12.7248C213.372 13.3268 214.257 13.6278 215.347 13.6278C216.437 13.6278 217.321 13.3268 217.992 12.7248C218.662 12.1228 219 11.3611 219 10.4353C219 9.48661 218.662 8.70672 217.992 8.1047C217.321 7.50268 216.441 7.20166 215.347 7.20166C214.257 7.20166 213.376 7.50268 212.701 8.1047C212.031 8.70672 211.693 9.48205 211.693 10.4353Z" fill="#212530"/>
<path d="M212.369 17.1079V40.3588H218.284V17.1079H212.369Z" fill="#212530"/>
<path d="M39.6461 40.3584V17.1075H33.7718V21.9328C33.1835 20.3685 32.1892 19.1188 30.7936 18.1975C29.3935 17.2762 27.7151 16.811 25.7585 16.811C23.7974 16.811 22.0369 17.2854 20.4726 18.2386C18.9037 19.1918 17.6814 20.5691 16.8011 22.3706C15.9209 24.1767 15.4785 26.2929 15.4785 28.7284C15.4785 31.1638 15.9209 33.28 16.8011 35.0861C17.6814 36.8922 18.9082 38.2695 20.4726 39.2182C22.0369 40.1714 23.8019 40.6457 25.7585 40.6457C27.7151 40.6457 29.3935 40.1759 30.7936 39.241C32.1938 38.306 33.1835 37.0518 33.7718 35.4829V40.3492H39.6461V40.3584ZM33.7718 28.7329C33.7718 30.7762 33.1926 32.4044 32.0296 33.6221C30.8666 34.8398 29.3935 35.4464 27.6011 35.4464C25.754 35.4464 24.2717 34.8535 23.1543 33.6631C22.0324 32.4728 21.4759 30.8309 21.4759 28.7329C21.4759 26.635 22.0369 24.984 23.1543 23.7799C24.2717 22.5759 25.754 21.9738 27.6011 21.9738C29.3935 21.9738 30.8666 22.5804 32.0296 23.7982C33.1926 25.0204 33.7718 26.6623 33.7718 28.7329Z" fill="white"/>
<path d="M33.0703 10.4353C33.0703 11.3565 33.4078 12.1228 34.0782 12.7248C34.7487 13.3268 35.6335 13.6278 36.7235 13.6278C37.8135 13.6278 38.6983 13.3268 39.3688 12.7248C40.0392 12.1228 40.3767 11.3611 40.3767 10.4353C40.3767 9.48661 40.0392 8.70672 39.3688 8.1047C38.6983 7.50268 37.8181 7.20166 36.7235 7.20166C35.6335 7.20166 34.7532 7.50268 34.0782 8.1047C33.4078 8.70672 33.0703 9.48205 33.0703 10.4353Z" fill="#F0F0F0"/>
</svg>
