<svg width="220" height="44" viewBox="0 0 220 44" fill="none" xmlns="http://www.w3.org/2000/svg">
<path fill-rule="evenodd" clip-rule="evenodd" d="M48.0372 2.57334L34.0689 37.1659L45.4394 44L50.5924 32.3145L55.7452 33.2848L59.8761 40.1189L72.7797 34.255L57.321 5.48417L48.0372 2.57334ZM51.1459 25.9445L52.679 16.6635L55.2768 26.4085L51.1459 25.9445ZM29.938 1.51869L24.7852 13.2886L17.0345 0L0 6.15915L12.3926 24.046V41.9751L29.4271 40.9625V24.0882L39.2219 6.15915L29.938 1.51869ZM121.881 2.57334L107.956 37.208L119.326 44.0422L124.479 32.3567L129.632 33.3269L133.763 40.1611L146.667 34.2973L131.165 5.48417L121.881 2.57334ZM124.99 25.9445L126.523 16.6635L129.121 26.4085L124.99 25.9445ZM204.499 5.48417L195.215 2.57334L181.289 37.208L192.66 44.0422L197.812 32.3567L202.966 33.3269L207.096 40.1611L220 34.2973L204.499 5.48417ZM198.324 25.9445L199.857 16.6635L202.454 26.4085L198.324 25.9445ZM96.0743 2.57334L93.4765 18.4353L87.8126 17.9291L86.2795 3.58581L73.3759 5.65293L75.9736 41.4688L88.3662 44.0422L87.3441 32.2722L93.5617 30.7537L93.0508 42.0172L104.932 43.0297L108.041 4.64046L96.0743 2.57334ZM169.407 2.57334L166.81 18.4353L161.146 17.9291L159.613 3.58581L146.709 5.65293L149.307 41.4688L161.7 44.0422L160.678 32.2722L166.895 30.7537L166.385 42.0172L178.266 43.0297L181.374 4.64046L169.407 2.57334Z" fill="#7352FA"/>
</svg>
