<?xml version="1.0" encoding="UTF-8"?>
<svg width="80px" height="80px" viewBox="0 0 80 80" version="1.1" xmlns="http://www.w3.org/2000/svg" xmlns:xlink="http://www.w3.org/1999/xlink">
    <title>编组 17备份</title>
    <g id="页面-1" stroke="none" stroke-width="1" fill="none" fill-rule="evenodd">
        <g id="Contribute-pc" transform="translate(-968.000000, -1476.000000)">
            <g id="编组-17备份" transform="translate(968.000000, 1476.000000)">
                <g id="编组-15备份">
                    <rect id="矩形" x="0" y="0" width="80" height="80"></rect>
                </g>
                <g id="编组-19" transform="translate(12.000000, 11.000000)">
                    <g id="编组-21">
                        <path d="M55.935092,25.9179766 C55.8635267,24.8621305 55.7334293,23.8223432 55.5480186,22.8018332 C53.3511112,10.709943 43.3884458,1.32452075 31.014456,0" id="形状" stroke="#009999" stroke-width="6"></path>
                        <path d="M24.9206359,25.9179766 C24.8490707,24.8621305 24.7189733,23.8223432 24.5335626,22.8018332 C22.3366552,10.709943 12.3739898,1.32452075 5.09814413e-13,0" id="形状备份" stroke="#009999" stroke-width="6" transform="translate(12.460318, 12.958988) scale(-1, 1) translate(-12.460318, -12.958988) "></path>
                        <path d="M31.3337542,31.8566661 C44.9787896,33.3172404 56.0555757,43.6526123 58.4996979,57.105185 C58.6649336,58.0146509 58.7896618,58.933284 58.8732536,59.8590744 L58.9282244,60.5547277 L52.9419595,60.960477 C52.8784019,60.0227733 52.7628523,59.0942286 52.5963394,58.177733 C50.6502133,47.466156 41.8989602,39.1960043 31.082336,37.867088 L30.6951579,37.8225855 L31.3337542,31.8566661 Z" id="形状备份-3" fill="#009999" fill-rule="nonzero" transform="translate(44.811691, 46.408572) scale(1, -1) translate(-44.811691, -46.408572) "></path>
                        <path d="M24.9206359,57.7576024 C24.8490707,56.7017563 24.7189733,55.6619689 24.5335626,54.641459 C22.3366552,42.5495688 12.3739898,33.1641465 5.09814413e-13,31.8396258" id="形状备份-2" stroke="#009999" stroke-width="6" transform="translate(12.460318, 44.798614) scale(-1, -1) translate(-12.460318, -44.798614) "></path>
                    </g>
                    <g id="编组-21备份" transform="translate(28.000000, 29.000000) rotate(-315.000000) translate(-28.000000, -29.000000) translate(15.000000, 16.000000)" stroke="#009999" stroke-linejoin="round" stroke-width="6">
                        <path d="M26,12 C25.9655393,11.5111442 25.9028937,11.0297236 25.8136131,10.5572284 C24.7557392,4.95869405 19.9584305,0.613251923 14,0" id="形状"></path>
                        <path d="M12,12 C11.9655393,11.5111442 11.9028937,11.0297236 11.8136131,10.5572284 C10.7557392,4.95869405 5.9584305,0.613251923 0,0" id="形状备份" transform="translate(6.000000, 6.000000) scale(-1, 1) translate(-6.000000, -6.000000) "></path>
                        <path d="M26,26 C25.9655393,25.5111442 25.9028937,25.0297236 25.8136131,24.5572284 C24.7557392,18.958694 19.9584305,14.6132519 14,14" id="形状备份-3" transform="translate(20.000000, 20.000000) scale(1, -1) translate(-20.000000, -20.000000) "></path>
                        <path d="M12,26 C11.9655393,25.5111442 11.9028937,25.0297236 11.8136131,24.5572284 C10.7557392,18.958694 5.9584305,14.6132519 0,14" id="形状备份-2" transform="translate(6.000000, 20.000000) scale(-1, -1) translate(-6.000000, -20.000000) "></path>
                    </g>
                </g>
            </g>
        </g>
    </g>
</svg>