<?xml version="1.0" encoding="UTF-8"?>
<svg width="80px" height="80px" viewBox="0 0 80 80" version="1.1" xmlns="http://www.w3.org/2000/svg" xmlns:xlink="http://www.w3.org/1999/xlink">
    <title>编组 30</title>
    <g id="页面-1" stroke="none" stroke-width="1" fill="none" fill-rule="evenodd" stroke-linecap="round">
        <g id="Contribute-pc" transform="translate(-165.000000, -1606.000000)" stroke="#009999" stroke-width="6">
            <g id="编组-9备份-3" transform="translate(165.000000, 1606.000000)">
                <g id="编组" transform="translate(13.000000, 17.000000)">
                    <path d="M11,48 C17.0751322,48 22,43.0751322 22,37 C22,30.9248678 17.0751322,26 11,26 C4.92486775,26 0,30.9248678 0,37" id="Path" stroke-linejoin="round" transform="translate(11.000000, 37.000000) rotate(-180.000000) translate(-11.000000, -37.000000) "></path>
                    <path d="M42.4312283,0 L52.0927488,0 C53.1121306,0 53.944729,0.80188974 53.9973843,1.81089662 L54,1.92283563 L53.8758343,24.8838527 C53.8758343,37.5228814 43.8377875,47.7927692 31.3782937,47.9969031 L31,48 L31.1292174,1.90708968" id="Path" stroke-linejoin="round"></path>
                    <path d="M43,0 L43,25.36434 C42.6141002,29.8847664 40.9474336,32.7633197 38,34" id="Path-2"></path>
                </g>
            </g>
        </g>
    </g>
</svg>