<?xml version="1.0" encoding="UTF-8"?>
<svg width="80px" height="80px" viewBox="0 0 80 80" version="1.1" xmlns="http://www.w3.org/2000/svg" xmlns:xlink="http://www.w3.org/1999/xlink">
    <title>编组 30备份</title>
    <g id="页面-1" stroke="none" stroke-width="1" fill="none" fill-rule="evenodd">
        <g id="Contribute-pc" transform="translate(-571.000000, -1736.000000)">
            <g id="编组-9备份-7" transform="translate(571.000000, 1736.000000)">
                <g id="编组-27" transform="translate(10.000000, 5.000000)">
                    <path d="M30,-8.17124146e-14 C46.5685425,-8.17124146e-14 60,13.4314575 60,30 C60,43.7140193 50.7979615,55.2787874 38.2315774,58.8566115 C38.7245941,56.9421357 39.1446762,54.697692 39.4514639,52.0674633 C48.006807,48.3984671 54,39.8991262 54,30 C54,16.745166 43.254834,6 30,6 C16.745166,6 6,16.745166 6,30 C6,39.8991262 11.993193,48.3984671 20.5490778,52.0675217 C20.8556486,54.697692 21.2758903,56.9421357 21.7696197,58.8573789 C9.20252714,55.2794015 0,43.7143835 0,30 C0,13.4314575 13.4314575,-8.17124146e-14 30,-8.17124146e-14 Z M30,10 C41.045695,10 50,18.954305 50,30 C50,37.4668964 45.9080903,43.9780761 39.8443392,47.4134707 C39.9458899,45.6211566 40,43.6852735 40,41.5956651 C40,41.0333947 39.9493411,40.482208 39.8521636,39.946105 C42.4133888,37.4096381 44,33.8901055 44,30 C44,22.2680135 37.7319865,16 30,16 C22.2680135,16 16,22.2680135 16,30 C16,33.8901055 17.5866112,37.4096381 20.1480221,39.9467864 C20.0507018,40.482208 20,41.0333947 20,41.5956651 C20,43.6852735 20.0541306,45.6211566 20.1544275,47.4146235 C14.0919097,43.9780761 10,37.4668964 10,30 C10,18.954305 18.954305,10 30,10 Z" id="形状结合" fill="#009999" fill-rule="nonzero"></path>
                    <path d="M30,26 C31.1045695,26 32.1045695,26.4477153 32.8284271,27.1715729 C33.5522847,27.8954305 34,28.8954305 34,30 C34,31.1045695 33.5522847,32.1045695 32.8284271,32.8284271 C32.1045695,33.5522847 31.1045695,34 30,34 C28.8954305,34 27.8954305,33.5522847 27.1715729,32.8284271 C26.4477153,32.1045695 26,31.1045695 26,30 C26,28.8954305 26.4477153,27.8954305 27.1715729,27.1715729 C27.8954305,26.4477153 28.8954305,26 30,26 Z" id="椭圆形备份-5" stroke="#009999" stroke-width="6" fill="#009999" fill-rule="nonzero"></path>
                    <path d="M30.001329,41 C31.1007264,41 32.0948029,41.4550902 32.8155445,42.1832279 C33.5478946,42.9230933 34,43.9449231 34,45.0704901 C34,51.5798207 33.3124747,55.9326218 32.3450699,58.8332407 C31.8129107,60.4288406 31.2204676,61.5143341 30.6263523,62.2286169 C30.3736968,62.5323753 30.1478255,62.7775282 30.0106982,62.9055645 C29.8701272,62.7792547 29.6418422,62.5379215 29.3873179,62.2348204 C28.7911688,61.5248939 28.1972469,60.443627 27.6634651,58.8522122 C26.6907911,55.9522859 26,51.5948367 26,45.0704901 C26,43.9451825 26.4525535,42.9237027 27.1850234,42.1839972 C27.9064485,41.4554458 28.9013628,41 30.001329,41 Z" id="形状备份-4" stroke="#009999" stroke-width="6" fill-rule="nonzero"></path>
                    <g id="podcasts" transform="translate(20.000000, 32.000000)"></g>
                </g>
            </g>
        </g>
    </g>
</svg>