<?xml version="1.0" encoding="UTF-8"?>
<svg width="80px" height="80px" viewBox="0 0 80 80" version="1.1" xmlns="http://www.w3.org/2000/svg" xmlns:xlink="http://www.w3.org/1999/xlink">
    <title>brain-solid</title>
    <g id="页面-1" stroke="none" stroke-width="1" fill="none" fill-rule="evenodd">
        <g id="Learn-pc" transform="translate(-150.000000, -1762.000000)" fill-rule="nonzero" stroke="#009999" stroke-width="6">
            <g id="编组-38" transform="translate(150.000000, 1762.000000)">
                <path d="M29.4117647,13 C26.3338235,13 23.7808824,15.1621094 23.05,18.0835937 C22.9676471,18.0835937 22.9058824,18.0625 22.8235294,18.0625 C19.1897059,18.0625 16.2352941,21.0894531 16.2352941,24.8125 C16.2352941,25.31875 16.2970588,25.8144531 16.4102941,26.2890625 C13.4044118,27.5546875 11.2941176,30.5710937 11.2941176,34.09375 C11.2941176,35.4226563 11.6235294,36.6566406 12.1485294,37.7746094 C9.67794118,39.2300781 8,41.9300781 8,45.0625 C8,48.5746094 10.1,51.5910156 13.0852941,52.8566406 C12.9926471,53.3417969 12.9411765,53.8375 12.9411765,54.34375 C12.9411765,58.5414063 16.2558824,61.9375 20.3529412,61.9375 C20.775,61.9375 21.1867647,61.8847656 21.5882353,61.8109375 C22.5764706,64.8167969 25.3147059,67 28.5882353,67 C32.6852941,67 36,63.6039063 36,59.40625 L36,19.75 C36,16.0269531 33.0455882,13 29.4117647,13 Z M72,45.0625 C72,41.9300781 70.3220588,39.2300781 67.8514706,37.7746094 C68.3867647,36.6566406 68.7058824,35.4226563 68.7058824,34.09375 C68.7058824,30.5710937 66.5955882,27.5546875 63.5897059,26.2890625 C63.6926471,25.8144531 63.7647059,25.31875 63.7647059,24.8125 C63.7647059,21.0894531 60.8102941,18.0625 57.1764706,18.0625 C57.0941176,18.0625 57.0220588,18.0835937 56.95,18.0835937 C56.2191176,15.1621094 53.6661765,13 50.5882353,13 C46.9544118,13 44,16.0164062 44,19.75 L44,59.40625 C44,63.6039063 47.3147059,67 51.4117647,67 C54.6852941,67 57.4235294,64.8167969 58.4117647,61.8109375 C58.8132353,61.8847656 59.225,61.9375 59.6470588,61.9375 C63.7441176,61.9375 67.0588235,58.5414063 67.0588235,54.34375 C67.0588235,53.8375 67.0073529,53.3417969 66.9147059,52.8566406 C69.9,51.5910156 72,48.5746094 72,45.0625 Z" id="形状"></path>
            </g>
        </g>
    </g>
</svg>