<?xml version="1.0" encoding="UTF-8"?>
<svg width="80px" height="80px" viewBox="0 0 80 80" version="1.1" xmlns="http://www.w3.org/2000/svg" xmlns:xlink="http://www.w3.org/1999/xlink">
    <title>拼图 (2)</title>
    <g id="页面-1" stroke="none" stroke-width="1" fill="none" fill-rule="evenodd" stroke-linejoin="round">
        <g id="Learn-pc" transform="translate(-761.000000, -1617.000000)" fill-rule="nonzero" stroke="#009999" stroke-width="6">
            <g id="编组-46" transform="translate(761.000000, 1617.000000)">
                <path d="M67.3810279,38.4761835 L62.8096152,38.4761835 L62.8096152,26.2857248 C62.8096152,22.9180921 60.0819817,20.1904586 56.714349,20.1904586 L44.5238166,20.1904586 L44.5238166,15.6190459 C44.5238166,11.4133048 41.1105118,8 36.9047707,8 C32.6990296,8 29.2857248,11.4133048 29.2857248,15.6190459 L29.2857248,20.1904586 L17.0952661,20.1904586 C13.7276334,20.1904586 11.0304725,22.9180921 11.0304725,26.2857248 L11.0151994,37.8666568 L15.5714127,37.8666568 C20.1123528,37.8666568 23.7999852,41.5542891 23.7999852,46.0952293 C23.7999852,50.6361694 20.1123528,54.3238018 15.5714127,54.3238018 L11.0152732,54.3238018 L11,65.9047338 C11,69.2723666 13.7276335,72 17.0952662,72 L28.6761982,72 L28.6761982,67.4285873 C28.6761982,62.8876471 32.3638305,59.2000148 36.9047707,59.2000148 C41.4457108,59.2000148 45.1333432,62.8876471 45.1333432,67.4285873 L45.1333432,72 L56.7142751,72 C60.0819079,72 62.8095414,69.2723665 62.8095414,65.9047338 L62.8095414,53.714349 L67.3809541,53.714349 C71.5866952,53.714349 75,50.3010442 75,46.0953031 C75,41.889562 71.5866952,38.4761835 67.3810279,38.4761835 Z" id="路径"></path>
            </g>
        </g>
    </g>
</svg>