<?xml version="1.0" encoding="UTF-8"?>
<svg width="80px" height="80px" viewBox="0 0 80 80" version="1.1" xmlns="http://www.w3.org/2000/svg" xmlns:xlink="http://www.w3.org/1999/xlink">
    <title>rocket-solid</title>
    <g id="页面-1" stroke="none" stroke-width="1" fill="none" fill-rule="evenodd">
        <g id="Learn-pc" transform="translate(-761.000000, -1762.000000)" fill-rule="nonzero" stroke="#009999" stroke-width="6">
            <g id="编组-47" transform="translate(761.000000, 1762.000000)">
                <path d="M71.1400255,10.3867188 C70.9913443,9.6953125 70.3077518,9.01171875 69.6141505,8.86328125 C65.5895016,8 62.4383765,8 59.3009352,8 C46.3969048,8 38.6586371,14.90039 32.8815482,24 L19.8547153,24 C17.8112615,24.0019525 15.4101427,25.484375 14.4938852,27.3105475 L8.31445251,39.66211 C8.12348642,40.0833325 8.01666752,40.5378111 8,41 C8,42.6568904 9.343837,43.9998034 11.0007276,44 L23.977023,44 L21.1677016,46.8085938 C19.7470503,48.22876 19.5431928,50.84082 21.1677016,52.4648438 L27.5307281,58.828125 C28.9252568,60.2265625 31.5502519,60.4726562 33.1903857,58.828125 L35.999707,56.0195312 L35.999707,69 C36.0003054,70.6568899 37.3435433,72 39.0004334,72 C39.4627185,71.9828881 39.9172711,71.8760905 40.3388084,71.6855475 L52.6798513,65.5117188 C54.5084613,64.59961 55.9933214,62.1992187 55.9933214,60.1542975 L55.9933214,47.09961 C65.0680129,41.3105475 71.9976881,33.5488275 71.9976881,20.71289 C72.0094093,17.5625 72.0094093,14.41211 71.1400255,10.3867188 Z M56.0050426,29.0000002 C53.2437762,28.9993325 51.0058063,26.7604607 51.0062513,23.9991944 C51.0066963,21.237928 53.2453877,18.9997777 56.0066542,19.0000002 C58.7679206,19.0002226 61.0062513,21.2387336 61.0062513,24.0000002 C61.0046497,26.761232 58.7662749,28.9990656 56.0050426,29.0000002 Z" id="形状"></path>
            </g>
        </g>
    </g>
</svg>