<?xml version="1.0" encoding="UTF-8"?>
<svg width="80px" height="80px" viewBox="0 0 80 80" version="1.1" xmlns="http://www.w3.org/2000/svg" xmlns:xlink="http://www.w3.org/1999/xlink">
    <title>编组 37</title>
    <g id="页面-1" stroke="none" stroke-width="1" fill="none" fill-rule="evenodd">
        <g id="Learn-pc" transform="translate(-154.000000, -1617.000000)">
            <g id="编组-37" transform="translate(154.000000, 1617.000000)">
                <rect id="矩形" x="0" y="0" width="80" height="80" rx="8"></rect>
                <path d="M45.9978968,11 L45.9978968,13 L40.9981972,13 L40.9981972,23.0271854 C47.1018456,23.2896025 52.594011,25.9292638 56.5438866,30.0463249 L56.5438866,30.0463249 L60.9596779,25.6302682 L62.3793244,27.05 L57.8709559,31.5586395 C61.0814549,35.4741303 62.9968752,40.5116222 62.9968752,46 C62.9968752,52.3526649 60.4235256,58.1027914 56.2618862,62.2646809 C52.100312,66.4265052 46.3506297,69 39.9984376,69 C33.6462455,69 27.8965632,66.4265052 23.734989,62.2646809 C19.5733496,58.1027914 17,52.3526649 17,46 C17,40.2909766 19.0786897,35.0667271 22.5217554,31.0463151 C26.537349,26.3573714 32.4071447,23.3031633 38.998678,23.0311103 L38.998678,23.0311103 L38.998678,13 L33.9989784,13 L33.9989784,11 L45.9978968,11 Z" id="形状" stroke="#009999" stroke-width="6" fill-rule="nonzero"></path>
                <path d="" id="路径" stroke="#009999" stroke-width="6" fill-rule="nonzero"></path>
            </g>
        </g>
    </g>
</svg>