<?xml version="1.0" encoding="UTF-8"?>
<svg width="80px" height="80px" viewBox="0 0 80 80" version="1.1" xmlns="http://www.w3.org/2000/svg" xmlns:xlink="http://www.w3.org/1999/xlink">
    <title>meteor-solid</title>
    <g id="页面-1" stroke="none" stroke-width="1" fill="none" fill-rule="evenodd">
        <g id="Learn-pc" transform="translate(-150.000000, -1939.000000)" fill-rule="nonzero">
            <g id="编组-45" transform="translate(150.000000, 1939.000000)">
                <path d="M68.9242178,13.3548777 C67.609201,17.7393532 65.0375716,26.0091437 61.979226,34.6187871 C62.7721305,34.8559767 63.4977796,35.071932 64.0871484,35.252474 C64.6072719,35.4109767 65.0292546,35.7937711 65.2375326,36.2960252 C65.4458105,36.7982793 65.4185557,37.3673559 65.1632322,37.8474079 C62.658857,42.6390013 55.7952796,55.1569749 49.0219654,62.1363753 C48.9086942,62.2602799 48.7954218,62.4195909 48.6821494,62.5328714 C43.1068703,68.1094245 34.979961,70.2880794 27.3627495,68.2481577 C19.7455381,66.2082361 13.7952602,60.2596506 11.753328,52.6431759 C9.7113959,45.0267012 11.8880276,36.8994611 17.4633069,31.3229083 C17.5765793,31.2096221 17.7358676,31.0963359 17.8597597,30.9830496 C24.8383792,24.1965835 37.3425513,17.3428537 42.1459941,14.8399682 C42.6260238,14.5846413 43.1950977,14.557403 43.6973203,14.7657152 C44.1995429,14.9740275 44.5822614,15.3960508 44.7406315,15.9161736 C44.9211593,16.4932173 45.1370843,17.2295687 45.3742477,18.022562 C53.9723049,14.9638761 62.2517833,12.3919573 66.6357654,11.0785623 C67.281113,10.8833689 67.9815259,11.0581227 68.4595325,11.5335942 C68.9375391,12.0090656 69.1160002,12.7085247 68.9242178,13.3548777 Z" id="形状" stroke="#009999" stroke-width="6"></path>
                <path d="M46,47.4981034 C45.9989523,40.0425059 39.9543323,33.9993013 32.4987349,34 C25.0431374,34.0006987 18.9996501,40.045036 19,47.5006335 C19.0003499,54.956231 25.0444045,61 32.5,61 C36.080793,61 39.5149338,59.5775946 42.0467574,57.0454149 C44.5785809,54.5132352 46.0006338,51.0788943 46,47.4981034 L46,47.4981034 Z" id="路径" stroke="#009999" stroke-width="6"></path>
                <path d="M35,45.0005639 C34.9996836,47.2096289 33.2086863,49.0002071 30.9996221,49 C28.7905579,48.9997929 26.9998964,47.2088788 27,44.9998138 C27.0001036,42.7907487 28.7909329,41 31,41 C32.0613276,40.9988022 33.0795257,41.4199211 33.8299476,42.1704484 C34.5803695,42.9209757 35.0013457,43.9392332 35,45.0005639 L35,45.0005639 Z" id="路径" fill="#009999"></path>
                <path d="M37,53.0002813 C36.9998422,54.1048142 36.1043434,55.0001036 34.9998112,55 C33.895279,54.9998964 32.9999482,54.1044391 33,52.9999063 C33.0000518,51.8953734 33.8954665,51 35,51 C36.1031908,51.0035813 36.9965724,51.897088 37,53.0002813 L37,53.0002813 Z" id="路径" fill="#009999"></path>
            </g>
        </g>
    </g>
</svg>