<?xml version="1.0" encoding="UTF-8"?>
<svg width="320px" height="320px" viewBox="0 0 320 320" version="1.1" xmlns="http://www.w3.org/2000/svg" xmlns:xlink="http://www.w3.org/1999/xlink">
    <title>编组 28</title>
    <g id="页面-1" stroke="none" stroke-width="1" fill="none" fill-rule="evenodd">
        <g id="Box-pc" transform="translate(-970.000000, -181.000000)">
            <g id="编组-42" transform="translate(970.000000, 181.000000)">
                <g id="编组@1x" transform="translate(25.454545, 21.818182)">
                    <path d="M62.6382979,0 C97.2324743,0 125.276596,28.0441212 125.276596,62.6382979 C125.276596,97.2324743 97.2324743,125.276596 62.6382979,125.276596 C28.0441212,125.276596 0,97.2324743 0,62.6382979 C0,28.0441212 28.0441212,0 62.6382979,0 Z M48.4560418,33.1512003 C46.4978808,33.1512003 44.9104777,34.7386033 44.9104777,36.6967643 L44.9104777,36.6967643 L44.9104777,88.5798313 C44.9104777,89.2698087 45.1117974,89.9447937 45.4897572,90.5220417 C46.5624102,92.1602754 48.7600181,92.6187689 50.3982519,91.5461158 L50.3982519,91.5461158 L90.0180486,65.6045823 C90.4262311,65.3373201 90.7748611,64.9886901 91.0421233,64.5805082 C92.1147758,62.9422744 91.6562824,60.7446665 90.0180486,59.6720134 L90.0180486,59.6720134 L50.3982519,33.7304797 C49.8210042,33.35252 49.1460189,33.1512003 48.4560418,33.1512003 Z" id="形状结合" fill="#FFD273" fill-rule="nonzero"></path>
                    <path d="M243.3739,11.3887814 C250.483838,11.3887814 256.247582,17.1525253 256.247582,24.2624638 L256.247582,83.9309598 C256.247582,91.0408982 250.483838,96.8046422 243.3739,96.8046422 L241.534802,96.8046422 C234.424864,96.8046422 228.66112,91.0408982 228.66112,83.9309598 L228.66112,44.7934254 C228.66112,41.5801324 226.056231,38.9752436 222.842938,38.9752436 L183.705404,38.9752436 L183.705404,38.9752436 C176.595465,38.9752436 170.831721,33.2114997 170.831721,26.1015613 L170.831721,24.2624638 C170.831721,17.1525253 176.595465,11.3887814 183.705404,11.3887814 L243.3739,11.3887814 Z" id="路径" stroke="#009999" stroke-width="2.90909091" fill="#FFFFFF"></path>
                    <path d="M83.9309598,170.831721 C91.0408982,170.831721 96.8046422,176.595465 96.8046422,183.705404 L96.8046422,243.3739 C96.8046422,250.483838 91.0408982,256.247582 83.9309598,256.247582 L82.0918623,256.247582 C74.9819239,256.247582 69.21818,250.483838 69.21818,243.3739 L69.21818,204.236365 C69.21818,201.023072 66.6132912,198.418184 63.3999981,198.418184 L24.2624638,198.418184 L24.2624638,198.418184 C17.1525253,198.418184 11.3887814,192.65444 11.3887814,185.544501 L11.3887814,183.705404 C11.3887814,176.595465 17.1525253,170.831721 24.2624638,170.831721 L83.9309598,170.831721 Z" id="路径备份-3" stroke="#009999" stroke-width="2.90909091" fill="#FFFFFF" transform="translate(54.096712, 213.539652) scale(-1, -1) translate(-54.096712, -213.539652) "></path>
                    <g id="编组备份-3" transform="translate(142.359768, 142.359768)" fill="#FF7673" fill-rule="nonzero">
                        <circle id="椭圆形" cx="62.6382979" cy="62.6382979" r="62.6382979"></circle>
                    </g>
                </g>
            </g>
        </g>
    </g>
</svg>