<?xml version="1.0" encoding="UTF-8"?>
<svg width="252px" height="252px" viewBox="0 0 252 252" version="1.1" xmlns="http://www.w3.org/2000/svg" xmlns:xlink="http://www.w3.org/1999/xlink">
    <title>编组 30</title>
    <defs>
        <rect id="path-1" x="0" y="0" width="252" height="252" rx="126"></rect>
    </defs>
    <g id="页面-1" stroke="none" stroke-width="1" fill="none" fill-rule="evenodd">
        <g id="Box-pc" transform="translate(-150.000000, -1505.000000)">
            <g id="编组-16备份-3" transform="translate(0.000000, 1425.000000)">
                <g id="编组-30" transform="translate(150.000000, 80.000000)">
                    <mask id="mask-2" fill="white">
                        <use xlink:href="#path-1"></use>
                    </mask>
                    <use id="蒙版" fill="#F8F8F8" xlink:href="#path-1"></use>
                    <g id="expressconnect-高速通道" mask="url(#mask-2)" fill-rule="nonzero">
                        <g transform="translate(27.000000, 33.964072)">
                            <path d="M168.011451,80.666148 C163.971624,77.8145678 158.743612,77.4581203 154.228511,79.4779896 L153.396782,78.5274628 L148.168771,83.5177281 L148.644044,84.1118073 C144.36658,90.4090468 145.91122,98.9637872 152.208598,103.241157 C158.505975,107.637343 167.060903,106.092738 171.457186,99.9143139 L171.457186,99.7954981 C175.853468,93.6170744 174.308829,85.062334 168.011451,80.666148 Z" id="路径" fill="#00CBCF"></path>
                            <path d="M31.1326016,55.3583742 C40.7568957,53.5761366 50.7376451,55.7148217 58.8172994,61.1803503 L58.8172994,61.1803503 L57.629115,59.9921919 L61.3124868,55.9524534 L66.6593169,60.8239028 L63.2135819,64.5071938 C69.3921411,70.0915383 73.5507867,77.5769361 75.0954265,85.8940449 C76.8777032,95.7557595 74.6201527,105.973922 68.9168673,114.172215 C61.5501237,124.746824 49.7870976,130.449985 37.7864346,130.449985 C30.0632356,130.449985 22.5776735,128.073668 16.2802959,123.677482 C7.96300468,117.974321 2.37853774,109.300765 0.596261051,99.3202347 C-1.18601563,89.4585201 1.07153483,79.2403579 6.77482023,71.042065 C12.4781056,62.7249562 21.1518522,57.1406118 31.1326016,55.3583742 Z M37.905253,61.8932453 C36.0041579,61.8932453 34.2218812,62.0120612 32.4396045,62.3685087 C24.3599502,63.6754829 17.3496619,68.3093007 12.7157425,74.9629877 C8.08182313,81.6166747 6.29954644,89.8149676 7.72536779,97.7756288 C9.15118914,105.855106 13.6662901,112.86524 20.320123,117.499058 C34.1030627,127.123141 53.2328325,123.796298 62.8571266,109.894844 C67.491046,103.359973 69.2733227,95.0428645 67.8475013,87.0822033 C66.5404984,79.0027262 61.906579,71.9925917 55.2527461,67.358774 C50.1435529,63.7942988 44.0838122,61.8932453 37.905253,61.8932453 Z" id="形状结合" fill="#00939E"></path>
                            <polygon id="路径" fill="#00CBCF" points="73.1943314 43.0015269 78.5411614 47.9917921 70.5803256 56.5465326 65.2334955 51.5562673 73.1943314 43.0015269"></polygon>
                            <polygon id="路径" fill="#00CBCF" points="149.475774 74.4877243 144.247762 79.5968054 136.286926 71.3985125 141.514938 66.2894314"></polygon>
                            <polygon id="路径" fill="#00CBCF" points="129.633093 54.1702158 124.405081 59.160481 132.365917 67.358774 137.593929 62.2496929"></polygon>
                            <path d="M117.988885,42.169816 C119.295888,40.7440259 120.602891,38.9617884 121.553439,37.1795508 C128.207272,24.9415193 123.573352,9.61427605 111.335052,3.07940489 C99.0967525,-3.57428211 83.769173,1.05953562 77.2341585,13.2975671 C73.0755129,21.0205966 73.1943314,30.5258638 77.7094323,38.1300775 L77.2341585,38.7241567 L79.7293459,40.9816576 C81.7492595,43.5956061 84.3632653,45.853107 87.5713633,47.5165288 C96.0074729,52.0315307 105.750585,51.3186356 113.236148,46.4471862 L112.642055,47.0412654 L120.484073,55.2395583 L125.712084,50.1304773 L117.988885,42.169816 L117.988885,42.169816 Z" id="路径" fill="#00CBCF"></path>
                            <path d="M37.7864346,105.973922 C45.3908151,105.973922 51.6881927,99.7954981 51.6881927,92.1912844 C51.6881927,84.5870707 45.5096335,78.2898312 37.905253,78.2898312 L37.7864346,78.2898312 C30.182054,78.2898312 24.0034949,84.5870707 24.0034949,92.1912844 C24.1223133,99.7954981 30.182054,105.855106 37.7864346,105.973922 Z" id="路径" fill="#00CBCF"></path>
                            <path d="M129.157819,69.9727224 C141.039664,52.7444257 164.684535,48.5858713 181.794391,60.4674553 C198.904247,72.467855 203.181711,96.1122071 191.181048,113.102872 C183.814304,123.677482 172.051278,129.380642 160.050615,129.380642 C152.327416,129.380642 144.841854,127.004325 138.544477,122.608139 C121.43462,110.726555 117.275975,87.0822033 129.157819,69.9727224 Z M160.169434,61.0615345 C150.188684,61.0615345 140.802027,65.9329839 135.098742,74.1312768 C125.474447,87.9139142 128.801364,107.043264 142.703122,116.667347 C156.486062,126.29143 175.615832,122.964587 185.240126,109.063134 C194.86442,95.1616803 191.418685,76.1511461 177.516927,66.5270631 C172.288915,62.8437721 166.229174,61.0615345 160.169434,61.0615345 Z" id="形状结合" fill="#00939E"></path>
                            <path d="M99.4532079,184.035928 C113.354966,184.035928 124.642718,172.748423 124.642718,158.84697 C124.642718,144.945517 113.354966,133.658012 99.4532079,133.658012 C85.5514497,133.658012 74.2636974,144.945517 74.2636974,158.84697 C74.1448789,172.748423 85.4326313,184.035928 99.4532079,184.035928 Z" id="路径" fill="#FF7673"></path>
                            <polygon id="路径" fill="#00CBCF" points="129.989548 118.211953 135.336378 123.202218 131.653007 127.241957 126.306177 122.251692"></polygon>
                            <polygon id="路径" fill="#00CBCF" points="122.266349 126.529062 127.613179 131.519327 119.652344 140.074068 114.305514 135.083802"></polygon>
                            <polygon id="路径" fill="#00CBCF" points="48.7177316 103.359973 43.4897199 108.469054 51.4505558 116.667347 56.6785674 111.558266 48.7177316 103.359973"></polygon>
                            <polygon id="路径" fill="#00CBCF" points="68.560412 123.915113 63.3324004 129.024195 55.3715645 120.825902 60.5995761 115.716821"></polygon>
                            <polygon id="路径" fill="#00CBCF" points="80.4422566 136.034329 72.4814207 127.836036 67.2534091 132.826301 75.0954265 141.024594"></polygon>
                        </g>
                    </g>
                </g>
            </g>
        </g>
    </g>
</svg>