<?xml version="1.0" encoding="UTF-8"?>
<svg width="450px" height="450px" viewBox="0 0 450 450" version="1.1" xmlns="http://www.w3.org/2000/svg" xmlns:xlink="http://www.w3.org/1999/xlink">
    <!-- Generator: Sketch 64 (93537) - https://sketch.com -->
    <title>编组 13@1x</title>
    <desc>Created with Sketch.</desc>
    <g id="Page-1" stroke="none" stroke-width="1" fill="none" fill-rule="evenodd">
        <g id="ABOUT-US备份" transform="translate(-838.000000, -546.000000)" fill-rule="nonzero">
            <g id="编组-15" transform="translate(838.000000, 546.000000)">
                <g id="编组-13" transform="translate(14.000000, 2.000000)">
                    <g id="编组-10">
                        <g id="编组-9">
                            <path d="M411,127.73301 L411,121.949874 C411,107.154058 403.042221,99.5683856 387.516751,99.5683856 L316.520881,99.5683856 C311.37173,99.5683856 308.32905,98.366695 304.506196,95.2873627 L300.137219,91.8325022 C295.144103,87.851902 291.321248,86.5 283.909592,86.5 L261.908674,86.5 C248.723726,86.5 241,93.7852494 241,108.355748 L241,127.73301 L411,127.73301 Z M389.545204,223.5 C403.120239,223.5 411,215.583105 411,200.062856 L411,138.373786 L241,138.373786 L241,200.062856 C241,215.583105 248.957779,223.5 264.561267,223.5 L389.545204,223.5 Z" id="4" fill="#00CBCF" transform="translate(326.000000, 155.000000) rotate(11.000000) translate(-326.000000, -155.000000) "></path>
                            <path d="M163.488591,154.5 C179.05906,154.5 187,146.597658 187,131.105939 L187,40.8158195 C187,25.4023415 179.05906,17.5 163.488591,17.5 L36.5114094,17.5 C20.9409396,17.5 13,25.3241005 13,40.8158195 L13,131.105939 C13,146.597658 20.9409396,154.5 36.5114094,154.5 L163.488591,154.5 Z M76.7557252,111.261724 L76.7557252,60.6395608 C76.7557252,57.040458 81.0017223,54.8496998 84.2441201,56.8057339 L126.240892,81.9212119 C129.25169,83.7990047 129.40609,88.1805211 126.240892,90.0583139 L84.2441201,115.173792 C80.7701225,117.208067 76.7557252,114.860826 76.7557252,111.261724 Z" id="3" fill="#FF7673" transform="translate(100.000000, 86.000000) rotate(-12.000000) translate(-100.000000, -86.000000) "></path>
                            <path d="M73.5543387,356.5 C85.1583825,356.5 102.564448,347.900714 102.564448,325.051184 L102.564448,254.209449 C102.564448,250.278347 103.136479,249.705061 106.56866,248.96798 L143.342039,240.860082 C146.20219,240.286796 148,237.993653 148,235.209122 L148,206.135347 C148,201.630959 144.404381,198.764531 140.073294,199.665408 L99.1322662,208.592286 C93.7388374,209.738857 90.8786858,212.605286 90.8786858,217.273469 L91.2872789,303.266327 C91.2872789,306.787939 89.7346251,309.081082 86.6293176,309.736265 L74.2898062,312.275102 C58.3546757,315.632918 51,323.740816 51,335.779816 C51,348.06451 60.4793597,356.5 73.5543387,356.5 Z" id="2" fill="#FF9F73" transform="translate(99.500000, 278.000000) rotate(-7.000000) translate(-99.500000, -278.000000) "></path>
                            <path d="M282.830391,348.685567 C292.47298,348.685567 300.455779,342.128254 300.455779,331.936766 C300.455779,322.298306 293.895657,315.978003 284.964407,315.978003 C280.459263,315.978003 276.90257,317.637083 274.610479,321.113249 C276.90257,310.68475 284.885369,303.811422 295.634485,303.337399 C298.637914,303.179392 300.77193,301.04629 300.77193,298.202154 C300.77193,294.725988 297.926576,292.829897 294.13277,292.829897 C277.297758,292.829897 262.359649,307.208584 262.359649,326.248494 C262.359649,339.837144 271.369937,348.685567 282.830391,348.685567 Z M236.54978,348.685567 C246.192369,348.685567 254.09613,342.128254 254.09613,331.936766 C254.09613,322.298306 247.536008,315.978003 238.604758,315.978003 C234.099614,315.978003 230.542921,317.716087 228.25083,321.113249 C230.542921,310.68475 238.52572,303.890426 249.353873,303.337399 C252.278265,303.179392 254.412281,301.04629 254.412281,298.202154 C254.412281,294.725988 251.566927,292.829897 247.773121,292.829897 C230.938109,292.829897 216,307.208584 216,326.248494 C216,339.837144 225.010288,348.685567 236.54978,348.685567 Z M361.121655,304.798969 C364.370214,304.798969 367,301.8242 367,298.149485 C367,294.474769 364.370214,291.5 361.121655,291.5 L319.895889,291.5 C316.64733,291.5 314.017544,294.474769 314.017544,298.149485 C314.017544,301.8242 316.64733,304.798969 319.895889,304.798969 L361.121655,304.798969 Z M361.121655,343.365979 C364.370214,343.365979 367,341.040862 367,338.011163 C367,335.051922 364.370214,332.726804 361.121655,332.726804 L319.895889,332.726804 C316.64733,332.726804 314.017544,335.051922 314.017544,338.011163 C314.017544,341.040862 316.64733,343.365979 319.895889,343.365979 L361.121655,343.365979 Z M361.029136,381.93299 C364.328824,381.93299 367,378.95822 367,375.283505 C367,371.60879 364.328824,368.634021 361.029136,368.634021 L221.970864,368.634021 C218.671176,368.634021 216,371.60879 216,375.283505 C216,378.95822 218.671176,381.93299 221.970864,381.93299 L361.029136,381.93299 Z M361.029136,420.5 C364.328824,420.5 367,418.174882 367,415.215641 C367,412.185943 364.328824,409.860825 361.029136,409.860825 L221.970864,409.860825 C218.671176,409.860825 216,412.185943 216,415.215641 C216,418.174882 218.671176,420.5 221.970864,420.5 L361.029136,420.5 Z" id="1" fill="#FFCC66" transform="translate(291.500000, 356.000000) rotate(24.000000) translate(-291.500000, -356.000000) "></path>
                        </g>
                        <g id="编组-11备份-7" transform="translate(69.000000, 71.000000)" fill="#009999">
                            <path d="M258.12231,230.00083 L303.430233,270.977176 C312.818052,279.467558 313.577809,293.976504 305.12836,303.406033 C296.783902,312.718393 282.550249,313.570039 273.164199,305.385425 L272.849058,305.105565 L224.997248,261.828869 C237.563157,252.939204 248.736012,242.198096 258.12231,230.00083 Z" id="形状结合"></path>
                            <path d="M142.938131,23.5643265 C205.498457,27.3224581 251.793098,81.1890112 249.290685,142.571827 C245.537066,205.207354 191.735185,251.557644 130.426065,249.052223 C67.8657393,245.294091 21.5710979,191.427538 24.0735111,130.044722 C26.5759244,68.6619055 81.6290113,21.0589053 142.938131,23.5643265 M144.60048,0.206085624 C69.6788034,-3.88273181 4.29261265,53.3607123 0.205975722,128.322365 C-3.8806612,203.284018 53.3322557,268.705097 128.253933,272.793914 C203.17561,276.882732 267.199588,219.639288 272.648437,144.677635 C278.097286,69.7159823 219.522157,5.65784231 144.60048,0.206085624 Z" id="形状"></path>
                        </g>
                    </g>
                </g>
            </g>
        </g>
    </g>
</svg>