<svg width="24" height="24" viewBox="0 0 24 24" fill="none" xmlns="http://www.w3.org/2000/svg">
<path opacity="0.4" d="M3.71101 11.3407H12.189C12.5812 11.3407 12.8995 11.659 12.8995 12.0512C12.8995 12.4434 12.5812 12.7617 12.189 12.7617H3.71101C3.3188 12.7617 3.00049 12.4434 3.00049 12.0512C3.00049 11.659 3.3188 11.3407 3.71101 11.3407Z" fill="#FF7673"/>
<mask id="mask0" mask-type="alpha" maskUnits="userSpaceOnUse" x="11" y="6" width="10" height="12">
<path fill-rule="evenodd" clip-rule="evenodd" d="M11.4788 17.4995V6.60311H20.4182V17.4995H11.4788Z" fill="white"/>
</mask>
<g mask="url(#mask0)">
<path d="M12.1893 6.60283C12.3219 6.60283 12.4527 6.63978 12.5682 6.71178L20.0865 11.4496C20.2931 11.5803 20.4191 11.8067 20.4191 12.0511C20.4191 12.2956 20.2931 12.522 20.0865 12.6527L12.5682 17.3905C12.3494 17.5279 12.0728 17.5364 11.8463 17.4104C11.619 17.2854 11.4788 17.0476 11.4788 16.7889V7.31336C11.4788 7.05472 11.619 6.81693 11.8463 6.69188C11.9534 6.6322 12.0718 6.60283 12.1893 6.60283Z" fill="#FF7673"/>
</g>
</svg>
