<?xml version="1.0" encoding="UTF-8"?>
<svg width="252px" height="252px" viewBox="0 0 252 252" version="1.1" xmlns="http://www.w3.org/2000/svg" xmlns:xlink="http://www.w3.org/1999/xlink">
    <title>编组 30</title>
    <defs>
        <path d="M0,81 C0,109.938512 15.4385123,136.678801 40.5,151.148058 C65.561487,165.617314 96.438513,165.617314 121.5,151.148058 C146.561488,136.678801 162,109.938512 162,81 C162,36.264935 125.735065,0 81,0 C36.2649353,0 0,36.264935 0,81 Z" id="path-1"></path>
        <path d="M0,81 C0,109.938512 15.4385123,136.678801 40.5,151.148058 C65.561487,165.617314 96.438513,165.617314 121.5,151.148058 C146.561488,136.678801 162,109.938512 162,81 C162,36.264935 125.735065,0 81,0 C36.2649353,0 0,36.264935 0,81 Z" id="path-3"></path>
        <path d="M0,81 C0,109.938512 15.4385123,136.678801 40.5,151.148058 C65.561487,165.617314 96.438513,165.617314 121.5,151.148058 C146.561488,136.678801 162,109.938512 162,81 C162,36.264935 125.735065,0 81,0 C36.2649353,0 0,36.264935 0,81 Z" id="path-5"></path>
    </defs>
    <g id="页面-1" stroke="none" stroke-width="1" fill="none" fill-rule="evenodd">
        <g id="Hub-pc" transform="translate(-1039.000000, -1093.000000)">
            <g id="编组-30" transform="translate(1039.000000, 1093.000000)">
                <g id="编组-15备份" fill="#FFFFFF">
                    <rect id="矩形" x="0" y="0" width="252" height="252" rx="126"></rect>
                </g>
                <g id="3" transform="translate(9.000000, 34.000000)">
                    <g id="路径" transform="translate(0.000000, 31.500000)" fill-rule="nonzero">
                        <g id="path-1-link" fill="#000000">
                            <path d="M46.7467,47.2062353 L126.6419,16.4597649 C136.8213,6.21094127 150.6428,0 166.936,0 C167.7214,0 168.5068,0.0154117927 169.2845,0.0462353782 L169.4,0 L169.4,0.0462353782 C203.6419,1.37164723 231,30.1685295 231,65.5 C231,100.831471 203.6419,129.628353 169.4,130.953765 L169.4,131 L38.5,131 C17.2402999,131 0,112.028117 0,88.6176474 C0,65.2071769 17.2403002,46.2352942 38.5,46.2352942 C41.3335998,46.2352942 44.0901999,46.5743532 46.7467,47.2062353 Z" id="path-1"></path>
                        </g>
                        <g id="path-1-link" fill="#00939E">
                            <path d="M46.7467,47.2062353 L126.6419,16.4597649 C136.8213,6.21094127 150.6428,0 166.936,0 C167.7214,0 168.5068,0.0154117927 169.2845,0.0462353782 L169.4,0 L169.4,0.0462353782 C203.6419,1.37164723 231,30.1685295 231,65.5 C231,100.831471 203.6419,129.628353 169.4,130.953765 L169.4,131 L38.5,131 C17.2402999,131 0,112.028117 0,88.6176474 C0,65.2071769 17.2403002,46.2352942 38.5,46.2352942 C41.3335998,46.2352942 44.0901999,46.5743532 46.7467,47.2062353 Z" id="path-1"></path>
                        </g>
                    </g>
                    <path d="M218.695874,133 C214.303074,133 210.686979,135.503616 209.161475,139.218734 L171.305264,139.218734 L141.662588,168.561944 L124.268125,168.561944 C123.108253,166.574634 121.270093,165.062785 119.084668,164.298656 C113.931442,162.25799 107.750361,164.989627 105.687675,170.082078 C103.62499,175.17453 106.385315,181.308044 111.526913,183.351013 C116.154585,184.988613 121.100844,183.473085 123.914654,179.414785 L146.178637,179.414785 L146.178637,179.400966 L146.19724,179.419392 L175.837591,150.060059 L210.16375,150.060059 L210.16375,150.011691 L211.138119,150.011691 C213.027583,152.194052 215.793377,153.438985 218.695874,153.413569 C224.535111,153.413569 229,148.991358 229,143.207936 C228.984673,137.577447 224.380698,133.01645 218.695874,133 L218.695874,133 Z" id="路径" fill="#E1E5F0" fill-rule="nonzero"></path>
                    <g id="路径" transform="translate(24.000000, 0.500000)" fill="#00CBCF" fill-rule="nonzero">
                        <path d="M0,81 C0,109.938512 15.4385123,136.678801 40.5,151.148058 C65.561487,165.617314 96.438513,165.617314 121.5,151.148058 C146.561488,136.678801 162,109.938512 162,81 C162,36.264935 125.735065,0 81,0 C36.2649353,0 0,36.264935 0,81 Z" id="path-3"></path>
                    </g>
                    <g id="形状-Clipped" transform="translate(24.000000, 0.500000)">
                        <mask id="mask-2" fill="white">
                            <use xlink:href="#path-1"></use>
                        </mask>
                        <g id="path-3"></g>
                        <path d="M19.7516084,122.519372 C22.916459,122.519372 25.4820772,125.091044 25.4820772,128.263362 C25.4820772,131.435681 22.916459,134.007353 19.7516084,134.007353 L-8.56364888,134.007353 C-11.7284994,134.007353 -14.2941176,131.435681 -14.2941176,128.263362 C-14.2941176,125.091044 -11.7284994,122.519372 -8.56364888,122.519372 L19.7516084,122.519372 Z M70.3145681,122.519372 C73.4794186,122.519372 76.045037,125.091044 76.045037,128.263362 C76.045037,131.435681 73.4794186,134.007353 70.3145681,134.007353 L41.9993106,134.007353 C38.8344601,134.007353 36.2688419,131.435681 36.2688419,128.263362 C36.2688419,125.091044 38.8344601,122.519372 41.9993106,122.519372 L70.3145681,122.519372 Z M28.5158548,59.6733599 C31.6807053,59.6733599 34.2463235,62.2450319 34.2463235,65.4173498 C34.2463235,68.5896684 31.6807053,71.1613404 28.5158548,71.1613404 L0.200597453,71.1613404 C-2.96425307,71.1613404 -5.52987131,68.5896684 -5.52987131,65.4173498 C-5.52987131,62.2450319 -2.96425307,59.6733599 0.200597453,59.6733599 L28.5158548,59.6733599 Z M174.137178,59.6733599 C177.302029,59.6733599 179.867647,62.2450319 179.867647,65.4173498 C179.867647,68.5896684 177.302029,71.1613404 174.137178,71.1613404 L145.821921,71.1613404 C142.65707,71.1613404 140.091452,68.5896684 140.091452,65.4173498 C140.091452,62.2450319 142.65707,59.6733599 145.821921,59.6733599 L174.137178,59.6733599 Z M46.7185201,28.5882353 C49.8833706,28.5882353 52.448989,31.1599074 52.448989,34.3322257 C52.448989,37.5045439 49.8833706,40.076216 46.7185201,40.076216 L-8.56364888,40.076216 C-11.7284994,40.076216 -14.2941176,37.5045439 -14.2941176,34.3322257 C-14.2941176,31.1599074 -11.7284994,28.5882353 -8.56364888,28.5882353 L46.7185201,28.5882353 Z" id="形状" fill="#E1E5F0" fill-rule="nonzero" mask="url(#mask-2)"></path>
                    </g>
                    <g id="Code-Clipped" transform="translate(24.000000, 0.500000)">
                        <mask id="mask-4" fill="white">
                            <use xlink:href="#path-3"></use>
                        </mask>
                        <g id="path-3"></g>
                        <path d="M47.0886949,91.125 C50.0491037,91.125 52.448989,93.5248853 52.448989,96.4852941 L52.448989,97.6764706 C52.448989,100.636879 50.0491037,103.036765 47.0886949,103.036765 L-8.93382353,103.036765 C-11.8942322,103.036765 -14.2941176,100.636879 -14.2941176,97.6764706 L-14.2941176,96.4852941 C-14.2941176,93.5248853 -11.8942322,91.125 -8.93382353,91.125 L47.0886949,91.125 Z M77.4264706,91.125 C80.3868794,91.125 82.7867647,93.5248853 82.7867647,96.4852941 L82.7867647,97.6764706 C82.7867647,100.636879 80.3868794,103.036765 77.4264706,103.036765 L67.2477021,103.036765 C64.2872932,103.036765 61.887408,100.636879 61.887408,97.6764706 L61.887408,96.4852941 C61.887408,93.5248853 64.2872932,91.125 67.2477021,91.125 L77.4264706,91.125 Z" id="Code" fill="#00939E" fill-rule="nonzero" mask="url(#mask-4)"></path>
                    </g>
                    <g id="Code-Clipped" transform="translate(24.000000, 0.500000)">
                        <mask id="mask-6" fill="white">
                            <use xlink:href="#path-5"></use>
                        </mask>
                        <g id="path-3"></g>
                        <path d="M183.738971,122.519372 C186.534912,122.519372 188.801471,124.785931 188.801471,127.581872 L188.801471,128.944853 C188.801471,131.740794 186.534912,134.007353 183.738971,134.007353 L132.608341,134.007353 C129.812399,134.007353 127.545841,131.740794 127.545841,128.944853 L127.545841,127.581872 C127.545841,124.785931 129.812399,122.519372 132.608341,122.519372 L183.738971,122.519372 Z M75.3636257,28.5882353 C78.1595676,28.5882353 80.4261257,30.8547937 80.4261257,33.6507353 L80.4261257,35.013716 C80.4261257,37.8096576 78.1595676,40.076216 75.3636257,40.076216 L64.6213235,40.076216 C61.8253822,40.076216 59.5588235,37.8096576 59.5588235,35.013716 L59.5588235,33.6507353 C59.5588235,30.8547937 61.8253822,28.5882353 64.6213235,28.5882353 L75.3636257,28.5882353 Z" id="Code" fill="#00939E" fill-rule="nonzero" mask="url(#mask-6)"></path>
                    </g>
                    <path d="M142.333816,38.2672833 C146.00833,38.3096346 149.412569,36.3326521 151.210031,33.1124977 L176.348421,33.1124977 L200.997057,57.8648409 L201.039035,57.9093594 L216.13513,57.9093594 C218.01094,60.8038591 221.228507,62.5350589 224.666184,62.4994615 C230.522246,62.4994615 235,58.0007397 235,52.1172549 C235,46.23377 230.522246,41.735048 224.666184,41.735048 C221.000589,41.6940761 217.603877,43.6626177 215.803962,46.8710889 L205.983222,46.8710889 L185.805344,26.8845793 L180.989426,22.0601686 L150.843881,22.0601686 C148.964989,19.1836354 145.758215,17.4654649 142.333816,17.5005265 C136.477754,17.5005265 132,21.9992484 132,27.8827333 C132,33.7662182 136.477754,38.2672833 142.333816,38.2672833 Z" id="形状" fill="#FF7673" fill-rule="nonzero"></path>
                    <path d="M164.499556,108.499423 C168.170627,108.538386 171.579873,106.603065 173.428088,103.430977 L190.571912,103.430977 C192.420128,106.603065 195.829373,108.538386 199.500444,108.499423 C205.450429,108.499423 210,103.949906 210,98 C210,92.0500761 205.450429,87.5005594 199.500444,87.5005594 C195.954449,87.4635202 192.642942,89.2681443 190.751999,92.2680741 L173.248001,92.2680741 C171.357058,89.2681443 168.045551,87.4635202 164.499556,87.5005594 C158.549571,87.5005594 154,92.0500761 154,98 C154,103.949906 158.549571,108.499423 164.499556,108.499423 Z" id="路径" fill="#E1E5F0" fill-rule="nonzero"></path>
                </g>
            </g>
        </g>
    </g>
</svg>