<?xml version="1.0" encoding="UTF-8"?>
<svg width="252px" height="252px" viewBox="0 0 252 252" version="1.1" xmlns="http://www.w3.org/2000/svg" xmlns:xlink="http://www.w3.org/1999/xlink">
    <title>Sustainable Community</title>
    <g id="页面-1" stroke="none" stroke-width="1" fill="none" fill-rule="evenodd">
        <g id="Hub-pc" transform="translate(-150.000000, -1505.000000)" fill-rule="nonzero">
            <g id="Sustainable-Community" transform="translate(150.000000, 1505.000000)">
                <path d="M0.528387097,126 C0.528387097,195.296058 56.7039417,251.471613 126,251.471613 C195.296058,251.471613 251.471613,195.296058 251.471613,126 C251.471613,56.7039417 195.296058,0.528387097 126,0.528387097 C56.7039417,0.528387097 0.528387097,56.7039417 0.528387097,126 Z" id="路径" fill="#F8F8F8"></path>
                <path d="M159.749303,190.528258 L92.2506968,190.528258 L92.2506968,49.6927742 C92.2506968,45.4421032 95.6819613,42.0108387 99.9326323,42.0108387 L152.067368,42.0108387 C156.318039,42.0108387 159.749303,45.4421032 159.749303,49.6927742 L159.749303,190.528258 Z" id="路径" fill="#FF7673"></path>
                <path d="M168.301858,42.0108387 L151.094323,42.0108387 C155.344994,42.0108387 158.776258,45.4421032 158.776258,49.6927742 L158.776258,190.528258 L175.983794,190.528258 L175.983794,49.6927742 C175.983794,45.4421032 172.552529,42.0108387 168.301858,42.0108387 Z" id="路径" fill="#FFCC66"></path>
                <polygon id="路径" fill="#FFFFFF" points="107.614568 84.7224 144.385432 84.7224 144.385432 103.671174 107.614568 103.671174"></polygon>
                <polygon id="路径" fill="#FFFFFF" points="107.614568 57.2722839 144.385432 57.2722839 144.385432 74.6334581 107.614568 74.6334581"></polygon>
                <polygon id="路径" fill="#FFFFFF" points="107.614568 112.172516 144.385432 112.172516 144.385432 131.12129 107.614568 131.12129"></polygon>
                <polygon id="路径" fill="#FFFFFF" points="107.614568 139.673845 144.385432 139.673845 144.385432 161.849032 107.614568 161.849032"></polygon>
                <path d="M56.4349935,74.1774194 C45.7827097,80.3229677 38.6129032,91.845871 38.6129032,105.0588 C38.6129032,118.271729 45.7827097,129.794632 56.4349935,135.940181 C67.0872774,129.794632 74.2570839,118.271729 74.2570839,105.0588 C74.2570839,91.845871 67.0872774,80.3229677 56.4349935,74.1774194 L56.4349935,74.1774194 Z" id="路径" fill="#32C8CD"></path>
                <path d="M57.1186452,183.716942 C55.6846839,183.716942 54.558,182.590258 54.558,181.156297 L54.558,88.409729 C54.558,86.9757677 55.6846839,85.8490839 57.1186452,85.8490839 C58.5526065,85.8490839 59.6792903,86.9757677 59.6792903,88.409729 L59.6792903,181.20751 C59.6792903,182.590258 58.5526065,183.716942 57.1186452,183.716942 Z" id="路径" fill="#009999"></path>
                <path d="M103.757022,119.685048 C95.9214483,117.585319 87.2152547,119.633835 81.0697064,125.779384 C74.924158,131.924932 72.8756418,140.631126 74.9753709,148.4667 C82.8109451,150.566429 91.5171386,148.517913 97.662687,142.372364 C103.859448,136.226816 105.856752,127.520622 103.757022,119.685048 Z" id="路径" fill="#32C8CD"></path>
                <path d="M57.1186452,169.479755 C56.4528774,169.479755 55.7871097,169.22369 55.3261935,168.711561 C54.3019355,167.687303 54.3019355,166.099703 55.3261935,165.075445 L94.9137677,125.487871 C95.9380258,124.463613 97.5256258,124.463613 98.5498839,125.487871 C99.5741419,126.512129 99.5741419,128.099729 98.5498839,129.123987 L58.9110968,168.762774 C58.4501806,169.22369 57.7844129,169.479755 57.1186452,169.479755 L57.1186452,169.479755 Z" id="路径" fill="#009999"></path>
                <path d="M10.967514,120.701177 C18.8030882,118.601448 27.5092817,120.649964 33.6548301,126.795513 C39.8003785,132.941061 41.8488946,141.647255 39.7491656,149.482829 C31.8623785,151.531345 23.156185,149.534042 17.0106366,143.388493 C10.8650882,137.242945 8.86778497,128.536752 10.967514,120.701177 L10.967514,120.701177 Z" id="路径" fill="#32C8CD"></path>
                <path d="M57.1186452,169.479755 C56.4528774,169.479755 55.7871097,169.22369 55.3261935,168.711561 L15.7386194,129.123987 C14.7143613,128.099729 14.7143613,126.512129 15.7386194,125.487871 C16.7628774,124.463613 18.3504774,124.463613 19.3747355,125.487871 L58.9623097,165.075445 C59.9865677,166.099703 59.9865677,167.687303 58.9623097,168.711561 C58.4501806,169.22369 57.7844129,169.479755 57.1186452,169.479755 Z" id="路径" fill="#009999"></path>
                <path d="M194.628542,74.1774194 C183.976258,80.3229677 176.806452,91.845871 176.806452,105.0588 C176.806452,118.271729 183.976258,129.794632 194.628542,135.940181 C205.280826,129.794632 212.450632,118.271729 212.450632,105.0588 C212.450632,91.845871 205.280826,80.3229677 194.628542,74.1774194 L194.628542,74.1774194 Z" id="路径" fill="#32C8CD"></path>
                <path d="M194.881355,183.716942 C193.447394,183.716942 192.32071,182.590258 192.32071,181.156297 L192.32071,88.409729 C192.32071,86.9757677 193.447394,85.8490839 194.881355,85.8490839 C196.315316,85.8490839 197.442,86.9757677 197.442,88.409729 L197.442,181.20751 C197.442,182.590258 196.315316,183.716942 194.881355,183.716942 Z" id="路径" fill="#009999"></path>
                <path d="M241.950571,120.701177 C234.114997,118.601448 225.408803,120.649964 219.263255,126.795513 C213.117706,132.941061 211.06919,141.647255 213.168919,149.482829 C221.004493,151.582558 229.710687,149.534042 235.856235,143.388493 C242.052997,137.242945 244.0503,128.536752 241.950571,120.701177 Z" id="路径" fill="#32C8CD"></path>
                <path d="M194.881355,169.479755 C194.215587,169.479755 193.549819,169.22369 193.088903,168.711561 C192.064645,167.687303 192.064645,166.099703 193.088903,165.075445 L232.676477,125.487871 C233.700735,124.463613 235.288335,124.463613 236.312594,125.487871 C237.336852,126.512129 237.336852,128.099729 236.312594,129.123987 L196.673806,168.762774 C196.21289,169.22369 195.547123,169.479755 194.881355,169.479755 L194.881355,169.479755 Z" id="路径" fill="#009999"></path>
                <path d="M147.127949,119.685048 C154.963523,117.585319 163.669717,119.633835 169.815265,125.779384 C175.960813,131.924932 178.009329,140.631126 175.9096,148.4667 C168.074026,150.566429 159.367833,148.517913 153.222284,142.372364 C147.025523,136.226816 145.02822,127.520622 147.127949,119.685048 Z" id="路径" fill="#32C8CD"></path>
                <path d="M194.881355,169.479755 C194.215587,169.479755 193.549819,169.22369 193.088903,168.711561 L153.501329,129.123987 C152.477071,128.099729 152.477071,126.512129 153.501329,125.487871 C154.525587,124.463613 156.113187,124.463613 157.137445,125.487871 L196.725019,165.075445 C197.749277,166.099703 197.749277,167.687303 196.725019,168.711561 C196.21289,169.22369 195.547123,169.479755 194.881355,169.479755 Z" id="路径" fill="#009999"></path>
                <path d="M131.377355,251.369187 C131.787058,251.369187 132.247974,251.317974 132.657677,251.317974 C133.681935,251.266761 134.654981,251.215548 135.628026,251.113123 C170.913716,248.450052 202.102374,231.14009 223.20209,205.328787 C199.490516,178.339587 164.716955,161.336903 126,161.336903 C87.2830452,161.336903 52.5094839,178.339587 28.7979097,205.328787 C49.8976258,231.14009 81.0862839,248.450052 116.371974,251.113123 C117.345019,251.164335 118.369277,251.266761 119.342323,251.317974 C119.752026,251.317974 120.212942,251.369187 120.622645,251.369187 C121.288413,251.4204 121.954181,251.4204 122.568735,251.4204 C123.695419,251.471613 124.822103,251.471613 125.948787,251.471613 C127.075471,251.471613 128.202155,251.471613 129.328839,251.4204 C130.045819,251.4204 130.711587,251.369187 131.377355,251.369187 Z" id="路径" fill="#00939E"></path>
            </g>
        </g>
    </g>
</svg>