<svg width="289" height="254" viewBox="0 0 289 254" fill="none" xmlns="http://www.w3.org/2000/svg">
<path d="M86.6953 223.14C32.398 198.333 -61.8884 82.0713 63.1538 77.7145C146.04 62.8469 222.938 58.1171 246.503 24.9253" stroke="#009191" stroke-dasharray="4 4"/>
<path fill-rule="evenodd" clip-rule="evenodd" d="M91.265 81.0215L49.9878 93.2965L37.7129 52.0193L78.9901 39.7444L91.265 81.0215Z" fill="#FFE4B2"/>
<path fill-rule="evenodd" clip-rule="evenodd" d="M88.2279 86.3372L46.9507 98.6121L34.6758 57.335L75.9529 45.0601L88.2279 86.3372Z" fill="#FBCB67"/>
<path fill-rule="evenodd" clip-rule="evenodd" d="M170.397 100.259C170.397 104.636 166.848 108.185 162.471 108.185C158.094 108.185 154.545 104.636 154.545 100.259C154.545 95.8817 158.094 92.333 162.471 92.333C166.848 92.333 170.397 95.8817 170.397 100.259Z" fill="#3F3C4E"/>
<path fill-rule="evenodd" clip-rule="evenodd" d="M142.997 123.147L143.282 124.582C144.453 130.462 143.798 136.559 141.406 142.057L139.836 145.664L188.46 141.574L181.081 134.644C176.642 130.474 172.852 125.664 169.837 120.372L166.079 113.774L142.997 123.147Z" fill="#3F3C4E"/>
<path fill-rule="evenodd" clip-rule="evenodd" d="M167.46 119.801C167.46 127.43 161.276 133.614 153.648 133.614C146.02 133.614 139.836 127.43 139.836 119.801C139.836 112.173 146.02 105.989 153.648 105.989C161.276 105.989 167.46 112.173 167.46 119.801Z" fill="#FFC1C1"/>
<path fill-rule="evenodd" clip-rule="evenodd" d="M141.982 112.409L149.128 109.502L149.34 111.925C149.807 117.285 154.956 120.999 160.257 119.801L161.222 118.934C162.253 118.01 163.865 118.985 163.502 120.313L162.692 123.283C161.811 123.713 161.573 124.848 162.208 125.589L164.679 128.426H164.68C167.566 124.798 168.454 119.993 167.05 115.59L166.832 114.907L166.237 113.551C164.421 109.416 160.47 106.591 155.931 106.183L153.774 105.989L151.82 106.117C147.661 106.389 143.94 108.769 141.982 112.409Z" fill="#3F3C4E"/>
<path fill-rule="evenodd" clip-rule="evenodd" d="M71.5254 82.8087L73.4045 83.6372L80.8175 90.512L86.273 99.7245C95.8376 115.876 110.108 128.833 127.239 136.921L134.403 140.303C145.495 143.166 157.178 142.94 168.146 139.649L170.824 138.845C187.962 138.521 204.571 144.689 217.216 156.072L221.241 159.696L236.331 171.017L234.543 173.249L234.515 173.294C234.481 173.374 234.502 173.47 234.573 173.527C234.659 173.596 234.783 173.582 234.852 173.497L236.645 171.26L236.672 171.215C236.707 171.135 236.685 171.039 236.614 170.982L236.615 170.983L260 142.387L264.786 134.378C265.229 133.637 265.907 133.059 266.715 132.732L266.759 132.715C267.847 132.275 269.076 132.865 269.394 133.972C269.419 134.06 269.442 134.14 269.462 134.208C269.418 134.232 269.384 134.274 269.371 134.327L267.841 140.271C267.835 140.297 267.833 140.321 267.836 140.346L267.839 140.361L267.854 140.406L269.092 143.005L269.194 143.228C270.273 145.695 269.952 148.559 268.337 150.729C268.272 150.817 268.29 150.941 268.378 151.007C268.465 151.072 268.589 151.054 268.655 150.966C270.406 148.612 270.712 145.482 269.45 142.834L268.242 140.3L269.754 134.426L269.76 134.38C269.761 134.335 269.747 134.292 269.72 134.257L275.303 128.605C276.167 127.731 277.466 127.425 278.638 127.82L278.661 127.828C278.958 127.928 279.157 128.185 279.18 128.486C279.198 128.727 279.22 129.012 279.237 129.231C279.254 129.464 279.228 129.697 279.159 129.92L278.696 131.432C278.603 131.403 278.501 131.447 278.459 131.538L275.662 137.573L275.647 137.616C275.629 137.704 275.673 137.796 275.758 137.836C275.857 137.882 275.975 137.839 276.021 137.739L278.818 131.704L278.833 131.661C278.847 131.591 278.822 131.518 278.769 131.472L280.739 129.209C281.244 128.629 282.089 128.467 282.779 128.818L282.808 128.833C283.502 129.185 283.933 129.884 283.933 130.646L283.933 131.621L283.158 134.207C283.109 134.224 283.067 134.26 283.044 134.31L279.762 141.391L279.747 141.434C279.729 141.522 279.773 141.614 279.858 141.654C279.957 141.7 280.075 141.657 280.121 141.557L283.403 134.477L283.417 134.434C283.436 134.346 283.392 134.253 283.307 134.214C283.3 134.211 283.292 134.208 283.285 134.206L284.438 132.809C284.976 132.155 285.954 132.06 286.612 132.597C287.026 132.936 287.19 133.488 287.026 133.992L286.27 136.323C286.177 136.294 286.074 136.338 286.032 136.429L282.749 143.509L282.735 143.553C282.717 143.641 282.761 143.733 282.846 143.772C282.945 143.818 283.063 143.775 283.109 143.676L286.391 136.595L286.405 136.552C286.423 136.464 286.38 136.372 286.295 136.333C286.289 136.33 286.284 136.328 286.278 136.326L287.114 135.256C287.466 134.806 288.117 134.714 288.583 135.049C288.962 135.32 289.102 135.812 288.922 136.237L273.093 168.423C271.687 171.283 270.028 174.014 268.134 176.587L253.434 196.553C247.796 202.223 239.005 203.501 231.941 199.676L228.865 198.011L195.613 183.011L201.967 213.472L207.686 228.572L215.161 249.156L135.038 250.404L135.462 214.47L131.438 188.644L129.32 165.321L122.305 162.807C106.388 157.102 92.6893 146.635 83.133 132.876L77.0051 124.053L58.4121 95.3038L71.9238 91.3516L68.3212 86.5538L68.1022 85.5159C67.6927 83.5778 69.6887 81.9993 71.5254 82.8087Z" fill="#99D7D7"/>
<path d="M145.506 117.989L139.836 126.748" stroke="#009191" stroke-width="0.55" stroke-linecap="round"/>
<path d="M144.833 126.192L139.836 126.749" stroke="#009191" stroke-width="0.55" stroke-linecap="round"/>
<path d="M147.908 128.426L148.627 128.663C150.611 129.316 152.792 128.851 154.338 127.446L154.846 126.984" stroke="#009191" stroke-width="0.55" stroke-linecap="round"/>
<path fill-rule="evenodd" clip-rule="evenodd" d="M150.843 120.953C150.843 121.589 150.327 122.105 149.691 122.105C149.055 122.105 148.539 121.589 148.539 120.953C148.539 120.317 149.055 119.801 149.691 119.801C150.327 119.801 150.843 120.317 150.843 120.953Z" fill="#009191"/>
<path fill-rule="evenodd" clip-rule="evenodd" d="M143.007 118.36C143.007 118.996 142.491 119.512 141.855 119.512C141.219 119.512 140.703 118.996 140.703 118.36C140.703 117.724 141.219 117.208 141.855 117.208C142.491 117.208 143.007 117.724 143.007 118.36Z" fill="#009191"/>
<path fill-rule="evenodd" clip-rule="evenodd" d="M135.255 218.732L132.576 253.617L219.626 253.644C211.431 236.829 205.975 223.879 203.258 214.793L202.266 211.478C186.998 227.328 163.587 231.769 143.712 222.584L135.255 218.732Z" fill="#00CBCF"/>
<path fill-rule="evenodd" clip-rule="evenodd" d="M216.379 253.532H53.6522L53.4745 248.345H216.201L216.379 253.532Z" fill="#32C7CC"/>
<path fill-rule="evenodd" clip-rule="evenodd" d="M55.9236 249.046L135.105 249.466L121.466 196.182H43.7876L55.9236 249.046Z" fill="#32C7CC"/>
<path fill-rule="evenodd" clip-rule="evenodd" d="M80.8379 223.805C80.8379 226.983 83.4139 229.559 86.5916 229.559C89.7696 229.559 92.3457 226.983 92.3457 223.805C92.3457 220.627 89.7696 218.051 86.5916 218.051C83.4139 218.051 80.8379 220.627 80.8379 223.805Z" fill="#009898"/>
<path fill-rule="evenodd" clip-rule="evenodd" d="M90.7099 225.889C90.7099 227.115 91.7035 228.109 92.9292 228.109C94.1544 228.109 95.1484 227.115 95.1484 225.889C95.1484 224.664 94.1544 223.67 92.9292 223.67C91.7035 223.67 90.7099 224.664 90.7099 225.889Z" fill="#009191"/>
<path d="M247.981 16.6173L258.384 7.92521L244.63 14.0557L237.067 8.27403C236.901 8.14711 236.775 7.97511 236.704 7.77851C236.633 7.58192 236.619 7.36903 236.666 7.16522C236.713 6.96141 236.817 6.77527 236.966 6.62901C237.115 6.48274 237.304 6.38251 237.508 6.34026L268.159 0.0222805C268.338 -0.0145833 268.524 -0.00559106 268.699 0.0484252C268.874 0.102441 269.033 0.199738 269.161 0.33132C269.288 0.462902 269.381 0.624521 269.429 0.801235C269.478 0.977949 269.481 1.16405 269.438 1.34234L263.432 26.5009C263.39 26.6776 263.305 26.8411 263.183 26.9763C263.062 27.1115 262.909 27.2143 262.738 27.2753C262.567 27.3363 262.383 27.3535 262.203 27.3255C262.024 27.2974 261.854 27.2249 261.71 27.1146L247.981 16.6173ZM245.125 25.3051L246.624 18.2895L252.499 22.8252L246.773 26.4529C246.592 26.5678 246.38 26.6266 246.166 26.6219C245.951 26.6172 245.743 26.5492 245.566 26.4265C245.39 26.3038 245.254 26.1318 245.176 25.9321C245.097 25.7324 245.079 25.5139 245.124 25.304L245.125 25.3051Z" fill="#009191"/>
</svg>
