<?xml version="1.0" encoding="UTF-8"?>
<svg width="620px" height="316px" viewBox="0 0 620 316" version="1.1" xmlns="http://www.w3.org/2000/svg" xmlns:xlink="http://www.w3.org/1999/xlink">
    <title>编组 23</title>
    <defs>
        <polygon id="path-1" points="0.378316155 0.283712917 151.140365 0.283712917 151.140365 113.077956 0.378316155 113.077956"></polygon>
        <path d="M2.08136299,2.93337083 C-0.960286844,6.43263729 -0.589393674,11.7351752 2.90993545,14.7768877 L2.90993545,14.7768877 C6.40926457,17.8186002 11.7118025,17.4476444 14.753515,13.9483152 L14.753515,13.9483152 C17.7952275,10.4490488 17.4242716,5.14644821 13.9249425,2.10479837 L13.9249425,2.10479837 C12.335284,0.722987902 10.3739803,0.04555488 8.42101068,0.04555488 L8.42101068,0.04555488 C6.07502835,0.04555488 3.74132767,1.02370024 2.08136299,2.93337083 L2.08136299,2.93337083 Z" id="path-3"></path>
        <path d="M2.08136299,2.93337083 C-0.960286844,6.43263729 -0.589393674,11.7351752 2.90993545,14.7768877 L2.90993545,14.7768877 C6.40926457,17.8186002 11.7118025,17.4476444 14.753515,13.9483152 L14.753515,13.9483152 C17.7952275,10.4490488 17.4242716,5.14644821 13.9249425,2.10479837 L13.9249425,2.10479837 C12.335284,0.722987902 10.3739803,0.04555488 8.42101068,0.04555488 L8.42101068,0.04555488 C6.07502835,0.04555488 3.74132767,1.02370024 2.08136299,2.93337083 L2.08136299,2.93337083 Z" id="path-5"></path>
        <path d="M2.08136299,2.93337083 C-0.960286844,6.43263729 -0.589393674,11.7351752 2.90993545,14.7768877 L2.90993545,14.7768877 C6.40926457,17.8186002 11.7118025,17.4476444 14.753515,13.9483152 L14.753515,13.9483152 C17.7952275,10.4490488 17.4242716,5.14644821 13.9249425,2.10479837 L13.9249425,2.10479837 C12.335284,0.722987902 10.3739803,0.04555488 8.42101068,0.04555488 L8.42101068,0.04555488 C6.07502835,0.04555488 3.74132767,1.02370024 2.08136299,2.93337083 L2.08136299,2.93337083 Z" id="path-7"></path>
        <path d="M2.08136299,2.93337083 C-0.960286844,6.43263729 -0.589393674,11.7351752 2.90993545,14.7768877 L2.90993545,14.7768877 C6.40926457,17.8186002 11.7118025,17.4476444 14.753515,13.9483152 L14.753515,13.9483152 C17.7952275,10.4490488 17.4242716,5.14644821 13.9249425,2.10479837 L13.9249425,2.10479837 C12.335284,0.722987902 10.3739803,0.04555488 8.42101068,0.04555488 L8.42101068,0.04555488 C6.07502835,0.04555488 3.74132767,1.02370024 2.08136299,2.93337083 L2.08136299,2.93337083 Z" id="path-9"></path>
        <path d="M2.08136299,2.93337083 C-0.960286844,6.43263729 -0.589393674,11.7351752 2.90993545,14.7768877 L2.90993545,14.7768877 C6.40926457,17.8186002 11.7118025,17.4476444 14.753515,13.9483152 L14.753515,13.9483152 C17.7952275,10.4490488 17.4242716,5.14644821 13.9249425,2.10479837 L13.9249425,2.10479837 C12.335284,0.722987902 10.3739803,0.04555488 8.42101068,0.04555488 L8.42101068,0.04555488 C6.07502835,0.04555488 3.74132767,1.02370024 2.08136299,2.93337083 L2.08136299,2.93337083 Z" id="path-11"></path>
    </defs>
    <g id="页面-1" stroke="none" stroke-width="1" fill="none" fill-rule="evenodd">
        <g id="Contribute-pc" transform="translate(-669.000000, -184.000000)">
            <g id="编组-23" transform="translate(671.000000, 184.000000)">
                <g id="Group-324" transform="translate(0.000000, 22.690616)">
                    <line x1="25" y1="2.32844575" x2="231" y2="2.32844575" id="Stroke-1" stroke="#1E6E73" stroke-width="5"></line>
                    <line x1="26" y1="1.32844575" x2="26" y2="54.3284457" id="Stroke-2" stroke="#1E6E73" stroke-width="5"></line>
                    <line x1="25" y1="54.3284457" x2="37" y2="54.3284457" id="Stroke-3" stroke="#1E6E73" stroke-width="5"></line>
                    <line x1="203" y1="117.328446" x2="203" y2="223.328446" id="Stroke-4" stroke="#1E6E73" stroke-width="5"></line>
                    <line x1="190" y1="223.328446" x2="204" y2="223.328446" id="Stroke-5" stroke="#1E6E73" stroke-width="2.75"></line>
                    <g id="Group-14" transform="translate(0.000000, 233.328446)" stroke="#1E6E73" stroke-width="5">
                        <line x1="1.01328039" y1="1.04827071" x2="15.8367319" y2="1.04827071" id="Stroke-6"></line>
                        <line x1="1.01328039" y1="0.0403478571" x2="1.01328039" y2="55.8339836" id="Stroke-8"></line>
                        <line x1="0.000526947961" y1="55.8340243" x2="523.7868" y2="55.8340243" id="Stroke-10"></line>
                        <line x1="523.786638" y1="56.83641" x2="523.786638" y2="21.0558814" id="Stroke-12"></line>
                    </g>
                    <line x1="511" y1="72.3284457" x2="486" y2="72.3284457" id="Stroke-15" stroke="#1E6E73" stroke-width="5"></line>
                    <line x1="535" y1="88.3284457" x2="535" y2="114.328446" id="Stroke-16" stroke="#1E6E73" stroke-width="5"></line>
                    <line x1="534" y1="113.603446" x2="586.615724" y2="113.721376" id="Stroke-17" stroke="#1E6E73" stroke-width="5"></line>
                    <line x1="584" y1="112.328446" x2="584" y2="142.328446" id="Stroke-18" stroke="#1E6E73" stroke-width="5"></line>
                    <line x1="231" y1="1.32844575" x2="231" y2="42.3284457" id="Stroke-19" stroke="#1E6E73" stroke-width="5"></line>
                    <line x1="230" y1="41.3284457" x2="241" y2="41.3284457" id="Stroke-20" stroke="#1E6E73" stroke-width="5"></line>
                    <g id="Group-60" transform="translate(172.000000, 1.328446)">
                        <path d="M151.520975,57.8261538 L70.6422053,57.8261538 C69.2709872,57.8261538 68.1591012,56.7116677 68.1591012,55.3372431 L68.1591012,2.81017846 C68.1591012,1.43575385 69.2709872,0.321267692 70.6422053,0.321267692 L151.520975,0.321267692 C152.892598,0.321267692 154.004079,1.43575385 154.004079,2.81017846 L154.004079,55.3372431 C154.004079,56.7116677 152.892598,57.8261538 151.520975,57.8261538" id="Fill-21" fill="#83DDE0"></path>
                        <path d="M154.004039,7.66436677 L68.1590607,7.66436677 L68.1590607,2.810016 C68.1590607,1.43559138 69.2709467,0.321105231 70.6421648,0.321105231 L151.520934,0.321105231 C152.892558,0.321105231 154.004039,1.43559138 154.004039,2.810016 L154.004039,7.66436677 Z" id="Fill-23" fill="#1E6E73"></path>
                        <path d="M73.6364772,4.12124308 C73.6364772,4.85841231 73.0404187,5.45586462 72.3049693,5.45586462 C71.5691147,5.45586462 70.9730562,4.85841231 70.9730562,4.12124308 C70.9730562,3.38407385 71.5691147,2.78621538 72.3049693,2.78621538 C73.0404187,2.78621538 73.6364772,3.38407385 73.6364772,4.12124308" id="Fill-25" fill="#F1F1F1"></path>
                        <path d="M77.7718504,3.992736 C77.7718504,4.72990523 77.1753868,5.32776369 76.4399374,5.32776369 C75.704488,5.32776369 75.1084295,4.72990523 75.1084295,3.992736 C75.1084295,3.25556677 75.704488,2.65811446 76.4399374,2.65811446 C77.1753868,2.65811446 77.7718504,3.25556677 77.7718504,3.992736" id="Fill-27" fill="#F1F1F1"></path>
                        <path d="M81.7669008,3.992736 C81.7669008,4.72990523 81.1704371,5.32776369 80.4349877,5.32776369 C79.6995383,5.32776369 79.1034799,4.72990523 79.1034799,3.992736 C79.1034799,3.25556677 79.6995383,2.65811446 80.4349877,2.65811446 C81.1704371,2.65811446 81.7669008,3.25556677 81.7669008,3.992736" id="Fill-29" fill="#F1F1F1"></path>
                        <path d="M141.085697,20.3878265 L78.3642215,20.3878265 C77.3013654,20.3878265 76.4398969,19.5243434 76.4398969,18.459408 C76.4398969,17.3940665 77.3013654,16.5305834 78.3642215,16.5305834 L141.085697,16.5305834 C142.148554,16.5305834 143.010022,17.3940665 143.010022,18.459408 C143.010022,19.5243434 142.148554,20.3878265 141.085697,20.3878265" id="Fill-31" fill="#FFE4B2"></path>
                        <path d="M141.085697,28.328256 L78.3642215,28.328256 C77.3013654,28.328256 76.4398969,27.4647729 76.4398969,26.3994314 C76.4398969,25.334496 77.3013654,24.4710129 78.3642215,24.4710129 L141.085697,24.4710129 C142.148554,24.4710129 143.010022,25.334496 143.010022,26.3994314 C143.010022,27.4647729 142.148554,28.328256 141.085697,28.328256" id="Fill-33" fill="#FFE4B2"></path>
                        <path d="M111.451625,36.2684825 L78.3641,36.2684825 C77.3016491,36.2684825 76.4401805,35.4049994 76.4401805,34.3396578 C76.4401805,33.2747225 77.3016491,32.4112394 78.3641,32.4112394 L111.451625,32.4112394 C112.514481,32.4112394 113.375949,33.2747225 113.375949,34.3396578 C113.375949,35.4049994 112.514481,36.2684825 111.451625,36.2684825" id="Fill-35" fill="#FFE4B2"></path>
                        <polygon id="Fill-37" fill="#E58787" points="109.394757 116.813867 51.9822937 116.518187 60.0868247 80.8619409 118.436935 80.8619409"></polygon>
                        <polygon id="Fill-39" fill="#FFC1C1" points="117.11106 86.1333711 58.929515 85.9534449 60.0867841 80.8619003 118.436895 80.8619003"></polygon>
                        <g id="Group-2" transform="translate(0.603260, 258.105497)">
                            <polygon id="Fill-41" fill="#1E6E73" points="0.0535793222 29.1005095 42.1824718 29.1005095 42.1824718 0.664866462 0.0535793222 0.664866462"></polygon>
                            <line x1="6.99901768" y1="16.0925797" x2="15.3397839" y2="7.73230892" id="Stroke-224" stroke="#CBEAEA" stroke-width="4.4" stroke-linecap="round" stroke-linejoin="round"></line>
                            <line x1="15.3397839" y1="24.4528505" x2="6.99901768" y2="16.0925797" id="Stroke-226" stroke="#CBEAEA" stroke-width="4.4" stroke-linecap="round" stroke-linejoin="round"></line>
                            <line x1="34.8920002" y1="16.3023988" x2="26.551234" y2="7.942128" id="Stroke-228" stroke="#CBEAEA" stroke-width="4.4" stroke-linecap="round" stroke-linejoin="round"></line>
                            <line x1="26.551234" y1="24.6626695" x2="34.8920002" y2="16.3023988" id="Stroke-230" stroke="#CBEAEA" stroke-width="4.4" stroke-linecap="round" stroke-linejoin="round"></line>
                            <line x1="23.4684651" y1="6.83076923" x2="18.7976523" y2="25.8436431" id="Stroke-232" stroke="#CBEAEA" stroke-width="4.4" stroke-linecap="round" stroke-linejoin="round"></line>
                        </g>
                        <polygon id="Fill-43" fill="#FFE4B2" points="217.511493 254.16864 261.746243 254.16864 261.746243 201.287003 217.511493 201.287003"></polygon>
                        <polygon id="Fill-44" fill="#FFCB66" points="210.500614 247.838326 254.734958 247.838326 254.734958 194.957095 210.500614 194.957095"></polygon>
                        <polygon id="Fill-45" fill="#FFCB66" points="338.504875 85.7516677 368.909123 85.7516677 368.909123 55.27632 338.504875 55.27632"></polygon>
                        <polygon id="Fill-46" fill="#FFCB66" points="368.762439 55.4233477 374.784209 55.4233477 374.784209 49.3870892 368.762439 49.3870892"></polygon>
                        <polygon id="Fill-47" fill="#FFCB66" points="368.762439 91.6408985 374.784209 91.6408985 374.784209 85.60464 368.762439 85.60464"></polygon>
                        <polygon id="Fill-48" fill="#FFCB66" points="332.482294 91.6408985 338.50447 91.6408985 338.50447 85.60464 332.482294 85.60464"></polygon>
                        <polygon id="Fill-49" fill="#FFCB66" points="332.482294 55.4233477 338.50447 55.4233477 338.50447 49.3870892 332.482294 49.3870892"></polygon>
                        <polyline id="Stroke-56" stroke="#FFDFDF" stroke-width="4.4" stroke-linecap="round" stroke-linejoin="round" points="62.5132809 106.165407 71.344752 97.3128775 80.1766282 106.165407"></polyline>
                        <polyline id="Stroke-57" stroke="#FFDFDF" stroke-width="4.4" stroke-linecap="round" stroke-linejoin="round" points="79.9737414 106.165407 88.8056176 97.3128775 97.6374939 106.165407"></polyline>
                        <line x1="97.4130501" y1="106.165407" x2="106.244926" y2="97.3128775" id="Stroke-58" stroke="#FFDFDF" stroke-width="4.4" stroke-linecap="round" stroke-linejoin="round"></line>
                        <path d="M232.088141,209.42527 C232.088141,214.006686 228.382935,217.720962 223.811803,217.720962 C219.241076,217.720962 215.535464,214.006686 215.535464,209.42527 C215.535464,204.843855 219.241076,201.129578 223.811803,201.129578 C228.382935,201.129578 232.088141,204.843855 232.088141,209.42527" id="Fill-59" fill="#FFF1D8"></path>
                    </g>
                    <g id="Group-70" transform="translate(15.000000, 16.328446)">
                        <path d="M189.818945,100.742631 L27.1794878,100.742631 C23.7081097,100.742631 20.89395,97.9265986 20.89395,94.4529106 L20.89395,6.61266528 C20.89395,3.13897731 23.7081097,0.322945062 27.1794878,0.322945062 L189.818945,0.322945062 C193.290323,0.322945062 196.104483,3.13897731 196.104483,6.61266528 L196.104483,94.4529106 C196.104483,97.9265986 193.290323,100.742631 189.818945,100.742631" id="Fill-61" fill="#99D7D7"></path>
                        <g id="Group-65" transform="translate(450.849389, 124.958642)">
                            <mask id="mask-2" fill="white">
                                <use xlink:href="#path-1"></use>
                            </mask>
                            <g id="Clip-64"></g>
                            <path d="M144.854868,113.077956 L6.66385399,113.077956 C3.19247587,113.077956 0.378316155,110.262329 0.378316155,106.788235 L0.378316155,6.57302742 C0.378316155,3.09933946 3.19247587,0.283712917 6.66385399,0.283712917 L144.854868,0.283712917 C148.326651,0.283712917 151.140406,3.09933946 151.140406,6.57302742 L151.140406,106.788235 C151.140406,110.262329 148.326651,113.077956 144.854868,113.077956" id="Fill-63" fill="#FFE4B2" mask="url(#mask-2)"></path>
                        </g>
                        <path d="M464.693263,117.082353 L295.837192,117.082353 C292.365814,117.082353 289.55206,114.26632 289.55206,110.792632 L289.55206,6.61242185 C289.55206,3.13873389 292.365814,0.322701636 295.837192,0.322701636 L464.693263,0.322701636 C468.165046,0.322701636 470.9788,3.13873389 470.9788,6.61242185 L470.9788,110.792632 C470.9788,114.26632 468.165046,117.082353 464.693263,117.082353" id="Fill-66" fill="#32C7CC"></path>
                        <path d="M167.382944,234.824998 L6.31375647,234.824998 C2.84237835,234.824998 0.0286240709,232.009372 0.0286240709,228.535684 L0.0286240709,125.672002 C0.0286240709,122.198314 2.84237835,119.382281 6.31375647,119.382281 L167.382944,119.382281 C170.854322,119.382281 173.668482,122.198314 173.668482,125.672002 L173.668482,228.535684 C173.668482,232.009372 170.854322,234.824998 167.382944,234.824998" id="Fill-68" fill="#FFC1C1"></path>
                    </g>
                    <g id="Group-109" transform="translate(44.000000, 33.328446)">
                        <path d="M84.6376729,6.43899694 L83.5600553,7.3427044 C78.4398494,11.6361275 75.4817788,17.9795525 75.4817788,24.6659313 C82.1074024,32.538426 91.2628906,37.8574596 101.377885,39.710385 L104.948838,40.3641913 C103.296085,33.2991007 104.406173,25.8687074 108.051808,19.5967988 L108.106196,19.5033399 L84.6376729,6.43899694 Z" id="Fill-71" fill="#32C7CC"></path>
                        <path d="M109.394751,14.1648831 C109.394751,21.7923528 103.218845,27.9752722 95.6004335,27.9752722 C87.9820218,27.9752722 81.80571,21.7923528 81.80571,14.1648831 C81.80571,6.53781963 87.9820218,0.354900224 95.6004335,0.354900224 C103.218845,0.354900224 109.394751,6.53781963 109.394751,14.1648831" id="Fill-73" fill="#FFDFDF"></path>
                        <path d="M87.8458888,6.30031198 C87.8458888,8.18818287 86.3173359,9.71847168 84.4320124,9.71847168 C82.5466888,9.71847168 81.0181359,8.18818287 81.0181359,6.30031198 C81.0181359,4.41284743 82.5466888,2.88255862 84.4320124,2.88255862 C86.3173359,2.88255862 87.8458888,4.41284743 87.8458888,6.30031198" id="Fill-75" fill="#FFDFDF"></path>
                        <path d="M86.1060335,3.96245653 L86.1060335,3.96245653 C89.8535453,0.640600187 95.0679159,-0.469123321 99.8410924,1.03962929 L100.121963,1.12821213 L101.262492,1.44028377 C104.576928,2.71538899 107.217192,5.31761138 108.37071,8.93975541 C109.264463,11.4952483 109.654516,14.5895524 108.971416,17.5704868 L108.250163,17.3465916 C102.792263,15.6549845 99.0475924,10.6317688 98.9806218,4.91208078 L98.2926512,5.25097108 C94.3214982,7.20507593 89.58201,6.70446101 86.1060335,3.96245653" id="Fill-77" fill="#32C7CC"></path>
                        <path d="M0.0161947059,83.8334955 L5.71397118,70.5737015 C11.4133712,55.8973948 20.6553124,42.8627149 32.6138241,32.6346481 L34.4480065,31.0665694 L34.6424241,30.9296317 C48.5800182,21.1099399 67.4369065,22.1936575 80.1609124,33.5452634 L80.1609124,33.5452634 C85.4873065,36.1503302 90.0031535,40.1605321 93.2218006,45.1443325 L94.1232653,46.540528 L99.6286535,75.7220709 L88.6929653,87.0919623 C76.3675359,93.4654567 73.0149476,94.8693728 64.3867006,96.3196119 L58.0882182,97.3781362 C39.7013418,100.986058 34.0526771,96.8543597 30.6367712,85.1663015 L30.2471241,83.8334955 L0.0161947059,83.8334955 Z" id="Fill-79" fill="#ECB6FF"></path>
                        <path d="M51.2288876,25.0089663 L51.2288876,25.0089663 C65.8966641,23.6729096 80.2673347,29.7298625 89.5644759,41.1659879 L91.7939876,43.9088051 L94.1233465,46.5402842 L85.8133112,45.2562394 C80.8108112,44.4829681 75.9929876,42.7954245 71.6001229,40.2781278 L63.8806465,35.8538622 C59.4727641,33.3272196 55.5328641,30.0581879 52.2358818,26.1902062 L51.2288876,25.0089663 Z" id="Fill-81" fill="#FFDFDF"></path>
                        <polygon id="Fill-83" fill="#1E6E73" points="137.602357 85.1558991 95.2968335 97.7509155 82.7161041 55.3973487 125.021628 42.8023323"></polygon>
                        <path d="M69.4187082,65.8881165 L73.5404435,94.1224732 L76.5261141,92.7884482 L95.7604729,84.1914433 C97.1372259,83.5762396 98.4112906,82.7529881 99.5384259,81.7501329 C99.7040259,81.6026303 99.8330965,81.4181504 99.9150847,81.211728 L103.190149,73.9629702 C103.897602,72.3973295 103.673961,70.5675657 102.610549,69.218506 L102.707149,67.7426672 C102.803749,66.2578888 102.386908,64.7844881 101.526032,63.5715534 L101.764285,61.4874187 C101.930696,60.0359605 100.815332,58.7547601 99.3565906,58.7210336 L100.303108,57.5121624 C101.06292,56.5418146 101.063732,55.1777202 100.305544,54.2057471 C99.8497376,53.6222381 99.0704435,53.3987493 98.3747612,53.6519012 L97.3551847,54.0232989 L91.9435553,58.765325 C87.7020847,62.4817407 86.3472494,62.2375284 83.6525965,62.6654079 L69.4187082,65.8881165 Z" id="Fill-85" fill="#FFDFDF"></path>
                        <path d="M27.6360018,44.3177896 L26.7219547,55.4946679 C26.0270841,63.9908997 26.8372253,72.5428004 29.1150371,80.7566235 L29.9682018,83.8334549" id="Stroke-87" stroke="#662D90" stroke-width="0.55" stroke-linecap="round"></path>
                        <path d="M56.8904188,59.9747246 L57.0641365,63.1011298 C57.3421659,68.1040283 63.1056953,70.7489167 67.0727894,67.6944343 L69.54786,66.0406171" id="Stroke-89" stroke="#662D90" stroke-width="0.55" stroke-linecap="round"></path>
                        <line x1="56.8904188" y1="59.9747246" x2="57.7196365" y2="44.3179115" id="Stroke-91" stroke="#662D90" stroke-width="0.55"></line>
                        <line x1="101.134396" y1="16.3267512" x2="98.1357371" y2="23.7177292" id="Stroke-93" stroke="#1E6E73" stroke-width="0.55" stroke-linecap="round"></line>
                        <line x1="95.2209741" y1="21.4741048" x2="98.1360212" y2="23.7179324" id="Stroke-95" stroke="#1E6E73" stroke-width="0.55" stroke-linecap="round"></line>
                        <path d="M96.6197259,13.1652786 C96.6197259,13.7174991 96.1724435,14.1648831 95.6212553,14.1648831 C95.0696612,14.1648831 94.6227847,13.7174991 94.6227847,13.1652786 C94.6227847,12.6130581 95.0696612,12.1656741 95.6212553,12.1656741 C96.1724435,12.1656741 96.6197259,12.6130581 96.6197259,13.1652786" id="Fill-97" fill="#1E6E73"></path>
                        <path d="M104.722518,19.4518968 C104.722518,20.0041173 104.275641,20.4515013 103.724047,20.4515013 C103.172453,20.4515013 102.725576,20.0041173 102.725576,19.4518968 C102.725576,18.9000826 103.172453,18.4522923 103.724047,18.4522923 C104.275641,18.4522923 104.722518,18.9000826 104.722518,19.4518968" id="Fill-99" fill="#1E6E73"></path>
                        <path d="M87.5973671,16.9459778 L87.5973671,16.9459778 C87.8376494,19.8436117 89.5208435,22.4247043 92.0742494,23.8107412 L92.1075318,23.8290266" id="Stroke-101" stroke="#1E6E73" stroke-width="0.55" stroke-linecap="round"></path>
                        <line x1="99.4430841" y1="58.8612627" x2="93.5212606" y2="67.0389213" id="Stroke-103" stroke="#662D90" stroke-width="0.55" stroke-linecap="round"></line>
                        <path d="M101.347444,63.4091786 L100.882302,64.5908249 C99.5903788,67.8736723 97.3896847,70.7192943 94.5383612,72.7932704" id="Stroke-105" stroke="#662D90" stroke-width="0.55" stroke-linecap="round"></path>
                        <path d="M102.617612,69.1105 L101.589918,71.2872809 C100.564659,73.4591858 99.1497529,75.4238556 97.4146059,77.0833615 L96.2683941,78.1796757" id="Stroke-107" stroke="#662D90" stroke-width="0.55" stroke-linecap="round"></path>
                    </g>
                    <g id="Group-150" transform="translate(28.000000, 149.328446)">
                        <path d="M91.0787069,17.2496853 C91.0787069,24.7693268 84.9920253,30.8659834 77.4837845,30.8659834 C69.9755437,30.8659834 63.888862,24.7693268 63.888862,17.2496853 C63.888862,9.72923434 69.9755437,3.63298245 77.4837845,3.63298245 C84.9920253,3.63298245 91.0787069,9.72923434 91.0787069,17.2496853" id="Fill-110" fill="#FFCB66"></path>
                        <path d="M63.8888216,18.7313946 L69.2348216,16.9733041 C67.1036951,15.1767654 67.4988869,11.7832135 69.9860094,10.5265673 L70.0575318,10.4905475 L73.0602624,14.9408154 L76.6945727,8.73245689 L73.0602624,4.37203613 C67.0826829,6.25356538 63.2390584,12.0733956 63.8488176,18.3193927 L63.8888216,18.7313946 Z" id="Fill-112" fill="#32C7CC"></path>
                        <path d="M82.7518371,2.09234632 L81.3165392,1.67022651 C78.27138,0.774183113 74.9898331,1.84789726 73.0603433,4.37171236 C74.9566984,9.81232274 79.9733718,13.5446227 85.7214331,13.7919048 L90.6892127,14.0051907 L92.0550086,13.8615161 C97.5598127,13.281152 100.903992,7.4973416 98.6669963,2.42623783 C96.8607514,1.29303028 94.4750535,1.91710387 93.4519188,3.78972934 L93.1625963,4.31990858 C91.8513514,4.77157274 90.58698,3.53232934 91.0084371,2.20930953 C91.2589678,1.42415858 90.7910412,0.591251038 89.9913637,0.397391604 C88.1531963,-0.0477970755 86.2156249,0.206769906 84.5544453,1.11131236 L82.7518371,2.09234632 Z" id="Fill-114" fill="#1E6E73"></path>
                        <path d="M4.13189633,101.098423 L3.91975347,100.649997 C-2.07277714,87.9880214 -0.430589388,73.0256346 8.16463102,61.9699808 L20.7562188,45.7756356 C20.8200637,45.6930733 20.890778,45.6153676 20.9675535,45.5441375 L21.267382,45.2648827 C36.7994718,30.8051544 59.7254473,27.6746686 78.5552473,37.4421082 L81.3001739,38.8659025 C81.4440269,38.9407752 81.5967698,38.9974356 81.7543616,39.0338601 L83.1177331,39.3531818 C93.92328,41.8818535 102.196447,50.5978384 104.172002,61.5345054 L104.251607,61.9756469 C104.261304,62.0290695 104.273023,62.0816827 104.286762,62.1338912 L104.775296,63.9599742 C108.844398,79.1692384 107.432941,95.3283733 100.788627,109.599099 C100.706598,109.775555 100.598709,109.938656 100.468594,110.08314 L99.8450963,110.775206 C91.4191861,120.130644 76.1845004,117.792999 70.9419453,106.339508 L68.534831,101.08102" id="Fill-116" fill="#E58787"></path>
                        <path d="M65.0990865,33.4545532 L65.0990865,57.8480598 L77.9929273,37.2378475 L77.2106253,36.8100617 C73.4841845,34.7743353 69.3399233,33.6261532 65.0990865,33.4545532" id="Fill-118" fill="#FFCB66"></path>
                        <path d="M93.435311,46.2011955 L84.0335437,46.7362313 L84.0307151,46.7386596 C82.9186824,47.6027304 82.7513927,49.2215983 83.6634049,50.2953125 L89.0675927,52.8162945 L82.4050947,54.2251143 L80.8069518,55.1923879 C78.8503886,56.3765898 79.5833927,59.3799945 81.8648376,59.5269068 L83.589458,59.6373945 L92.3248947,57.3394115 L84.0335437,62.3813757 L83.5745069,63.416237 C82.9772743,64.7619209 84.0517273,66.2528983 85.515311,66.1088191 L86.4766212,66.0141153 L95.2860049,62.4550342 L88.401262,67.942187 L88.2412457,68.1939209 C87.1300212,69.9402747 88.6756335,72.1621709 90.6964457,71.7234577 L95.8678824,70.2264096 L97.2845927,77.2842691 L107.005584,78.6930889 L107.101352,77.8302323 C108.244903,67.5394936 105.433707,57.19857 99.2395396,48.9079426 C97.880209,47.0887398 95.7005927,46.0724955 93.435311,46.2011955" id="Fill-120" fill="#FFCB66"></path>
                        <line x1="85.4318278" y1="18.5879225" x2="85.0463339" y2="26.5187564" id="Stroke-122" stroke="#1E6E73" stroke-width="0.55" stroke-linecap="round"></line>
                        <line x1="81.4578869" y1="24.3504042" x2="85.0461318" y2="26.5184731" id="Stroke-124" stroke="#1E6E73" stroke-width="0.55" stroke-linecap="round"></line>
                        <path d="M81.5285204,18.2152186 C81.5285204,18.7138299 81.1244388,19.1181422 80.6266102,19.1181422 C80.1287816,19.1181422 79.7247,18.7138299 79.7247,18.2152186 C79.7247,17.7166073 80.1287816,17.3118903 80.6266102,17.3118903 C81.1244388,17.3118903 81.5285204,17.7166073 81.5285204,18.2152186" id="Fill-126" fill="#1E6E73"></path>
                        <path d="M88.9683098,21.3225546 C88.9683098,21.8211659 88.5646322,22.2258829 88.0668037,22.2258829 C87.568571,22.2258829 87.1648935,21.8211659 87.1648935,21.3225546 C87.1648935,20.8239433 87.568571,20.419631 88.0668037,20.419631 C88.5646322,20.419631 88.9683098,20.8239433 88.9683098,21.3225546" id="Fill-128" fill="#1E6E73"></path>
                        <path d="M72.8847698,23.6073843 L72.8847698,23.6073843 C73.4630106,26.1639815 75.618382,28.0576523 78.2243045,28.299673 L78.4085657,28.3166711" id="Stroke-130" stroke="#1E6E73" stroke-width="0.55" stroke-linecap="round"></path>
                        <line x1="64.8719927" y1="32.9846363" x2="55.6811559" y2="42.1858769" id="Stroke-132" stroke="#FF6666" stroke-width="0.55" stroke-linecap="round"></line>
                        <line x1="61.3388241" y1="47.9852689" x2="55.6812771" y2="42.1860792" id="Stroke-134" stroke="#FF6666" stroke-width="0.55" stroke-linecap="round"></line>
                        <line x1="55.0623453" y1="55.6883281" x2="61.3389453" y2="47.9853498" id="Stroke-136" stroke="#FF6666" stroke-width="0.55" stroke-linecap="round"></line>
                        <line x1="61.7658171" y1="63.4352587" x2="55.0625069" y2="55.6881662" id="Stroke-138" stroke="#FF6666" stroke-width="0.55" stroke-linecap="round"></line>
                        <line x1="80.3612498" y1="49.2653887" x2="77.9929273" y2="36.9199019" id="Stroke-144" stroke="#FF6666" stroke-width="0.55" stroke-linecap="round"></line>
                        <path d="M35.6317163,70.9090862 L34.3022878,72.2523419 C26.4396673,80.1977457 26.2667204,92.9511872 33.9107327,101.107448" id="Stroke-146" stroke="#FF6666" stroke-width="0.55" stroke-linecap="round"></path>
                        <path d="M68.3698041,85.8685591 L68.2421143,86.9086817 C67.6671061,91.5864006 67.7596408,96.3223987 68.5172939,100.973811 L68.5350735,101.081061" id="Stroke-148" stroke="#FF6666" stroke-width="0.55" stroke-linecap="round"></path>
                    </g>
                    <g id="Group-185" transform="translate(152.000000, 114.328446)">
                        <path d="M115.124511,18.0857794 C115.124511,22.5561471 111.486081,26.1796765 106.997331,26.1796765 C102.508986,26.1796765 98.8701501,22.5561471 98.8701501,18.0857794 C98.8701501,13.6158162 102.508986,9.99188235 106.997331,9.99188235 C111.486081,9.99188235 115.124511,13.6158162 115.124511,18.0857794" id="Fill-151" fill="#3F3C4E"></path>
                        <path d="M87.0299845,41.4591213 L87.3227644,42.9247096 C88.5231214,48.9294154 87.8514738,55.1561434 85.3983761,60.7705919 L83.7886957,64.4539743 L133.647774,60.277614 L126.080977,53.2000037 C121.529285,48.9423566 117.643149,44.0295625 114.552108,38.6258125 L110.698458,31.8875037 L87.0299845,41.4591213 Z" id="Fill-153" fill="#3F3C4E"></path>
                        <path d="M112.11501,38.0425294 C112.11501,45.8327132 105.773746,52.1476029 97.9519339,52.1476029 C90.1297157,52.1476029 83.7888582,45.8327132 83.7888582,38.0425294 C83.7888582,30.2523456 90.1297157,23.9374559 97.9519339,23.9374559 C105.773746,23.9374559 112.11501,30.2523456 112.11501,38.0425294" id="Fill-155" fill="#FFC1C1"></path>
                        <path d="M85.9904331,30.4935772 L93.3176462,27.5251949 L93.5344901,29.9997904 C94.0132523,35.4730993 99.2930364,39.2660772 104.729159,38.0427316 L105.71917,37.1574743 C106.77537,36.2131728 108.428906,37.209239 108.056942,38.565636 L107.225707,41.5979154 C106.322191,42.037511 106.07814,43.1961507 106.72989,43.9532096 L109.263796,46.8504154 L109.264202,46.8504154 C112.224081,43.1455993 113.134095,38.2388713 111.694966,33.7426213 L111.471625,33.0442022 L110.861294,31.6599007 C108.999442,27.4370331 104.947221,24.5519596 100.293199,24.1354154 L98.0817154,23.9376581 L96.0777364,24.0682831 C91.8135453,24.3465184 87.9980668,26.7770331 85.9904331,30.4935772" id="Fill-157" fill="#3F3C4E"></path>
                        <path d="M23.2712921,8.13304412 L28.8653781,17.540875 C38.6728958,34.0344044 53.305394,47.2663529 70.8717823,55.5256544 L78.2176748,58.9797353 C89.5914229,61.9036324 101.571035,61.6723088 112.818087,58.3112426 L115.563559,57.4906912 C133.137257,57.1598824 150.168438,63.459 163.134,75.0834118 L167.261344,78.7837794 L182.898065,90.4668309 L207.005099,61.1073456 L211.912919,52.9289265 C212.36691,52.1718676 213.061704,51.5818309 213.890909,51.2477868 L213.935171,51.2303971 C215.051471,50.7815 216.311521,51.3836691 216.637193,52.5144044 C216.720032,52.8019412 216.778101,53.0001029 216.778101,53.0001029 L222.697046,47.0338162 C223.582695,46.1412794 224.914215,45.8290735 226.116196,46.2322721 L226.140154,46.2403603 C226.444304,46.3422721 226.648966,46.6043309 226.672112,46.9116838 C226.690792,47.158375 226.713126,47.4495515 226.730181,47.6727868 C226.748454,47.9105809 226.721247,48.1487794 226.650996,48.3768676 L226.117008,50.1138162 L228.270422,47.6505441 C228.788168,47.0580809 229.654731,46.8922721 230.362114,47.2509853 L230.392163,47.2659485 C231.103606,47.6262794 231.546228,48.3396618 231.545822,49.1181544 C231.545415,49.6349926 231.545415,50.1138162 231.545415,50.1138162 L230.677634,53.0001029 L232.063161,51.3262426 C232.615422,50.6589632 233.618021,50.5623088 234.292511,51.1106912 C234.717265,51.4564632 234.88538,52.0198088 234.717672,52.5350294 L233.935572,54.9376397 L234.80782,53.8255074 C235.168415,53.3665 235.836408,53.2722721 236.313951,53.614 C236.702159,53.8910221 236.845909,54.3933015 236.661145,54.8276397 L220.430337,87.6962059 C218.988772,90.6160588 217.287318,93.4052868 215.345469,96.0323456 L200.272379,116.422382 C194.490687,122.21275 185.477045,123.516978 178.233078,119.611574 L175.079501,117.911426 L140.982621,102.593522 L147.498091,133.699662 L153.36181,149.119478 L161.027284,170.140801 L78.8694248,171.414294 L79.3035187,134.719184 L75.177393,108.345875 L73.0052991,84.5276397 L65.8129029,81.9608382 C49.4915398,76.1344779 35.4446014,65.4454706 25.6456113,51.3949926 L19.3620103,42.3855074 L0.296800047,13.0264265 L14.151665,8.99039706 L10.4576029,4.09094853 L10.2330435,3.03098529 C9.8131622,1.05179412 11.859779,-0.560191176 13.7431538,0.266426471 L15.6699786,1.11245588 L23.2712921,8.13304412 Z" id="Fill-159" fill="#99D7D7"></path>
                        <line x1="89.6024682" y1="36.1919007" x2="83.7886957" y2="45.1370846" id="Stroke-161" stroke="#1E6E73" stroke-width="0.55" stroke-linecap="round"></line>
                        <line x1="88.9128314" y1="44.5686434" x2="83.7885739" y2="45.1372463" id="Stroke-163" stroke="#1E6E73" stroke-width="0.55" stroke-linecap="round"></line>
                        <path d="M92.0640934,46.8503346 L92.800713,47.0917684 C94.8351476,47.7586434 97.0722135,47.283864 98.6571233,45.849011 L99.1777112,45.3774669" id="Stroke-165" stroke="#1E6E73" stroke-width="0.55" stroke-linecap="round"></path>
                        <path d="M95.07595,39.2186801 C95.07595,39.8681654 94.5472406,40.395114 93.8950845,40.395114 C93.2425224,40.395114 92.713813,39.8681654 92.713813,39.2186801 C92.713813,38.5691949 93.2425224,38.0426507 93.8950845,38.0426507 C94.5472406,38.0426507 95.07595,38.5691949 95.07595,39.2186801" id="Fill-167" fill="#1E6E73"></path>
                        <path d="M87.0398928,36.5700257 C87.0398928,37.219511 86.5111834,37.7464596 85.8590273,37.7464596 C85.2064652,37.7464596 84.6777558,37.219511 84.6777558,36.5700257 C84.6777558,35.9205404 85.2064652,35.3939963 85.8590273,35.3939963 C86.5111834,35.3939963 87.0398928,35.9205404 87.0398928,36.5700257" id="Fill-169" fill="#1E6E73"></path>
                        <line x1="226.116967" y1="50.1136949" x2="223.248455" y2="56.2765257" id="Stroke-171" stroke="#1E6E73" stroke-width="0.55" stroke-linecap="round"></line>
                        <line x1="230.818136" y1="52.9449816" x2="227.452588" y2="60.1754596" id="Stroke-173" stroke="#1E6E73" stroke-width="0.55" stroke-linecap="round"></line>
                        <line x1="233.881929" y1="55.1084228" x2="230.516381" y2="62.3389007" id="Stroke-175" stroke="#1E6E73" stroke-width="0.55" stroke-linecap="round"></line>
                        <line x1="216.81014" y1="52.9271875" x2="215.241879" y2="58.9978125" id="Stroke-177" stroke="#1E6E73" stroke-width="0.55" stroke-linecap="round"></line>
                        <path d="M215.241757,58.9977316 L216.511553,61.6514816 C217.773633,64.2882463 217.467453,67.404239 215.716459,69.7478051" id="Stroke-179" stroke="#1E6E73" stroke-width="0.55" stroke-linecap="round"></path>
                        <line x1="182.898146" y1="90.4667904" x2="181.059439" y2="92.7505037" id="Stroke-181" stroke="#1E6E73" stroke-width="0.55" stroke-linecap="round"></line>
                        <path d="M79.014962,138.986335 L78.0298246,172.907989 L165.199458,173.360526 L165.672941,174.418063 L165.672941,174.418063 C156.219115,155.159165 152.92463,148.732658 148.744903,135.024313 L147.728498,131.689938 C132.072691,147.632254 108.066363,152.098577 87.6870947,142.860195 L79.014962,138.986335 Z" id="Fill-183" fill="#00CBCF"></path>
                    </g>
                    <g id="Group-258" transform="translate(71.000000, 32.328446)">
                        <g id="Group-3" transform="translate(281.171356, 1.354271)">
                            <path d="M67.5421406,26.4278679 C67.5421406,34.2041216 61.240163,40.5084357 53.4658857,40.5084357 C45.6916085,40.5084357 39.3896309,34.2041216 39.3896309,26.4278679 C39.3896309,18.6512086 45.6916085,12.3473 53.4658857,12.3473 C61.240163,12.3473 67.5421406,18.6512086 67.5421406,26.4278679" id="Fill-186" fill="#FFF1D8"></path>
                            <path d="M1.10006098e-13,45.2039188 L1.58421224,44.3420088 C7.727647,40.9990147 11.4272509,34.444848 11.1158419,27.4562787 L10.9508113,23.7559468 C10.7942959,20.2393539 11.0817815,16.7170825 11.8071861,13.2722816 C14.613111,-0.0530502458 31.3253945,-4.59906794 40.4908753,5.47006922 L43.581042,8.86457512 C44.7492313,10.6403126 45.3805644,12.7153863 45.3992165,14.8411607 L45.3992165,14.886994 C41.3403569,13.8839335 37.0844338,15.4966179 34.7091291,18.9381739 L31.8488698,23.0814262 L26.6339854,34.9960648 L25.9856221,35.9447742 C20.2476678,44.3411975 9.753022,48.0808731 1.10006098e-13,45.2039188" id="Fill-188" fill="#FF6665"></path>
                            <path d="M62.8941584,15.973244 L50.6948727,21.4626983 L48.4310752,28.9838266 L46.2479683,26.4277057 L44.5996901,26.593598 C42.8026006,26.7740921 42.0354315,28.9720641 43.3293198,30.2322779 L44.9544855,31.8145419 L43.5811231,36.4514151 C39.1557092,33.5606703 37.2244056,26.9699992 39.3896714,22.1469534 L40.9982125,18.773539 L43.0734616,16.2956998 C47.3249244,11.6138045 54.4086684,10.1515995 59.6993777,13.7813561 L62.8941584,15.973244 Z" id="Fill-190" fill="#FF6665"></path>
                            <line x1="61.7541906" y1="24.0990073" x2="65.2324022" y2="29.2712787" id="Stroke-192" stroke="#BE4D4D" stroke-width="0.55" stroke-linecap="round"></line>
                            <line x1="61.6151919" y1="31.2200471" x2="65.2324833" y2="29.271522" id="Stroke-194" stroke="#BE4D4D" stroke-width="0.55" stroke-linecap="round"></line>
                            <path d="M60.6062348,34.2123959 L60.4505303,34.2274033 C58.5472049,34.4115478 56.6921317,33.5585611 55.5928742,31.9937381 L55.5628686,31.950744" id="Stroke-196" stroke="#BE4D4D" stroke-width="0.55" stroke-linecap="round"></path>
                            <path d="M59.3581253,25.9137234 C59.3581253,28.30598 57.4195232,30.2455818 55.0271883,30.2455818 C52.6356645,30.2455818 50.6970623,28.30598 50.6970623,25.9137234 C50.6970623,23.5214667 52.6356645,21.5818649 55.0271883,21.5818649 C57.4195232,21.5818649 59.3581253,23.5214667 59.3581253,25.9137234 Z" id="Stroke-198" stroke="#FFBD41" stroke-width="1.65" stroke-linecap="round"></path>
                            <path d="M70.4553557,21.6562529 C70.4553557,24.0485095 68.5167535,25.9881113 66.1248242,25.9881113 C63.7328948,25.9881113 61.7942926,24.0485095 61.7942926,21.6562529 C61.7942926,19.2639962 63.7328948,17.3243944 66.1248242,17.3243944 C68.5167535,17.3243944 70.4553557,19.2639962 70.4553557,21.6562529 Z" id="Stroke-200" stroke="#FFBD41" stroke-width="1.65" stroke-linecap="round"></path>
                            <path d="M55.875494,25.983244 C55.875494,26.531216 55.4314929,26.9749475 54.8844998,26.9749475 C54.3366956,26.9749475 53.8926945,26.531216 53.8926945,25.983244 C53.8926945,25.4356776 54.3366956,24.9915405 54.8844998,24.9915405 C55.4314929,24.9915405 55.875494,25.4356776 55.875494,25.983244" id="Fill-202" fill="#BE4D4D"></path>
                            <path d="M65.7087606,22.7940552 C65.7087606,23.3416216 65.2647595,23.7857588 64.7173609,23.7857588 C64.1699622,23.7857588 63.7259611,23.3416216 63.7259611,22.7940552 C63.7259611,22.2460832 64.1699622,21.8023517 64.7173609,21.8023517 C65.2647595,21.8023517 65.7087606,22.2460832 65.7087606,22.7940552" id="Fill-204" fill="#BE4D4D"></path>
                            <line x1="59.1965819" y1="24.0990073" x2="62.0162932" y2="23.0257772" id="Stroke-206" stroke="#FFBD41" stroke-width="1.65"></line>
                        </g>
                        <path d="M284.780254,88.5259882 L284.965153,87.7399263 C284.967992,87.7277581 284.970019,87.7151844 284.97083,87.7026106 C286.257014,70.1934661 304.570946,60.1470428 319.101339,54.2077729 C319.110259,54.2041224 319.119585,54.2008776 319.128506,54.198444 L334.059108,49.8998451 L334.059108,49.8998451 C355.818813,45.437382 376.351939,46.3723009 394.023994,58.1579572 L396.063561,59.5179499 C396.228186,59.6278687 396.45039,59.5224115 396.469447,59.3252876 L397.613308,47.5148894 C398.758385,35.6980015 402.470558,24.2737389 408.491538,14.0423599 L412.369553,7.45168879 C412.39591,7.40666667 412.435647,7.37056785 412.482682,7.34785398 L417.157061,5.12716814 C417.330607,5.04483038 417.53132,5.17137906 417.53132,5.3640413 L417.53132,5.61227139 C417.53132,5.82156342 417.764471,5.94648968 417.938422,5.83048673 L424.045364,1.75780973 C424.055095,1.75132006 424.066043,1.74523599 424.076586,1.73996313 L426.183868,0.722300885 C427.140396,0.260317109 428.282635,0.439188791 429.052642,1.1704941 C429.851844,1.93019174 430.213533,3.04195428 430.014442,4.1265413 L429.211591,8.49855457 C429.193344,8.59873894 429.235108,8.70095133 429.318232,8.75976401 L431.079234,10.0033481 C431.259672,10.130708 431.391454,10.3152581 431.453492,10.5273894 L432.208902,13.1062242 C432.323653,13.4988496 432.382448,13.9060767 432.382448,14.3153319 L432.382448,15.7503614 C432.382448,16.0488864 432.508552,16.3328097 432.73035,16.5323673 L433.575777,17.2932817 C433.630922,17.3431711 433.66255,17.4141519 433.66255,17.4883776 L433.62038,19.500177 C433.61592,19.6977065 433.591185,19.8940192 433.545771,20.0858702 L433.35033,20.9055973 C433.347897,20.9145206 433.345464,20.9230383 433.342626,20.931556 L433.103392,21.6121608 C433.044192,21.7800811 433.165836,21.957736 433.343842,21.9613864 C433.530363,21.9650369 433.728238,21.9646313 433.75946,21.9897788 L434.647462,22.7076991 C434.991309,22.985944 435.172154,23.4187242 435.128767,23.8588053 C434.915484,26.0068879 433.553881,27.870236 431.572703,28.7256563 L429.726551,29.5234808 C429.704655,29.5328097 429.681542,29.5392994 429.658025,29.5425442 L427.084845,29.8933923 C426.963201,29.9100221 426.869941,30.0089897 426.859398,30.1310767 L423.765177,58.0825147 C423.763555,58.0979277 423.23643,61.081556 423.232375,61.0965634 L419.454919,77.6772788 C419.452892,77.6853909 419.450053,77.6935029 419.447215,77.701615 L419.315434,78.0553024 C416.29055,86.170236 408.023614,91.0825147 399.452567,89.8579941 L389.837003,88.4838053 C389.822811,88.4817773 389.808619,88.4785324 389.795239,88.4744764 L377.802748,84.7128982 C377.633257,84.6593584 377.460928,84.7871239 377.462144,84.9647788 L377.58541,100.560686 C377.586627,100.705892 377.469037,100.824735 377.32347,100.824735 L365.769709,100.824735 C365.644416,100.824735 365.536152,100.913968 365.512229,101.037677 L363.992083,108.984285 C363.775556,110.117139 363.157198,111.133584 362.251355,111.846637 L361.58434,112.371084 C360.612403,113.135649 359.177002,112.728827 358.751247,111.567581 L358.387531,110.576283 C358.323871,110.403496 358.106939,110.348333 357.96867,110.470015 L356.174014,112.045383 C355.062592,113.020863 353.338894,112.749513 352.581051,111.479565 L351.809422,110.186903 C351.71089,110.022227 351.475306,110.015332 351.367853,110.173923 C349.980299,112.218577 347.317103,112.957994 345.074796,111.921268 L344.561458,111.68399 C344.473874,111.643835 344.371288,111.654381 344.294246,111.711976 L341.337077,113.926173 C340.376494,114.64531 338.992995,114.151689 338.704698,112.985981 L338.699021,112.962456 C338.588325,112.516291 338.619547,112.0466 338.787821,111.619093 L339.139373,110.726357 C339.844909,108.933584 340.092658,106.993577 339.860723,105.080745 L339.371713,101.055118 C339.3559,100.923702 339.243987,100.824735 339.1118,100.824735 L283.967266,100.824735 C283.813183,100.824735 283.69235,100.692913 283.705408,100.539594 L284.774172,88.5624926 C284.774983,88.5503245 284.777011,88.5381563 284.780254,88.5259882" id="Fill-208" fill="#FFF1D8"></path>
                        <path d="M311.649702,81.5716925 C302.132264,71.9580494 289.752134,74.3056895 292.030124,71.1748267 C297.89256,63.1174889 304.409443,59.7416409 318.954433,53.7966925 C318.956866,53.7962869 318.958488,53.7962869 318.960921,53.7958813 L326.108325,54.4635066 C333.095565,55.1161246 340.055637,52.9635804 345.455015,48.4800258 L346.598876,47.5300996 C368.545507,46.8924889 376.764596,46.8296202 394.436652,58.6148709 L389.94109,88.6880273 C389.939468,88.6892441 389.783763,88.5566114 389.267587,88.3943695 L377.529738,84.7126954 C377.360247,84.6595612 377.296992,84.7487942 377.298614,84.9264491 L377.468916,100.9308 L365.512513,101.037474 C370.739967,66.5103724 311.649702,81.5716925 311.649702,81.5716925" id="Fill-210" fill="#FFBD41"></path>
                        <path d="M338.473169,110.629661 L338.199875,111.323245 L338.473169,110.629661 Z" id="Fill-212" fill="#FFBD41"></path>
                        <polygon id="Fill-216" fill="#F1F1F1" points="490.87244 66.2199189 486.993613 69.1264823 482.94043 63.7136873 486.819662 60.8071239"></polygon>
                        <polygon id="Fill-218" fill="#F1F1F1" points="481.366193 57.8719653 489.041938 59.3686468 480.643627 65.6611984"></polygon>
                        <polygon id="Fill-220" fill="#FFCB66" points="7.63556238 249.84837 0.295960203 244.322412 7.64651035 233.394204 14.985707 238.920162"></polygon>
                        <polygon id="Fill-222" fill="#FFCB66" points="16.8497414 227.449012 19.5664606 242.651077 2.87364017 231.836032"></polygon>
                        <path d="M344.561296,111.493964 L346.856315,107.489834 C347.744318,105.86701 348.157097,104.027187 348.047617,102.181279 L347.734181,96.8986836" id="Stroke-234" stroke="#BE4D4D" stroke-width="0.55" stroke-linecap="round"></path>
                        <path d="M351.425148,109.959074 L352.696735,107.399303 C353.787477,105.203765 354.322711,102.773787 354.255402,100.323123 L354.129297,95.7012574" id="Stroke-236" stroke="#BE4D4D" stroke-width="0.55" stroke-linecap="round"></path>
                        <path d="M360.107336,97.5921055 L359.959741,101.356928 C359.898108,102.915667 359.651576,104.461427 359.225011,105.961759 L358.007758,110.243728" id="Stroke-238" stroke="#BE4D4D" stroke-width="0.55" stroke-linecap="round"></path>
                        <line x1="414.898292" y1="12.5099853" x2="413.131208" y2="14.8320723" id="Stroke-240" stroke="#BE4D4D" stroke-width="0.55" stroke-linecap="round"></line>
                        <path d="M416.742376,24.9282633 L416.885511,23.9426438 C417.362762,20.65684 416.113071,17.35684 413.579223,15.2115966 L413.131167,14.8319506" id="Stroke-242" stroke="#BE4D4D" stroke-width="0.55" stroke-linecap="round"></path>
                        <path d="M429.06951,8.62404867 L429.0022,8.7639823 C427.142667,12.6391298 423.776773,15.5826032 419.68953,16.9081195" id="Stroke-244" stroke="#BE4D4D" stroke-width="0.55" stroke-linecap="round"></path>
                        <path d="M432.165273,15.6864786 L431.958072,16.3070538 C430.088402,19.8840819 426.763462,20.3298414 422.802728,21.1021128" id="Stroke-246" stroke="#BE4D4D" stroke-width="0.55" stroke-linecap="round"></path>
                        <path d="M432.928306,21.8755199 L432.685423,22.2093326 C431.302329,24.1099963 429.226269,25.388868 426.906921,25.7689196 L426.248015,25.8772161" id="Stroke-248" stroke="#BE4D4D" stroke-width="0.55" stroke-linecap="round"></path>
                        <path d="M422.802809,21.1019506 L420.513467,20.917806 C419.472598,20.8338459 418.779227,19.8044211 419.092663,18.8078503 L419.68953,16.9084034" id="Stroke-250" stroke="#BE4D4D" stroke-width="0.55" stroke-linecap="round"></path>
                        <line x1="422.640455" y1="14.3021091" x2="422.357835" y2="11.2503392" id="Stroke-252" stroke="#BE4D4D" stroke-width="0.55" stroke-linecap="round"></line>
                        <path d="M426.040287,25.8770944 L424.604481,25.7059292 C422.382448,25.4410693 421.350905,22.8058555 422.802931,21.10191" id="Stroke-254" stroke="#BE4D4D" stroke-width="0.55" stroke-linecap="round"></path>
                        <path d="M426.811673,29.8836578 L425.958542,29.6329941 C424.967953,29.3417699 424.538955,28.1768732 425.103384,27.3125295 L426.040449,25.8770944" id="Stroke-256" stroke="#BE4D4D" stroke-width="0.55" stroke-linecap="round"></path>
                    </g>
                    <g id="Group-305" transform="translate(418.000000, 152.328446)">
                        <path d="M175.151863,18.7006098 C175.151863,26.9940598 168.439022,33.7171163 160.158173,33.7171163 C151.877325,33.7171163 145.164483,26.9940598 145.164483,18.7006098 C145.164483,10.4075663 151.877325,3.68450978 160.158173,3.68450978 C168.439022,3.68450978 175.151863,10.4075663 175.151863,18.7006098" id="Fill-259" fill="#98D5D5"></path>
                        <path d="M153.912446,18.2127024 L153.23621,18.1171698 C150.212225,17.6882893 147.786948,15.3942872 147.187834,12.3945633 L147.005989,11.4859872 C145.879605,7.85900022 146.917908,3.90638935 149.680085,1.30383717 L149.70038,1.28513717 L150.321007,0.934308913 C152.969125,-0.56250413 156.327982,0.423717609 157.749863,3.11529804 L158.123701,3.82305239 L158.550712,3.79175022 C168.222594,2.63722848 176.700712,11.0737741 175.052336,20.4270263 C175.083185,24.8841307 172.64086,28.9900002 168.712114,31.0844002 L168.365878,31.2689611 L164.54348,30.0636241 C162.948683,29.5607567 161.487022,28.7050285 160.266875,27.5594502 L157.1199,24.6048502 C157.04562,24.5349285 157.084181,24.4097198 157.185251,24.394272 C159.6361,24.0206785 161.143221,21.5071546 160.321266,19.1651828 L160.158092,18.7005285 L159.582114,18.0009046 C158.433406,16.605722 156.392926,16.3585567 154.945472,17.4407176 L153.912446,18.2127024 Z" id="Fill-261" fill="#FFBD41"></path>
                        <polygon id="Fill-263" fill="#FF7673" points="0.195726937 2.50145022 0.195726937 9.34036543 57.4375351 73.5163263 117.353845 73.5163263 113.064657 67.1827176 58.339048 67.0546633"></polygon>
                        <polygon id="Fill-265" fill="#FFA4A4" points="112.482509 67.182677 58.3389668 67.0550291 0.195645756 2.50140957 53.2704428 2.50140957"></polygon>
                        <path d="M199.615904,51.1520613 L199.576937,51.1130352 C187.671365,39.2600809 170.112768,35.1371374 154.187528,40.4560678 C140.040148,46.6526787 130.09631,59.7341417 127.898339,75.0421243 L127.404354,78.4853635 L124.861365,87.14387 L105.616642,46.5681222 L99.7728413,32.8163048 C94.2476753,29.2726548 87.411845,28.4400983 81.1998893,30.5544178 L76.5494465,32.1374135 L76.2133579,32.5414961 C75.1068635,33.8736678 75.7327675,35.90587 77.3965683,36.3815004 L86.2115867,36.7213526 L80.6178229,40.2861417 L80.4371956,40.7869765 C80.0625461,41.8240135 80.5987454,42.9683722 81.6346125,43.3423722 L78.9223616,46.3986026 L78.6232103,47.2262809 C78.180369,48.4519439 79.1504797,49.7267961 80.448155,49.6239461 L79.4593727,51.4581722 C78.7961255,52.6879004 79.572214,54.2013809 80.9567528,54.3778113 L80.9713653,55.64372 C81.0030258,58.3853026 83.3592989,60.5187287 86.0857565,60.2756287 L87.0587085,60.1975765 L100.620369,98.5191613 L101.298635,101.065613 L101.467897,101.921748 L193.323173,101.921748 L196.68,96.212557 L199.615904,91.2188439 L199.615904,51.1520613 Z" id="Fill-267" fill="#98D5D5"></path>
                        <path d="M199.615904,51.1520613 L199.576937,51.1130352 C187.671365,39.2600809 170.112768,35.1371374 154.187528,40.4560678 C140.040148,46.6526787 130.09631,59.7341417 127.898339,75.0421243 L127.404354,78.4853635 L129.787417,80.5492743 C136.695498,86.5320548 145.231255,90.3106743 154.298339,91.4005591 L154.951845,91.4790178 L151.372583,101.921748 L193.323173,101.921748 C196.746974,102.092081 199.615904,99.3574091 199.615904,95.924333 L199.615904,91.2188439 L199.615904,51.1520613 Z" id="Fill-269" fill="#32C7CC"></path>
                        <path d="M149.142668,20.0781493 C149.142668,20.6993146 148.639753,21.2034015 148.019125,21.2034015 C147.398904,21.2034015 146.895989,20.6993146 146.895989,20.0781493 C146.895989,19.4569841 147.398904,18.9528972 148.019125,18.9528972 C148.639753,18.9528972 149.142668,19.4569841 149.142668,20.0781493" id="Fill-271" fill="#009898"></path>
                        <path d="M150.44838,28.1970796 L151.077531,28.2739122 C152.539598,28.4535948 153.992734,27.8759274 154.934838,26.7413252 L155.36672,26.2205709" id="Stroke-273" stroke="#009898" stroke-width="0.55" stroke-linecap="round"></path>
                        <line x1="145.164524" y1="19.2266083" x2="142.220096" y2="26.2204083" id="Stroke-275" stroke="#009898" stroke-width="0.55" stroke-linecap="round"></line>
                        <line x1="146.895948" y1="25.7115243" x2="142.219934" y2="26.2204896" id="Stroke-277" stroke="#009898" stroke-width="0.55" stroke-linecap="round"></line>
                        <line x1="156.92462" y1="83.4705396" x2="154.951926" y2="91.4790178" id="Stroke-279" stroke="#009898" stroke-width="0.55" stroke-linecap="round"></line>
                        <path d="M87.5792399,41.1811807 L85.7421181,41.4230611 C83.5051808,41.7173828 81.6721181,43.524372 81.6721181,43.524372" id="Stroke-281" stroke="#009898" stroke-width="0.55" stroke-linecap="round"></path>
                        <path d="M80.3566236,50.0857548 L81.0645203,49.2527917 C82.097952,48.0364787 83.5405351,47.2421352 85.1195018,47.0197678 L86.3092066,46.8522809" id="Stroke-283" stroke="#009898" stroke-width="0.55" stroke-linecap="round"></path>
                        <path d="M86.1768007,50.6415513 L85.6158413,50.8496904 C83.7340701,51.5460622 82.1583506,52.8859578 81.166321,54.6319687" id="Stroke-285" stroke="#009898" stroke-width="0.55" stroke-linecap="round"></path>
                        <line x1="86.1241144" y1="55.2264254" x2="87.0589114" y2="60.1977798" id="Stroke-287" stroke="#009898" stroke-width="0.55" stroke-linecap="round"></line>
                        <line x1="124.861365" y1="87.1439513" x2="128.799446" y2="96.0886491" id="Stroke-289" stroke="#009898" stroke-width="0.55" stroke-linecap="round"></line>
                        <line x1="86.6196015" y1="57.8620685" x2="85.3345092" y2="57.292938" id="Stroke-291" stroke="#009898" stroke-width="0.55" stroke-linecap="round"></line>
                        <line x1="21.1806421" y1="12.2010183" x2="53.6830037" y2="12.2010183" id="Stroke-293" stroke="#F1F1F1" stroke-width="4.4" stroke-linecap="round" stroke-linejoin="round"></line>
                        <line x1="25.1905277" y1="17.4858009" x2="57.6932952" y2="17.4858009" id="Stroke-295" stroke="#F1F1F1" stroke-width="4.4" stroke-linecap="round" stroke-linejoin="round"></line>
                        <line x1="29.8338672" y1="22.770177" x2="62.3366347" y2="22.770177" id="Stroke-297" stroke="#F1F1F1" stroke-width="4.4" stroke-linecap="round" stroke-linejoin="round"></line>
                        <line x1="36.0599483" y1="28.054553" x2="68.5627159" y2="28.054553" id="Stroke-299" stroke="#F1F1F1" stroke-width="4.4" stroke-linecap="round" stroke-linejoin="round"></line>
                        <line x1="41.442155" y1="34.2619774" x2="73.9445166" y2="34.2619774" id="Stroke-301" stroke="#F1F1F1" stroke-width="4.4" stroke-linecap="round" stroke-linejoin="round"></line>
                        <line x1="47.4205129" y1="40.4689546" x2="79.9232804" y2="40.4689546" id="Stroke-303" stroke="#F1F1F1" stroke-width="4.4" stroke-linecap="round" stroke-linejoin="round"></line>
                    </g>
                    <g id="Group-323" transform="translate(94.000000, 0.328446)">
                        <g id="Group" transform="translate(195.142122, 119.293278)">
                            <path d="M115.118334,35.3005076 L2.21469507,35.3005076 C0.991606103,35.3005076 2.82816024e-13,34.310717 2.82816024e-13,33.089368 L2.82816024e-13,2.21154442 C2.82816024e-13,0.990195431 0.991606103,-7.84482462e-15 2.21469507,-7.84482462e-15 L115.118334,-7.84482462e-15 C116.341423,-7.84482462e-15 117.333029,0.990195431 117.333029,2.21154442 L117.333029,33.089368 C117.333029,34.310717 116.341423,35.3005076 115.118334,35.3005076" id="Fill-306" fill="#1E6E73"></path>
                            <polygon id="Fill-308" fill="#83DDE0" points="7.03120077 23.686843 23.2585144 23.686843 23.2585144 7.48261459 7.03120077 7.48261459"></polygon>
                            <line x1="32.0843763" y1="9.09599353" x2="102.72273" y2="9.09599353" id="Stroke-312" stroke="#83DDE0" stroke-width="2.75" stroke-linecap="round"></line>
                            <line x1="32.0843763" y1="15.2347194" x2="102.72273" y2="15.2347194" id="Stroke-313" stroke="#83DDE0" stroke-width="2.75" stroke-linecap="round"></line>
                            <line x1="32.0843763" y1="21.3732834" x2="102.72273" y2="21.3732834" id="Stroke-314" stroke="#83DDE0" stroke-width="2.75" stroke-linecap="round"></line>
                            <line x1="32.0843763" y1="27.5120497" x2="73.7727779" y2="27.5120497" id="Stroke-315" stroke="#83DDE0" stroke-width="2.75" stroke-linecap="round"></line>
                        </g>
                        <polygon id="Fill-316" fill="#32C7CC" points="190.911337 289.337563 301.576362 289.337563 301.576362 284.363107 190.911337 284.363107"></polygon>
                        <polygon id="Fill-317" fill="#32C7CC" points="301.576443 284.362864 220.518522 284.792785 234.480871 230.32313 314 230.32313"></polygon>
                        <path d="M276.072747,258.560986 C276.072747,261.80928 273.435626,264.44265 270.182704,264.44265 C266.929377,264.44265 264.292256,261.80928 264.292256,258.560986 C264.292256,255.312287 266.929377,252.678917 270.182704,252.678917 C273.435626,252.678917 276.072747,255.312287 276.072747,258.560986" id="Fill-318" fill="#009898"></path>
                        <path d="M265.96627,260.691444 C265.96627,261.94437 264.949124,262.960069 263.694414,262.960069 C262.440109,262.960069 261.422557,261.94437 261.422557,260.691444 C261.422557,259.438519 262.440109,258.42282 263.694414,258.42282 C264.949124,258.42282 265.96627,259.438519 265.96627,260.691444" id="Fill-319" fill="#1E6E73"></path>
                        <path d="M36.1394209,18.1141287 C36.1394209,27.968314 28.1396812,35.9566731 18.2710519,35.9566731 C8.40282796,35.9566731 0.403088286,27.968314 0.403088286,18.1141287 C0.403088286,8.2599434 8.40282796,0.271179442 18.2710519,0.271179442 C28.1396812,0.271179442 36.1394209,8.2599434 36.1394209,18.1141287" id="Fill-320" fill="#F1F1F1"></path>
                        <path d="M25.272618,17.1951415 L16.1681659,11.0345552 C15.4303396,10.5350044 14.4330579,11.0632976 14.4330579,11.9535019 L14.4330579,24.2746745 C14.4330579,25.1648788 15.4303396,25.6927671 16.1681659,25.1936212 L25.272618,19.0330349 C25.9232835,18.5925882 25.9232835,17.6355882 25.272618,17.1951415" id="Fill-321" fill="#FF6666"></path>
                    </g>
                </g>
                <ellipse id="椭圆形" fill="#FFC1C1" cx="488" cy="52.6422287" rx="12" ry="11.7991202"></ellipse>
                <g id="Group-16" transform="translate(538.000000, 46.288856)">
                    <g id="Group-3" transform="translate(0.000000, -0.269795)">
                        <mask id="mask-4" fill="white">
                            <use xlink:href="#path-3"></use>
                        </mask>
                        <g id="Clip-2"></g>
                        <polygon id="Fill-1" fill="#1E6E73" mask="url(#mask-4)" points="11.8817278 25.8791571 -17.5452208 0.300373965 -4.02864299 -15.2496308 25.3983056 10.3291523"></polygon>
                    </g>
                    <g id="Group-6" transform="translate(0.000000, -0.269795)">
                        <mask id="mask-6" fill="white">
                            <use xlink:href="#path-5"></use>
                        </mask>
                        <g id="Clip-5"></g>
                        <path d="M7.05759135,7.04161267 C3.85414963,10.726921 -1.73030217,11.1176779 -5.4156105,7.91423614 C-9.10098149,4.71079442 -9.49161302,-0.873657378 -6.28823396,-4.55896571 C-3.08479225,-8.2443367 2.49965955,-8.63503089 6.18496788,-5.43158917 C9.87033887,-2.22821012 10.2610331,3.35630434 7.05759135,7.04161267 Z" id="Stroke-4" stroke="#32C7CC" stroke-width="1.5" mask="url(#mask-6)"></path>
                    </g>
                    <g id="Group-9" transform="translate(0.000000, -0.269795)">
                        <mask id="mask-8" fill="white">
                            <use xlink:href="#path-7"></use>
                        </mask>
                        <g id="Clip-8"></g>
                        <path d="M10.9844533,10.6721236 C7.78101161,14.3574945 2.19655981,14.7481887 -1.48874852,11.544747 C-5.17411951,8.34136797 -5.56475104,2.75691617 -2.36137198,-0.928454823 C0.842069737,-4.61382581 6.42652154,-5.00452001 10.1118299,-1.80107829 C13.7972009,1.40236343 14.187895,6.98681523 10.9844533,10.6721236 Z" id="Stroke-7" stroke="#32C7CC" stroke-width="1.5" mask="url(#mask-8)"></path>
                    </g>
                    <g id="Group-12" transform="translate(0.000000, -0.269795)">
                        <mask id="mask-10" fill="white">
                            <use xlink:href="#path-9"></use>
                        </mask>
                        <g id="Clip-11"></g>
                        <path d="M13.9311335,13.2334733 C10.7276917,16.9187816 5.14323994,17.3095385 1.45786895,14.1060968 C-2.22743938,10.9026551 -2.61813357,5.31820326 0.585308147,1.63289493 C3.7886872,-2.05247606 9.373139,-2.44317025 13.05851,0.76027147 C16.743881,3.96365053 17.1345752,9.54816499 13.9311335,13.2334733 Z" id="Stroke-10" stroke="#32C7CC" stroke-width="1.5" mask="url(#mask-10)"></path>
                    </g>
                    <g id="Group-15" transform="translate(0.000000, -0.269795)">
                        <mask id="mask-12" fill="white">
                            <use xlink:href="#path-11"></use>
                        </mask>
                        <g id="Clip-14"></g>
                        <path d="M4.18984586,5.01184513 C0.98640414,8.69721612 -4.59804766,9.08791031 -8.28341865,5.88446859 C-11.968727,2.68102688 -12.3594212,-2.90336226 -9.15597945,-6.58873325 C-5.95253774,-10.2741042 -0.368148598,-10.6647984 3.31722239,-7.46135672 C7.00259338,-4.25797766 7.39328757,1.3265368 4.18984586,5.01184513 Z" id="Stroke-13" stroke="#32C7CC" stroke-width="1.5" mask="url(#mask-12)"></path>
                    </g>
                </g>
                <g id="Group-2" transform="translate(514.000000, 44.473607)">
                    <path d="M21,9.54545455 C21,15.0682945 16.2990386,19.5454545 10.5000231,19.5454545 C4.70105386,19.5454545 0,15.0682945 0,9.54545455 C0,4.02261454 4.70105386,-0.454545455 10.5000231,-0.454545455 C16.2990386,-0.454545455 21,4.02261454 21,9.54545455" id="Fill-97" fill="#FFE4B2"></path>
                    <path d="M15.5035531,13.4374722 C14.2376436,13.0373675 13.6575578,11.6420397 14.20783,10.3209866 C14.7581577,8.99988514 16.2304819,8.25331041 17.4963914,8.65341516 C18.7623566,9.05351991 19.3424979,10.4487992 18.7921146,11.7699007 C18.2417868,13.0910507 16.7695183,13.8376254 15.5035531,13.4374722" id="Fill-101" fill="#FFCB66"></path>
                    <g id="Group-130" transform="translate(1.000000, 0.545455)" fill="#FFCB66">
                        <path d="M13.8495501,1.06937038 C13.8495501,1.64816469 13.1486427,2.11733754 12.2840955,2.11733754 C11.4195484,2.11733754 10.718641,1.64816469 10.718641,1.06937038 C10.718641,0.49061997 11.4195484,0.0214471241 12.2840955,0.0214471241 C13.1486427,0.0214471241 13.8495501,0.49061997 13.8495501,1.06937038" id="Fill-118"></path>
                        <path d="M4.33613202,13.8464585 C3.9762008,13.1323691 4.54186133,12.1815579 5.59959899,11.7228846 C6.65738418,11.2642554 7.80667329,11.4713043 8.16660451,12.1854378 C8.52653573,12.8995713 7.9608752,13.8503385 6.90313754,14.3090117 C5.84535235,14.7677291 4.69611078,14.560592 4.33613202,13.8464585" id="Fill-120"></path>
                        <path d="M10.7774711,4.90545337 C10.9088125,5.50211775 10.2880756,6.11380264 9.39100377,6.27166937 C8.49393195,6.4295361 7.66023126,6.07380569 7.52888987,5.4771413 C7.3975969,4.88047692 8.01833381,4.26879203 8.91540563,4.11096859 C9.81242903,3.95305857 10.6461297,4.30878898 10.7774711,4.90545337" id="Fill-122"></path>
                        <path d="M2.57481173,2.62795462 C2.78457161,2.71260205 2.83994821,3.02181439 2.69846218,3.31854355 C2.55697615,3.61531682 2.27223012,3.7872583 2.06247025,3.70261087 C1.85271038,3.61796344 1.79733377,3.3087952 1.9388198,3.01202193 C2.08035378,2.71524866 2.36505186,2.54330718 2.57481173,2.62795462" id="Fill-124"></path>
                        <path d="M1.63246928,7.57051866 C2.42921998,7.63218421 3.00621556,8.41548085 2.92125,9.32005452 C2.83633258,10.2246719 2.12156281,10.9079751 1.32481212,10.8463532 C0.528109564,10.7846877 -0.0489341537,10.0013474 0.0360314059,9.09677368 C0.120996965,8.19220001 0.835718587,7.50885312 1.63246928,7.57051866" id="Fill-126"></path>
                        <path d="M11.790452,15.908711 C11.9962294,15.9957611 12.0763767,16.2569569 11.9694195,16.4920693 C11.8624623,16.7272271 11.6089917,16.8472556 11.4032143,16.7602055 C11.197437,16.6732007 11.1172426,16.412005 11.2242468,16.1768472 C11.331157,15.9417347 11.5846747,15.8216609 11.790452,15.908711" id="Fill-128"></path>
                    </g>
                </g>
                <line x1="546.5" y1="45.3812317" x2="546.5" y2="9.07624633" id="Path-14" stroke="#83DDE0" stroke-width="2"></line>
                <line x1="492" y1="40.8431085" x2="503" y2="8.1686217" id="Path-15" stroke="#83DDE0" stroke-width="2"></line>
                <line x1="524.5" y1="44.473607" x2="524.5" y2="7.26099707" id="Path-16" stroke="#83DDE0" stroke-width="2"></line>
                <rect id="Rectangle" fill="#1E6E73" x="495" y="-2.84217094e-14" width="58" height="9.07624633" rx="4.53812317"></rect>
            </g>
        </g>
    </g>
</svg>