<svg xmlns="http://www.w3.org/2000/svg" width="1142" height="425" viewBox="0 0 1142 425">
    <g fill="none" fill-rule="evenodd" stroke-opacity=".205">
        <g fill-rule="nonzero" stroke="#099">
            <path d="M432.392 1316c16.807 0 31.801-2.967 44.983-8.902 13.182-5.934 24.057-14.506 32.625-25.715h0l-36.827-32.887c-10.71 13.517-23.315 20.276-37.815 20.276-12.193 0-21.997-3.915-29.412-11.745-7.415-7.83-11.122-18.34-11.122-31.527 0-13.188 3.707-23.696 11.122-31.527 7.415-7.83 17.219-11.745 29.412-11.745 14.5 0 27.105 6.759 37.815 20.276h0L510 1169.617c-8.568-11.209-19.443-19.78-32.625-25.715-13.182-5.935-28.176-8.902-44.983-8.902-18.29 0-34.767 3.833-49.432 11.498-14.665 7.665-26.157 18.38-34.478 32.145C340.16 1192.407 336 1208.026 336 1225.5s4.16 33.093 12.482 46.857c8.32 13.765 19.813 24.48 34.478 32.145 14.665 7.665 31.142 11.498 49.432 11.498zm198.108 0c18.595 0 35.297-3.874 50.108-11.622 14.81-7.747 26.411-18.503 34.803-32.268 8.393-13.765 12.589-29.301 12.589-46.61s-4.196-32.845-12.589-46.61c-8.392-13.765-19.993-24.52-34.803-32.268-14.81-7.748-31.513-11.622-50.108-11.622-18.595 0-35.297 3.874-50.108 11.622-14.81 7.747-26.411 18.503-34.803 32.268-8.393 13.765-12.589 29.301-12.589 46.61s4.196 32.845 12.589 46.61c8.392 13.765 19.993 24.52 34.803 32.268 14.81 7.748 31.513 11.622 50.108 11.622zm-.5-48c-7.287 0-13.87-1.761-19.748-5.283-5.88-3.522-10.558-8.518-14.035-14.988-3.478-6.47-5.217-14.047-5.217-22.729 0-8.682 1.739-16.258 5.217-22.729 3.477-6.47 8.156-11.466 14.035-14.988C616.13 1183.76 622.713 1182 630 1182c7.287 0 13.87 1.761 19.748 5.283 5.88 3.522 10.558 8.518 14.035 14.988 3.478 6.47 5.217 14.047 5.217 22.729 0 8.682-1.739 16.258-5.217 22.729-3.477 6.47-8.156 11.466-14.035 14.988C643.87 1266.24 637.287 1268 630 1268zm193.385 44v-43.497h15.833l29.44 43.497H931l-36.367-53.383c10.556-5.437 18.637-12.769 24.245-21.996 5.607-9.226 8.411-20.018 8.411-32.375 0-13.181-3.216-24.715-9.648-34.6-6.432-9.886-15.586-17.465-27.46-22.737-11.875-5.273-25.812-7.909-41.81-7.909h0H765v173h58.385zm21.879-88H824v-40h21.264c7.912 0 13.846 1.748 17.802 5.244 3.956 3.496 5.934 8.415 5.934 14.756 0 6.341-1.978 11.26-5.934 14.756-3.956 3.496-9.89 5.244-17.802 5.244h0zM1110 1312v-43.991h-86.598v-22.738h73.237v-42.014h-73.237v-20.266h83.382V1139H966v173h144zm-829.922 242L353 1381h-57.155l-42.128 101.081L212.575 1381H150l72.922 173h57.156zm130.069 0l11.583-30.151h65.554L498.867 1554H559l-75.412-173h-57.176L351 1554h59.147zM471 1482h-34l17-44 17 44zm251 72v-45.227h-78.428V1381H585v173h137zm113 4c26.44 0 47.05-7.169 61.83-21.507 14.78-14.338 22.17-34.444 22.17-60.318h0V1381h-57.15v93.444c0 12.69-2.258 21.92-6.774 27.687-4.516 5.768-11.044 8.653-19.583 8.653-8.54 0-15.068-2.885-19.584-8.653-4.516-5.768-6.774-14.997-6.774-27.687h0V1381H751v95.175c0 25.874 7.39 45.98 22.17 60.318C787.95 1550.831 808.56 1558 835 1558zm271-4v-43.991h-86.598v-22.738h73.237v-42.014h-73.237v-20.266h83.382V1381H962v173h144zm103.404 4c17.306 0 32.016-2.596 44.13-7.789 12.114-5.193 21.22-12.198 27.319-21.018 6.098-8.819 9.147-18.668 9.147-29.548 0-12.528-3.338-22.42-10.013-29.672-6.675-7.254-14.545-12.487-23.61-15.702-9.065-3.214-20.19-6.058-33.375-8.53-10.22-1.979-17.554-3.833-22.004-5.564-4.45-1.731-6.675-4.327-6.675-7.789 0-7.253 7.5-10.88 22.498-10.88 15.163 0 31.233 4.286 48.21 12.858h0l17.552-42.283c-8.735-4.945-18.83-8.695-30.285-11.25-11.455-2.555-23.116-3.833-34.983-3.833-17.305 0-32.015 2.555-44.13 7.665-12.114 5.11-21.22 12.116-27.318 21.018-6.098 8.902-9.148 18.792-9.148 29.672 0 12.528 3.297 22.46 9.89 29.796 6.592 7.336 14.339 12.61 23.239 15.825s20.025 6.223 33.375 9.025c10.384 2.143 17.842 4.121 22.374 5.935 4.533 1.813 6.8 4.533 6.8 8.16 0 3.132-1.731 5.48-5.193 7.047-3.46 1.566-9.23 2.349-17.305 2.349-9.395 0-19.202-1.443-29.42-4.327-10.22-2.885-19.449-6.718-27.69-11.498h0l-18.789 42.53c8.735 5.44 19.902 9.767 33.5 12.981 13.597 3.215 27.565 4.822 41.904 4.822z" transform="translate(-149 -1134)"/>
        </g>
    </g>
</svg>
