<?xml version="1.0" encoding="UTF-8"?>
<svg width="842px" height="668px" viewBox="0 0 842 668" version="1.1" xmlns="http://www.w3.org/2000/svg" xmlns:xlink="http://www.w3.org/1999/xlink">
    <title>形状结合</title>
    <g id="页面-1" stroke="none" stroke-width="1" fill="none" fill-rule="evenodd" fill-opacity="0.398121">
        <path d="M532.845976,0.159670233 L837.154189,76.0322293 C840.012213,76.7448147 841.751435,79.6393657 841.038849,82.4973899 L841.031791,82.5253747 L755.223562,418.917831 C711.906743,592.652101 538.629803,699.393365 366.541948,659.467471 L361.327664,658.21262 L440.551945,340.461385 L441.442736,340.68323 L526.384455,4.02981808 C527.103627,1.17946811 529.993619,-0.55150207 532.845976,0.159670233 Z M4.88027672,401.350283 C26.6586698,314.00192 115.123385,260.846956 202.471749,282.625349 C289.820113,304.403742 342.975077,392.868457 321.196683,480.216821 C299.41829,567.565185 210.953575,620.720149 123.605211,598.941756 C36.2568473,577.163363 -16.8981164,488.698647 4.88027672,401.350283 Z" id="形状结合" fill="#1E6E73"></path>
    </g>
</svg>