<?xml version="1.0" encoding="UTF-8"?>
<svg width="320px" height="320px" viewBox="0 0 320 320" version="1.1" xmlns="http://www.w3.org/2000/svg" xmlns:xlink="http://www.w3.org/1999/xlink">
    <title>ts-dashboard-2</title>
    <g id="页面-1" stroke="none" stroke-width="1" fill="none" fill-rule="evenodd">
        <g id="Dashboard-pc" transform="translate(-970.000000, -181.000000)" fill-rule="nonzero">
            <g id="编组-40" transform="translate(970.000000, 181.000000)">
                <g id="ts-dashboard-2" transform="translate(40.000000, 36.363636)">
                    <path d="M123.574618,247.272727 C165.335359,247.277146 204.278498,226.216486 227.123846,191.272743 C249.969194,156.329001 253.631554,112.221225 236.862006,73.9908259 C235.801209,71.3866817 233.409007,69.5640606 230.615824,69.2318517 C227.822641,68.8996428 225.069386,70.1102863 223.426909,72.3929149 C221.784432,74.6755435 221.512001,77.6698391 222.715577,80.2112018 C243.600807,127.893696 227.553604,183.683628 184.521838,212.996089 C141.490071,242.308551 83.6755351,236.831903 46.9182155,199.961189 C10.1608959,163.090475 4.88344667,105.280504 34.3574276,62.368432 C63.8314086,19.4563598 119.699379,3.61003994 167.328055,24.6528131 C171.234484,26.3811914 175.802962,24.6168085 177.532037,20.7119537 C179.261111,16.8070989 177.496018,12.2404612 173.589589,10.5120827 C127.518319,-9.79402622 73.7310742,-0.156218279 37.5846082,34.8819846 C1.43814225,69.9201875 -9.85175026,123.36423 9.03728981,170.019152 C27.9263299,216.674074 73.2235486,247.226315 123.574618,247.272727 Z" id="路径" stroke="#FFFFFF" stroke-width="5.81818182" fill="#FFFFFF"></path>
                    <path d="M197.88926,44.4983839 C199.518969,43.6971416 201.429335,43.7028127 203.054258,44.5137168 C205.929417,45.9485397 207.097039,49.4424698 205.662217,52.3176282 L205.662217,52.3176282 L203.002167,57.6479468 C199.021295,65.5714796 163.773184,135.685084 149.62756,149.83149 C140.811123,158.620796 127.975619,162.038678 115.956059,158.797651 C103.936498,155.556624 94.5589375,146.149078 91.3558139,134.118744 C88.1526903,122.08841 91.610634,109.262983 100.427071,100.473677 C114.572695,86.3272714 184.643776,50.9612581 192.605521,47.0961199 L192.605521,47.0961199 Z M123.775913,112.435605 C116.045285,112.435605 109.778373,118.69893 109.778373,126.425133 C109.778373,134.151336 116.045285,140.414661 123.775913,140.414661 C131.50654,140.414661 137.773452,134.151336 137.773452,126.425133 C137.773452,118.69893 131.50654,112.435605 123.775913,112.435605 Z" id="形状结合" fill="#FFCC66"></path>
                </g>
            </g>
        </g>
    </g>
</svg>