<svg width="24" height="24" viewBox="0 0 24 24" fill="none" xmlns="http://www.w3.org/2000/svg">
<circle cx="12" cy="12" r="12" fill="#666666"/>
<path fill-rule="evenodd" clip-rule="evenodd" d="M17.2392 6.00635C17.6381 6.00635 17.9614 6.32968 17.9614 6.72854V6.73248L17.9293 12.6088C17.9293 15.9623 15.2379 18.6872 11.8973 18.7413L11.7959 18.7421V12.6088L11.8132 12.6086L11.83 6.72649C11.8311 6.32844 12.1541 6.00635 12.5521 6.00635H17.2392ZM7.56669 12.6047C9.26038 12.6047 10.6334 13.9777 10.6334 15.6714C10.6334 17.3651 9.26038 18.7381 7.56669 18.7381C5.873 18.7381 4.5 17.3651 4.5 15.6714C4.5 13.9777 5.873 12.6047 7.56669 12.6047Z" fill="white"/>
</svg>
