<?xml version="1.0" encoding="UTF-8"?>
<svg width="168px" height="168px" viewBox="0 0 168 168" version="1.1" xmlns="http://www.w3.org/2000/svg" xmlns:xlink="http://www.w3.org/1999/xlink">
    <title>Docs</title>
    <defs>
        <filter x="-8.2%" y="-8.3%" width="116.4%" height="116.6%" filterUnits="objectBoundingBox" id="filter-1">
            <feOffset dx="0" dy="2" in="SourceAlpha" result="shadowOffsetOuter1"></feOffset>
            <feGaussianBlur stdDeviation="2" in="shadowOffsetOuter1" result="shadowBlurOuter1"></feGaussianBlur>
            <feColorMatrix values="0 0 0 0 0   0 0 0 0 0   0 0 0 0 0  0 0 0 0.1 0" type="matrix" in="shadowBlurOuter1" result="shadowMatrixOuter1"></feColorMatrix>
            <feMerge>
                <feMergeNode in="shadowMatrixOuter1"></feMergeNode>
                <feMergeNode in="SourceGraphic"></feMergeNode>
            </feMerge>
        </filter>
        <ellipse id="path-2" cx="54.3103448" cy="54.8441675" rx="54.3103448" ry="54.1907514"></ellipse>
        <ellipse id="path-4" cx="54.3103448" cy="54.8441675" rx="54.3103448" ry="54.1907514"></ellipse>
    </defs>
    <g id="页面-1" stroke="none" stroke-width="1" fill="none" fill-rule="evenodd">
        <g id="Front-page-pc" transform="translate(-786.000000, -2732.000000)">
            <g id="编组-27" transform="translate(151.000000, 2618.000000)">
                <g id="编组-16"></g>
                <g id="Docs" filter="url(#filter-1)" transform="translate(646.000000, 125.000000)">
                    <g id="椭圆形备份-10" transform="translate(0.500000, 0.000000)" fill="#FFFFFF" fill-rule="nonzero">
                        <g id="path-1-link">
                            <circle id="path-1" cx="72.5" cy="72.5" r="72.5"></circle>
                        </g>
                    </g>
                    <g id="5715---View-Document-+-5715---View-Document备份-蒙版" transform="translate(8.500000, 3.000000)">
                        <g id="蒙版" transform="translate(10.137931, 14.450867)" fill="#1D1D1B" fill-rule="nonzero">
                            <ellipse id="path-3" cx="54.3103448" cy="54.8441675" rx="54.3103448" ry="54.1907514"></ellipse>
                        </g>
                        <g id="5715---View-Document-Clipped" transform="translate(10.137931, 14.450867)">
                            <mask id="mask-3" fill="white">
                                <use xlink:href="#path-2"></use>
                            </mask>
                            <g id="path-3"></g>
                            <g id="5715---View-Document" mask="url(#mask-3)">
                                <g transform="translate(15.931034, -13.728324)" id="编组">
                                    <g transform="translate(50.353282, 61.006907) rotate(10.000000) translate(-50.353282, -61.006907) translate(9.353282, 6.506907)">
                                        <path d="M4.83701509,108.381503 L76.4658539,108.381503 C76.508284,108.381503 76.5436422,108.381503 76.5860724,108.374447 C76.6285018,108.374447 76.6638607,108.367391 76.7062901,108.367391 C76.7487203,108.367391 76.7840785,108.360335 76.8265086,108.353279 C76.8689388,108.346223 76.904297,108.346223 76.9467271,108.339166 C76.9891565,108.332111 77.0245154,108.325054 77.0669449,108.325054 C77.109375,108.317998 77.1447332,108.310942 77.1800914,108.303886 C77.2154496,108.29683 77.2578798,108.289774 77.293238,108.282717 C77.3285962,108.275662 77.3710263,108.268605 77.4063845,108.254493 C77.4417427,108.247437 77.4841729,108.233325 77.5195311,108.226269 C77.5548893,108.219213 77.5973194,108.2051 77.6326776,108.198045 C77.6680358,108.183932 77.710466,108.176876 77.7458242,108.162764 C77.7811824,108.148652 77.8165406,108.141596 77.8589707,108.127484 C77.8943289,108.113371 77.9296871,108.099259 77.9650461,108.092203 L78.0711207,108.049867 L78.1771953,108.00753 C78.2125535,107.993418 78.2479124,107.979306 78.2832707,107.958137 C78.3186289,107.944025 78.3539871,107.922857 78.3893453,107.908745 C78.4247035,107.894633 78.4600617,107.873465 78.4883487,107.859353 C78.5237069,107.84524 78.5590651,107.824072 78.5873521,107.802904 C78.6227103,107.781736 78.6509966,107.767624 78.6863548,107.746455 C78.7217137,107.725287 78.75,107.711175 78.7853582,107.690007 C78.8207164,107.668838 78.8490034,107.64767 78.8843616,107.626501 C78.9197198,107.605333 78.9480068,107.584165 78.9762931,107.562996 C79.0045801,107.541829 79.0399383,107.52066 79.0682246,107.499492 C79.0965116,107.478324 79.1318698,107.457155 79.1601561,107.435987 C79.1884431,107.414819 79.2238013,107.39365 79.2520876,107.365426 C79.2803746,107.344258 79.3086608,107.316034 79.3369478,107.294866 C79.3652341,107.273697 79.3935211,107.245473 79.4218074,107.224304 C79.4500944,107.203137 79.4783807,107.174912 79.5066677,107.146688 C79.5349539,107.118463 79.5632409,107.097295 79.5915272,107.069071 C79.6198142,107.040846 79.6481005,107.019678 79.6693156,106.991454 L79.7471039,106.913837 C79.7753909,106.885613 79.7966052,106.857388 79.8248922,106.829163 C79.8531792,106.800939 79.8743936,106.772715 79.9026806,106.744491 C79.9309669,106.716266 79.9521819,106.688042 79.973397,106.659818 C79.9946121,106.631593 80.0228983,106.603368 80.0441134,106.568088 C80.0653285,106.539864 80.0936155,106.511639 80.1148306,106.476359 C80.1360449,106.448135 80.15726,106.412855 80.178475,106.38463 C80.1996901,106.356406 80.2209052,106.321126 80.2421202,106.292901 C80.2633353,106.264676 80.2845504,106.229396 80.3057654,106.201172 C80.3269798,106.165892 80.3481949,106.137667 80.3694099,106.102387 C80.390625,106.067106 80.4118401,106.038882 80.4259832,106.003601 C80.4471983,105.968321 80.4613414,105.940097 80.4825565,105.904816 C80.5037716,105.869536 80.5179147,105.841311 80.5391298,105.806031 C80.5532729,105.770751 80.574488,105.73547 80.5886311,105.707246 C80.602775,105.671965 80.62399,105.636685 80.6381332,105.601405 C80.6522763,105.566124 80.6664194,105.530843 80.6876345,105.495563 L80.7300647,105.389722 L80.7724948,105.283881 C80.7866379,105.2486 80.8007811,105.213319 80.807853,105.178039 C80.8219961,105.142759 80.8290681,105.107478 80.8432112,105.065142 C80.8573543,105.029861 80.8644263,104.994581 80.8785694,104.952244 C80.8927126,104.916964 80.8997845,104.874627 80.9068564,104.839347 C80.9139276,104.804066 80.9280708,104.76173 80.9351427,104.726449 C80.9422146,104.691169 80.9492858,104.648832 80.9634297,104.613552 C80.9705009,104.578272 80.9775728,104.535935 80.9846448,104.500655 C80.991716,104.465374 80.9987879,104.423038 81.0058591,104.387757 C81.012931,104.345421 81.020003,104.31014 81.020003,104.267804 C81.0270742,104.225467 81.0270742,104.190187 81.0341461,104.14785 C81.0412173,104.105514 81.0412173,104.070233 81.0412173,104.027897 C81.0412173,103.985561 81.0482892,103.95028 81.0482892,103.907944 C81.0482892,103.865607 81.0482892,103.830327 81.0553612,103.78799 L81.0553612,4.7134664 L81.0553612,4.59351292 C81.0553612,4.55117639 81.0553612,4.51589595 81.0482892,4.47355943 C81.0482892,4.4312229 81.0412173,4.39594247 81.0412173,4.35360595 C81.0412173,4.31126942 81.0341461,4.27598898 81.0341461,4.23365246 C81.0270742,4.19131593 81.0270742,4.1560355 81.020003,4.11369897 C81.012931,4.07136245 81.012931,4.03608201 81.0058591,3.99374548 C80.9987879,3.95140896 80.991716,3.91612853 80.9846448,3.88084809 C80.9775728,3.84556765 80.9705009,3.80323113 80.9634297,3.76795069 C80.9563578,3.73267025 80.9492858,3.69033373 80.9351427,3.65505329 C80.9280715,3.61977285 80.9139276,3.57743633 80.9068564,3.54215589 C80.8997845,3.50687546 80.8856413,3.46453893 80.8785694,3.42925849 C80.8644263,3.39397805 80.8573543,3.35164152 80.8432112,3.31636109 C80.8290681,3.28108065 80.8219961,3.24580022 80.807853,3.20346369 C80.7937099,3.16818325 80.779566,3.13290282 80.7724948,3.09762238 L80.7300647,2.99178107 L80.6876345,2.88593975 C80.6734914,2.85065932 80.6593482,2.81537888 80.6381332,2.78009845 C80.62399,2.74481801 80.602775,2.70953757 80.5886311,2.67425713 C80.574488,2.6389767 80.5532729,2.60369626 80.5391298,2.57547191 C80.5249866,2.54019147 80.5037716,2.50491103 80.4825565,2.47668669 C80.4613414,2.44140625 80.4471983,2.4131819 80.4259832,2.37790147 C80.4047681,2.34262103 80.390625,2.31439668 80.3694099,2.27911624 C80.3481949,2.2438358 80.3269798,2.21561145 80.3057654,2.18033102 C80.2845504,2.14505058 80.2633353,2.11682623 80.2421202,2.08860188 C80.2209052,2.06037753 80.1996901,2.0250971 80.178475,1.99687275 C80.15726,1.9686484 80.1360449,1.93336796 80.1148306,1.90514361 C80.0936155,1.87691926 80.0724004,1.84163882 80.0441134,1.81341447 C80.0228983,1.78519012 79.9946121,1.75696577 79.973397,1.72168533 C79.9521819,1.69346098 79.9238957,1.66523663 79.9026806,1.63701228 C79.8814655,1.60878793 79.8531785,1.58056358 79.8248922,1.55233923 C79.7966052,1.52411488 79.7753909,1.49589053 79.7471039,1.46766618 C79.7188176,1.43944184 79.6976026,1.41121749 79.6693156,1.39004923 L79.5915272,1.31243226 C79.5632409,1.28420791 79.5349539,1.26303965 79.5066677,1.2348153 C79.4783807,1.20659095 79.4500944,1.18542269 79.4218074,1.15719834 C79.3935211,1.12897399 79.3652341,1.10780572 79.3369478,1.08663746 C79.3086608,1.0654692 79.2803746,1.03724485 79.2520876,1.01607659 C79.2238013,0.994908324 79.1955143,0.966683974 79.1601561,0.945515715 C79.1318698,0.924347449 79.0965116,0.903179191 79.0682246,0.882010925 C79.0399383,0.860842666 79.0045794,0.8396744 78.9762931,0.818506142 C78.9480068,0.797337876 78.9126479,0.776169617 78.8843616,0.755001358 C78.8490034,0.733833092 78.8207164,0.71266483 78.7853582,0.691496568 C78.75,0.670328306 78.7217137,0.649160043 78.6863548,0.635047868 C78.6509966,0.613879606 78.6227103,0.599767431 78.5873521,0.578599169 C78.5519932,0.557430907 78.5237069,0.543318732 78.4883487,0.52215047 C78.4529905,0.508038295 78.4176323,0.486870033 78.3893453,0.472757858 C78.3539871,0.458645683 78.3186289,0.437477421 78.2832707,0.423365246 C78.2479124,0.409253071 78.2125535,0.395140896 78.1771953,0.373972634 L78.0711207,0.331636109 L77.9650461,0.289299585 C77.9296871,0.27518741 77.8943289,0.261075235 77.8589707,0.254019147 C77.8236125,0.239906973 77.7882543,0.232850885 77.7458242,0.21873871 C77.710466,0.204626535 77.6751078,0.197570448 77.6326776,0.183458273 C77.5973194,0.176402186 77.5548893,0.162290011 77.5195311,0.155233923 C77.4841729,0.148177836 77.4417427,0.134065661 77.4063845,0.127009574 C77.3710263,0.119953486 77.3285962,0.112897399 77.293238,0.098785224 C77.2578798,0.0917291366 77.2154496,0.0846730491 77.1800914,0.0776169617 C77.1447332,0.0705608743 77.1023031,0.0635047868 77.0669449,0.0564486994 C77.0245154,0.049392612 76.9891565,0.0423365246 76.9467271,0.0423365246 C76.904297,0.0352804371 76.8689388,0.0352804371 76.8265086,0.0282243497 C76.7840785,0.0211682623 76.7487203,0.0211682623 76.7062901,0.0211682623 C76.6638607,0.0211682623 76.6285025,0.0141121749 76.5860724,0.0141121749 C76.5436422,0.0141121749 76.508284,0.00705608743 76.4658539,0.00705608743 L4.71679688,0.00705608743 C4.67436692,0.00705608743 4.63900862,0.00705608743 4.59657866,0.0141121749 C4.55414871,0.0141121749 4.51879041,0.0211682623 4.47636045,0.0211682623 C4.43393049,0.0211682623 4.3985722,0.0282243497 4.35614224,0.0282243497 C4.31371228,0.0352804371 4.27835398,0.0352804371 4.23592403,0.0423365246 C4.19349407,0.049392612 4.15813578,0.049392612 4.11570582,0.0564486994 C4.07327586,0.0635047868 4.03791757,0.0705608743 4.00255927,0.0776169617 C3.96720097,0.0846730491 3.92477101,0.0917291366 3.88941272,0.098785224 C3.85405441,0.105841311 3.81162446,0.112897399 3.77626616,0.127009574 C3.74090786,0.134065661 3.69847791,0.148177836 3.66311961,0.155233923 C3.62776131,0.162290011 3.58533135,0.176402186 3.54997306,0.183458273 C3.51461476,0.197570448 3.4721848,0.204626535 3.43682651,0.21873871 C3.40146821,0.232850885 3.36610991,0.239906973 3.32367996,0.254019147 C3.28832166,0.268131322 3.25296336,0.282243497 3.21760506,0.289299585 L3.11153017,0.331636109 L3.00545528,0.373972634 C2.97009698,0.388084809 2.93473868,0.402196983 2.89938039,0.423365246 C2.86402209,0.437477421 2.82866379,0.458645683 2.79330549,0.472757858 C2.7579472,0.486870033 2.7225889,0.508038295 2.69430226,0.52215047 C2.65894397,0.536262645 2.62358566,0.557430907 2.59529903,0.578599169 C2.55994073,0.599767431 2.53165409,0.613879606 2.49629579,0.635047868 C2.4609375,0.656216131 2.43265086,0.670328306 2.39729256,0.691496568 C2.36193427,0.71266483 2.33364763,0.733833092 2.29828933,0.755001358 C2.26293103,0.776169617 2.2346444,0.797337883 2.20635776,0.818506142 C2.17807112,0.839674408 2.14271282,0.860842666 2.11442618,0.882010925 C2.08613954,0.903179191 2.05078125,0.924347449 2.02249461,0.945515715 C1.99420797,0.966683974 1.95884967,0.98785224 1.93056304,1.01607659 C1.9022764,1.03724485 1.87398976,1.0654692 1.84570312,1.08663746 C1.81741648,1.10780572 1.78912985,1.13603007 1.76084321,1.15719834 C1.73255657,1.1783666 1.70426993,1.20659095 1.67598329,1.2348153 C1.64769666,1.26303965 1.61941002,1.28420791 1.59112338,1.31243226 C1.56283674,1.34065661 1.5345501,1.36182487 1.51333513,1.39004923 L1.43554687,1.46766618 C1.40726023,1.49589053 1.38604526,1.52411488 1.35775862,1.55233923 C1.32947198,1.58056358 1.308257,1.60878793 1.27997036,1.63701228 C1.25168372,1.66523663 1.23046875,1.69346098 1.20925377,1.72168533 C1.18803879,1.74990968 1.15975216,1.77813403 1.13853717,1.81341447 C1.1173222,1.84163882 1.08903556,1.86986317 1.06782058,1.90514361 C1.0466056,1.93336796 1.02539062,1.9686484 1.00417565,1.99687275 C0.982960664,2.0250971 0.96174569,2.06037753 0.940530708,2.08860188 C0.919315733,2.11682623 0.898100751,2.15210667 0.876885776,2.18033102 C0.855670794,2.21561145 0.834455819,2.2438358 0.813240837,2.27911624 C0.792025862,2.31439668 0.77081088,2.34262103 0.756667561,2.37790147 C0.735452586,2.4131819 0.721309267,2.44140625 0.700094289,2.47668669 C0.67887931,2.51196712 0.664735991,2.54019147 0.643521013,2.57547191 C0.629377694,2.61075235 0.608162716,2.64603278 0.594019397,2.67425713 C0.579876078,2.70953757 0.558661099,2.74481801 0.54451778,2.78009845 C0.530374461,2.81537888 0.516231142,2.85065932 0.495016164,2.88593975 L0.452586207,2.99178107 L0.41015625,3.09762238 C0.396012931,3.13290282 0.381869612,3.16818325 0.374797953,3.20346369 C0.360654634,3.23874413 0.353582974,3.27402457 0.339439655,3.31636109 C0.325296336,3.35164152 0.318224677,3.38692197 0.304081358,3.42925849 C0.297009698,3.46453893 0.282866379,3.50687546 0.27579472,3.54215589 C0.26872306,3.57743633 0.254579741,3.61977285 0.247508082,3.65505329 C0.240436422,3.69033373 0.233364763,3.73267025 0.219221444,3.76795069 C0.212149784,3.80323113 0.205078125,3.84556765 0.198006466,3.88084809 C0.190934806,3.91612853 0.183863147,3.95846505 0.176791487,3.99374548 C0.169719828,4.03608201 0.162648168,4.07136245 0.162648168,4.11369897 C0.155576509,4.1560355 0.155576509,4.19131593 0.148504849,4.23365246 C0.14143319,4.27598898 0.14143319,4.31126942 0.14143319,4.35360595 C0.14143319,4.39594247 0.13436153,4.4312229 0.13436153,4.47355943 C0.13436153,4.51589595 0.13436153,4.55117639 0.127289871,4.59351292 L0.127289871,103.78799 C0.127289871,103.830327 0.127289871,103.865607 0.13436153,103.907944 C0.13436153,103.95028 0.14143319,103.985561 0.14143319,104.027897 C0.14143319,104.070233 0.148504849,104.105514 0.148504849,104.14785 C0.155576509,104.190187 0.155576509,104.225467 0.162648168,104.267804 C0.169719828,104.31014 0.169719828,104.345421 0.176791487,104.387757 C0.183863147,104.430094 0.190934806,104.465374 0.198006466,104.500655 C0.205078125,104.535935 0.212149784,104.578272 0.219221444,104.613552 C0.226293103,104.648832 0.233364763,104.691169 0.247508082,104.726449 C0.254579741,104.76173 0.26872306,104.804066 0.27579472,104.839347 C0.282866379,104.874627 0.297009698,104.916964 0.304081358,104.952244 C0.318224677,104.987525 0.325296336,105.029861 0.339439655,105.065142 C0.353582974,105.100422 0.360654634,105.135702 0.374797953,105.178039 C0.388941272,105.213319 0.403084591,105.2486 0.41015625,105.283881 L0.452586207,105.389722 L0.495016164,105.495563 C0.509159483,105.530843 0.523302802,105.566124 0.54451778,105.601405 C0.558661099,105.636685 0.579876078,105.671965 0.594019397,105.707246 C0.608162716,105.742526 0.629377694,105.777806 0.643521013,105.806031 C0.657664332,105.841311 0.67887931,105.876592 0.700094289,105.904816 C0.721309267,105.940097 0.735452586,105.968321 0.756667561,106.003601 C0.777882543,106.038882 0.792025862,106.067106 0.813240837,106.102387 C0.834455819,106.137667 0.855670794,106.165892 0.876885776,106.201172 C0.898100751,106.236452 0.919315733,106.264677 0.940530708,106.292901 C0.96174569,106.321126 0.982960664,106.356406 1.00417565,106.38463 C1.02539062,106.412855 1.0466056,106.448135 1.06782058,106.476359 C1.08903556,106.504584 1.11025054,106.539864 1.13853717,106.568088 C1.15975216,106.596313 1.18803879,106.624537 1.20925377,106.659818 C1.23046875,106.688042 1.25875539,106.716266 1.27997036,106.744491 C1.30118534,106.772715 1.32947198,106.800939 1.35775862,106.829163 C1.38604526,106.857388 1.40726023,106.885613 1.43554687,106.913837 C1.46383351,106.942061 1.48504849,106.970285 1.51333513,106.991454 L1.59112338,107.069071 C1.61941002,107.097295 1.64769666,107.118463 1.67598329,107.146688 C1.70426993,107.174912 1.73255657,107.19608 1.76084321,107.224304 C1.78912985,107.252529 1.81741648,107.273697 1.84570312,107.294866 C1.87398976,107.316034 1.9022764,107.344258 1.93056304,107.365426 C1.95884967,107.386595 1.98713631,107.414819 2.02249461,107.435987 C2.05078125,107.457155 2.08613954,107.478324 2.11442618,107.499492 C2.14271282,107.52066 2.17807112,107.541829 2.20635776,107.562996 C2.2346444,107.584165 2.27000269,107.605333 2.29828933,107.626501 C2.33364763,107.64767 2.36193427,107.668838 2.39729256,107.690007 C2.43265086,107.711175 2.4609375,107.732342 2.49629579,107.746455 C2.53165409,107.767624 2.55994073,107.781736 2.59529903,107.802904 C2.63065733,107.824072 2.65894397,107.838184 2.69430226,107.859353 C2.72966056,107.873465 2.76501885,107.894633 2.79330549,107.908745 C2.82866379,107.922857 2.86402209,107.944025 2.89938039,107.958137 C2.93473868,107.97225 2.97009698,107.986362 3.00545528,108.00753 L3.11153017,108.049867 L3.21760506,108.092203 C3.25296336,108.106316 3.28832166,108.120428 3.32367996,108.127484 C3.35903825,108.141596 3.39439655,108.148652 3.43682651,108.162764 C3.4721848,108.176876 3.5075431,108.183932 3.54997306,108.198045 C3.58533135,108.212157 3.62776131,108.219213 3.66311961,108.226269 C3.69847791,108.233325 3.74090786,108.247437 3.77626616,108.254493 C3.81162446,108.261549 3.85405441,108.268605 3.88941272,108.282717 C3.92477101,108.289774 3.96720097,108.29683 4.00255927,108.303886 C4.03791757,108.310942 4.08034753,108.317998 4.11570582,108.325054 C4.15813578,108.332111 4.19349408,108.339166 4.23592403,108.339166 C4.27835399,108.346223 4.31371228,108.346223 4.35614224,108.353279 C4.3985722,108.360335 4.43393049,108.360335 4.47636045,108.367391 C4.51879041,108.367391 4.55414871,108.374447 4.59657866,108.374447 C4.63900862,108.374447 4.67436692,108.381503 4.71679688,108.381503 L4.83701509,108.381503 Z" id="路径" fill="#1D9199" fill-rule="nonzero"></path>
                                        <path d="M10.0417565,11.2897399 C8.79007276,11.2897399 7.77882543,12.2987604 7.77882543,13.5476879 C7.77882543,14.7966153 8.79007276,15.8056358 10.0417565,15.8056358 L71.1408944,15.8056358 C72.3925781,15.8056358 73.4038258,14.7966153 73.4038258,13.5476879 C73.4038258,12.2987604 72.3925781,11.2897399 71.1408944,11.2897399 L10.0417565,11.2897399 Z M10.0417565,28.887622 C8.79007276,28.887622 7.77882543,29.8966424 7.77882543,31.1455699 C7.77882543,32.3944974 8.79007276,33.4035179 10.0417565,33.4035179 L71.1408944,33.4035179 C72.3925781,33.4035179 73.4038258,32.3944974 73.4038258,31.1455699 C73.4038258,29.8966424 72.3925781,28.887622 71.1408944,28.887622 L10.0417565,28.887622 Z M10.0417565,46.49256 C8.79007276,46.49256 7.77882543,47.5015806 7.77882543,48.750508 C7.77882543,49.9994355 8.79007276,51.008456 10.0417565,51.008456 L71.1408944,51.008456 C72.3925781,51.008456 73.4038258,49.9994355 73.4038258,48.750508 C73.4038258,47.5015806 72.3925781,46.49256 71.1408944,46.49256 L10.0417565,46.49256 Z" id="形状" fill="#FFFFFF" fill-rule="nonzero"></path>
                                        <path d="M14.0089574,78.2378974 L12.6299839,79.6914516 L14.0089574,81.1450051 C23.0960399,90.7342283 32.4023438,95.2783483 41.9137258,95.1513389 C51.3826778,95.0243295 60.8728448,90.2614704 70.3912985,81.2296785 L72.0107085,79.6914516 L70.3912985,78.153224 C60.8728448,69.1214324 51.3756061,64.3585734 41.9137258,64.2315639 C32.4023438,64.1045543 23.0960399,68.6486746 14.0089574,78.2378974 Z" id="路径" fill="#FFFFFE" fill-rule="nonzero"></path>
                                        <path d="M35.6835938,73.1504581 C34.0076104,74.8227514 32.9680765,77.1442038 32.9680765,79.6985072 C32.9680765,82.2528114 34.0076104,84.5672081 35.6835938,86.2465564 C37.3595771,87.9188497 39.686153,88.9560939 42.2460938,88.9560939 C44.8060345,88.9560939 47.1255388,87.9188497 48.8085938,86.2465564 C50.4845771,84.5742637 51.524111,82.2528114 51.524111,79.6985072 C51.524111,77.1442038 50.4845771,74.8298071 48.8085938,73.1504581 C47.1326104,71.4781657 44.8060345,70.4408496 42.2460938,70.4408496 C39.6790814,70.4338647 37.3595771,71.4711095 35.6835938,73.1504581 L35.6835938,73.1504581 Z" id="路径" fill="#26C6DA" fill-rule="nonzero"></path>
                                        <path d="M38.6749057,76.1351835 C37.7626616,77.0454184 37.1969289,78.3014025 37.1969289,79.6914516 C37.1969289,81.0815007 37.7626616,82.3374841 38.6749057,83.2477197 C39.5871497,84.1579545 40.8459052,84.7224415 42.2390221,84.7224415 C43.632139,84.7224415 44.8908944,84.1579545 45.8031385,83.2477197 C46.7153826,82.3374841 47.2811153,81.0815007 47.2811153,79.6914516 C47.2811153,78.3014025 46.7153826,77.0454184 45.8031385,76.1351835 C44.8908944,75.224948 43.632139,74.660461 42.2390221,74.660461 C40.8529768,74.660461 39.5871497,75.224948 38.6749057,76.1351835 Z" id="路径" fill="#424242" fill-rule="nonzero"></path>
                                        <path d="M43.7523572,76.8760723 C43.5472791,77.0806994 43.4199892,77.3629429 43.4199892,77.6804668 C43.4199892,77.9909342 43.5472791,78.2802341 43.7523572,78.4848605 C43.9574353,78.689487 44.2403017,78.8164964 44.5585264,78.8164964 C44.8696794,78.8164964 45.1596175,78.689487 45.3646956,78.4848605 C45.5697737,78.2802341 45.6970636,77.9979906 45.6970636,77.6804668 C45.6970636,77.3699986 45.5697737,77.0806994 45.3646956,76.8760723 C45.1596175,76.6714458 44.8767511,76.5444364 44.5585264,76.5444364 C44.2403017,76.5444364 43.9574353,76.6714458 43.7523572,76.8760723 Z" id="路径" fill="#E0F7FA" fill-rule="nonzero"></path>
                                    </g>
                                </g>
                            </g>
                        </g>
                        <g id="5715---View-Document备份-Clipped" transform="translate(10.137931, 14.450867)">
                            <mask id="mask-5" fill="white">
                                <use xlink:href="#path-4"></use>
                            </mask>
                            <g id="path-3"></g>
                            <g id="5715---View-Document备份" mask="url(#mask-5)">
                                <g transform="translate(-10.137931, -14.450867)" id="编组">
                                    <g transform="translate(59.915142, 69.214710) rotate(-17.000000) translate(-59.915142, -69.214710) translate(15.915142, 10.714710)">
                                        <path d="M5.64581218,116.957198 L82.5573094,116.957198 C82.6028686,116.957198 82.6408344,116.957198 82.6863935,116.949624 C82.7319527,116.949624 82.7699185,116.942051 82.8154776,116.942051 C82.8610375,116.942051 82.8990033,116.934476 82.9445624,116.926902 C82.9901216,116.919328 83.0280874,116.919328 83.0736466,116.911754 C83.1192057,116.90418 83.1571715,116.896606 83.2027314,116.896606 C83.2482905,116.889032 83.2862563,116.881458 83.3242222,116.873884 C83.362188,116.86631 83.4077471,116.858736 83.4457137,116.851162 C83.4836795,116.843588 83.5292387,116.836014 83.5672045,116.820866 C83.6051703,116.813292 83.6507294,116.798144 83.688696,116.79057 C83.7266618,116.782996 83.772221,116.767848 83.8101868,116.760274 C83.8481526,116.745126 83.8937118,116.737551 83.9316783,116.722403 C83.9696441,116.707256 84.00761,116.699681 84.0531691,116.684533 C84.0911349,116.669385 84.1291008,116.654237 84.1670673,116.646663 L84.2809648,116.601219 L84.394863,116.555775 C84.4328288,116.540627 84.4707947,116.525479 84.5087612,116.502757 C84.546727,116.487608 84.5846929,116.464887 84.6226587,116.449738 C84.6606252,116.43459 84.6985911,116.411868 84.7289636,116.39672 C84.7669294,116.381572 84.804896,116.35885 84.8352685,116.336128 C84.8732343,116.313406 84.9036076,116.298258 84.9415734,116.275536 C84.9795392,116.252814 85.0099117,116.237665 85.0478783,116.214944 C85.0858441,116.192222 85.1162166,116.169499 85.1541824,116.146777 C85.192149,116.124056 85.2225215,116.101333 85.252894,116.078611 C85.2832673,116.055889 85.3212331,116.033167 85.3516056,116.010445 C85.3819789,115.987723 85.4199447,115.965001 85.4503172,115.942279 C85.4806904,115.919556 85.5186563,115.896835 85.5490288,115.866538 C85.579402,115.843816 85.6097746,115.81352 85.6401471,115.790798 C85.6705203,115.768076 85.7008928,115.73778 85.7312661,115.715058 C85.7616386,115.692336 85.7920111,115.66204 85.8223843,115.631743 C85.8527569,115.601447 85.8831294,115.578725 85.9135026,115.548429 C85.9438751,115.518133 85.9742484,115.495411 85.9970276,115.465115 L86.0805526,115.381801 C86.1109258,115.351504 86.133705,115.321209 86.1640782,115.290913 C86.1944508,115.260616 86.2172307,115.23032 86.2476032,115.200024 C86.2779757,115.169728 86.3007557,115.139432 86.3235349,115.109136 C86.3463148,115.07884 86.3766873,115.048543 86.3994672,115.010673 C86.4222464,114.980377 86.4526197,114.950081 86.4753989,114.912211 C86.4981788,114.881915 86.520958,114.844045 86.543738,114.813749 C86.5665172,114.783452 86.5892971,114.745582 86.612077,114.715286 C86.6348562,114.684991 86.6576362,114.64712 86.6804154,114.616824 C86.7031953,114.578954 86.7259745,114.548658 86.7487544,114.510788 C86.7715337,114.472918 86.7943136,114.442621 86.8094995,114.404751 C86.8322794,114.366881 86.847466,114.336585 86.8702452,114.298715 C86.8930252,114.260845 86.9082111,114.230548 86.930991,114.192678 C86.9461776,114.154809 86.9689568,114.116939 86.9841434,114.086642 C86.9993301,114.048772 87.0221093,114.010902 87.0372959,113.973032 C87.0524818,113.935162 87.0676684,113.897291 87.0904483,113.859421 L87.1360075,113.745811 L87.1815666,113.632201 C87.1967532,113.59433 87.2119391,113.55646 87.2195324,113.51859 C87.2347191,113.48072 87.2423124,113.44285 87.2574983,113.397405 C87.2726849,113.359535 87.2802782,113.321665 87.2954641,113.276221 C87.3106507,113.238351 87.318244,113.192907 87.3258373,113.155037 C87.3334307,113.117167 87.3486166,113.071723 87.3562099,113.033853 C87.3638032,112.995982 87.3713965,112.950538 87.3865831,112.912668 C87.3941757,112.874798 87.401769,112.829353 87.4093623,112.791483 C87.4169556,112.753613 87.4245489,112.708169 87.4321422,112.670299 C87.4397356,112.624855 87.4473281,112.586985 87.4473281,112.54154 C87.4549214,112.496097 87.4549214,112.458226 87.4625148,112.412783 C87.4701081,112.367338 87.4701081,112.329468 87.4701081,112.284024 C87.4701081,112.238579 87.4777014,112.20071 87.4777014,112.155265 C87.4777014,112.109821 87.4777014,112.071951 87.4852947,112.026507 L87.4852947,5.67959454 L87.4852947,5.55083608 C87.4852947,5.50539191 87.4852947,5.46752178 87.4777014,5.42207762 C87.4777014,5.37663346 87.4701081,5.33876332 87.4701081,5.29331916 C87.4701081,5.247875 87.4625148,5.21000486 87.4625148,5.1645607 C87.4549214,5.11911654 87.4549214,5.08124641 87.4473281,5.03580225 C87.4397356,4.99035809 87.4397356,4.95248795 87.4321422,4.90704379 C87.4245489,4.86159962 87.4169556,4.82372949 87.4093623,4.78585936 C87.401769,4.74798922 87.3941757,4.70254506 87.3865831,4.66467493 C87.3789898,4.62680479 87.3713965,4.58136063 87.3562099,4.54349049 C87.3486166,4.50562036 87.3334307,4.4601762 87.3258373,4.42230606 C87.318244,4.38443592 87.3030574,4.33899177 87.2954641,4.30112163 C87.2802782,4.2632515 87.2726849,4.21780733 87.2574983,4.1799372 C87.2423124,4.14206707 87.2347191,4.10419693 87.2195324,4.05875277 C87.2043458,4.02088264 87.1891599,3.9830125 87.1815666,3.94514236 L87.1360075,3.83153197 L87.0904483,3.71792156 C87.0752617,3.68005142 87.0600751,3.64218129 87.0372959,3.60431116 C87.0221093,3.56644102 86.9993301,3.52857088 86.9841434,3.49070075 C86.9689568,3.45283061 86.9461776,3.41496048 86.930991,3.38466437 C86.9158044,3.34679423 86.8930252,3.3089241 86.8702452,3.278628 C86.847466,3.24075786 86.8322794,3.21046176 86.8094995,3.17259162 C86.7867203,3.13472148 86.7715337,3.10442538 86.7487544,3.06655524 C86.7259745,3.02868511 86.7031953,2.998389 86.6804154,2.96051887 C86.6576362,2.92264873 86.6348562,2.89235262 86.612077,2.86205651 C86.5892971,2.8317604 86.5665172,2.79389027 86.543738,2.76359416 C86.520958,2.73329806 86.4981788,2.69542792 86.4753989,2.66513181 C86.4526197,2.63483571 86.4298398,2.59696557 86.3994672,2.56666947 C86.3766873,2.53637335 86.3463148,2.50607725 86.3235349,2.46820711 C86.3007557,2.437911 86.2703831,2.4076149 86.2476032,2.37731879 C86.2248233,2.34702268 86.1944508,2.31672658 86.1640782,2.28643047 C86.133705,2.25613436 86.1109258,2.22583825 86.0805526,2.19554215 C86.05018,2.16524603 86.0274008,2.13494993 85.9970276,2.11222785 L85.9135026,2.02891355 C85.8831294,1.99861744 85.8527569,1.97589536 85.8223843,1.94559926 C85.7920111,1.91530314 85.7616386,1.89258106 85.7312661,1.86228496 C85.7008928,1.83198885 85.6705203,1.80926677 85.6401471,1.78654469 C85.6097746,1.76382261 85.579402,1.7335265 85.5490288,1.71080442 C85.5186563,1.68808234 85.4882838,1.65778623 85.4503172,1.63506415 C85.4199447,1.61234207 85.3819789,1.58961999 85.3516056,1.5668979 C85.3212331,1.54417582 85.2832673,1.52145374 85.252894,1.49873166 C85.2225215,1.47600958 85.1845557,1.4532875 85.1541824,1.43056542 C85.1162166,1.40784334 85.0858441,1.38512126 85.0478783,1.36239918 C85.0099117,1.3396771 84.9795392,1.31695501 84.9415734,1.30180697 C84.9036076,1.27908488 84.8732343,1.26393683 84.8352685,1.24121475 C84.7973027,1.21849267 84.7669294,1.20334462 84.7289636,1.18062254 C84.6909978,1.16547448 84.6530319,1.1427524 84.6226587,1.12760434 C84.5846929,1.11245629 84.546727,1.08973421 84.5087612,1.07458616 C84.4707947,1.0594381 84.4328288,1.04429005 84.394863,1.02156797 L84.2809648,0.976123808 L84.1670673,0.930679646 C84.1291008,0.91553159 84.0911349,0.900383533 84.0531691,0.892809509 C84.0152033,0.877661452 83.9772374,0.870087428 83.9316783,0.854939371 C83.8937118,0.839791322 83.8557459,0.83221729 83.8101868,0.817069241 C83.772221,0.80949521 83.7266618,0.79434716 83.688696,0.786773129 C83.6507294,0.779199104 83.6051703,0.764051048 83.5672045,0.756477023 C83.5292387,0.748902999 83.4836795,0.741328967 83.4457137,0.726180918 C83.4077471,0.718606889 83.362188,0.711032863 83.3242222,0.703458836 C83.2862563,0.695884809 83.2406972,0.688310782 83.2027314,0.680736755 C83.1571715,0.673162728 83.1192057,0.665588701 83.0736466,0.665588701 C83.0280874,0.658014674 82.9901216,0.658014674 82.9445624,0.650440647 C82.8990033,0.64286662 82.8610375,0.64286662 82.8154776,0.64286662 C82.7699185,0.64286662 82.7319527,0.635292593 82.6863935,0.635292593 C82.6408344,0.635292593 82.6028686,0.627718566 82.5573094,0.627718566 L5.51672782,0.627718566 C5.47116864,0.627718566 5.43320265,0.627718566 5.38764346,0.635292593 C5.34208428,0.635292593 5.3041183,0.64286662 5.25855911,0.64286662 C5.21299993,0.64286662 5.17503394,0.650440647 5.12947475,0.650440647 C5.08391557,0.658014674 5.04594958,0.658014674 5.00039039,0.665588701 C4.95483121,0.673162728 4.91686523,0.673162728 4.87130604,0.680736755 C4.82574686,0.688310782 4.78778087,0.695884809 4.74981488,0.703458836 C4.71184889,0.711032863 4.66628971,0.718606889 4.62832372,0.726180918 C4.59035773,0.733754942 4.54479854,0.741328967 4.50683256,0.756477023 C4.46886657,0.764051048 4.42330739,0.779199104 4.3853414,0.786773129 C4.34737541,0.79434716 4.30181623,0.80949521 4.26385024,0.817069241 C4.22588425,0.83221729 4.18032507,0.839791322 4.14235908,0.854939371 C4.1043931,0.870087428 4.06642711,0.877661452 4.02086792,0.892809509 C3.98290193,0.907957565 3.94493595,0.923105614 3.90696996,0.930679646 L3.793072,0.976123808 L3.67917404,1.02156797 C3.64120805,1.03671602 3.60324206,1.05186408 3.56527607,1.07458616 C3.52731008,1.08973421 3.4893441,1.11245629 3.45137811,1.12760434 C3.41341212,1.1427524 3.37544614,1.16547448 3.34507334,1.18062254 C3.30710736,1.19577059 3.26914137,1.21849267 3.23876859,1.24121475 C3.2008026,1.26393683 3.17042981,1.27908488 3.13246382,1.30180697 C3.09449783,1.32452905 3.06412504,1.3396771 3.02615905,1.36239918 C2.98819307,1.38512126 2.95782028,1.40784334 2.91985429,1.43056542 C2.8818883,1.4532875 2.85151552,1.47600958 2.82114272,1.49873166 C2.79076993,1.52145374 2.75280394,1.54417582 2.72243116,1.5668979 C2.69205837,1.58961999 2.65409238,1.61234207 2.62371959,1.63506415 C2.5933468,1.65778623 2.55538081,1.68050831 2.52500802,1.71080442 C2.49463523,1.7335265 2.46426244,1.76382261 2.43388965,1.78654469 C2.40351687,1.80926677 2.37314407,1.83956288 2.34277128,1.86228496 C2.3123985,1.88500704 2.2820257,1.91530314 2.25165291,1.94559926 C2.22128013,1.97589536 2.19090733,1.99861744 2.16053454,2.02891355 C2.13016176,2.05920966 2.09978896,2.08193174 2.07700937,2.11222785 L1.9934842,2.19554215 C1.96311141,2.22583825 1.94033182,2.25613436 1.90995903,2.28643047 C1.87958624,2.31672658 1.85680665,2.34702268 1.82643385,2.37731879 C1.79606107,2.4076149 1.77328147,2.437911 1.75050188,2.46820711 C1.72772229,2.49850322 1.6973495,2.52879933 1.67456991,2.56666947 C1.65179032,2.59696557 1.62141752,2.62726168 1.59863793,2.66513181 C1.57585834,2.69542792 1.55307874,2.73329806 1.53029915,2.76359416 C1.50751956,2.79389027 1.48473997,2.8317604 1.46196038,2.86205651 C1.43918078,2.89235262 1.41640119,2.93022275 1.3936216,2.96051887 C1.37084201,2.998389 1.34806241,3.02868511 1.32528282,3.06655524 C1.30250323,3.10442538 1.27972364,3.13472148 1.26453725,3.17259162 C1.24175765,3.21046176 1.22657126,3.24075786 1.20379167,3.278628 C1.18101207,3.31649813 1.16582568,3.34679423 1.14304608,3.38466437 C1.12785969,3.42253451 1.1050801,3.46040464 1.0898937,3.49070075 C1.07470731,3.52857088 1.05192771,3.56644102 1.03674132,3.60431116 C1.02155493,3.64218129 1.00636853,3.68005142 0.983588941,3.71792156 L0.938029752,3.83153197 L0.892470571,3.94514236 C0.877284175,3.9830125 0.862097779,4.02088264 0.854504584,4.05875277 C0.839318188,4.0966229 0.831724986,4.13449304 0.816538597,4.1799372 C0.801352201,4.21780733 0.793758999,4.25567747 0.77857261,4.30112163 C0.770979409,4.33899177 0.755793012,4.38443592 0.748199818,4.42230606 C0.740606616,4.4601762 0.725420227,4.50562036 0.717827028,4.54349049 C0.71023383,4.58136063 0.702640632,4.62680479 0.687454237,4.66467493 C0.67986104,4.70254506 0.672267843,4.74798922 0.664674645,4.78585936 C0.657081448,4.82372949 0.649488251,4.86917366 0.641895052,4.90704379 C0.634301855,4.95248795 0.626708658,4.99035809 0.626708658,5.03580225 C0.61911546,5.08124641 0.61911546,5.11911654 0.611522263,5.1645607 C0.603929066,5.21000486 0.603929066,5.247875 0.603929066,5.29331916 C0.603929066,5.33876332 0.596335868,5.37663346 0.596335868,5.42207762 C0.596335868,5.46752178 0.596335868,5.50539191 0.588742671,5.55083608 L0.588742671,112.026507 C0.588742671,112.071951 0.588742671,112.109821 0.596335868,112.155265 C0.596335868,112.20071 0.603929066,112.238579 0.603929066,112.284024 C0.603929066,112.329468 0.611522263,112.367338 0.611522263,112.412783 C0.61911546,112.458226 0.61911546,112.496097 0.626708658,112.54154 C0.634301855,112.586985 0.634301855,112.624855 0.641895052,112.670299 C0.649488251,112.715743 0.657081448,112.753613 0.664674645,112.791483 C0.672267843,112.829353 0.67986104,112.874798 0.687454237,112.912668 C0.695047435,112.950538 0.702640632,112.995982 0.717827028,113.033853 C0.725420227,113.071723 0.740606616,113.117167 0.748199818,113.155037 C0.755793012,113.192907 0.770979409,113.238351 0.77857261,113.276221 C0.793758999,113.314091 0.801352201,113.359535 0.816538597,113.397405 C0.831724986,113.435276 0.839318188,113.473146 0.854504584,113.51859 C0.869690973,113.55646 0.884877369,113.59433 0.892470571,113.632201 L0.938029752,113.745811 L0.983588941,113.859421 C0.99877533,113.897291 1.01396173,113.935162 1.03674132,113.973032 C1.05192771,114.010902 1.07470731,114.048772 1.0898937,114.086642 C1.1050801,114.124512 1.12785969,114.162382 1.14304608,114.192678 C1.15823248,114.230548 1.18101207,114.268419 1.20379167,114.298715 C1.22657126,114.336585 1.24175765,114.366881 1.26453725,114.404751 C1.28731684,114.442621 1.30250323,114.472918 1.32528282,114.510788 C1.34806241,114.548658 1.37084201,114.578954 1.3936216,114.616824 C1.41640119,114.654694 1.43918078,114.684991 1.46196038,114.715286 C1.48473997,114.745582 1.50751956,114.783452 1.53029915,114.813749 C1.55307874,114.844045 1.57585834,114.881915 1.59863793,114.912211 C1.62141752,114.942507 1.64419711,114.980377 1.67456991,115.010673 C1.6973495,115.04097 1.72772229,115.071266 1.75050188,115.109136 C1.77328147,115.139432 1.80365426,115.169728 1.82643385,115.200024 C1.84921345,115.23032 1.87958624,115.260616 1.90995903,115.290913 C1.94033182,115.321209 1.96311141,115.351504 1.9934842,115.381801 C2.02385699,115.412097 2.04663658,115.442393 2.07700937,115.465115 L2.16053454,115.548429 C2.19090733,115.578725 2.22128013,115.601447 2.25165291,115.631743 C2.2820257,115.66204 2.3123985,115.684762 2.34277128,115.715058 C2.37314407,115.745354 2.40351687,115.768076 2.43388965,115.790798 C2.46426244,115.81352 2.49463523,115.843816 2.52500802,115.866538 C2.55538081,115.889261 2.5857536,115.919556 2.62371959,115.942279 C2.65409238,115.965001 2.69205837,115.987723 2.72243116,116.010445 C2.75280394,116.033167 2.79076993,116.055889 2.82114272,116.078611 C2.85151552,116.101333 2.8894815,116.124056 2.91985429,116.146777 C2.95782028,116.169499 2.98819307,116.192222 3.02615905,116.214944 C3.06412504,116.237665 3.09449783,116.260388 3.13246382,116.275536 C3.17042981,116.298258 3.2008026,116.313406 3.23876859,116.336128 C3.27673457,116.35885 3.30710736,116.373999 3.34507334,116.39672 C3.38303934,116.411868 3.42100533,116.43459 3.45137811,116.449738 C3.4893441,116.464887 3.52731008,116.487608 3.56527607,116.502757 C3.60324206,116.517905 3.64120805,116.533053 3.67917404,116.555775 L3.793072,116.601219 L3.90696996,116.646663 C3.94493595,116.661811 3.98290193,116.67696 4.02086792,116.684533 C4.05883391,116.699681 4.0967999,116.707256 4.14235908,116.722403 C4.18032507,116.737551 4.21829106,116.745126 4.26385024,116.760274 C4.30181623,116.775422 4.34737541,116.782996 4.3853414,116.79057 C4.42330739,116.798144 4.46886657,116.813292 4.50683256,116.820866 C4.54479854,116.82844 4.59035773,116.836014 4.62832372,116.851162 C4.66628971,116.858736 4.71184889,116.86631 4.74981488,116.873884 C4.78778087,116.881458 4.83334005,116.889032 4.87130604,116.896606 C4.91686523,116.90418 4.95483121,116.911754 5.00039039,116.911754 C5.04594958,116.919328 5.08391557,116.919328 5.12947475,116.926902 C5.17503394,116.934476 5.21299993,116.934476 5.25855911,116.942051 C5.3041183,116.942051 5.34208428,116.949624 5.38764346,116.949624 C5.43320265,116.949624 5.47116864,116.957198 5.51672782,116.957198 L5.64581218,116.957198 Z" id="路径" fill="#40B8C1" fill-rule="nonzero"></path>
                                        <path d="M11.7464038,12.6684786 C10.4066706,12.6684786 9.32428727,13.7514592 9.32428727,15.0919319 C9.32428727,16.4324045 10.4066706,17.5153851 11.7464038,17.5153851 L77.14355,17.5153851 C78.4832833,17.5153851 79.5656668,16.4324045 79.5656668,15.0919319 C79.5656668,13.7514592 78.4832833,12.6684786 77.14355,12.6684786 L11.7464038,12.6684786 Z M11.7464038,31.5562676 C10.4066706,31.5562676 9.32428727,32.6392483 9.32428727,33.9797208 C9.32428727,35.3201934 10.4066706,36.4031741 11.7464038,36.4031741 L77.14355,36.4031741 C78.4832833,36.4031741 79.5656668,35.3201934 79.5656668,33.9797208 C79.5656668,32.6392483 78.4832833,31.5562676 77.14355,31.5562676 L11.7464038,31.5562676 Z M11.7464038,50.4516298 C10.4066706,50.4516298 9.32428727,51.5346105 9.32428727,52.8750831 C9.32428727,54.2155557 10.4066706,55.2985364 11.7464038,55.2985364 L77.14355,55.2985364 C78.4832833,55.2985364 79.5656668,54.2155557 79.5656668,52.8750831 C79.5656668,51.5346105 78.4832833,50.4516298 77.14355,50.4516298 L11.7464038,50.4516298 Z" id="形状" fill="#FFFFFF" fill-rule="nonzero"></path>
                                        <path d="M15.833771,84.7172428 L14.3539321,86.2794689 L15.833771,87.8416951 C25.5855296,98.1478367 35.5725446,103.031689 45.7796383,102.895184 C55.9411985,102.758678 66.1255254,97.6397341 76.340208,87.9326987 L78.0780702,86.2794689 L76.340208,84.6262399 C66.1255254,74.9192045 55.9336096,69.8002598 45.7796383,69.6637547 C35.5725446,69.5272495 25.5855296,74.4111019 15.833771,84.7172428 Z" id="路径" fill="#FFFFFE" fill-rule="nonzero"></path>
                                        <path d="M47.1346293,78.0637421 C47.2751474,77.4068909 47.8901854,76.9954487 48.5083552,77.1447594 C49.126525,77.2940701 49.5137382,77.9475932 49.3732201,78.6044436 L49.3732201,78.6044436 L45.8763164,94.9506908 C45.7357983,95.6075412 45.1207603,96.0189834 44.5025905,95.8696727 C43.8844207,95.720362 43.4972075,95.0668389 43.6377256,94.4099884 L43.6377256,94.4099884 L47.1346293,78.0637421 Z M38.7898306,79.2689357 C39.3091363,78.8445723 40.0688396,78.9281149 40.4866754,79.455534 C40.9045112,79.982953 40.8222537,80.7545253 40.302948,81.1788895 L40.302948,81.1788895 L33.6619869,86.6057211 L40.5270756,90.4255592 C41.1116302,90.7508143 41.3258902,91.4957645 41.0056386,92.0894523 C40.6853871,92.6831395 39.9518968,92.9007471 39.3673422,92.5754921 L39.3673422,92.5754921 L30.9192991,87.8748736 C30.1652662,87.4553186 30.0727406,86.3923288 30.742607,85.8449306 L30.742607,85.8449306 L38.7898306,79.2689357 Z M51.7866662,79.2461445 C52.1532681,78.6807854 52.901728,78.5242991 53.4583981,78.8966236 L53.4583981,78.8966236 L61.9065687,84.5471163 C62.6225548,85.0259978 62.6324001,86.0891293 61.9254095,86.5816033 L61.9254095,86.5816033 L53.8485871,92.2077406 C53.2989109,92.5906329 52.5476854,92.4484725 52.1706779,91.890216 C51.7936705,91.3319595 51.9336462,90.5690072 52.4833225,90.1861149 L52.4833225,90.1861149 L59.079366,85.5914559 L52.1308152,80.9439718 C51.5741451,80.5716474 51.4200644,79.8115043 51.7866662,79.2461445 Z" id="Code" fill="#00CBCF" fill-rule="nonzero"></path>
                                    </g>
                                </g>
                            </g>
                        </g>
                        <g id="5715---View-Document备份-3" transform="translate(78.162329, 51.881373) rotate(10.000000) translate(-78.162329, -51.881373) translate(37.162329, 7.381373)" fill-rule="nonzero">
                            <path d="M4.83701509,54.1978075 L76.4658539,54.1978075 C76.508284,54.1978075 76.5436422,54.1978075 76.5860724,54.1942793 C76.6285025,54.1942793 76.6638607,54.190751 76.7062901,54.190751 C76.7487203,54.190751 76.7840785,54.1872227 76.8265086,54.1836944 C76.8689388,54.1801662 76.904297,54.1801662 76.9467271,54.1766379 C76.9891565,54.1731096 77.0245154,54.1695814 77.0669449,54.1695814 C77.109375,54.1660531 77.1447332,54.1625248 77.1800914,54.1589965 C77.2154496,54.1554683 77.2578798,54.15194 77.293238,54.1484117 C77.3285962,54.1448835 77.3710263,54.1413551 77.4063845,54.1342986 C77.4417427,54.1307703 77.4841729,54.1237138 77.5195311,54.1201855 C77.5548893,54.1166572 77.5973194,54.1096007 77.6326776,54.1060724 C77.6680358,54.0990159 77.710466,54.0954876 77.7458242,54.0884311 C77.7811824,54.0813745 77.8165413,54.0778462 77.8589707,54.0707897 C77.8943289,54.0637332 77.9296879,54.0566766 77.9650461,54.0531483 L78.0711207,54.0319787 L78.1771953,54.010809 C78.2125542,54.0037525 78.2479124,53.996696 78.2832707,53.9861111 C78.3186289,53.9790546 78.3539871,53.9684697 78.3893453,53.9614132 C78.4247035,53.9543566 78.4600617,53.9437718 78.4883487,53.9367153 C78.5237069,53.9296587 78.5590651,53.9190739 78.5873521,53.9084891 C78.6227103,53.8979043 78.6509966,53.8908478 78.6863548,53.8802629 C78.7217137,53.8696781 78.75,53.8626215 78.7853582,53.8520367 C78.8207164,53.841452 78.8490034,53.8308671 78.8843616,53.8202823 C78.9197198,53.8096975 78.9480068,53.7991126 78.9762931,53.7885278 C79.0045801,53.777943 79.0399383,53.7673582 79.0682246,53.7567733 C79.0965116,53.7461885 79.1318698,53.7356037 79.1601561,53.7250189 C79.1884431,53.7144341 79.2238013,53.7038493 79.2520876,53.6897361 C79.2803746,53.6791514 79.3086608,53.6650382 79.3369478,53.6544534 C79.3652341,53.6438686 79.3935211,53.6297555 79.4218074,53.6191707 C79.4500944,53.6085858 79.4783807,53.5944728 79.5066677,53.5803597 C79.5349539,53.5662466 79.5632409,53.5556618 79.5915272,53.5415487 C79.6198142,53.5274355 79.6481005,53.5168508 79.6693156,53.5027376 L79.7471039,53.4639267 C79.7753909,53.4498136 79.796606,53.4357005 79.8248922,53.4215874 C79.8531792,53.4074743 79.8743936,53.3933612 79.9026806,53.3792481 C79.9309669,53.365135 79.9521819,53.3510219 79.973397,53.3369088 C79.9946121,53.3227957 80.0228991,53.3086827 80.0441134,53.2910413 C80.0653285,53.2769282 80.0936155,53.2628151 80.1148306,53.2451737 C80.1360456,53.2310606 80.15726,53.2134192 80.178475,53.1993061 C80.1996901,53.1851931 80.2209052,53.1675517 80.2421202,53.1534386 C80.2633353,53.1393255 80.2845504,53.1216841 80.3057654,53.107571 C80.3269798,53.0899297 80.3481949,53.0758166 80.3694099,53.0581752 C80.390625,53.0405338 80.4118401,53.0264207 80.4259832,53.0087794 C80.4471983,52.991138 80.4613414,52.9770249 80.4825565,52.9593836 C80.5037716,52.9417422 80.5179147,52.9276291 80.5391298,52.9099877 C80.5532729,52.8923464 80.574488,52.874705 80.5886318,52.8605919 C80.602775,52.8429505 80.62399,52.8253092 80.6381332,52.8076678 C80.6522763,52.7900264 80.6664194,52.772385 80.6876345,52.7547437 L80.7300647,52.7018196 L80.7724948,52.6488955 C80.7866379,52.6312541 80.8007811,52.6136128 80.807853,52.5959714 C80.8219961,52.5783301 80.8290681,52.5606887 80.8432112,52.539519 C80.8573543,52.5218777 80.8644263,52.5042363 80.8785694,52.4830666 C80.8927126,52.4654253 80.8997845,52.4442556 80.9068564,52.4266143 C80.9139276,52.4089729 80.9280715,52.3878033 80.9351427,52.3701619 C80.9422146,52.3525205 80.9492858,52.3313509 80.9634297,52.3137095 C80.9705009,52.2960681 80.9775728,52.2748986 80.9846448,52.2572572 C80.991716,52.2396158 80.9987879,52.2184462 81.0058591,52.2008048 C81.012931,52.1796351 81.020003,52.1619938 81.020003,52.1408241 C81.0270742,52.1196545 81.0270742,52.1020132 81.0341461,52.0808435 C81.041218,52.0596738 81.041218,52.0420324 81.041218,52.0208629 C81.041218,51.9996932 81.0482892,51.9820518 81.0482892,51.9608822 C81.0482892,51.9397126 81.0482892,51.9220712 81.0553612,51.9009015 L81.0553612,2.36041446 L81.0553612,2.30043381 C81.0553612,2.27926417 81.0553612,2.2616228 81.0482892,2.24045316 C81.0482892,2.21928352 81.041218,2.20164215 81.041218,2.18047251 C81.041218,2.15930288 81.0341461,2.1416615 81.0341461,2.12049186 C81.0270742,2.09932223 81.0270742,2.08168086 81.020003,2.06051121 C81.012931,2.03934158 81.012931,2.02170021 81.0058591,2.00053057 C80.9987879,1.97936093 80.991716,1.96171956 80.9846448,1.94407819 C80.9775728,1.92643683 80.9705009,1.90526719 80.9634297,1.88762582 C80.9563578,1.86998445 80.9492858,1.84881481 80.9351427,1.83117345 C80.9280715,1.81353208 80.9139276,1.79236243 80.9068564,1.77472107 C80.8997845,1.7570797 80.8856413,1.73591007 80.8785694,1.71826869 C80.8644263,1.70062733 80.8573543,1.67945769 80.8432112,1.66181632 C80.8290681,1.64417496 80.8219961,1.62653358 80.807853,1.60536395 C80.7937099,1.58772258 80.779566,1.57008121 80.7724948,1.55243985 L80.7300647,1.49951574 L80.6876345,1.44659164 C80.6734914,1.42895027 80.6593482,1.41130891 80.6381332,1.39366754 C80.62399,1.37602617 80.602775,1.3583848 80.5886318,1.34074344 C80.574488,1.32310207 80.5532729,1.30546071 80.5391298,1.29134762 C80.5249866,1.27370624 80.5037716,1.25606488 80.4825565,1.24195178 C80.4613414,1.22431042 80.4471983,1.21019733 80.4259832,1.19255595 C80.4047681,1.17491459 80.390625,1.1608015 80.3694099,1.14316013 C80.3481949,1.12551876 80.3269798,1.11140566 80.3057654,1.0937643 C80.2845504,1.07612293 80.2633353,1.06200984 80.2421202,1.04789675 C80.2209052,1.03378365 80.1996901,1.01614228 80.178475,1.00202919 C80.15726,0.987916098 80.1360456,0.970274733 80.1148306,0.95616164 C80.0936155,0.94204854 80.0724004,0.924407175 80.0441134,0.910294082 C80.0228991,0.89618099 79.9946121,0.882067897 79.973397,0.864426532 C79.9521819,0.850313432 79.9238957,0.83620034 79.9026806,0.822087247 C79.8814655,0.807974155 79.8531792,0.793861062 79.8248922,0.77974797 C79.796606,0.76563487 79.7753909,0.751521777 79.7471039,0.737408685 C79.7188176,0.723295592 79.6976026,0.709182498 79.6693156,0.698597678 L79.5915272,0.65978667 C79.5632409,0.645673577 79.5349539,0.635088756 79.5066677,0.620975663 C79.4783807,0.606862569 79.4500944,0.596277749 79.4218074,0.582164655 C79.3935211,0.568051561 79.3652341,0.557466741 79.3369478,0.546881921 C79.3086608,0.5362971 79.2803746,0.522184007 79.2520876,0.511599186 C79.2238013,0.501014366 79.1955143,0.486901272 79.1601561,0.476316452 C79.1318698,0.465731632 79.0965116,0.455146811 79.0682246,0.444561991 C79.0399383,0.433977171 79.0045801,0.423392351 78.9762931,0.41280753 C78.9480068,0.40222271 78.9126479,0.39163789 78.8843616,0.38105307 C78.8490034,0.370468249 78.8207164,0.359883429 78.7853582,0.349298609 C78.75,0.338713789 78.7217137,0.328128969 78.6863548,0.321072422 C78.6509966,0.310487601 78.6227103,0.303431055 78.5873521,0.292846234 C78.5519939,0.282261414 78.5237069,0.275204867 78.4883487,0.264620047 C78.4529905,0.2575635 78.4176323,0.24697868 78.3893453,0.239922133 C78.3539871,0.232865586 78.3186289,0.222280766 78.2832707,0.215224219 C78.2479124,0.208167672 78.2125542,0.201111126 78.1771953,0.190526305 L78.0711207,0.169356665 L77.9650461,0.148187024 C77.9296879,0.141130478 77.8943289,0.134073931 77.8589707,0.130545657 C77.8236125,0.123489111 77.7882543,0.119960837 77.7458242,0.11290429 C77.710466,0.105847743 77.6751078,0.10231947 77.6326776,0.0952629227 C77.5973194,0.0917346496 77.5548893,0.0846781026 77.5195311,0.0811498295 C77.4841729,0.0776215556 77.4417427,0.070565009 77.4063845,0.0670367355 C77.3710263,0.0635084621 77.3285962,0.0599801887 77.293238,0.0529236419 C77.2578798,0.0493953684 77.2154496,0.045867095 77.1800914,0.0423388216 C77.1447332,0.0388105482 77.1023031,0.0352822748 77.0669449,0.0317540014 C77.0245154,0.028225728 76.9891565,0.0246974546 76.9467271,0.0246974546 C76.904297,0.0211691811 76.8689388,0.0211691811 76.8265086,0.0176409077 C76.7840785,0.0141126342 76.7487203,0.0141126342 76.7062901,0.0141126342 C76.6638607,0.0141126342 76.6285025,0.0105843608 76.5860724,0.0105843608 C76.5436422,0.0105843608 76.508284,0.00705608743 76.4658539,0.00705608743 L4.71679688,0.00705608743 C4.67436692,0.00705608743 4.63900862,0.00705608743 4.59657866,0.0105843608 C4.55414871,0.0105843608 4.51879041,0.0141126342 4.47636046,0.0141126342 C4.4339305,0.0141126342 4.3985722,0.0176409077 4.35614224,0.0176409077 C4.31371228,0.0211691811 4.27835399,0.0211691811 4.23592403,0.0246974546 C4.19349408,0.028225728 4.15813578,0.028225728 4.11570582,0.0317540014 C4.07327586,0.0352822748 4.03791757,0.0388105482 4.00255927,0.0423388216 C3.96720097,0.045867095 3.92477102,0.0493953684 3.88941272,0.0529236419 C3.85405442,0.0564519153 3.81162446,0.0599801887 3.77626616,0.0670367355 C3.74090787,0.070565009 3.69847791,0.0776215556 3.66311961,0.0811498295 C3.62776132,0.0846781026 3.58533136,0.0917346496 3.54997306,0.0952629227 C3.51461477,0.10231947 3.47218481,0.105847743 3.43682651,0.11290429 C3.40146821,0.119960837 3.36610991,0.123489111 3.32367996,0.130545657 C3.28832166,0.137602204 3.25296336,0.144658751 3.21760507,0.148187024 L3.11153017,0.169356665 L3.00545528,0.190526305 C2.97009698,0.197582852 2.93473869,0.204639399 2.89938039,0.215224219 C2.86402209,0.222280766 2.82866379,0.232865586 2.7933055,0.239922133 C2.7579472,0.24697868 2.7225889,0.2575635 2.69430227,0.264620047 C2.65894397,0.271676594 2.62358567,0.282261414 2.59529903,0.292846234 C2.55994073,0.303431055 2.53165409,0.310487601 2.4962958,0.321072422 C2.4609375,0.331657242 2.43265086,0.338713789 2.39729257,0.349298609 C2.36193427,0.359883429 2.33364763,0.370468249 2.29828934,0.38105307 C2.26293103,0.39163789 2.2346444,0.40222271 2.20635776,0.41280753 C2.17807112,0.423392351 2.14271283,0.433977171 2.11442619,0.444561991 C2.08613955,0.455146811 2.05078125,0.465731632 2.02249461,0.476316452 C1.99420797,0.486901272 1.95884968,0.497486092 1.93056304,0.511599186 C1.9022764,0.522184007 1.87398977,0.5362971 1.84570313,0.546881921 C1.81741649,0.557466741 1.78912985,0.571579835 1.76084321,0.582164655 C1.73255658,0.592749475 1.70426994,0.606862569 1.6759833,0.620975663 C1.64769666,0.635088756 1.61941003,0.645673577 1.59112339,0.65978667 C1.56283675,0.673899764 1.53455011,0.684484584 1.51333513,0.698597678 L1.43554688,0.737408685 C1.40726024,0.751521777 1.38604526,0.76563487 1.35775862,0.77974797 C1.32947198,0.793861062 1.30825701,0.807974155 1.27997037,0.822087247 C1.25168373,0.83620034 1.23046875,0.850313432 1.20925378,0.864426532 C1.18803879,0.878539624 1.15975216,0.892652717 1.13853718,0.910294082 C1.1173222,0.924407175 1.08903556,0.938520267 1.06782059,0.95616164 C1.0466056,0.970274733 1.02539063,0.987916098 1.00417565,1.00202919 C0.982960672,1.01614228 0.96174569,1.03378365 0.940530715,1.04789675 C0.919315733,1.06200984 0.898100758,1.07965121 0.876885776,1.0937643 C0.855670801,1.11140566 0.834455819,1.12551876 0.813240844,1.14316013 C0.792025862,1.1608015 0.770810887,1.17491459 0.756667568,1.19255595 C0.735452586,1.21019733 0.721309267,1.22431042 0.700094289,1.24195178 C0.67887931,1.25959315 0.664735991,1.27370624 0.643521013,1.29134762 C0.629377694,1.30898898 0.608162716,1.32663035 0.594019397,1.34074344 C0.579876078,1.3583848 0.558661099,1.37602617 0.54451778,1.39366754 C0.530374461,1.41130891 0.516231142,1.42895027 0.495016164,1.44659164 L0.452586207,1.49951574 L0.41015625,1.55243985 C0.396012931,1.57008121 0.381869612,1.58772258 0.374797953,1.60536395 C0.360654634,1.62300531 0.353582974,1.64064668 0.339439655,1.66181632 C0.325296336,1.67945769 0.318224677,1.69709905 0.304081358,1.71826869 C0.297009698,1.73591007 0.282866379,1.7570797 0.27579472,1.77472107 C0.26872306,1.79236243 0.254579741,1.81353208 0.247508082,1.83117345 C0.240436422,1.84881481 0.233364763,1.86998445 0.219221444,1.88762582 C0.212149784,1.90526719 0.205078125,1.92643683 0.198006466,1.94407819 C0.190934806,1.96171956 0.183863147,1.98288921 0.176791487,2.00053057 C0.169719828,2.02170021 0.162648168,2.03934158 0.162648168,2.06051121 C0.155576509,2.08168086 0.155576509,2.09932223 0.148504849,2.12049186 C0.14143319,2.1416615 0.14143319,2.15930288 0.14143319,2.18047251 C0.14143319,2.20164215 0.13436153,2.21928352 0.13436153,2.24045316 C0.13436153,2.2616228 0.13436153,2.27926417 0.127289871,2.30043381 L0.127289871,51.9009015 C0.127289871,51.9220712 0.127289871,51.9397126 0.13436153,51.9608822 C0.13436153,51.9820518 0.14143319,51.9996932 0.14143319,52.0208629 C0.14143319,52.0420324 0.148504849,52.0596738 0.148504849,52.0808435 C0.155576509,52.1020132 0.155576509,52.1196545 0.162648168,52.1408241 C0.169719828,52.1619938 0.169719828,52.1796351 0.176791487,52.2008048 C0.183863147,52.2219744 0.190934806,52.2396158 0.198006466,52.2572572 C0.205078125,52.2748986 0.212149784,52.2960681 0.219221444,52.3137095 C0.226293103,52.3313509 0.233364763,52.3525205 0.247508082,52.3701619 C0.254579741,52.3878033 0.26872306,52.4089729 0.27579472,52.4266143 C0.282866379,52.4442556 0.297009698,52.4654253 0.304081358,52.4830666 C0.318224677,52.500708 0.325296336,52.5218777 0.339439655,52.539519 C0.353582974,52.5571604 0.360654634,52.5748017 0.374797953,52.5959714 C0.388941272,52.6136128 0.403084591,52.6312541 0.41015625,52.6488955 L0.452586207,52.7018196 L0.495016164,52.7547437 C0.509159483,52.772385 0.523302802,52.7900264 0.54451778,52.8076678 C0.558661099,52.8253092 0.579876078,52.8429505 0.594019397,52.8605919 C0.608162716,52.8782333 0.629377694,52.8958746 0.643521013,52.9099877 C0.657664332,52.9276291 0.67887931,52.9452704 0.700094289,52.9593836 C0.721309267,52.9770249 0.735452586,52.991138 0.756667568,53.0087794 C0.777882543,53.0264207 0.792025862,53.0405338 0.813240844,53.0581752 C0.834455819,53.0758166 0.855670801,53.0899297 0.876885776,53.107571 C0.898100758,53.1252124 0.919315733,53.1393255 0.940530715,53.1534386 C0.96174569,53.1675517 0.982960672,53.1851931 1.00417565,53.1993061 C1.02539063,53.2134192 1.0466056,53.2310606 1.06782059,53.2451737 C1.08903556,53.2592868 1.11025054,53.2769282 1.13853718,53.2910413 C1.15975216,53.3051543 1.18803879,53.3192675 1.20925378,53.3369088 C1.23046875,53.3510219 1.25875539,53.365135 1.27997037,53.3792481 C1.30118534,53.3933612 1.32947198,53.4074743 1.35775862,53.4215874 C1.38604526,53.4357005 1.40726024,53.4498136 1.43554688,53.4639267 C1.46383352,53.4780397 1.48504849,53.4921528 1.51333513,53.5027376 L1.59112339,53.5415487 C1.61941003,53.5556618 1.64769666,53.5662466 1.6759833,53.5803597 C1.70426994,53.5944728 1.73255658,53.6050576 1.76084321,53.6191707 C1.78912985,53.6332838 1.81741649,53.6438686 1.84570313,53.6544534 C1.87398977,53.6650382 1.9022764,53.6791514 1.93056304,53.6897361 C1.95884968,53.700321 1.98713632,53.7144341 2.02249461,53.7250189 C2.05078125,53.7356037 2.08613955,53.7461885 2.11442619,53.7567733 C2.14271283,53.7673582 2.17807112,53.777943 2.20635776,53.7885278 C2.2346444,53.7991126 2.2700027,53.8096975 2.29828934,53.8202823 C2.33364763,53.8308671 2.36193427,53.841452 2.39729257,53.8520367 C2.43265086,53.8626215 2.4609375,53.8732064 2.4962958,53.8802629 C2.53165409,53.8908478 2.55994073,53.8979043 2.59529903,53.9084891 C2.63065733,53.9190739 2.65894397,53.9261305 2.69430227,53.9367153 C2.72966056,53.9437718 2.76501886,53.9543566 2.7933055,53.9614132 C2.82866379,53.9684697 2.86402209,53.9790546 2.89938039,53.9861111 C2.93473869,53.9931677 2.97009698,54.0002242 3.00545528,54.010809 L3.11153017,54.0319787 L3.21760507,54.0531483 C3.25296336,54.0602048 3.28832166,54.0672614 3.32367996,54.0707897 C3.35903826,54.0778462 3.39439655,54.0813745 3.43682651,54.0884311 C3.47218481,54.0954876 3.5075431,54.0990159 3.54997306,54.1060724 C3.58533136,54.113129 3.62776132,54.1166572 3.66311961,54.1201855 C3.69847791,54.1237138 3.74090787,54.1307703 3.77626616,54.1342986 C3.81162446,54.1378269 3.85405442,54.1413551 3.88941272,54.1484117 C3.92477102,54.15194 3.96720097,54.1554683 4.00255927,54.1589965 C4.03791757,54.1625248 4.08034753,54.1660531 4.11570582,54.1695814 C4.15813578,54.1731096 4.19349408,54.1766379 4.23592403,54.1766379 C4.27835399,54.1801662 4.31371228,54.1801662 4.35614224,54.1836944 C4.3985722,54.1872227 4.4339305,54.1872227 4.47636046,54.190751 C4.51879041,54.190751 4.55414871,54.1942793 4.59657866,54.1942793 C4.63900862,54.1942793 4.67436692,54.1978075 4.71679688,54.1978075 L4.83701509,54.1978075 Z" id="路径" fill="#1D9199"></path>
                            <path d="M10.0417565,11.2897399 C8.79007276,11.2897399 7.77882543,12.2987604 7.77882543,13.5476879 C7.77882543,14.7966153 8.79007276,15.8056358 10.0417565,15.8056358 L71.1408944,15.8056358 C72.3925781,15.8056358 73.4038258,14.7966153 73.4038258,13.5476879 C73.4038258,12.2987604 72.3925781,11.2897399 71.1408944,11.2897399 L10.0417565,11.2897399 Z M10.0417565,28.887622 C8.79007276,28.887622 7.77882543,29.8966424 7.77882543,31.1455699 C7.77882543,32.3944974 8.79007276,33.4035179 10.0417565,33.4035179 L71.1408944,33.4035179 C72.3925781,33.4035179 73.4038258,32.3944974 73.4038258,31.1455699 C73.4038258,29.8966424 72.3925781,28.887622 71.1408944,28.887622 L10.0417565,28.887622 Z M10.0417565,46.49256 C8.79007276,46.49256 7.77882543,47.5015806 7.77882543,48.750508 C7.77882543,49.9994355 8.79007276,51.008456 10.0417565,51.008456 L71.1408944,51.008456 C72.3925781,51.008456 73.4038258,49.9994355 73.4038258,48.750508 C73.4038258,47.5015806 72.3925781,46.49256 71.1408944,46.49256 L10.0417565,46.49256 Z" id="形状" fill="#FFFFFF"></path>
                            <path d="M35.6835938,73.1504581 C34.0076104,74.8227514 32.9680765,77.1442038 32.9680765,79.6985072 C32.9680765,82.2528114 34.0076104,84.5672081 35.6835938,86.2465564 C37.3595771,87.9188497 39.686153,88.9560939 42.2460938,88.9560939 C44.8060345,88.9560939 47.1255388,87.9188497 48.8085938,86.2465564 C50.4845771,84.5742637 51.524111,82.2528114 51.524111,79.6985072 C51.524111,77.1442038 50.4845771,74.8298071 48.8085938,73.1504581 C47.1326104,71.4781657 44.8060345,70.4408496 42.2460938,70.4408496 C39.6790814,70.4338647 37.3595771,71.4711095 35.6835938,73.1504581 L35.6835938,73.1504581 Z" id="路径" fill="#26C6DA"></path>
                            <path d="M38.6749057,76.1351835 C37.7626616,77.0454184 37.1969289,78.3014025 37.1969289,79.6914516 C37.1969289,81.0815007 37.7626616,82.3374841 38.6749057,83.2477197 C39.5871497,84.1579545 40.8459052,84.7224415 42.2390221,84.7224415 C43.632139,84.7224415 44.8908944,84.1579545 45.8031385,83.2477197 C46.7153826,82.3374841 47.2811153,81.0815007 47.2811153,79.6914516 C47.2811153,78.3014025 46.7153826,77.0454184 45.8031385,76.1351835 C44.8908944,75.224948 43.632139,74.660461 42.2390221,74.660461 C40.8529768,74.660461 39.5871497,75.224948 38.6749057,76.1351835 Z" id="路径" fill="#424242"></path>
                            <path d="M43.7523572,76.8760723 C43.5472791,77.0806994 43.4199892,77.3629429 43.4199892,77.6804668 C43.4199892,77.9909342 43.5472791,78.2802341 43.7523572,78.4848605 C43.9574353,78.689487 44.2403017,78.8164964 44.5585264,78.8164964 C44.8696794,78.8164964 45.1596175,78.689487 45.3646956,78.4848605 C45.5697737,78.2802341 45.6970636,77.9979906 45.6970636,77.6804668 C45.6970636,77.3699986 45.5697737,77.0806994 45.3646956,76.8760723 C45.1596175,76.6714458 44.8767511,76.5444364 44.5585264,76.5444364 C44.2403017,76.5444364 43.9574353,76.6714458 43.7523572,76.8760723 Z" id="路径" fill="#E0F7FA"></path>
                        </g>
                        <g id="5715---View-Document备份-2" transform="translate(57.864112, 62.520577) rotate(-17.000000) translate(-57.864112, -62.520577) translate(13.864112, 11.020577)" fill-rule="nonzero">
                            <path d="M5.64581218,77.2173136 L82.5573094,77.2173136 C82.6028686,77.2173136 82.6408344,77.2173136 82.6863935,77.2123273 C82.7319527,77.2123273 82.7699185,77.207341 82.8154776,77.207341 C82.8610375,77.207341 82.8990033,77.202354 82.9445624,77.1973678 C82.9901216,77.1923808 83.0280874,77.1923808 83.0736466,77.1873945 C83.1192057,77.1824075 83.1571715,77.1774212 83.2027314,77.1774212 C83.2482905,77.1724342 83.2862563,77.167448 83.3242222,77.162461 C83.362188,77.1574747 83.4077471,77.1524877 83.4457137,77.1475014 C83.4836795,77.1425145 83.5292387,77.1375282 83.5672045,77.1275549 C83.6051703,77.1225679 83.6507294,77.1125947 83.688696,77.1076084 C83.7266618,77.1026214 83.772221,77.0926481 83.8101868,77.0876618 C83.8481526,77.0776886 83.8937118,77.0727016 83.9316783,77.0627283 C83.9696441,77.0527551 84.00761,77.0477688 84.0531691,77.0377955 C84.0911349,77.0278223 84.1291008,77.017849 84.1670673,77.012862 L84.2809648,76.9829422 L84.394863,76.9530224 C84.4328288,76.9430491 84.4707947,76.9330766 84.5087612,76.9181163 C84.546727,76.9081431 84.5846929,76.8931835 84.6226587,76.8832103 C84.6606252,76.873237 84.6985911,76.8582767 84.7289636,76.8483035 C84.7669294,76.8383302 84.804896,76.8233707 84.8352685,76.8084104 C84.8732343,76.7934509 84.9036076,76.7834776 84.9415734,76.7685173 C84.9795392,76.7535578 85.0099117,76.7435845 85.0478783,76.7286243 C85.0858441,76.7136647 85.1162166,76.6987045 85.1541824,76.6837449 C85.192149,76.6687847 85.2225215,76.6538251 85.252894,76.6388656 C85.2832673,76.6239053 85.3212331,76.6089458 85.3516056,76.5939855 C85.3819789,76.579026 85.4199447,76.5640658 85.4503172,76.5491062 C85.4806904,76.534146 85.5186563,76.5191864 85.5490288,76.4992399 C85.579402,76.4842796 85.6097746,76.4643331 85.6401471,76.4493736 C85.6705203,76.4344133 85.7008928,76.4144668 85.7312661,76.3995072 C85.7616386,76.3845477 85.7920111,76.3646012 85.8223843,76.3446546 C85.8527569,76.3247081 85.8831294,76.3097478 85.9135026,76.2898013 C85.9438751,76.2698548 85.9742484,76.2548952 85.9970276,76.2349487 L86.0805526,76.1800954 C86.1109258,76.1601488 86.133705,76.1402023 86.1640782,76.1202558 C86.1944508,76.10031 86.2172307,76.0803634 86.2476032,76.0604169 C86.2779757,76.0404704 86.3007557,76.0205238 86.3235349,76.0005773 C86.3463148,75.9806308 86.3766873,75.9606842 86.3994672,75.9357507 C86.4222464,75.9158042 86.4526197,75.8958577 86.4753989,75.8709249 C86.4981788,75.8509783 86.520958,75.8260455 86.543738,75.806099 C86.5665172,75.7861525 86.5892971,75.7612189 86.612077,75.7412724 C86.6348562,75.7213259 86.6576362,75.6963931 86.6804154,75.6764465 C86.7031953,75.651513 86.7259745,75.6315665 86.7487544,75.6066337 C86.7715337,75.5817001 86.7943136,75.5617536 86.8094995,75.5368208 C86.8322794,75.511888 86.847466,75.4919415 86.8702452,75.4670079 C86.8930252,75.4420751 86.9082111,75.4221286 86.930991,75.3971951 C86.9461776,75.3722623 86.9689568,75.3473288 86.9841434,75.3273822 C86.9993301,75.3024494 87.0221093,75.2775166 87.0372959,75.2525831 C87.0524818,75.2276503 87.0676684,75.2027168 87.0904483,75.177784 L87.1360075,75.1029841 L87.1815666,75.028185 C87.1967532,75.0032514 87.2119391,74.9783186 87.2195324,74.9533858 C87.2347191,74.9284523 87.2423124,74.9035195 87.2574983,74.8735997 C87.2726849,74.8486662 87.2802782,74.8237334 87.2954641,74.7938136 C87.3106507,74.7688801 87.318244,74.7389603 87.3258373,74.7140275 C87.3334307,74.6890947 87.3486166,74.6591749 87.3562099,74.6342413 C87.3638032,74.6093085 87.3713965,74.5793887 87.3865831,74.5544552 C87.3941757,74.5295224 87.401769,74.4996026 87.4093623,74.4746691 C87.4169556,74.4497363 87.4245489,74.4198165 87.4321422,74.3948837 C87.4397356,74.3649639 87.4473281,74.3400303 87.4473281,74.3101105 C87.4549214,74.2801908 87.4549214,74.2552579 87.4625148,74.2253382 C87.4701081,74.1954184 87.4701081,74.1704855 87.4701081,74.1405658 C87.4701081,74.110646 87.4777014,74.0857124 87.4777014,74.0557926 C87.4777014,74.0258728 87.4777014,74.00094 87.4852947,73.9710202 L87.4852947,3.9537984 L87.4852947,3.86902574 C87.4852947,3.83910599 87.4852947,3.81417285 87.4777014,3.7842531 C87.4777014,3.75433334 87.4701081,3.72940021 87.4701081,3.69948045 C87.4701081,3.66956069 87.4625148,3.64462756 87.4625148,3.6147078 C87.4549214,3.58478804 87.4549214,3.55985491 87.4473281,3.52993515 C87.4397356,3.50001539 87.4397356,3.47508226 87.4321422,3.4451625 C87.4245489,3.41524274 87.4169556,3.39030961 87.4093623,3.36537648 C87.401769,3.34044335 87.3941757,3.31052358 87.3865831,3.28559046 C87.3789898,3.26065732 87.3713965,3.23073757 87.3562099,3.20580443 C87.3486166,3.1808713 87.3334307,3.15095154 87.3258373,3.12601841 C87.318244,3.10108527 87.3030574,3.07116552 87.2954641,3.04623238 C87.2802782,3.02129926 87.2726849,2.99137949 87.2574983,2.96644637 C87.2423124,2.94151323 87.2347191,2.9165801 87.2195324,2.88666034 C87.2043458,2.86172721 87.1891599,2.83679408 87.1815666,2.81186095 L87.1360075,2.73706155 L87.0904483,2.66226215 C87.0752617,2.63732902 87.0600751,2.61239589 87.0372959,2.58746275 C87.0221093,2.56252962 86.9993301,2.53759649 86.9841434,2.51266336 C86.9689568,2.48773022 86.9461776,2.4627971 86.930991,2.44285059 C86.9158044,2.41791746 86.8930252,2.39298432 86.8702452,2.37303782 C86.847466,2.34810468 86.8322794,2.32815818 86.8094995,2.30322505 C86.7867203,2.27829191 86.7715337,2.25834541 86.7487544,2.23341228 C86.7259745,2.20847915 86.7031953,2.18853264 86.6804154,2.16359951 C86.6576362,2.13866637 86.6348562,2.11871987 86.612077,2.09877337 C86.5892971,2.07882686 86.5665172,2.05389373 86.543738,2.03394722 C86.520958,2.01400072 86.4981788,1.98906758 86.4753989,1.96912108 C86.4526197,1.94917457 86.4298398,1.92424144 86.3994672,1.90429493 C86.3766873,1.88434842 86.3463148,1.86440192 86.3235349,1.83946879 C86.3007557,1.81952228 86.2703831,1.79957578 86.2476032,1.77962927 C86.2248233,1.75968277 86.1944508,1.73973626 86.1640782,1.71978975 C86.133705,1.69984325 86.1109258,1.67989674 86.0805526,1.65995024 C86.05018,1.64000374 86.0274008,1.62005723 85.9970276,1.60509735 L85.9135026,1.55024446 C85.8831294,1.53029795 85.8527569,1.51533807 85.8223843,1.49539157 C85.7920111,1.47544506 85.7616386,1.46048518 85.7312661,1.44053868 C85.7008928,1.42059217 85.6705203,1.40563229 85.6401471,1.39067241 C85.6097746,1.37571253 85.579402,1.35576603 85.5490288,1.34080615 C85.5186563,1.32584626 85.4882838,1.30589976 85.4503172,1.29093988 C85.4199447,1.27598 85.3819789,1.26102012 85.3516056,1.24606025 C85.3212331,1.23110036 85.2832673,1.21614048 85.252894,1.20118061 C85.2225215,1.18622073 85.1845557,1.17126085 85.1541824,1.15630097 C85.1162166,1.14134109 85.0858441,1.12638121 85.0478783,1.11142133 C85.0099117,1.09646145 84.9795392,1.08150158 84.9415734,1.07152832 C84.9036076,1.05656844 84.8732343,1.04659519 84.8352685,1.03163531 C84.7973027,1.01667543 84.7669294,1.00670217 84.7289636,0.991742298 C84.6909978,0.981769046 84.6530319,0.966809162 84.6226587,0.95683591 C84.5846929,0.946862659 84.546727,0.931902782 84.5087612,0.921929523 C84.4707947,0.911956272 84.4328288,0.90198302 84.394863,0.887023143 L84.2809648,0.857103382 L84.1670673,0.82718362 C84.1291008,0.817210368 84.0911349,0.807237117 84.0531691,0.802250491 C84.0152033,0.79227724 83.9772374,0.787290614 83.9316783,0.777317363 C83.8937118,0.767344104 83.8557459,0.762357478 83.8101868,0.752384227 C83.772221,0.747397601 83.7266618,0.73742435 83.688696,0.732437724 C83.6507294,0.727451098 83.6051703,0.717477842 83.5672045,0.712491215 C83.5292387,0.707504589 83.4836795,0.702517962 83.4457137,0.69254471 C83.4077471,0.687558083 83.362188,0.682571457 83.3242222,0.677584831 C83.2862563,0.672598204 83.2406972,0.667611578 83.2027314,0.662624952 C83.1571715,0.657638325 83.1192057,0.652651699 83.0736466,0.652651699 C83.0280874,0.647665072 82.9901216,0.647665072 82.9445624,0.642678446 C82.8990033,0.637691819 82.8610375,0.637691819 82.8154776,0.637691819 C82.7699185,0.637691819 82.7319527,0.632705193 82.6863935,0.632705193 C82.6408344,0.632705193 82.6028686,0.627718566 82.5573094,0.627718566 L5.51672782,0.627718566 C5.47116864,0.627718566 5.43320265,0.627718566 5.38764346,0.632705193 C5.34208428,0.632705193 5.3041183,0.637691819 5.25855911,0.637691819 C5.21299993,0.637691819 5.17503394,0.642678446 5.12947475,0.642678446 C5.08391557,0.647665072 5.04594958,0.647665072 5.00039039,0.652651699 C4.95483121,0.657638325 4.91686523,0.657638325 4.87130604,0.662624952 C4.82574686,0.667611578 4.78778087,0.672598204 4.74981488,0.677584831 C4.71184889,0.682571457 4.66628971,0.687558083 4.62832372,0.69254471 C4.59035773,0.697531336 4.54479854,0.702517962 4.50683256,0.712491215 C4.46886657,0.717477842 4.42330739,0.727451098 4.3853414,0.732437724 C4.34737541,0.73742435 4.30181623,0.747397601 4.26385024,0.752384227 C4.22588425,0.762357478 4.18032507,0.767344104 4.14235908,0.777317363 C4.1043931,0.787290614 4.06642711,0.79227724 4.02086792,0.802250491 C3.98290193,0.812223743 3.94493595,0.822196994 3.90696996,0.82718362 L3.793072,0.857103382 L3.67917404,0.887023143 C3.64120805,0.896996395 3.60324206,0.906969646 3.56527607,0.921929523 C3.52731008,0.931902782 3.4893441,0.946862659 3.45137811,0.95683591 C3.41341212,0.966809162 3.37544614,0.981769046 3.34507334,0.991742298 C3.30710736,1.00171555 3.26914137,1.01667543 3.23876859,1.03163531 C3.2008026,1.04659519 3.17042981,1.05656844 3.13246382,1.07152832 C3.09449783,1.0864882 3.06412504,1.09646145 3.02615905,1.11142133 C2.98819307,1.12638121 2.95782028,1.14134109 2.91985429,1.15630097 C2.8818883,1.17126085 2.85151552,1.18622073 2.82114272,1.20118061 C2.79076993,1.21614048 2.75280394,1.23110036 2.72243116,1.24606025 C2.69205837,1.26102012 2.65409238,1.27598 2.62371959,1.29093988 C2.5933468,1.30589976 2.55538081,1.32085964 2.52500802,1.34080615 C2.49463523,1.35576603 2.46426244,1.37571253 2.43388965,1.39067241 C2.40351687,1.40563229 2.37314407,1.42557879 2.34277128,1.44053868 C2.3123985,1.45549855 2.2820257,1.47544506 2.25165291,1.49539157 C2.22128013,1.51533807 2.19090733,1.53029795 2.16053454,1.55024446 C2.13016176,1.57019096 2.09978896,1.58515084 2.07700937,1.60509735 L1.9934842,1.65995024 C1.96311141,1.67989674 1.94033182,1.69984325 1.90995903,1.71978975 C1.87958624,1.73973626 1.85680665,1.75968277 1.82643385,1.77962927 C1.79606107,1.79957578 1.77328147,1.81952228 1.75050188,1.83946879 C1.72772229,1.8594153 1.6973495,1.8793618 1.67456991,1.90429493 C1.65179032,1.92424144 1.62141752,1.94418795 1.59863793,1.96912108 C1.57585834,1.98906758 1.55307874,2.01400072 1.53029915,2.03394722 C1.50751956,2.05389373 1.48473997,2.07882686 1.46196038,2.09877337 C1.43918078,2.11871987 1.41640119,2.143653 1.3936216,2.16359951 C1.37084201,2.18853264 1.34806241,2.20847915 1.32528282,2.23341228 C1.30250323,2.25834541 1.27972364,2.27829191 1.26453725,2.30322505 C1.24175765,2.32815818 1.22657126,2.34810468 1.20379167,2.37303782 C1.18101207,2.39797095 1.16582568,2.41791746 1.14304608,2.44285059 C1.12785969,2.46778372 1.1050801,2.49271685 1.0898937,2.51266336 C1.07470731,2.53759649 1.05192771,2.56252962 1.03674132,2.58746275 C1.02155493,2.61239589 1.00636853,2.63732902 0.983588941,2.66226215 L0.938029752,2.73706155 L0.892470571,2.81186095 C0.877284175,2.83679408 0.862097779,2.86172721 0.854504584,2.88666034 C0.839318188,2.91159348 0.831724986,2.9365266 0.816538597,2.96644637 C0.801352201,2.99137949 0.793758999,3.01631263 0.77857261,3.04623238 C0.770979409,3.07116552 0.755793012,3.10108527 0.748199818,3.12601841 C0.740606616,3.15095154 0.725420227,3.1808713 0.717827028,3.20580443 C0.71023383,3.23073757 0.702640632,3.26065732 0.687454237,3.28559046 C0.67986104,3.31052358 0.672267843,3.34044335 0.664674645,3.36537648 C0.657081448,3.39030961 0.649488251,3.42022937 0.641895052,3.4451625 C0.634301855,3.47508226 0.626708658,3.50001539 0.626708658,3.52993515 C0.61911546,3.55985491 0.61911546,3.58478804 0.611522263,3.6147078 C0.603929066,3.64462756 0.603929066,3.66956069 0.603929066,3.69948045 C0.603929066,3.72940021 0.596335868,3.75433334 0.596335868,3.7842531 C0.596335868,3.81417285 0.596335868,3.83910599 0.588742671,3.86902574 L0.588742671,73.9710202 C0.588742671,74.00094 0.588742671,74.0258728 0.596335868,74.0557926 C0.596335868,74.0857124 0.603929066,74.110646 0.603929066,74.1405658 C0.603929066,74.1704855 0.611522263,74.1954184 0.611522263,74.2253382 C0.61911546,74.2552579 0.61911546,74.2801908 0.626708658,74.3101105 C0.634301855,74.3400303 0.634301855,74.3649639 0.641895052,74.3948837 C0.649488251,74.4248035 0.657081448,74.4497363 0.664674645,74.4746691 C0.672267843,74.4996026 0.67986104,74.5295224 0.687454237,74.5544552 C0.695047435,74.5793887 0.702640632,74.6093085 0.717827028,74.6342413 C0.725420227,74.6591749 0.740606616,74.6890947 0.748199818,74.7140275 C0.755793012,74.7389603 0.770979409,74.7688801 0.77857261,74.7938136 C0.793758999,74.8187464 0.801352201,74.8486662 0.816538597,74.8735997 C0.831724986,74.8985325 0.839318188,74.923466 0.854504584,74.9533858 C0.869690973,74.9783186 0.884877369,75.0032514 0.892470571,75.028185 L0.938029752,75.1029841 L0.983588941,75.177784 C0.99877533,75.2027168 1.01396173,75.2276503 1.03674132,75.2525831 C1.05192771,75.2775166 1.07470731,75.3024494 1.0898937,75.3273822 C1.1050801,75.3523158 1.12785969,75.3772486 1.14304608,75.3971951 C1.15823248,75.4221286 1.18101207,75.4470614 1.20379167,75.4670079 C1.22657126,75.4919415 1.24175765,75.511888 1.26453725,75.5368208 C1.28731684,75.5617536 1.30250323,75.5817001 1.32528282,75.6066337 C1.34806241,75.6315665 1.37084201,75.651513 1.3936216,75.6764465 C1.41640119,75.7013793 1.43918078,75.7213259 1.46196038,75.7412724 C1.48473997,75.7612189 1.50751956,75.7861525 1.53029915,75.806099 C1.55307874,75.8260455 1.57585834,75.8509783 1.59863793,75.8709249 C1.62141752,75.8908714 1.64419711,75.9158042 1.67456991,75.9357507 C1.6973495,75.9556973 1.72772229,75.9756438 1.75050188,76.0005773 C1.77328147,76.0205238 1.80365426,76.0404704 1.82643385,76.0604169 C1.84921345,76.0803634 1.87958624,76.10031 1.90995903,76.1202558 C1.94033182,76.1402023 1.96311141,76.1601488 1.9934842,76.1800954 C2.02385699,76.2000419 2.04663658,76.2199884 2.07700937,76.2349487 L2.16053454,76.2898013 C2.19090733,76.3097478 2.22128013,76.3247081 2.25165291,76.3446546 C2.2820257,76.3646012 2.3123985,76.3795607 2.34277128,76.3995072 C2.37314407,76.4194538 2.40351687,76.4344133 2.43388965,76.4493736 C2.46426244,76.4643331 2.49463523,76.4842796 2.52500802,76.4992399 C2.55538081,76.5141994 2.5857536,76.534146 2.62371959,76.5491062 C2.65409238,76.5640658 2.69205837,76.579026 2.72243116,76.5939855 C2.75280394,76.6089458 2.79076993,76.6239053 2.82114272,76.6388656 C2.85151552,76.6538251 2.8894815,76.6687847 2.91985429,76.6837449 C2.95782028,76.6987045 2.98819307,76.7136647 3.02615905,76.7286243 C3.06412504,76.7435845 3.09449783,76.7585441 3.13246382,76.7685173 C3.17042981,76.7834776 3.2008026,76.7934509 3.23876859,76.8084104 C3.27673457,76.8233707 3.30710736,76.8333439 3.34507334,76.8483035 C3.38303934,76.8582767 3.42100533,76.873237 3.45137811,76.8832103 C3.4893441,76.8931835 3.52731008,76.9081431 3.56527607,76.9181163 C3.60324206,76.9280896 3.64120805,76.9380629 3.67917404,76.9530224 L3.793072,76.9829422 L3.90696996,77.012862 C3.94493595,77.0228353 3.98290193,77.0328085 4.02086792,77.0377955 C4.05883391,77.0477688 4.0967999,77.0527551 4.14235908,77.0627283 C4.18032507,77.0727016 4.21829106,77.0776886 4.26385024,77.0876618 C4.30181623,77.0976351 4.34737541,77.1026214 4.3853414,77.1076084 C4.42330739,77.1125947 4.46886657,77.1225679 4.50683256,77.1275549 C4.54479854,77.1325412 4.59035773,77.1375282 4.62832372,77.1475014 C4.66628971,77.1524877 4.71184889,77.1574747 4.74981488,77.162461 C4.78778087,77.167448 4.83334005,77.1724342 4.87130604,77.1774212 C4.91686523,77.1824075 4.95483121,77.1873945 5.00039039,77.1873945 C5.04594958,77.1923808 5.08391557,77.1923808 5.12947475,77.1973678 C5.17503394,77.202354 5.21299993,77.202354 5.25855911,77.207341 C5.3041183,77.207341 5.34208428,77.2123273 5.38764346,77.2123273 C5.43320265,77.2123273 5.47116864,77.2173136 5.51672782,77.2173136 L5.64581218,77.2173136 Z" id="路径" fill="#40B8C1"></path>
                            <path d="M11.7464038,12.6684786 C10.4066706,12.6684786 9.32428727,13.7514592 9.32428727,15.0919319 C9.32428727,16.4324045 10.4066706,17.5153851 11.7464038,17.5153851 L77.14355,17.5153851 C78.4832833,17.5153851 79.5656668,16.4324045 79.5656668,15.0919319 C79.5656668,13.7514592 78.4832833,12.6684786 77.14355,12.6684786 L11.7464038,12.6684786 Z M11.7464038,31.5562676 C10.4066706,31.5562676 9.32428727,32.6392483 9.32428727,33.9797208 C9.32428727,35.3201934 10.4066706,36.4031741 11.7464038,36.4031741 L77.14355,36.4031741 C78.4832833,36.4031741 79.5656668,35.3201934 79.5656668,33.9797208 C79.5656668,32.6392483 78.4832833,31.5562676 77.14355,31.5562676 L11.7464038,31.5562676 Z M11.7464038,50.4516298 C10.4066706,50.4516298 9.32428727,51.5346105 9.32428727,52.8750831 C9.32428727,54.2155557 10.4066706,55.2985364 11.7464038,55.2985364 L77.14355,55.2985364 C78.4832833,55.2985364 79.5656668,54.2155557 79.5656668,52.8750831 C79.5656668,51.5346105 78.4832833,50.4516298 77.14355,50.4516298 L11.7464038,50.4516298 Z" id="形状" fill="#FFFFFF"></path>
                            <path d="M15.833771,84.7172428 L14.3539321,86.2794689 L15.833771,87.8416951 C25.5855296,98.1478367 35.5725446,103.031689 45.7796383,102.895184 C55.9411985,102.758678 66.1255254,97.6397341 76.340208,87.9326987 L78.0780702,86.2794689 L76.340208,84.6262399 C66.1255254,74.9192045 55.9336096,69.8002598 45.7796383,69.6637547 C35.5725446,69.5272495 25.5855296,74.4111019 15.833771,84.7172428 Z" id="路径" fill="#FFFFFE"></path>
                            <path d="M47.1346293,78.0637421 C47.2751474,77.4068909 47.8901854,76.9954487 48.5083552,77.1447594 C49.126525,77.2940701 49.5137382,77.9475932 49.3732201,78.6044436 L49.3732201,78.6044436 L45.8763164,94.9506908 C45.7357983,95.6075412 45.1207603,96.0189834 44.5025905,95.8696727 C43.8844207,95.720362 43.4972075,95.0668389 43.6377256,94.4099884 L43.6377256,94.4099884 L47.1346293,78.0637421 Z M38.7898306,79.2689357 C39.3091363,78.8445723 40.0688396,78.9281149 40.4866754,79.455534 C40.9045112,79.982953 40.8222537,80.7545253 40.302948,81.1788895 L40.302948,81.1788895 L33.6619869,86.6057211 L40.5270756,90.4255592 C41.1116302,90.7508143 41.3258902,91.4957645 41.0056386,92.0894523 C40.6853871,92.6831395 39.9518968,92.9007471 39.3673422,92.5754921 L39.3673422,92.5754921 L30.9192991,87.8748736 C30.1652662,87.4553186 30.0727406,86.3923288 30.742607,85.8449306 L30.742607,85.8449306 L38.7898306,79.2689357 Z M51.7866662,79.2461445 C52.1532681,78.6807854 52.901728,78.5242991 53.4583981,78.8966236 L53.4583981,78.8966236 L61.9065687,84.5471163 C62.6225548,85.0259978 62.6324001,86.0891293 61.9254095,86.5816033 L61.9254095,86.5816033 L53.8485871,92.2077406 C53.2989109,92.5906329 52.5476854,92.4484725 52.1706779,91.890216 C51.7936705,91.3319595 51.9336462,90.5690072 52.4833225,90.1861149 L52.4833225,90.1861149 L59.079366,85.5914559 L52.1308152,80.9439718 C51.5741451,80.5716474 51.4200644,79.8115043 51.7866662,79.2461445 Z" id="Code" fill="#00CBCF"></path>
                        </g>
                    </g>
                </g>
            </g>
        </g>
    </g>
</svg>