<?xml version="1.0" encoding="UTF-8"?>
<svg width="50px" height="32px" viewBox="0 0 50 32" version="1.1" xmlns="http://www.w3.org/2000/svg" xmlns:xlink="http://www.w3.org/1999/xlink">
    <title>编组 47</title>
    <g id="页面-1" stroke="none" stroke-width="1" fill="none" fill-rule="evenodd">
        <g id="Front-page-pc" transform="translate(-195.000000, -2410.000000)" fill="#009999">
            <g id="编组-32" transform="translate(165.000000, 2194.000000)">
                <g id="编组-47" transform="translate(30.000000, 216.000000)">
                    <path d="M32.5447761,32.5 L32.544638,32.4710721 C24.1528501,31.9614439 17.5,24.7819292 17.5,16 C17.5,6.88730163 24.663444,-0.5 33.5,-0.5 C42.0158101,-0.5 48.9777638,6.36075169 49.4719487,15.0147829 L49.5,15.0149254 L49.5,30.0352175 C49.5,31.3964793 48.4299193,32.5 47.1099079,32.5 L32.5447761,32.5 Z" id="路径-copy-11备份" fill-opacity="0.156769012" transform="translate(33.500000, 16.000000) rotate(-90.000000) translate(-33.500000, -16.000000) "></path>
                    <path d="M15.5447761,32.5 L15.544638,32.4710721 C7.15285012,31.9614439 0.5,24.7819292 0.5,16 C0.5,6.88730163 7.663444,-0.5 16.5,-0.5 C25.0158101,-0.5 31.9777638,6.36075169 32.4719487,15.0147829 L32.5,15.0149254 L32.5,30.0352175 C32.5,31.3964793 31.4299193,32.5 30.1099079,32.5 L15.5447761,32.5 Z" id="路径-copy-11" opacity="0.297851562" transform="translate(16.500000, 16.000000) rotate(-90.000000) translate(-16.500000, -16.000000) "></path>
                </g>
            </g>
        </g>
    </g>
</svg>