<?xml version="1.0" encoding="UTF-8"?>
<svg width="252px" height="252px" viewBox="0 0 252 252" version="1.1" xmlns="http://www.w3.org/2000/svg" xmlns:xlink="http://www.w3.org/1999/xlink">
    <title>编组 15</title>
    <defs>
        <rect id="path-1" x="0" y="0" width="252" height="252" rx="126"></rect>
        <path d="M39.8261184,8.70375516 C39.6855545,7.82629441 39.9638464,7.39563277 36.4559415,4.92360848 C32.9480365,2.45158416 27.2843685,-0.463962796 21.5799812,0.804898148 C14.1770151,2.45158416 11.2366917,7.36281999 8.38196177,9.75045575 C5.80849949,11.902915 3.22639996,12.1539344 1.69616395,14.8247843 C0.165927939,17.4956343 -0.648214959,25.1795438 0.682397417,28.2344249 C2.51790808,32.4484749 6.13755851,33.5833541 8.77987781,34.7974301 C13.3114975,36.8795897 19.7168401,34.6805517 19.872005,34.316277 C21.0722728,31.498454 27.5330613,23.5495438 31.4190695,20.2099327 C34.2766422,17.7541525 40.4858483,12.8220744 39.8261184,8.70375516 Z" id="path-3"></path>
        <path d="M39.8261184,8.70375516 C39.6855545,7.82629441 39.9638464,7.39563277 36.4559415,4.92360848 C32.9480365,2.45158416 27.2843685,-0.463962796 21.5799812,0.804898148 C14.1770151,2.45158416 11.2366917,7.36281999 8.38196177,9.75045575 C5.80849949,11.902915 3.22639996,12.1539344 1.69616395,14.8247843 C0.165927939,17.4956343 -0.648214959,25.1795438 0.682397417,28.2344249 C2.51790808,32.4484749 6.13755851,33.5833541 8.77987781,34.7974301 C13.3114975,36.8795897 19.7168401,34.6805517 19.872005,34.316277 C21.0722728,31.498454 27.5330613,23.5495438 31.4190695,20.2099327 C34.2766422,17.7541525 40.4858483,12.8220744 39.8261184,8.70375516 Z" id="path-5"></path>
    </defs>
    <g id="页面-1" stroke="none" stroke-width="1" fill="none" fill-rule="evenodd">
        <g id="Search-pc" transform="translate(-150.000000, -1505.000000)">
            <g id="编组-16备份-3" transform="translate(0.000000, 1425.000000)">
                <g id="404" transform="translate(150.000000, 80.000000)">
                    <mask id="mask-2" fill="white">
                        <use xlink:href="#path-1"></use>
                    </mask>
                    <use id="蒙版" fill="#F8F8F8" xlink:href="#path-1"></use>
                    <g mask="url(#mask-2)">
                        <g transform="translate(-63.000000, 1.000000)">
                            <path d="M0,177.171368 C12.8998438,168.853959 25.3715066,156.358285 35.417178,145.944914 C42.5578909,138.543823 49.9433782,130.88822 58.2380279,123.095239 C115.904274,68.9232448 188.917007,79.7009568 192,80.1825049 L190.400224,90.1807744 C189.702325,90.0679793 119.172306,79.7877223 65.2505253,130.447162 C57.1379997,138.069506 49.8413888,145.632558 42.7837245,152.946884 C28.269439,167.990993 15.2102549,181.527065 0.313224883,190 C0.274517883,185.723383 0.274517883,184.445259 0,177.171368 Z" id="Path" fill="#32C8CD" fill-rule="nonzero"></path>
                            <g id="Group" stroke-width="1" fill="none" fill-rule="evenodd" transform="translate(251.000000, 62.000000)">
                                <path d="M28.4837473,13.6839558 L6.97879745,13.6839558 C3.41554353,13.6839558 0.527882567,10.7154688 0.527882567,7.05575068 L0.527882567,7.05575068 C0.527882567,3.39456798 3.41696883,0.427545527 6.97879745,0.427545527 L28.4837473,0.427545527 C32.0470013,0.427545527 34.9346623,3.39603244 34.9346623,7.05575068 L34.9346623,7.05575068 C34.9346623,10.7154688 32.045576,13.6839558 28.4837473,13.6839558 Z" id="Path" fill="#016065" fill-rule="nonzero"></path>
                                <path d="M28.4837473,46.8249814 L6.97879745,46.8249814 C3.41554353,46.8249814 0.527882567,43.8564945 0.527882567,40.1967763 L0.527882567,40.1967763 C0.527882567,36.5355936 3.41696883,33.5685711 6.97879745,33.5685711 L28.4837473,33.5685711 C32.0470013,33.5685711 34.9346623,36.5370581 34.9346623,40.1967763 L34.9346623,40.1967763 C34.9346623,43.857959 32.045576,46.8249814 28.4837473,46.8249814 Z" id="Path" fill="#016065" fill-rule="nonzero"></path>
                            </g>
                            <path d="M253.396423,127 L213.111683,127 C190.406372,127 172,108.419772 172,85.5 L172,85.5 C172,62.5802282 190.406372,44 213.111683,44 L253.396423,44 C258.701062,44 263,48.3410103 263,53.6942874 L263,117.304246 C263,122.660457 258.701062,127 253.396423,127 Z" id="Path" fill="#00939B" fill-rule="nonzero"></path>
                            <g id="编组-4" stroke-width="1" fill="none" fill-rule="evenodd" transform="translate(113.000000, 133.500000) scale(-1, 1) translate(-113.000000, -133.500000) translate(15.000000, 0.000000)">
                                <g id="Head/Front/Turban-1" transform="translate(99.697493, 28.000000) scale(-1, 1) translate(-99.697493, -28.000000) translate(77.197493, 0.000000)">
                                    <g id="Head" transform="translate(15.639489, 5.442656)" fill="#B28B67" fill-rule="nonzero">
                                        <path d="M25.4984743,6.14100004 C29.3722521,13.4028981 28.9119467,31.8233046 23.9054339,33.1212083 C21.9089151,33.6387919 17.6558175,32.3709834 13.3270794,29.746974 L16.0437801,49.0799535 L0,49.0799535 L5.52268692,23.1880125 C2.44265304,19.5516797 0.358088347,15.0953942 0.706445297,10.1020353 C1.71022032,-4.28610566 21.6246964,-1.12089797 25.4984743,6.14100004 Z" id="路径"></path>
                                    </g>
                                    <g id="Turban" transform="translate(0.264199, 0.064031)">
                                        <g id="path-1-link" fill="#1D7074" fill-rule="nonzero">
                                            <path d="M39.8261184,8.70375516 C39.6855545,7.82629441 39.9638464,7.39563277 36.4559415,4.92360848 C32.9480365,2.45158416 27.2843685,-0.463962796 21.5799812,0.804898148 C14.1770151,2.45158416 11.2366917,7.36281999 8.38196177,9.75045575 C5.80849949,11.902915 3.22639996,12.1539344 1.69616395,14.8247843 C0.165927939,17.4956343 -0.648214959,25.1795438 0.682397417,28.2344249 C2.51790808,32.4484749 6.13755851,33.5833541 8.77987781,34.7974301 C13.3114975,36.8795897 19.7168401,34.6805517 19.872005,34.316277 C21.0722728,31.498454 27.5330613,23.5495438 31.4190695,20.2099327 C34.2766422,17.7541525 40.4858483,12.8220744 39.8261184,8.70375516 Z" id="path-1"></path>
                                        </g>
                                        <g id="SHade-Clipped">
                                            <mask id="mask-4" fill="white">
                                                <use xlink:href="#path-3"></use>
                                            </mask>
                                            <g id="path-1"></g>
                                            <path d="M5.34686312,10.9872823 C7.32080342,19.2071414 12.4462544,26.9742921 20.723216,34.2887346 C11.1459764,28.4746007 5.12955881,20.9716492 2.67396336,11.7798802 L5.34686312,10.9872823 Z M8.32740614,8.06793758 C9.53074743,15.7188226 12.6897093,22.7161967 17.8042919,29.0600596 C11.8405044,24.4061669 7.91121298,17.898809 6.01641755,9.53798574 L8.32740614,8.06793758 Z" id="SHade" fill-opacity="0.2" fill="#000000" fill-rule="nonzero" mask="url(#mask-4)"></path>
                                        </g>
                                    </g>
                                </g>
                                <g id="Bottom/Standing/Skirt" transform="translate(108.864609, 187.088752) scale(-1, 1) translate(-108.864609, -187.088752) translate(21.864609, 108.088752)" fill-rule="nonzero">
                                    <path d="M63.9164784,66.1461008 C79.2539303,70.4514524 92.4866207,72.6041283 103.614548,72.6041283 C114.742476,72.6041283 125.078611,69.2890457 134.622951,62.6588802 C119.613859,58.2398284 107.253203,56.0303025 97.5409836,56.0303025 C87.8287637,56.0303025 76.6205959,59.4022353 63.9164784,66.1461008 Z" id="Skirt-Shadow" fill="#00939B"></path>
                                    <path d="M116.891911,78.8097982 C116.744022,78.5866708 116.619128,78.3439526 116.520066,78.0810322 C114.469948,72.6398289 81.6321068,13.9401124 78.3606557,3.20823245 L115.331433,3.20823245 C117.818763,11.3678323 129.013995,62.5732114 130.589532,72.789439 C135.560644,88.9044323 145.795665,141.095012 147.102249,144.710615 C148.476755,148.514169 140.742872,152.476489 138.681974,147.800491 C135.402738,140.360189 127.5893,119.773007 124.110299,107.202617 C120.848744,95.4179039 118.192968,84.815721 116.891911,78.8097982 Z" id="Leg" fill="#997659"></path>
                                    <path d="M86.644679,85.9765198 C71.6317575,89.7846141 16.7176577,96.668974 12.9492117,97.7487681 C9.07265642,98.8595397 5.67365919,90.8403182 10.4652909,89.1032189 C18.0895859,86.3392002 39.0979696,79.9528176 51.8354287,77.3466613 C62.0806694,75.2504266 71.429577,73.5399017 77.7061878,72.5382376 C77.1744477,54.8437329 74.7437292,12.3796357 76.336931,3.20823245 L109.04918,3.20823245 C107.521406,12.0029916 94.606465,76.1748044 92.2060393,82.5982215 C91.4442613,84.8914244 89.1712761,85.9048511 86.644679,85.9765198 L86.644679,85.9765198 Z" id="Leg" fill="#B28B67"></path>
                                    <path d="M76.442623,3.20823245 C90.8578151,-0.930861631 104.49716,-0.930861631 117.360656,3.20823245 C121.836066,23.7007968 132.710634,31.8343115 134.622951,63.2528216 C112.885246,74.0926679 86.0327869,55.521964 63.6557377,66.0929962 C57.2622951,51.3067638 66.2131148,15.6975721 76.442623,3.20823245 Z" id="Skirt" fill="#33C7CD"></path>
                                </g>
                                <g id="Body" transform="translate(69.318011, 79.770697) scale(-1, 1) rotate(8.000000) translate(-69.318011, -79.770697) translate(7.818011, 21.770697)" fill-rule="nonzero">
                                    <path d="M76.7015877,86.425155 L102.039915,78.788761 C106.766801,75.0945641 111.225338,72.393541 115.415528,70.6856911 C116.634183,70.4554055 118.651721,70.5891496 116.130554,73.4604021 C113.609387,76.331654 111.086121,79.465614 111.805956,80.6695424 C112.525792,81.8734707 115.148526,80.9659015 115.907595,82.8729968 C116.41364,84.1443937 112.06839,85.0549946 102.871843,85.6047997 L83.1707926,97.2449317 L76.7015877,86.425155 Z" id="Skin" fill="#B28B67" transform="translate(97.020122, 83.927514) scale(-1, 1) rotate(-180.000000) translate(-97.020122, -83.927514) "></path>
                                    <path d="M78.613296,10.8033299 L103.278618,20.3510241 C109.280024,20.3425581 114.457436,20.9523246 118.810853,22.1803235 C119.912634,22.7475382 121.418998,24.0926606 117.66231,24.8075261 C113.905622,25.5223916 109.985222,26.4431125 109.809441,27.8347087 C109.63366,29.2263049 112.25899,30.1222104 111.680341,32.0923605 C111.294574,33.4057939 107.310844,31.4538885 99.7291499,26.2366442 L77.0335376,23.3096895 L78.613296,10.8033299 Z" id="Arm" fill="#B28B67" transform="translate(98.547241, 21.645961) rotate(-36.000000) translate(-98.547241, -21.645961) "></path>
                                    <path d="M33.5975857,31.7720889 C50.4219118,49.756433 70.9394213,61.4943581 98.9206787,71.908231 L92.7105393,84.3806541 C63.8422886,81.6408169 48.4086244,79.4544902 36.3054662,61.4435751 C33.267819,56.9232006 27.8344837,41.3706753 24.5798222,33.2941187 L33.5975857,31.7720889 Z" id="Coat-Back" fill="#016065" transform="translate(61.750250, 58.076371) rotate(7.000000) translate(-61.750250, -58.076371) "></path>
                                    <path d="M7.27912246,99.2185339 L58.752917,99.2185339 C47.0932407,63.5180463 41.1370354,39.0154509 40.884301,25.7107478 C40.8714164,25.0324612 39.6236363,23.8372244 39.071591,23.9937513 C35.0345435,25.1384156 30.7145841,24.7104153 26.1117128,22.7097502 C13.9088703,42.4130485 9.68891583,66.6717979 7.27912246,99.2185339 Z" id="Shirt" fill="#F2F2F2"></path>
                                    <path d="M96.8052041,16.669583 L99.5308585,30.3428304 C78.6647934,43.8158224 57.5361496,54.2525785 39.0222873,52.770078 C47.0626521,87.3908408 46.6921293,115.732328 28.9432208,115.732328 L28.9432208,115.732328 L1.49742999,115.732328 C-2.86159514,86.3220708 8.59477589,45.5440083 19.2156649,24.9758828 C19.6212446,24.1904481 20.4847646,22.7097502 22.5187085,22.7097502 L22.5187085,22.7097502 L30.4936456,22.7097502 C30.4971829,22.7204427 30.5007196,22.7311352 30.5042558,22.7418277 C45.2584282,22.8627996 69.1971348,25.5679522 96.8052041,16.669583 Z" id="Coat-Front" fill="#00939B"></path>
                                </g>
                            </g>
                        </g>
                    </g>
                    <g id="404备份" transform="translate(9.000000, 1.000000)">
                        <g id="Group" transform="translate(179.000000, 62.000000)" fill="#016065" fill-rule="nonzero">
                            <path d="M28.4837473,13.6839558 L6.97879745,13.6839558 C3.41554353,13.6839558 0.527882567,10.7154688 0.527882567,7.05575068 L0.527882567,7.05575068 C0.527882567,3.39456798 3.41696883,0.427545527 6.97879745,0.427545527 L28.4837473,0.427545527 C32.0470013,0.427545527 34.9346623,3.39603244 34.9346623,7.05575068 L34.9346623,7.05575068 C34.9346623,10.7154688 32.045576,13.6839558 28.4837473,13.6839558 Z" id="Path"></path>
                            <path d="M28.4837473,46.8249814 L6.97879745,46.8249814 C3.41554353,46.8249814 0.527882567,43.8564945 0.527882567,40.1967763 L0.527882567,40.1967763 C0.527882567,36.5355936 3.41696883,33.5685711 6.97879745,33.5685711 L28.4837473,33.5685711 C32.0470013,33.5685711 34.9346623,36.5370581 34.9346623,40.1967763 L34.9346623,40.1967763 C34.9346623,43.857959 32.045576,46.8249814 28.4837473,46.8249814 Z" id="Path"></path>
                        </g>
                        <path d="M181.396423,127 L141.111683,127 C118.406372,127 100,108.419772 100,85.5 L100,85.5 C100,62.5802282 118.406372,44 141.111683,44 L181.396423,44 C186.701062,44 191,48.3410103 191,53.6942874 L191,117.304246 C191,122.660457 186.701062,127 181.396423,127 Z" id="Path" fill="#009999" fill-rule="nonzero"></path>
                        <g id="编组-4" transform="translate(69.500000, 88.000000) scale(-1, 1) translate(-69.500000, -88.000000) ">
                            <g id="Head/Front/Turban-1" transform="translate(99.697493, 28.000000) scale(-1, 1) translate(-99.697493, -28.000000) translate(77.197493, 0.000000)">
                                <g id="Head" transform="translate(15.639489, 5.442656)" fill="#B28B67" fill-rule="nonzero">
                                    <path d="M25.4984743,6.14100004 C29.3722521,13.4028981 28.9119467,31.8233046 23.9054339,33.1212083 C21.9089151,33.6387919 17.6558175,32.3709834 13.3270794,29.746974 L16.0437801,49.0799535 L0,49.0799535 L5.52268692,23.1880125 C2.44265304,19.5516797 0.358088347,15.0953942 0.706445297,10.1020353 C1.71022032,-4.28610566 21.6246964,-1.12089797 25.4984743,6.14100004 Z" id="路径"></path>
                                </g>
                                <g id="Turban" transform="translate(0.264199, 0.064031)">
                                    <g id="path-1-link" fill="#1D7074" fill-rule="nonzero">
                                        <path d="M39.8261184,8.70375516 C39.6855545,7.82629441 39.9638464,7.39563277 36.4559415,4.92360848 C32.9480365,2.45158416 27.2843685,-0.463962796 21.5799812,0.804898148 C14.1770151,2.45158416 11.2366917,7.36281999 8.38196177,9.75045575 C5.80849949,11.902915 3.22639996,12.1539344 1.69616395,14.8247843 C0.165927939,17.4956343 -0.648214959,25.1795438 0.682397417,28.2344249 C2.51790808,32.4484749 6.13755851,33.5833541 8.77987781,34.7974301 C13.3114975,36.8795897 19.7168401,34.6805517 19.872005,34.316277 C21.0722728,31.498454 27.5330613,23.5495438 31.4190695,20.2099327 C34.2766422,17.7541525 40.4858483,12.8220744 39.8261184,8.70375516 Z" id="path-1"></path>
                                    </g>
                                    <g id="SHade-Clipped">
                                        <mask id="mask-6" fill="white">
                                            <use xlink:href="#path-5"></use>
                                        </mask>
                                        <g id="path-1"></g>
                                        <path d="M5.34686312,10.9872823 C7.32080342,19.2071414 12.4462544,26.9742921 20.723216,34.2887346 C11.1459764,28.4746007 5.12955881,20.9716492 2.67396336,11.7798802 L5.34686312,10.9872823 Z M8.32740614,8.06793758 C9.53074743,15.7188226 12.6897093,22.7161967 17.8042919,29.0600596 C11.8405044,24.4061669 7.91121298,17.898809 6.01641755,9.53798574 L8.32740614,8.06793758 Z" id="SHade" fill-opacity="0.2" fill="#000000" fill-rule="nonzero" mask="url(#mask-6)"></path>
                                    </g>
                                </g>
                            </g>
                            <g id="Bottom/Standing/Skirt" transform="translate(97.864609, 141.588752) scale(-1, 1) translate(-97.864609, -141.588752) translate(60.864609, 108.088752)" fill="#32C8CD" fill-rule="nonzero">
                                <path d="M15.442623,3.20823245 C29.8578151,-0.930861631 43.4971598,-0.930861631 56.3606557,3.20823245 C60.8360656,23.7007968 71.7106338,31.8343115 73.6229508,63.2528216 C51.8852459,74.0926679 25.0327869,55.521964 2.6557377,66.0929962 C-3.73770492,51.3067638 5.21311475,15.6975721 15.442623,3.20823245 Z" id="Skirt"></path>
                            </g>
                            <g id="Body" transform="translate(69.318011, 79.770697) scale(-1, 1) rotate(8.000000) translate(-69.318011, -79.770697) translate(7.818011, 21.770697)" fill-rule="nonzero">
                                <path d="M76.7015877,86.425155 L102.039915,78.788761 C106.766801,75.0945641 111.225338,72.393541 115.415528,70.6856911 C116.634183,70.4554055 118.651721,70.5891496 116.130554,73.4604021 C113.609387,76.331654 111.086121,79.465614 111.805956,80.6695424 C112.525792,81.8734707 115.148526,80.9659015 115.907595,82.8729968 C116.41364,84.1443937 112.06839,85.0549946 102.871843,85.6047997 L83.1707926,97.2449317 L76.7015877,86.425155 Z" id="Skin" fill="#B28B67" transform="translate(97.020122, 83.927514) scale(-1, 1) rotate(-180.000000) translate(-97.020122, -83.927514) "></path>
                                <path d="M78.613296,10.8033299 L103.278618,20.3510241 C109.280024,20.3425581 114.457436,20.9523246 118.810853,22.1803235 C119.912634,22.7475382 121.418998,24.0926606 117.66231,24.8075261 C113.905622,25.5223916 109.985222,26.4431125 109.809441,27.8347087 C109.63366,29.2263049 112.25899,30.1222104 111.680341,32.0923605 C111.294574,33.4057939 107.310844,31.4538885 99.7291499,26.2366442 L77.0335376,23.3096895 L78.613296,10.8033299 Z" id="Arm" fill="#B28B67" transform="translate(98.547241, 21.645961) rotate(-36.000000) translate(-98.547241, -21.645961) "></path>
                                <path d="M33.5975857,31.7720889 C50.4219118,49.756433 70.9394213,61.4943581 98.9206787,71.908231 L92.7105393,84.3806541 C63.8422886,81.6408169 48.4086244,79.4544902 36.3054662,61.4435751 C33.267819,56.9232006 27.8344837,41.3706753 24.5798222,33.2941187 L33.5975857,31.7720889 Z" id="Coat-Back" fill="#016065" transform="translate(61.750250, 58.076371) rotate(7.000000) translate(-61.750250, -58.076371) "></path>
                                <path d="M7.27912246,99.2185339 L58.752917,99.2185339 C47.0932407,63.5180463 41.1370354,39.0154509 40.884301,25.7107478 C40.8714164,25.0324612 39.6236363,23.8372244 39.071591,23.9937513 C35.0345435,25.1384156 30.7145841,24.7104153 26.1117128,22.7097502 C13.9088703,42.4130485 9.68891583,66.6717979 7.27912246,99.2185339 Z" id="Shirt" fill="#F2F2F2"></path>
                                <path d="M96.8052041,16.669583 L99.5308585,30.3428304 C78.6647934,43.8158224 57.5361496,54.2525785 39.0222873,52.770078 C47.0626521,87.3908408 46.6921293,115.732328 28.9432208,115.732328 L28.9432208,115.732328 L1.49742999,115.732328 C-2.86159514,86.3220708 8.59477589,45.5440083 19.2156649,24.9758828 C19.6212446,24.1904481 20.4847646,22.7097502 22.5187085,22.7097502 L22.5187085,22.7097502 L30.4936456,22.7097502 C30.4971829,22.7204427 30.5007196,22.7311352 30.5042558,22.7418277 C45.2584282,22.8627996 69.1971348,25.5679522 96.8052041,16.669583 Z" id="Coat-Front" fill="#00939B"></path>
                            </g>
                        </g>
                    </g>
                </g>
            </g>
        </g>
    </g>
</svg>