<?xml version="1.0" encoding="UTF-8"?>
<svg width="252px" height="252px" viewBox="0 0 252 252" version="1.1" xmlns="http://www.w3.org/2000/svg" xmlns:xlink="http://www.w3.org/1999/xlink">
    <title>编组 15</title>
    <defs>
        <rect id="path-1" x="0" y="0" width="252" height="252" rx="126"></rect>
    </defs>
    <g id="页面-1" stroke="none" stroke-width="1" fill="none" fill-rule="evenodd">
        <g id="Hub-pc" transform="translate(-150.000000, -681.000000)">
            <g id="编组-16" transform="translate(0.000000, 601.000000)">
                <g id="编组-29" transform="translate(150.000000, 80.000000)">
                    <mask id="mask-2" fill="white">
                        <use xlink:href="#path-1"></use>
                    </mask>
                    <use id="蒙版" fill="#F8F8F8" xlink:href="#path-1"></use>
                    <g id="upload_flat" mask="url(#mask-2)">
                        <g transform="translate(15.000000, 31.000000)" id="编组-23">
                            <path d="M192.889385,77.0830836 L192.889385,73.3388926 C192.786261,32.993274 159.928859,0.368824232 119.501636,0.471497653 C89.5268071,0.547702468 62.6285236,18.8520918 51.6113991,46.6737835 C19.1345761,51.2364037 -3.48649974,81.2119853 1.08780443,113.623251 C4.99179994,141.285668 27.7184556,162.469262 55.6381618,164.471498 L174.589713,164.471498 C199.857649,164.556991 220.411326,144.186926 220.499998,118.969995 C220.563557,100.695011 209.701119,84.1426479 192.89184,76.8968542 L192.89184,77.0830836 L192.889385,77.0830836 Z" id="路径" fill="#00CBCF" fill-rule="nonzero"></path>
                            <path d="M192.029191,77.5662771 L192.029191,73.8101137 C192.056223,33.3354861 159.279022,0.501013031 118.81498,0.471497653 C78.3533958,0.444473922 45.5295038,33.234699 45.4999979,73.7093266 C45.4729829,114.183954 78.2501838,147.018427 118.714226,147.045468 C124.405633,147.050384 130.077382,146.389122 135.613971,145.081348 C149.648354,166.126188 178.080819,171.804681 199.116419,157.765774 C220.154477,143.726868 225.83114,115.287696 211.796758,94.2403979 C206.871177,86.8563552 199.907227,81.0627225 191.751502,77.5638189 L192.029191,77.5638189 L192.029191,77.5662771 Z" id="路径" fill="#009999" fill-rule="nonzero"></path>
                            <path d="M106.378193,147.471498 L106.378193,108.793381 L129.476141,108.793381 C131.729867,108.760327 133.532409,106.898259 133.499998,104.630724 C133.484163,103.575363 133.066223,102.56632 132.332174,101.812281 L101.397657,70.6860053 C99.8097556,69.0751516 97.2274987,69.0663371 95.6264557,70.6617653 L95.6023634,70.6860053 L64.6678465,101.810077 C63.0887055,103.427542 63.114988,106.027826 64.7226017,107.616643 C65.4716533,108.357063 66.4747692,108.777956 67.5238795,108.791178 L90.0523729,108.791178 L90.0523729,147.469294 L106.378193,147.469294 L106.378193,147.471498 Z" id="路径" fill="#00CBCF" fill-rule="nonzero"></path>
                            <path d="M171.393266,89.6939843 C169.805549,88.0725477 167.223591,88.0636753 165.622734,89.6695851 L165.598644,89.6939843 L134.667711,121.022534 C133.088753,122.650625 133.115033,125.267992 134.72246,126.867247 C135.471425,127.612531 136.474425,128.03619 137.523413,128.049498 L160.292382,128.049498 L160.292382,176.204611 C160.292382,180.769476 163.945228,184.471498 168.454346,184.471498 C172.961275,184.471498 176.616311,180.769476 176.616311,176.204611 L176.616311,128.049498 L199.711582,128.049498 C201.960667,127.885358 203.651312,125.909025 203.489256,123.631028 C203.421367,122.650625 203.007465,121.723456 202.324199,121.022534 L171.393266,89.6939843 Z" id="路径" fill="#FFCC66" fill-rule="nonzero"></path>
                            <path d="M56.8972776,112.464768 C55.58174,111.147351 53.4424037,111.140142 52.1159788,112.444944 L52.096019,112.464768 L26.4675317,137.919215 C25.1592523,139.242038 25.1810267,141.368649 26.5128951,142.668044 C27.133466,143.273587 27.9645228,143.61781 28.8336849,143.628623 L47.6994015,143.628623 L47.6994015,182.754652 C47.6994015,186.463605 50.7260453,189.471498 54.4621721,189.471498 C58.1964844,189.471498 61.2249427,186.463605 61.2249427,182.754652 L61.2249427,143.628623 L80.361025,143.628623 C82.2245521,143.49526 83.6253728,141.889488 83.4910972,140.038616 C83.4348467,139.242038 83.0918996,138.488714 82.5257648,137.919215 L56.8972776,112.464768 Z" id="路径备份-4" fill="#E1E5F0" fill-rule="nonzero"></path>
                        </g>
                    </g>
                </g>
            </g>
        </g>
    </g>
</svg>