<?xml version="1.0" encoding="UTF-8"?>
<svg width="253px" height="252px" viewBox="0 0 253 252" version="1.1" xmlns="http://www.w3.org/2000/svg" xmlns:xlink="http://www.w3.org/1999/xlink">
    <title>编组 15</title>
    <defs>
        <rect id="path-1" x="0" y="0" width="251.003953" height="252" rx="125.501976"></rect>
    </defs>
    <g id="页面-1" stroke="none" stroke-width="1" fill="none" fill-rule="evenodd">
        <g id="Dashboard-pc" transform="translate(-150.000000, -681.000000)">
            <g id="编组-16" transform="translate(0.000000, 601.000000)">
                <g id="编组-27" transform="translate(150.000000, 80.000000)">
                    <mask id="mask-2" fill="white">
                        <use xlink:href="#path-1"></use>
                    </mask>
                    <use id="蒙版" fill="#F8F8F8" xlink:href="#path-1"></use>
                    <g id="1" transform="translate(0.000000, 49.000000)">
                        <g id="编组-14" fill-rule="nonzero">
                            <g id="path-3-link" transform="translate(53.011013, 49.374046)" fill="#009999">
                                <path d="M185.490414,103.045449 L12.350919,103.045449 C5.55224767,103.045449 2.5413603e-13,98.9399564 2.5413603e-13,93.9128227 L2.5413603e-13,9.58265495 C2.5413603e-13,4.55552127 5.55224767,0.45002875 12.350919,0.45002875 L185.490414,0.45002875 C192.289085,0.45002875 197.841333,4.55552127 197.841333,9.58265495 L197.841333,93.8709298 C197.841333,98.9399564 192.289085,103.045449 185.490414,103.045449 Z" id="path-3"></path>
                            </g>
                            <g id="Text" transform="translate(80.563730, 70.563602)">
                                <path d="M25.0622338,54.7370582 C26.8657545,54.7370582 28.3277969,56.2049023 28.3277969,58.0155799 C28.3277969,59.8262574 26.8657545,61.2941016 25.0622338,61.2941016 L3.26556313,61.2941016 C1.46204241,61.2941016 0,59.8262574 0,58.0155799 C0,56.2049023 1.46204241,54.7370582 3.26556313,54.7370582 L25.0622338,54.7370582 Z M58.4890341,54.7370582 C60.2925548,54.7370582 61.7545972,56.2049023 61.7545972,58.0155799 C61.7545972,59.8262574 60.2925548,61.2941016 58.4890341,61.2941016 L36.6923635,61.2941016 C34.8888428,61.2941016 33.4268003,59.8262574 33.4268003,58.0155799 C33.4268003,56.2049023 34.8888428,54.7370582 36.6923635,54.7370582 L58.4890341,54.7370582 Z M91.9158342,54.7370582 C93.7193551,54.7370582 95.1813975,56.2049023 95.1813975,58.0155799 C95.1813975,59.8262574 93.7193551,61.2941016 91.9158342,61.2941016 L70.1191638,61.2941016 C68.3156429,61.2941016 66.8536005,59.8262574 66.8536005,58.0155799 C66.8536005,56.2049023 68.3156429,54.7370582 70.1191638,54.7370582 L91.9158342,54.7370582 Z M140.639645,36.4913721 C142.443166,36.4913721 143.905208,37.9592163 143.905208,39.7698938 C143.905208,41.5805714 142.443166,43.0484155 140.639645,43.0484155 L95.0476252,43.0484155 C93.2441043,43.0484155 91.7820619,41.5805714 91.7820619,39.7698938 C91.7820619,37.9592163 93.2441043,36.4913721 95.0476252,36.4913721 L140.639645,36.4913721 Z M63.5880375,36.4913721 C65.391558,36.4913721 66.8536005,37.9592163 66.8536005,39.7698938 C66.8536005,41.5805714 65.391558,43.0484155 63.5880375,43.0484155 L55.3887094,43.0484155 C53.5851887,43.0484155 52.1231463,41.5805714 52.1231463,39.7698938 C52.1231463,37.9592163 53.5851887,36.4913721 55.3887094,36.4913721 L63.5880375,36.4913721 Z M25.0622338,18.245686 C26.8657545,18.245686 28.3277969,19.7135303 28.3277969,21.5242078 C28.3277969,23.3348853 26.8657545,24.8027295 25.0622338,24.8027295 L3.26556313,24.8027295 C1.46204241,24.8027295 0,23.3348853 0,21.5242078 C0,19.7135303 1.46204241,18.245686 3.26556313,18.245686 L25.0622338,18.245686 Z M58.4890341,18.245686 C60.2925548,18.245686 61.7545972,19.7135303 61.7545972,21.5242078 C61.7545972,23.3348853 60.2925548,24.8027295 58.4890341,24.8027295 L36.6923635,24.8027295 C34.8888428,24.8027295 33.4268003,23.3348853 33.4268003,21.5242078 C33.4268003,19.7135303 34.8888428,18.245686 36.6923635,18.245686 L58.4890341,18.245686 Z M91.9158342,18.245686 C93.7193551,18.245686 95.1813975,19.7135303 95.1813975,21.5242078 C95.1813975,23.3348853 93.7193551,24.8027295 91.9158342,24.8027295 L70.1191638,24.8027295 C68.3156429,24.8027295 66.8536005,23.3348853 66.8536005,21.5242078 C66.8536005,19.7135303 68.3156429,18.245686 70.1191638,18.245686 L91.9158342,18.245686 Z M140.639645,18.245686 C142.443166,18.245686 143.905208,19.7135303 143.905208,21.5242078 C143.905208,23.3348853 142.443166,24.8027295 140.639645,24.8027295 L103.545964,24.8027295 C101.742444,24.8027295 100.280401,23.3348853 100.280401,21.5242078 C100.280401,19.7135303 101.742444,18.245686 103.545964,18.245686 L140.639645,18.245686 Z M43.7585797,0 C45.5621004,0 47.0241429,1.46784417 47.0241429,3.27852171 C47.0241429,5.08919926 45.5621004,6.5570434 43.7585797,6.5570434 L3.26556313,6.5570434 C1.46204241,6.5570434 0,5.08919926 0,3.27852171 C0,1.46784417 1.46204241,0 3.26556313,0 L43.7585797,0 Z M140.639645,0 C142.443166,0 143.905208,1.46784417 143.905208,3.27852171 C143.905208,5.08919926 142.443166,6.5570434 140.639645,6.5570434 L95.0476252,6.5570434 C93.2441043,6.5570434 91.7820619,5.08919926 91.7820619,3.27852171 C91.7820619,1.46784417 93.2441043,0 95.0476252,0 L140.639645,0 Z M83.4174957,0 C85.2210159,0 86.6830584,1.46784417 86.6830584,3.27852171 C86.6830584,5.08919926 85.2210159,6.5570434 83.4174957,6.5570434 L75.2181673,6.5570434 C73.4146465,6.5570434 71.952604,5.08919926 71.952604,3.27852171 C71.952604,1.46784417 73.4146465,0 75.2181673,0 L83.4174957,0 Z" id="Combined-Shape" fill="#E1E5F0"></path>
                                <path d="M43.7585797,36.4913721 C45.5621004,36.4913721 47.0241429,37.9592163 47.0241429,39.7698938 C47.0241429,41.5805714 45.5621004,43.0484155 43.7585797,43.0484155 L3.26556313,43.0484155 C1.46204241,43.0484155 0,41.5805714 0,39.7698938 C0,37.9592163 1.46204241,36.4913721 3.26556313,36.4913721 L43.7585797,36.4913721 Z M83.4174957,36.4913721 C85.2210159,36.4913721 86.6830584,37.9592163 86.6830584,39.7698938 C86.6830584,41.5805714 85.2210159,43.0484155 83.4174957,43.0484155 L75.2181673,43.0484155 C73.4146465,43.0484155 71.952604,41.5805714 71.952604,39.7698938 C71.952604,37.9592163 73.4146465,36.4913721 75.2181673,36.4913721 L83.4174957,36.4913721 Z" id="Code" fill="#FFCC66"></path>
                                <path d="M140.639645,54.7370582 C142.443166,54.7370582 143.905208,56.2049023 143.905208,58.0155799 C143.905208,59.8262574 142.443166,61.2941016 140.639645,61.2941016 L103.545964,61.2941016 C101.742444,61.2941016 100.280401,59.8262574 100.280401,58.0155799 C100.280401,56.2049023 101.742444,54.7370582 103.545964,54.7370582 L140.639645,54.7370582 Z M63.5880375,0 C65.391558,0 66.8536005,1.46784417 66.8536005,3.27852171 C66.8536005,5.08919926 65.391558,6.5570434 63.5880375,6.5570434 L55.3887094,6.5570434 C53.5851887,6.5570434 52.1231463,5.08919926 52.1231463,3.27852171 C52.1231463,1.46784417 53.5851887,0 55.3887094,0 L63.5880375,0 Z" id="Code" fill="#FF5645"></path>
                            </g>
                            <rect id="Placeholder" fill="#00CBCF" x="0.112786614" y="0.431746727" width="93.4817297" height="58.728302" rx="12.8244275"></rect>
                        </g>
                        <g id="UI-/-Code-/-1" stroke-linecap="round" stroke-linejoin="round" transform="translate(11.555639, 10.952834)" stroke="#FFFFFF" stroke-width="6.41221374">
                            <g id="编组">
                                <polyline id="Path" points="18.7187319 5.67096288 0 20.8833514 19.6510825 31.7573922"></polyline>
                                <polyline id="Path" points="49.7107602 31.7573922 68.4980589 18.7423486 48.8469764 5.67096288"></polyline>
                                <line x1="29.7573535" y1="38.2136505" x2="38.3097414" y2="0.212107303" id="Path-Copy-2"></line>
                            </g>
                        </g>
                    </g>
                </g>
            </g>
        </g>
    </g>
</svg>