<?xml version="1.0" encoding="UTF-8"?>
<svg width="30px" height="30px" viewBox="0 0 30 30" version="1.1" xmlns="http://www.w3.org/2000/svg" xmlns:xlink="http://www.w3.org/1999/xlink">
    <title>github</title>
    <g id="页面-1" stroke="none" stroke-width="1" fill="none" fill-rule="evenodd">
        <g id="Front-page" transform="translate(-153.000000, -3019.000000)">
            <rect fill="#FFFFFF" x="0" y="0" width="1440" height="5036"></rect>
            <g id="编组-11" transform="translate(0.000000, 2718.000000)"></g>
            <g id="github-(1)" transform="translate(153.000000, 3019.000000)" fill="#000" fill-rule="nonzero">
                <path d="M15,0 C6.7125,0 0,6.66461981 0,14.8846897 C0,21.4624821 4.2975,27.0405196 10.25625,29.006539 C11.00625,29.1467032 11.28125,28.6865182 11.28125,28.2908335 C11.28125,27.9373221 11.26875,27.0008271 11.2625,25.7604363 C7.09000002,26.6584792 6.21,23.7634071 6.21,23.7634071 C5.5275,22.0454658 4.54125,21.5865212 4.54125,21.5865212 C3.18249999,20.6636705 4.64625,20.6822763 4.64625,20.6822763 C6.15249999,20.7864691 6.94374999,22.2153994 6.94374999,22.2153994 C8.28124998,24.4915165 10.455,23.8341094 11.3125,23.4533094 C11.4475,22.4907661 11.83375,21.8345994 12.2625,21.4624821 C8.93124999,21.0903649 5.43,19.8102816 5.43,14.1069646 C5.43,12.4820527 6.01125,11.1548345 6.97374999,10.1129062 C6.80499999,9.73706783 6.29874999,8.22379105 7.10499999,6.17342505 C7.10499999,6.17342505 8.36124999,5.7740192 11.23,7.69910574 C12.43,7.36792139 13.705,7.20418981 14.98,7.19674746 C16.255,7.20418981 17.53,7.36792139 18.73,7.69910574 C21.58,5.7740192 22.83625,6.17342505 22.83625,6.17342505 C23.6425,8.22379105 23.13625,9.73706783 22.98625,10.1129062 C23.9425,11.1548345 24.52375,12.4820527 24.52375,14.1069646 C24.52375,19.8251663 21.0175,21.0841629 17.68,21.4500782 C18.205,21.8966189 18.6925,22.8095466 18.6925,24.2037458 C18.6925,26.1958135 18.67375,27.7959176 18.67375,28.27967 C18.67375,28.6703931 18.93625,29.1355397 19.705,28.9866928 C25.70625,27.0343176 30,21.452559 30,14.8846897 C30,6.66461981 23.28375,0 15,0" id="路径"></path>
            </g>
        </g>
    </g>
</svg>