<?xml version="1.0" encoding="UTF-8"?>
<svg width="252px" height="252px" viewBox="0 0 252 252" version="1.1" xmlns="http://www.w3.org/2000/svg" xmlns:xlink="http://www.w3.org/1999/xlink">
    <title>编组 15备份</title>
    <g id="页面-1" stroke="none" stroke-width="1" fill="none" fill-rule="evenodd">
        <g id="Box-pc" transform="translate(-1039.000000, -1093.000000)">
            <g id="编组-29" transform="translate(1039.000000, 1093.000000)">
                <rect id="矩形" fill="#FFFFFF" x="0" y="0" width="252" height="252" rx="126"></rect>
                <g id="定制" transform="translate(36.000000, 36.500000)" fill-rule="nonzero">
                    <path d="M118.495852,6.928816 L69.6192958,6.928816 C63.2676971,6.928816 58.119062,12.0301957 58.119062,18.3229033 L58.119062,35.4138628 L86.8699061,35.4138628 L86.8699061,49.6563005 L58.119062,49.6563003 L58.119062,68.6465601 L86.8699061,68.6465601 L86.8699061,82.8889978 L58.119062,82.8889978 L58.119062,101.879258 L86.8699061,101.879258 L86.8699061,116.121695 L58.119062,116.121695 L58.119062,166.445695 C58.119062,172.73806 63.2676971,177.839611 69.6192958,177.839611 L118.495852,177.839611 C124.847278,177.839611 129.996086,172.73806 129.996086,166.445695 L129.996086,18.3229033 C129.996086,12.0301957 124.847277,6.928816 118.495852,6.928816 Z M94.0577498,159.219751 C87.3350647,159.219751 81.8848522,153.791336 81.8848522,147.094673 C81.8848522,140.39766 87.3348888,134.968895 94.0577498,134.968895 C100.780435,134.968895 106.230296,140.397485 106.230296,147.094673 C106.230296,153.79116 100.780259,159.219751 94.0577498,159.219751 Z" id="形状" fill="#00939E" transform="translate(94.057574, 92.384213) rotate(-315.000000) translate(-94.057574, -92.384213) "></path>
                    <g id="编组-23" transform="translate(86.167358, 86.857777) rotate(-45.000000) translate(-86.167358, -86.857777) translate(59.519313, -8.170156)">
                        <polygon id="路径" fill="#00CBCF" points="7.04295178e-13 57.7401334 52.9416788 57.7401334 52.9416788 152.433952 7.06993836e-13 152.433952"></polygon>
                        <path d="M7.04295178e-13,168.601189 L7.04295178e-13,176.916031 C7.04295178e-13,183.803558 5.68895081,189.387637 12.7060182,189.387637 L40.2356606,189.387637 C47.2529192,189.387637 52.9416788,183.803558 52.9416788,176.916031 L52.9416788,168.601189 L7.04295178e-13,168.601189 Z" id="路径" fill="#FF7673"></path>
                        <polygon id="路径" fill="#FFCC66" points="7.04295178e-13 41.572896 26.4708394 0 52.9416788 41.572896"></polygon>
                    </g>
                </g>
            </g>
        </g>
    </g>
</svg>