<svg width="446" height="65" viewBox="0 0 446 65" fill="none" xmlns="http://www.w3.org/2000/svg">
<path d="M41.8643 0.819998V13.15H16.1243V26.47H35.3843V38.44H16.1243V64H0.734297V0.819998H41.8643ZM65.343 13.15V25.93H85.953V37.81H65.343V51.67H88.653V64H49.953V0.819998H88.653V13.15H65.343ZM137.974 52.84H114.394L110.614 64H94.5045L117.364 0.819998H135.184L158.044 64H141.754L137.974 52.84ZM134.014 40.96L126.184 17.83L118.444 40.96H134.014ZM210.452 0.819998V13.15H193.712V64H178.322V13.15H161.582V0.819998H210.452ZM233.296 0.819998V38.62C233.296 42.4 234.226 45.31 236.086 47.35C237.946 49.39 240.676 50.41 244.276 50.41C247.876 50.41 250.636 49.39 252.556 47.35C254.476 45.31 255.436 42.4 255.436 38.62V0.819998H270.826V38.53C270.826 44.17 269.626 48.94 267.226 52.84C264.826 56.74 261.586 59.68 257.506 61.66C253.486 63.64 248.986 64.63 244.006 64.63C239.026 64.63 234.556 63.67 230.596 61.75C226.696 59.77 223.606 56.83 221.326 52.93C219.046 48.97 217.906 44.17 217.906 38.53V0.819998H233.296ZM313.853 64L300.713 40.15H297.023V64H281.633V0.819998H307.463C312.443 0.819998 316.673 1.69 320.153 3.43C323.693 5.17 326.333 7.57 328.073 10.63C329.813 13.63 330.683 16.99 330.683 20.71C330.683 24.91 329.483 28.66 327.083 31.96C324.743 35.26 321.263 37.6 316.643 38.98L331.223 64H313.853ZM297.023 29.26H306.563C309.383 29.26 311.483 28.57 312.863 27.19C314.303 25.81 315.023 23.86 315.023 21.34C315.023 18.94 314.303 17.05 312.863 15.67C311.483 14.29 309.383 13.6 306.563 13.6H297.023V29.26ZM355.734 13.15V25.93H376.344V37.81H355.734V51.67H379.044V64H340.344V0.819998H379.044V13.15H355.734ZM412.705 0.819998C419.365 0.819998 425.185 2.14 430.165 4.78C435.145 7.42 438.985 11.14 441.685 15.94C444.445 20.68 445.825 26.17 445.825 32.41C445.825 38.59 444.445 44.08 441.685 48.88C438.985 53.68 435.115 57.4 430.075 60.04C425.095 62.68 419.305 64 412.705 64H389.035V0.819998H412.705ZM411.715 50.68C417.535 50.68 422.065 49.09 425.305 45.91C428.545 42.73 430.165 38.23 430.165 32.41C430.165 26.59 428.545 22.06 425.305 18.82C422.065 15.58 417.535 13.96 411.715 13.96H404.425V50.68H411.715Z" fill="white"/>
</svg>
