<svg width="64" height="64" viewBox="0 0 64 64" fill="none" xmlns="http://www.w3.org/2000/svg">
<rect width="64" height="64" rx="32" fill="#FBCB67"/>
<path d="M41.3684 35.6729C40.9585 36.0702 40.7701 36.6448 40.8635 37.2083L42.2706 44.9957C42.3894 45.6557 42.1108 46.3237 41.5584 46.7051C41.0171 47.1008 40.2969 47.1483 39.7065 46.8318L32.6962 43.1755C32.4525 43.0457 32.1818 42.976 31.9048 42.9681H31.4759C31.3271 42.9903 31.1815 43.0378 31.0485 43.1106L24.0367 46.7843C23.69 46.9584 23.2975 47.0201 22.9129 46.9584C21.9758 46.7811 21.3506 45.8884 21.5042 44.9466L22.9129 37.1592C23.0063 36.591 22.8179 36.0132 22.408 35.6096L16.6924 30.0698C16.2144 29.606 16.0482 28.9096 16.2666 28.2812C16.4787 27.6544 17.0201 27.197 17.6738 27.0941L25.5403 25.9529C26.1386 25.8912 26.6641 25.5271 26.9332 24.989L30.3996 17.8821C30.4819 17.7239 30.5879 17.5782 30.7161 17.4548L30.8586 17.344C30.933 17.2617 31.0184 17.1936 31.1134 17.1382L31.2859 17.0749L31.555 16.9641H32.2214C32.8165 17.0258 33.3404 17.382 33.6143 17.9138L37.1265 24.989C37.3798 25.5065 37.872 25.8658 38.4402 25.9529L46.3068 27.0941C46.9716 27.1891 47.5272 27.6481 47.7472 28.2812C47.9545 28.9159 47.7757 29.6124 47.2882 30.0698L41.3684 35.6729Z" fill="white"/>
</svg>
