<?xml version="1.0" encoding="UTF-8"?>
<svg width="320px" height="320px" viewBox="0 0 320 320" version="1.1" xmlns="http://www.w3.org/2000/svg" xmlns:xlink="http://www.w3.org/1999/xlink">
    <title>Dashboard (1)</title>
    <g id="页面-1" stroke="none" stroke-width="1" fill="none" fill-rule="evenodd">
        <g id="Hub-pc" transform="translate(-970.000000, -181.000000)" fill-rule="nonzero">
            <g id="编组-41" transform="translate(970.000000, 181.000000)">
                <g id="Dashboard-(1)" transform="translate(36.363636, 36.363636)">
                    <path d="M100.828833,139.60617 L12.1177198,92.5960153 C4.66181554,88.6424585 0,80.8946345 0,72.4566598 C0,64.018685 4.66181554,56.270861 12.1177198,52.3173042 L100.828833,5.30714914 C114.184441,-1.76904971 130.179195,-1.76904971 143.534803,5.30714914 L232.245917,52.3173042 C239.701821,56.270861 244.363636,64.018685 244.363636,72.4566598 C244.363636,80.8946345 239.701821,88.6424585 232.245917,92.5960153 L143.534803,139.60617 C130.179195,146.682369 114.184441,146.682369 100.828833,139.60617 L100.828833,139.60617 Z" id="路径" fill="#FFCC66"></path>
                    <path d="M122.181818,244.363636 C113.601592,244.36124 105.152283,242.284673 97.5709612,238.315083 L16.9332075,196.095702 C6.5153797,190.644738 0,179.951685 0,168.304891 C0,156.658096 6.5153797,145.965043 16.9332075,140.514079 C22.3485344,137.672638 29.0700238,139.706357 31.9460742,145.056518 C34.8221246,150.40668 32.7636344,157.047286 27.3483075,159.888727 C24.2031361,161.541228 22.2375462,164.773436 22.2375462,168.292842 C22.2375462,171.812248 24.2031361,175.044456 27.3483075,176.696957 L107.96167,218.928387 C116.853708,223.593796 127.509928,223.593796 136.401966,218.928387 L217.015329,176.696957 C220.1605,175.044456 222.12609,171.812248 222.12609,168.292842 C222.12609,164.773436 220.1605,161.541228 217.015329,159.888727 C211.600002,157.047286 209.541512,150.40668 212.417562,145.056518 C215.293613,139.706357 222.015102,137.672638 227.430429,140.514079 C237.848257,145.965043 244.363636,156.658096 244.363636,168.304891 C244.363636,179.951685 237.848257,190.644738 227.430429,196.095702 L146.792675,238.315083 C139.211353,242.284673 130.762044,244.36124 122.181818,244.363636 Z" id="路径" fill="#FFFFFF"></path>
                </g>
            </g>
        </g>
    </g>
</svg>