<svg width="516" height="516" viewBox="0 0 516 516" fill="none" xmlns="http://www.w3.org/2000/svg">
<path d="M280.352 377.631C280.469 378.296 280.024 378.93 279.359 379.046C272.354 380.274 265.216 380.896 258 380.896C257.325 380.896 256.777 380.349 256.777 379.673C256.777 378.998 257.325 378.45 258 378.45C265.075 378.45 272.071 377.841 278.937 376.637C279.602 376.521 280.236 376.966 280.352 377.631ZM380.548 248.688C380.78 251.776 380.896 254.881 380.896 258C380.896 266.136 380.105 274.171 378.548 282.026C378.417 282.689 377.773 283.119 377.111 282.988C376.449 282.857 376.018 282.213 376.149 281.551C377.675 273.852 378.45 265.976 378.45 258C378.45 254.942 378.336 251.898 378.11 248.871C378.059 248.198 378.564 247.611 379.238 247.56C379.911 247.51 380.498 248.015 380.548 248.688ZM248.509 136.686C248.568 137.359 248.07 137.952 247.397 138.01C189.886 143.025 143.883 188.487 138.151 245.886C138.084 246.558 137.485 247.049 136.813 246.981C136.141 246.914 135.651 246.315 135.718 245.643C141.566 187.075 188.502 140.691 247.185 135.574C247.857 135.515 248.45 136.013 248.509 136.686Z" fill="#FFEAEA"/>
<path d="M202.704 434.429C220.446 439.984 239.03 442.842 258 442.842C266.786 442.842 275.494 442.229 284.083 441.016C284.751 440.922 285.37 441.387 285.464 442.056C285.559 442.725 285.093 443.343 284.425 443.438C275.723 444.667 266.9 445.287 258 445.287C238.782 445.287 219.951 442.392 201.973 436.763C201.329 436.561 200.97 435.875 201.172 435.231C201.374 434.586 202.06 434.227 202.704 434.429ZM439.514 211.673C443.335 226.691 445.288 242.218 445.288 258C445.288 269.913 444.175 281.684 441.983 293.208C441.857 293.871 441.217 294.307 440.554 294.181C439.89 294.055 439.455 293.414 439.581 292.751C441.744 281.378 442.842 269.759 442.842 258C442.842 242.421 440.915 227.098 437.144 212.276C436.977 211.622 437.373 210.956 438.027 210.79C438.682 210.623 439.347 211.019 439.514 211.673ZM258 70.7124C258.676 70.7124 259.223 71.2598 259.223 71.9352C259.223 72.6105 258.676 73.1579 258 73.1579C155.915 73.1579 73.1584 155.914 73.1584 258C73.1584 258.675 72.6109 259.223 71.9356 259.223C71.2603 259.223 70.7129 258.675 70.7129 258C70.7129 154.564 154.564 70.7124 258 70.7124Z" fill="#FDF4EC"/>
<path d="M382.528 31.9885C464.203 77.0852 516 162.992 516 258C516 400.489 400.489 516 258 516C168.387 516 86.6688 469.948 39.6991 395.572C39.3385 395.001 39.5101 394.245 40.0801 393.885C40.6511 393.524 41.4062 393.695 41.7668 394.266C88.293 467.94 169.235 513.555 258 513.555C399.139 513.555 513.555 399.139 513.555 258C513.555 163.891 462.249 78.7998 381.346 34.1293C380.755 33.8029 380.54 33.0591 380.867 32.4679C381.193 31.8767 381.937 31.6621 382.528 31.9885ZM23.8379 152.47C24.4547 152.744 24.732 153.467 24.4571 154.084C10.01 186.504 2.4455 221.718 2.4455 258C2.4455 280.282 5.2971 302.187 10.8725 323.333C11.0446 323.986 10.6548 324.655 10.0019 324.827C9.34887 324.999 8.67995 324.609 8.50778 323.956C2.87888 302.607 0 280.493 0 258C0 221.374 7.63728 185.82 22.2233 153.089C22.4982 152.472 23.2211 152.195 23.8379 152.47ZM258 0C283.454 0 308.415 3.68689 332.318 10.865C332.965 11.0592 333.332 11.741 333.138 12.3877C332.943 13.0345 332.262 13.4014 331.615 13.2071C307.939 6.0974 283.215 2.4455 258 2.4455C187.83 2.4455 122.186 30.8629 74.3459 80.2941C73.8762 80.7794 73.1021 80.7921 72.6169 80.3224C72.1316 79.8528 72.1189 79.0787 72.5886 78.5934C120.885 28.691 187.16 0 258 0Z" fill="#FFEAEA"/>
<g opacity="0.5">
<mask id="mask0" mask-type="alpha" maskUnits="userSpaceOnUse" x="36" y="254" width="156" height="156">
<path d="M128.877 257.176C132.841 253.212 139.646 253.592 144.076 258.023L191.92 305.867L87.8674 409.92L40.0234 362.076C35.5927 357.645 35.2133 350.839 39.1761 346.877L128.877 257.176Z" fill="white"/>
</mask>
<g mask="url(#mask0)">
<path d="M132.877 260.176C136.841 256.212 143.646 256.592 148.076 261.023L195.92 308.867L91.8674 412.92L44.0234 365.076C39.5927 360.645 39.2133 353.839 43.1761 349.877L132.877 260.176Z" fill="#FBCB67"/>
</g>
</g>
<g opacity="0.5">
<mask id="mask1" mask-type="alpha" maskUnits="userSpaceOnUse" x="99" y="317" width="155" height="156">
<path d="M251.785 380.084C254.174 372.905 253.892 367.838 250.938 364.885L203.652 317.599C203.344 317.291 202.844 317.291 202.535 317.599L99.5995 420.535C99.291 420.843 99.291 421.344 99.5995 421.652L146.885 468.938C151.316 473.368 158.121 473.748 162.084 469.785L251.785 380.084Z" fill="white"/>
</mask>
<g mask="url(#mask1)">
<path d="M255.785 383.084C258.174 375.905 257.892 370.838 254.938 367.885L207.652 320.599C207.344 320.291 206.844 320.291 206.535 320.599L103.6 423.535C103.291 423.843 103.291 424.344 103.6 424.652L150.885 471.938C155.316 476.368 162.121 476.748 166.084 472.785L255.785 383.084Z" fill="#FBCB67"/>
</g>
</g>
<path d="M209.013 209.095C236.084 182.024 279.976 182.024 307.047 209.095C334.118 236.166 334.118 280.057 307.047 307.129C279.976 334.2 236.084 334.2 209.013 307.129C181.942 280.057 181.942 236.166 209.013 209.095ZM235.683 235.765C223.341 248.107 223.341 268.117 235.683 280.459C248.025 292.801 268.035 292.801 280.377 280.459C292.719 268.117 292.719 248.107 280.377 235.765C268.035 223.423 248.025 223.423 235.683 235.765Z" fill="#009191"/>
<mask id="mask2" mask-type="alpha" maskUnits="userSpaceOnUse" x="23" y="253" width="157" height="156">
<path d="M116.074 255.93C120.038 251.966 126.843 252.347 131.274 256.778L179.118 304.622L75.0646 408.674L27.2207 360.831C22.79 356.4 22.4105 349.594 26.3733 345.631L116.074 255.93Z" fill="white"/>
</mask>
<g mask="url(#mask2)">
<path d="M116.074 255.93C120.038 251.966 126.843 252.347 131.274 256.778L179.118 304.622L75.0646 408.674L27.2207 360.831C22.79 356.4 22.4105 349.594 26.3733 345.631L116.074 255.93Z" fill="#FBCB67"/>
</g>
<path opacity="0.5" d="M363.833 32.167C367.797 28.2033 374.192 28.1742 378.118 32.0999L420.509 74.4907L316.456 178.544L274.065 136.153C270.139 132.227 270.169 125.831 274.132 121.868L363.833 32.167Z" fill="#FF7673"/>
<path opacity="0.5" d="M390.649 237.35C386.686 241.314 380.292 241.345 376.368 237.421L334 195.052L438.053 90.9993L480.421 133.368C484.345 137.292 484.313 143.686 480.35 147.649L390.649 237.35Z" fill="#FF7673"/>
<path d="M345.434 26.7681C349.397 22.8043 356.202 23.1848 360.633 27.6154L408.477 75.4594L304.424 179.512L256.58 131.668C252.149 127.238 251.77 120.432 255.733 116.469L345.434 26.7681Z" fill="#FF7673"/>
<path d="M376.043 237.744C372.079 241.708 365.274 241.327 360.844 236.897L313 189.053L417.053 84.9998L464.897 132.844C469.327 137.274 469.707 144.08 465.744 148.043L376.043 237.744Z" fill="#FF7673"/>
<mask id="mask3" mask-type="alpha" maskUnits="userSpaceOnUse" x="86" y="316" width="155" height="156">
<path d="M238.982 378.838C241.371 371.659 241.089 366.593 238.135 363.639L190.85 316.354C190.541 316.045 190.041 316.045 189.732 316.354L86.7968 419.289C86.4882 419.598 86.4882 420.098 86.7968 420.407L134.082 467.692C138.513 472.123 145.319 472.502 149.282 468.539L238.982 378.838Z" fill="white"/>
</mask>
<g mask="url(#mask3)">
<path d="M238.982 378.838C241.371 371.659 241.089 366.593 238.135 363.639L190.85 316.354C190.541 316.045 190.041 316.045 189.732 316.354L86.7968 419.289C86.4882 419.598 86.4882 420.098 86.7968 420.407L134.082 467.692C138.513 472.123 145.319 472.502 149.282 468.539L238.982 378.838Z" fill="#FBCB67"/>
</g>
<path d="M404.329 321.269C408.629 310.76 420.33 305.413 431.061 308.979L431.453 309.114L431.903 309.273C443.255 313.286 449.205 325.742 445.192 337.094C445.117 337.305 445.04 337.514 444.956 337.728L444.827 338.053L444.585 338.644C434.821 362.24 420.741 383.924 402.736 402.772L401.75 403.798L399.37 406.217C384.152 421.435 366.933 434.036 348.19 443.793L346.88 444.469L345.246 445.286L344.064 445.86L342.826 446.448C332.422 451.34 320.022 446.872 315.13 436.468C314.835 435.842 314.572 435.201 314.341 434.548C310.452 423.547 315.297 411.398 325.683 406.03L326.075 405.832L327.103 405.343L328.348 404.698C342.131 397.479 354.884 388.289 366.286 377.279L367.351 376.241L368.376 375.224C383.42 360.18 395.205 342.687 403.367 323.572L403.862 322.399L404.329 321.269ZM344.487 300.875L344.693 300.401C349.293 289.676 361.426 284.36 372.429 288.249C383.72 292.241 389.638 304.63 385.647 315.922C385.516 316.292 385.374 316.66 385.223 317.024L384.929 317.725L384.628 318.432L384.077 319.694L383.7 320.531L383.502 320.96L382.982 322.063C376.491 335.513 367.923 347.937 357.425 358.985L356.465 359.986L354.815 361.663C347.416 369.062 339.334 375.58 330.651 381.176L329.463 381.933L328.076 382.794L326.84 383.45L321.279 386.285C311.396 391.285 299.331 387.326 294.331 377.443C293.942 376.675 293.604 375.884 293.318 375.074C289.506 364.291 293.784 352.342 303.552 346.381L303.945 346.146L304.417 345.877L305.468 345.235C310.882 341.878 315.99 338 320.718 333.649L321.658 332.772L322.588 331.883L323.822 330.67C331.942 322.55 338.524 313.275 343.412 303.192L343.895 302.18L344.072 301.802L344.487 300.875Z" fill="#D9F5F5"/>
<path d="M484.208 229.877C487.585 229.877 490.322 227.14 490.322 223.763C490.322 220.387 487.585 217.649 484.208 217.649C480.832 217.649 478.095 220.387 478.095 223.763C478.095 227.14 480.832 229.877 484.208 229.877Z" fill="#CFCFCF" fill-opacity="0.401203"/>
<path d="M42.7962 448.749C44.8221 448.749 46.4644 447.106 46.4644 445.08C46.4644 443.054 44.8221 441.412 42.7962 441.412C40.7703 441.412 39.1279 443.054 39.1279 445.08C39.1279 447.106 40.7703 448.749 42.7962 448.749Z" fill="#FBCB67"/>
<path d="M48.9096 53.8007C52.2862 53.8007 55.0234 51.0635 55.0234 47.687C55.0234 44.3105 52.2862 41.5732 48.9096 41.5732C45.5331 41.5732 42.7959 44.3105 42.7959 47.687C42.7959 51.0635 45.5331 53.8007 48.9096 53.8007Z" fill="#CFCFCF" fill-opacity="0.401203"/>
<path opacity="0.5" d="M490.114 71.2275C493.49 71.2275 496.227 68.4903 496.227 65.1137C496.227 61.7372 493.49 59 490.114 59C486.737 59 484 61.7372 484 65.1137C484 68.4903 486.737 71.2275 490.114 71.2275Z" fill="#F29A71"/>
<g opacity="0.604784">
<path opacity="0.604784" fill-rule="evenodd" clip-rule="evenodd" d="M58.9493 112.823L59.7336 113.897L60.482 114.941L61.2482 116.024L62.0322 117.147L63.2414 118.907L64.0699 120.129L64.916 121.392L65.7799 122.694L66.6615 124.035L67.5609 125.417L68.9431 127.563L69.5638 128.538C64.7308 135.483 56.8463 140.145 47.8525 140.582L48.1533 139.99L48.4489 139.403L49.3096 137.674L50.135 135.984L50.9251 134.334L51.68 132.724C54.3831 126.892 56.3751 121.859 57.6563 117.622L57.717 117.42L57.7777 117.216L58.0215 116.372L58.2665 115.487L58.5127 114.561L58.7602 113.593L58.9493 112.823ZM29.902 125.573L30.0661 125.858C32.3712 129.777 35.9166 134.18 40.7038 139.079L41.3087 139.694L41.8546 140.24C37.2089 139.474 32.9471 137.57 29.3653 134.823C29.4456 131.599 29.6245 128.516 29.902 125.573ZM49.9976 102.26L50.6744 102.937L50.8712 103.137L51.0653 103.335L51.8164 104.115L52.5264 104.873L52.6974 105.058L52.8659 105.243L53.5142 105.965L53.8013 106.293L54.0929 106.631L54.6895 107.336L55.304 108.082L55.9363 108.867L56.5866 109.692L57.0369 110.275L56.8884 110.932L56.6424 111.967L56.3978 112.96L56.1548 113.912L55.9131 114.822L55.6729 115.69L55.4342 116.517L55.1409 117.482L54.9576 118.06L54.7655 118.648L54.3549 119.854C54.0124 120.835 53.6362 121.854 53.2263 122.912L52.9125 123.713L52.3614 125.08C51.9066 126.189 51.418 127.337 50.8956 128.523L50.4976 129.42L49.8061 130.947L49.6277 131.335L49.4471 131.726L48.7029 133.313L48.5114 133.715L48.3177 134.121L47.5208 135.768L47.3161 136.186L47.1092 136.606L46.2597 138.313L45.3751 140.06C45.3499 140.109 45.3284 140.159 45.3102 140.21C39.1755 134.279 34.7958 129.075 32.1739 124.618C32.0113 124.341 31.8462 124.052 31.6788 123.751L31.6041 123.615C32.4698 122.832 33.0138 121.7 33.0138 120.441C33.0138 118.945 32.2469 117.629 31.0849 116.864C31.5726 114.178 32.1616 111.636 32.8513 109.237L32.9034 109.057L32.9565 108.877L33.7339 108.49L34.8547 107.941L35.9426 107.421L36.9978 106.927L38.0202 106.462L39.0097 106.024L39.9664 105.614L40.8903 105.231L41.1161 105.139L41.3399 105.05L42.2144 104.708L43.056 104.394L43.259 104.321L43.4647 104.248L44.3141 103.954L44.5331 103.88L44.7548 103.806L45.6684 103.512L45.9034 103.438L46.1412 103.364L47.1188 103.068L48.1392 102.772L49.2022 102.475L49.9976 102.26ZM24.3235 113.46L24.5009 113.908L24.9738 115.08L25.4393 116.21L25.8787 117.253C25.0046 118.036 24.4546 119.174 24.4546 120.441C24.4546 122.392 25.7605 124.038 27.546 124.553C27.2787 127.183 27.0915 129.924 26.9831 132.774C22.6081 128.573 19.5899 122.968 18.651 116.684L20.7274 115.487L22.1751 114.664L23.59 113.867L24.3235 113.46ZM70.5158 97.9099C73.0994 102.162 74.5873 107.154 74.5873 112.493C74.5873 117.488 73.2851 122.178 71.0018 126.244L70.9989 126.239L69.6034 124.072L68.2475 121.994L67.3656 120.659L66.0758 118.73L64.8256 116.891L63.6149 115.14L62.8297 114.023L62.062 112.945L61.3119 111.908L60.2196 110.425L59.6744 109.7L60.0164 108.135L60.2714 106.92L60.5277 105.663L60.9146 103.699L61.1113 102.671C63.0224 102.41 64.5316 100.886 64.7719 98.9686L65.2848 98.8676L67.7261 98.4114L69.4068 98.1067L70.5158 97.9099ZM30.0011 110.39C29.5298 112.205 29.1118 114.093 28.747 116.053L28.7268 116.161L28.4994 116.167C28.3619 116.175 28.2261 116.189 28.0923 116.209L27.8932 115.739L27.4401 114.65L26.9793 113.517L26.5106 112.343L26.4817 112.271L27.6392 111.644L28.9236 110.958L30.0011 110.39ZM20.2202 102.363L20.4449 103.008L20.9785 104.519L21.7646 106.706L22.5336 108.797L23.0368 110.138L23.426 111.16L22.4222 111.718L20.263 112.937L18.7829 113.783L18.3814 114.016C18.3544 113.512 18.3408 113.004 18.3408 112.493C18.3408 108.922 19.0064 105.506 20.2202 102.363ZM33.3196 87.6242L33.3901 87.6976L33.4678 87.7659L35.5633 89.4719L35.7254 89.6059C35.5533 90.0695 35.4593 90.5711 35.4593 91.0947C35.4593 92.3673 36.0148 93.5102 36.8966 94.2941C34.409 98.4706 32.5037 102.502 31.1823 106.391L30.9269 107.163L30.3277 107.467L29.0913 108.107L27.8224 108.774L26.5211 109.469L25.5891 109.973L25.5497 109.866L24.8087 107.898L24.305 106.533L23.7935 105.126L23.2743 103.676L22.481 101.423L21.9425 99.8675C21.8713 99.6603 21.7499 99.4846 21.5966 99.3493C24.206 94.4182 28.2421 90.3561 33.1546 87.7121L33.3196 87.6242ZM58.6915 102.299L58.6503 102.522L58.3943 103.848L58.013 105.76L57.7606 106.982L57.7178 107.179L57.6082 107.042L57.4992 106.907L56.8627 106.126L56.2438 105.385L55.6422 104.683L55.348 104.347L55.1856 104.164L55.0207 103.979L54.3354 103.227L54.1577 103.035L53.9774 102.842L53.2309 102.056L52.7439 101.556L53.8813 101.281L55.8118 100.831L56.8369 100.602C57.2702 101.337 57.9168 101.931 58.6915 102.299ZM41.8881 94.7963L43.5787 96.2764L44.6581 97.2383L44.9216 97.4753L45.1825 97.7108L46.2004 98.6387L47.1773 99.5438L47.9593 100.281L47.955 100.283L46.8935 100.586L45.8742 100.888L44.8973 101.191L43.9627 101.493L43.0704 101.794L42.64 101.945L42.2203 102.096L41.3558 102.418L40.459 102.768L39.5299 103.146L38.5686 103.551L38.3232 103.656L38.0758 103.763L37.066 104.21L36.0238 104.684L34.9494 105.185L34.0609 105.609C35.3107 102.304 36.9992 98.8765 39.1274 95.3291C39.3273 95.3595 39.5314 95.3743 39.7389 95.3743C40.5223 95.3743 41.2565 95.1638 41.8881 94.7963ZM46.4641 84.3691C51.8075 84.3696 56.8028 85.8598 61.0572 88.4473L60.7482 90.4162L60.4811 92.0747L60.1349 94.1692C58.0218 94.3604 56.352 96.0877 56.2509 98.2255L55.8879 98.3067L54.5508 98.6116L53.2562 98.9161L52.004 99.2204L50.7942 99.5243L50.758 99.5335L50.7218 99.5428L50.2961 99.1303L49.3656 98.2441L48.3941 97.3355L48.1449 97.1049L47.8931 96.8729L46.8602 95.9309L45.7865 94.9665L44.6718 93.9797L43.5655 93.0131C43.8554 92.4361 44.0185 91.7844 44.0185 91.0947C44.0185 90.2795 43.7906 89.5176 43.3951 88.8692C44.2809 87.6341 45.2181 86.385 46.2047 85.1225C46.3797 84.8986 46.4644 84.6328 46.4641 84.3691ZM63.2949 89.9599C65.4673 91.5851 67.3968 93.5172 69.0193 95.6918L68.9674 95.701L66.436 96.1628L64.3728 96.5542C63.976 95.7426 63.33 95.0751 62.5345 94.6514L62.6245 94.1131L63.0269 91.652L63.2949 89.9599ZM43.5811 84.5165C42.8837 85.4258 42.2111 86.3288 41.5634 87.2256C41.0126 86.9618 40.3929 86.8151 39.7389 86.8151C38.7879 86.8151 37.9093 87.1253 37.1989 87.65L37.1231 87.5884L35.7618 86.4776C38.1142 85.5088 40.6268 84.8498 43.2489 84.5513L43.5811 84.5165Z" fill="#FF7673"/>
</g>
<circle cx="267" cy="250" r="8" fill="#009999"/>
</svg>
