<?xml version="1.0" encoding="UTF-8"?>
<svg width="88px" height="88px" viewBox="0 0 88 88" version="1.1" xmlns="http://www.w3.org/2000/svg" xmlns:xlink="http://www.w3.org/1999/xlink">
    <title>Dashboard (1)</title>
    <g id="页面-1" stroke="none" stroke-width="1" fill="none" fill-rule="evenodd">
        <g id="Front-page-pc" transform="translate(-176.000000, -1855.000000)">
            <g id="编组-25" transform="translate(175.000000, 1678.000000)"></g>
            <g id="Dashboard-(1)" transform="translate(186.000000, 1865.000000)" fill-rule="nonzero">
                <path d="M27.7279291,38.3916968 L3.33237295,25.4639042 C1.28199927,24.3766761 0,22.2460245 0,19.9255814 C0,17.6051384 1.28199927,15.4744868 3.33237295,14.3872586 L27.7279291,1.45946601 C31.4007212,-0.486488671 35.7992788,-0.486488671 39.4720709,1.45946601 L63.8676271,14.3872586 C65.9180007,15.4744868 67.2,17.6051384 67.2,19.9255814 C67.2,22.2460245 65.9180007,24.3766761 63.8676271,25.4639042 L39.4720709,38.3916968 C35.7992788,40.3376515 31.4007212,40.3376515 27.7279291,38.3916968 L27.7279291,38.3916968 Z" id="路径" fill="#FFCC66"></path>
                <path d="M33.6,67.2 C31.2404378,67.199341 28.9168779,66.6282851 26.8320143,65.5366479 L4.65663207,53.926318 C1.79172942,52.4273031 0,49.4867134 0,46.2838449 C0,43.0809764 1.79172942,40.1403868 4.65663207,38.6413718 C6.14584696,37.8599754 7.99425654,38.4192483 8.78517041,39.8905426 C9.57608428,41.3618369 9.00999945,43.1880035 7.52078456,43.9693999 C6.65586243,44.4238376 6.11532522,45.3126948 6.11532522,46.2805315 C6.11532522,47.2483682 6.65586243,48.1372254 7.52078456,48.5916631 L29.6894592,60.2053064 C32.1347697,61.4882938 35.0652303,61.4882938 37.5105408,60.2053064 L59.6792154,48.5916631 C60.5441376,48.1372254 61.0846748,47.2483682 61.0846748,46.2805315 C61.0846748,45.3126948 60.5441376,44.4238376 59.6792154,43.9693999 C58.1900005,43.1880035 57.6239157,41.3618369 58.4148296,39.8905426 C59.2057435,38.4192483 61.054153,37.8599754 62.5433679,38.6413718 C65.4082706,40.1403868 67.2,43.0809764 67.2,46.2838449 C67.2,49.4867134 65.4082706,52.4273031 62.5433679,53.926318 L40.3679857,65.5366479 C38.2831221,66.6282851 35.9595622,67.199341 33.6,67.2 Z" id="路径" fill="#009999"></path>
            </g>
        </g>
    </g>
</svg>