<svg width="604" height="497" viewBox="0 0 604 497" fill="none" xmlns="http://www.w3.org/2000/svg">
<rect opacity="0.5" x="16" y="16" width="459" height="481" rx="20" fill="#FBCB67"/>
<rect width="459" height="481" rx="20" fill="#FBCB67"/>
<rect x="83" y="417" width="292" height="24" rx="4" fill="white"/>
<path d="M367 421C367 418.791 368.791 417 371 417C373.209 417 375 418.791 375 421V437C375 439.209 373.209 441 371 441C368.791 441 367 439.209 367 437V421Z" fill="#F9F9F9"/>
<rect x="83" y="228" width="40" height="169" rx="4" fill="white"/>
<path d="M115 232C115 229.791 116.791 228 119 228C121.209 228 123 229.791 123 232V393C123 395.209 121.209 397 119 397C116.791 397 115 395.209 115 393V232Z" fill="#F9F9F9"/>
<rect x="167" y="246" width="40" height="151" rx="4" fill="white"/>
<path d="M199 250C199 247.791 200.791 246 203 246C205.209 246 207 247.791 207 250V393C207 395.209 205.209 397 203 397C200.791 397 199 395.209 199 393V250Z" fill="#F9F9F9"/>
<rect x="335" y="300" width="40" height="97" rx="4" fill="white"/>
<path d="M367 304C367 301.791 368.791 300 371 300C373.209 300 375 301.791 375 304V393C375 395.209 373.209 397 371 397C368.791 397 367 395.209 367 393V304Z" fill="#F9F9F9"/>
<rect x="251" y="216" width="40" height="181" rx="4" fill="white"/>
<path d="M283 220C283 217.791 284.791 216 287 216C289.209 216 291 217.791 291 220V393C291 395.209 289.209 397 287 397C284.791 397 283 395.209 283 393V220Z" fill="#F9F9F9"/>
<rect x="67" y="56" width="331" height="128" rx="8" fill="#F9F9F9"/>
<rect x="51" y="40" width="331" height="128" rx="8" fill="white"/>
<rect x="176" y="115" width="179" height="24" rx="4" fill="#F1F1F1"/>
<rect x="176" y="75" width="179" height="24" rx="4" fill="#F1F1F1"/>
<circle cx="112" cy="104" r="40" fill="#F1F1F1"/>
<rect opacity="0.5" x="452.724" y="173" width="160" height="160" rx="20" transform="rotate(20 452.724 173)" fill="#FF6666"/>
<rect x="444.724" y="158" width="160" height="160" rx="20" transform="rotate(20 444.724 158)" fill="#FF6666"/>
<circle cx="492.538" cy="260.538" r="50" fill="#F9F9F9"/>
<path d="M492.538 210.538C464.924 210.538 442.538 232.924 442.538 260.538H492.538V210.538Z" fill="#FFCC66"/>
<path d="M492.538 260.538V210.538C481.282 210.538 470.895 214.258 462.538 220.534L492.538 260.538Z" fill="#32C8CD"/>
<circle cx="475" cy="92" r="12" fill="#EB6161"/>
<circle cx="527" cy="155" r="8" fill="#009999"/>
</svg>
