<svg xmlns="http://www.w3.org/2000/svg" width="94" height="40" viewBox="0 0 94 40">
    <g fill="none" fill-rule="evenodd">
        <g>
            <g>
                <g transform="translate(-170 -1964) translate(150 1934) translate(20 30)">
                    <circle cx="6.115" cy="33.811" r="6.115" fill="#F66"/>
                    <path fill="#099" d="M25.401 14.54c.796 0 1.44.644 1.44 1.44v.007l-.064 11.717c0 6.652-5.31 12.064-11.923 12.226l-.306.004v-12.23h.034l.033-11.728c.003-.794.647-1.436 1.44-1.436h9.346zm18.784 0c.795 0 1.44.644 1.44 1.44v16.4c0 .795-.645 1.44-1.44 1.44h-9.35c-.795 0-1.44-.645-1.44-1.44v-16.4c0-.796.645-1.44 1.44-1.44h9.35zm14.749-.072l.294.003c5.966.154 10.774 4.963 10.928 10.933v6.903c0 .796-.644 1.44-1.44 1.44H53.612c-.796 0-1.44-.644-1.44-1.44v-16.4c0-.795.644-1.44 1.44-1.44h5.322zM83.68 33.603v-.016c-5.056-.298-9.065-4.493-9.065-9.623 0-5.324 4.316-9.64 9.64-9.64 5.131 0 9.326 4.008 9.623 9.064h.017v8.775c0 .796-.645 1.44-1.44 1.44h-8.775z"/>
                    <g fill="#FC6" transform="translate(33.38)">
                        <circle cx="6.115" cy="6.115" r="6.115"/>
                    </g>
                </g>
            </g>
        </g>
    </g>
</svg>
