<?xml version="1.0" encoding="UTF-8"?>
<svg width="88px" height="88px" viewBox="0 0 88 88" version="1.1" xmlns="http://www.w3.org/2000/svg" xmlns:xlink="http://www.w3.org/1999/xlink">
    <title>编组 28</title>
    <g id="页面-1" stroke="none" stroke-width="1" fill="none" fill-rule="evenodd">
        <g id="Front-page-pc" transform="translate(-773.000000, -1855.000000)">
            <g id="编组-25" transform="translate(175.000000, 1678.000000)"></g>
            <g id="编组@1x" transform="translate(780.000000, 1861.000000)">
                <path d="M17.2255319,0 C26.7389304,0 34.4510638,7.71213333 34.4510638,17.2255319 C34.4510638,26.7389304 26.7389304,34.4510638 17.2255319,34.4510638 C7.71213333,34.4510638 0,26.7389304 0,17.2255319 C0,7.71213333 7.71213333,0 17.2255319,0 Z M13.3254115,9.11658007 C12.7869172,9.11658007 12.3503814,9.55311592 12.3503814,10.0916102 L12.3503814,10.0916102 L12.3503814,24.3594536 C12.3503814,24.5491974 12.4057443,24.7348183 12.5096832,24.8935615 C12.8046628,25.3440757 13.409005,25.4701614 13.8595193,25.1751818 L13.8595193,25.1751818 L24.7549634,18.0412601 C24.8672135,17.967763 24.9630868,17.8718898 25.0365839,17.7596398 C25.3315633,17.3091255 25.2054777,16.7047833 24.7549634,16.4098037 L24.7549634,16.4098037 L13.8595193,9.27588192 C13.7007762,9.17194299 13.5151552,9.11658007 13.3254115,9.11658007 Z" id="形状结合" fill="#FFD273" fill-rule="nonzero"></path>
                <path d="M66.9278225,3.13191489 C68.8830555,3.13191489 70.4680851,4.71694447 70.4680851,6.67217754 L70.4680851,23.0810139 C70.4680851,25.036247 68.8830555,26.6212766 66.9278225,26.6212766 L66.4220707,26.6212766 C64.4668376,26.6212766 62.881808,25.036247 62.881808,23.0810139 L62.881808,12.318192 C62.881808,11.4345364 62.1654636,10.718192 61.281808,10.718192 L50.5189861,10.718192 L50.5189861,10.718192 C48.563753,10.718192 46.9787234,9.13316242 46.9787234,7.17792935 L46.9787234,6.67217754 C46.9787234,4.71694447 48.563753,3.13191489 50.5189861,3.13191489 L66.9278225,3.13191489 Z" id="路径" stroke="#FFFFFF" stroke-width="0.8" fill="#009999"></path>
                <path d="M23.0810139,46.9787234 C25.036247,46.9787234 26.6212766,48.563753 26.6212766,50.5189861 L26.6212766,66.9278225 C26.6212766,68.8830555 25.036247,70.4680851 23.0810139,70.4680851 L22.5752621,70.4680851 C20.6200291,70.4680851 19.0349995,68.8830555 19.0349995,66.9278225 L19.0349995,56.1650005 C19.0349995,55.2813449 18.3186551,54.5650005 17.4349995,54.5650005 L6.67217754,54.5650005 L6.67217754,54.5650005 C4.71694447,54.5650005 3.13191489,52.9799709 3.13191489,51.0247379 L3.13191489,50.5189861 C3.13191489,48.563753 4.71694447,46.9787234 6.67217754,46.9787234 L23.0810139,46.9787234 Z" id="路径备份-3" stroke="#FFFFFF" stroke-width="0.8" fill="#009999" transform="translate(14.876596, 58.723404) scale(-1, -1) translate(-14.876596, -58.723404) "></path>
                <g id="编组备份-3" transform="translate(39.148936, 39.148936)" fill="#FF7673" fill-rule="nonzero">
                    <circle id="椭圆形" cx="17.2255319" cy="17.2255319" r="17.2255319"></circle>
                </g>
            </g>
        </g>
    </g>
</svg>