<svg xmlns="http://www.w3.org/2000/svg" width="320" height="320" viewBox="0 0 320 320">
    <g fill="none" fill-rule="evenodd">
        <g>
            <g>
                <g>
                    <path fill="#FFD273" fill-rule="nonzero" d="M62.638 0c34.594 0 62.639 28.044 62.639 62.638 0 34.594-28.045 62.639-62.639 62.639S0 97.232 0 62.638 28.044 0 62.638 0zM48.456 33.151c-1.958 0-3.546 1.588-3.546 3.546V88.58c0 .69.202 1.365.58 1.942 1.072 1.638 3.27 2.097 4.908 1.024l39.62-25.941c.408-.268.757-.616 1.024-1.024 1.073-1.639.614-3.836-1.024-4.909L50.398 33.73c-.577-.377-1.252-.579-1.942-.579z" transform="translate(-970 -181) translate(970 181) translate(25.455 21.818)"/>
                    <path fill="#FFF" stroke="#099" stroke-width="2.909" d="M243.374 11.389c7.11 0 12.874 5.764 12.874 12.873v59.669c0 7.11-5.764 12.874-12.874 12.874h-1.84c-7.11 0-12.873-5.764-12.873-12.874V44.793c0-3.213-2.605-5.818-5.818-5.818h-39.138 0c-7.11 0-12.873-5.764-12.873-12.873v-1.84c0-7.11 5.763-12.873 12.873-12.873h59.669zM24.262 256.248c-7.11 0-12.873-5.764-12.873-12.874v-59.669c0-7.11 5.764-12.873 12.873-12.873h1.84c7.11 0 12.873 5.763 12.873 12.873v39.138c0 3.213 2.605 5.818 5.818 5.818h39.138c7.11 0 12.874 5.764 12.874 12.874v1.839c0 7.11-5.764 12.874-12.874 12.874H24.262z" transform="translate(-970 -181) translate(970 181) translate(25.455 21.818)"/>
                    <g fill="#FF7673" fill-rule="nonzero" transform="translate(-970 -181) translate(970 181) translate(25.455 21.818) translate(142.36 142.36)">
                        <circle cx="62.638" cy="62.638" r="62.638"/>
                    </g>
                </g>
            </g>
        </g>
    </g>
</svg>
