<svg width="745" height="745" viewBox="0 0 745 745" fill="none" xmlns="http://www.w3.org/2000/svg">
<g opacity="0.5">
<circle cx="373.039" cy="371.962" r="261.629" transform="rotate(45 373.039 371.962)" stroke="#009191" stroke-width="2" stroke-linecap="round" stroke-dasharray="16 16"/>
<circle cx="372.038" cy="372.962" r="192.97" transform="rotate(45 372.038 372.962)" stroke="#009191" stroke-width="2" stroke-linecap="round" stroke-dasharray="16 16"/>
<circle cx="372.038" cy="372.962" r="123.501" transform="rotate(45 372.038 372.962)" stroke="#009191" stroke-width="2" stroke-linecap="round" stroke-dasharray="16 16"/>
<circle cx="372.038" cy="372.962" r="54.0316" transform="rotate(45 372.038 372.962)" stroke="#009191" stroke-width="2" stroke-linecap="round" stroke-dasharray="16 16"/>
</g>
<path d="M557.61 558.535C455.121 661.024 288.954 661.024 186.465 558.535C83.9757 456.046 83.9756 289.878 186.465 187.389C254.69 255.615 269.548 270.473 372.037 372.962C474.526 475.451 433.167 434.092 557.61 558.535Z" fill="#F4F0D3"/>
<path fill-rule="evenodd" clip-rule="evenodd" d="M147.743 509.338C109.415 446.415 99.9708 370.849 119.411 301.696C163.375 274.947 221.498 280.575 259.504 318.581C304.117 363.194 304.117 435.526 259.504 480.139C229.238 510.405 186.214 520.138 147.743 509.338Z" fill="#FBCB67"/>
<circle cx="271.19" cy="480.39" r="48.6285" transform="rotate(45 271.19 480.39)" fill="#32C8CD"/>
<path fill-rule="evenodd" clip-rule="evenodd" d="M503.912 599.352C463.116 623.334 417.228 635.351 371.329 635.402C365.616 612.729 371.627 587.709 389.362 569.974C416.19 543.146 459.687 543.146 486.515 569.974C494.993 578.452 500.793 588.596 503.912 599.352Z" fill="#EB6161"/>
<circle cx="596.296" cy="244.646" r="18.2964" fill="#FBCB67"/>
<circle cx="392.722" cy="179.072" r="13.7223" fill="#EB6161"/>
<circle cx="494.5" cy="360.85" r="21.5" fill="#32C8CD"/>
<path d="M669.445 548.072C669.445 555.651 663.301 561.794 655.722 561.794C648.144 561.794 642 555.651 642 548.072C642 540.493 648.144 534.35 655.722 534.35C663.301 534.35 669.445 540.493 669.445 548.072Z" fill="#FF7673"/>
<path d="M250 94.3496C250 99.8725 245.523 104.35 240 104.35C234.477 104.35 230 99.8725 230 94.3496C230 88.8268 234.477 84.3496 240 84.3496C245.523 84.3496 250 88.8268 250 94.3496Z" fill="#F3B781"/>
<path d="M295.474 646.055C281.895 646.055 270.888 635.044 270.888 621.462C270.888 607.88 281.895 596.87 295.474 596.87C309.052 596.87 320.059 607.88 320.059 621.462C320.059 635.044 309.052 646.055 295.474 646.055Z" fill="#777CFF"/>
</svg>
