<?xml version="1.0" encoding="UTF-8"?>
<svg width="88px" height="88px" viewBox="0 0 88 88" version="1.1" xmlns="http://www.w3.org/2000/svg" xmlns:xlink="http://www.w3.org/1999/xlink">
    <title>编组 30</title>
    <g id="页面-1" stroke="none" stroke-width="1" fill="none" fill-rule="evenodd">
        <g id="Front-page-pc" transform="translate(-175.000000, -1681.000000)" fill-rule="nonzero">
            <g id="编组-25" transform="translate(175.000000, 1678.000000)">
                <g id="Product-logo_Core_Colorful" transform="translate(5.000000, 8.000000)">
                    <path d="M45.3449321,28 L45.6987854,28.0042622 C52.8104073,28.2696917 56.8128683,31.1461162 60,35.3493346 C58.5409489,49.9222642 45.7597544,60.5671416 31.2444573,59.976585 C23.8592754,59.5348984 17.4081853,56.228322 12.8,51.2414832 C20.6795904,40.425743 33.4338173,28.2335416 44.9926471,28.0032991 L45.3449321,28 Z" id="路径" fill="#FFCC66"></path>
                    <path d="M6.4,41.2645144 L6.40546409,41.2571592 C9.17117869,37.3048085 13.6015382,33.377941 19.5364855,34.9583841 C30.8227949,38.1837782 41.4170673,44.7910806 47.8764936,44.6044756 C54.0239735,44.4268827 56.506453,42.6526888 59.2,40.2189053 C55.9176146,52.3063234 44.204664,60.6976098 31.0808354,60.1770644 C19.194375,59.4840089 9.71625421,51.589859 6.4,41.2645144 Z" id="路径" fill="#FF7673"></path>
                    <path d="M25.9824643,36.9948936 L26.2186092,36.8 L26.7055142,36.9819736 C34.625181,39.9594165 40.9242142,43.1741656 45.8925,44.0039785 C52.1063008,45.04182 56.1969906,42.1595608 59.2,39.7293917 C55.9556078,51.9850145 44.2209141,60.5037951 31.0684666,59.9768443 C23.7867751,59.5479867 17.4093502,56.3879978 12.8,51.6056751 C16.2792928,46.4894338 20.8967343,41.2203675 25.9824643,36.9948936 Z" id="路径" fill="#FF9F73"></path>
                    <path d="M62.3777884,55.7019046 L73.3644206,65.5657216 C75.6408563,67.6095229 75.8250883,71.1021107 73.7761965,73.3719831 C71.7527636,75.6136509 68.3012704,75.8186588 66.0252638,73.8484618 L65.9488458,73.7810939 L54.3454732,63.3634547 C57.3925085,61.2235538 60.1017522,58.6379875 62.3777884,55.7019046 Z M0.0496841856,30.9198263 C1.03543739,12.8574933 16.8074886,-0.935560946 34.8796306,0.0496572185 C52.9517726,1.36328146 67.080902,16.7983661 65.7665643,34.8606991 C64.4522268,52.923032 49.00876,66.7160862 30.936618,65.7308681 C12.8644758,64.7456499 -0.936069018,48.9821594 0.0496841856,30.9198263 Z M34.478649,5.67792592 C19.6900436,5.07423388 6.41047958,16.5443817 5.80686299,31.3348355 C5.20324639,46.1252894 16.3701526,59.1046674 31.4605662,60.0102053 C46.2491717,60.6138973 59.2269275,49.4455954 60.1323523,34.3532955 C60.7299327,19.7107464 49.7912237,6.84323258 34.9301765,5.70870394 L34.478649,5.67792592 Z" id="形状" fill="#009999"></path>
                </g>
            </g>
        </g>
    </g>
</svg>