<?xml version="1.0" encoding="UTF-8"?>
<svg width="88px" height="88px" viewBox="0 0 88 88" version="1.1" xmlns="http://www.w3.org/2000/svg" xmlns:xlink="http://www.w3.org/1999/xlink">
    <title>ts-dashboard-2</title>
    <g id="页面-1" stroke="none" stroke-width="1" fill="none" fill-rule="evenodd">
        <g id="Front-page-pc" transform="translate(-774.000000, -1681.000000)">
            <g id="编组-25" transform="translate(175.000000, 1678.000000)"></g>
            <g id="ts-dashboard-2" transform="translate(784.000000, 1691.000000)" fill-rule="nonzero">
                <path d="M33.9830201,68 C45.4672236,68.0012153 56.176587,62.2095335 62.4590577,52.6000044 C68.7415283,42.9904752 69.7486772,30.860837 65.1370517,20.3474771 C64.8453324,19.6313375 64.1874771,19.1301167 63.4193516,19.0387592 C62.6512262,18.9474018 61.8940811,19.2803287 61.4423999,19.9080516 C60.9907187,20.5357745 60.9158004,21.3592058 61.2467836,22.0580805 C66.990222,35.1707663 62.5772411,50.5129976 50.7435053,58.5739246 C38.9097696,66.6348516 23.0107722,65.1287732 12.9025093,54.989327 C2.79424636,44.8498807 1.34294783,28.9521387 9.4482926,17.1513188 C17.5536374,5.35049895 32.9173293,0.992760982 46.0152151,6.77952361 C47.089483,7.25482762 48.3458145,6.76962235 48.8213101,5.69578728 C49.2968057,4.62195221 48.8114049,3.36612683 47.7371371,2.89082275 C35.0675378,-2.69335721 20.2760454,-0.0429600269 10.3357673,9.59254576 C0.395489119,19.2280516 -2.70923132,33.9251632 2.4852547,46.7552668 C7.67974072,59.5853704 20.1364759,67.9872367 33.9830201,68 Z" id="路径" stroke="#009999" stroke-width="1.6" fill="#009999"></path>
                <path d="M54.4195464,12.2370556 C54.8677165,12.0167139 55.393067,12.0182735 55.839921,12.2412721 C56.6305896,12.6358484 56.9516858,13.5966792 56.5571095,14.3873478 L56.5571095,14.3873478 L55.825596,15.8531854 C55.2714684,16.9561216 52.5143134,22.4408464 49.4218413,28.0934073 L48.9671074,28.9213203 C48.8909918,29.0593424 48.8147309,29.1973421 48.7383518,29.3352582 L48.2788758,30.1612628 C45.5928563,34.9680656 42.8284633,39.5226825 41.147579,41.2036597 C38.7230588,43.620719 35.1932953,44.5606363 31.8879161,43.6693539 C28.5825369,42.7780715 26.0037078,40.1909963 25.1228488,36.8826546 C24.2419898,33.5743128 25.1929244,30.0473203 27.6174446,27.630261 C29.2983289,25.9492839 33.8507097,23.1787845 38.6558503,20.4884269 L39.4815761,20.0282261 C39.6194469,19.9517295 39.7574018,19.8753529 39.8953799,19.7991236 L40.7230366,19.3437332 C46.3739076,16.2469573 51.858263,13.4894507 52.9665181,12.951433 L52.9665181,12.951433 Z M34.038376,30.9197915 C31.9124534,30.9197915 30.1890527,32.6422059 30.1890527,34.7669116 C30.1890527,36.8916174 31.9124534,38.6140318 34.038376,38.6140318 C36.1642986,38.6140318 37.8876993,36.8916174 37.8876993,34.7669116 C37.8876993,32.6422059 36.1642986,30.9197915 34.038376,30.9197915 Z" id="形状结合" fill="#FFCC66"></path>
            </g>
        </g>
    </g>
</svg>