<svg xmlns="http://www.w3.org/2000/svg" xmlns:xlink="http://www.w3.org/1999/xlink" width="252" height="252" viewBox="0 0 252 252">
    <defs>
        <rect id="duwqtxbvza" width="252" height="252" x="0" y="0" rx="126"/>
    </defs>
    <g fill="none" fill-rule="evenodd">
        <g>
            <g>
                <g transform="translate(-150 -1505) translate(0 1425) translate(150 80)">
                    <mask id="0ogbgta9ob" fill="#fff">
                        <use xlink:href="#duwqtxbvza"/>
                    </mask>
                    <use fill="#F8F8F8" xlink:href="#duwqtxbvza"/>
                    <g fill-rule="nonzero" mask="url(#0ogbgta9ob)">
                        <g>
                            <path fill="#00CBCF" d="M168.011 80.666c-4.04-2.851-9.267-3.208-13.782-1.188l-.832-.95-5.228 4.99.475.594c-4.277 6.297-2.733 14.852 3.565 19.13 6.297 4.395 14.852 2.85 19.248-3.328v-.119c4.396-6.178 2.852-14.733-3.446-19.129z" transform="translate(27 33.964)"/>
                            <path fill="#00939E" d="M31.133 55.358c9.624-1.782 19.605.357 27.684 5.822l-1.188-1.188 3.683-4.04 5.347 4.872-3.445 3.683c6.178 5.585 10.337 13.07 11.881 21.387 1.783 9.862-.475 20.08-6.178 28.278-7.367 10.575-19.13 16.278-31.13 16.278-7.724 0-15.21-2.376-21.507-6.773C7.963 117.974 2.38 109.301.596 99.32c-1.782-9.861.476-20.08 6.179-28.278 5.703-8.317 14.377-13.901 24.358-15.684zm6.772 6.535c-1.9 0-3.683.12-5.465.476-8.08 1.306-15.09 5.94-19.724 12.594-4.634 6.654-6.416 14.852-4.99 22.813 1.425 8.08 5.94 15.09 12.594 19.723 13.783 9.624 32.913 6.297 42.537-7.604 4.634-6.535 6.416-14.852 4.99-22.813-1.307-8.08-5.94-15.09-12.594-19.723-5.11-3.565-11.17-5.466-17.348-5.466z" transform="translate(27 33.964)"/>
                            <path fill="#00CBCF" d="M73.194 43.002L78.541 47.992 70.58 56.547 65.233 51.556 73.194 43.002zM149.476 74.488L144.248 79.597 136.287 71.399 141.515 66.289zM129.633 54.17L124.405 59.16 132.366 67.359 137.594 62.25zM117.989 42.17c1.307-1.426 2.614-3.208 3.564-4.99 6.654-12.238 2.02-27.566-10.218-34.1-12.238-6.654-27.566-2.02-34.1 10.218-4.16 7.723-4.04 17.228.474 24.832l-.475.594 2.495 2.258c2.02 2.614 4.634 4.871 7.842 6.535 8.436 4.515 18.18 3.802 25.665-1.07l-.594.594 7.842 8.199 5.228-5.11-7.723-7.96zM37.786 105.974c7.605 0 13.902-6.179 13.902-13.783 0-7.604-6.178-13.901-13.783-13.901h-.119c-7.604 0-13.783 6.297-13.783 13.901.12 7.604 6.18 13.664 13.783 13.783z" transform="translate(27 33.964)"/>
                            <path fill="#00939E" d="M129.158 69.973c11.882-17.229 35.527-21.387 52.636-9.506 17.11 12 21.388 35.645 9.387 52.636-7.367 10.574-19.13 16.278-31.13 16.278-7.724 0-15.21-2.377-21.507-6.773-17.11-11.881-21.268-35.526-9.386-52.635zm31.011-8.911c-9.98 0-19.367 4.871-25.07 13.07-9.625 13.782-6.298 32.911 7.604 42.535 13.783 9.624 32.913 6.298 42.537-7.604 9.624-13.901 6.179-32.912-7.723-42.536-5.228-3.683-11.288-5.465-17.348-5.465z" transform="translate(27 33.964)"/>
                            <path fill="#FF7673" d="M99.453 184.036c13.902 0 25.19-11.288 25.19-25.189s-11.288-25.189-25.19-25.189c-13.902 0-25.19 11.288-25.19 25.189-.118 13.901 11.17 25.189 25.19 25.189z" transform="translate(27 33.964)"/>
                            <path fill="#00CBCF" d="M129.99 118.212L135.336 123.202 131.653 127.242 126.306 122.252zM122.266 126.529L127.613 131.519 119.652 140.074 114.306 135.084zM48.718 103.36L43.49 108.469 51.451 116.667 56.679 111.558 48.718 103.36zM68.56 123.915L63.332 129.024 55.372 120.826 60.6 115.717zM80.442 136.034L72.481 127.836 67.253 132.826 75.095 141.025z" transform="translate(27 33.964)"/>
                        </g>
                    </g>
                </g>
            </g>
        </g>
    </g>
</svg>
