<?xml version="1.0" encoding="UTF-8"?>
<svg width="518px" height="528px" viewBox="0 0 518 528" version="1.1" xmlns="http://www.w3.org/2000/svg" xmlns:xlink="http://www.w3.org/1999/xlink">
    <title>JOBS</title>
    <g id="页面-1" stroke="none" stroke-width="1" fill="none" fill-rule="evenodd">
        <g id="Join-Us-pc" transform="translate(-772.000000, -288.000000)" fill-rule="nonzero">
            <g id="JOBS" transform="translate(772.000000, 288.000000)">
                <g id="Image">
                    <g id="Web" transform="translate(65.000000, 0.000000)">
                        <rect id="Container" fill="#F2F2F2" x="0" y="0" width="396" height="346" rx="8"></rect>
                        <path d="M8,0 L388,0 C392.418278,0 396,3.581722 396,8 L396,27 L396,27 L0,27 L0,8 C0,3.581722 3.581722,0 8,0 Z" id="Header" fill="#C5CFD6"></path>
                        <g id="Buttons" transform="translate(9.000000, 10.000000)" fill="#F2F2F2">
                            <circle id="buttons" cx="4" cy="4" r="4"></circle>
                            <circle id="buttons" cx="16" cy="4" r="4"></circle>
                            <circle id="buttons" cx="28" cy="4" r="4"></circle>
                        </g>
                        <g id="Content" transform="translate(16.000000, 43.000000)">
                            <g id="Components" transform="translate(294.000000, 89.000000)">
                                <rect id="Background" fill="#FFFFFF" x="0" y="0" width="70" height="194" rx="8"></rect>
                                <g id="Rows" transform="translate(18.000000, 18.000000)">
                                    <rect id="Data" fill="#DDE3E9" x="0" y="0" width="34" height="26" rx="4"></rect>
                                    <rect id="Data" fill="#AFB9C5" x="0" y="34" width="34" height="25" rx="4"></rect>
                                    <rect id="Data" fill="#DDE3E9" x="0" y="67" width="34" height="25" rx="4"></rect>
                                    <rect id="Data" fill="#DDE3E9" x="0" y="133" width="34" height="25" rx="4"></rect>
                                    <rect id="Data" fill="#C5CFD6" x="0" y="100" width="34" height="25" rx="4"></rect>
                                </g>
                            </g>
                            <g id="Profile" transform="translate(294.000000, 0.000000)">
                                <rect id="Background" fill="#FFFFFF" x="0" y="0" width="70" height="81" rx="8"></rect>
                                <g id="Profile-Info" transform="translate(10.000000, 15.000000)" fill="#DDE3E9">
                                    <circle id="Avatar" cx="25" cy="16" r="16"></circle>
                                    <rect id="Name" x="0" y="36" width="50" height="6" rx="3"></rect>
                                    <rect id="Name" x="8" y="46" width="34" height="6" rx="3"></rect>
                                </g>
                            </g>
                            <g id="Rows">
                                <g id="Row">
                                    <rect id="Container" fill="#FFFFFF" x="0" y="0" width="286" height="47" rx="4"></rect>
                                    <g id="Text-Stuff" transform="translate(9.000000, 14.100000)" fill="#DDE3E9">
                                        <rect id="Label" x="0" y="0" width="228" height="7.05" rx="3"></rect>
                                        <rect id="Label" x="0" y="11.75" width="153.041096" height="7.05" rx="3"></rect>
                                    </g>
                                    <g id="Check" transform="translate(248.435115, 16.500000)">
                                        <circle id="Background" fill="#DDE3E9" cx="7" cy="7" r="7"></circle>
                                        <circle id="Indicator" fill="#F2F2F2" cx="7" cy="7" r="3"></circle>
                                    </g>
                                </g>
                                <g id="Row" transform="translate(0.000000, 55.000000)">
                                    <rect id="Container" fill="#FFFFFF" x="0" y="0" width="286" height="39" rx="4"></rect>
                                    <g id="Text-Stuff" transform="translate(9.000000, 11.700000)" fill="#DDE3E9">
                                        <rect id="Label" x="0" y="0" width="228" height="5.85" rx="2.925"></rect>
                                        <rect id="Label" x="0" y="9.75" width="153.041096" height="5.85" rx="2.925"></rect>
                                    </g>
                                    <g id="Check" transform="translate(248.435115, 12.500000)">
                                        <circle id="Background" fill="#DDE3E9" cx="7" cy="7" r="7"></circle>
                                        <circle id="Indicator" fill="#F2F2F2" cx="7" cy="7" r="3"></circle>
                                    </g>
                                </g>
                                <g id="Row" transform="translate(0.000000, 102.000000)">
                                    <rect id="Container" fill="#FFFFFF" x="0" y="0" width="286" height="39" rx="4"></rect>
                                    <g id="Text-Stuff" transform="translate(9.000000, 11.700000)" fill="#DDE3E9">
                                        <rect id="Label" x="0" y="0" width="228" height="5.85" rx="2.925"></rect>
                                        <rect id="Label" x="0" y="9.75" width="153.041096" height="5.85" rx="2.925"></rect>
                                    </g>
                                    <g id="Check" transform="translate(248.435115, 12.500000)">
                                        <circle id="Background" fill="#DDE3E9" cx="7" cy="7" r="7"></circle>
                                        <circle id="Indicator" fill="#AFB9C5" cx="7" cy="7" r="3"></circle>
                                    </g>
                                </g>
                                <g id="Row" transform="translate(0.000000, 243.000000)">
                                    <rect id="Container" fill="#FFFFFF" x="0" y="0" width="286" height="39" rx="4"></rect>
                                    <g id="Text-Stuff" transform="translate(9.000000, 11.700000)" fill="#DDE3E9">
                                        <rect id="Label" x="0" y="0" width="228" height="5.85" rx="2.925"></rect>
                                        <rect id="Label" x="0" y="9.75" width="153.041096" height="5.85" rx="2.925"></rect>
                                    </g>
                                    <g id="Check" transform="translate(248.435115, 12.500000)">
                                        <circle id="Background" fill="#DDE3E9" cx="7" cy="7" r="7"></circle>
                                        <circle id="Indicator" fill="#F2F2F2" cx="7" cy="7" r="3"></circle>
                                    </g>
                                </g>
                                <g id="Row" transform="translate(0.000000, 196.000000)">
                                    <rect id="Container" fill="#FFFFFF" x="0" y="0" width="286" height="39" rx="4"></rect>
                                    <g id="Text-Stuff" transform="translate(9.000000, 11.700000)" fill="#DDE3E9">
                                        <rect id="Label" x="0" y="0" width="228" height="5.85" rx="2.925"></rect>
                                        <rect id="Label" x="0" y="9.75" width="153.041096" height="5.85" rx="2.925"></rect>
                                    </g>
                                    <g id="Check" transform="translate(248.435115, 12.500000)">
                                        <circle id="Background" fill="#DDE3E9" cx="7" cy="7" r="7"></circle>
                                        <circle id="Indicator" fill="#F2F2F2" cx="7" cy="7" r="3"></circle>
                                    </g>
                                </g>
                                <g id="Row" transform="translate(0.000000, 149.000000)">
                                    <rect id="Container" fill="#FFFFFF" x="0" y="0" width="286" height="39" rx="4"></rect>
                                    <g id="Text-Stuff" transform="translate(9.000000, 11.700000)" fill="#DDE3E9">
                                        <rect id="Label" x="0" y="0" width="228" height="5.85" rx="2.925"></rect>
                                        <rect id="Label" x="0" y="9.75" width="153.041096" height="5.85" rx="2.925"></rect>
                                    </g>
                                    <g id="Check" transform="translate(248.435115, 12.500000)">
                                        <circle id="Background" fill="#DDE3E9" cx="7" cy="7" r="7"></circle>
                                        <circle id="Indicator" fill="#F2F2F2" cx="7" cy="7" r="3"></circle>
                                    </g>
                                </g>
                            </g>
                        </g>
                    </g>
                    <g id="Group-3" transform="translate(259.000000, 331.000000) scale(-1, 1) translate(-259.000000, -331.000000) translate(0.000000, 134.000000)">
                        <g id="Humaaan" transform="translate(405.500000, 201.500000) scale(-1, 1) translate(-405.500000, -201.500000) translate(293.000000, 9.000000)">
                            <g id="Head/Front/Chongo" transform="translate(89.282576, 48.464040) rotate(-8.000000) translate(-89.282576, -48.464040) translate(62.782576, 3.464040)">
                                <g id="Head" transform="translate(14.060000, 24.507042)" fill="#B28B67">
                                    <path d="M33.9475738,8.10475738 C39.1049554,17.6888514 38.4921244,41.9997005 31.8266682,43.7126454 C29.1684905,44.3957663 23.5057781,42.7223911 17.7424613,39.2590202 L21.36,64.7746479 L0,64.7746479 L7.35339366,30.6038801 C3.25237069,25.8045724 0.476716101,19.9229593 0.940530937,13.332445 C2.2769139,-5.6567084 28.7901923,-1.47933659 33.9475738,8.10475738 Z" id="路径"></path>
                                </g>
                                <path d="M39.5705106,22.1733593 C36.6518076,21.2860353 32.4148763,20.9851154 30.6325252,21.1886852 C31.6464077,18.7668052 32.0487312,16.0685395 31.7207405,13.4413015 C31.4019476,10.888453 30.2577955,8.7147765 29.1996267,6.43702629 C28.7118648,5.38713248 28.1591044,4.34296095 27.3349714,3.53991164 C26.4954405,2.72176984 25.4327068,2.18173044 24.3183286,1.92408516 C23.1779238,1.66035996 21.9854655,1.68231918 20.8432892,1.92165319 C20.3380172,2.02751522 19.8846623,2.25783666 19.3891333,2.38587249 C18.881681,2.51705556 18.6355176,2.20039935 18.2671923,1.88216952 C17.3795597,1.1153851 16.0782936,0.73685683 14.9553306,0.60138205 C13.695421,0.44945573 12.3880911,0.63893445 11.186503,1.05186789 C10.0169374,1.45385748 8.8933613,2.10662562 8.0477665,3.05759566 C7.6712653,3.48090071 7.3295117,3.96271599 7.1073992,4.49467268 C7.0163058,4.71297734 7.0012485,4.84230068 6.7827469,4.92226943 C6.5806654,4.99630132 6.3443131,4.99844717 6.135759,5.06890264 C4.1191677,5.74985298 2.395002,7.3033067 1.4562017,9.297876 C0.9084831,10.4615 0.6490338,12.5102305 0.7200962,14.8065208 C0.7911586,17.1028111 2.8708407,23.0944878 4.8159607,25.2799664 C6.5521859,27.2306888 9.1042319,28.5179854 11.5671603,29.0814861 C9.9323847,30.9444432 8.8441695,33.2724064 8.0394543,35.6399963 C7.1653801,38.2117998 6.6244066,40.8840292 6.4246415,43.6067576 C6.234892,46.1936536 6.2173138,48.9293287 6.8256024,51.4610047 C7.3946466,53.8285231 8.6115645,55.7707337 10.6430767,57.0028818 C11.573633,57.5673124 12.5748428,57.9913328 13.5818438,58.3788736 C14.5742645,58.7607637 15.5696831,59.1320676 16.6092516,59.3463667 C18.5767191,59.7517897 20.843698,59.6821925 22.3592414,58.1208707 C22.9054611,57.5580137 23.506187,56.8507409 23.9046951,56.1631385 C24.0479781,55.9158648 24.1343704,55.7541391 23.9602914,55.5124446 C23.7517372,55.2229692 23.4144123,55.0011597 23.1465146,54.7747008 C21.6187754,53.4835417 20.6730937,51.7598504 20.4346974,49.7114201 C20.1928264,47.6330195 20.752809,44.950347 22.7796201,44.0432954 C25.2815204,42.9235899 28.0368062,44.2088121 30.2605208,45.4068412 C31.2055892,42.081343 33.1460762,39.0870928 36.188405,37.5616782 C39.5542278,35.8741088 43.4164653,35.6766189 46.8753574,34.2286695 C47.7766847,33.8513572 48.6947045,33.4230452 49.3583168,32.654258 C49.6356168,32.3329524 49.9609504,31.9161565 50.071666,31.4912063 C50.2171293,30.9329986 49.8560261,30.4649883 49.5770909,30.0298096 C48.0980665,27.722375 42.4892136,23.0606832 39.5705106,22.1733593 Z" id="hair" fill="#016065"></path>
                            </g>
                            <g id="Bottom/Standing/Sprint" transform="translate(0.000000, 158.000000)">
                                <path d="M155.544206,15.764893 C139.381667,28.9456986 145.629428,144.632166 144.551096,146.087708 C144.071837,146.734615 118.445475,152.22153 67.67201,162.548451 L69.8713068,171.503683 C129.270866,168.602568 160.699898,164.947526 164.158404,160.538558 C169.109994,154.226177 175.207305,118.905478 182.450338,54.5764596 L155.544206,15.764893 Z" id="Leg" fill="#B28B67" transform="translate(125.061174, 93.634288) rotate(-55.000000) translate(-125.061174, -93.634288) "></path>
                                <path d="M76.2422602,153.130866 L80.1149732,167.554187 C124.398768,172.67801 153.584271,166.404738 163.850921,156.633593 C170.695355,150.119496 176.808521,114.894818 182.19042,50.9595584 L153.407689,9.85355811 C114.931898,38.8848144 137.95845,134.043209 136.976367,136.219309 C135.994284,138.395409 112.643765,140.097568 76.2422602,153.130866 Z" id="Pant" fill="#016065" transform="translate(129.216340, 89.618802) rotate(-55.000000) translate(-129.216340, -89.618802) "></path>
                                <g id="Accessories/Shoe/Flat-Sneaker" transform="translate(165.588959, 189.612494) rotate(20.000000) translate(-165.588959, -189.612494) translate(140.588959, 180.612494)" fill="#E4E4E4">
                                    <path d="M2.14832172,5.7904083 C1.28055168,8.1542529 0.846666667,9.9358958 0.846666667,11.1353368 C0.846666667,12.6594532 1.10101736,14.8835181 1.60971875,17.8075314 C3.38089339,17.8075314 19.2987382,17.8075314 49.3632531,17.8075314 C50.6041981,13.7121777 49.8878527,11.501228 47.2142167,11.1746823 C44.5405807,10.8481367 42.3195458,10.5532921 40.5511121,10.2901486 L18.4988834,0.4763211 C17.9943083,0.2517718 17.4032361,0.4787776 17.1786868,0.9833527 C17.1750169,0.9915991 17.1714589,0.9998948 17.1680136,1.0082375 L15.8015204,4.3172234 L15.8015204,4.3172234 C13.3264328,5.470024 11.3151671,6.0464243 9.76772336,6.0464243 C8.5643166,6.0464243 6.92204178,5.5820377 4.8408989,4.6532646 L4.8409043,4.6532525 C3.8322177,4.2030956 2.64959132,4.6558733 2.19943435,5.6645599 C2.1809768,5.7059185 2.16392943,5.7478922 2.14832172,5.7904083 Z" id="shoe"></path>
                                </g>
                                <polygon id="Leg" fill="#997659" points="90.066667 24 46.2550852 128.995128 3.1951197 217.759659 13.3543592 217.759659 124.503722 24"></polygon>
                                <g id="Accessories/Shoe/Flat-Sneaker" transform="translate(0.320000, 208.192469)" fill="#E4E4E4">
                                    <path d="M2.14832172,5.7904083 C1.28055168,8.1542529 0.846666667,9.9358958 0.846666667,11.1353368 C0.846666667,12.6594532 1.10101736,14.8835181 1.60971875,17.8075314 C3.38089339,17.8075314 19.2987382,17.8075314 49.3632531,17.8075314 C50.6041981,13.7121777 49.8878527,11.501228 47.2142167,11.1746823 C44.5405807,10.8481367 42.3195458,10.5532921 40.5511121,10.2901486 L18.4988834,0.4763211 C17.9943083,0.2517718 17.4032361,0.4787776 17.1786868,0.9833527 C17.1750169,0.9915991 17.1714589,0.9998948 17.1680136,1.0082375 L15.8015204,4.3172234 L15.8015204,4.3172234 C13.3264328,5.470024 11.3151671,6.0464243 9.76772336,6.0464243 C8.5643166,6.0464243 6.92204178,5.5820377 4.8408989,4.6532646 L4.8409043,4.6532525 C3.8322177,4.2030956 2.64959132,4.6558733 2.19943435,5.6645599 C2.1809768,5.7059185 2.16392943,5.7478922 2.14832172,5.7904083 Z" id="shoe"></path>
                                </g>
                                <path d="M7.083638,199.319848 L29.6575807,203.545789 C47.1116899,177.92981 120.157849,72.8956966 128.166667,24 L77.9119819,24 C51.1664655,59.3466378 23.7210087,173.280131 7.083638,199.319848 Z" id="Pant" fill="#1D7074"></path>
                            </g>
                            <g id="Body/Pointing-Forward" transform="translate(135.968520, 132.040537) rotate(-8.000000) translate(-135.968520, -132.040537) translate(55.468520, 67.540537)">
                                <path d="M144.315179,41.1787367 C148.171366,40.3872418 157.583215,33.4083576 159.204923,34.8253348 C161.604137,36.9216612 159.464851,43.3585982 156.944264,46.5606297 C152.23329,52.5452225 148.332806,54.5917726 138.692156,57.2717424 C133.651526,58.6729689 128.201714,61.4816068 122.342719,65.6976562 L121.57,52.1212662 L135.139405,44.6893663 C137.043385,37.466287 139.319361,33.8321115 141.967332,33.7868399 C144.001525,32.8431962 140.458993,41.9702316 144.315179,41.1787367 Z M120.960173,10.2410555 C118.4686,14.6500546 116.046726,19.3993783 117.316085,20.7576955 C118.585443,22.1160127 121.750702,20.2185034 123.265027,22.475359 C124.274577,23.9799294 118.866983,26.356727 107.042244,29.6057519 L84.595655,50.0962177 L73.187855,37.8889388 L104.079561,21.0205461 C109.216662,14.938562 114.278138,10.2150492 119.263988,6.85000764 C120.787504,6.21587737 123.451746,5.83205642 120.960173,10.2410555 Z" id="Skin" fill="#997659"></path>
                                <path d="M59.141817,30.8245535 C69.846693,32.4046552 84.454337,32.4114421 101.184657,25.1966066 L105.053493,39.4198438 C92.920953,48.1365762 76.822171,54.327475 63.983731,51.9239444 C53.866333,50.0298299 50.613529,36.9517787 59.141817,30.8245535 Z" id="Sleeve" fill="#016065" transform="translate(79.650355, 38.821320) rotate(-9.000000) translate(-79.650355, -38.821320) "></path>
                                <path d="M58.863937,-1.2909861e-13 C60.226453,17.4524033 67.084251,36.6864243 72.712422,55.6882772 C84.197984,58.5460515 103.461599,55.1779627 130.501981,45.5848664 C137.208789,59.4183336 140.309179,69.2805348 139.803149,75.17147 C116.604612,87.2530526 96.721889,92.6387494 80.341734,92.9930466 C80.868965,102.67928 79.686297,111.900662 75.7118,120.326421 C67.542266,137.645475 19.7051015,121.6061 3.6207809,124.76304 C-6.4516935,92.149763 13.0237406,78.8958589 13.0394108,58.027983 C13.0565714,35.1754352 31.461425,-1.2909861e-13 34.169331,-1.2909861e-13 L34.169331,-1.2909861e-13 L58.863937,-1.2909861e-13 Z" id="Clothes" fill="#00939B"></path>
                            </g>
                        </g>
                        <g id="Humaaan">
                            <g id="Head/Front/Short-1" transform="translate(161.791406, 41.435262) rotate(7.000000) translate(-161.791406, -41.435262) translate(138.291406, 2.935262)">
                                <g id="Head" transform="translate(1.000000, 4.000000)" fill="#B28B67">
                                    <path d="M38.1433414,9.13393292 C43.9381521,19.9350547 43.249578,47.3329958 35.7603014,49.2634576 C32.773664,50.0333035 26.4113241,48.1475566 19.935865,44.2446031 L24,73 L0,73 L8.26160177,34.4893378 C3.65406109,29.0807313 0.535660132,22.452516 1.05677633,15.0254539 C2.55833022,-6.37502057 32.3485306,-1.66718886 38.1433414,9.13393292 Z" id="路径"></path>
                                </g>
                                <path d="M3.8333728,13.5449439 C9.305436,-8.938723 40.269175,5.0204355 46.2270045,1.2267775 C47.529381,9.3900449 43.3289005,15.9723487 28.5610809,14.7006155 C25.3025808,16.5210619 22.9844328,19.9352721 20.1938192,24.4139439 C19.5147713,24.1467554 18.7745239,24 18,24 C14.6862915,24 12,26.6862915 12,30 C12,31.6817919 12.6919409,33.2019722 13.806667,34.2913854 C12.4199418,36.2508354 10.8637166,38.2983771 9.0803863,40.4111902 C2.433612,36.4233961 -2.5117799,24.8083878 3.812313,13.5875403 L3.8333728,13.5449439 Z" id="Hair" fill="#016065"></path>
                            </g>
                            <g id="Bottom/Standing/Sweatpants" transform="translate(72.000000, 153.929577)">
                                <polygon id="Leg" fill="#997659" points="44 9.9475983e-14 80.630838 126.226909 97.860154 221 115.153197 221 97.890974 9.9475983e-14"></polygon>
                                <path d="M27.537727,0 C30.093705,65.5742244 29.085665,101.340188 28.513606,107.297892 C27.941548,113.255595 24.69393,153.156298 2.5636874,223 L20.549973,223 C49.85784,155.996902 60.088936,116.096199 63.450326,107.297892 C66.811717,98.4995844 76.739403,62.7336205 91.233385,0 L27.537727,0 Z" id="Leg" fill="#B28B67"></path>
                                <path d="M43.213639,1.13686838e-13 C52.741891,43.4350253 69.221683,112.768359 92.653017,208 L117.946059,208 C119.814239,110.253828 111.86709,45.9204947 98.104613,1.13686838e-13 L43.213639,1.13686838e-13 Z" id="Pant" fill="#00939B"></path>
                                <path d="M27.409919,0 C29.913164,65.5742244 23.425844,130.177256 3.3305078,209.020958 L30.316793,209.020958 C59.678541,143.017859 80.723052,78.7336205 95.105577,0 L27.409919,0 Z" id="Pant" fill="#33C7CD"></path>
                                <g id="Accessories/Shoe/Flat-Simple" transform="translate(0.000000, 218.000000)" fill="#191847">
                                    <path d="M0,18 L0.99242267,2 C6.8029179,3.6994251 14.0806841,3.0327584 22.8257214,0 C32.2287535,6.660617 44.0659431,11.2086712 58.3372903,13.6441626 C59.4261013,13.829999 60.1581292,14.8632891 59.9723163,15.9521041 C59.9602834,16.0226139 59.9444765,16.0924273 59.9249637,16.1612435 L58.5529375,21 L58.5529375,21 L22.8257214,21 L1.98484534,21 L0,18 Z" id="Shoe"></path>
                                </g>
                                <g id="Accessories/Shoe/Flat-Simple" transform="translate(94.000000, 218.000000)" fill="#191847">
                                    <path d="M0,18 L0.99242267,2 C6.8029179,3.6994251 14.0806841,3.0327584 22.8257214,0 C32.2287535,6.660617 44.0659431,11.2086712 58.3372903,13.6441626 C59.4261013,13.829999 60.1581292,14.8632891 59.9723163,15.9521041 C59.9602834,16.0226139 59.9444765,16.0924273 59.9249637,16.1612435 L58.5529375,21 L58.5529375,21 L22.8257214,21 L1.98484534,21 L0,18 Z" id="Shoe"></path>
                                </g>
                            </g>
                            <g id="Body/Lab-Coat" transform="translate(131.827372, 166.847234) rotate(7.000000) translate(-131.827372, -166.847234) translate(12.327372, 58.347234)">
                                <path d="M49.6671405,78.5359191 L67.3789189,81.1081345 C48.3668948,122.357659 38.1743233,144.172797 36.8012044,146.553548 C33.7116869,151.910237 37.3451669,161.240318 38.7655846,166.17944 C31.5871864,168.252341 33.8797238,157.161524 24.8030963,159.927786 C16.5183715,162.452702 9.6817028,168.176559 1.47644547,161.370261 C0.4676573,160.533467 -0.38212307,157.797168 2.82426992,156.202852 C10.8125642,152.230829 22.541227,144.962534 24.3644086,142.283781 C26.8506424,138.630823 35.2848864,117.381535 49.6671405,78.5359191 L49.6671405,78.5359191 Z M186.358872,89.6100216 L216.545493,115.201672 C225.013042,118.13396 232.02085,121.535571 237.568917,125.406506 C238.849565,126.748514 240.32618,129.3882 234.68408,128.555307 C229.04198,127.722415 223.069879,127.100082 222.151873,128.980187 C221.233867,130.860292 224.504819,133.414187 222.740072,135.914152 C221.563574,137.580795 216.885448,132.868337 208.705694,121.776779 L178.108696,106.506639 L186.358872,89.6100216 Z" id="Skin" fill="#B28B67"></path>
                                <path d="M118.979272,10.2105422 L129.596123,5.63843187 C147.668356,41.3896079 172.923065,75.3010145 212.52753,102.346035 L204.768287,118.911928 C170.615844,102.621394 138.570612,90.4491188 123.58307,62.8321985 C118.552864,53.5632462 119.64558,21.7613641 118.979272,10.2105422 Z" id="Coat-Back" fill="#C5CFD6" transform="translate(165.753401, 62.275180) rotate(5.000000) translate(-165.753401, -62.275180) "></path>
                                <path d="M86,111 C117.438326,114.333333 142.183737,114.333333 160.236234,111 C162.472817,110.587022 162.825667,106.842388 161.788454,104.300966 C145.636353,64.7244027 134.560302,30.1916266 134.560302,2.70263734 C131.596594,4.1967882 126.409827,4.42070538 119,3.37438888 C99.086202,31.7026762 89.9325378,64.2061447 86,111 Z" id="Shirt" fill="#323337"></path>
                                <path d="M114.078622,0.481323787 L114.049621,0.999323787 L122.348425,1 C124.261445,12.2512223 130.254034,163.198887 148.629948,215.064845 L149.190593,216.605966 L47.3853184,216.605966 C49.5924156,170.487497 67.0026785,115.088004 84.6395167,68.7290783 C69.044235,82.9998445 55.4517,107.181198 43.8618586,141.272687 L43.8618586,141.272687 L24.7926212,136.377648 C38.9709573,75.2822336 68.1213495,30.3765708 112.243798,1.66065973 L112.531583,1 L113.269621,0.999323787 L114.078622,0.481323787 Z" id="Coat-Front" fill="#DDE3E9"></path>
                            </g>
                        </g>
                    </g>
                    <g id="编组" transform="translate(222.104318, 185.721963) rotate(-14.000000) translate(-222.104318, -185.721963) translate(171.604318, 152.221963)">
                        <path d="M50.8280383,54.6067275 C50.8260383,54.6117275 50.8240383,54.6167275 50.8210383,54.6227275 C50.8240383,54.6177275 50.8280383,54.5977275 50.8280383,54.6067275" id="Fill-35" fill="#C5CFD6"></path>
                        <path d="M50.8233815,54.6143262 C50.8233815,54.6153262 50.8223815,54.6173262 50.8223815,54.6193262 C50.8223815,54.6143262 50.8313815,54.5993262 50.8233815,54.6143262" id="Fill-37" fill="#C5CFD6"></path>
                        <path d="M50.8581098,54.5297294 C50.8511098,54.5497294 50.8421098,54.5687294 50.8341098,54.5887294 C50.8381098,54.5787294 50.8421098,54.5707294 50.8461098,54.5607294 C50.7421098,54.8207294 50.8081098,54.6517294 50.8581098,54.5297294" id="Fill-39" fill="#C5CFD6"></path>
                        <path d="M50.8357258,54.5899536 C50.8317258,54.5989536 50.8277258,54.6089536 50.8237258,54.6179536 C50.7947258,54.6739536 50.8357258,54.5899536 50.8357258,54.5899536" id="Fill-41" fill="#C5CFD6"></path>
                        <polygon id="Fill-43" fill="#C5CFD6" points="50.8245383 54.6140786 50.8245383 54.6140786 50.8245383 54.6130786"></polygon>
                        <path d="M50.8240383,54.6145786 C50.8240383,54.6135786 50.8240383,54.6135786 50.8250383,54.6125786 C50.8240383,54.6135786 50.8240383,54.6135786 50.8240383,54.6145786" id="Fill-45" fill="#C5CFD6"></path>
                        <path d="M50.8192941,54.621754 C50.8132941,54.633754 50.8472941,54.575754 50.8192941,54.621754" id="Fill-47" fill="#C5CFD6"></path>
                        <path d="M50.8235383,54.6145786 L50.8255383,54.6125786 C50.8245383,54.6135786 50.8245383,54.6145786 50.8235383,54.6145786" id="Fill-49" fill="#C5CFD6"></path>
                        <rect id="Photo-Background" fill="#F9F9F9" x="0.574535623" y="0.818446954" width="100" height="66" rx="4"></rect>
                    </g>
                </g>
                <path d="M230.021134,166.913412 C231.300584,166.913412 232.340475,167.906486 232.363426,169.139962 L232.363778,169.194024 L232.259615,187.649956 C232.259615,198.18248 223.529208,206.740719 212.692792,206.910831 L212.363778,206.913412 L212.363778,187.649956 L212.420132,187.649836 L212.474195,169.175204 C212.477853,167.925015 213.525629,166.913412 214.816864,166.913412 L230.021134,166.913412 Z" id="路径备份-3" fill="#00CBCF" transform="translate(222.363778, 186.913412) scale(-1, 1) rotate(161.000000) translate(-222.363778, -186.913412) "></path>
                <path d="M252.679372,201.681179 L252.679264,201.659264 C246.123179,201.273182 240.92564,195.834155 240.92564,189.181179 C240.92564,182.277619 246.522081,176.681179 253.42564,176.681179 C260.078617,176.681179 265.517643,181.878718 265.903725,188.434802 L265.92564,188.43491 L265.92564,199.813919 C265.92564,200.845178 265.08964,201.681179 264.058381,201.681179 L252.679372,201.681179 Z" id="路径备份-3" fill="#FF7673" transform="translate(253.425640, 189.181179) rotate(-15.000000) translate(-253.425640, -189.181179) "></path>
                <circle id="椭圆形备份-12" fill="#FFCC66" cx="189.363778" cy="182.413412" r="11"></circle>
            </g>
        </g>
    </g>
</svg>