<?xml version="1.0" encoding="UTF-8"?>
<svg width="505px" height="84px" viewBox="0 0 505 84" version="1.1" xmlns="http://www.w3.org/2000/svg" xmlns:xlink="http://www.w3.org/1999/xlink">
    <title>编组 5</title>
    <g id="页面-1" stroke="none" stroke-width="1" fill="none" fill-rule="evenodd">
        <g id="Learn-pc" transform="translate(-785.000000, -299.000000)">
            <g id="编组-4" transform="translate(785.000000, 299.000000)">
                <rect id="Rectangle" fill="#FFFFFF" x="0.790073474" y="-7.10542736e-15" width="504" height="83.9706103" rx="41.9853051"></rect>
                <g id="编组-11备份-7" transform="translate(15.000000, 12.415655)" fill-rule="nonzero">
                    <path d="M37.1928756,22.795491 C27.5699343,22.5765882 16.8175066,32.7610098 10.2564103,41.7360233 C13.9743648,45.4573703 20.2232844,48.7505112 25.9095679,48.969414 C37.7195413,49.6261223 47.909333,40.5266152 49.002849,28.9247685 C46.3784105,25.4223242 43.0978623,23.0143938 37.1928756,22.795491 Z" id="路径" fill="#FFCC66"></path>
                    <path d="M49.002849,31.7506392 C46.6797798,33.9535711 44.721968,35.5894381 39.4811272,35.7460341 C34.2402863,35.9026301 25.6446476,30.3578805 16.4875262,27.6511779 C11.5739489,26.2978267 7.93144996,29.756692 5.6980057,33.1400701 C8.37813879,41.9368533 16.1951936,48.4780511 25.7990039,48.9291682 C36.7428807,49.8314024 46.7694047,42.3518908 49.002849,31.7506392 Z" id="路径" fill="#FF7673"></path>
                    <path d="M26.9062959,50.1425681 C26.3493805,50.1418084 25.7885231,50.1173163 25.2246362,50.0682321 C25.0439694,50.0592717 24.863945,50.0479997 24.684586,50.0344437 C19.3609946,49.4709476 13.7039899,46.1881155 10.2564103,42.506462 C13.117574,38.0109244 17.0236078,33.3249905 21.3396883,29.6294305 C27.8586042,32.1513485 33.0217545,34.9251413 37.0766821,35.630476 C42.1457559,36.5122165 45.4484108,33.9972607 47.8632479,31.9493525 C46.8432501,37.06126 44.2157037,41.5316887 40.6159966,44.7619212 C36.9043459,48.0714209 32.1748402,50.0870844 27.0722264,50.1419904 Z" id="形状结合" fill="#FF9F73"></path>
                    <path d="M51.0279683,45.5843631 L60.0338367,53.655242 C61.8998315,55.3275764 62.0508466,58.1853759 60.3713696,60.0426923 C58.7127613,61.8769301 55.8835717,62.0446773 54.0179287,60.4325695 L53.9552888,60.3774458 L44.4449944,51.8525482 C46.9421905,50.1017549 49.1625738,47.9864201 51.0279683,45.5843631 Z" id="形状结合" fill="#009999"></path>
                    <path d="M28.0437563,4.62320464 C40.3177837,5.36053153 49.400564,15.9288836 48.9096029,27.9718893 C48.1731613,40.2606708 37.6174977,49.354369 25.5889508,48.8628178 C13.3149233,48.1254909 4.23214302,37.5571389 4.72310416,25.514133 C5.21406529,13.4711272 16.0152094,4.13165335 28.0437563,4.62320464 M28.3699011,0.040432983 C13.6706376,-0.761772831 0.84218943,10.4691086 0.0404114207,25.1762152 C-0.761366588,39.8833218 10.4635255,52.7186148 25.1627891,53.5208206 C39.8620526,54.3230264 52.4232414,43.092145 53.4922787,28.3850384 C54.561316,13.6779319 43.0691646,1.11004076 28.3699011,0.040432983 Z" id="形状" fill="#009999"></path>
                </g>
                <g id="编组-2" transform="translate(438.813165, 17.993702)">
                    <circle id="椭圆形" cx="23.9916029" cy="23.9916029" r="23.9916029"></circle>
                    <g id="视频" transform="translate(2.399160, 2.399160)" fill-rule="nonzero">
                        <path d="M41.5977485,32.288199 L29.8603181,29.3740388 C29.6388572,29.2993167 29.4173962,29.2993167 29.2697556,29.2993167 C27.6457086,29.1498726 26.3907632,27.7301536 26.3907632,26.1609904 L26.3907632,23.022664 C26.3907632,21.3787788 27.6457086,20.0337817 29.2697556,19.8843376 C29.4912165,19.8843376 29.7126775,19.8096156 29.8603181,19.8096156 L41.5977485,16.8954554 C42.7788735,16.5965672 44.1076392,16.9701774 44.8458424,17.8668421 C45.2887643,18.3898965 45.5840456,19.062395 45.5840456,19.8096156 L45.5840456,29.2993167 C45.5840456,30.0465373 45.2887643,30.7190358 44.8458424,31.2420902 C44.1076392,32.2134769 42.7788735,32.5870872 41.5977485,32.288199 L41.5977485,32.288199 Z" id="路径" fill="#FBE5B4"></path>
                        <path d="M16.7941221,5.39811066 C16.7941221,8.37940486 19.4794737,10.7962213 22.7920228,10.7962213 C26.1045719,10.7962213 28.7899235,8.37940486 28.7899235,5.39811066 C28.7899235,2.41681647 26.1045719,0 22.7920228,0 C19.4794737,0 16.7941221,2.41681647 16.7941221,5.39811066 L16.7941221,5.39811066 Z" id="路径" fill="#FEE5B4"></path>
                        <path d="M8.39706103,7.79727096 C8.39706103,10.1160553 10.2768072,11.9958015 12.5955915,11.9958015 C14.9143759,11.9958015 16.7941221,10.1160553 16.7941221,7.79727096 C16.7941221,5.47848658 14.9143759,3.59874044 12.5955915,3.59874044 C10.2768072,3.59874044 8.39706103,5.47848658 8.39706103,7.79727096 Z" id="路径" fill="#FBE6B4"></path>
                        <path d="M31.2489431,39.5861448 L5.93804145,39.5861448 C2.67211865,39.5861448 0,36.8666936 0,33.5429199 L0,15.6398661 C0,12.3160924 2.67211865,9.59664118 5.93804145,9.59664118 L31.2489431,9.59664118 C34.5148659,9.59664118 37.1869846,12.3160924 37.1869846,15.6398661 L37.1869846,33.5429199 C37.1869846,36.8666936 34.5148659,39.5861448 31.2489431,39.5861448 Z" id="路径" fill="#FACD6A"></path>
                        <path d="M23.5496524,23.9246747 L14.4580976,19.3000141 C13.8688301,18.9967577 13.1953816,19.3758282 13.1953816,19.9823411 L13.1953816,29.2316623 C13.1953816,29.8381751 13.8688301,30.1414316 14.4580976,29.9139892 L23.5496524,25.2135146 C24.1389198,24.9102581 24.1389198,24.2279311 23.5496524,23.9246747 Z" id="路径" fill="#FFFFFF"></path>
                    </g>
                </g>
                <g id="编组" transform="translate(366.838357, 17.993702)">
                    <circle id="椭圆形备份" cx="23.9916029" cy="23.9916029" r="23.9916029"></circle>
                    <g id="图片" transform="translate(4.798321, 4.798321)" fill-rule="nonzero">
                        <path d="M31.1032243,38.3865647 L6.08376025,38.3865647 C2.73769211,38.3865647 0,35.5663273 0,32.1193705 L0,6.26719424 C0,2.82023741 2.73769211,0 6.08376025,0 L31.1032243,0 C34.4492924,0 37.1869846,2.82023741 37.1869846,6.26719424 L37.1869846,32.1193705 C37.1869846,35.5663273 34.4492924,38.3865647 31.1032243,38.3865647 Z" id="路径" fill="#8AE7DE"></path>
                        <path d="M5.99790073,10.1964312 C5.99790073,12.1249904 7.02677476,13.9070526 8.69695603,14.8713322 C10.3671373,15.8356118 12.4248855,15.8356118 14.0950668,14.8713322 C15.765248,13.9070526 16.7941221,12.1249904 16.7941221,10.1964312 C16.7941221,7.21513703 14.3773056,4.79832059 11.3960114,4.79832059 C8.4147172,4.79832059 5.99790073,7.21513703 5.99790073,10.1964312 L5.99790073,10.1964312 Z" id="路径" fill="#FBE5B4"></path>
                        <path d="M32.3019473,19.7350282 C30.0473148,17.4132602 26.3647482,17.4132602 24.1101157,19.7350282 L6.29851841,38.0769956 L5.99790073,38.3865647 L31.174631,38.3865647 C34.4814255,38.3865647 37.1869846,35.6004431 37.1869846,32.1951833 L37.1869846,24.8429179 L32.3019473,19.7350282 Z" id="路径" fill="#0DA896"></path>
                        <path d="M25.1911831,38.3865647 L12.2920833,24.6053416 C10.0157716,22.1875832 6.29779577,22.1875832 4.02148405,24.6053416 L0,28.9573068 L0,31.9392089 C0,35.4852546 2.73157407,38.3865647 6.0701646,38.3865647 L25.1911831,38.3865647 Z" id="路径" fill="#43D5C8"></path>
                    </g>
                </g>
                <g id="编组-3" transform="translate(294.863548, 17.993702)">
                    <circle id="椭圆形备份-2" cx="23.9916029" cy="23.9916029" r="23.9916029"></circle>
                    <g id="对话" transform="translate(2.399160, 5.997901)" fill-rule="nonzero">
                        <path d="M36.6785532,0 L17.3025534,0 C13.7276457,0 10.7962213,2.89982912 10.7962213,6.50693363 L10.7962213,21.1475343 C10.7962213,24.7546388 13.7276457,27.6544679 17.3025534,27.6544679 L28.7422581,27.6544679 L33.31814,31.8273928 C34.6051068,33.0297609 36.8215495,32.1810305 36.8215495,30.412842 L36.8215495,27.5837404 C40.3249591,27.5837404 43.1848853,24.6839113 43.1848853,21.1475343 L43.1848853,6.50693363 C43.1848853,2.89982912 40.253461,0 36.6785532,0 Z" id="路径" fill="#FFC1C1"></path>
                        <path d="M25.8823319,5.99790073 L6.50633206,5.99790073 C2.93142433,5.99790073 0,8.89141126 0,12.4906561 L0,27.0993555 C0,30.6280269 2.85992618,33.5215374 6.36333575,33.5921108 L6.36333575,36.4150479 C6.36333575,38.1793836 8.57977853,39.0262648 9.86674531,37.8265165 L14.4426272,33.6626843 L25.8823319,33.6626843 C29.4572396,33.6626843 32.388664,30.7691737 32.388664,27.169929 L32.388664,12.4906561 C32.388664,8.89141126 29.4572396,5.99790073 25.8823319,5.99790073 Z" id="路径" fill="#FF7673"></path>
                        <path d="M17.5231353,16.3262007 L8.68318655,16.3262007 C7.86604843,16.3262007 7.19748088,15.7136492 7.19748088,14.964975 L7.19748088,14.5566073 C7.19748088,13.8079332 7.86604843,13.1953816 8.68318655,13.1953816 L17.5231353,13.1953816 C18.3402734,13.1953816 19.0088409,13.8079332 19.0088409,14.5566073 L19.0088409,14.964975 C19.0088409,15.7136492 18.3402734,16.3262007 17.5231353,16.3262007 Z M22.5745346,22.7920228 L8.68318655,22.7920228 C7.86604843,22.7920228 7.19748088,22.1794712 7.19748088,21.4307971 L7.19748088,21.0224294 C7.19748088,20.2737552 7.86604843,19.6612037 8.68318655,19.6612037 L22.5002493,19.6612037 C23.3173874,19.6612037 23.9859549,20.2737552 23.9859549,21.0224294 L23.9859549,21.4307971 C24.0602402,22.1794712 23.3916727,22.7920228 22.5745346,22.7920228 L22.5745346,22.7920228 Z" id="形状" fill="#FFFFFF"></path>
                    </g>
                </g>
                <path d="M230.654821,46.7836257 C231.684061,46.7836257 232.526166,46.4561404 233.274704,45.8011696 C233.929675,45.1461988 234.303944,44.2573099 234.303944,43.2280702 C234.303944,42.1988304 233.929675,41.3567251 233.274704,40.7017544 C232.572949,40.0467836 231.684061,39.7192982 230.654821,39.7192982 C229.625581,39.7192982 228.783476,40.0467836 228.128505,40.7017544 C227.379967,41.3567251 227.052482,42.1988304 227.052482,43.2280702 C227.052482,44.2573099 227.379967,45.0994152 228.128505,45.754386 C228.783476,46.4093567 229.625581,46.7836257 230.654821,46.7836257 Z M246.280552,46.7836257 C247.309792,46.7836257 248.151897,46.4561404 248.900435,45.8011696 C249.555406,45.1461988 249.929675,44.2573099 249.929675,43.2280702 C249.929675,42.1988304 249.555406,41.3567251 248.900435,40.7017544 C248.19868,40.0467836 247.309792,39.7192982 246.280552,39.7192982 C245.251312,39.7192982 244.409207,40.0467836 243.754236,40.7017544 C243.005698,41.3567251 242.678213,42.1988304 242.678213,43.2280702 C242.678213,44.2573099 243.005698,45.0994152 243.754236,45.754386 C244.409207,46.4093567 245.251312,46.7836257 246.280552,46.7836257 Z M261.859499,46.7836257 C262.888739,46.7836257 263.730844,46.4561404 264.432599,45.8011696 C265.134353,45.1461988 265.508622,44.2573099 265.508622,43.2280702 C265.508622,42.1988304 265.134353,41.3567251 264.479382,40.7017544 C263.777628,40.0467836 262.888739,39.7192982 261.859499,39.7192982 C260.830259,39.7192982 259.988154,40.0467836 259.2864,40.7017544 C258.584645,41.3567251 258.25716,42.1988304 258.25716,43.2280702 C258.25716,44.2573099 258.584645,45.0994152 259.2864,45.754386 C259.988154,46.4093567 260.830259,46.7836257 261.859499,46.7836257 Z" id="…" fill="#43D5C8" fill-rule="nonzero"></path>
            </g>
        </g>
    </g>
</svg>