<?xml version="1.0" encoding="UTF-8"?>
<svg viewBox="0 0 94 40" xmlns="http://www.w3.org/2000/svg">
<path d="m6.12 39.92c3.38 0 6.12-2.74 6.12-6.12s-2.74-6.12-6.12-6.12-6.12 2.74-6.12 6.12 2.74 6.12 6.12 6.12z" fill="#EB6161"/>
<path d="m25.4 14.52c0.8 0 1.44 0.64 1.44 1.44l-0.08 11.72c0 6.68-5.36 12.12-12.04 12.24h-0.2v-12.2h0.04l0.04-11.72c0-0.8 0.64-1.44 1.44-1.44h9.36v-0.04zm18.8 0c0.8 0 1.44 0.64 1.44 1.44v16.4c0 0.8-0.64 1.44-1.44 1.44h-9.36c-0.8 0-1.44-0.64-1.44-1.44v-16.4c0-0.8 0.64-1.44 1.44-1.44h9.36zm14.72-0.04h0.2c6 0.08 10.88 4.92 11.04 10.92v6.92c0 0.8-0.64 1.44-1.44 1.44h-15.12c-0.8 0-1.44-0.64-1.44-1.44v-16.4c0-0.8 0.64-1.44 1.44-1.44h5.32zm24.76 19.12c-5.04-0.32-9.08-4.52-9.08-9.64 0-5.32 4.32-9.64 9.64-9.64 5.12 0 9.32 4 9.64 9.08v8.76c0 0.8-0.64 1.44-1.44 1.44h-8.76z" clip-rule="evenodd" fill="#009191" fill-rule="evenodd"/>
<path d="m39.499 12.24c3.38 0 6.12-2.74 6.12-6.12s-2.74-6.12-6.12-6.12-6.12 2.74-6.12 6.12 2.74 6.12 6.12 6.12z" fill="#FBCB67"/>
</svg>
