<?xml version="1.0" encoding="UTF-8"?>
<svg width="252px" height="252px" viewBox="0 0 252 252" version="1.1" xmlns="http://www.w3.org/2000/svg" xmlns:xlink="http://www.w3.org/1999/xlink">
    <title>编组 15</title>
    <defs>
        <rect id="path-1" x="0" y="0" width="252" height="252" rx="126"></rect>
    </defs>
    <g id="页面-1" stroke="none" stroke-width="1" fill="none" fill-rule="evenodd">
        <g id="Box-pc" transform="translate(-150.000000, -681.000000)">
            <g id="编组-16" transform="translate(0.000000, 601.000000)">
                <g id="website" transform="translate(150.000000, 80.000000)">
                    <mask id="mask-2" fill="white">
                        <use xlink:href="#path-1"></use>
                    </mask>
                    <use id="蒙版" fill="#F8F8F8" xlink:href="#path-1"></use>
                    <g mask="url(#mask-2)" fill-rule="nonzero">
                        <g transform="translate(23.000000, 66.000000)">
                            <path d="M4,0 L204,0 C206.209139,-4.05812251e-16 208,1.790861 208,4 L208,186 L208,186 L0,186 L0,4 C-2.705415e-16,1.790861 1.790861,4.05812251e-16 4,0 Z" id="路径" fill="#009999"></path>
                            <path d="M28.4705882,42.875 L179.529412,42.875 C181.738551,42.875 183.529412,44.665861 183.529412,46.875 L183.529412,69.5 C183.529412,71.709139 181.738551,73.5 179.529412,73.5 L28.4705882,73.5 C26.2614492,73.5 24.4705882,71.709139 24.4705882,69.5 L24.4705882,46.875 C24.4705882,44.665861 26.2614492,42.875 28.4705882,42.875 Z M95.764706,97.9999999 L179.529412,97.9999999 C181.738551,97.9999999 183.529412,99.7908609 183.529412,102 L183.529412,112.375 C183.529412,114.584139 181.738551,116.375 179.529412,116.375 L95.764706,116.375 C93.555567,116.375 91.764706,114.584139 91.764706,112.375 L91.764706,102 C91.764706,99.7908609 93.555567,97.9999999 95.764706,97.9999999 Z M140.705882,132.625 L140.705882,143 C140.705882,145.209139 138.915021,147 136.705882,147 L95.764706,147 C93.555567,147 91.764706,145.209139 91.764706,143 L91.764706,132.625 C91.764706,130.415861 93.555567,128.625 95.764706,128.625 L136.705882,128.625 C138.915021,128.625 140.705882,130.415861 140.705882,132.625 Z" id="形状" fill="#E1E5F0"></path>
                            <path d="M28.4705882,97.9999999 L69.4117648,97.9999999 C71.6209038,97.9999999 73.4117648,99.7908609 73.4117648,102 L73.4117648,143 C73.4117648,145.209139 71.6209038,147 69.4117648,147 L28.4705882,147 C26.2614492,147 24.4705882,145.209139 24.4705882,143 L24.4705882,102 C24.4705882,99.7908609 26.2614492,97.9999999 28.4705882,97.9999999 Z" id="路径" fill="#00CBCF"></path>
                            <path d="M4,0 L204,0 C206.209139,-1.61026889e-14 208,1.790861 208,4 L208,14.375 C208,16.584139 206.209139,18.375 204,18.375 L4,18.375 C1.790861,18.375 2.705415e-16,16.584139 0,14.375 L0,4 C-2.705415e-16,1.790861 1.790861,4.05812251e-16 4,0 Z" id="路径" fill="#FFCC66"></path>
                        </g>
                    </g>
                </g>
            </g>
        </g>
    </g>
</svg>