<svg width="136" height="136" viewBox="0 0 136 136" fill="none" xmlns="http://www.w3.org/2000/svg">
<path fill-rule="evenodd" clip-rule="evenodd" d="M50.8122 37.1871C68.3089 27.0854 90.7841 33.2545 101.01 50.9656C111.236 68.6782 105.341 91.2268 87.8443 101.329C70.3462 111.431 47.872 105.261 37.6457 87.5488C27.4202 69.8377 33.3141 47.2897 50.8122 37.1871Z" fill="#B8DF9F"/>
<path fill-rule="evenodd" clip-rule="evenodd" d="M72.1782 48.7544C72.8975 52.6502 69.7523 56.4418 65.1534 57.2217C60.5541 58.0038 56.2423 55.4793 55.5229 51.5834C54.8036 47.6876 57.9475 43.8968 62.5477 43.1161C67.1471 42.334 71.4588 44.8585 72.1782 48.7544Z" fill="#A7CDA5"/>
<path fill-rule="evenodd" clip-rule="evenodd" d="M64.0853 82.227L63.6321 83.9485C78.9583 88.1267 93.3437 90.7688 104.976 91.7876C110.795 92.2976 115.925 92.4004 120.173 92.0755C122.299 91.9104 124.205 91.6393 125.88 91.2446C127.554 90.8485 129 90.3345 130.213 89.636C130.973 89.1971 131.644 88.6804 132.193 88.0535C132.469 87.7408 132.711 87.4001 132.91 87.0335C133.112 86.6676 133.27 86.2743 133.376 85.8657C133.485 85.4577 133.54 85.0376 133.547 84.6186C133.557 83.9881 133.455 83.3638 133.272 82.7601C133.087 82.1537 132.82 81.5685 132.489 80.9907C131.78 79.7707 130.781 78.5897 129.524 77.3934C128.425 76.3488 127.126 75.2951 125.64 74.2281C123.037 72.3623 119.862 70.454 116.185 68.5275C110.672 65.6416 104.035 62.7218 96.5753 59.9203C89.1149 57.1175 80.8307 54.4375 72.0314 52.038C56.7067 47.859 42.3205 45.2155 30.6877 44.1967C24.8685 43.6889 19.7394 43.5839 15.4904 43.911C13.365 44.0741 11.4598 44.3466 9.78502 44.7412C8.11023 45.1377 6.66404 45.6517 5.45045 46.3487C4.69085 46.7891 4.01903 47.3046 3.4697 47.9313C3.19525 48.2437 2.95312 48.5842 2.75287 48.9513C2.55276 49.3183 2.39443 49.71 2.28724 50.119C2.17923 50.5266 2.12339 50.9473 2.11755 51.3673C2.1072 51.9962 2.20795 52.6211 2.39231 53.2259C2.57667 53.8306 2.84337 54.4179 3.17556 54.9936C3.88335 56.2156 4.88339 57.3965 6.13885 58.5914C7.23826 59.6361 8.53751 60.6893 10.0242 61.7563C12.6256 63.6227 15.8029 65.5319 19.4791 67.4571C24.9929 70.3442 31.6281 73.2632 39.0897 76.0654C46.5493 78.8668 54.8329 81.549 63.6321 83.9485L64.5384 80.5054C49.3933 76.3766 35.8023 71.3992 25.4768 66.4788C20.3154 64.0206 15.9705 61.5752 12.6785 59.2855C11.0334 58.143 9.65248 57.0394 8.56962 56.0095C7.48618 54.9818 6.70602 54.0249 6.24454 53.2217C5.95337 52.718 5.78749 52.279 5.71646 51.9259C5.67999 51.7481 5.6661 51.591 5.66821 51.449C5.67046 51.307 5.68858 51.1802 5.72094 51.0545C5.75412 50.9303 5.80135 50.8111 5.86941 50.6873C5.97067 50.5013 6.1211 50.3037 6.34439 50.0922C6.56781 49.8825 6.86351 49.6611 7.23806 49.4449C8.03253 48.9843 9.17872 48.5534 10.6214 48.214C11.8844 47.9164 13.3734 47.6853 15.0565 47.5299C18.0025 47.257 21.5431 47.217 25.545 47.4154C31.5517 47.7098 38.6017 48.539 46.3205 49.8885C54.04 51.2395 62.4288 53.1085 71.1257 55.4789C86.2695 59.6085 99.8626 64.5865 110.188 69.5069C115.349 71.9637 119.695 74.4105 122.985 76.6988C124.63 77.8434 126.011 78.9469 127.094 79.975C128.177 81.0031 128.958 81.9596 129.42 82.7626C129.711 83.2678 129.877 83.7054 129.948 84.0603C129.984 84.2363 129.997 84.394 129.995 84.5358C129.993 84.6776 129.975 84.8043 129.942 84.9304C129.909 85.0543 129.863 85.1732 129.796 85.2984C129.692 85.4837 129.543 85.6825 129.32 85.892C129.096 86.1037 128.801 86.3231 128.425 86.5398C127.631 87.0003 126.486 87.4326 125.042 87.7706C123.781 88.0693 122.291 88.301 120.608 88.4563C117.662 88.7273 114.122 88.7687 110.119 88.5711C104.112 88.2745 97.0624 87.4453 89.3437 86.0957C81.6235 84.747 73.2347 82.878 64.5384 80.5054L64.0853 82.227Z" fill="#ADBD8B"/>
<path fill-rule="evenodd" clip-rule="evenodd" d="M99.657 90.7313C100.085 90.1502 100.466 89.535 100.795 88.892L102.564 85.4417L32.7265 66.3017C32.5586 67.9231 32.546 70.3719 32.9296 73.379C33.0802 74.5593 33.6292 77.1055 33.6292 77.1055L97.8034 93.2557L99.657 90.7313Z" fill="#B8DF9F"/>
<path fill-rule="evenodd" clip-rule="evenodd" d="M40.3937 71.4511C42.2143 70.4 44.8536 71.5612 46.2886 74.0467C47.7228 76.5308 47.4088 79.3972 45.5882 80.4483C43.7676 81.4994 41.1283 80.3381 39.6941 77.854C38.2592 75.3685 38.5731 72.5022 40.3937 71.4511Z" fill="#A7CDA5"/>
<path fill-rule="evenodd" clip-rule="evenodd" d="M96.7405 76.4063C95.1692 78.7586 91.2583 78.7449 88.0077 76.3741C84.7571 74.0033 83.3948 70.1738 84.9675 67.8207C86.5402 65.4676 90.4497 65.4822 93.7016 67.8522C96.9522 70.223 98.3132 74.0532 96.7405 76.4063Z" fill="#A7CDA5"/>
<path fill-rule="evenodd" clip-rule="evenodd" d="M57.6022 73.5792C59.295 72.0916 62.3011 72.7696 64.3182 75.0935C66.3339 77.4181 66.5982 80.5074 64.9062 81.9963C63.2147 83.4831 60.2087 82.8051 58.1916 80.4812C56.1745 78.1573 55.9115 75.0673 57.6022 73.5792Z" fill="#A7CDA5"/>
<path fill-rule="evenodd" clip-rule="evenodd" d="M64.474 102.732C64.4499 102.038 65.3997 101.302 66.5973 101.09C67.7927 100.877 68.7829 101.267 68.807 101.961C68.8317 102.656 67.8812 103.391 66.6858 103.604C65.489 103.817 64.4987 103.427 64.474 102.732Z" fill="#A7CDA5"/>
<path fill-rule="evenodd" clip-rule="evenodd" d="M81.4388 96.4972C80.309 94.0681 81.9409 90.8937 85.0852 89.4079C88.2287 87.9207 91.6937 88.6849 92.8235 91.1139C93.9518 93.5437 92.32 96.7182 89.1757 98.204C86.0322 99.6912 82.5686 98.9262 81.4388 96.4972Z" fill="#A7CDA5"/>
<path fill-rule="evenodd" clip-rule="evenodd" d="M91.1926 50.31C91.1388 49.5817 91.836 48.8844 92.7482 48.7513C93.6612 48.6195 94.4446 49.0999 94.4985 49.8282C94.5516 50.5552 93.8551 51.2538 92.9421 51.3856C92.0298 51.5187 91.2457 51.037 91.1926 50.31Z" fill="#A7CDA5"/>
</svg>
