<svg width="100" height="100" viewBox="0 0 100 100" fill="none" xmlns="http://www.w3.org/2000/svg">
<path fill-rule="evenodd" clip-rule="evenodd" d="M85.1227 50.8725C85.1227 71.076 68.5425 87.4554 48.0915 87.4554C27.6388 87.4554 11.0586 71.076 11.0586 50.8725C11.0586 30.6674 27.6388 14.2891 48.0915 14.2891C68.5425 14.2891 85.1227 30.6674 85.1227 50.8725Z" fill="#F7D6A7"/>
<path fill-rule="evenodd" clip-rule="evenodd" d="M64.4224 63.5919C60.6888 62.267 58.9779 57.6473 60.6019 53.2747C62.2242 48.9004 66.5664 46.4286 70.3 47.7535C74.0336 49.0785 75.7445 53.6965 74.1205 58.0708C72.4981 62.445 68.156 64.9169 64.4224 63.5919Z" fill="#EFBA6E"/>
<path fill-rule="evenodd" clip-rule="evenodd" d="M39.4803 39.8477L38.216 38.5945C26.9345 49.7783 17.4536 60.9153 10.755 70.4802C7.40398 75.2643 4.75018 79.6553 2.90731 83.4971C1.9875 85.4203 1.26921 87.2067 0.77355 88.8546C0.279518 90.5024 0.00162511 92.0117 0 93.4115C0 94.2894 0.112132 95.1286 0.380275 95.9179C0.513533 96.3125 0.68742 96.6927 0.905184 97.0487C1.12132 97.4063 1.38297 97.7397 1.68361 98.0361C1.98263 98.3341 2.31903 98.5918 2.67817 98.8077C3.21933 99.1314 3.81087 99.3553 4.42516 99.4987C5.0427 99.6421 5.683 99.7033 6.34929 99.7049C7.75988 99.7017 9.28261 99.4262 10.9467 98.9365C12.4012 98.5064 13.9629 97.9088 15.6303 97.155C18.5473 95.8341 21.7878 94.0381 25.2948 91.8168C30.5504 88.4857 36.3975 84.1978 42.5534 79.1382C48.7109 74.0787 55.174 68.2444 61.6516 61.8238C72.9331 50.6417 82.4156 39.5046 89.1143 29.9397C92.4636 25.1541 95.1191 20.7647 96.9603 16.9213C97.8818 14.9991 98.5984 13.2129 99.0941 11.5652C99.5881 9.91659 99.866 8.40712 99.8693 7.00766C99.8676 6.12961 99.7571 5.29007 99.489 4.50094C99.3557 4.1071 99.1818 3.72711 98.9641 3.37016C98.7463 3.01337 98.4863 2.68042 98.1856 2.38307C97.8866 2.08571 97.5502 1.82702 97.1895 1.61198C96.6499 1.28853 96.0584 1.06334 95.4425 0.920625C94.8266 0.777909 94.1846 0.715249 93.52 0.715088C92.1077 0.717021 90.585 0.992628 88.9225 1.48247C87.4681 1.91223 85.9063 2.5108 84.239 3.26482C81.3219 4.58454 78.0798 6.38154 74.5745 8.60267C69.3173 11.9341 63.4718 16.2209 57.3142 21.2817C51.1583 26.3412 44.6937 32.1739 38.216 38.5945L40.7447 41.1009C51.8929 30.0493 62.9989 20.7679 72.4228 14.2859C77.1324 11.0451 81.4227 8.50505 85.0515 6.7989C86.8635 5.9455 88.5098 5.30134 89.9431 4.87851C91.3748 4.45407 92.5937 4.2569 93.52 4.25884C94.1018 4.25851 94.5649 4.33438 94.9062 4.44939C95.0784 4.50674 95.2215 4.57326 95.3433 4.64607C95.4652 4.71904 95.566 4.79813 95.6586 4.88898C95.7496 4.97983 95.8292 5.08034 95.9024 5.20115C96.0129 5.38188 96.1088 5.61094 96.1803 5.91006C96.2501 6.20838 96.294 6.57516 96.294 7.00766C96.2956 7.92597 96.0958 9.13407 95.6684 10.5532C95.2946 11.7957 94.7502 13.2008 94.0433 14.7361C92.8065 17.4239 91.0709 20.5101 88.8982 23.8767C85.6398 28.9314 81.3967 34.6223 76.3686 40.6322C71.3389 46.6421 65.5259 52.9725 59.1246 59.319C47.9764 70.3691 36.8688 79.6521 27.4448 86.1339C22.7369 89.3748 18.445 91.9151 14.8177 93.6209C13.0041 94.473 11.3579 95.1173 9.92615 95.541C8.49443 95.9646 7.2756 96.1627 6.34929 96.1611C5.76588 96.1611 5.30435 96.0854 4.96145 95.9694C4.79081 95.9131 4.6478 95.8454 4.52592 95.7729C4.40404 95.7004 4.30328 95.6215 4.21065 95.5297C4.11964 95.4395 4.04001 95.3396 3.96526 95.2188C3.85638 95.0368 3.75887 94.8081 3.68899 94.5101C3.61749 94.2105 3.57523 93.8448 3.57523 93.4115C3.57361 92.4933 3.77187 91.2853 4.2009 89.8661C4.57305 88.6242 5.11746 87.218 5.82438 85.6829C7.06271 82.9961 8.7967 79.9098 10.9695 76.5416C14.2294 71.4886 18.4726 65.7976 23.5007 59.7878C28.5287 53.7763 34.3417 47.4459 40.7447 41.1009L39.4803 39.8477Z" fill="#EDAA55"/>
<path fill-rule="evenodd" clip-rule="evenodd" d="M14.3297 66.4012C14.6192 67.062 14.961 67.7003 15.3535 68.3064L17.4569 71.5639L68.9516 20.6525C67.6314 19.6963 65.5169 18.461 62.7209 17.2897C61.6234 16.83 59.1439 16.0323 59.1439 16.0323L13.0703 63.5337L14.3297 66.4012Z" fill="#F7D6A7"/>
<path fill-rule="evenodd" clip-rule="evenodd" d="M60.6586 24.7178C60.6586 26.8201 58.3332 28.5251 55.4633 28.5251C52.5949 28.5251 50.2695 26.8201 50.2695 24.7178C50.2695 22.6156 52.5949 20.9105 55.4633 20.9105C58.3332 20.9105 60.6586 22.6156 60.6586 24.7178Z" fill="#EFBA6E"/>
<path fill-rule="evenodd" clip-rule="evenodd" d="M28.1933 71.0388C26.9418 68.5018 28.9091 65.1218 32.5876 63.4921C36.266 61.8624 40.2636 62.5974 41.5151 65.1359C42.7666 67.6744 40.7992 71.0529 37.1208 72.6841C33.4423 74.3138 29.4448 73.5773 28.1933 71.0388Z" fill="#EFBA6E"/>
<path fill-rule="evenodd" clip-rule="evenodd" d="M50.2113 38.5567C50.6532 40.7665 48.563 43.0309 45.5419 43.6158C42.5208 44.1991 39.7133 42.8834 39.2699 40.6736C38.828 38.4653 40.9182 36.201 43.9393 35.6161C46.9604 35.0312 49.7679 36.3485 50.2113 38.5567Z" fill="#EFBA6E"/>
<path fill-rule="evenodd" clip-rule="evenodd" d="M21.5281 29.9325C22.141 30.2586 22.3037 31.4493 21.8885 32.5924C21.4748 33.7338 20.6416 34.3963 20.0287 34.0701C19.4143 33.744 19.253 32.5533 19.6668 31.4119C20.0806 30.2688 20.9137 29.6064 21.5281 29.9325Z" fill="#EFBA6E"/>
<path fill-rule="evenodd" clip-rule="evenodd" d="M18.4449 47.7417C21.1133 47.9778 23.0466 50.9783 22.7612 54.4442C22.4774 57.9102 20.083 60.5289 17.4146 60.2928C14.7461 60.055 12.8129 57.0546 13.0983 53.5886C13.382 50.1227 15.7764 47.5056 18.4449 47.7417Z" fill="#EFBA6E"/>
<path fill-rule="evenodd" clip-rule="evenodd" d="M53.5673 79.2821C54.225 79.5996 54.4802 80.5521 54.1394 81.4087C53.7971 82.2653 52.9893 82.7035 52.3317 82.386C51.6755 82.0685 51.4188 81.116 51.7611 80.2594C52.1019 79.4028 52.9112 78.9646 53.5673 79.2821Z" fill="#EFBA6E"/>
</svg>
