<?xml version="1.0" encoding="UTF-8"?>
<svg width="252px" height="252px" viewBox="0 0 252 252" version="1.1" xmlns="http://www.w3.org/2000/svg" xmlns:xlink="http://www.w3.org/1999/xlink">
    <title>编组 30</title>
    <defs>
        <rect id="path-1" x="0" y="0" width="252" height="252" rx="126"></rect>
    </defs>
    <g id="页面-1" stroke="none" stroke-width="1" fill="none" fill-rule="evenodd">
        <g id="Dashboard-pc" transform="translate(-150.000000, -1505.000000)">
            <g id="路径" transform="translate(0.000000, 1425.000000)">
                <g id="编组-30" transform="translate(150.000000, 80.000000)">
                    <g id="编组-23">
                        <mask id="mask-2" fill="white">
                            <use xlink:href="#path-1"></use>
                        </mask>
                        <use id="蒙版" fill="#F8F8F8" xlink:href="#path-1"></use>
                        <g mask="url(#mask-2)">
                            <g transform="translate(120.500000, 202.000000) rotate(90.000000) translate(-120.500000, -202.000000) translate(15.000000, 88.000000)">
                                <rect id="矩形" fill="#32C8CD" x="114" y="33" width="83" height="10" rx="5"></rect>
                                <rect id="矩形备份-3" fill="#32C8CD" x="93" y="49" width="90" height="10" rx="5"></rect>
                                <rect id="矩形备份-27" fill="#32C8CD" x="70" y="0.5" width="83" height="10" rx="5"></rect>
                                <rect id="矩形备份-25" fill="#32C8CD" x="92.5" y="16.5" width="90" height="10" rx="5"></rect>
                                <rect id="矩形备份-4" fill="#32C8CD" x="61" y="64" width="92" height="10" rx="5"></rect>
                                <rect id="矩形备份-5" fill="#32C8CD" x="71.5" y="79.5" width="134" height="10" rx="5"></rect>
                                <rect id="矩形备份-6" fill="#32C8CD" x="134.5" y="94.5" width="76" height="10" rx="5"></rect>
                                <rect id="矩形备份-26" fill="#FFCC66" x="100" y="95" width="27" height="10" rx="5"></rect>
                                <rect id="矩形备份-7" fill="#32C8CD" x="38.5" y="109.5" width="110" height="10" rx="5"></rect>
                                <rect id="矩形备份-8" fill="#32C8CD" x="123.5" y="125.5" width="48" height="10" rx="5"></rect>
                                <rect id="矩形备份-23" fill="#32C8CD" x="90" y="125" width="27" height="10" rx="5"></rect>
                                <rect id="矩形备份-22" fill="#FFCC66" x="0.5" y="125.5" width="83" height="10" rx="5"></rect>
                                <rect id="矩形备份-10" fill="#FFCC66" x="133.5" y="141.5" width="30" height="10" rx="5"></rect>
                                <rect id="矩形备份-21" fill="#32C8CD" x="65" y="141" width="63" height="10" rx="5"></rect>
                                <rect id="矩形备份-11" fill="#32C8CD" x="66" y="157" width="41" height="10" rx="5"></rect>
                                <rect id="矩形备份-20" fill="#32C8CD" x="115" y="157" width="49" height="10" rx="5"></rect>
                                <rect id="矩形备份-12" fill="#FF6666" x="150.5" y="171.5" width="22" height="10" rx="5"></rect>
                                <rect id="矩形备份-19" fill="#32C8CD" x="67" y="172" width="77" height="10" rx="5"></rect>
                                <rect id="矩形备份-13" fill="#32C8CD" x="100.5" y="186.5" width="110" height="10" rx="5"></rect>
                                <rect id="矩形备份-18" fill="#FFCC66" x="66" y="187" width="27" height="10" rx="5"></rect>
                                <rect id="矩形备份-15" fill="#32C8CD" x="66.5" y="202.5" width="68" height="10" rx="5"></rect>
                                <rect id="矩形备份-17" fill="#32C8CD" x="141.5" y="202.5" width="68" height="10" rx="5"></rect>
                                <rect id="矩形备份-16" fill="#32C8CD" x="70.5" y="217.5" width="134" height="10" rx="5"></rect>
                            </g>
                        </g>
                    </g>
                    <circle id="椭圆形备份" fill="#FFCC66" cx="48" cy="105" r="19"></circle>
                    <circle id="椭圆形备份-9" fill="#FF7673" cx="187" cy="105" r="10"></circle>
                </g>
            </g>
        </g>
    </g>
</svg>