<?xml version="1.0" encoding="UTF-8"?>
<svg width="320px" height="320px" viewBox="0 0 320 320" version="1.1" xmlns="http://www.w3.org/2000/svg"
    xmlns:xlink="http://www.w3.org/1999/xlink">
    <title>编组 30</title>
    <g id="页面-1" stroke="none" stroke-width="1" fill="none" fill-rule="evenodd">
        <g id="Search-pc" transform="translate(-970.000000, -181.000000)" fill-rule="nonzero">
            <g id="编组-39" transform="translate(970.000000, 181.000000)">
                <g id="Product-logo_Core_Colorful" transform="translate(18.181818, 18.181818)">
                    <path
                        d="M164.890662,101.818182 L166.177402,101.833681 C192.037845,102.798879 206.592248,113.258604 218.181818,128.543035 C212.876178,181.535506 166.399107,220.244151 113.616208,218.096673 C86.7610015,216.49054 63.3024918,204.466625 46.5454545,186.332666 C75.1985106,147.002702 121.577517,102.667424 163.609626,101.830178 L164.890662,101.818182 Z"
                        id="路径" fill="#FFCC66"></path>
                    <path
                        d="M23.2727273,150.05278 L23.2925967,150.026033 C33.3497407,135.653849 49.460139,121.374331 71.0417653,127.121397 C112.08289,138.850102 150.607517,162.876657 174.09634,162.198093 C196.450813,161.552301 205.478011,155.100687 215.272727,146.250565 C203.33678,190.204812 160.744233,220.718581 113.02122,218.825689 C69.7977272,216.305487 35.3318335,187.599487 23.2727273,150.05278 Z"
                        id="路径" fill="#FF7673"></path>
                    <path
                        d="M94.4816884,134.526886 L95.3403973,133.818182 L97.1109608,134.479904 C125.909749,145.306969 148.815324,156.996966 166.881818,160.014467 C189.477457,163.788436 204.352693,153.307494 215.272727,144.470515 C203.474938,189.036416 160.803324,220.0138 112.976242,218.097616 C86.4973638,216.538134 63.3067279,205.047265 46.5454545,187.657 C59.1974282,169.052487 75.9881248,149.892245 94.4816884,134.526886 Z"
                        id="路径" fill="#FF9F73"></path>
                    <path
                        d="M226.828321,202.552381 L266.779711,238.420806 C275.057659,245.85281 275.727594,258.55313 268.277078,266.807211 C260.91914,274.95873 248.368256,275.704214 240.091868,268.539861 L239.813985,268.294887 L197.619902,230.412563 C208.700031,222.631105 218.551826,213.229046 226.828321,202.552381 Z M0.180669766,112.435732 C3.76522687,46.7545213 61.1181405,-3.4020398 126.835021,0.180571703 C192.551901,4.95738713 243.930553,61.0849676 239.151143,126.766178 C234.371734,192.447389 178.213673,242.60395 112.496793,239.021339 C46.779912,235.438727 -3.40388734,178.116943 0.180669766,112.435732 Z M125.376906,20.6470033 C71.6001584,18.4517596 23.3108349,60.1613881 21.1158654,113.944856 C18.920896,167.728325 59.5278275,214.926063 114.402059,218.218928 C168.178806,220.414172 215.370646,179.802165 218.663099,124.921075 C220.836119,71.6754414 181.058995,24.8844821 127.018824,20.7589234 L125.376906,20.6470033 Z"
                        id="形状" fill="#FFFFFF"></path>
                </g>
            </g>
        </g>
    </g>
</svg>