<?xml version="1.0" encoding="UTF-8"?>
<svg width="252px" height="252px" viewBox="0 0 252 252" version="1.1" xmlns="http://www.w3.org/2000/svg" xmlns:xlink="http://www.w3.org/1999/xlink">
    <title>编组 27</title>
    <g id="页面-1" stroke="none" stroke-width="1" fill="none" fill-rule="evenodd">
        <g id="Search-pc" transform="translate(-1039.000000, -1093.000000)">
            <g id="编组-27" transform="translate(1039.000000, 1093.000000)">
                <g id="编组-26">
                    <rect id="矩形" fill="#FFFFFF" x="0" y="0" width="252" height="252" rx="126"></rect>
                    <g id="Easy-System-Engineering" transform="translate(13.000000, 19.000000)">
                        <g id="back-web-design" transform="translate(34.000000, 0.000000)">
                            <g id="Group" transform="translate(0.000000, 39.496429)">
                                <rect id="Rectangle备份" stroke="#E4E4E4" stroke-width="5" x="0.0838383838" y="0.8308081" width="171" height="104"></rect>
                                <rect id="Rectangle" fill="#D8DEED" fill-rule="nonzero" x="11.6747475" y="98.336364" width="13.0732323" height="13.0732323"></rect>
                            </g>
                            <g id="Font" transform="translate(134.000000, 0.000000)" fill="#FF7673" fill-rule="nonzero">
                                <g id="Group">
                                    <path d="M30.5050029,0.403011941 L56.4949971,15.3989509 C57.4262961,15.9363001 58,16.9293625 58,18.0040611 L58,47.995939 C58,49.0706375 57.4262961,50.0636999 56.4949971,50.6010491 L30.5050029,65.5969881 C29.5737039,66.1343373 28.4262961,66.1343373 27.494997,65.5969881 L1.50500295,50.6010491 C0.573703881,50.0636999 0,49.0706375 0,47.995939 L0,18.0040611 C0,16.9293625 0.573703881,15.9363001 1.50500295,15.3989509 L27.494997,0.403011941 C28.4262961,-0.134337314 29.5737039,-0.134337314 30.5050029,0.403011941 Z" id="多边形"></path>
                                </g>
                            </g>
                        </g>
                        <g id="UI-/-Code-/-1" transform="translate(0.000000, 15.000000)" fill-rule="nonzero">
                            <g id="Code">
                                <g id="path-3-link" transform="translate(0.000000, 79.000000)" fill="#009999">
                                    <path d="M174.053368,108.245022 L11.5893813,108.245022 C5.20990532,108.245022 -1.61008263e-13,103.913453 -1.61008263e-13,98.6094909 L-1.61008263e-13,9.63553071 C-1.61008263e-13,4.33156882 5.20990532,-4.30273101e-14 11.5893813,-4.30273101e-14 L174.053368,-4.30273101e-14 C180.432844,-4.30273101e-14 185.642749,4.33156882 185.642749,9.63553071 L185.642749,98.5652914 C185.642749,103.913453 180.432844,108.245022 174.053368,108.245022 Z" id="path-3"></path>
                                </g>
                                <g id="Text" transform="translate(26.000000, 105.000000)">
                                    <path d="M24.9122441,54.1090909 C26.7021487,54.1090909 28.1531532,55.5600953 28.1531532,57.35 C28.1531532,59.1399047 26.7021487,60.5909091 24.9122441,60.5909091 L3.24090909,60.5909091 C1.45100442,60.5909091 0,59.1399047 0,57.35 C0,55.5600953 1.45100442,54.1090909 3.24090909,54.1090909 L24.9122441,54.1090909 Z M58.1329648,54.1090909 C59.9228694,54.1090909 61.3738739,55.5600953 61.3738739,57.35 C61.3738739,59.1399047 59.9228694,60.5909091 58.1329648,60.5909091 L36.4616298,60.5909091 C34.6717251,60.5909091 33.2207207,59.1399047 33.2207207,57.35 C33.2207207,55.5600953 34.6717251,54.1090909 36.4616298,54.1090909 L58.1329648,54.1090909 Z M91.3536855,54.1090909 C93.1435902,54.1090909 94.5945946,55.5600953 94.5945946,57.35 C94.5945946,59.1399047 93.1435902,60.5909091 91.3536855,60.5909091 L69.6823505,60.5909091 C67.8924459,60.5909091 66.4414414,59.1399047 66.4414414,57.35 C66.4414414,55.5600953 67.8924459,54.1090909 69.6823505,54.1090909 L91.3536855,54.1090909 Z M139.777109,36.0727273 C141.567014,36.0727273 143.018018,37.5237317 143.018018,39.3136364 C143.018018,41.103541 141.567014,42.5545455 139.777109,42.5545455 L94.4571253,42.5545455 C92.6672206,42.5545455 91.2162162,41.103541 91.2162162,39.3136364 C91.2162162,37.5237317 92.6672206,36.0727273 94.4571253,36.0727273 L139.777109,36.0727273 Z M63.2005324,36.0727273 C64.990437,36.0727273 66.4414414,37.5237317 66.4414414,39.3136364 C66.4414414,41.103541 64.990437,42.5545455 63.2005324,42.5545455 L55.0427109,42.5545455 C53.2528062,42.5545455 51.8018018,41.103541 51.8018018,39.3136364 C51.8018018,37.5237317 53.2528062,36.0727273 55.0427109,36.0727273 L63.2005324,36.0727273 Z M24.9122441,18.0363636 C26.7021487,18.0363636 28.1531532,19.4873681 28.1531532,21.2772727 C28.1531532,23.0671774 26.7021487,24.5181818 24.9122441,24.5181818 L3.24090909,24.5181818 C1.45100442,24.5181818 0,23.0671774 0,21.2772727 C0,19.4873681 1.45100442,18.0363636 3.24090909,18.0363636 L24.9122441,18.0363636 Z M58.1329648,18.0363636 C59.9228694,18.0363636 61.3738739,19.4873681 61.3738739,21.2772727 C61.3738739,23.0671774 59.9228694,24.5181818 58.1329648,24.5181818 L36.4616298,24.5181818 C34.6717251,24.5181818 33.2207207,23.0671774 33.2207207,21.2772727 C33.2207207,19.4873681 34.6717251,18.0363636 36.4616298,18.0363636 L58.1329648,18.0363636 Z M91.3536855,18.0363636 C93.1435902,18.0363636 94.5945946,19.4873681 94.5945946,21.2772727 C94.5945946,23.0671774 93.1435902,24.5181818 91.3536855,24.5181818 L69.6823505,24.5181818 C67.8924459,24.5181818 66.4414414,23.0671774 66.4414414,21.2772727 C66.4414414,19.4873681 67.8924459,18.0363636 69.6823505,18.0363636 L91.3536855,18.0363636 Z M139.777109,18.0363636 C141.567014,18.0363636 143.018018,19.4873681 143.018018,21.2772727 C143.018018,23.0671774 141.567014,24.5181818 139.777109,24.5181818 L102.903071,24.5181818 C101.113167,24.5181818 99.6621622,23.0671774 99.6621622,21.2772727 C99.6621622,19.4873681 101.113167,18.0363636 102.903071,18.0363636 L139.777109,18.0363636 Z M43.4933251,0 C45.2832298,0 46.7342342,1.45100442 46.7342342,3.24090909 C46.7342342,5.03081376 45.2832298,6.48181818 43.4933251,6.48181818 L3.24090909,6.48181818 C1.45100442,6.48181818 0,5.03081376 0,3.24090909 C0,1.45100442 1.45100442,0 3.24090909,0 L43.4933251,0 Z M139.777109,0 C141.567014,0 143.018018,1.45100442 143.018018,3.24090909 C143.018018,5.03081376 141.567014,6.48181818 139.777109,6.48181818 L94.4571253,6.48181818 C92.6672206,6.48181818 91.2162162,5.03081376 91.2162162,3.24090909 C91.2162162,1.45100442 92.6672206,0 94.4571253,0 L139.777109,0 Z M82.9077396,0 C84.6976442,0 86.1486486,1.45100442 86.1486486,3.24090909 C86.1486486,5.03081376 84.6976442,6.48181818 82.9077396,6.48181818 L74.7499181,6.48181818 C72.9600134,6.48181818 71.509009,5.03081376 71.509009,3.24090909 C71.509009,1.45100442 72.9600134,0 74.7499181,0 L82.9077396,0 Z" id="Combined-Shape" fill="#E4E4E4"></path>
                                    <path d="M43.4933251,36.0727273 C45.2832298,36.0727273 46.7342342,37.5237317 46.7342342,39.3136364 C46.7342342,41.103541 45.2832298,42.5545455 43.4933251,42.5545455 L3.24090909,42.5545455 C1.45100442,42.5545455 0,41.103541 0,39.3136364 C0,37.5237317 1.45100442,36.0727273 3.24090909,36.0727273 L43.4933251,36.0727273 Z M82.9077396,36.0727273 C84.6976442,36.0727273 86.1486486,37.5237317 86.1486486,39.3136364 C86.1486486,41.103541 84.6976442,42.5545455 82.9077396,42.5545455 L74.7499181,42.5545455 C72.9600134,42.5545455 71.509009,41.103541 71.509009,39.3136364 C71.509009,37.5237317 72.9600134,36.0727273 74.7499181,36.0727273 L82.9077396,36.0727273 Z" id="Code" fill="#00939B"></path>
                                    <path d="M139.777109,54.1090909 C141.567014,54.1090909 143.018018,55.5600953 143.018018,57.35 C143.018018,59.1399047 141.567014,60.5909091 139.777109,60.5909091 L102.903071,60.5909091 C101.113167,60.5909091 99.6621622,59.1399047 99.6621622,57.35 C99.6621622,55.5600953 101.113167,54.1090909 102.903071,54.1090909 L139.777109,54.1090909 Z M63.2005324,0 C64.990437,0 66.4414414,1.45100442 66.4414414,3.24090909 C66.4414414,5.03081376 64.990437,6.48181818 63.2005324,6.48181818 L55.0427109,6.48181818 C53.2528062,6.48181818 51.8018018,5.03081376 51.8018018,3.24090909 C51.8018018,1.45100442 53.2528062,0 55.0427109,0 L63.2005324,0 Z" id="Code" fill="#FFCC66"></path>
                                </g>
                                <g id="编组" fill="#009999">
                                    <rect id="Placeholder" x="0" y="2.48689958e-14" width="87" height="46.4436364" rx="6.4"></rect>
                                </g>
                            </g>
                        </g>
                        <path d="M199.411376,44 C200.977741,44 202,43.1111111 202,41.730159 C202,41.1746038 201.851607,40.5396832 201.554823,39.6507943 L196.591921,25.6031747 C195.685079,23.015873 194.431987,22 192.057709,22 C189.68343,22 188.397362,23.031746 187.507008,25.6031747 L182.527617,39.6507943 C182.148393,40.714286 182,41.3174606 182,41.8412698 C182,43.1111111 183.02226,44 184.506183,44 C185.957131,44 186.73207,43.2857146 187.276175,41.4444447 L188.150041,38.8571428 L195.718054,38.8571428 L196.575433,41.4444447 C197.119538,43.2380952 197.960428,44 199.411376,44 Z M195,35 L189,35 L191.87037,27 L192.166666,27 L195,35 Z M208.02719,44 C209.930514,44 211,42.9833935 211,41.1725632 L211,24.8274368 C211,23.032491 209.912387,22 207.990937,22 C206.069486,22 205,23.0166065 205,24.8274368 L205,41.1725632 C205,42.9675094 206.105741,44 208.02719,44 Z" id="AI" fill="#FFFFFF" fill-rule="nonzero"></path>
                    </g>
                </g>
                <path d="M34.424,64.384 C36.504,64.384 38.08,63.964 39.152,63.124 C40.224,62.284 40.76,61.184 40.76,59.824 C40.76,58.544 40.356,57.532 39.548,56.788 C38.74,56.044 37.584,55.432 36.08,54.952 L36.08,54.952 L34.808,54.544 C34.392,54.416 34.08,54.276 33.872,54.124 C33.664,53.972 33.56,53.776 33.56,53.536 C33.56,53.232 33.728,52.98 34.064,52.78 C34.4,52.58 34.928,52.48 35.648,52.48 C36.352,52.48 37,52.564 37.592,52.732 C38.184,52.9 38.656,53.096 39.008,53.32 C39.28,53.112 39.512,52.86 39.704,52.564 C39.896,52.268 39.992,51.912 39.992,51.496 C39.992,51.08 39.872,50.716 39.632,50.404 C39.392,50.092 39.06,49.836 38.636,49.636 C38.212,49.436 37.704,49.288 37.112,49.192 C36.52,49.096 35.88,49.048 35.192,49.048 C33.304,49.048 31.836,49.456 30.788,50.272 C29.74,51.088 29.216,52.176 29.216,53.536 C29.216,54.24 29.332,54.836 29.564,55.324 C29.796,55.812 30.12,56.232 30.536,56.584 C30.952,56.936 31.448,57.236 32.024,57.484 C32.6,57.732 33.24,57.976 33.944,58.216 L33.944,58.216 L34.952,58.552 C35.416,58.712 35.776,58.876 36.032,59.044 C36.288,59.212 36.416,59.456 36.416,59.776 C36.416,60.096 36.256,60.376 35.936,60.616 C35.616,60.856 35.064,60.976 34.28,60.976 C33.512,60.976 32.804,60.848 32.156,60.592 C31.508,60.336 30.96,60.032 30.512,59.68 C30.192,59.856 29.896,60.108 29.624,60.436 C29.352,60.764 29.216,61.16 29.216,61.624 C29.216,62.072 29.348,62.468 29.612,62.812 C29.876,63.156 30.244,63.444 30.716,63.676 C31.188,63.908 31.74,64.084 32.372,64.204 C33.004,64.324 33.688,64.384 34.424,64.384 Z M49.904,64.432 C50.992,64.432 52,64.264 52.928,63.928 C53.856,63.592 54.66,63.1 55.34,62.452 C56.02,61.804 56.552,60.996 56.936,60.028 C57.32,59.06 57.512,57.952 57.512,56.704 C57.512,55.456 57.316,54.352 56.924,53.392 C56.532,52.432 55.992,51.628 55.304,50.98 C54.616,50.332 53.812,49.84 52.892,49.504 C51.972,49.168 50.976,49 49.904,49 C48.832,49 47.836,49.168 46.916,49.504 C45.996,49.84 45.196,50.332 44.516,50.98 C43.836,51.628 43.3,52.432 42.908,53.392 C42.516,54.352 42.32,55.456 42.32,56.704 C42.32,57.936 42.512,59.032 42.896,59.992 C43.28,60.952 43.808,61.76 44.48,62.416 C45.152,63.072 45.952,63.572 46.88,63.916 C47.808,64.26 48.816,64.432 49.904,64.432 Z M49.904,61.048 C48.912,61.048 48.12,60.688 47.528,59.968 C46.936,59.248 46.64,58.16 46.64,56.704 C46.64,55.248 46.94,54.164 47.54,53.452 C48.14,52.74 48.936,52.384 49.928,52.384 C50.936,52.384 51.732,52.744 52.316,53.464 C52.9,54.184 53.192,55.264 53.192,56.704 C53.192,58.16 52.896,59.248 52.304,59.968 C51.712,60.688 50.912,61.048 49.904,61.048 Z M65.096,64.12 C65.464,64.12 65.836,64.096 66.212,64.048 C66.588,64 66.864,63.952 67.04,63.904 L67.04,63.904 L67.04,52.816 L69.704,52.816 C70.152,52.816 70.516,52.68 70.796,52.408 C71.076,52.136 71.216,51.688 71.216,51.064 C71.216,50.728 71.168,50.408 71.072,50.104 C70.976,49.8 70.872,49.56 70.76,49.384 L70.76,49.384 L60.296,49.384 C59.848,49.384 59.484,49.52 59.204,49.792 C58.924,50.064 58.784,50.512 58.784,51.136 C58.784,51.472 58.832,51.792 58.928,52.096 C59.024,52.4 59.128,52.64 59.24,52.816 L59.24,52.816 L62.84,52.816 L62.84,62.128 C62.84,62.544 62.888,62.88 62.984,63.136 C63.08,63.392 63.224,63.592 63.416,63.736 C63.608,63.88 63.844,63.98 64.124,64.036 C64.404,64.092 64.728,64.12 65.096,64.12 Z M84.104,64.24 C84.632,64.24 85.088,64.172 85.472,64.036 C85.856,63.9 86.144,63.72 86.336,63.496 C86.096,62.616 85.816,61.604 85.496,60.46 C85.176,59.316 84.848,58.156 84.512,56.98 C84.176,55.804 83.84,54.664 83.504,53.56 C83.168,52.456 82.856,51.488 82.568,50.656 C82.392,50.16 81.996,49.796 81.38,49.564 C80.764,49.332 80.056,49.216 79.256,49.216 C78.696,49.216 78.14,49.288 77.588,49.432 C77.036,49.576 76.624,49.728 76.352,49.888 C76.24,50.176 76.084,50.592 75.884,51.136 C75.684,51.68 75.464,52.3 75.224,52.996 C74.984,53.692 74.728,54.432 74.456,55.216 C74.184,56 73.928,56.764 73.688,57.508 C73.448,58.252 73.228,58.944 73.028,59.584 C72.828,60.224 72.672,60.76 72.56,61.192 C72.48,61.496 72.408,61.76 72.344,61.984 C72.28,62.208 72.248,62.432 72.248,62.656 C72.248,63.152 72.444,63.54 72.836,63.82 C73.228,64.1 73.832,64.24 74.648,64.24 C75,64.24 75.3,64.212 75.548,64.156 C75.796,64.1 76.032,64.032 76.256,63.952 C76.384,63.472 76.512,62.976 76.64,62.464 C76.768,61.952 76.896,61.456 77.024,60.976 L77.024,60.976 L81.368,60.976 L81.8,62.632 C81.88,62.904 81.972,63.144 82.076,63.352 C82.18,63.56 82.316,63.728 82.484,63.856 C82.652,63.984 82.868,64.08 83.132,64.144 C83.396,64.208 83.72,64.24 84.104,64.24 Z M80.696,57.736 L77.72,57.736 C77.944,56.888 78.196,56.052 78.476,55.228 C78.756,54.404 79.008,53.656 79.232,52.984 L79.232,52.984 L79.376,52.984 C79.568,53.64 79.78,54.38 80.012,55.204 C80.244,56.028 80.472,56.872 80.696,57.736 L80.696,57.736 Z" id="SOTA" fill="#FFFFFF" fill-rule="nonzero"></path>
            </g>
        </g>
    </g>
</svg>