<?xml version="1.0" encoding="UTF-8"?>
<svg width="252px" height="252px" viewBox="0 0 252 252" version="1.1" xmlns="http://www.w3.org/2000/svg" xmlns:xlink="http://www.w3.org/1999/xlink">
    <title>编组 29</title>
    <g id="页面-1" stroke="none" stroke-width="1" fill="none" fill-rule="evenodd">
        <g id="Dashboard-pc" transform="translate(-1039.000000, -1093.000000)">
            <g id="编组-29" transform="translate(1039.000000, 1093.000000)">
                <g id="编组-15备份" fill="#FFFFFF">
                    <rect id="矩形" x="0" y="0" width="252" height="252" rx="126"></rect>
                </g>
                <g id="wd-applet-dashboards" transform="translate(4.000000, 40.000000)" fill-rule="nonzero">
                    <path d="M0,6.1088 C0,2.73546673 3.11306653,0 6.90559996,0 L97.0944,0 C100.907733,0 104,2.73853327 104,6.1088 L104,39.8912 C104,43.2645333 100.886933,46 97.0944,46 L6.90559996,46 C3.09226672,46 0,43.2614667 0,39.8912 L0,6.1088 Z" id="路径" fill="#32C8CD"></path>
                    <g id="编组-23" transform="translate(118.000000, 22.000000)">
                        <path d="M0,6.9837208 C0,3.12558122 3.10191178,0 6.97058836,0 L118.5,0 C122.35125,0 125.470588,3.13255801 125.470588,6.9837208 L125.470588,143.016279 C125.470588,146.874419 122.368677,150 118.5,150 L6.97058836,150 C3.1193385,150 0,146.867442 0,143.016279 L0,6.9837208 L0,6.9837208 Z" id="路径" fill="#FFCC66"></path>
                        <path d="M83,24.4705883 C83,22.5548236 84.5855,21 86.4895002,21 L107.5105,21 C109.4355,21 111,22.5791177 111,24.4705883 L111,139 L83,139 L83,24.4705883 L83,24.4705883 Z" id="路径" fill="#FFFFFF"></path>
                        <path d="M49,76.882353 C49,75.8432942 50.5855,75 52.4895002,75 L73.5105001,75 C75.4355001,75 77,75.8564706 77,76.882353 L77,139 L49,139 L49,76.882353 L49,76.882353 Z" id="路径备份-5" fill="#FFFFFF"></path>
                        <path d="M15,107.941176 C15,107.421647 16.5855,107 18.4895002,107 L39.5105001,107 C41.4355001,107 43,107.428235 43,107.941176 L43,139 L15,139 L15,107.941176 L15,107.941176 Z" id="路径备份-6" fill="#FFFFFF"></path>
                    </g>
                    <path d="M0,66.9126922 C0,63.0946152 3.11306653,60 6.90559996,60 L97.0944,60 C100.907733,60 104,63.0980769 104,66.9126922 L104,143.087308 C103.998107,146.897547 100.910267,149.988558 97.0944,150 L6.90559996,150 C3.09226672,150 0,146.901923 0,143.087308 L0,66.9126922 Z" id="路径" fill="#009999"></path>
                    <path d="M67,113.317871 C67,125.809371 57.8211583,134.317871 46.5,134.317871 C35.1781625,134.317871 26,125.201045 26,113.954871 C26,102.709371 34.9603814,93 46.5,93 L46.5,113.317871 L67,113.317871 Z" id="形状" fill="#FFFFFF"></path>
                    <path d="M62.9211429,79 C72.9085714,79 81,86.1588572 81,96.1428573 L81,103 L57,103 L57,79 L62.9211429,79 Z" id="形状" fill="#FFFFFF"></path>
                    <path d="M66,11 L81,11 C84.3333333,11 86,12.5999999 86,15.7999997 L86,30.1999999 C86,33.4 84.3333333,35 81,35 L66,35 C62.6666662,35 61,33.4 61,30.1999999 L61,15.7999997 C61,12.5999996 62.6666665,11 66,11 Z" id="路径" fill="#FFFFFF"></path>
                    <path d="M39,13 C40.0138719,13 40.839395,13.1382549 41.3649364,13.6427746 C41.8642941,14.1221579 42,14.8799828 42,15.7999997 L42,15.7999997 L42,30.1999999 C42,31.1200169 41.8642941,31.8778419 41.3649363,32.3572254 C40.8393949,32.8617451 40.0138719,33 39,33 L39,33 L24,33 C22.986128,33 22.160605,32.8617452 21.6350636,32.3572254 C21.1357059,31.877842 21,31.120017 21,30.1999999 L21,30.1999999 L21,15.7999997 C21,14.8799827 21.1357059,14.1221579 21.6350635,13.6427745 C22.1606049,13.1382548 22.986128,13 24,13 L24,13 Z" id="路径备份-4" stroke="#FFFFFF" stroke-width="4"></path>
                </g>
            </g>
        </g>
    </g>
</svg>