<?xml version="1.0" encoding="UTF-8"?>
<svg width="410px" height="267px" viewBox="0 0 410 267" version="1.1" xmlns="http://www.w3.org/2000/svg" xmlns:xlink="http://www.w3.org/1999/xlink">
    <title> High Preformant &amp; State-of-the-Art</title>
    <g id="页面-1" stroke="none" stroke-width="1" fill="none" fill-rule="evenodd">
        <g id="Front-page-pc" transform="translate(-150.000000, -681.000000)" fill-rule="nonzero">
            <g id="编组-21" transform="translate(0.000000, 601.000000)">
                <g id="-High-Preformant-&amp;-State-of-the-Art" transform="translate(150.000000, 80.000000)">
                    <g id="UI-/-Users-/-User-2-/-1">
                        <g id="Users">
                            <g id="path-3-link" fill="#F8F8F8">
                                <rect id="path-3" x="0" y="0" width="162" height="124" rx="8"></rect>
                            </g>
                            <g id="User-1" transform="translate(20.769231, 31.929482)">
                                <ellipse id="Oval" fill="#FF6666" cx="15.2119573" cy="14.8069376" rx="14.3811881" ry="14.2774028"></ellipse>
                                <g id="Text" transform="translate(0.000000, 39.765569)" fill="#E4E4E4">
                                    <path d="M23.4974072,9.7687492 C25.1510886,9.7687492 26.4916622,11.1144778 26.4916622,12.7745182 C26.4916622,14.4345586 25.1510886,15.7802872 23.4974072,15.7802872 L6.77877815,15.7802872 C5.12509678,15.7802872 3.78452317,14.4345586 3.78452317,12.7745182 C3.78452317,11.1144778 5.12509678,9.7687492 6.77877815,9.7687492 L23.4974072,9.7687492 Z M27.2819304,0 C28.9356118,0 30.2761853,1.34572862 30.2761853,3.005769 C30.2761853,4.66580938 28.9356118,6.01153799 27.2819304,6.01153799 L2.99425496,6.01153799 C1.34057361,6.01153799 -4.54747351e-13,4.66580938 -4.54747351e-13,3.005769 C-4.54747351e-13,1.34572862 1.34057361,0 2.99425496,0 L27.2819304,0 Z" id="形状"></path>
                                </g>
                                <g id="Buttons" transform="translate(0.000000, 65.331519)" fill="#00939B">
                                    <path d="M25.0362392,0.171551124 C27.9301815,0.171551124 30.2761853,2.52657621 30.2761853,5.43164687 C30.2761853,8.33671752 27.9301815,10.6917426 25.0362392,10.6917426 L5.23994618,10.6917426 C2.34600382,10.6917426 -9.09494702e-13,8.33671752 -9.09494702e-13,5.43164687 C-9.09494702e-13,2.52657621 2.34600382,0.171551124 5.23994618,0.171551124 L25.0362392,0.171551124 Z M70.0894937,0.171551124 C72.9834361,0.171551124 75.3294397,2.52657621 75.3294397,5.43164687 C75.3294397,8.33671752 72.9834361,10.6917426 70.0894937,10.6917426 L50.2932006,10.6917426 C47.3992582,10.6917426 45.0532544,8.33671752 45.0532544,5.43164687 C45.0532544,2.52657621 47.3992582,0.171551124 50.2932006,0.171551124 L70.0894937,0.171551124 Z M115.462275,0.171551124 C118.356217,0.171551124 120.702221,2.52657621 120.702221,5.43164687 C120.702221,8.33671752 118.356217,10.6917426 115.462275,10.6917426 L95.6659815,10.6917426 C92.7720391,10.6917426 90.4260355,8.33671752 90.4260355,5.43164687 C90.4260355,2.52657621 92.7720391,0.171551124 95.6659815,0.171551124 L115.462275,0.171551124 Z" id="形状"></path>
                                </g>
                            </g>
                            <g id="User-2" transform="translate(65.822485, 31.929482)">
                                <ellipse id="Oval" fill="#FFCC66" cx="15.2119573" cy="14.8069376" rx="14.3811881" ry="14.2774028"></ellipse>
                                <g id="Text" transform="translate(0.000000, 39.765569)" fill="#E1E5F0">
                                    <path d="M27.2819304,9.7687492 C28.9356118,9.7687492 30.2761853,11.1144778 30.2761853,12.7745182 C30.2761853,14.4345586 28.9356118,15.7802872 27.2819304,15.7802872 L2.99425496,15.7802872 C1.34057361,15.7802872 -4.54747351e-13,14.4345586 -4.54747351e-13,12.7745182 C-4.54747351e-13,11.1144778 1.34057361,9.7687492 2.99425496,9.7687492 L27.2819304,9.7687492 Z M27.2819304,0 C28.9356118,0 30.2761853,1.34572862 30.2761853,3.005769 C30.2761853,4.66580938 28.9356118,6.01153799 27.2819304,6.01153799 L2.99425496,6.01153799 C1.34057361,6.01153799 -4.54747351e-13,4.66580938 -4.54747351e-13,3.005769 C-4.54747351e-13,1.34572862 1.34057361,0 2.99425496,0 L27.2819304,0 Z" id="形状"></path>
                                </g>
                            </g>
                            <g id="User-3" transform="translate(111.195266, 31.929482)">
                                <ellipse id="Oval" fill="#32C8CD" cx="15.2119573" cy="14.8069376" rx="14.3811881" ry="14.2774028"></ellipse>
                                <g id="Text" transform="translate(0.000000, 39.765569)" fill="#E1E5F0">
                                    <path d="M27.2819304,9.7687492 C28.9356118,9.7687492 30.2761853,11.1144778 30.2761853,12.7745182 C30.2761853,14.4345586 28.9356118,15.7802872 27.2819304,15.7802872 L2.99425496,15.7802872 C1.34057361,15.7802872 -4.54747351e-13,14.4345586 -4.54747351e-13,12.7745182 C-4.54747351e-13,11.1144778 1.34057361,9.7687492 2.99425496,9.7687492 L27.2819304,9.7687492 Z M23.4974072,0 C25.1510886,0 26.4916622,1.34572862 26.4916622,3.005769 C26.4916622,4.66580938 25.1510886,6.01153799 23.4974072,6.01153799 L6.77877815,6.01153799 C5.12509678,6.01153799 3.78452317,4.66580938 3.78452317,3.005769 C3.78452317,1.34572862 5.12509678,0 6.77877815,0 L23.4974072,0 Z" id="形状"></path>
                                </g>
                            </g>
                        </g>
                        <ellipse id="Burron" fill="#FF5645" cx="9.42603548" cy="11.1722365" rx="3.03550296" ry="3.02827763"></ellipse>
                        <ellipse id="Burron" fill="#FFCB3D" cx="19.331361" cy="11.1722365" rx="3.03550296" ry="3.02827763"></ellipse>
                        <ellipse id="Burron" fill="#3ABF7C" cx="29.556213" cy="11.1722365" rx="3.03550296" ry="3.02827763"></ellipse>
                    </g>
                    <g id="UI-/-Users-/-User-5" transform="translate(54.000000, 69.000000)">
                        <g id="User-info" transform="translate(0.556743, 0.000000)">
                            <rect id="Background" fill="#009999" x="0" y="0" width="143.886513" height="155.993358" rx="20"></rect>
                            <g id="Text" transform="translate(18.680003, 102.907073)">
                                <g id="path-5-link" fill="#000000">
                                    <path d="M83.7218056,25.48269 C85.1633255,25.48269 86.3319081,26.6528426 86.3319081,28.0962992 C86.3319081,29.5397557 85.1633255,30.7099084 83.7218056,30.7099084 L22.8850204,30.7099084 C21.4435006,30.7099084 20.2749178,29.5397557 20.2749178,28.0962992 C20.2749178,26.6528426 21.4435006,25.48269 22.8850204,25.48269 L83.7218056,25.48269 Z M103.996723,16.98846 C105.438243,16.98846 106.606826,18.1586127 106.606826,19.6020692 C106.606826,21.0455257 105.438243,22.2156784 103.996723,22.2156784 L2.61010259,22.2156784 C1.16858273,22.2156784 0,21.0455257 0,19.6020692 C0,18.1586127 1.16858273,16.98846 2.61010259,16.98846 L103.996723,16.98846 Z M90.2621014,8.49422998 C91.7036213,8.49422998 92.8722039,9.66438268 92.8722039,11.1078392 C92.8722039,12.5512957 91.7036213,13.7214484 90.2621014,13.7214484 L16.3447243,13.7214484 C14.9032045,13.7214484 13.7346217,12.5512957 13.7346217,11.1078392 C13.7346217,9.66438268 14.9032045,8.49422998 16.3447243,8.49422998 L90.2621014,8.49422998 Z M103.996723,2.27373675e-13 C105.438243,2.27373675e-13 106.606826,1.1701527 106.606826,2.61360922 C106.606826,4.05706574 105.438243,5.22721845 103.996723,5.22721845 L2.61010259,5.22721845 C1.16858273,5.22721845 0,4.05706574 0,2.61360922 C0,1.1701527 1.16858273,2.27373675e-13 2.61010259,2.27373675e-13 L103.996723,2.27373675e-13 Z" id="path-5"></path>
                                </g>
                                <g id="path-5-link" fill="#FAFAFA">
                                    <path d="M83.7218056,25.48269 C85.1633255,25.48269 86.3319081,26.6528426 86.3319081,28.0962992 C86.3319081,29.5397557 85.1633255,30.7099084 83.7218056,30.7099084 L22.8850204,30.7099084 C21.4435006,30.7099084 20.2749178,29.5397557 20.2749178,28.0962992 C20.2749178,26.6528426 21.4435006,25.48269 22.8850204,25.48269 L83.7218056,25.48269 Z M103.996723,16.98846 C105.438243,16.98846 106.606826,18.1586127 106.606826,19.6020692 C106.606826,21.0455257 105.438243,22.2156784 103.996723,22.2156784 L2.61010259,22.2156784 C1.16858273,22.2156784 0,21.0455257 0,19.6020692 C0,18.1586127 1.16858273,16.98846 2.61010259,16.98846 L103.996723,16.98846 Z M90.2621014,8.49422998 C91.7036213,8.49422998 92.8722039,9.66438268 92.8722039,11.1078392 C92.8722039,12.5512957 91.7036213,13.7214484 90.2621014,13.7214484 L16.3447243,13.7214484 C14.9032045,13.7214484 13.7346217,12.5512957 13.7346217,11.1078392 C13.7346217,9.66438268 14.9032045,8.49422998 16.3447243,8.49422998 L90.2621014,8.49422998 Z M103.996723,2.27373675e-13 C105.438243,2.27373675e-13 106.606826,1.1701527 106.606826,2.61360922 C106.606826,4.05706574 105.438243,5.22721845 103.996723,5.22721845 L2.61010259,5.22721845 C1.16858273,5.22721845 0,4.05706574 0,2.61360922 C0,1.1701527 1.16858273,2.27373675e-13 2.61010259,2.27373675e-13 L103.996723,2.27373675e-13 Z" id="path-5"></path>
                                </g>
                            </g>
                            <g id="Userpic" transform="translate(53.997602, 19.183649)" fill="#FFFFFF">
                                <ellipse id="Oval" cx="17.6587994" cy="17.6418623" rx="17.6587994" ry="17.6418623"></ellipse>
                            </g>
                            <g id="Text" transform="translate(49.906977, 68.883117)">
                                <g id="path-7-link" fill="#000000">
                                    <rect id="path-7" x="0.0402316326" y="0.612510026" width="43.4183865" height="5.22721845" rx="2.61360922"></rect>
                                </g>
                                <g id="path-7-link" transform="translate(0.000000, 1.000000)" fill="#FAFAFA">
                                    <rect id="path-7" x="0" y="0" width="43.4183865" height="5.22721845" rx="2.61360922"></rect>
                                </g>
                            </g>
                            <g id="Title" transform="translate(41.813953, 60.779221)">
                                <g id="path-9-link" fill="#000000">
                                    <rect id="path-9" x="0.560280472" y="0.222175943" width="58.5643353" height="5.22721845" rx="2.61360922"></rect>
                                </g>
                                <g id="path-9-link" transform="translate(1.000000, 0.000000)" fill="#FAFAFA">
                                    <rect id="path-9" x="0" y="0" width="58.5643353" height="5.22721845" rx="2.61360922"></rect>
                                </g>
                            </g>
                        </g>
                    </g>
                    <g id="Content" transform="translate(175.000000, 22.000000)">
                        <g id="path-11-link" fill="#F8F8F8">
                            <rect id="path-11" x="0" y="0" width="148" height="113" rx="8"></rect>
                        </g>
                        <g id="Text" transform="translate(7.757397, 26.339332)" fill="#E4E4E4">
                            <path d="M66.3084302,61.9779474 C67.8168709,61.9779474 69.0397036,63.2023139 69.0397036,64.7126465 C69.0397036,66.2229792 67.8168709,67.4473457 66.3084302,67.4473457 L2.73127348,67.4473457 C1.22283279,67.4473457 4.64613664e-13,66.2229792 4.64613664e-13,64.7126465 C4.64613664e-13,63.2023139 1.22283279,61.9779474 2.73127348,61.9779474 L66.3084302,61.9779474 Z M59.4044598,53.090175 C60.9129005,53.090175 62.1357333,54.3145415 62.1357333,55.8248742 C62.1357333,57.3352068 60.9129005,58.5595733 59.4044598,58.5595733 L2.73127348,58.5595733 C1.22283279,58.5595733 4.64613664e-13,57.3352068 4.64613664e-13,55.8248742 C4.64613664e-13,54.3145415 1.22283279,53.090175 2.73127348,53.090175 L59.4044598,53.090175 Z M45.5965191,44.2024026 C47.1049598,44.2024026 48.3277926,45.4267692 48.3277926,46.9371018 C48.3277926,48.4474345 47.1049598,49.671801 45.5965191,49.671801 L2.73127348,49.671801 C1.22283279,49.671801 4.64613664e-13,48.4474345 4.64613664e-13,46.9371018 C4.64613664e-13,45.4267692 1.22283279,44.2024026 2.73127348,44.2024026 L45.5965191,44.2024026 Z M66.3084302,35.3146304 C67.8168709,35.3146304 69.0397036,36.5389969 69.0397036,38.0493296 C69.0397036,39.5596622 67.8168709,40.7840287 66.3084302,40.7840287 L2.73127348,40.7840287 C1.22283279,40.7840287 4.64613664e-13,39.5596622 4.64613664e-13,38.0493296 C4.64613664e-13,36.5389969 1.22283279,35.3146304 2.73127348,35.3146304 L66.3084302,35.3146304 Z M59.4044598,17.5390857 C60.9129005,17.5390857 62.1357333,18.7634522 62.1357333,20.2737848 C62.1357333,21.7841175 60.9129005,23.008484 59.4044598,23.008484 L2.73127348,23.008484 C1.22283279,23.008484 4.64613664e-13,21.7841175 4.64613664e-13,20.2737848 C4.64613664e-13,18.7634522 1.22283279,17.5390857 2.73127348,17.5390857 L59.4044598,17.5390857 Z M52.5004895,8.65131336 C54.0089301,8.65131336 55.231763,9.87567993 55.231763,11.3860126 C55.231763,12.8963452 54.0089301,14.1207118 52.5004895,14.1207118 L2.73127348,14.1207118 C1.22283279,14.1207118 4.64613664e-13,12.8963452 4.64613664e-13,11.3860126 C4.64613664e-13,9.87567993 1.22283279,8.65131336 2.73127348,8.65131336 L52.5004895,8.65131336 Z" id="形状"></path>
                            <rect id="Title" x="4.64613664e-13" y="-3.92168445e-14" width="69.0397036" height="5.08900787" rx="2.54450393"></rect>
                            <path d="M110.398255,35.6771934 C111.927207,35.6771934 113.166668,36.9182087 113.166668,38.4490786 C113.166668,39.9799485 111.927207,41.2209637 110.398255,41.2209637 L88.1730835,41.2209637 C86.6441313,41.2209637 85.4046705,39.9799485 85.4046705,38.4490786 C85.4046705,36.9182087 86.6441313,35.6771934 88.1730835,35.6771934 L110.398255,35.6771934 Z M124.279253,26.6685668 C125.808206,26.6685668 127.047666,27.909582 127.047666,29.4404519 C127.047666,30.9713218 125.808206,32.212337 124.279253,32.212337 L88.1730835,32.212337 C86.6441313,32.212337 85.4046705,30.9713218 85.4046705,29.4404519 C85.4046705,27.909582 86.6441313,26.6685668 88.1730835,26.6685668 L124.279253,26.6685668 Z M117.338754,17.6599401 C118.867706,17.6599401 120.107167,18.9009553 120.107167,20.4318252 C120.107167,21.9626951 118.867706,23.2037103 117.338754,23.2037103 L88.1730835,23.2037103 C86.6441313,23.2037103 85.4046705,21.9626951 85.4046705,20.4318252 C85.4046705,18.9009553 86.6441313,17.6599401 88.1730835,17.6599401 L117.338754,17.6599401 Z M131.219753,8.65131336 C132.748705,8.65131336 133.988166,9.89232862 133.988166,11.4231985 C133.988166,12.9540684 132.748705,14.1950836 131.219753,14.1950836 L88.1730835,14.1950836 C86.6441313,14.1950836 85.4046705,12.9540684 85.4046705,11.4231985 C85.4046705,9.89232862 86.6441313,8.65131336 88.1730835,8.65131336 L131.219753,8.65131336 Z" id="Menu"></path>
                        </g>
                    </g>
                    <g id="Group" transform="translate(256.000000, 40.000000)">
                        <g id="Chair-2" transform="translate(98.000000, 137.406389) scale(-1, 1) translate(-98.000000, -137.406389) translate(42.000000, 49.406389)" fill="#E4E4E4">
                            <path d="M110.988546,175.391653 L110.852863,175.459228 C110.140529,175.830893 109.22467,175.628167 108.885463,174.986201 L69.1643172,102.308982 C68.7911894,101.633229 69.0964758,100.788538 69.8088106,100.416874 L69.9444934,100.349299 C70.6568282,99.9776344 71.5726872,100.18036 71.9118943,100.822326 L81.7488987,118.797352 C88.1599119,130.555451 94.5709251,142.279764 101.015859,154.037863 L111.63304,173.43197 C112.006167,174.107723 111.700881,174.986201 110.988546,175.391653 Z" id="Path"></path>
                            <path d="M12.3810573,99.1667315 L37.2449339,99.1667315 C52.3057269,99.1667315 67.3665198,99.1667315 82.3933921,99.1667315 L105.459471,99.1667315 C106.273568,99.1667315 106.985903,99.8424843 106.985903,100.653387 L106.985903,100.822326 C106.985903,101.633229 106.307489,102.308982 105.459471,102.308982 L12.3132159,102.308982 C11.4991189,102.308982 10.7867841,101.633229 10.7867841,100.822326 L10.7867841,100.653387 C10.7867841,99.8424843 11.4991189,99.1667315 12.3810573,99.1667315 Z" id="Path"></path>
                            <path d="M10.8885463,92.5781406 L10.8885463,68.2848262 C10.8885463,53.5534136 10.8885463,38.8557891 10.8885463,24.1581645 L10.8885463,1.62180685 C10.8885463,0.810903428 24.9656388,0.135150571 41.8920705,0.135150571 L45.4198238,0.135150571 C62.3123348,0.135150571 76.423348,0.810903428 76.423348,1.62180685 L76.423348,92.645716 C76.423348,93.4566196 62.3462555,94.1323724 45.4198238,94.1323724 L41.8920705,94.1323724 C24.9995595,94.1323724 10.8885463,93.4228319 10.8885463,92.5781406 Z" id="Path"></path>
                            <path d="M0.237444934,173.43197 L10.8546256,154.037863 C17.2656388,142.279764 23.676652,130.555451 30.1215859,118.797352 L39.9585903,100.822326 C40.2977974,100.18036 41.2136564,99.9438474 41.9259912,100.349299 L42.061674,100.416874 C42.7740088,100.788538 43.0792952,101.667017 42.7061674,102.308982 L2.98502203,174.986201 C2.64581498,175.628167 1.72995595,175.86468 1.01762115,175.459228 L0.881938326,175.391653 C0.169603524,174.986201 -0.135682819,174.107723 0.237444934,173.43197 Z" id="Path"></path>
                        </g>
                        <g id="Woman" transform="translate(0.339207, 0.297653)">
                            <g id="Legs" transform="translate(70.737885, 161.646287) scale(-1, 1) translate(-70.737885, -161.646287) translate(12.237885, 97.646287)">
                                <path d="M114.889427,124.000649 C115.702111,124.000649 116.35903,124.621262 116.412362,125.416422 L116.415859,125.521093 C116.415859,126.365783 115.737445,127.041536 114.889427,127.041536 L60.9894273,127.041536 C60.1767437,127.041536 59.5198246,126.420923 59.4664922,125.625763 L59.4629956,125.521093 C59.4629956,124.676402 60.1414097,124.000649 60.9894273,124.000649 L114.889427,124.000649 Z M50.4400881,124.000649 C51.2881057,124.000649 51.9665198,124.585435 51.9665198,125.287178 L51.9665198,125.287178 L51.9665198,125.755007 C51.9665198,126.45675 51.254185,127.041536 50.4400881,127.041536 L50.4400881,127.041536 L15.6713656,127.041536 C14.823348,127.041536 14.1449339,126.45675 14.1449339,125.755007 L14.1449339,125.755007 L14.1449339,125.287178 C14.1449339,124.585435 14.8572687,124.000649 15.6713656,124.000649 L15.6713656,124.000649 L50.4400881,124.000649 Z" id="Base" fill="#E4E4E4"></path>
                                <path d="M23.9819383,103.086098 L48.269163,106.363499 L51.1001649,124.156828 C50.8842545,124.057426 50.6364841,124.000649 50.3722467,124.000649 L50.3722467,124.000649 L16.1087731,124.000386 L23.9819383,103.086098 Z M84.7339207,102.714433 C85.1070485,102.714433 85.4462555,102.817177 85.7515419,103.056911 C89.6185022,107.235128 93.315859,109.563971 95.9955947,110.933878 C98.0647577,111.995557 104.984581,114.940858 108.105286,116.37926 C109.121924,116.837882 110.655815,117.68296 112.70696,118.914496 L112.989868,119.084828 C114.301468,120.431903 115.104259,121.619157 115.398238,122.646587 C115.466079,122.852073 115.466079,123.023312 115.5,123.228798 C115.533921,123.400036 115.5,123.571275 115.5,123.742513 L115.5,123.776761 C115.475872,123.893692 115.44076,124.005772 115.395933,124.112013 C115.219679,124.039735 115.025538,124.000649 114.821586,124.000649 L114.821586,124.000649 L60.9215859,124.000649 C60.7047994,124.000649 60.4990968,124.04481 60.3129784,124.124666 C60.2674385,123.971621 60.2431718,123.808891 60.2431718,123.63977 L61.3726253,103.056911 L84.7339207,102.714433 Z" id="Shoes" fill="#E4E4E4"></path>
                                <path d="M49.6918772,0.101362928 C52.3380332,0.191463309 64.1543972,0.496464872 85.1409692,1.01636762 L85.1409692,1.01636762 L85.1278351,1.09727471 C85.2452272,1.09468426 85.3626729,1.09209381 85.4801762,1.08950336 C94.0621145,0.932463401 101.015859,7.74799745 100.812335,16.0711151 L100.812335,16.2281551 C100.269604,42.0455237 93.9264317,78.8242814 93.4854626,91.2618456 C93.4515419,91.7329656 93.315859,92.7694293 92.6035242,93.8687089 C90.3986784,97.2293641 85.2427313,96.4755722 73.2008811,96.7582441 C62.9568282,97.009508 58.8185022,97.7632999 56.7154185,94.9993964 C55.5621145,93.4918133 55.5960352,91.7643735 55.6299559,90.9791737 C56.4686014,75.2214618 57.6896187,59.3152784 59.1219347,43.9355483 C58.1436361,44.4203813 57.2304244,44.8729528 56.3820412,45.2937202 L56.2066079,47.9664748 C56.0030837,51.4760728 55.7656388,54.5584153 55.4942731,57.274539 C55.2907489,59.410816 52.6788546,83.6117828 51.7290749,92.4925915 C51.5255507,94.5067955 50.0669604,96.2158177 48.0656388,96.7651459 C45.046696,97.6196566 43.1132159,98.1079486 35.277533,98.3826123 C34.7687225,98.4131311 34.2599119,98.3826123 33.785022,98.3520942 C26.1867841,97.7417298 22.3876652,96.6430727 21.5396476,96.2768539 C20.454185,95.8190801 19.877533,95.6054526 19.3008811,95.0866425 C17.2656388,93.3165841 17.4013216,90.5089056 17.3674009,89.4712855 C17.1958085,82.8586493 16.734875,65.0523262 16.5944631,49.732975 L15.9766318,49.73541 C14.0466373,49.73541 12.1894727,48.9245066 10.4779681,47.5054256 C8.29306872,45.6808929 0.61072937,39.647027 0.134515676,26.9517347 C-0.196777676,18.1198467 1.3471474,11.4109698 4.7662909,6.82510385 C4.7662909,6.79131617 9.02284765,0.101362928 11.608312,0.101362928 L11.608312,0.101362928 L49.6918772,0.101362928 Z" id="路径" fill="#009999"></path>
                                <path d="M49.6918772,0 C52.2700661,0.087786132 63.8384395,0.433950344 84.3969972,1.03849264 C81.8903853,1.09400486 79.405309,1.14937133 76.8938811,1.20473779 C69.2617225,1.39318573 62.9185509,7.01521613 62.104454,14.3646861 C61.0269153,23.8430145 59.9921635,33.7422782 59.0490445,43.8697686 C58.0704039,44.3553023 57.1572449,44.807865 56.3094018,45.2283847 L57.8643659,21.5560174 C57.8982866,20.1826964 58.0678901,11.8817342 51.3176699,6.60207814 C46.3991677,2.78729773 40.4291236,2.54315179 36.4604011,2.39056057 C30.3546743,2.14641463 25.6057756,3.73336328 24.6899166,4.03854571 C23.5366126,4.43528287 22.9599606,4.64891058 22.3833086,4.92357476 C15.8026919,8.09747207 16.3115025,23.3565937 16.3793439,26.1337538 C16.4436146,29.4586361 16.4774414,34.5364998 16.4808241,40.4591391 L16.4808241,40.4591391 L16.481106,41.453912 C16.481106,44.0356825 16.4960359,46.7905819 16.5220049,49.6313242 L15.9766318,49.6340471 C14.0466373,49.6340471 12.1894727,48.8231437 10.4779681,47.4040627 C8.29306872,45.57953 0.61072937,39.5456641 0.134515676,26.8503717 C-0.196777676,18.0184838 1.3471474,11.3096068 4.7662909,6.72374089 C4.7662909,6.68995325 9.02284765,0 11.608312,0 L11.608312,0 L49.6918772,0 Z" id="Shadow-Legs" fill="#009999"></path>
                            </g>
                            <g id="Body" transform="translate(64.737885, 102.500000) scale(-1, 1) translate(-64.737885, -102.500000) translate(0.237885, 0.000000)">
                                <path d="M59.2728895,58.7252778 C64.2592331,55.0086371 77.1491012,44.9061319 77.1491012,44.9061319 C81.3552686,48.6903479 71.2468985,55.4816641 71.2468985,55.4816641" id="Finger" fill="#997659"></path>
                                <path d="M85.1409691,24.886201 C90.9484747,24.886201 95.6563876,29.5756463 95.6563876,35.3603702 C95.6563876,40.3315269 92.1796009,44.4938219 87.5159958,45.5662692 L87.5154185,61.037191 C87.5154185,61.7845943 86.9079455,62.3904844 86.1585903,62.3904844 L84.462555,62.3904844 C83.7131999,62.3904844 83.1057268,61.7845943 83.1057268,61.037191 L83.1060389,45.6385637 C78.2723819,44.6944909 74.6255506,40.4516415 74.6255506,35.3603702 C74.6255506,29.5756463 79.3334636,24.886201 85.1409691,24.886201 Z M85.1409691,28.2649653 C81.2068526,28.2649653 78.0176211,31.4416863 78.0176211,35.3603702 C78.0176211,39.2790542 81.2068526,42.4557752 85.1409691,42.4557752 C89.0750857,42.4557752 92.2643172,39.2790542 92.2643172,35.3603702 C92.2643172,31.4416863 89.0750857,28.2649653 85.1409691,28.2649653 Z" id="Loupe" fill="#313945" transform="translate(85.140969, 43.638343) rotate(48.000000) translate(-85.140969, -43.638343) "></path>
                                <path d="M28.6980706,31.8477687 L29.0705873,31.8762226 L36.5054992,32.5295635 C44.4250541,33.1664817 50.5600771,39.7659507 51.8394136,47.6454236 C52.3483768,48.9727962 52.7603861,50.3360844 53.0757734,51.7350352 C54.9519382,60.0570639 58.0186453,64.9575663 55.9068739,68.9413805 C54.6598342,71.2913556 52.2643072,71.9963098 50.4071533,72.193957 L49.1317753,88.075435 C48.6258747,92.375577 48.2878962,94.7681063 48.1178398,95.2530239 C48.1491861,99.1834345 43.2483291,98.2388804 34.1152732,98.217158 L33.475387,98.2172135 C22.6531362,98.245362 8.44524304,99.6329742 7.59025458,95.6696772 C6.81194258,92.0618139 6.99852505,84.4944204 8.15000198,72.9674968 C4.37611515,71.983057 1.59967712,70.2829977 0.891712136,68.9067091 C-1.10040412,65.0848116 1.18563093,58.9075586 3.73292712,51.9748141 C6.80274559,43.6644089 8.46828544,39.5758673 12.2239144,36.1983764 C15.3339968,33.4079056 18.7324665,32.4442021 21.5958458,32.9822205 L21.6271456,32.9704274 C23.8208863,32.0964068 26.218611,31.686703 28.6980706,31.8477687 Z" id="T-shirt" fill="#1D7074"></path>
                                <path d="M52.071688,48.1358461 C52.5087571,49.3307821 52.8684286,50.5542851 53.1507022,51.806355 C55.026867,60.1283837 58.0935741,65.0288862 55.9818027,69.0127004 C54.7500053,71.3339525 52.3976242,72.0501506 50.5504189,72.2577999 L50.6316136,71.2489704 L50.6552754,70.9119171 L52.1289473,52.8262922 L52.1715387,52.2195961 L52.1938733,51.9268142 C52.2806618,50.6588709 52.2378068,49.4014909 52.0767128,48.1720628 L52.071688,48.1358461 Z" id="Shadow-T-shirt" fill="#444444" opacity="0.176985679"></path>
                                <path d="M47.6063624,194.419151 L48.2566746,204.656602 L23.8200199,201.765185 L24.9618755,194.748562 C26.9721798,195.150688 29.8520811,195.586886 33.712824,195.897019 C34.1877139,195.927537 34.6965245,195.958055 35.2053351,195.927537 C42.7013276,195.66478 44.7957663,195.206516 47.6063624,194.419151 Z M84.8346523,194.119027 L85.1409692,200.803854 L61.3726253,202.632313 L61.4751674,194.534095 C64.0753906,194.704038 67.765153,194.434724 73.1286829,194.303168 C78.1205549,194.185989 81.9291085,194.246922 84.8346523,194.119027 Z M80.0891002,50.7945937 L80.1450558,50.8975611 L80.5521043,51.6746768 C80.9658908,52.5307076 80.6329869,53.5057401 79.8616836,53.9856113 C80.6423123,53.8195097 81.4171766,54.1606551 81.7884733,54.8642382 L81.8410911,54.9724759 L82.2481395,55.7495916 C82.5948376,56.4668323 82.4173428,57.2676149 81.8969917,57.7906874 C82.29995,57.9107022 82.6655833,58.1701162 82.9122106,58.5499698 L82.9825472,58.6675202 L83.4298691,59.4223513 C83.8986342,60.2748582 83.5934822,61.2924911 82.8095252,61.8012926 L82.7090581,61.8621939 L76.6334888,65.1370214 C69.2129832,70.0960369 62.1881413,74.5423223 55.5589633,78.4758787 L56.1032427,82.3582068 L83.0387939,87.4215013 C83.833752,87.2848688 84.6018708,87.2098199 85.3431488,87.1881428 C87.8934071,87.0824932 90.089462,87.5755258 91.5771129,87.9629094 C95.2962387,87.7868256 98.9799444,87.5755258 102.66365,87.3994427 C105.674371,86.6951103 112.404219,85.638611 112.61674,89.864608 C112.61674,89.864608 109.71228,90.6393739 105.780632,91.6606564 C104.857293,91.9003971 103.87634,92.1547012 102.862581,92.4172821 C97.6501036,94.2120239 90.8353383,97.9053308 86.9097148,99.1586422 L46.6665884,97.7620163 C47.2750122,97.0184614 47.7286157,96.1754476 47.99876,95.2255094 C48.1649515,94.7516131 48.491519,92.4558286 48.9784625,88.338156 L49.0126956,88.0479206 L49.4987592,81.9914413 C42.1492773,86.153688 35.3242691,89.6362837 29.0237344,92.4392291 C25.2051114,94.1380353 20.5379303,95.4701334 16.793151,96.7442625 C8.06678438,98.5138858 6.41861089,95.3834908 5.42229345,94.3571091 C4.26587811,93.1657988 0.421022288,89.7892702 2.12501383,70.4565373 L2.13971806,70.2919849 L2.27983728,70.3953894 C5.51980263,72.7250055 12.9646075,74.9338822 20.3932594,72.9229308 C22.34229,72.3953236 24.0836169,71.8969321 25.61724,71.4277561 L25.4937777,72.6031848 L65.7883043,55.7565166 C65.8543974,55.7055195 65.9244977,55.6584597 65.9983548,55.6158362 L66.101884,55.5602558 L77.7366858,50.0528701 C78.5833466,49.6636364 79.6175753,49.9905926 80.0891002,50.7945937 Z M49.4698058,4.69883714 C49.7750922,5.17186414 50.0803785,5.64489113 50.3178234,6.11791813 C50.9283961,7.33427326 51.1997618,8.68577897 51.0979996,10.10486 L50.7248719,16.254211 C50.6570305,16.8623885 50.5891891,17.4705661 50.4535063,18.1125313 C48.8253124,25.7147509 45.3654005,30.9856232 42.4482199,31.1545613 C40.9557089,31.188349 39.4631979,31.0194108 38.0046076,30.5801714 L37.9759538,30.5660635 C37.829302,30.4949875 37.8217289,30.5136214 35.8991353,29.7393592 L35.483881,31.9755117 C39.5337908,32.6323207 41.7868932,33.9158846 42.0342625,34.041813 C41.3125903,34.8347795 41.211938,35.1023787 40.5890152,35.603755 C33.6212311,41.2119648 22.3117178,33.8274436 20.8848563,32.8814764 C22.6240955,32.4356914 24.2645743,32.1236815 25.8031309,31.9184425 C26.3900816,29.9567236 27.2343561,26.7133411 28.3358503,22.1889051 L28.4335726,20.2828693 C28.3657312,19.9112052 28.3026709,19.8991948 27.9634639,19.7978318 C27.0815256,19.5613184 26.6072507,18.99101 25.9966781,18.3152571 C24.8772948,17.0313267 24.5720085,15.1392187 25.1147397,13.416049 C25.7931538,11.7604544 27.5570305,10.5103117 29.1852243,10.6454623 C29.795797,10.7130375 30.372449,10.949551 30.9151803,11.2874274 L30.949101,11.3212151 C31.1187045,11.4901533 31.3561494,11.523941 31.5935944,11.5577286 C32.1702463,11.5577286 32.6451362,11.1522769 32.6790569,10.577887 L32.9843433,1.75931222 C32.9843433,1.1849223 33.4253124,0.77947059 34.0019644,0.77947059 C35.2570305,0.77947059 36.4781759,0.711895304 37.7332419,0.441594162 C37.9028455,0.441594162 38.0385283,0.407806519 38.1742111,0.407806519 C39.3953565,0.272655948 45.9420525,-0.132795764 49.4698058,4.69883714 Z" id="Skin" fill="#FF6666"></path>
                                <path d="M49.5778099,4.90156299 C47.9454547,4.65378695 46.6204666,4.65378695 45.6028455,4.90156299 C39.0222287,6.52336984 37.0887485,17.8760178 34.0698058,17.4029908 C34.0414023,17.3994543 34.0111407,17.3944371 33.9792156,17.3875131 L34.0019644,17.3692031 L32.5433741,13.3822613 C32.204167,12.5713579 31.6275151,11.9293927 30.949101,11.3887904 C30.4063697,11.050914 29.8297177,10.8144004 29.219145,10.7468251 C27.5909512,10.6116746 25.8270745,11.8618174 25.1486604,13.5174119 C25.036995,13.8042614 24.9538413,14.0971967 24.8988465,14.3921757 C24.7140488,15.823247 25.085879,17.2705725 25.9966781,18.3152571 C26.0479149,18.3719636 26.1003461,18.4277185 26.1539315,18.4824218 L26.1570555,18.4883592 C26.8856663,19.238417 27.8387843,19.7485059 28.879938,19.937064 L28.8060439,19.9221257 C28.3864001,22.1657999 27.7201618,25.094686 27.4733778,25.9257991 C27.1001072,27.5800579 26.7673414,28.9633969 26.5280681,29.7238214 L26.491673,29.8368433 L24.8772948,29.8368433 C24.0669057,29.8368433 21.1360597,29.5300895 18.3984402,29.3638163 C18.3984402,29.3638163 18.1949159,29.3638163 18.0253124,29.3300286 C17.1433741,29.1948781 16.2953565,29.0597275 15.4473389,28.6204882 C15.4473389,28.6204882 15.1759732,28.5191252 14.9385283,28.3163993 C10.1557089,24.3970328 9.10416705,18.7882841 11.1394093,15.6460334 C12.5979996,13.4498366 15.4473389,12.6051455 15.8543873,12.469995 C16.3971186,12.3010567 16.9398499,12.2334814 17.4147397,12.1996938 C17.6001586,11.6456192 17.7855774,11.0635011 17.9709964,10.4788882 C18.0196931,8.50665928 18.4602417,5.88594997 20.1962375,3.7189955 C20.9085723,2.80672915 21.8583521,2.1309763 22.8759732,1.62416165 C25.5896296,0.272655948 27.6587926,0.948408804 33.018264,0.813258233 C34.1037265,0.813258233 37.8503211,0.337876427 37.9860039,0.337876427 C43.51199,-0.0105586383 47.3759254,1.51067022 49.5778099,4.90156299 Z" id="Hair" fill="#313945"></path>
                                <path d="M55.5360264,78.3938163 L56.1053585,82.3916907 L83.0374411,87.4217341 C83.832881,87.2849534 84.6014502,87.209832 85.3431488,87.1881428 C87.8934071,87.0824932 90.089462,87.5755258 91.5771129,87.9629094 C95.2962387,87.7868256 98.9799444,87.5755258 102.66365,87.3994427 C105.674371,86.6951103 112.404219,85.638611 112.61674,89.864608 C112.61674,89.864608 109.71228,90.6393739 105.780632,91.6606564 C104.860373,91.899598 103.882884,92.1530049 102.872724,92.4146547 C97.6586081,94.2075079 90.8379108,97.9045648 86.9098878,99.1586422 L46.6665884,97.7620163 C47.2750122,97.0184614 47.7286157,96.1754476 47.99876,95.2255094 C48.1649515,94.7516131 48.491519,92.4558286 48.9784625,88.338156 L49.0126956,88.0479206 L49.4685079,82.3701226 L49.5007771,82.2427411 L49.4793626,82.2374998 L49.4990366,81.9918771 L55.163129,78.6113278 C55.2872812,78.538997 55.4115803,78.4664936 55.5360264,78.3938163 Z" id="Shadow-Arm" fill="#997659" opacity="0.2"></path>
                                <path d="M128.154879,78.3719863 L128.154879,78.3719863 C128.426387,79.4194458 127.815961,80.4667839 126.764461,80.7369426 L79.6844839,93.3671401 C78.6329842,93.6372987 77.5813638,93.0289744 77.3098555,91.9815149 L77.3098555,91.9815149 C77.0383471,90.934056 77.6487729,89.8867173 78.7002725,89.6165592 L125.78025,76.9863618 C126.797829,76.7161987 127.88337,77.3245275 128.154879,78.3719863 Z" id="Notepad" fill="#313945" transform="translate(102.732367, 85.176750) rotate(-2.000000) translate(-102.732367, -85.176750) "></path>
                                <polygon id="Shadow" fill="#482D1F" points="35.8859691 29.6977376 33.2272186 28.5134378 35.3864338 32.4603889"></polygon>
                            </g>
                        </g>
                    </g>
                </g>
            </g>
        </g>
    </g>
</svg>