<?xml version="1.0" encoding="UTF-8"?>
<svg width="252px" height="252px" viewBox="0 0 252 252" version="1.1" xmlns="http://www.w3.org/2000/svg" xmlns:xlink="http://www.w3.org/1999/xlink">
    <title>编组 15</title>
    <defs>
        <rect id="path-1" x="0" y="0" width="252" height="252" rx="126"></rect>
    </defs>
    <g id="页面-1" stroke="none" stroke-width="1" fill="none" fill-rule="evenodd">
        <g id="Search-pc" transform="translate(-150.000000, -681.000000)">
            <g id="编组-16" transform="translate(0.000000, 601.000000)">
                <g id="编组-25" transform="translate(150.000000, 80.000000)">
                    <mask id="mask-2" fill="white">
                        <use xlink:href="#path-1"></use>
                    </mask>
                    <use id="蒙版" fill="#F8F8F8" xlink:href="#path-1"></use>
                    <g id="编组-23" mask="url(#mask-2)">
                        <g transform="translate(56.003571, 136.000000) rotate(-45.000000) translate(-56.003571, -136.000000) translate(14.003571, 79.000000)">
                            <rect id="矩形" fill="#32C8CD" x="27" y="0" width="24" height="6" rx="3"></rect>
                            <rect id="矩形备份-3" fill="#32C8CD" x="23" y="9" width="32" height="6" rx="3"></rect>
                            <rect id="矩形备份-4" fill="#32C8CD" x="27" y="18" width="24" height="6" rx="3"></rect>
                            <rect id="矩形备份-5" fill="#32C8CD" x="3" y="27" width="78" height="6" rx="3"></rect>
                            <rect id="矩形备份-6" fill="#32C8CD" x="40" y="36" width="44" height="6" rx="3"></rect>
                            <rect id="矩形备份-26" fill="#FFCC66" x="14" y="36" width="22" height="6" rx="3"></rect>
                            <rect id="矩形备份-25" fill="#32C8CD" x="0" y="36" width="10" height="6" rx="3"></rect>
                            <rect id="矩形备份-7" fill="#32C8CD" x="0" y="45" width="48" height="6" rx="3"></rect>
                            <rect id="矩形备份-24" fill="#FF6666" x="52" y="45" width="32" height="6" rx="3"></rect>
                            <rect id="矩形备份-8" fill="#32C8CD" x="34" y="54" width="28" height="6" rx="3"></rect>
                            <rect id="矩形备份-23" fill="#32C8CD" x="14" y="54" width="16" height="6" rx="3"></rect>
                            <rect id="矩形备份-22" fill="#FFCC66" x="0" y="54" width="10" height="6" rx="3"></rect>
                            <rect id="矩形备份-10" fill="#FFCC66" x="40" y="63" width="17" height="6" rx="3"></rect>
                            <rect id="矩形备份-21" fill="#32C8CD" x="0" y="63" width="36" height="6" rx="3"></rect>
                            <rect id="矩形备份-11" fill="#32C8CD" x="0" y="72" width="24" height="6" rx="3"></rect>
                            <rect id="矩形备份-20" fill="#32C8CD" x="28" y="72" width="29" height="6" rx="3"></rect>
                            <rect id="矩形备份-12" fill="#FF6666" x="49" y="81" width="13" height="6" rx="3"></rect>
                            <rect id="矩形备份-19" fill="#32C8CD" x="0" y="81" width="45" height="6" rx="3"></rect>
                            <rect id="矩形备份-14" fill="#32C8CD" x="74" y="81" width="10" height="6" rx="3"></rect>
                            <rect id="矩形备份-13" fill="#32C8CD" x="20" y="90" width="64" height="6" rx="3"></rect>
                            <rect id="矩形备份-18" fill="#FFCC66" x="0" y="90" width="16" height="6" rx="3"></rect>
                            <rect id="矩形备份-15" fill="#32C8CD" x="0" y="99" width="40" height="6" rx="3"></rect>
                            <rect id="矩形备份-17" fill="#32C8CD" x="44" y="99" width="40" height="6" rx="3"></rect>
                            <rect id="矩形备份-16" fill="#32C8CD" x="3" y="108" width="78" height="6" rx="3"></rect>
                            <rect id="矩形备份-9" fill="#32C8CD" x="74" y="54" width="10" height="6" rx="3"></rect>
                        </g>
                    </g>
                    <g id="合作、组织关系，拼图，商务" mask="url(#mask-2)" fill-rule="nonzero">
                        <g transform="translate(92.003571, 5.000000)">
                            <path d="M56.6981329,2.82943934 L2.82741455,56.738736 C1.26869324,58.3026261 1.26869324,60.8337247 2.82741455,62.3976147 L13.5060827,73.0839302 L13.5060827,73.0839302 C18.2919708,77.8732456 19.8588808,77.1914926 22.4476886,74.5837868 C25.0364964,71.9760811 24.4233577,63.5052994 32.3600974,61.1702951 C36.7201948,59.8920081 42.5790756,62.5678889 46.9221411,67.0163277 C51.2652067,71.4647666 54.0413625,77.242624 52.7639903,81.5887998 C50.4476886,89.5312232 42.2214111,88.661988 39.3600975,91.5083071 C36.4987838,94.3546263 36.0729929,95.6670009 40.8588808,100.456316 L56.5618799,116.170561 C58.1246589,117.730389 60.6557503,117.732205 62.2207656,116.17462 L77.2214112,101.206245 L77.2214112,101.206245 C82.0072993,96.4169293 83.5571777,97.0986823 86.1630171,99.7063878 C88.7688564,102.314093 88.1386861,110.784875 96.0754259,113.11988 C100.435523,114.398167 106.294404,111.705242 110.63747,107.273847 C114.980535,102.842452 117.756691,97.0475509 116.479319,92.7013751 C114.163017,84.7589516 105.93674,85.6281869 103.075426,82.7818677 C100.214112,79.9355486 99.7883213,78.6231739 104.574209,73.8338585 L116.165893,62.261264 C117.729277,60.7004547 117.731364,58.1677956 116.170555,56.6044117 C116.169441,56.6032958 116.168326,56.6021806 116.167211,56.601066 L62.3549884,2.82741295 C60.7923303,1.26587812 58.2596718,1.26678536 56.6981329,2.82943934 Z" id="路径备份-4" stroke="none" fill="#009999" transform="translate(59.500000, 59.500000) scale(-1, 1) translate(-59.500000, -59.500000) "></path>
                            <path d="M76.6981329,118.829439 L22.8274145,172.738736 C21.2686932,174.302626 21.2686932,176.833725 22.8274145,178.397615 L33.5060827,189.08393 L33.5060827,189.08393 C38.2919708,193.873246 39.8588808,193.191493 42.4476886,190.583787 C45.0364964,187.976081 44.4233577,179.505299 52.3600974,177.170295 C56.7201948,175.892008 62.5790756,178.567889 66.9221411,183.016328 C71.2652067,187.464767 74.0413625,193.242624 72.7639903,197.5888 C70.4476886,205.531223 62.2214111,204.661988 59.3600975,207.508307 C56.4987838,210.354626 56.0729929,211.667001 60.8588808,216.456316 L76.5618799,232.170561 C78.1246589,233.730389 80.6557503,233.732205 82.2207656,232.17462 L97.2214112,217.206245 L97.2214112,217.206245 C102.007299,212.416929 103.557178,213.098682 106.163017,215.706388 C108.768856,218.314093 108.138686,226.784875 116.075426,229.11988 C120.435523,230.398167 126.294404,227.705242 130.63747,223.273847 C134.980535,218.842452 137.756691,213.047551 136.479319,208.701375 C134.163017,200.758952 125.93674,201.628187 123.075426,198.781868 C120.214112,195.935549 119.788321,194.623174 124.574209,189.833859 L136.165893,178.261264 C137.729277,176.700455 137.731364,174.167796 136.170555,172.604412 C136.169441,172.603296 136.168326,172.602181 136.167211,172.601066 L82.3549884,118.827413 C80.7923303,117.265878 78.2596718,117.266785 76.6981329,118.829439 Z" id="路径备份-5" stroke="#E4E4E4" stroke-width="5" fill="none" stroke-linecap="round" stroke-linejoin="round" stroke-dasharray="10,10" transform="translate(79.500000, 175.500000) scale(1, -1) translate(-79.500000, -175.500000) "></path>
                        </g>
                    </g>
                </g>
            </g>
        </g>
    </g>
</svg>