<?xml version="1.0" encoding="UTF-8"?>
<svg width="1459px" height="778px" viewBox="0 0 1459 778" version="1.1" xmlns="http://www.w3.org/2000/svg" xmlns:xlink="http://www.w3.org/1999/xlink">
    <title>椭圆形备份</title>
    <g id="页面-1" stroke="none" stroke-width="1" fill="none" fill-rule="evenodd">
        <g id="椭圆形备份" transform="translate(0.000000, 251.000000)">
            <circle id="椭圆形" fill="#FFCC66" cx="514" cy="-15" r="236"></circle>
            <path d="M1260.97205,226.267949 L1263.40998,226.28737 C1342.9051,227.554738 1407.35263,290.694277 1410.60339,369.607055 L1410.68312,372.003131 L1410.73205,372.05704 L1410.73205,464.072522 C1410.73205,474.556071 1402.31873,483.076722 1391.86872,483.264775 L1391.51571,483.267949 L1189.94839,483.267949 C1179.3355,483.267949 1170.73205,474.673864 1170.73205,464.072522 L1170.73205,245.463376 C1170.73205,234.862035 1179.3355,226.267949 1189.94839,226.267949 L1260.97205,226.267949 Z" id="路径备份-6" fill="#00CBCF" transform="translate(1290.732051, 354.767949) rotate(-30.000000) translate(-1290.732051, -354.767949) "></path>
            <path d="M212.670503,156 C222.501172,156 230.491185,163.880783 230.667527,173.669335 L230.670235,174.098359 L229.869898,320.559949 C229.869898,404.143385 162.789713,472.059405 79.5279833,473.409367 L77,473.429847 L77,320.559949 L77.433,320.559 L77.8483876,173.949009 C77.876493,164.027831 85.9270975,156 95.8483154,156 L212.670503,156 Z" id="路径2备份" fill="#FF7673" transform="translate(153.835117, 314.714923) scale(1, -1) rotate(30.000000) translate(-153.835117, -314.714923) "></path>
            <path d="M1185.30357,138.994898 L1185.30253,138.783641 C1122.10322,135.06189 1072,82.6307861 1072,18.497449 C1072,-48.0514545 1125.94855,-102 1192.49745,-102 C1256.63079,-102 1309.06189,-51.8967832 1312.78364,11.3025309 L1312.9949,11.3035714 L1312.9949,120.994898 C1312.9949,130.936023 1304.93602,138.994898 1294.9949,138.994898 L1185.30357,138.994898 Z" id="路径备份-7" fill="#FF7673" transform="translate(1192.497449, 18.497449) rotate(-30.000000) translate(-1192.497449, -18.497449) "></path>
            <path d="M132,67 L180,67 C219.764502,67 252,99.235498 252,139 L252,187 C252,200.254834 241.254834,211 228,211 L132,211 C118.745166,211 108,200.254834 108,187 L108,91 C108,77.745166 118.745166,67 132,67 Z" id="矩形2备份" fill="#00CBCF" transform="translate(180.000000, 139.000000) rotate(-30.000000) translate(-180.000000, -139.000000) "></path>
        </g>
    </g>
</svg>