<svg width="555px" height="530px" viewBox="0 0 555 530" version="1.1" xmlns:xlink="http://www.w3.org/1999/xlink">
    <g id="Page-1" stroke="none" stroke-width="1" fill="none" fill-rule="evenodd">
        <g id="JOBS" transform="translate(-139.000000, -198.000000)">
            <g id="编组-9" transform="translate(117.000000, 198.000000)">
                <g id="编组-8">
                    <g id="Image">
                        <g id="Web" transform="translate(86.000000, 0.000000)">
                            <rect id="Container" fill="#F2F2F2" x="0" y="0" width="396" height="346" rx="8"></rect>
                            <path
                                d="M8,0 L388,0 C392.418278,-8.11624501e-16 396,3.581722 396,8 L396,27 L396,27 L0,27 L0,8 C-5.41083001e-16,3.581722 3.581722,8.11624501e-16 8,0 Z"
                                id="Header" fill="#C5CFD6"></path>
                            <g id="Buttons" transform="translate(9.000000, 10.000000)" fill="#F2F2F2">
                                <circle id="buttons" cx="4" cy="4" r="4"></circle>
                                <circle id="buttons" cx="16" cy="4" r="4"></circle>
                                <circle id="buttons" cx="28" cy="4" r="4"></circle>
                            </g>
                            <g id="Content" transform="translate(16.000000, 43.000000)">
                                <g id="Components" transform="translate(294.000000, 89.000000)">
                                    <rect id="Background" fill="#FFFFFF" x="0" y="0" width="70" height="194" rx="8">
                                    </rect>
                                    <g id="Rows" transform="translate(18.000000, 18.000000)">
                                        <rect id="Data" fill="#DDE3E9" x="0" y="0" width="34" height="26" rx="4"></rect>
                                        <rect id="Data" fill="#AFB9C5" x="0" y="34" width="34" height="25" rx="4">
                                        </rect>
                                        <rect id="Data" fill="#DDE3E9" x="0" y="67" width="34" height="25" rx="4">
                                        </rect>
                                        <rect id="Data" fill="#DDE3E9" x="0" y="133" width="34" height="25" rx="4">
                                        </rect>
                                        <rect id="Data" fill="#C5CFD6" x="0" y="100" width="34" height="25" rx="4">
                                        </rect>
                                    </g>
                                </g>
                                <g id="Profile" transform="translate(294.000000, 0.000000)">
                                    <rect id="Background" fill="#FFFFFF" x="0" y="0" width="70" height="81" rx="8">
                                    </rect>
                                    <g id="Profile-Info" transform="translate(10.000000, 15.000000)" fill="#DDE3E9">
                                        <circle id="Avatar" cx="25" cy="16" r="16"></circle>
                                        <rect id="Name" x="0" y="36" width="50" height="6" rx="3"></rect>
                                        <rect id="Name" x="8" y="46" width="34" height="6" rx="3"></rect>
                                    </g>
                                </g>
                                <g id="Rows">
                                    <g id="Row">
                                        <rect id="Container" fill="#FFFFFF" x="0" y="0" width="286" height="47" rx="4">
                                        </rect>
                                        <g id="Text-Stuff" transform="translate(9.000000, 14.100000)" fill="#DDE3E9">
                                            <rect id="Label" x="0" y="0" width="228" height="7.05" rx="3"></rect>
                                            <rect id="Label" x="0" y="11.75" width="153.041096" height="7.05" rx="3">
                                            </rect>
                                        </g>
                                        <g id="Check" transform="translate(248.435115, 16.500000)">
                                            <circle id="Background" fill="#DDE3E9" cx="7" cy="7" r="7"></circle>
                                            <circle id="Indicator" fill="#F2F2F2" cx="7" cy="7" r="3"></circle>
                                        </g>
                                    </g>
                                    <g id="Row" transform="translate(0.000000, 55.000000)">
                                        <rect id="Container" fill="#FFFFFF" x="0" y="0" width="286" height="39" rx="4">
                                        </rect>
                                        <g id="Text-Stuff" transform="translate(9.000000, 11.700000)" fill="#DDE3E9">
                                            <rect id="Label" x="0" y="0" width="228" height="5.85" rx="2.925"></rect>
                                            <rect id="Label" x="0" y="9.75" width="153.041096" height="5.85" rx="2.925">
                                            </rect>
                                        </g>
                                        <g id="Check" transform="translate(248.435115, 12.500000)">
                                            <circle id="Background" fill="#DDE3E9" cx="7" cy="7" r="7"></circle>
                                            <circle id="Indicator" fill="#F2F2F2" cx="7" cy="7" r="3"></circle>
                                        </g>
                                    </g>
                                    <g id="Row" transform="translate(0.000000, 102.000000)">
                                        <rect id="Container" fill="#FFFFFF" x="0" y="0" width="286" height="39" rx="4">
                                        </rect>
                                        <g id="Text-Stuff" transform="translate(9.000000, 11.700000)" fill="#DDE3E9">
                                            <rect id="Label" x="0" y="0" width="228" height="5.85" rx="2.925"></rect>
                                            <rect id="Label" x="0" y="9.75" width="153.041096" height="5.85" rx="2.925">
                                            </rect>
                                        </g>
                                        <g id="Check" transform="translate(248.435115, 12.500000)">
                                            <circle id="Background" fill="#DDE3E9" cx="7" cy="7" r="7"></circle>
                                            <circle id="Indicator" fill="#AFB9C5" cx="7" cy="7" r="3"></circle>
                                        </g>
                                    </g>
                                    <g id="Row" transform="translate(0.000000, 243.000000)">
                                        <rect id="Container" fill="#FFFFFF" x="0" y="0" width="286" height="39" rx="4">
                                        </rect>
                                        <g id="Text-Stuff" transform="translate(9.000000, 11.700000)" fill="#DDE3E9">
                                            <rect id="Label" x="0" y="0" width="228" height="5.85" rx="2.925"></rect>
                                            <rect id="Label" x="0" y="9.75" width="153.041096" height="5.85" rx="2.925">
                                            </rect>
                                        </g>
                                        <g id="Check" transform="translate(248.435115, 12.500000)">
                                            <circle id="Background" fill="#DDE3E9" cx="7" cy="7" r="7"></circle>
                                            <circle id="Indicator" fill="#F2F2F2" cx="7" cy="7" r="3"></circle>
                                        </g>
                                    </g>
                                    <g id="Row" transform="translate(0.000000, 196.000000)">
                                        <rect id="Container" fill="#FFFFFF" x="0" y="0" width="286" height="39" rx="4">
                                        </rect>
                                        <g id="Text-Stuff" transform="translate(9.000000, 11.700000)" fill="#DDE3E9">
                                            <rect id="Label" x="0" y="0" width="228" height="5.85" rx="2.925"></rect>
                                            <rect id="Label" x="0" y="9.75" width="153.041096" height="5.85" rx="2.925">
                                            </rect>
                                        </g>
                                        <g id="Check" transform="translate(248.435115, 12.500000)">
                                            <circle id="Background" fill="#DDE3E9" cx="7" cy="7" r="7"></circle>
                                            <circle id="Indicator" fill="#F2F2F2" cx="7" cy="7" r="3"></circle>
                                        </g>
                                    </g>
                                    <g id="Row" transform="translate(0.000000, 149.000000)">
                                        <rect id="Container" fill="#FFFFFF" x="0" y="0" width="286" height="39" rx="4">
                                        </rect>
                                        <g id="Text-Stuff" transform="translate(9.000000, 11.700000)" fill="#DDE3E9">
                                            <rect id="Label" x="0" y="0" width="228" height="5.85" rx="2.925"></rect>
                                            <rect id="Label" x="0" y="9.75" width="153.041096" height="5.85" rx="2.925">
                                            </rect>
                                        </g>
                                        <g id="Check" transform="translate(248.435115, 12.500000)">
                                            <circle id="Background" fill="#DDE3E9" cx="7" cy="7" r="7"></circle>
                                            <circle id="Indicator" fill="#F2F2F2" cx="7" cy="7" r="3"></circle>
                                        </g>
                                    </g>
                                </g>
                            </g>
                        </g>
                        <g id="Group-3"
                            transform="translate(275.500000, 314.000000) scale(-1, 1) translate(-275.500000, -314.000000) translate(0.000000, 101.000000)">
                            <g id="Humaaan"
                                transform="translate(423.500000, 230.000000) scale(-1, 1) translate(-423.500000, -230.000000) translate(296.000000, 34.000000)">
                                <g id="Head/Front/Chongo"
                                    transform="translate(110.043637, 54.620196) rotate(-8.000000) translate(-110.043637, -54.620196) translate(49.523637, 8.479350)">
                                    <g id="Head" stroke-width="1" transform="translate(48.060000, 27.507042)"
                                        fill="#B28B67">
                                        <path
                                            d="M33.9475738,8.10475738 C39.1049554,17.6888514 38.4921244,41.9997005 31.8266682,43.7126454 C29.1684905,44.3957663 23.5057781,42.7223911 17.7424613,39.2590202 L21.36,64.7746479 L0,64.7746479 L7.35339366,30.6038801 C3.25237069,25.8045724 0.476716101,19.9229593 0.940530937,13.332445 C2.2769139,-5.6567084 28.7901923,-1.47933659 33.9475738,8.10475738 Z">
                                        </path>
                                    </g>
                                    <path
                                        d="M73.5705106,25.1733593 C70.6518076,24.2860353 66.4148763,23.9851154 64.6325252,24.1886852 C65.6464077,21.7668052 66.0487312,19.0685395 65.7207405,16.4413015 C65.4019476,13.888453 64.2577955,11.7147765 63.1996267,9.43702629 C62.7118648,8.38713248 62.1591044,7.34296095 61.3349714,6.53991164 C60.4954405,5.72176984 59.4327068,5.18173044 58.3183286,4.92408516 C57.1779238,4.66035996 55.9854655,4.68231918 54.8432892,4.92165319 C54.3380172,5.02751522 53.8846623,5.25783666 53.3891333,5.38587249 C52.881681,5.51705556 52.6355176,5.20039935 52.2671923,4.88216952 C51.3795597,4.1153851 50.0782936,3.73685683 48.9553306,3.60138205 C47.695421,3.44945573 46.3880911,3.63893445 45.186503,4.05186789 C44.0169374,4.45385748 42.8933613,5.10662562 42.0477665,6.05759566 C41.6712653,6.48090071 41.3295117,6.96271599 41.1073992,7.49467268 C41.0163058,7.71297734 41.0012485,7.84230068 40.7827469,7.92226943 C40.5806654,7.99630132 40.3443131,7.99844717 40.135759,8.06890264 C38.1191677,8.74985298 36.395002,10.3033067 35.4562017,12.297876 C34.9084831,13.4615 34.6490338,15.5102305 34.7200962,17.8065208 C34.7911586,20.1028111 36.8708407,26.0944878 38.8159607,28.2799664 C40.5521859,30.2306888 43.1042319,31.5179854 45.5671603,32.0814861 C43.9323847,33.9444432 42.8441695,36.2724064 42.0394543,38.6399963 C41.1653801,41.2117998 40.6244066,43.8840292 40.4246415,46.6067576 C40.234892,49.1936536 40.2173138,51.9293287 40.8256024,54.4610047 C41.3946466,56.8285231 42.6115645,58.7707337 44.6430767,60.0028818 C45.573633,60.5673124 46.5748428,60.9913328 47.5818438,61.3788736 C48.5742645,61.7607637 49.5696831,62.1320676 50.6092516,62.3463667 C52.5767191,62.7517897 54.843698,62.6821925 56.3592414,61.1208707 C56.9054611,60.5580137 57.506187,59.8507409 57.9046951,59.1631385 C58.0479781,58.9158648 58.1343704,58.7541391 57.9602914,58.5124446 C57.7517372,58.2229692 57.4144123,58.0011597 57.1465146,57.7747008 C55.6187754,56.4835417 54.6730937,54.7598504 54.4346974,52.7114201 C54.1928264,50.6330195 54.752809,47.950347 56.7796201,47.0432954 C59.2815204,45.9235899 62.0368062,47.2088121 64.2605208,48.4068412 C65.2055892,45.081343 67.1460762,42.0870928 70.188405,40.5616782 C73.5542278,38.8741088 77.4164653,38.6766189 80.8753574,37.2286695 C81.7766847,36.8513572 82.6947045,36.4230452 83.3583168,35.654258 C83.6356168,35.3329524 83.9609504,34.9161565 84.071666,34.4912063 C84.2171293,33.9329986 83.8560261,33.4649883 83.5770909,33.0298096 C82.0980665,30.722375 76.4892136,26.0606832 73.5705106,25.1733593 Z"
                                        id="hair" fill="#016065"></path>
                                </g>
                                <g id="Bottom/Standing/Sprint" transform="translate(1.000000, 190.000000)">
                                    <path
                                        d="M175.544206,-8.23510702 C159.381667,4.94569863 165.629428,120.632166 164.551096,122.087708 C164.071837,122.734615 138.445475,128.22153 87.67201,138.548451 L89.8713068,147.503683 C149.270866,144.602568 180.699898,140.947526 184.158404,136.538558 C189.109994,130.226177 195.207305,94.9054778 202.450338,30.5764596 L175.544206,-8.23510702 Z"
                                        id="Leg" fill="#B28B67"
                                        transform="translate(145.061174, 69.634288) rotate(-55.000000) translate(-145.061174, -69.634288) ">
                                    </path>
                                    <path
                                        d="M96.24226,129.130866 L100.114973,143.554187 C144.398768,148.67801 173.584271,142.404738 183.850921,132.633593 C190.695355,126.119496 196.808521,90.8948178 202.19042,26.9595585 L173.407689,-14.1464418 C134.931898,14.8848145 157.95845,110.043209 156.976367,112.219309 C155.994284,114.395409 132.643765,116.097568 96.24226,129.130866 Z"
                                        id="Pant" fill="#016065"
                                        transform="translate(149.216340, 65.618802) rotate(-55.000000) translate(-149.216340, -65.618802) ">
                                    </path>
                                    <g id="Accessories/Shoe/Flat-Sneaker"
                                        transform="translate(189.131715, 158.286119) rotate(20.000000) translate(-189.131715, -158.286119) translate(163.308381, 141.382353)"
                                        fill="#E4E4E4">
                                        <path
                                            d="M2.14832172,21.7904083 C1.28055168,24.1542529 0.846666667,25.9358958 0.846666667,27.1353368 C0.846666667,28.6594532 1.10101736,30.8835181 1.60971875,33.8075314 C3.38089339,33.8075314 19.2987382,33.8075314 49.3632531,33.8075314 C50.6041981,29.7121777 49.8878527,27.501228 47.2142167,27.1746823 C44.5405807,26.8481367 42.3195458,26.5532921 40.5511121,26.2901486 L18.4988834,16.4763211 C17.9943083,16.2517718 17.4032361,16.4787776 17.1786868,16.9833527 C17.1750169,16.9915991 17.1714589,16.9998948 17.1680136,17.0082375 L15.8015204,20.3172234 L15.8015204,20.3172234 C13.3264328,21.470024 11.3151671,22.0464243 9.76772336,22.0464243 C8.5643166,22.0464243 6.92204178,21.5820377 4.8408989,20.6532646 L4.8409043,20.6532525 C3.8322177,20.2030956 2.64959132,20.6558733 2.19943435,21.6645599 C2.1809768,21.7059185 2.16392943,21.7478922 2.14832172,21.7904083 Z"
                                            id="shoe"></path>
                                    </g>
                                    <polygon id="Leg" fill="#997659"
                                        points="110.066667 0 66.2550852 104.995128 23.1951197 193.759659 33.3543592 193.759659 144.503722 0">
                                    </polygon>
                                    <g id="Accessories/Shoe/Flat-Sneaker" transform="translate(20.320000, 168.192469)"
                                        fill="#E4E4E4">
                                        <path
                                            d="M2.14832172,21.7904083 C1.28055168,24.1542529 0.846666667,25.9358958 0.846666667,27.1353368 C0.846666667,28.6594532 1.10101736,30.8835181 1.60971875,33.8075314 C3.38089339,33.8075314 19.2987382,33.8075314 49.3632531,33.8075314 C50.6041981,29.7121777 49.8878527,27.501228 47.2142167,27.1746823 C44.5405807,26.8481367 42.3195458,26.5532921 40.5511121,26.2901486 L18.4988834,16.4763211 C17.9943083,16.2517718 17.4032361,16.4787776 17.1786868,16.9833527 C17.1750169,16.9915991 17.1714589,16.9998948 17.1680136,17.0082375 L15.8015204,20.3172234 L15.8015204,20.3172234 C13.3264328,21.470024 11.3151671,22.0464243 9.76772336,22.0464243 C8.5643166,22.0464243 6.92204178,21.5820377 4.8408989,20.6532646 L4.8409043,20.6532525 C3.8322177,20.2030956 2.64959132,20.6558733 2.19943435,21.6645599 C2.1809768,21.7059185 2.16392943,21.7478922 2.14832172,21.7904083 Z"
                                            id="shoe"></path>
                                    </g>
                                    <path
                                        d="M27.083638,175.319848 L49.6575807,179.545789 C67.1116899,153.92981 140.157849,48.8956966 148.166667,2.40216958e-14 L97.9119819,2.40216958e-14 C71.1664655,35.3466378 43.7210087,149.280131 27.083638,175.319848 Z"
                                        id="Pant" fill="#1D7074"></path>
                                </g>
                                <g id="Body/Pointing-Forward"
                                    transform="translate(125.294852, 163.138234) rotate(-8.000000) translate(-125.294852, -163.138234) translate(11.374852, 80.173445)">
                                    <path
                                        d="M212.315179,41.1787367 C216.171366,40.3872418 225.583215,33.4083576 227.204923,34.8253348 C229.604137,36.9216612 227.464851,43.3585982 224.944264,46.5606297 C220.23329,52.5452225 216.332806,54.5917726 206.692156,57.2717424 C201.651526,58.6729689 196.201714,61.4816068 190.342719,65.6976562 L189.57,52.1212662 L203.139405,44.6893663 C205.043385,37.466287 207.319361,33.8321115 209.967332,33.7868399 C212.001525,32.8431962 208.458993,41.9702316 212.315179,41.1787367 Z M188.960173,10.2410555 C186.4686,14.6500546 184.046726,19.3993783 185.316085,20.7576955 C186.585443,22.1160127 189.750702,20.2185034 191.265027,22.475359 C192.274577,23.9799294 186.866983,26.356727 175.042244,29.6057519 L152.595655,50.0962177 L141.187855,37.8889388 L172.079561,21.0205461 C177.216662,14.938562 182.278138,10.2150492 187.263988,6.85000764 C188.787504,6.21587737 191.451746,5.83205642 188.960173,10.2410555 Z"
                                        id="Skin" fill="#997659"></path>
                                    <path
                                        d="M127.141817,30.8245535 C137.846693,32.4046552 152.454337,32.4114421 169.184657,25.1966066 L173.053493,39.4198438 C160.920953,48.1365762 144.822171,54.327475 131.983731,51.9239444 C121.866333,50.0298299 118.613529,36.9517787 127.141817,30.8245535 Z"
                                        id="Sleeve" fill="#016065"
                                        transform="translate(147.650355, 38.821320) rotate(-9.000000) translate(-147.650355, -38.821320) ">
                                    </path>
                                    <path
                                        d="M126.863937,-1.2909861e-13 C128.226453,17.4524033 135.084251,36.6864243 140.712422,55.6882772 C152.197984,58.5460515 171.461599,55.1779627 198.501981,45.5848664 C205.208789,59.4183336 208.309179,69.2805348 207.803149,75.17147 C184.604612,87.2530526 164.721889,92.6387494 148.341734,92.9930466 C148.868965,102.67928 147.686297,111.900662 143.7118,120.326421 C135.542266,137.645475 87.7051015,121.6061 71.6207809,124.76304 C61.5483065,92.149763 81.0237406,78.8958589 81.0394108,58.027983 C81.0565714,35.1754352 99.461425,-1.2909861e-13 102.169331,-1.2909861e-13 L102.169331,-1.2909861e-13 Z"
                                        id="Clothes" fill="#00939B"></path>
                                </g>
                            </g>
                            <g id="Humaaan">
                                <g id="Head/Front/Short-1"
                                    transform="translate(167.000000, 60.000000) rotate(7.000000) translate(-167.000000, -60.000000) translate(99.000000, 8.000000)">
                                    <g id="Head" stroke-width="1" transform="translate(54.000000, 31.000000)"
                                        fill="#B28B67">
                                        <path
                                            d="M38.1433414,9.13393292 C43.9381521,19.9350547 43.249578,47.3329958 35.7603014,49.2634576 C32.773664,50.0333035 26.4113241,48.1475566 19.935865,44.2446031 L24,73 L0,73 L8.26160177,34.4893378 C3.65406109,29.0807313 0.535660132,22.452516 1.05677633,15.0254539 C2.55833022,-6.37502057 32.3485306,-1.66718886 38.1433414,9.13393292 Z">
                                        </path>
                                    </g>
                                    <path
                                        d="M56.8333728,40.5449439 C62.305436,18.061277 93.269175,32.0204355 99.2270045,28.2267775 C100.529381,36.3900449 96.3289005,42.9723487 81.5610809,41.7006155 C78.3025808,43.5210619 75.9844328,46.9352721 73.1938192,51.4139439 C72.5147713,51.1467554 71.7745239,51 71,51 C67.6862915,51 65,53.6862915 65,57 C65,58.6817919 65.6919409,60.2019722 66.806667,61.2913854 C65.4199418,63.2508354 63.8637166,65.2983771 62.0803863,67.4111902 C55.433612,63.4233961 50.4882201,51.8083878 56.812313,40.5875403 Z"
                                        id="Hair" fill="#016065"></path>
                                </g>
                                <g id="Bottom/Standing/Sweatpants" transform="translate(0.000000, 186.929577)">
                                    <polygon id="Leg" fill="#997659"
                                        points="128 9.9475983e-14 164.630838 126.226909 181.860154 221 199.153197 221 181.890974 9.9475983e-14">
                                    </polygon>
                                    <path
                                        d="M111.537727,0 C114.093705,65.5742244 113.085665,101.340188 112.513606,107.297892 C111.941548,113.255595 108.69393,153.156298 86.5636874,223 L104.549973,223 C133.85784,155.996902 144.088936,116.096199 147.450326,107.297892 C150.811717,98.4995844 160.739403,62.7336205 175.233385,0 L111.537727,0 Z"
                                        id="Leg" fill="#B28B67"></path>
                                    <path
                                        d="M127.213639,1.13686838e-13 C136.741891,43.4350253 153.221683,112.768359 176.653017,208 L201.946059,208 C203.814239,110.253828 195.86709,45.9204947 182.104613,1.13686838e-13 L127.213639,1.13686838e-13 Z"
                                        id="Pant" fill="#00939B"></path>
                                    <path
                                        d="M111.409919,0 C113.913164,65.5742244 107.425844,130.177256 87.3305078,209.020958 L114.316793,209.020958 C143.678541,143.017859 164.723052,78.7336205 179.105577,0 L111.409919,0 Z"
                                        id="Pant" fill="#33C7CD"></path>
                                    <g id="Accessories/Shoe/Flat-Simple" transform="translate(84.000000, 199.000000)"
                                        fill="#191847">
                                        <path
                                            d="M0,37 L0.99242267,21 C6.8029179,22.6994251 14.0806841,22.0327584 22.8257214,19 C32.2287535,25.660617 44.0659431,30.2086712 58.3372903,32.6441626 C59.4261013,32.829999 60.1581292,33.8632891 59.9723163,34.9521041 C59.9602834,35.0226139 59.9444765,35.0924273 59.9249637,35.1612435 L58.5529375,40 L58.5529375,40 L22.8257214,40 L1.98484534,40 L0,37 Z"
                                            id="Shoe"></path>
                                    </g>
                                    <g id="Accessories/Shoe/Flat-Simple" transform="translate(178.000000, 199.000000)"
                                        fill="#191847">
                                        <path
                                            d="M0,37 L0.99242267,21 C6.8029179,22.6994251 14.0806841,22.0327584 22.8257214,19 C32.2287535,25.660617 44.0659431,30.2086712 58.3372903,32.6441626 C59.4261013,32.829999 60.1581292,33.8632891 59.9723163,34.9521041 C59.9602834,35.0226139 59.9444765,35.0924273 59.9249637,35.1612435 L58.5529375,40 L58.5529375,40 L22.8257214,40 L1.98484534,40 L0,37 Z"
                                            id="Shoe"></path>
                                    </g>
                                </g>
                                <g id="Body/Lab-Coat"
                                    transform="translate(150.000000, 186.500000) rotate(7.000000) translate(-150.000000, -186.500000) translate(22.000000, 93.000000)">
                                    <path
                                        d="M53.6671405,77.5359191 L71.3789189,80.1081345 C52.3668948,121.357659 42.1743233,143.172797 40.8012044,145.553548 C37.7116869,150.910237 41.3451669,160.240318 42.7655846,165.17944 C35.5871864,167.252341 37.8797238,156.161524 28.8030963,158.927786 C20.5183715,161.452702 13.6817028,167.176559 5.47644547,160.370261 C4.4676573,159.533467 3.61787693,156.797168 6.82426992,155.202852 C14.8125642,151.230829 26.541227,143.962534 28.3644086,141.283781 C30.8506424,137.630823 39.2848864,116.381535 53.6671405,77.5359191 L53.6671405,77.5359191 Z M190.358872,88.6100216 L220.545493,114.201672 C229.013042,117.13396 236.02085,120.535571 241.568917,124.406506 C242.849565,125.748514 244.32618,128.3882 238.68408,127.555307 C233.04198,126.722415 227.069879,126.100082 226.151873,127.980187 C225.233867,129.860292 228.504819,132.414187 226.740072,134.914152 C225.563574,136.580795 220.885448,131.868337 212.705694,120.776779 L182.108696,105.506639 L190.358872,88.6100216 Z"
                                        id="Skin" fill="#B28B67"></path>
                                    <path
                                        d="M122.979272,9.21054221 L133.596123,4.63843187 C151.668356,40.3896079 176.923065,74.3010145 216.52753,101.346035 L208.768287,117.911928 C174.615844,101.621394 142.570612,89.4491188 127.58307,61.8321985 C122.552864,52.5632462 123.64558,20.7613641 122.979272,9.21054221 Z"
                                        id="Coat-Back" fill="#C5CFD6"
                                        transform="translate(169.753401, 61.275180) rotate(5.000000) translate(-169.753401, -61.275180) ">
                                    </path>
                                    <path
                                        d="M90,110 C121.438326,113.333333 146.183737,113.333333 164.236234,110 C166.472817,109.587022 166.825667,105.842388 165.788454,103.300966 C149.636353,63.7244027 138.560302,29.1916266 138.560302,1.70263734 C135.596594,3.1967882 130.409827,3.42070538 123,2.37438888 C103.086202,30.7026762 93.9325378,63.2061447 90,110 Z"
                                        id="Shirt" fill="#323337"></path>
                                    <path
                                        d="M118.078622,-0.518676213 L118.049621,-0.000676212716 L126.348425,5.5067062e-14 C128.261445,11.2512223 134.254034,162.198887 152.629948,214.064845 L153.190593,215.605966 L51.3853184,215.605966 C53.5924156,169.487497 71.0026785,114.088004 88.6395167,67.7290783 C73.044235,81.9998445 59.4517,106.181198 47.8618586,140.272687 L47.8618586,140.272687 L28.7926212,135.377648 C42.9709573,74.2822336 72.1213495,29.3765708 116.243798,0.660659727 L116.531583,5.5067062e-14 L117.269621,-0.000676212716 L118.078622,-0.518676213 Z"
                                        id="Coat-Front" fill="#DDE3E9"></path>
                                </g>
                            </g>
                        </g>
                        <g
                            transform="translate(243.104318, 185.721963) rotate(-14.000000) translate(-243.104318, -185.721963) translate(192.604318, 152.221963)">
                            <path
                                d="M50.8280383,54.6067275 C50.8260383,54.6117275 50.8240383,54.6167275 50.8210383,54.6227275 C50.8240383,54.6177275 50.8280383,54.5977275 50.8280383,54.6067275"
                                id="Fill-35" fill="#C5CFD6"></path>
                            <path
                                d="M50.8233815,54.6143262 C50.8233815,54.6153262 50.8223815,54.6173262 50.8223815,54.6193262 C50.8223815,54.6143262 50.8313815,54.5993262 50.8233815,54.6143262"
                                id="Fill-37" fill="#C5CFD6"></path>
                            <path
                                d="M50.8581098,54.5297294 C50.8511098,54.5497294 50.8421098,54.5687294 50.8341098,54.5887294 C50.8381098,54.5787294 50.8421098,54.5707294 50.8461098,54.5607294 C50.7421098,54.8207294 50.8081098,54.6517294 50.8581098,54.5297294"
                                id="Fill-39" fill="#C5CFD6"></path>
                            <path
                                d="M50.8357258,54.5899536 C50.8317258,54.5989536 50.8277258,54.6089536 50.8237258,54.6179536 C50.7947258,54.6739536 50.8357258,54.5899536 50.8357258,54.5899536"
                                id="Fill-41" fill="#C5CFD6"></path>
                            <polygon id="Fill-43" fill="#C5CFD6"
                                points="50.8245383 54.6140786 50.8245383 54.6140786 50.8245383 54.6130786"></polygon>
                            <path
                                d="M50.8240383,54.6145786 C50.8240383,54.6135786 50.8240383,54.6135786 50.8250383,54.6125786 C50.8240383,54.6135786 50.8240383,54.6135786 50.8240383,54.6145786"
                                id="Fill-45" fill="#C5CFD6"></path>
                            <path
                                d="M50.8192941,54.621754 C50.8132941,54.633754 50.8472941,54.575754 50.8192941,54.621754"
                                id="Fill-47" fill="#C5CFD6"></path>
                            <path
                                d="M50.8235383,54.6145786 L50.8255383,54.6125786 C50.8245383,54.6135786 50.8245383,54.6145786 50.8235383,54.6145786"
                                id="Fill-49" fill="#C5CFD6"></path>
                            <rect id="Photo-Background" fill="#F9F9F9" x="0.574535623" y="0.818446954" width="100"
                                height="66" rx="4"></rect>
                        </g>
                    </g>
                    <path
                        d="M251.021134,166.913412 C252.300584,166.913412 253.340475,167.906486 253.363426,169.139962 L253.363778,169.194024 L253.259615,187.649956 C253.259615,198.18248 244.529208,206.740719 233.692792,206.910831 L233.363778,206.913412 L233.363778,187.649956 L233.420132,187.649836 L233.474195,169.175204 C233.477853,167.925015 234.525629,166.913412 235.816864,166.913412 L251.021134,166.913412 Z"
                        id="路径备份-3" fill="#00CBCF"
                        transform="translate(243.363778, 186.913412) scale(1, -1) rotate(-19.000000) translate(-243.363778, -186.913412) ">
                    </path>
                    <path
                        d="M273.679372,201.681179 L273.679264,201.659264 C267.123179,201.273182 261.92564,195.834155 261.92564,189.181179 C261.92564,182.277619 267.522081,176.681179 274.42564,176.681179 C281.078617,176.681179 286.517643,181.878718 286.903725,188.434802 L286.92564,188.43491 L286.92564,199.813919 C286.92564,200.845178 286.08964,201.681179 285.058381,201.681179 L273.679372,201.681179 Z"
                        id="路径备份-3" fill="#FF7673"
                        transform="translate(274.425640, 189.181179) rotate(-15.000000) translate(-274.425640, -189.181179) ">
                    </path>
                    <circle id="椭圆形备份-12" fill="#FFCC66" cx="210.363778" cy="182.413412" r="11"></circle>
                </g>
            </g>
        </g>
    </g>
</svg>