<?xml version="1.0" encoding="UTF-8"?>
<svg width="252px" height="252px" viewBox="0 0 252 252" version="1.1" xmlns="http://www.w3.org/2000/svg" xmlns:xlink="http://www.w3.org/1999/xlink">
    <title>编组 36</title>
    <defs>
        <rect id="path-1" x="0.996047431" y="0" width="251.003953" height="252" rx="125.501976"></rect>
    </defs>
    <g id="页面-1" stroke="none" stroke-width="1" fill="none" fill-rule="evenodd">
        <g id="Learn-pc" transform="translate(-1037.000000, -1136.000000)">
            <g id="编组-36" transform="translate(1037.000000, 1136.000000)">
                <g id="how">
                    <mask id="mask-2" fill="white">
                        <use xlink:href="#path-1"></use>
                    </mask>
                    <use id="蒙版" fill="#F8F8F8" xlink:href="#path-1"></use>
                    <g mask="url(#mask-2)">
                        <g transform="translate(25.897233, 43.000000)">
                            <g id="编组-9" transform="translate(0.000000, 72.000000)">
                                <path d="M19.5591317,97.0240968 C26.4176844,97.022843 36.7064421,91.9309166 36.7089104,78.4059373 L36.7165627,36.4736528 C36.7169873,34.1467746 37.0551473,33.8073762 39.0838123,33.3707162 L60.8195387,28.5675576 C62.5100885,28.2279121 63.5729291,26.8703722 63.5732299,25.2221666 L63.5763706,8.01296344 C63.5763706,5.34674868 61.4519815,3.65045539 58.8920017,4.18416583 L34.6929043,9.47254114 C31.5050025,10.1517963 29.8142045,11.8487875 29.8137003,14.611955 L30.0459097,65.5123722 C30.0455293,67.5968671 29.1275879,68.9543805 27.2921297,69.3425286 L19.9986058,70.8466372 C10.5798081,72.8359001 6.23196226,77.6358809 6.23066157,84.7619454 C6.22933482,92.0334398 11.8311849,97.0255088 19.5591317,97.0240968 Z" id="2" fill="#FF9F73" fill-rule="nonzero" transform="translate(34.903516, 50.555093) rotate(-7.000000) translate(-34.903516, -50.555093) "></path>
                                <path d="M143.257589,92.3968379 C148.956699,92.3968379 153.674814,88.515379 153.674814,82.4827494 C153.674814,76.7774726 149.797551,73.0363067 144.518867,73.0363067 C141.856169,73.0363067 139.754038,74.018363 138.399331,76.0760039 C139.754038,69.9030807 144.472153,65.8345637 150.825259,65.5539761 C152.600392,65.4604473 153.861671,64.1978039 153.861671,62.5142795 C153.861671,60.4566386 152.179966,59.3342888 149.937693,59.3342888 C139.987608,59.3342888 131.158659,67.8454399 131.158659,79.1157005 C131.158659,87.1592063 136.484057,92.3968379 143.257589,92.3968379 Z M115.904117,92.3968379 C121.603227,92.3968379 126.274628,88.515379 126.274628,82.4827494 C126.274628,76.7774726 122.397365,73.0363067 117.118681,73.0363067 C114.455982,73.0363067 112.353852,74.0651277 110.999145,76.0760039 C112.353852,69.9030807 117.071967,65.8813284 123.471787,65.5539761 C125.200206,65.4604473 126.461484,64.1978039 126.461484,62.5142795 C126.461484,60.4566386 124.77978,59.3342888 122.537507,59.3342888 C112.587422,59.3342888 103.758473,67.8454399 103.758473,79.1157005 C103.758473,87.1592063 109.08387,92.3968379 115.904117,92.3968379 Z M189.530485,66.4191207 C191.450497,66.4191207 193.004794,64.6582709 193.004794,62.4831032 C193.004794,60.307935 191.450497,58.5470852 189.530485,58.5470852 L165.164604,58.5470852 C163.244591,58.5470852 161.690295,60.307935 161.690295,62.4831032 C161.690295,64.6582709 163.244591,66.4191207 165.164604,66.4191207 L189.530485,66.4191207 Z M189.530485,89.2480234 C191.450497,89.2480234 193.004794,87.871721 193.004794,86.0783566 C193.004794,84.3266982 191.450497,82.9503952 189.530485,82.9503952 L165.164604,82.9503952 C163.244591,82.9503952 161.690295,84.3266982 161.690295,86.0783566 C161.690295,87.871721 163.244591,89.2480234 165.164604,89.2480234 L189.530485,89.2480234 Z M189.475803,112.076927 C191.426034,112.076927 193.004794,110.316076 193.004794,108.140909 C193.004794,105.965741 191.426034,104.204891 189.475803,104.204891 L107.287464,104.204891 C105.337232,104.204891 103.758473,105.965741 103.758473,108.140909 C103.758473,110.316076 105.337232,112.076927 107.287464,112.076927 L189.475803,112.076927 Z M189.475803,134.90583 C191.426034,134.90583 193.004794,133.529527 193.004794,131.777868 C193.004794,129.984504 191.426034,128.608201 189.475803,128.608201 L107.287464,128.608201 C105.337232,128.608201 103.758473,129.984504 103.758473,131.777868 C103.758473,133.529527 105.337232,134.90583 107.287464,134.90583 L189.475803,134.90583 Z" id="1" fill="#FFCC66" fill-rule="nonzero" transform="translate(148.381633, 96.726457) rotate(24.000000) translate(-148.381633, -96.726457) "></path>
                            </g>
                            <g id="编组-11备份-7" transform="translate(16.932806, 0.000000)"></g>
                        </g>
                    </g>
                    <path d="M96.9124395,104.09417 C106.115135,104.09417 110.808511,99.4165509 110.808511,90.2465648 L110.808511,36.8012923 C110.808511,27.6776192 106.115135,23 96.9124395,23 L21.8644509,23 C12.6617546,23 7.96837945,27.6313061 7.96837945,36.8012923 L7.96837945,90.2465648 C7.96837945,99.4165509 12.6617546,104.09417 21.8644509,104.09417 L96.9124395,104.09417 Z M45.6502596,78.5002133 L45.6502596,48.5355248 C45.6502596,46.4051142 48.1597935,45.1083425 50.0761648,46.2661743 L74.8977369,61.1327353 C76.6772246,62.2442539 76.7684804,64.8377972 74.8977369,65.9493159 L50.0761648,80.8158769 C48.0229098,82.0200217 45.6502596,80.6306235 45.6502596,78.5002133 Z" id="3" fill="#FF7673" fill-rule="nonzero" transform="translate(59.388445, 63.547085) rotate(-12.000000) translate(-59.388445, -63.547085) "></path>
                    <path d="M244.907577,76.6087772 L244.907577,73.1855756 C244.907577,64.4275142 240.204249,59.9373404 231.02815,59.9373404 L189.067089,59.9373404 C186.023759,59.9373404 184.225428,59.2260257 181.965987,57.403282 L179.383767,55.3582524 C176.43266,53.0020227 174.173218,52.2017937 169.792668,52.2017937 L156.78935,52.2017937 C148.996581,52.2017937 144.431587,56.5141387 144.431587,65.1388284 L144.431587,76.6087772 L244.907577,76.6087772 Z M232.227037,133.295964 C240.250361,133.295964 244.907577,128.60973 244.907577,119.422856 L244.907577,82.9073531 L144.431587,82.9073531 L144.431587,119.422856 C144.431587,128.60973 149.134915,133.295964 158.357126,133.295964 L232.227037,133.295964 Z" id="4" fill="#00CBCF" fill-rule="nonzero" transform="translate(194.669582, 92.748879) rotate(11.000000) translate(-194.669582, -92.748879) "></path>
                </g>
                <g id="编组-34" transform="translate(45.818182, 45.000000)" fill="#009999" fill-rule="nonzero">
                    <path d="M152.111832,136.077661 L178.811853,160.320902 C184.344108,165.34415 184.791834,173.928221 179.812562,179.507106 C174.895161,185.01667 166.50725,185.520538 160.976038,180.678194 L160.790325,180.512617 L132.591187,154.908398 C139.996295,149.648918 146.580474,143.29405 152.111832,136.077661 Z" id="形状结合"></path>
                    <path d="M84.233637,13.9415951 C121.100523,16.1650556 148.382019,48.0346561 146.907343,84.3511774 C144.69533,121.408853 112.989808,148.831532 76.8602593,147.349225 C39.9933734,145.125764 12.7118776,113.256164 14.1865532,76.9396426 C15.6612288,40.6231209 48.1040885,12.459288 84.233637,13.9415951 M85.2132615,0.121928472 C41.0618146,-2.29717895 2.52964253,31.570325 0.121381776,75.9206275 C-2.28687898,120.27093 31.4287716,158.976649 75.5802189,161.395756 C119.731666,163.814864 157.461084,129.94736 160.672099,85.5970574 C163.883113,41.2467548 129.364709,3.3474051 85.2132615,0.121928472 Z" id="形状"></path>
                </g>
            </g>
        </g>
    </g>
</svg>