<?xml version="1.0" encoding="UTF-8"?>
<svg width="168px" height="168px" viewBox="0 0 168 168" version="1.1" xmlns="http://www.w3.org/2000/svg" xmlns:xlink="http://www.w3.org/1999/xlink">
    <title>Your Extensions</title>
    <defs>
        <filter x="-8.2%" y="-8.3%" width="116.4%" height="116.6%" filterUnits="objectBoundingBox" id="filter-1">
            <feOffset dx="0" dy="2" in="SourceAlpha" result="shadowOffsetOuter1"></feOffset>
            <feGaussianBlur stdDeviation="2" in="shadowOffsetOuter1" result="shadowBlurOuter1"></feGaussianBlur>
            <feColorMatrix values="0 0 0 0 0   0 0 0 0 0   0 0 0 0 0  0 0 0 0.1 0" type="matrix" in="shadowBlurOuter1" result="shadowMatrixOuter1"></feColorMatrix>
            <feMerge>
                <feMergeNode in="shadowMatrixOuter1"></feMergeNode>
                <feMergeNode in="SourceGraphic"></feMergeNode>
            </feMerge>
        </filter>
        <circle id="path-2" cx="54.5" cy="54.5" r="54.5"></circle>
    </defs>
    <g id="页面-1" stroke="none" stroke-width="1" fill="none" fill-rule="evenodd">
        <g id="Front-page-pc" transform="translate(-1073.000000, -2732.000000)">
            <g id="编组-27" transform="translate(151.000000, 2618.000000)">
                <g id="编组-16"></g>
                <g id="Your-Extensions" filter="url(#filter-1)" transform="translate(933.000000, 125.000000)">
                    <g id="椭圆形备份-11" transform="translate(0.500000, 0.000000)" fill="#FFFFFF" fill-rule="nonzero">
                        <g id="path-1-link">
                            <circle id="path-1" cx="72.5" cy="72.5" r="72.5"></circle>
                        </g>
                    </g>
                    <g id="椭圆形" transform="translate(18.500000, 18.000000)" fill="#FAFAFA" fill-rule="nonzero">
                        <circle id="path-3" cx="54.5" cy="54.5" r="54.5"></circle>
                    </g>
                    <g id="编组-8-Clipped" transform="translate(18.500000, 18.000000)">
                        <mask id="mask-3" fill="white">
                            <use xlink:href="#path-2"></use>
                        </mask>
                        <g id="path-3"></g>
                        <g id="编组-8" mask="url(#mask-3)">
                            <g transform="translate(-10.173333, -17.440000)" id="编组" fill-rule="nonzero">
                                <path d="M3.85875,11.1322023 L11.878125,11.1322023 C12.429375,11.1322023 12.875625,11.4504686 12.875625,11.8436211 C12.875625,12.2367736 12.429375,12.5550399 11.878125,12.5550399 L3.85875,12.5550399 C3.3075,12.5550399 2.86125,12.2367736 2.86125,11.8436211 C2.86125,11.4504686 3.3075,11.1322023 3.85875,11.1322023 Z" id="路径" fill="#FF5860"></path>
                                <path d="M7.8684375,6.86368905 C8.26374177,6.86368905 8.58375,7.30750998 8.58375,7.85575942 L8.58375,15.8314828 C8.58375,16.3797322 8.26374177,16.8235532 7.8684375,16.8235532 C7.47313323,16.8235532 7.153125,16.3797322 7.153125,15.8314828 L7.153125,7.85575942 C7.153125,7.30750998 7.47313323,6.86368905 7.8684375,6.86368905 Z" id="路径" fill="#FF5860"></path>
                                <path d="M48.4444773,15.4333852 L52.2098288,16.4009911 C52.7331489,16.535721 53.0394825,17.0501444 52.8990796,17.5523196 C52.7586767,18.0544948 52.2225927,18.3484511 51.6992727,18.2137211 L47.9339212,17.2461152 C47.4106011,17.1113853 47.1042675,16.5969619 47.2446704,16.0947867 C47.3978372,15.5926115 47.9211573,15.2986553 48.4444773,15.4333852 L48.4444773,15.4333852 Z" id="路径" fill="#FF7673"></path>
                                <path d="M54.7886248,10.4353228 L55.7615264,14.175208 C55.8969938,14.6949887 55.6014286,15.2274469 55.096505,15.3669003 C54.5915814,15.5063537 54.0743426,15.2020918 53.9388752,14.6823111 L52.9659736,10.9297483 C52.8305062,10.4099676 53.1260713,9.87750937 53.630995,9.738056 C54.1359186,9.61128021 54.6531574,9.91554208 54.7886248,10.4353228 L54.7886248,10.4353228 Z" id="路径" fill="#FF7673"></path>
                                <path d="M62.6858003,14.0646361 L60.1734832,16.563278 C59.8245503,16.9103115 59.2662576,16.9103115 58.9173247,16.563278 C58.5683918,16.2162444 58.5683918,15.6609907 58.9173247,15.313957 L61.4296418,12.8153152 C61.7785747,12.4682815 62.3368674,12.4682815 62.6858003,12.8153152 C63.0347332,13.1623488 63.0347332,13.7176025 62.6858003,14.0646361 L62.6858003,14.0646361 Z" id="路径" fill="#FF7673"></path>
                                <path d="M127.316264,11.1322023 C122.579757,11.1322023 118.741875,14.9491933 118.741875,19.6785384 C118.741875,24.3892639 122.579757,28.206255 127.316264,28.206255 C132.052772,28.206255 135.909375,24.3892639 135.909375,19.6785384 C135.890654,14.9491933 132.052772,11.1322023 127.316264,11.1322023 Z M127.325625,25.3605795 C124.165159,25.3605795 121.603125,22.812491 121.603125,19.6692286 C121.603125,16.5259662 124.165159,13.9778777 127.325625,13.9778777 C130.486091,13.9778777 133.048125,16.5259662 133.048125,19.6692286 C133.029424,22.812491 130.467389,25.3605795 127.325625,25.3605795 Z" id="形状" fill="#FFCC66"></path>
                                <g id="编组-13" transform="translate(88.165397, 12.648615) rotate(16.000000) translate(-88.165397, -12.648615) translate(78.665397, 2.648615)" fill="#FFCC66">
                                    <polygon id="路径" points="18.598125 5.69135092 10.014375 9.01190069 10.014375 19.9197282 18.598125 16.5991784"></polygon>
                                    <path d="M0,16.3977991 L8.57943658,19.9197282 L8.57943658,8.35038035 L0,4.82845123 L0,16.3977991 Z M18.598125,3.67340996 L9.40186621,0 L2.13162821e-14,3.2947079 L9.36448306,7.32788485 L18.598125,3.67340996 L18.598125,3.67340996 Z" id="形状"></path>
                                </g>
                                <polygon id="路径" fill="#40B8C1" points="123.03375 50.5174677 61.516875 42.4346323 61.516875 74.4881678 123.03375 80.8512507"></polygon>
                                <polygon id="路径" fill="#60BABF" points="12.875625 52.9409078 61.516875 42.4346323 61.516875 78.8820022 12.875625 89.3882775"></polygon>
                                <polygon id="路径" fill="#40B8C1" points="68.67 65.3790491 121.603125 50.9716587 121.603125 119.088857 68.67 133.496247"></polygon>
                                <polygon id="路径" fill="#1D9199" points="11.445 53.8173342 68.67 65.8248219 68.67 133.496247 11.445 119.865064"></polygon>
                                <polygon id="路径" fill="#FFFFFF" points="68.67 65.5138026 12.1190127 53.8173342 0 77.4161498 58.5730254 90.8111148"></polygon>
                                <polygon id="路径" fill="#60BABF" points="70.100625 65.6661698 123.076294 50.9716587 137.34 75.4937088 86.4039076 92.2339528"></polygon>
                                <path d="M97.2825,52.3944964 C97.2825,52.3944964 99.5448837,38.1484001 111.362512,31.0519305 C111.362512,31.0519305 112.400546,32.2213862 114.45,34.8526613 C114.45,34.8526613 109.073512,34.0021482 97.2825,52.3944964 Z" id="路径" fill="#FF5860"></path>
                                <path d="M70.100625,52.3944964 C70.100625,52.3944964 70.3155348,44.5316808 75.7514887,26.7834173 C75.7514887,26.7834173 76.7375449,27.9621699 78.684375,30.6143632 C78.684375,30.6143632 76.6364111,32.5030464 70.100625,52.3944964 L70.100625,52.3944964 Z" id="路径" fill="#FFCC66"></path>
                                <path d="M50.071875,50.9716587 C50.071875,50.9716587 43.4267472,32.3465474 27.1571678,23.9377418 C27.1571678,23.9377418 24.4387064,27.5658401 21.4593675,28.718449 C21.4456529,28.718449 40.1728313,34.9399173 50.071875,50.9716587 Z" id="路径" fill="#FFCC66"></path>
                            </g>
                        </g>
                    </g>
                    <g id="彩色-炫彩盒子备份" transform="translate(8.500000, 2.000000)" fill-rule="nonzero">
                        <path d="M11.1431787,13.0123453 L19.1427009,13.0123453 C19.6925862,13.0123453 20.1377315,13.3311956 20.1377315,13.7250695 C20.1377315,14.1189435 19.6925862,14.4377938 19.1427009,14.4377938 L11.1431787,14.4377938 C10.5932934,14.4377938 10.1481481,14.1189435 10.1481481,13.7250695 C10.1481481,13.3311956 10.5932934,13.0123453 11.1431787,13.0123453 Z" id="路径" fill="#FF5860"></path>
                        <path d="M15.1429398,8.736 C15.5372655,8.736 15.8564815,9.18063532 15.8564815,9.72989064 L15.8564815,17.7202484 C15.8564815,18.2695038 15.5372655,18.7141391 15.1429398,18.7141391 C14.7486142,18.7141391 14.4293981,18.2695038 14.4293981,17.7202484 L14.4293981,9.72989064 C14.4293981,9.18063532 14.7486142,8.736 15.1429398,8.736 Z" id="路径" fill="#FF5860"></path>
                        <path d="M41.0985226,13.0145235 L44.8545526,13.9839048 C45.3765771,14.1188819 45.6821525,14.6342492 45.5420971,15.1373459 C45.4020417,15.6404425 44.8672849,15.9349381 44.3452604,15.7999609 L40.5892304,14.8305796 C40.0672059,14.6956024 39.7616306,14.1802352 39.9016859,13.6771385 C40.0544736,13.1740419 40.5764981,12.8795463 41.0985226,13.0145235 L41.0985226,13.0145235 Z" id="路径" fill="#FF7673"></path>
                        <path d="M47.4269645,8.00729027 L48.3974576,11.7540377 C48.5325896,12.2747721 48.2377562,12.8082073 47.7340826,12.9479166 C47.2304089,13.0876258 46.7144506,12.7828057 46.5793186,12.2620713 L45.6088255,8.502623 C45.4736935,7.98188861 45.7685269,7.44845338 46.2722005,7.30874413 C46.7758742,7.18173577 47.2918325,7.48655588 47.4269645,8.00729027 L47.4269645,8.00729027 Z" id="路径" fill="#FF7673"></path>
                        <path d="M55.3045897,11.6432629 L52.7984921,14.1464894 C52.450423,14.4941598 51.8935125,14.4941598 51.5454434,14.1464894 C51.1973743,13.7988191 51.1973743,13.2425466 51.5454434,12.8948762 L54.0515409,10.3916496 C54.39961,10.0439793 54.9565206,10.0439793 55.3045897,10.3916496 C55.6526588,10.73932 55.6526588,11.2955925 55.3045897,11.6432629 L55.3045897,11.6432629 Z" id="路径" fill="#FF7673"></path>
                        <path d="M121.632527,12.376 C116.907746,12.376 113.079365,16.1999947 113.079365,20.9380175 C113.079365,25.6573866 116.907746,29.4813813 121.632527,29.4813813 C126.357309,29.4813813 130.204365,25.6573866 130.204365,20.9380175 C130.18569,16.1999947 126.357309,12.376 121.632527,12.376 Z M121.641865,26.6304844 C118.489223,26.6304844 115.933532,24.0777205 115.933532,20.9286906 C115.933532,17.7796607 118.489223,15.2268968 121.641865,15.2268968 C124.794507,15.2268968 127.350198,17.7796607 127.350198,20.9286906 C127.331544,24.0777205 124.775852,26.6304844 121.641865,26.6304844 Z" id="形状" fill="#FFCC66"></path>
                        <g id="编组-13" transform="translate(80.587016, 12.940554) rotate(16.000000) translate(-80.587016, -12.940554) translate(71.087016, 2.940554)" fill="#FFCC66">
                            <polygon id="路径" points="18.5520833 5.70179376 9.98958333 9.02843629 9.98958333 19.9562782 18.5520833 16.6296356"></polygon>
                            <path d="M0,16.4278868 L8.55819726,19.9562782 L8.55819726,8.36570214 L0,4.83731078 L0,16.4278868 Z M18.5520833,3.68015016 L9.37859088,0 L2.13162821e-14,3.30075324 L9.34130028,7.34133051 L18.5520833,3.68015016 L18.5520833,3.68015016 Z" id="形状"></path>
                        </g>
                        <polygon id="路径" fill="#1D9199" points="12.84375 51.5820471 61.3645833 41.056494 61.3645833 77.5707398 12.84375 88.0962926"></polygon>
                        <polygon id="路径" fill="#40B8C1" points="68.5 64.1780114 12.0890108 52.4600816 0 76.1021978 58.4280215 89.5217407"></polygon>
                        <polygon id="路径" fill="#1D9199" points="69.9270833 64.3306582 122.771605 49.6091846 137 74.1762294 86.1900054 90.9471894"></polygon>
                        <path d="M97.0416667,51.0346331 C97.0416667,51.0346331 99.2984495,36.7623972 111.086822,29.6529065 C111.086822,29.6529065 112.122287,30.824508 114.166667,33.4606112 C114.166667,33.4606112 108.803489,32.6085374 97.0416667,51.0346331 Z" id="路径" fill="#FF5860"></path>
                        <path d="M69.9270833,51.0346331 C69.9270833,51.0346331 70.1414611,43.1573903 75.5639578,25.3765612 C75.5639578,25.3765612 76.5475728,26.5574766 78.4895833,29.2145363 C78.4895833,29.2145363 76.4466893,31.106685 69.9270833,51.0346331 L69.9270833,51.0346331 Z" id="路径" fill="#FFCC66"></path>
                        <path d="M49.9479167,49.6091846 C49.9479167,49.6091846 43.3192396,30.9498988 27.0899373,22.5256643 C27.0899373,22.5256643 24.3782057,26.1604197 21.4062425,27.3151434 C21.3925619,27.3151434 40.0733791,33.5480272 49.9479167,49.6091846 Z" id="路径" fill="#FFCC66"></path>
                    </g>
                </g>
            </g>
        </g>
    </g>
</svg>