<svg width="46" height="46" viewBox="0 0 46 46" fill="none" xmlns="http://www.w3.org/2000/svg">
<path opacity="0.55" d="M45.9943 0V42.5394C45.9943 43.461 45.6359 44.3269 44.9838 44.979C42.8185 47.1443 39.096 45.5941 39.096 42.5394V8.33543C39.096 7.54141 38.4529 6.89829 37.6589 6.89829H9.77832V0L45.9943 0Z" fill="#F29A71"/>
<path d="M37.1555 45.843C37.0251 45.647 36.7856 45.1904 36.6184 44.7426C36.0482 43.2028 36.2214 45.2776 36.2214 9.77246H0.00537109V42.5393C0.00537109 44.4408 1.55299 45.9885 3.45452 45.9885C39.8741 45.9885 37.2899 46.0603 37.1555 45.843ZM17.1074 41.7246C17.1074 42.5187 16.4643 43.1618 15.6702 43.1618H4.2692C3.47517 43.1618 2.83205 42.5187 2.83205 41.7246V30.3236C2.83205 29.5296 3.47517 28.8865 4.2692 28.8865H15.6702C16.4643 28.8865 17.1074 29.5296 17.1074 30.3236V41.7246ZM31.9576 43.1618H21.3712C20.5772 43.1618 19.9341 42.5187 19.9341 41.7246C19.9341 40.9315 20.5772 40.2875 21.3712 40.2875H31.9576C32.7516 40.2875 33.3947 40.9315 33.3947 41.7246C33.3947 42.5187 32.7516 43.1618 31.9576 43.1618ZM31.9576 37.4617H21.3712C20.5772 37.4617 19.9341 36.8177 19.9341 36.0246C19.9341 35.2306 20.5772 34.5874 21.3712 34.5874H31.9576C32.7516 34.5874 33.3947 35.2306 33.3947 36.0246C33.3947 36.8177 32.7516 37.4617 31.9576 37.4617ZM31.9576 31.7608H21.3712C20.5772 31.7608 19.9341 31.1176 19.9341 30.3236C19.9341 29.5296 20.5772 28.8865 21.3712 28.8865H31.9576C32.7516 28.8865 33.3947 29.5296 33.3947 30.3236C33.3947 31.1176 32.7516 31.7608 31.9576 31.7608ZM33.3947 24.6226C33.3947 25.4167 32.7516 26.0598 31.9576 26.0598H4.2692C3.47517 26.0598 2.83205 25.4167 2.83205 24.6226V14.0363C2.83205 13.2423 3.47517 12.5991 4.2692 12.5991H31.9576C32.7516 12.5991 33.3947 13.2423 33.3947 14.0363V24.6226Z" fill="#F29A71"/>
<path d="M5.7063 15.4736H30.5204V23.1857H5.7063V15.4736Z" fill="#F29A71"/>
<path d="M5.7063 31.7607H14.2331V40.2875H5.7063V31.7607Z" fill="#F29A71"/>
</svg>
