<svg width="72" height="72" viewBox="0 0 72 72" fill="none" xmlns="http://www.w3.org/2000/svg">
<path d="M11.8998 41.3584H60.1C63.2885 41.3584 66.1586 39.5855 67.5898 36.7319C67.725 36.4619 67.8085 36.292 67.8085 36.292C68.0932 35.7109 68.0585 35.0239 67.7158 34.4746C67.3735 33.9253 66.7724 33.5918 66.1249 33.5918H65.3315C61.4277 33.5918 57.8027 31.6514 55.6347 28.4014C55.287 27.8799 54.7016 27.5664 54.0751 27.5664H17.9247C17.2983 27.5664 16.7128 27.8799 16.3652 28.4014C14.1972 31.6514 10.5722 33.5918 6.66838 33.5918H5.87492C5.22746 33.5918 4.62639 33.9258 4.2841 34.4746C3.94133 35.0239 3.90666 35.7109 4.19133 36.292C4.19133 36.292 4.27483 36.4619 4.40959 36.731C5.84172 39.5855 8.71184 41.3584 11.8998 41.3584Z" fill="#EB6161"/>
<path d="M9.74033 20.4272C11.8932 22.5811 14.8766 23.8164 17.9249 23.8164H54.0753C57.1236 23.8164 60.107 22.5811 62.2584 20.4287C62.9239 19.7642 63.4381 19.2471 63.4381 19.2471C63.9723 18.71 64.1305 17.9043 63.8399 17.2046C63.5489 16.5054 62.8658 16.0498 62.1085 16.0498C57.6637 16.0498 53.4195 13.9277 50.7589 10.3784C50.4264 9.93213 50.1383 9.54736 49.9254 9.26416V5.875C49.9254 4.83936 49.0855 4 48.0504 4C47.0147 4 46.1754 4.83936 46.1754 5.875V8.0166H25.8253V5.875C25.8253 4.83936 24.9854 4 23.9503 4C22.9146 4 22.0753 4.83936 22.0753 5.875V9.26904C21.8663 9.54785 21.5811 9.92822 21.2447 10.3735C18.5807 13.9282 14.3365 16.0498 9.89169 16.0498C9.13437 16.0498 8.45126 16.5059 8.16025 17.2051C7.86972 17.9043 8.02792 18.71 8.5621 19.2471C8.5621 19.2471 9.07626 19.7642 9.74033 20.4272Z" fill="#EB6161"/>
<path d="M66.125 59.022H5.875C4.83936 59.022 4 59.8613 4 60.897V66.125C4 67.1606 4.83936 68 5.875 68H66.125C67.1606 68 68 67.1606 68 66.125V60.897C68 59.8613 67.1606 59.022 66.125 59.022Z" fill="#EB6161"/>
<path d="M19.7998 53.8086V55.417H24.0835V53.8086C24.0835 52.6274 23.1226 51.666 21.9409 51.666C20.7612 51.666 19.7998 52.6274 19.7998 53.8086Z" fill="#EB6161"/>
<path d="M33.8584 53.8086V55.417H38.1406V53.8086C38.1406 52.5859 37.1445 51.666 35.9995 51.666C34.8545 51.666 33.8584 52.5859 33.8584 53.8086Z" fill="#EB6161"/>
<path d="M47.916 53.8086V55.417H52.2002V53.8086C52.2002 52.6274 51.2388 51.666 50.0586 51.666C48.8774 51.666 47.916 52.6274 47.916 53.8086Z" fill="#EB6161"/>
<path d="M60.1006 55.417C61.1362 55.417 61.9756 54.5771 61.9756 53.542V44.9639C61.3618 45.0581 60.7358 45.1084 60.1006 45.1084H11.9004C11.2651 45.1084 10.6392 45.0581 10.0254 44.9639V53.542C10.0254 54.5771 10.8647 55.417 11.9004 55.417H16.0503V53.8086C16.0503 50.5601 18.6929 47.916 21.9414 47.916C25.1904 47.916 27.834 50.5601 27.834 53.8086V55.417H30.1089V53.8086C30.1089 50.4863 32.8149 47.916 36.0005 47.916C39.186 47.916 41.8916 50.4863 41.8916 53.8086V55.417H44.1665V53.8086C44.1665 50.5601 46.8105 47.916 50.0591 47.916C53.3081 47.916 55.9502 50.5601 55.9502 53.8086V55.417H60.1006Z" fill="#EB6161"/>
</svg>
