<svg width="72" height="72" viewBox="0 0 72 72" fill="none" xmlns="http://www.w3.org/2000/svg">
<path d="M68.84 67.3138V39.0233H70.0155V31.0833H68.41V28.2762H68.9287V27.1646H52.768V24.8774L45.9671 24.8781C46.0125 24.6525 45.8447 24.1909 45.8894 23.8972C45.9609 23.4171 45.9307 23.1014 45.9259 22.6329C45.9245 22.4032 46.5119 20.8156 46.9253 21.207C46.8517 21.3879 46.4294 21.7924 46.8675 21.7703C47.2755 21.7511 47.4839 21.6981 47.7769 21.4244C47.9606 21.7112 48.2385 21.6699 48.3451 22.0806C48.462 22.5229 48.1993 22.9562 48.2852 23.3882C48.3465 23.6998 47.7618 23.9 47.9729 24.3822C48.2151 24.9386 48.5941 24.4083 48.722 24.1338C48.8933 23.7672 48.7812 23.1021 48.797 22.6962C48.8115 22.3482 48.9504 21.8962 48.9105 21.5612C48.8926 21.4078 48.8211 21.1987 48.8004 21.0735C48.7454 21.0749 48.4778 20.9669 48.4551 20.9091C48.2068 20.9938 48.3568 20.2921 48.3554 20.2557C48.343 19.6538 48.9043 18.8985 48.3093 18.4851C48.1676 18.3867 48.1635 17.9981 48.0679 17.8371C47.5891 17.6617 48.5088 17.1637 48.5377 17.1383C48.6698 17.0248 49.4243 16.7029 49.1437 16.3335C48.8878 15.9999 49.0955 15.6724 49.0811 15.3093C49.0735 15.127 49.2517 14.9681 49.2696 14.7823C49.2544 14.6427 49.1994 14.5216 49.1045 14.4185C48.9738 14.0057 49.3026 13.9789 49.4202 13.6494C48.817 13.7574 48.537 13.1521 47.953 13.2931C47.5148 13.3997 47.0381 13.9521 46.8228 14.3263C46.5257 14.8401 46.3647 15.4922 46.1914 16.0528C46.0992 16.3493 45.8853 16.9017 45.6741 17.4733C45.4629 18.0449 43.8877 17.9795 43.4379 18.6165C42.4281 20.0466 43.541 22.8015 43.541 22.8015C43.594 23.3215 43.3285 24.387 43.614 24.8554C43.6181 24.8616 43.6195 24.8712 43.6236 24.8774H41.8957L42.1529 24.0719L42.1811 22.5057C43.0747 20.0259 41.5641 17.3185 41.5641 17.3185C41.5201 17.0399 41.4266 16.7359 41.4272 16.4497C41.6818 16.2936 42.0387 16.0473 41.831 15.7742C41.7836 15.7123 41.756 15.6511 41.7361 15.5892C41.8331 15.2996 41.8124 15.0857 41.7574 14.9399C41.7657 14.8773 41.7705 14.814 41.7684 14.75C41.7609 14.5677 41.939 14.4088 41.9569 14.2231C41.9418 14.0835 41.8867 13.9624 41.7918 13.8585C41.6611 13.4465 41.9899 13.419 42.1075 13.0895C41.5043 13.1975 41.2243 12.5922 40.6403 12.7332C40.2022 12.8391 39.7255 13.3915 39.5102 13.7664C39.4063 13.9459 39.3231 14.1447 39.2453 14.3483C39.2089 14.1695 39.1683 13.9968 39.0926 13.8324C38.9337 13.4802 38.684 13.2986 38.327 13.3468C37.9632 13.397 37.8751 13.6804 37.9074 14.0216C37.9219 14.1681 37.9494 14.3744 37.7135 14.3806C37.4081 14.3882 37.1983 14.1798 36.9933 13.9899C36.8014 13.8118 36.8646 13.6082 36.974 13.4142C37.0848 13.2168 37.2161 13.0304 37.3124 12.8268C37.4376 12.5612 37.3578 12.3012 37.0965 12.2097C36.833 12.1176 36.7071 11.6519 36.3329 11.8954C36.0612 12.0722 35.8941 12.1155 35.7923 11.9993V8.74635C36.6026 8.61909 37.2134 7.92298 37.2134 7.09685C37.2134 6.24665 36.6019 5.55879 35.7923 5.42466L35.707 5.42535V5.3545C37.8105 5.13507 37.5525 2.75781 37.5525 2.75781C37.5525 2.75781 36.2978 3.07698 35.8941 3.92718C35.8494 3.57775 35.6698 3.30329 35.469 3.30191C35.469 3.30191 35.469 3.30191 35.4683 3.30191C35.4683 3.30191 35.4683 3.30191 35.4676 3.30191C35.2667 3.3026 35.0872 3.57706 35.0425 3.92718C34.6394 3.07767 33.3847 2.75781 33.3847 2.75781C33.3847 2.75781 33.1268 5.13507 35.2296 5.3545V5.43842C34.4406 5.57736 33.8442 6.25628 33.8442 7.0996C33.8442 7.92917 34.4544 8.62185 35.2633 8.74841V11.9277C35.2578 11.9325 35.2557 11.9387 35.2495 11.9435C34.6332 12.436 34.2418 13.159 33.5677 13.5972C33.3689 13.7265 33.2981 13.928 33.2582 14.1956C33.1055 15.2088 33.3084 16.1938 33.4068 17.1878C33.4219 17.3405 33.448 18.3923 33.448 18.3923L32.4204 17.7505C32.388 17.6886 32.3543 17.6253 32.3323 17.5599C32.3323 17.5586 32.3316 17.5572 32.3316 17.5551C32.3254 17.0489 32.3172 16.5811 32.3289 16.3183C32.3557 15.7316 32.4245 15.0637 32.3192 14.4797C32.2436 14.0546 31.9815 13.3736 31.6052 13.1253C31.1038 12.7951 30.6347 13.2697 30.1043 12.9636C30.1036 13.3138 30.4042 13.4506 30.1408 13.7946C30.0163 13.8592 29.9241 13.9555 29.8615 14.0814C29.8161 14.2616 29.9296 14.4714 29.8615 14.6406C29.726 14.977 29.8092 15.356 29.4564 15.583C29.067 15.8355 29.4963 16.4284 29.6957 16.6671C29.8959 16.9065 30.374 16.8535 30.374 16.8535C30.3341 17.011 30.299 17.1679 30.2818 17.324C30.2818 17.324 28.7527 18.893 30.0686 22.2897L30.2543 23.9447C30.3815 24.2645 30.5329 24.5713 30.6842 24.8788H28.375C28.3792 24.8719 28.3805 24.8616 28.3847 24.8547C28.6708 24.3863 28.4053 23.3208 28.4583 22.8008C28.4583 22.8008 29.5712 20.0459 28.5614 18.6158C28.1116 17.9795 26.5364 18.0449 26.3252 17.4726C26.1133 16.9003 25.9001 16.3486 25.8079 16.0521C25.6346 15.4915 25.4736 14.8394 25.1772 14.3256C24.9612 13.9514 24.4845 13.3991 24.0463 13.2924C23.463 13.1514 23.1824 13.7567 22.5798 13.6487C22.6974 13.9782 23.0262 14.0058 22.8948 14.4178C22.7999 14.521 22.7449 14.6427 22.7297 14.7817C22.7476 14.9674 22.9258 15.1256 22.9182 15.3086C22.9045 15.6718 23.1115 15.9992 22.8563 16.3328C22.575 16.7022 23.3296 17.0241 23.4616 17.1376C23.4905 17.1624 24.4102 17.6611 23.9308 17.8365C23.8358 17.9974 23.8317 18.3867 23.69 18.4844C23.095 18.8978 23.6556 19.6538 23.6439 20.255C23.6432 20.2914 23.7932 20.9931 23.5442 20.9085C23.5222 20.9655 23.2546 21.0742 23.1989 21.0729C23.1782 21.198 23.1074 21.4072 23.0888 21.5606C23.0496 21.8955 23.1879 22.3475 23.2023 22.6955C23.2181 23.1014 23.106 23.7665 23.2773 24.1332C23.4052 24.4069 23.7842 24.9373 24.0264 24.3815C24.2369 23.8993 23.6529 23.6984 23.7134 23.3875C23.7994 22.9555 23.5373 22.5222 23.6542 22.0799C23.7615 21.6692 24.0387 21.7105 24.2224 21.4237C24.5148 21.6974 24.7239 21.7504 25.1318 21.7697C25.5699 21.791 25.1476 21.3865 25.0747 21.2063C25.4888 20.8149 26.0755 22.4018 26.0741 22.6322C26.0707 23.1014 26.0391 23.4164 26.1113 23.8965C26.1553 24.1909 25.9868 24.6552 26.0336 24.8802L19.1288 24.8809V27.168H2.64758V28.283H3.66769V31.0936H1.66532V39.0309H2.81474V67.3124H0V69.2425H72V67.3124H68.84V67.3138ZM48.0644 16.1581C48.4132 16.3782 48.0789 16.3294 48.0906 16.4614C48.0892 16.4367 48.1628 16.8851 48.1511 16.8322C48.2034 17.064 48.451 17.031 48.1876 17.1761C48.116 17.2497 48.0486 17.2573 47.9867 17.1981C47.9358 16.9278 47.9076 16.3974 48.0644 16.1581ZM24.014 17.1981C23.9521 17.2573 23.8847 17.2497 23.8131 17.1761C23.549 17.031 23.7973 17.064 23.8489 16.8322C23.8372 16.8858 23.9115 16.4367 23.9094 16.4614C23.9211 16.3287 23.5882 16.3775 23.9369 16.1581C24.0931 16.3974 24.0649 16.9278 24.014 17.1981ZM9.16509 67.3131V39.6163H13.4133L13.4175 67.3131H9.16509ZM24.2314 67.3131H19.9817V39.6163H24.2314V67.3131ZM34.6091 7.30665C34.5087 7.12024 34.5087 7.02738 34.6091 6.84097C34.8905 6.88843 35.0542 6.89531 35.2977 6.86367C35.3293 6.62016 35.3225 6.45645 35.2757 6.1758C35.4621 6.07538 35.555 6.07538 35.7414 6.1758C35.6939 6.45645 35.687 6.62085 35.7187 6.86367C35.9622 6.89531 36.1259 6.88843 36.4072 6.84097C36.5083 7.02738 36.5083 7.12024 36.4072 7.30665C36.1259 7.25988 35.9629 7.253 35.7187 7.28464C35.687 7.52814 35.6939 7.69185 35.7414 7.9725C35.555 8.07293 35.4614 8.07293 35.2757 7.9725C35.3225 7.69185 35.3293 7.52746 35.2977 7.28464C35.0542 7.253 34.8905 7.25919 34.6091 7.30665ZM34.887 13.1886C34.9744 13.0118 35.0549 12.716 35.2867 12.7724C35.4985 12.8226 35.3458 13.1115 35.4043 13.2876C35.3589 13.4479 35.5041 13.6604 35.3231 13.7698C35.1828 13.8551 35.0219 13.7547 34.8843 13.6749C34.6085 13.5146 34.8148 13.3323 34.887 13.1886ZM39.9394 67.3131H30.7998V39.6163H39.9387L39.9394 67.3131ZM51.3964 67.3131H46.5009V39.6163H51.3964V67.3131ZM62.4703 67.3131H57.9642V39.6163H62.4703V67.3131Z" fill="#32C8CD"/>
</svg>
