<svg width="48" height="48" viewBox="0 0 48 48" fill="none" xmlns="http://www.w3.org/2000/svg">
<path d="M37.4165 13.4583C38.179 13.4583 38.9103 13.1554 39.4494 12.6163C39.9886 12.0771 40.2915 11.3458 40.2915 10.5833V3.875C40.2915 3.1125 39.9886 2.38124 39.4494 1.84207C38.9103 1.3029 38.179 1 37.4165 1C36.654 1 35.9227 1.3029 35.3836 1.84207C34.8444 2.38124 34.5415 3.1125 34.5415 3.875V10.5833C34.5415 11.3458 34.8444 12.0771 35.3836 12.6163C35.9227 13.1554 36.654 13.4583 37.4165 13.4583Z" fill="#F3B781"/>
<path d="M10.5835 13.4583C11.346 13.4583 12.0773 13.1554 12.6164 12.6163C13.1556 12.0771 13.4585 11.3458 13.4585 10.5833V3.875C13.4585 3.1125 13.1556 2.38124 12.6164 1.84207C12.0773 1.3029 11.346 1 10.5835 1C9.821 1 9.08973 1.3029 8.55056 1.84207C8.0114 2.38124 7.7085 3.1125 7.7085 3.875V10.5833C7.7085 11.3458 8.0114 12.0771 8.55056 12.6163C9.08973 13.1554 9.821 13.4583 10.5835 13.4583Z" fill="#F3B781"/>
<path d="M1 46.0414C1 46.2955 1.10097 46.5393 1.28069 46.719C1.46041 46.8987 1.70417 46.9997 1.95833 46.9997H46.0417C46.2958 46.9997 46.5396 46.8987 46.7193 46.719C46.899 46.5393 47 46.2955 47 46.0414V20.4922H1V46.0414ZM14.3304 30.1809C14.386 30.0106 14.4881 29.8593 14.6253 29.7441C14.7626 29.6289 14.9293 29.5545 15.1067 29.5293L20.7608 28.7051L23.2908 23.578C23.3699 23.4167 23.4926 23.2809 23.6451 23.186C23.7976 23.0911 23.9737 23.041 24.1533 23.0414C24.3329 23.041 24.509 23.0911 24.6615 23.186C24.814 23.2809 24.9368 23.4167 25.0158 23.578L27.5458 28.7051L33.2096 29.5197C33.3869 29.5449 33.5537 29.6193 33.6909 29.7345C33.8281 29.8497 33.9303 30.001 33.9858 30.1714C34.0355 30.3386 34.0385 30.5163 33.9946 30.6852C33.9507 30.8541 33.8615 31.0078 33.7367 31.1297L29.6446 35.1259L30.6029 40.761C30.6382 40.9397 30.6217 41.1248 30.5555 41.2945C30.4893 41.4642 30.3761 41.6116 30.2292 41.7193C30.0842 41.8263 29.912 41.8902 29.7323 41.9038C29.5526 41.9173 29.3727 41.88 29.2133 41.796L24.1629 39.1414L19.1029 41.8055C18.9435 41.8896 18.7636 41.9269 18.584 41.9134C18.4043 41.8998 18.2321 41.8359 18.0871 41.7289C17.9384 41.6224 17.8233 41.4755 17.7554 41.3057C17.6875 41.1359 17.6695 40.9502 17.7038 40.7705L18.6621 35.1259L14.5604 31.1393C14.4389 31.0153 14.3533 30.8607 14.3128 30.6919C14.2723 30.5232 14.2784 30.3465 14.3304 30.1809Z" fill="#00BCBC"/>
<path d="M46.0417 7.70801H42.2083V10.583C42.2083 11.8538 41.7035 13.0726 40.8049 13.9712C39.9063 14.8698 38.6875 15.3747 37.4167 15.3747C36.1458 15.3747 34.9271 14.8698 34.0284 13.9712C33.1298 13.0726 32.625 11.8538 32.625 10.583V7.70801H15.375V10.583C15.375 11.8538 14.8702 13.0726 13.9716 13.9712C13.0729 14.8698 11.8542 15.3747 10.5833 15.3747C9.3125 15.3747 8.09373 14.8698 7.19511 13.9712C6.2965 13.0726 5.79167 11.8538 5.79167 10.583V7.70801H1.95833C1.70417 7.70801 1.46041 7.80897 1.28069 7.9887C1.10097 8.16842 1 8.41218 1 8.66634L1 18.5755H47V8.66634C47 8.41218 46.899 8.16842 46.7193 7.9887C46.5396 7.80897 46.2958 7.70801 46.0417 7.70801Z" fill="#FF7673"/>
</svg>
