<svg width="32" height="32" viewBox="0 0 32 32" fill="none" xmlns="http://www.w3.org/2000/svg">
<path d="M27.5884 16.9938H19.4078V15.6651H12.5946V16.9912H4.41406V10.3711C4.41406 8.90854 5.63458 7.72408 7.1409 7.72408H11.2299V6.39542C11.2299 5.2985 12.144 4.41016 13.2744 4.41016H18.728C19.8584 4.41016 20.7725 5.2985 20.7725 6.39542V7.7215H24.8615C26.3678 7.7215 27.5884 8.90597 27.5884 10.3685V16.9912V16.9938ZM27.5884 18.3173V24.9374C27.5884 26.4026 26.3678 27.587 24.8615 27.587H7.14348C5.63458 27.587 4.41406 26.4026 4.41406 24.9374V18.3199H12.5946V19.6408H19.4078V18.3173H27.5884ZM19.4078 7.72408V6.39542C19.4044 6.21853 19.3314 6.0501 19.2047 5.92669C19.0779 5.80329 18.9075 5.73485 18.7306 5.73624H13.2744C13.0966 5.73418 12.9252 5.80266 12.7978 5.92669C12.6704 6.05073 12.5973 6.2202 12.5946 6.39799V7.72408H19.4078Z" fill="#FBCB67"/>
</svg>
