<svg width="64" height="64" viewBox="0 0 64 64" fill="none" xmlns="http://www.w3.org/2000/svg">
<circle opacity="0.15" cx="18.5" cy="15.5" r="9.5" fill="#32C8CD"/>
<path d="M33.5405 13.0835C21.6784 13.0835 13.083 22.761 13.083 33.5002C13.083 36.9302 14.0834 40.4622 15.8393 43.6881C16.1659 44.2189 16.2068 44.8927 15.9822 45.5256L14.6143 50.0989C14.308 51.2014 15.2472 52.0181 16.2884 51.6914L20.4126 50.4664C21.5355 50.0989 22.4134 50.5685 23.4567 51.2014C26.4375 52.9572 30.1513 53.8556 33.4997 53.8556C43.6263 53.8556 53.9163 46.036 53.9163 33.4389C53.9163 22.5772 45.1372 13.0835 33.5405 13.0835Z" fill="#32C8CD"/>
<path fill-rule="evenodd" clip-rule="evenodd" d="M33.4599 36.1342C32.0103 36.1137 30.8466 34.95 30.8466 33.5004C30.8466 32.0712 32.0307 30.8871 33.4599 30.9075C34.9095 30.9075 36.0732 32.0712 36.0732 33.5208C36.0732 34.95 34.9095 36.1342 33.4599 36.1342ZM24.0469 36.1341C22.6178 36.1341 21.4336 34.95 21.4336 33.5208C21.4336 32.0712 22.5973 30.9075 24.0469 30.9075C25.4965 30.9075 26.6603 32.0712 26.6603 33.5208C26.6603 34.95 25.4965 36.1137 24.0469 36.1341ZM40.2582 33.5208C40.2582 34.95 41.4219 36.1341 42.8715 36.1341C44.3211 36.1341 45.4848 34.95 45.4848 33.5208C45.4848 32.0712 44.3211 30.9075 42.8715 30.9075C41.4219 30.9075 40.2582 32.0712 40.2582 33.5208Z" fill="white"/>
</svg>
