<svg width="53" height="52" viewBox="0 0 53 52" fill="none" xmlns="http://www.w3.org/2000/svg">
<path d="M26.0911 0C10.9624 0 0 12.3425 0 26.0391C0 30.4136 1.27591 34.9184 3.51527 39.0326C3.9319 39.7096 3.98398 40.5689 3.69755 41.3761L1.95293 47.2088C1.56234 48.6149 2.76014 49.6565 4.08813 49.2399L9.34802 47.6775C10.7802 47.2088 11.8999 47.8077 13.2304 48.6149C17.0322 50.8543 21.7687 52 26.0391 52C38.9544 52 52.0781 42.027 52.0781 25.9609C52.0781 12.1082 40.8813 0 26.0911 0Z" fill="#32C8CD"/>
<path fill-rule="evenodd" clip-rule="evenodd" d="M34.6591 26.0644C34.6591 27.8872 36.1433 29.3974 37.9921 29.3974C39.8409 29.3974 41.3251 27.8872 41.3251 26.0644C41.3251 24.2157 39.8409 22.7314 37.9921 22.7314C36.1433 22.7314 34.6591 24.2157 34.6591 26.0644ZM25.9905 29.3978C24.1417 29.3717 22.6575 27.8875 22.6575 26.0387C22.6575 24.216 24.1678 22.7057 25.9905 22.7318C27.8393 22.7318 29.3235 24.216 29.3235 26.0648C29.3235 27.8875 27.8393 29.3978 25.9905 29.3978ZM13.9844 29.3977C12.1616 29.3977 10.6514 27.8875 10.6514 26.0647C10.6514 24.216 12.1356 22.7317 13.9844 22.7317C15.8331 22.7317 17.3174 24.216 17.3174 26.0647C17.3174 27.8875 15.8331 29.3717 13.9844 29.3977Z" fill="white"/>
</svg>
