<svg width="64" height="64" viewBox="0 0 64 64" fill="none" xmlns="http://www.w3.org/2000/svg">
<circle opacity="0.15" cx="10.5" cy="12.5" r="9.5" fill="#FF7673"/>
<path fill-rule="evenodd" clip-rule="evenodd" d="M44.7222 24.2393C44.7222 30.0156 40.1173 34.6472 34.3744 34.6472C28.6315 34.6472 24.0265 30.0156 24.0265 24.2393C24.0265 18.4607 28.6315 13.8335 34.3744 13.8335C40.1173 13.8335 44.7222 18.4607 44.7222 24.2393ZM34.3743 53.1668C25.9394 53.1668 18.737 51.8296 18.737 46.4806C18.737 41.1293 25.8931 39.7434 34.3743 39.7434C42.8093 39.7434 50.0117 41.0806 50.0117 46.4319C50.0117 51.7809 42.8556 53.1668 34.3743 53.1668ZM49.1442 24.427C49.1442 27.3716 48.2659 30.1148 46.7251 32.3952C46.5666 32.6299 46.7075 32.9465 46.987 32.9952C47.3722 33.0616 47.7706 33.0992 48.1757 33.1103C52.2149 33.2166 55.8402 30.6018 56.8418 26.6654C58.3254 20.8182 53.9692 15.5688 48.4222 15.5688C47.8191 15.5688 47.2424 15.633 46.6811 15.7482C46.604 15.7659 46.5226 15.8013 46.4785 15.8699C46.4257 15.9541 46.4653 16.067 46.5182 16.14C48.1845 18.4891 49.1442 21.354 49.1442 24.427ZM55.8336 37.2186C58.5477 37.7521 60.3329 38.8414 61.0725 40.4244C61.6976 41.724 61.6976 43.2318 61.0725 44.5292C59.9411 46.9845 56.2937 47.7727 54.8761 47.9763C54.5834 48.0206 54.3478 47.766 54.3787 47.4716C55.1028 40.668 49.3423 37.4422 47.8521 36.7005C47.7883 36.6673 47.7751 36.6164 47.7817 36.5854C47.7861 36.5632 47.8125 36.5278 47.8609 36.5212C51.0857 36.4614 54.5525 36.9042 55.8336 37.2186ZM20.8243 33.1101C21.2293 33.099 21.6255 33.0636 22.0129 32.9949C22.2925 32.9462 22.4333 32.6296 22.2749 32.3949C20.734 30.1145 19.8557 27.3714 19.8557 24.4268C19.8557 21.3538 20.8155 18.4889 22.4818 16.1398C22.5346 16.0668 22.572 15.9538 22.5214 15.8697C22.4774 15.8033 22.3937 15.7657 22.3189 15.7479C21.7554 15.6328 21.1787 15.5686 20.5755 15.5686C15.0285 15.5686 10.6723 20.818 12.1581 26.6651C13.1597 30.6016 16.7851 33.2163 20.8243 33.1101ZM21.2171 36.584C21.2238 36.6173 21.2105 36.666 21.1489 36.7014C19.6565 37.4431 13.896 40.6689 14.6202 47.4702C14.651 47.7669 14.4176 48.0193 14.1249 47.9772C12.7073 47.7736 9.05993 46.9854 7.92851 44.5301C7.30117 43.2304 7.30117 41.7249 7.92851 40.4253C8.66812 38.8423 10.4511 37.753 13.1652 37.2172C14.4485 36.9051 17.9131 36.4623 21.1401 36.5221C21.1885 36.5287 21.2127 36.5641 21.2171 36.584Z" fill="#FF7673"/>
</svg>
