<svg width="40" height="40" viewBox="0 0 40 40" fill="none" xmlns="http://www.w3.org/2000/svg">
<path d="M33.5996 3.5H6.40039C4.80105 3.5 3.5 4.80105 3.5 6.40039V11.2988H36.5V6.40039C36.5 4.80105 35.1989 3.5 33.5996 3.5ZM8.33398 9.30078C7.80005 9.30078 7.36719 8.86791 7.36719 8.33398C7.36719 7.79993 7.80005 7.36719 8.33398 7.36719C8.86791 7.36719 9.30078 7.79993 9.30078 8.33398C9.30078 8.86791 8.86791 9.30078 8.33398 9.30078ZM12.2012 9.30078C11.6672 9.30078 11.2344 8.86791 11.2344 8.33398C11.2344 7.79993 11.6672 7.36719 12.2012 7.36719C12.7351 7.36719 13.168 7.79993 13.168 8.33398C13.168 8.86791 12.7351 9.30078 12.2012 9.30078ZM16.0684 9.30078C15.5344 9.30078 15.1016 8.86791 15.1016 8.33398C15.1016 7.79993 15.5344 7.36719 16.0684 7.36719C16.6023 7.36719 17.0352 7.79993 17.0352 8.33398C17.0352 8.86791 16.6023 9.30078 16.0684 9.30078Z" fill="#009191"/>
<path d="M3.5 13.2324V33.5996C3.5 35.1989 4.80105 36.5 6.40039 36.5H33.5996C35.1989 36.5 36.5 35.1989 36.5 33.5996V13.2324H3.5ZM7.36719 16.1973C7.36719 15.6629 7.7996 15.2305 8.33398 15.2305H18.002C18.5363 15.2305 18.9688 15.6629 18.9688 16.1973V23.9316C18.9688 24.466 18.5363 24.8984 18.002 24.8984H8.33398C7.7996 24.8984 7.36719 24.466 7.36719 23.9316V16.1973ZM31.666 32.6328H8.33398C7.7996 32.6328 7.36719 32.2004 7.36719 31.666C7.36719 31.1316 7.7996 30.6992 8.33398 30.6992H31.666C32.2004 30.6992 32.6328 31.1316 32.6328 31.666C32.6328 32.2004 32.2004 32.6328 31.666 32.6328ZM31.666 28.7656H8.33398C7.7996 28.7656 7.36719 28.3332 7.36719 27.7988C7.36719 27.2644 7.7996 26.832 8.33398 26.832H31.666C32.2004 26.832 32.6328 27.2644 32.6328 27.7988C32.6328 28.3332 32.2004 28.7656 31.666 28.7656ZM31.666 24.8984H21.8691C21.3348 24.8984 20.9023 24.466 20.9023 23.9316C20.9023 23.3973 21.3348 22.9648 21.8691 22.9648H31.666C32.2004 22.9648 32.6328 23.3973 32.6328 23.9316C32.6328 24.466 32.2004 24.8984 31.666 24.8984ZM31.666 21.0312H21.8691C21.3348 21.0312 20.9023 20.5988 20.9023 20.0645C20.9023 19.5301 21.3348 19.0977 21.8691 19.0977H31.666C32.2004 19.0977 32.6328 19.5301 32.6328 20.0645C32.6328 20.5988 32.2004 21.0312 31.666 21.0312Z" fill="#009191"/>
<path d="M17.0352 17.1641H9.30078V22.9648H17.0352V17.1641Z" fill="#009191"/>
</svg>
