<svg width="40" height="40" viewBox="0 0 40 40" fill="none" xmlns="http://www.w3.org/2000/svg">
<path d="M38.2927 19.4884L28.8497 10.0454C28.5561 9.75179 28.0365 9.75179 27.7429 10.0454L25.6956 12.0927C25.3899 12.3984 25.3899 12.8941 25.6956 13.1999L32.5382 20.0417L25.696 26.8846C25.3903 27.1904 25.3903 27.686 25.696 27.9918L27.7433 30.0391C27.8901 30.1859 28.0894 30.2689 28.2969 30.2689C28.504 30.2689 28.7037 30.1859 28.8505 30.0391L38.2927 20.5964C38.5985 20.2903 38.5985 19.7942 38.2927 19.4884Z" fill="#009191"/>
<path d="M14.306 26.8842L7.46462 20.0421L14.3072 13.2003C14.454 13.0535 14.5366 12.8546 14.5366 12.6467C14.5366 12.4392 14.4544 12.2399 14.3072 12.0931L12.2599 10.0458C12.1131 9.89902 11.9138 9.81641 11.7063 9.81641C11.4988 9.81641 11.2995 9.89902 11.1527 10.0458L1.70931 19.4881C1.40354 19.7938 1.40354 20.2895 1.70931 20.5957L11.1523 30.0383C11.2991 30.1851 11.4984 30.2681 11.7059 30.2681C11.9134 30.2681 12.1127 30.1851 12.2595 30.0383L14.3068 27.9911C14.6126 27.6857 14.6126 27.19 14.306 26.8842Z" fill="#009191"/>
<path d="M25.3714 6.86857C25.2719 6.68612 25.1044 6.55065 24.9055 6.49192L23.2458 6.00214C22.8316 5.8792 22.3955 6.11685 22.2733 6.53147L14.5686 32.6234C14.5099 32.8227 14.5326 33.0368 14.6317 33.2189C14.7307 33.4017 14.8987 33.5368 15.0976 33.5959L16.7572 34.0857C16.8312 34.1076 16.906 34.1182 16.9792 34.1182C17.3171 34.1182 17.6291 33.8974 17.7297 33.5564L25.4344 7.46406C25.4931 7.26478 25.4708 7.05062 25.3714 6.86857Z" fill="#009191"/>
</svg>
