<svg width="40" height="40" viewBox="0 0 40 40" fill="none" xmlns="http://www.w3.org/2000/svg">
<path d="M36.5281 2.19259C35.8087 1.78747 34.8974 2.04235 34.4926 2.76141L32.7598 5.83813C33.7807 6.87222 34.2297 8.34438 33.9809 9.7597L37.0966 4.22808C37.5017 3.50903 37.2468 2.59771 36.5281 2.19259Z" fill="#009191"/>
<path d="M30.9035 19.7801L26.796 19.6419L27.2412 16.4545L27.3689 18.6938L28.7439 18.7399L29.789 16.9733C30.3451 16.0329 30.1553 14.8587 29.3973 14.1358L30.5835 13.3363C30.2561 13.4124 29.9183 13.4525 29.5758 13.4525C28.6068 13.4525 27.6403 13.1339 26.8372 12.5112C26.3272 13.1385 11.8626 30.9254 11.1339 31.8216C10.5373 32.5552 9.55131 32.8359 8.6562 32.5242L6.23152 35.0161C5.55421 35.7121 5.56959 36.825 6.26558 37.5021C6.96129 38.1788 8.0742 38.1643 8.75151 37.468L15.8078 30.2157C15.888 30.1336 15.9599 30.0435 16.0223 29.9473C19.6793 24.3147 19.4429 24.6838 19.4884 24.6066L20.4866 25.1969L21.3322 30.4758L16.8792 34.1719C16.1321 34.7918 16.0291 35.9003 16.6493 36.6473C17.2711 37.3969 18.3799 37.4955 19.1248 36.8772L24.3496 32.5407C24.8281 32.1438 25.0613 31.5236 24.9627 30.9097L24.2343 26.3639L25.8874 23.5692C25.7589 23.5648 24.6811 23.5286 24.56 23.5245C23.1524 23.4772 22.1881 22.0869 22.6489 20.7392L24.1505 16.9799L23.6067 20.8729C23.4842 21.7504 24.1488 22.5431 25.0363 22.573L30.803 22.7672C30.82 22.7678 30.8371 22.7681 30.8541 22.7681C31.6561 22.7681 32.3197 22.1317 32.3468 21.3242C32.3743 20.4991 31.7283 19.8078 30.9035 19.7801Z" fill="#009191"/>
<path d="M10.3092 31.1508L25.8897 11.9914L24.8175 11.3573C24.0803 10.9211 23.1577 10.9299 22.4268 11.388L3.26393 23.4005C2.63881 23.7924 2.5218 24.6554 3.02031 25.1995L8.52144 31.2035C9.0084 31.735 9.85408 31.7102 10.3092 31.1508Z" fill="#009191"/>
<path d="M31.3145 6.04657C29.6839 5.08197 27.5976 5.63513 26.6453 7.2449C25.6868 8.86539 26.2235 10.9558 27.8437 11.9141C29.4743 12.8787 31.5606 12.3255 32.5129 10.7158C33.4712 9.09527 32.9347 7.00485 31.3145 6.04657Z" fill="#009191"/>
</svg>
