<svg width="40" height="40" viewBox="0 0 40 40" fill="none" xmlns="http://www.w3.org/2000/svg">
<path d="M32.653 20.0001C32.9086 19.6984 33.1518 19.3958 33.3799 19.0933C35.6825 16.0395 36.3135 13.2541 35.1564 11.2501C33.9994 9.24627 31.2717 8.39978 27.4758 8.86708C26.9727 8.92877 26.4571 9.01341 25.9316 9.11836C25.7901 8.71941 25.6408 8.33249 25.4827 7.95998C23.9892 4.43891 21.8925 2.5 19.5784 2.5C17.2646 2.5 15.1678 4.43891 13.6743 7.95998C13.5355 8.28763 13.403 8.62649 13.277 8.9747C13.0238 8.93357 12.7731 8.89726 12.5258 8.86682C8.72999 8.39978 6.00226 9.246 4.84522 11.2501C3.68844 13.2539 4.31917 16.0393 6.62178 19.093C6.84982 19.3958 7.09309 19.6981 7.34863 19.9999C7.09309 20.3019 6.84982 20.6042 6.62178 20.907C4.31917 23.9607 3.68844 26.7461 4.84522 28.7499C5.79425 30.3938 7.79992 31.2587 10.5856 31.2587C11.1957 31.2587 11.8438 31.217 12.5258 31.1332C12.7734 31.1027 13.0238 31.0664 13.277 31.0253C13.403 31.3735 13.5355 31.7124 13.6743 32.04C15.1678 35.5611 17.2646 37.5 19.5784 37.5C21.8925 37.5 23.9892 35.5611 25.4827 32.04C25.6408 31.6675 25.7901 31.2806 25.9316 30.8816C26.4571 30.9866 26.9727 31.0712 27.4758 31.1332C28.1581 31.217 28.8056 31.2587 29.4161 31.2587C32.2012 31.2587 34.2074 30.3935 35.1564 28.7499C36.3132 26.7461 35.6825 23.9607 33.3799 20.9067C33.1518 20.6044 32.9086 20.3019 32.653 20.0001ZM33.3275 12.3059C34.0784 13.6066 33.2998 15.8961 31.2049 18.4391C30.0668 17.3106 28.7554 16.2099 27.3129 15.1722C27.1354 13.7612 26.8798 12.4108 26.5514 11.1491C30.0075 10.4976 32.5459 10.9521 33.3275 12.3059ZM22.9603 25.1263C21.9771 25.694 20.9859 26.2086 19.9998 26.666C19.0336 26.2174 18.0443 25.7052 17.0413 25.1263C15.891 24.4622 14.7975 23.7524 13.7782 23.012C13.701 22.0477 13.6594 21.0424 13.6594 20.0001C13.6594 18.9579 13.701 17.9525 13.7782 16.9883C14.7975 16.2478 15.891 15.538 17.0413 14.8739C18.0443 14.295 19.0336 13.7829 20 13.3342C20.9859 13.7919 21.9771 14.3062 22.9606 14.8739C23.7929 15.3546 24.5807 15.8502 25.323 16.3549C25.4362 17.5093 25.4977 18.7277 25.4977 20.0001C25.4977 21.2725 25.4362 22.491 25.323 23.6454C24.5807 24.1501 23.7929 24.6457 22.9603 25.1263ZM24.9332 26.4089C24.8061 27.0917 24.66 27.7435 24.4976 28.3611C23.8808 28.1852 23.2439 27.9785 22.5902 27.7403C23.0669 27.4901 23.5427 27.2284 24.0162 26.9552C24.3259 26.7763 24.6314 26.5939 24.9332 26.4089ZM17.4114 27.7403C16.4936 28.0751 15.5916 28.3539 14.7158 28.5732C14.4824 27.7165 14.2808 26.7918 14.1179 25.8078C14.7227 26.2027 15.3459 26.5859 15.9852 26.9552C16.4589 27.2284 16.9348 27.4901 17.4114 27.7403ZM11.5669 21.2552C11.0924 20.8415 10.6419 20.4226 10.219 20.0001C10.6419 19.5777 11.0924 19.1587 11.5669 18.7451C11.5541 19.1609 11.5474 19.5793 11.5474 20.0001C11.5474 20.421 11.5541 20.8394 11.5669 21.2552ZM14.1179 14.1925C14.2808 13.2082 14.4824 12.2837 14.7158 11.4268C15.5916 11.6461 16.4936 11.9251 17.4114 12.2597C16.9348 12.5099 16.4589 12.7716 15.9852 13.045C15.3459 13.4143 14.7227 13.7975 14.1179 14.1925ZM22.5902 12.26C23.2439 12.0218 23.8808 11.8151 24.4976 11.6391C24.66 12.2568 24.8061 12.9086 24.9332 13.5914C24.6314 13.4063 24.3259 13.224 24.0162 13.045C23.5427 12.7719 23.0671 12.5102 22.5902 12.26ZM27.5599 18.0113C28.3795 18.673 29.1207 19.34 29.7814 20.0001C29.1207 20.6602 28.3795 21.3273 27.5599 21.989C27.5925 21.3334 27.6093 20.6696 27.6093 20.0001C27.6093 19.3307 27.5925 18.6668 27.5599 18.0113ZM19.5784 4.61168C21.0975 4.61168 22.7107 6.47288 23.8685 9.62385C22.6084 9.98674 21.3101 10.4559 20.0008 11.0215C18.4243 10.3403 16.8635 9.79902 15.3662 9.41476C16.5179 6.39064 18.0932 4.61168 19.5784 4.61168ZM6.67411 12.3059C7.37 11.1005 9.40878 10.6111 12.2679 10.963C12.3915 10.9782 12.5162 10.9953 12.6415 11.0135C12.2417 12.5163 11.9461 14.1482 11.7637 15.8598C10.682 16.6916 9.68622 17.5571 8.79621 18.4396C8.62638 18.2337 8.46322 18.0278 8.30781 17.822C6.57371 15.5218 5.97823 13.5113 6.67411 12.3059ZM12.2679 29.0373C9.40878 29.3892 7.37 28.8997 6.67411 27.6944C5.97823 26.489 6.57371 24.4785 8.30781 22.1783C8.46322 21.9724 8.62638 21.7665 8.79621 21.5607C9.68622 22.4429 10.682 23.3086 11.7637 24.1404C11.9461 25.8521 12.2417 27.4839 12.6415 28.9868C12.5162 29.0049 12.3915 29.022 12.2679 29.0373ZM19.5784 35.3886C18.0932 35.3886 16.5179 33.6096 15.3662 30.5855C16.8635 30.2012 18.4243 29.66 20.0008 28.9788C21.3101 29.5443 22.6084 30.0135 23.8685 30.3764C22.7107 33.5274 21.0975 35.3886 19.5784 35.3886ZM33.3275 27.6944C32.5459 29.0482 30.0075 29.5027 26.5514 28.8511C26.8798 27.5894 27.1354 26.239 27.3129 24.828C28.7554 23.7904 30.0668 22.6897 31.2049 21.5609C33.2998 24.1041 34.0784 26.3936 33.3275 27.6944Z" fill="#009191"/>
<path d="M19.5786 16.1924C17.4792 16.1924 15.771 17.9006 15.771 20C15.771 22.0994 17.4792 23.8076 19.5786 23.8076C21.6783 23.8076 23.3865 22.0994 23.3865 20C23.3865 17.9006 21.6783 16.1924 19.5786 16.1924Z" fill="#009191"/>
</svg>
