<svg width="32" height="32" viewBox="0 0 32 32" fill="none" xmlns="http://www.w3.org/2000/svg">
<path d="M15.7699 25.5356C13.4393 24.096 11.2728 22.3986 9.30997 20.4744C7.92431 19.1005 6.86607 17.423 6.21611 15.57C5.05478 11.9562 6.40664 7.82617 10.181 6.60007C12.1731 5.97444 14.3398 6.3585 16.0058 7.63258C17.6724 6.35992 19.8383 5.97599 21.8306 6.60007C25.6049 7.82617 26.9659 11.9562 25.8045 15.57C25.1598 17.4213 24.1079 19.0987 22.7288 20.4744C20.7642 22.3965 18.598 24.0937 16.2689 25.5356L16.0149 25.7015L15.7699 25.5356Z" fill="#EB6161"/>
<path d="M22.3589 13.4507C22.1539 13.4375 21.9629 13.335 21.8308 13.1673C21.6986 12.9995 21.637 12.7812 21.6602 12.5635C21.6823 11.8465 21.2744 11.1939 20.6453 10.94C20.2463 10.8311 20.0047 10.3991 20.1045 9.97299C20.1992 9.55377 20.5918 9.2931 20.9863 9.38746C21.0361 9.39572 21.0841 9.41377 21.1277 9.44069C22.3892 9.92613 23.2059 11.2326 23.1409 12.6611C23.1389 12.8776 23.0544 13.084 22.907 13.2328C22.7596 13.3817 22.5618 13.4603 22.3589 13.4507Z" fill="white"/>
</svg>
