<svg width="40" height="40" viewBox="0 0 40 40" fill="none" xmlns="http://www.w3.org/2000/svg">
<path d="M34.4423 3.5C20.4653 3.5 8.96897 14.2525 7.75074 27.9172C10.0731 24.642 12.918 21.4905 16.4696 17.8674C16.7336 17.5951 17.1709 17.5896 17.4418 17.8578C17.7127 18.1231 17.7168 18.559 17.4514 18.8299C16.9165 19.3744 16.3734 19.9395 15.8275 20.5116C15.5153 20.8374 15.2101 21.162 14.9104 21.4809C14.8554 21.54 14.8004 21.5992 14.7454 21.6597C10.3564 26.3594 7.21862 30.45 4.9402 35.5306C4.7848 35.8771 4.9402 36.2841 5.28535 36.4395C5.37745 36.4807 5.47233 36.5 5.5672 36.5C5.82985 36.5 6.08147 36.3487 6.19555 36.0944C7.00683 34.2863 7.94868 32.6088 9.00745 30.9766C18.6105 30.7305 27.3513 25.3886 31.9328 16.8884C32.047 16.6753 32.0414 16.4181 31.9177 16.2091C31.7926 16.0029 31.5684 15.875 31.3265 15.875H28.78L33.3464 13.2652C33.4907 13.1827 33.6021 13.0494 33.6557 12.8926C34.6347 10.0464 35.1297 7.11762 35.1297 4.18752C35.1297 3.80802 34.8218 3.5 34.4423 3.5Z" fill="#009191"/>
</svg>
