<svg width="40" height="40" viewBox="0 0 40 40" fill="none" xmlns="http://www.w3.org/2000/svg">
<path d="M23.11 32.9772V6.86178C23.11 3.90553 20.7044 1.5 17.7481 1.5C14.7918 1.5 12.3863 3.90553 12.3863 6.86178C12.3863 8.2938 12.9445 9.64027 13.9571 10.6528C14.9696 11.6654 16.3161 12.2236 17.7481 12.2236C17.9774 12.2236 18.1634 12.4096 18.1634 12.6389C18.1634 12.8681 17.9774 13.0542 17.7481 13.0542C16.0944 13.0542 14.5385 12.4096 13.369 11.2401C12.3963 10.2666 11.7883 9.02559 11.6113 7.68328C10.2449 7.12011 8.70658 7.1417 7.3543 7.75388C4.66137 8.97492 3.46276 12.1579 4.68296 14.8509C4.83497 15.1873 5.02103 15.5062 5.23534 15.7986C6.72218 17.842 9.47335 18.5663 11.7784 17.523C11.9869 17.4283 12.2335 17.5214 12.3273 17.7307C12.4221 17.9392 12.3298 18.1851 12.1205 18.2797C11.3032 18.6502 10.4376 18.8271 9.58041 18.8271C7.77294 18.8271 6.00451 18.0389 4.8093 16.6035C4.02435 17.1642 3.40885 17.9234 3.01928 18.818C2.44688 20.1312 2.42039 21.5882 2.94452 22.9214C3.44797 24.2014 4.40229 25.2189 5.64078 25.8045C5.66819 25.7331 5.6956 25.6616 5.72558 25.5927C6.38677 24.0759 7.59784 22.9081 9.13694 22.3025C10.6761 21.6979 12.359 21.7286 13.8758 22.3889C14.0859 22.4811 14.1822 22.7253 14.09 22.9355C13.9987 23.1465 13.7536 23.242 13.5436 23.1506C12.2311 22.5783 10.7741 22.5526 9.44095 23.0759C8.10777 23.6001 7.05951 24.6109 6.4872 25.9242C6.40912 26.1045 6.33934 26.2929 6.27954 26.4831C5.46875 29.0939 6.75051 31.8881 9.26145 32.9821C9.98917 33.2985 10.7774 33.4489 11.5632 33.4256C11.559 33.3302 11.5557 33.2346 11.5557 33.1382C11.5557 29.7243 14.3333 26.9458 17.7481 26.9458C17.9774 26.9458 18.1634 27.1319 18.1634 27.3611C18.1634 27.5912 17.9774 27.7764 17.7481 27.7764C14.7918 27.7764 12.3863 30.182 12.3863 33.1382C12.3863 36.0945 14.7918 38.5 17.7481 38.5C20.7044 38.5 23.11 36.0945 23.11 33.1382C23.11 33.11 23.1124 33.0826 23.1174 33.056C23.1133 33.0302 23.11 33.0045 23.11 32.9772ZM22.1888 28.8015H21.1039C20.8746 28.8015 20.6886 28.6154 20.6886 28.3861C20.6886 28.1569 20.8746 27.9708 21.1039 27.9708H22.1888C22.418 27.9708 22.6041 28.1569 22.6041 28.3861C22.6041 28.6154 22.418 28.8015 22.1888 28.8015ZM22.1888 24.8543H19.73C19.5007 24.8543 19.3147 24.6682 19.3147 24.4389C19.3147 24.2096 19.5007 24.0236 19.73 24.0236H22.1888C22.418 24.0236 22.6041 24.2096 22.6041 24.4389C22.6041 24.6682 22.418 24.8543 22.1888 24.8543ZM22.1888 20.4145H18.0114C17.7821 20.4145 17.5961 20.2284 17.5961 19.9992C17.5961 19.7699 17.7821 19.5839 18.0114 19.5839H22.1888C22.418 19.5839 22.6041 19.7699 22.6041 19.9992C22.6041 20.2284 22.418 20.4145 22.1888 20.4145ZM22.1888 15.9764H19.73C19.5007 15.9764 19.3147 15.7903 19.3147 15.5611C19.3147 15.3318 19.5007 15.1457 19.73 15.1457H22.1888C22.418 15.1457 22.6041 15.3318 22.6041 15.5611C22.6041 15.7903 22.418 15.9764 22.1888 15.9764ZM22.1888 12.0284H21.1039C20.8746 12.0284 20.6886 11.8423 20.6886 11.613C20.6886 11.3838 20.8746 11.1977 21.1039 11.1977H22.1888C22.418 11.1977 22.6041 11.3838 22.6041 11.613C22.6041 11.8423 22.418 12.0284 22.1888 12.0284Z" fill="#009191"/>
<path d="M29.1148 18.249C28.2933 18.249 27.6039 18.8188 27.4162 19.5839H24.8611C24.6319 19.5839 24.4458 19.7699 24.4458 19.9992C24.4458 20.2284 24.6319 20.4145 24.8611 20.4145H27.4162C27.6031 21.1803 28.2925 21.7502 29.1148 21.7502C30.08 21.7502 30.8658 20.9652 30.8658 20C30.8658 19.0348 30.08 18.249 29.1148 18.249Z" fill="#009191"/>
<path d="M35.6828 30.7069C34.8604 30.7069 34.171 31.2766 33.9841 32.0417H30.5569L26.608 28.092C26.5996 28.0845 26.5906 28.0787 26.5822 28.0712C26.5706 28.0612 26.559 28.0504 26.5448 28.0413C26.5316 28.0323 26.5175 28.0256 26.5025 28.0181C26.4934 28.0131 26.4842 28.0073 26.4734 28.0031C26.4576 27.9956 26.4409 27.9923 26.4244 27.9874C26.4144 27.9849 26.4053 27.9808 26.3961 27.979C26.3687 27.9733 26.3413 27.9707 26.3139 27.9707H24.8611C24.6319 27.9707 24.4458 28.1568 24.4458 28.386C24.4458 28.6153 24.6319 28.8013 24.8611 28.8013H26.142L30.0917 32.751C30.1091 32.7685 30.129 32.7835 30.149 32.7976C30.1506 32.7985 30.1523 32.8 30.154 32.8018C30.1723 32.8142 30.1913 32.8242 30.2113 32.8333C30.2163 32.835 30.2203 32.8383 30.2254 32.84C30.247 32.8491 30.2694 32.8557 30.2927 32.8608C30.296 32.8616 30.2993 32.8633 30.3026 32.8641C30.33 32.8699 30.3575 32.8724 30.3857 32.8724H33.9833C34.171 33.6374 34.8604 34.2081 35.6828 34.2081C36.648 34.2081 37.4328 33.4231 37.4328 32.4571C37.4329 31.4918 36.648 30.7069 35.6828 30.7069Z" fill="#009191"/>
<path d="M33.2095 24.5865C32.3872 24.5865 31.6978 25.1572 31.51 25.9222H30.6577L28.8792 24.1447C28.8783 24.1438 28.8767 24.143 28.8759 24.1414C28.8576 24.1239 28.8377 24.1073 28.816 24.0932C28.8052 24.0857 28.7928 24.0808 28.7811 24.0741C28.7695 24.0675 28.758 24.0608 28.7454 24.0551C28.7296 24.0493 28.713 24.0451 28.6964 24.04C28.6873 24.0376 28.6773 24.0334 28.6673 24.0317C28.6399 24.0259 28.6125 24.0234 28.5842 24.0234H24.8621C24.6328 24.0234 24.4468 24.2094 24.4468 24.4388C24.4469 24.668 24.633 24.8541 24.8623 24.8541H28.4141L30.1892 26.6291C30.2099 26.6498 30.2324 26.6682 30.2565 26.6839C30.2582 26.6856 30.2598 26.6856 30.2615 26.6872C30.2823 26.7005 30.3047 26.7121 30.328 26.7221C30.3313 26.7238 30.3354 26.7238 30.3387 26.7254C30.3845 26.7429 30.4335 26.7528 30.485 26.7528H31.5109C31.6978 27.5179 32.3872 28.0877 33.2095 28.0877C34.1747 28.0877 34.9596 27.3027 34.9596 26.3375C34.9596 25.3723 34.1747 24.5865 33.2095 24.5865Z" fill="#009191"/>
<path d="M33.2082 11.9111C32.3859 11.9111 31.6965 12.4818 31.5096 13.2468H30.4837C30.4713 13.2468 30.4596 13.2493 30.4472 13.2501C30.4322 13.2518 30.4181 13.2518 30.4031 13.2551C30.3865 13.2584 30.3708 13.2642 30.355 13.2692C30.345 13.2726 30.3351 13.2742 30.3259 13.2784C30.3085 13.2858 30.2918 13.295 30.2752 13.3049C30.2686 13.3091 30.2611 13.3116 30.2545 13.3166C30.2304 13.3315 30.2088 13.3498 30.1898 13.3697L28.4129 15.1456H24.8611C24.6319 15.1456 24.4458 15.3317 24.4458 15.561C24.4458 15.7902 24.6319 15.9763 24.8611 15.9763H28.5849C28.6123 15.9763 28.6397 15.9738 28.6671 15.968C28.6754 15.9663 28.6828 15.963 28.6912 15.9613C28.7086 15.9563 28.7269 15.9514 28.7444 15.9447C28.7552 15.9397 28.766 15.9331 28.7759 15.9273C28.7892 15.9206 28.8033 15.9148 28.8158 15.9065C28.8356 15.8924 28.8548 15.8766 28.8723 15.86C28.8739 15.8583 28.8764 15.8567 28.8781 15.855L30.6556 14.0774H31.5087C31.6964 14.8425 32.3859 15.4131 33.2082 15.4131C34.1734 15.4131 34.9583 14.6273 34.9583 13.6621C34.9583 12.6969 34.1734 11.9111 33.2082 11.9111Z" fill="#009191"/>
<path d="M35.6828 5.79199C34.8604 5.79199 34.171 6.36264 33.9833 7.12766H30.3865C30.3592 7.12766 30.3309 7.13015 30.3035 7.13597C30.2977 7.1368 30.2918 7.13929 30.286 7.14095C30.2662 7.14593 30.2454 7.15175 30.2255 7.16006C30.2188 7.16255 30.2138 7.1667 30.2072 7.16919C30.1888 7.17833 30.1707 7.18664 30.154 7.19826C30.1498 7.20076 30.1465 7.20491 30.1423 7.2074C30.1249 7.21986 30.1074 7.23315 30.0917 7.24893L26.1428 11.1978H24.8611C24.6319 11.1978 24.4458 11.3839 24.4458 11.6131C24.4459 11.8424 24.6319 12.0284 24.8612 12.0284H26.3065C26.3089 12.0284 26.3115 12.0293 26.314 12.0293C26.4202 12.0293 26.5266 11.9886 26.608 11.9072L30.5577 7.9583H33.9841C34.171 8.72332 34.8604 9.29314 35.6828 9.29314C36.648 9.29314 37.4328 8.50818 37.4328 7.54298C37.4328 6.57778 36.648 5.79199 35.6828 5.79199Z" fill="#009191"/>
</svg>
