<svg width="32" height="32" viewBox="0 0 32 32" fill="none" xmlns="http://www.w3.org/2000/svg">
<path d="M13.3615 25.167C10.4978 25.167 8.16699 22.8361 8.16699 19.9725V7.44482H6.02818C4.17403 7.44482 2.66699 8.95164 2.66699 10.8058V27.3058C2.66699 29.1599 4.17403 30.667 6.02818 30.667H21.3058C23.1599 30.667 24.667 29.1599 24.667 27.3058V25.167H13.3615Z" fill="white"/>
<path d="M29.5565 4.69468C29.5565 2.83807 28.0519 1.3335 26.1955 1.3335H13.3622C11.5056 1.3335 10.001 2.83807 10.001 4.69468V19.9723C10.001 21.8289 11.5056 23.3335 13.3622 23.3335H26.1955C28.0519 23.3335 29.5565 21.8289 29.5565 19.9723V4.69468Z" fill="white"/>
</svg>
