<svg width="48" height="48" viewBox="0 0 48 48" fill="none" xmlns="http://www.w3.org/2000/svg">
<path d="M25.9537 19.4833L26.0858 19.4276C28.7598 18.419 30.6786 18.854 32.5129 19.911C34.2463 25.5223 31.1814 31.447 25.7275 33.497C22.9262 34.4875 20.0347 34.2715 17.5479 33.1427C18.7789 27.9201 21.5791 21.425 25.8217 19.5391L25.9537 19.4833Z" fill="#FFCC66"/>
<path d="M29.1022 23.4569C29.8655 22.8835 30.3839 22.3536 30.5266 22.2097C31.6698 21.0332 31.3042 21.4148 32.5129 19.9115C32.8812 21.0965 33.0308 22.3019 32.9895 23.4802C32.8404 27.8633 30.0265 31.887 25.7276 33.4975C22.9263 34.488 20.0347 34.272 17.5479 33.1432C18.7789 27.9206 20.048 27.7801 24.2803 25.8984L27.1745 24.6174C28.163 24.1524 29.1022 23.4569 29.1022 23.4569Z" fill="white" fill-opacity="0.6"/>
<path d="M13.634 30.45C14.0428 28.5542 15.0654 26.4114 17.5083 26.0747C22.1749 25.5058 27.1292 26.2994 29.4865 25.221C31.7364 24.1999 32.372 23.1538 32.9904 21.8397C33.6676 26.8197 30.6473 31.7441 25.71 33.6001C21.1998 35.192 16.4648 33.7553 13.634 30.45Z" fill="white" fill-opacity="0.6"/>
<path d="M36.5576 27.0605L42.16 28.9929C43.3203 29.3889 43.9257 30.6533 43.5297 31.8137C43.1295 32.9639 41.8896 33.5708 40.7378 33.1952L40.6988 33.1877L34.7872 31.1465C35.5805 29.8783 36.1731 28.5033 36.5576 27.0605ZM9.67572 27.6207C7.21503 20.7964 10.8986 13.2464 17.7272 10.7959C24.6073 8.46725 32.2336 11.963 34.5622 18.8431C36.8909 25.7231 33.3393 33.2174 26.5049 35.6824C19.6704 38.1474 12.1262 34.4493 9.67572 27.6207ZM18.4594 12.9283C12.8997 15.0109 9.78054 21.3175 11.8632 26.8772C13.9459 32.4369 20.0935 35.4915 25.8122 33.4735C31.3719 31.3908 34.4265 25.2431 32.4084 19.5245C30.3515 14.0258 24.3022 10.9775 18.6364 12.8656L18.4594 12.9283Z" fill="white"/>
</svg>
