<svg width="27" height="27" viewBox="0 0 27 27" fill="none" xmlns="http://www.w3.org/2000/svg">
<path d="M16.161 9.97559H16.2884C18.8268 10.0736 20.248 11.0929 21.3849 12.5924C20.8654 17.787 16.308 21.5799 11.1331 21.3741C8.49663 21.2173 6.2032 20.0412 4.55664 18.2574C7.36952 14.4056 11.9074 10.054 16.0336 9.97559H16.161Z" fill="#FFCC66"/>
<path d="M17.3665 14.3177C18.1898 14.1119 18.7974 13.8571 18.9641 13.7885C20.3068 13.22 19.8755 13.4063 21.3849 12.5928C21.2771 13.6905 20.9831 14.7294 20.542 15.6801C18.9053 19.2182 15.2103 21.5411 11.1331 21.3744C8.49663 21.2176 6.2032 20.0415 4.55664 18.2577C7.36952 14.406 8.45742 14.7294 12.5738 14.651L15.3867 14.602C16.357 14.5628 17.3665 14.3177 17.3665 14.3177Z" fill="#FF9F73"/>
<path d="M2.28125 14.6993C3.27115 13.2879 4.8491 11.8864 6.96611 12.4549C10.9845 13.6016 14.7677 15.9636 17.0709 15.895C19.2663 15.8362 20.1484 15.1991 21.1089 14.3366C19.9426 18.6491 15.7674 21.6384 11.0825 21.4521C6.8387 21.1973 3.45737 18.3844 2.28125 14.6993Z" fill="#FF7673"/>
<path d="M22.2269 19.8452L26.1473 23.3638C26.9608 24.0891 27.0196 25.3338 26.2943 26.1473C25.569 26.9509 24.3439 27.0195 23.5304 26.3139L23.501 26.2943L19.365 22.5797C20.4529 21.8152 21.4134 20.8939 22.2269 19.8452ZM0.0179162 11.0146C0.36095 4.57533 5.9867 -0.334951 12.4259 0.0178835C18.8652 0.48833 23.9029 5.98667 23.4324 12.4259C22.962 18.8651 17.4636 23.7754 11.0146 23.4324C4.56556 23.0893 -0.334918 17.4538 0.0179162 11.0146ZM12.2887 2.01728C7.0158 1.80166 2.28194 5.88866 2.06632 11.1616C1.8507 16.4345 5.82989 21.0606 11.2106 21.384C16.4835 21.5996 21.1096 17.6204 21.433 12.2397C21.6486 7.02557 17.7479 2.43872 12.4553 2.02708L12.2887 2.01728Z" fill="#009999"/>
</svg>
