<svg width="28" height="28" viewBox="0 0 28 28" fill="none" xmlns="http://www.w3.org/2000/svg">
<path d="M4.73427 4.44411C0.842346 8.21671 -0.373253 13.9711 1.66056 18.9945C3.69435 24.0179 8.57146 27.3074 13.9927 27.3124C18.4893 27.3129 22.6823 25.0453 25.1421 21.2829L25.2149 21.1704C27.5853 17.4634 27.9705 12.8249 26.2441 8.77866L26.194 8.66296C26.0243 8.24641 25.6392 7.95295 25.1895 7.89947C24.7398 7.84598 24.2965 8.0409 24.0321 8.40842C23.7731 8.76828 23.7254 9.23857 23.9062 9.64289L23.9133 9.65833C26.0017 14.4262 24.3962 20.0078 20.0909 22.9405C15.7856 25.8732 10.0012 25.3253 6.32358 21.6364C2.6461 17.9475 2.1181 12.1638 5.0669 7.8706C7.98362 3.62405 13.4896 2.02198 18.2275 4.03511L18.3716 4.09757C18.9993 4.37529 19.7346 4.09124 20.0129 3.46267C20.2913 2.83397 20.0071 2.09871 19.3783 1.82047C14.4173 -0.366077 8.62616 0.671544 4.73427 4.44411Z" fill="#009191"/>
<path d="M21.7314 5.76039C21.901 5.67697 22.0999 5.67756 22.2691 5.76199C22.5685 5.91137 22.69 6.27514 22.5406 6.57448L22.2637 7.12944C21.8492 7.95438 18.1794 15.2542 16.7067 16.727C15.7888 17.6421 14.4524 17.9979 13.201 17.6605C11.9496 17.323 10.9733 16.3436 10.6398 15.0911C10.3063 13.8386 10.6663 12.5033 11.5842 11.5882C12.9244 10.2479 19.0863 7.07814 20.8093 6.21519L20.9164 6.16168C21.0335 6.10326 21.1232 6.05902 21.1813 6.03085L21.7314 5.76039ZM14.0152 12.8336C13.2103 12.8336 12.5578 13.4857 12.5578 14.2901C12.5578 15.0945 13.2103 15.7466 14.0152 15.7466C14.82 15.7466 15.4725 15.0945 15.4725 14.2901C15.4725 13.4857 14.82 12.8336 14.0152 12.8336Z" fill="#FFCC66"/>
</svg>
