<svg width="62" height="62" viewBox="0 0 62 62" fill="none" xmlns="http://www.w3.org/2000/svg">
<path d="M9.78845 26.765C8.06278 35.4023 11.7457 44.2215 19.1009 49.0649C26.456 53.9083 36.015 53.8092 43.2716 48.8143C49.2872 44.6664 52.8041 37.7646 52.6234 30.4623L52.6169 30.2445C52.3679 23.0987 48.6037 16.5385 42.5612 12.7186L42.3874 12.61C41.7762 12.2093 40.9902 12.1721 40.3393 12.5155C39.6884 12.8588 39.2753 13.5285 39.2606 14.2641C39.2463 14.9844 39.6162 15.6576 40.2311 16.0316L40.2549 16.0456C47.4473 20.497 50.4492 29.4447 47.3957 37.3398C44.3421 45.235 36.0988 49.8386 27.7759 48.2969C19.4532 46.7551 13.411 39.5054 13.3947 31.0418C13.3785 22.6702 19.2658 15.4474 27.461 13.7692L27.7114 13.7198C28.8073 13.5122 29.5289 12.4538 29.3213 11.3562C29.1136 10.2583 28.0552 9.53694 26.9572 9.74493C18.3037 11.3969 11.5141 18.1278 9.78845 26.765Z" fill="white"/>
<path d="M33.7397 12.8443C33.8897 12.5762 34.1563 12.3935 34.4605 12.3503C34.9988 12.274 35.497 12.6484 35.5733 13.1867L35.7149 14.1846C35.9215 15.6705 37.7471 28.8211 37.1359 32.1501C36.7522 34.2211 35.2929 35.93 33.3076 36.6331C31.3223 37.3363 29.1126 36.9268 27.5109 35.559C25.9092 34.1912 25.1589 32.0728 25.5425 30.0018C26.0988 26.9725 31.4172 17.0474 32.9258 14.3034L33.0197 14.1331C33.1225 13.9468 33.2017 13.8048 33.2533 13.7136L33.7397 12.8443ZM29.9434 29.425C28.8667 30.1676 28.5955 31.6419 29.3377 32.7179C30.0798 33.794 31.5542 34.0643 32.6309 33.3218C33.7076 32.5792 33.9788 31.1049 33.2366 30.0289C32.4945 28.9528 31.0201 28.6825 29.9434 29.425Z" fill="white"/>
</svg>
