<svg width="64" height="64" viewBox="0 0 64 64" fill="none" xmlns="http://www.w3.org/2000/svg">
<circle opacity="0.35" cx="14.9259" cy="13.9259" r="10.9259" fill="#F3B781"/>
<path fill-rule="evenodd" clip-rule="evenodd" d="M38.5517 45.3711H26.782C25.895 45.3711 25.1594 44.6281 25.1594 43.7322C25.1594 42.8363 25.895 42.1151 26.782 42.1151H38.5517C39.4388 42.1151 40.1744 42.8363 40.1744 43.7322C40.1744 44.6281 39.4388 45.3711 38.5517 45.3711ZM26.782 31.1892H34.0948C34.9819 31.1892 35.7175 31.9322 35.7175 32.8281C35.7175 33.724 34.9819 34.4452 34.0948 34.4452H26.782C25.895 34.4452 25.1594 33.724 25.1594 32.8281C25.1594 31.9322 25.895 31.1892 26.782 31.1892ZM51.1003 29.2663C50.17 29.2663 49.0666 29.2881 48.3959 29.2881C47.4007 29.2881 46.1025 29.2663 44.4582 29.2663C40.4989 29.2444 37.232 25.9666 37.232 21.9678V14.9315C37.232 14.3852 36.7993 13.9263 36.2367 13.9263H24.6834C19.2962 13.9263 14.9258 18.3622 14.9258 23.7815V47.3377C14.9258 53.0192 19.5125 57.63 25.1377 57.63H42.3596C47.7252 57.63 52.0739 53.2378 52.0739 47.8185V30.2496C52.0739 29.7033 51.6412 29.2663 51.1003 29.2663Z" fill="#F3B781"/>
<path fill-rule="evenodd" clip-rule="evenodd" d="M46.3365 25.3982H53.4383C56.2165 25.3982 58.0822 23.4494 58.0822 20.5497V13.8577C58.0822 10.958 56.2165 9.00928 53.4391 9.00928H46.3365C43.5591 9.00928 41.6934 10.958 41.6934 13.8577V20.5497C41.6934 23.4494 43.5591 25.3982 46.3365 25.3982ZM47.0188 16.3843C45.8891 16.3843 44.9711 15.4651 44.9711 14.3357C44.9711 13.2063 45.8891 12.2871 47.0188 12.2871C48.1477 12.2871 49.0665 13.2063 49.0665 14.3357C49.0665 15.4651 48.1477 16.3843 47.0188 16.3843ZM56.2965 19.6079C56.5709 20.3115 56.4284 21.1572 56.135 21.854C55.7873 22.6828 55.1215 23.3102 54.2826 23.5842C53.9102 23.706 53.5196 23.7593 53.1298 23.7593H46.2238C45.5365 23.7593 44.9284 23.5944 44.4299 23.2874C44.1176 23.0946 44.0624 22.6498 44.2939 22.3614C44.6812 21.8794 45.0636 21.3957 45.4492 20.9077C46.1842 19.9741 46.6795 19.7035 47.2299 19.9411C47.4532 20.0392 47.6773 20.1864 47.9081 20.342C48.5228 20.7597 49.3773 21.3339 50.5029 20.7107C51.2732 20.2793 51.7199 19.5392 52.109 18.8948L52.1155 18.884C52.143 18.8388 52.1704 18.7936 52.1976 18.7486L52.1976 18.7485C52.3284 18.5322 52.4574 18.3188 52.6033 18.1221C52.7862 17.876 53.4644 17.1065 54.3428 17.6545C54.9023 17.9995 55.3728 18.4663 55.8763 18.9661C56.0683 19.1572 56.2051 19.3745 56.2965 19.6079Z" fill="#F3B781"/>
</svg>
