<svg width="49" height="54" viewBox="0 0 49 54" fill="none" xmlns="http://www.w3.org/2000/svg">
<path d="M35.7224 29.5355V25.4254C35.7224 23.8522 34.5119 22.5729 33.0751 22.5729C31.6306 22.5729 30.4201 23.8522 30.4201 25.4254V29.7821C30.4201 30.2589 30.0338 30.6452 29.557 30.6452C29.0801 30.6452 28.6938 30.2589 28.6938 29.7821V24.2294C28.6938 22.6562 27.5706 21.3239 26.1342 21.3239H26.0523C24.6526 21.3239 23.5149 22.5917 23.3916 24.1089V30.3606C23.3916 30.8374 23.0053 31.2237 22.5284 31.2237C22.0516 31.2237 21.6653 30.8374 21.6653 30.3606V24.291C21.6653 24.2703 21.6629 24.2491 21.6629 24.2279C21.6629 24.1788 21.6653 24.1292 21.6653 24.08V14.8862C21.6653 13.313 20.5252 12.0337 19.0883 12.0337C17.651 12.0337 16.508 13.3125 16.507 14.8837L16.4926 33.4235C16.4926 33.7877 16.2638 34.1133 15.9209 34.2361C15.5779 34.3589 15.1945 34.2529 14.9633 33.9707L12.1532 30.5499C11.422 29.6342 10.3436 29.0634 9.17504 28.9748C8.03155 28.8997 6.90781 29.3033 6.07356 30.0889C6.06296 30.099 6.05188 30.1115 6.04081 30.1207L5.52734 30.5523L15.2504 49.2286C16.7782 52.1644 19.6668 54.0005 22.7885 54.0005H34.0524C38.8133 54.0005 42.6907 49.8124 42.6955 44.6782C42.6979 41.9525 42.7008 39.902 42.7028 38.2523C42.7085 33.8252 42.7105 32.1466 42.6994 27.2721C42.6955 25.7038 41.527 24.4061 40.0935 24.4061H40.0165C38.5801 24.4066 37.4487 25.7365 37.4487 27.3097V29.5355C37.4487 30.0123 37.0624 30.3986 36.5855 30.3986C36.1087 30.3986 35.7224 30.0123 35.7224 29.5355Z" fill="#00BCBC"/>
<circle opacity="0.35" cx="6.5" cy="6.5" r="6.5" fill="#00BCBC"/>
<path d="M7.81684 8.38757L12.5791 13.1499C12.9158 13.487 13.4625 13.487 13.7997 13.1499C14.1368 12.8079 14.1368 12.2583 13.7997 11.9158L10.3408 8.44393H38.5854V6.71762H10.5339L13.7997 3.46489C14.134 3.1282 14.1316 2.58391 13.7944 2.24915C13.4577 1.91487 12.9134 1.91728 12.5791 2.25445L8.08657 6.74845C7.70268 6.7918 7.39441 7.08513 7.33179 7.46614C7.26918 7.84714 7.46714 8.22381 7.81684 8.38757Z" fill="#00BCBC"/>
<path d="M45.8369 3.44567C48.1885 4.42009 49.3055 7.116 48.331 9.46801C47.3571 11.8195 44.6612 12.9365 42.3092 11.9621C39.9577 10.9882 38.8407 8.29176 39.8151 5.94024C40.789 3.58872 43.4849 2.47173 45.8369 3.44567Z" fill="#00BCBC"/>
</svg>
