<svg width="32" height="32" viewBox="0 0 32 32" fill="none" xmlns="http://www.w3.org/2000/svg">
<path d="M13.2473 19.4513L12.8791 21.6384C12.8289 21.9374 12.9516 22.2387 13.1964 22.4172C13.4415 22.5952 13.7671 22.6191 14.0349 22.4787L16.0013 21.4523L17.9676 22.4789C18.0839 22.5393 18.2114 22.5696 18.3375 22.5696C18.5027 22.5696 18.6675 22.5179 18.8065 22.4174C19.0515 22.2389 19.1746 21.9376 19.124 21.6386L18.7561 19.4515L20.3394 17.8984C20.5559 17.6863 20.633 17.3698 20.5402 17.0818C20.4469 16.7939 20.1973 16.5832 19.8977 16.539L17.7038 16.2136L16.7156 14.2275C16.5816 13.9564 16.3039 13.7847 16.0011 13.7847C15.6988 13.7847 15.4213 13.9564 15.2861 14.2275L14.299 16.2136L12.105 16.5388C11.8048 16.583 11.5564 16.7938 11.4629 17.0816C11.3695 17.3697 11.4464 17.6865 11.6633 17.8982L13.2473 19.4513Z" fill="#EB6161"/>
<path d="M25.4305 6.55144H22.9183V5.15795C22.9183 4.5184 22.3999 4 21.7602 4H21.5765C20.937 4 20.4188 4.5184 20.4188 5.15795V6.55144H11.555V5.15795C11.555 4.5184 11.0366 4 10.3972 4H10.2134C9.57385 4 9.05564 4.5184 9.05564 5.15795V6.55144H6.57265C5.25876 6.55144 4.18945 7.62036 4.18945 8.93464V25.6168C4.18945 26.9303 5.25876 28 6.57265 28H25.4307C26.7444 28 27.8139 26.9305 27.8139 25.6168V8.93464C27.8137 7.62036 26.7442 6.55144 25.4305 6.55144ZM25.1196 25.3059H6.88357V12.3198H25.1196V25.3059Z" fill="#EB6161"/>
</svg>
