<svg width="64" height="64" viewBox="0 0 64 64" fill="none" xmlns="http://www.w3.org/2000/svg">
<circle opacity="0.35" cx="9" cy="11" r="6" fill="#009191"/>
<path opacity="0.4" d="M40.3101 11H48.1341C51.3743 11 53.9999 13.6256 53.9999 16.8658V24.6898C53.9999 27.93 51.3743 30.5556 48.1341 30.5556H40.3101C37.0699 30.5556 34.4443 27.93 34.4443 24.6898V16.8658C34.4443 13.6256 37.0699 11 40.3101 11Z" fill="#009191"/>
<path d="M15.8658 11H23.6898C26.93 11 29.5556 13.6256 29.5556 16.8658V24.6898C29.5556 27.93 26.93 30.5556 23.6898 30.5556H15.8658C12.6256 30.5556 10 27.93 10 24.6898V16.8658C10 13.6256 12.6256 11 15.8658 11Z" fill="#009191"/>
<path d="M15.8658 35.4443H23.6898C26.93 35.4443 29.5556 38.0699 29.5556 41.3101V49.1341C29.5556 52.3721 26.93 54.9999 23.6898 54.9999H15.8658C12.6256 54.9999 10 52.3721 10 49.1341V41.3101C10 38.0699 12.6256 35.4443 15.8658 35.4443Z" fill="#009191"/>
<path d="M40.3101 35.4443H48.1341C51.3743 35.4443 53.9999 38.0699 53.9999 41.3101V49.1341C53.9999 52.3721 51.3743 54.9999 48.1341 54.9999H40.3101C37.0699 54.9999 34.4443 52.3721 34.4443 49.1341V41.3101C34.4443 38.0699 37.0699 35.4443 40.3101 35.4443Z" fill="#009191"/>
</svg>
