<svg width="64" height="64" viewBox="0 0 64 64" fill="none" xmlns="http://www.w3.org/2000/svg">
<path d="M64.0005 15.1484V39.3555C64.0005 40.395 63.1577 41.2378 62.1182 41.2378H59.2065V22.146C59.2065 19.8892 57.3774 18.0601 55.1206 18.0601H30.3589C30.2363 18.0601 30.1245 17.9907 30.0703 17.8804L27.5156 12.6987C26.8213 11.292 25.4175 10.4199 23.8501 10.4199H17.1172V7.50732C17.1172 6.46777 17.96 5.625 18.9995 5.625H32.4082C32.5327 5.625 32.6431 5.69385 32.6968 5.80469L35.252 10.9873C35.9458 12.3926 37.3501 13.2661 38.9175 13.2661H62.1182C63.1577 13.2661 64.0005 14.1089 64.0005 15.1484Z" fill="#F3B781"/>
<path d="M55.4414 22.146V47.9141C55.4414 48.9536 54.5986 49.7964 53.5591 49.7964H50.6479V30.7041C50.6479 28.4478 48.8184 26.6182 46.562 26.6182H21.8003C21.6772 26.6182 21.5654 26.5493 21.5117 26.439L18.9565 21.2573C18.2515 19.8291 16.8345 18.9785 15.291 18.9785H8.55859V16.0669C8.55859 15.0273 9.40137 14.1846 10.4409 14.1846H23.8496C23.9736 14.1846 24.084 14.2524 24.1382 14.3628L26.6929 19.5454C27.3872 20.9512 28.791 21.8247 30.3584 21.8247H55.1201C55.2969 21.8247 55.4414 21.9692 55.4414 22.146Z" fill="#F3B781"/>
<path d="M46.562 30.3828H21.8003C20.2329 30.3828 18.8286 29.5098 18.1348 28.104C16.8472 25.4912 17.4141 26.6436 15.5796 22.9224C15.5259 22.811 15.415 22.7432 15.291 22.7432H1.88232C0.842773 22.7432 0 23.5859 0 24.6255V56.4736C0 57.5132 0.842773 58.356 1.88232 58.356H45.001C46.0405 58.356 46.8833 57.5132 46.8833 56.4736V30.7041C46.8833 30.5273 46.7388 30.3828 46.562 30.3828ZM35.5137 52.2549C35.5137 53.2988 34.6631 54.1372 33.6313 54.1372C32.6011 54.1372 31.749 53.2998 31.749 52.2549C31.749 51.5684 31.749 51.7148 31.749 51.0298C31.749 49.9956 32.5884 49.1475 33.6313 49.1475C34.6729 49.1475 35.5137 49.9956 35.5137 51.0298V52.2549ZM41.6855 52.2549C41.6855 53.2988 40.8345 54.1372 39.8032 54.1372C38.7666 54.1372 37.9204 53.2964 37.9204 52.2549C37.9204 51.5684 37.9204 51.7148 37.9204 51.0298C37.9204 49.9946 38.7603 49.1475 39.8032 49.1475C40.8447 49.1475 41.6855 49.9956 41.6855 51.0298V52.2549Z" fill="#F3B781"/>
</svg>
