<svg width="64" height="64" viewBox="0 0 64 64" fill="none" xmlns="http://www.w3.org/2000/svg">
<path d="M12.2041 4.28803V11.0726H51.7896V4.28803C51.7896 3.30053 51.004 2.5 50.016 2.5H13.9776C12.9896 2.5 12.2041 3.30053 12.2041 4.28803Z" fill="#326E98"/>
<path d="M58.7234 44.1029H50.2544C49.5581 44.1029 49.0162 44.6968 49.0162 45.3931V48.2485L44.3516 48.2289V34.6478H50.5445C51.2408 34.6478 51.7897 34.1177 51.7897 33.4214V14.0986H12.2042V33.4214C12.2042 34.1177 12.7531 34.6478 13.4494 34.6478H19.6422V48.1372L14.9777 48.1784V45.3931C14.9777 44.6968 14.4357 44.1029 13.7395 44.1029H5.27045C4.57417 44.1029 4.00977 44.6968 4.00977 45.3931V53.8544C4.00977 54.5507 4.57417 55.0709 5.27045 55.0709H13.7395C14.4357 55.0709 14.9777 54.5507 14.9777 53.8544V51.478L21.2456 51.4149H21.2622C22.1514 51.4149 22.9202 50.7265 22.9202 49.8142V34.6478H30.3582V50.5324H27.7626C27.0663 50.5324 26.4501 51.0821 26.4501 51.7783V60.2397C26.4501 60.9359 27.0663 61.5003 27.7626 61.5003H36.2316C36.9279 61.5003 37.5441 60.9359 37.5441 60.2397V51.7783C37.5441 51.0821 36.9279 50.5324 36.2316 50.5324H33.6358V34.6478H41.0739V49.878C41.0739 50.7907 41.8204 51.5321 42.7337 51.5382L49.0162 51.5678V53.8543C49.0162 54.5506 49.5581 55.0707 50.2544 55.0707H58.7234C59.4197 55.0707 59.9841 54.5506 59.9841 53.8543V45.393C59.9841 44.6968 59.4197 44.1029 58.7234 44.1029ZM28.0888 23.3488L24.8552 24.9684L28.0888 26.5881V29.0502L21.5333 25.7221V24.2144L28.0888 20.8869V23.3488ZM31.4011 29.1008H29.0466L32.6027 19.8978H34.9699L31.4011 29.1008ZM35.9051 26.5865L39.1603 24.9684L35.9051 23.3503V20.8892L42.4606 24.2029V25.734L35.9051 29.0477V26.5865Z" fill="#326E98"/>
</svg>
