<svg width="34" height="33" viewBox="0 0 34 33" fill="none" xmlns="http://www.w3.org/2000/svg">
<path d="M17.0007 0.333008C7.79232 0.333008 0.333987 7.79134 0.333987 16.9997C0.332096 20.4985 1.43201 23.909 3.47768 26.7475C5.52335 29.5859 8.41089 31.7081 11.7307 32.813C12.564 32.958 12.8757 32.458 12.8757 32.0197C12.8757 31.6247 12.854 30.313 12.854 28.9163C8.66732 29.688 7.58399 27.8963 7.25065 26.958C7.06232 26.478 6.25065 24.9997 5.54232 24.603C4.95899 24.2913 4.12565 23.5197 5.52065 23.4997C6.83399 23.478 7.77065 24.708 8.08399 25.208C9.58399 27.728 11.9807 27.0197 12.9373 26.583C13.084 25.4997 13.5207 24.7713 14.0007 24.3547C10.2923 23.938 6.41732 22.4997 6.41732 16.1247C6.41732 14.3113 7.06232 12.813 8.12565 11.6447C7.95899 11.228 7.37565 9.51968 8.29232 7.22801C8.29232 7.22801 9.68732 6.79134 12.8757 8.93801C14.2324 8.56144 15.6343 8.37191 17.0423 8.37468C18.459 8.37468 19.8757 8.56134 21.209 8.93634C24.3957 6.76967 25.7923 7.22967 25.7923 7.22967C26.709 9.52134 26.1257 11.2297 25.959 11.6463C27.0207 12.813 27.6673 14.2913 27.6673 16.1247C27.6673 22.5213 23.7723 23.938 20.064 24.3547C20.6673 24.8747 21.189 25.8747 21.189 27.438C21.189 29.6663 21.1673 31.458 21.1673 32.0213C21.1673 32.458 21.4807 32.978 22.314 32.8113C25.6224 31.6943 28.4972 29.568 30.5338 26.7316C32.5705 23.8952 33.6664 20.4915 33.6673 16.9997C33.6673 7.79134 26.209 0.333008 17.0007 0.333008Z" fill="white"/>
</svg>
