<svg width="40" height="40" viewBox="0 0 40 40" fill="none" xmlns="http://www.w3.org/2000/svg">
<path d="M20.0007 3.33301C10.7923 3.33301 3.33399 10.7913 3.33399 19.9997C3.3321 23.4985 4.43201 26.909 6.47768 29.7475C8.52335 32.5859 11.4109 34.7081 14.7307 35.813C15.564 35.958 15.8757 35.458 15.8757 35.0197C15.8757 34.6247 15.854 33.313 15.854 31.9163C11.6673 32.688 10.584 30.8963 10.2507 29.958C10.0623 29.478 9.25065 27.9997 8.54232 27.603C7.95899 27.2913 7.12565 26.5197 8.52065 26.4997C9.83399 26.478 10.7707 27.708 11.084 28.208C12.584 30.728 14.9807 30.0197 15.9373 29.583C16.084 28.4997 16.5207 27.7713 17.0007 27.3547C13.2923 26.938 9.41732 25.4997 9.41732 19.1247C9.41732 17.3113 10.0623 15.813 11.1257 14.6447C10.959 14.228 10.3757 12.5197 11.2923 10.228C11.2923 10.228 12.6873 9.79134 15.8757 11.938C17.2324 11.5614 18.6343 11.3719 20.0423 11.3747C21.459 11.3747 22.8757 11.5613 24.209 11.9363C27.3957 9.76967 28.7923 10.2297 28.7923 10.2297C29.709 12.5213 29.1257 14.2297 28.959 14.6463C30.0207 15.813 30.6673 17.2913 30.6673 19.1247C30.6673 25.5213 26.7723 26.938 23.064 27.3547C23.6673 27.8747 24.189 28.8747 24.189 30.438C24.189 32.6663 24.1673 34.458 24.1673 35.0213C24.1673 35.458 24.4807 35.978 25.314 35.8113C28.6224 34.6943 31.4972 32.568 33.5338 29.7316C35.5705 26.8952 36.6664 23.4915 36.6673 19.9997C36.6673 10.7913 29.209 3.33301 20.0007 3.33301Z" fill="#333333"/>
</svg>
