<svg width="72" height="72" viewBox="0 0 72 72" fill="none" xmlns="http://www.w3.org/2000/svg">
<path d="M65.9008 15.9697L64.8236 16.3112L59.0872 16.8222L57.4669 19.4097L56.2912 19.0361L51.7259 14.92L51.0635 12.7795L50.1766 10.4968L47.3072 7.92308L43.9222 7.26074L43.8443 8.81002L47.1605 12.0461L48.7832 13.9575L46.9589 14.9109L45.4738 14.4731L43.2484 13.5449L43.324 11.7504L40.4042 10.5495L39.4348 14.7688L36.4921 15.4357L36.7832 17.7894L40.6174 18.5274L41.2797 14.7665L44.4447 15.234L45.9161 16.0957H48.2767L49.8924 19.3318L54.1758 23.6771L53.8618 25.3662L50.4081 24.9261L44.4401 27.9399L40.143 33.0942L39.5838 35.3769H38.0414L35.1674 34.0522L32.376 35.3769L33.0704 38.3219L34.2851 36.9216L36.421 36.8551L36.2721 39.4999L38.0414 40.0178L39.8084 42.0025L42.6938 41.1912L45.9894 41.7115L49.8168 42.7405L51.7281 42.9651L54.9688 46.6435L61.2232 50.3219L57.1781 58.0499L52.9084 60.0346L51.2881 64.451L45.1094 68.5763L44.4516 70.9552C60.2469 67.1507 71.9971 52.962 71.9971 35.9979C71.9925 28.5885 69.7465 21.6924 65.9008 15.9697Z" fill="#FBCB67"/>
<path d="M40.1409 54.8138L37.5191 49.9528L39.9255 44.9383L37.5191 44.2187L34.817 41.5051L28.8308 40.1621L26.8438 36.0048V38.4731H25.9683L20.8094 31.4784V25.7328L17.0279 19.5838L11.0233 20.6541H6.97823L4.94309 19.3203L7.53973 17.2622L4.94997 17.8604C1.8285 23.1912 0.00878906 29.3768 0.00878906 36.0025C0.00878906 55.8795 16.1226 72.0002 36.0019 72.0002C37.5329 72.0002 39.034 71.865 40.5191 71.6862L40.1432 67.3248C40.1432 67.3248 41.7956 60.8482 41.7956 60.6281C41.7934 60.4058 40.1409 54.8138 40.1409 54.8138Z" fill="#FBCB67"/>
<path d="M13.3841 11.6081L19.7783 10.7166L22.7256 9.10084L26.0418 10.0565L31.3405 9.76318L33.1557 6.90985L35.8027 7.3453L42.2313 6.74255L44.0029 4.78992L46.501 3.12147L50.035 3.65317L51.323 3.45836C46.6683 1.26738 41.4887 0 35.9998 0C24.8272 0 14.8371 5.09244 8.24121 13.0886H8.25955L13.3841 11.6081ZM37.5216 3.57983L41.1977 1.55615L43.5583 2.91979L40.1411 5.52101L36.8776 5.84874L35.4085 4.89534L37.5216 3.57983ZM26.6331 3.87548L28.2557 4.55157L30.3802 3.87548L31.5376 5.88083L26.6331 7.16883L24.2748 5.78915C24.2725 5.78915 26.5804 4.30405 26.6331 3.87548Z" fill="#FBCB67"/>
</svg>
