<svg width="42" height="40" viewBox="0 0 42 40" fill="none" xmlns="http://www.w3.org/2000/svg">
<path opacity="0.4" d="M20.5398 39.0701C15.8786 36.1911 11.5455 32.7963 7.61995 28.9479C4.84862 26.2001 2.73214 22.8451 1.43222 19.139C-0.890446 11.9114 1.81328 3.65137 9.36195 1.19916C13.3463 -0.0521058 17.6796 0.716017 21.0116 3.26418C24.3448 0.718867 28.6767 -0.0490063 32.6612 1.19916C40.2098 3.65137 42.9317 11.9114 40.6091 19.139C39.3197 22.8416 37.2158 26.1963 34.4576 28.9479C30.5285 32.7921 26.1959 36.1865 21.5378 39.0701L21.0297 39.402L20.5398 39.0701Z" fill="#EB6161"/>
<path d="M21.019 39.4022L20.5394 39.0703C15.8724 36.1915 11.5334 32.7967 7.60141 28.948C4.81695 26.2041 2.68786 22.8487 1.37739 19.1392C-0.927132 11.9116 1.7766 3.65154 9.32526 1.19933C13.3096 -0.0519374 17.7 0.716773 21.019 3.28627V39.4022Z" fill="#EB6161"/>
<path d="M33.7169 14.9004C33.3068 14.874 32.9249 14.6691 32.6606 14.3335C32.3963 13.998 32.2729 13.5615 32.3193 13.1261C32.3637 11.6921 31.5478 10.3869 30.2895 9.87905C29.4916 9.66125 29.0085 8.79716 29.2081 7.94501C29.3975 7.10656 30.1826 6.58523 30.9717 6.77395C31.0713 6.79047 31.1672 6.82657 31.2545 6.88041C33.7774 7.85128 35.4109 10.4643 35.2809 13.3213C35.2767 13.7543 35.1079 14.167 34.813 14.4647C34.5182 14.7624 34.1226 14.9197 33.7169 14.9004Z" fill="#EB6161"/>
</svg>
