<svg width="40" height="42" viewBox="0 0 40 42" fill="none" xmlns="http://www.w3.org/2000/svg">
<path d="M14.1639 38.9269V32.6654C14.1639 31.0787 15.4541 29.7896 17.0522 29.7796H22.9204C24.5256 29.7796 25.827 31.0716 25.827 32.6654V38.9087C25.827 40.2849 26.9453 41.4034 28.3314 41.4133H32.3349C34.2047 41.4182 35.9996 40.6841 37.3234 39.3732C38.6473 38.0623 39.3913 36.2822 39.3913 34.4259V16.6395C39.3912 15.14 38.7217 13.7176 37.5632 12.7556L23.9624 1.95671C21.5849 0.0678699 18.1893 0.128887 15.8823 2.1019L2.57393 12.7556C1.36062 13.6893 0.635445 15.1159 0.599609 16.6395V34.4077C0.599609 38.2768 3.75885 41.4133 7.65596 41.4133H11.568C12.2354 41.4182 12.8771 41.1584 13.3508 40.6915C13.8244 40.2247 14.0908 39.5895 14.0908 38.9269H14.1639Z" fill="#009191"/>
</svg>
