<?xml version="1.0" encoding="utf-8"?>
<!-- Generator: Adobe Illustrator 25.0.0, SVG Export Plug-In . SVG Version: 6.00 Build 0)  -->
<svg version="1.1" id="图层_1" xmlns="http://www.w3.org/2000/svg" xmlns:xlink="http://www.w3.org/1999/xlink" x="0px" y="0px"
	 viewBox="0 0 42 42" style="enable-background:new 0 0 42 42;" xml:space="preserve">
<style type="text/css">
	.st0{fill-rule:evenodd;clip-rule:evenodd;fill:#EC9F31;}
	.st1{fill:#FFFFFF;}
	.st2{fill:#EB9F32;}
	.st3{fill:#E8E8E8;}
	.st4{fill-rule:evenodd;clip-rule:evenodd;fill:#EB9F32;}
	.st5{fill-rule:evenodd;clip-rule:evenodd;fill:#E8E8E8;}
</style>
<path class="st0" d="M30.2,9.6h-6.5v8h4.9l-3.7-1.9c-0.4-0.2-0.6-0.6-0.6-1c0-0.4,0.2-0.8,0.6-1l4.3-2.3c0.7-0.3,1.4-0.3,2.1,0
	l4.3,2.3c0.4,0.2,0.6,0.6,0.6,1c0,0.2-0.1,0.4-0.2,0.6l0.5-0.3l0-2.4L30.2,9.6z"/>
<path class="st0" d="M7.3,13.9c0.4-1.5,2.5-2.7,5-2.7c2.5,0,4.6,1.1,5,2.6l0.7,0l-0.7-2.6l-2.5-1.7L9.7,9.7l-2.8,2.7L7.3,13.9z"/>
<path class="st1" d="M24.1,4.3l12.7,6.8c1.1,0.6,1.7,1.7,1.7,2.9s-0.7,2.3-1.7,2.9l-12.7,6.8c-1.9,1-4.2,1-6.1,0L5.2,16.8
	c-1.1-0.6-1.7-1.7-1.7-2.9s0.7-2.3,1.7-2.9l12.7-6.8C19.9,3.3,22.2,3.3,24.1,4.3z M29,10.2L29,10.2l-4.7,2.5
	c-0.4,0.2-0.6,0.6-0.6,1.1c0,0.4,0.2,0.8,0.6,1l0,0l4.6,2.5c0.7,0.4,1.5,0.4,2.2,0l0,0l4.6-2.5c0.4-0.2,0.6-0.6,0.6-1.1
	c0-0.4-0.2-0.8-0.6-1l0,0l-4.6-2.5C30.5,9.8,29.7,9.8,29,10.2z M12.3,10.1c-2.8,0-5.1,1.4-5.1,3.1s2.3,3.1,5.1,3.1s5.1-1.4,5.1-3.1
	S15.1,10.1,12.3,10.1z"/>
<path class="st2" d="M22,4.6l4.1,2.2l1.2,0l0,1.2c0,0,0,0.1,0,0.1c0,0,0,0.1,0,0.1l0,0.2l0,0C27.2,8.7,27,9,26.7,9.2L22,11.7
	c-0.7,0.4-1.5,0.4-2.2,0l-4.6-2.5c-0.3-0.2-0.5-0.5-0.6-0.8l0,0V6.8l1.2,0l4.1-2.2C20.5,4.3,21.3,4.3,22,4.6z"/>
<path class="st3" d="M19.8,10.6l-4.6-2.5c-0.4-0.2-0.6-0.6-0.6-1.1c0-0.4,0.2-0.8,0.6-1.1l4.6-2.5c0.7-0.4,1.5-0.4,2.2,0l4.6,2.5
	c0.4,0.2,0.6,0.6,0.6,1.1c0,0.4-0.2,0.8-0.6,1.1L22,10.6C21.3,11,20.5,11,19.8,10.6z"/>
<path class="st1" d="M21,38.7c-1.2,0-2.4-0.3-3.5-0.9L5.9,31.7c-1.5-0.8-2.4-2.3-2.4-4s0.9-3.2,2.4-4c0.8-0.4,1.7-0.1,2.2,0.7
	c0.4,0.8,0.1,1.7-0.7,2.1c-0.5,0.2-0.7,0.7-0.7,1.2s0.3,1,0.7,1.2L19,35c1.3,0.7,2.8,0.7,4.1,0l11.6-6.1c0.5-0.2,0.7-0.7,0.7-1.2
	s-0.3-1-0.7-1.2c-0.8-0.4-1.1-1.4-0.7-2.1c0.4-0.8,1.4-1.1,2.2-0.7c1.5,0.8,2.4,2.3,2.4,4s-0.9,3.2-2.4,4l-11.6,6.1
	C23.5,38.4,22.2,38.7,21,38.7z"/>
<path class="st4" d="M17.8,15.6l9.7,2v1.2c0,0.2-0.1,0.5-0.4,0.6L21,22.6c0,0,0,0-0.1,0c-0.3,0.1-0.7,0-0.9-0.4l-2.1-5.3
	c0-0.1-0.1-0.2,0-0.3L17.8,15.6z"/>
<path class="st5" d="M17.9,15.9l2.1,5.3c0.1,0.3,0.5,0.5,0.9,0.4c0,0,0,0,0.1,0l6.3-3.3c0.3-0.2,0.5-0.6,0.3-0.9
	c-0.1-0.2-0.3-0.3-0.4-0.3L18.7,15c-0.4-0.1-0.7,0.1-0.8,0.5C17.8,15.6,17.8,15.7,17.9,15.9z"/>
</svg>
