<svg width="30" height="30" viewBox="0 0 30 30" fill="none" xmlns="http://www.w3.org/2000/svg">
<path d="M22.3763 25.3857H6.88269C5.68071 25.3857 4.61523 24.3531 4.61523 23.0046V6.99531C4.61523 5.64684 5.68071 4.61426 6.88269 4.61426H22.3763C23.5783 4.61426 24.6438 5.64684 24.6438 6.99531V23.0046C24.6438 24.3531 23.5783 25.3857 22.3763 25.3857Z" stroke="white" stroke-width="3"/>
<path d="M7.57227 9.80053C7.57227 10.8621 8.13862 11.8431 9.05798 12.3739C9.97734 12.9047 11.11 12.9047 12.0294 12.3739C12.9488 11.8431 13.5151 10.8621 13.5151 9.80053C13.5151 8.15946 12.1848 6.8291 10.5437 6.8291C8.90262 6.8291 7.57227 8.15946 7.57227 9.80053Z" fill="white"/>
<path opacity="0.6" d="M23.1192 15.3352C21.723 13.8974 19.4425 13.8974 18.0463 15.3352L7.01624 26.6937L6.83008 26.8854H22.4211C24.4689 26.8854 26.1444 25.1601 26.1444 23.0513V18.4983L23.1192 15.3352Z" fill="white"/>
<path d="M18.7152 26.8857L10.7273 18.3514C9.31764 16.8542 7.01523 16.8542 5.6056 18.3514L3.11523 21.0465V22.893C3.11523 25.089 4.8068 26.8857 6.87427 26.8857H18.7152Z" fill="white"/>
</svg>
