<svg width="55" height="54" viewBox="0 0 55 54" fill="none" xmlns="http://www.w3.org/2000/svg">
<circle opacity="0.35" cx="6.5" cy="7" r="6.5" fill="#FBCB67"/>
<path d="M24.9023 54V48.7891C21.1538 48.7891 18.1055 45.7408 18.1055 41.9922C18.1055 38.2436 21.1538 35.1953 24.9023 35.1953V30.0977H15.4039L16.2121 27.8276C16.3416 27.4675 16.4062 27.0875 16.4062 26.6992C16.4062 24.8258 14.8813 23.3008 13.0078 23.3008C11.1344 23.3008 9.60938 24.8258 9.60938 26.6992C9.60938 27.0875 9.67406 27.4675 9.80354 27.8276L10.6117 30.0977H1C1.84315 42.7956 12.2044 53.1568 24.9023 54Z" fill="#FBCB67"/>
<path d="M13.0078 19.9022C16.7564 19.9022 19.8047 22.9505 19.8047 26.6991H24.9023V17.2007L27.1724 18.0088C29.2649 18.7539 31.6975 17.0646 31.6992 14.8045C31.6975 12.5428 29.2665 10.8403 27.1724 11.6003L24.9023 12.4084V2.99609C12.2044 3.83925 1.84315 14.0011 1 26.6991H6.21094C6.21094 22.9505 9.25922 19.9022 13.0078 19.9022Z" fill="#FBCB67"/>
<path d="M37.797 12.0078C37.797 15.7564 34.7487 18.8047 31.0001 18.8047V23.9023H40.4986L39.6904 26.1724C38.9454 28.2649 40.6346 30.6975 42.8947 30.6992C45.1565 30.6975 46.859 28.2665 46.099 26.1724L45.2908 23.9023H54.7031C53.86 11.2044 43.6981 0.843152 31.0001 0V5.21094C34.7487 5.21094 37.797 8.25922 37.797 12.0078Z" fill="#FBCB67"/>
<path d="M52.0037 30.0977H46.9922C46.9922 33.8462 43.9439 36.8945 40.1953 36.8945C36.4467 36.8945 33.3984 33.8462 33.3984 30.0977H28.3008V39.5961L26.0307 38.7879C23.9299 38.0329 21.5022 39.7304 21.5039 41.9922C21.5022 44.254 23.9316 45.9515 26.0307 45.1965L28.3008 44.3883V54C40.9987 53.1568 51.1606 42.7956 52.0037 30.0977Z" fill="#FBCB67"/>
</svg>
