<svg width="32" height="32" viewBox="0 0 32 32" fill="none" xmlns="http://www.w3.org/2000/svg">
<path fill-rule="evenodd" clip-rule="evenodd" d="M22.3607 12.1199C22.3607 15.008 20.0583 17.3239 17.1868 17.3239C14.3153 17.3239 12.0129 15.008 12.0129 12.1199C12.0129 9.23061 14.3153 6.91699 17.1868 6.91699C20.0583 6.91699 22.3607 9.23061 22.3607 12.1199ZM17.1866 26.5835C12.9691 26.5835 9.3679 25.9149 9.3679 23.2404C9.3679 20.5648 12.9459 19.8718 17.1866 19.8718C21.404 19.8718 25.0052 20.5404 25.0052 23.216C25.0052 25.8905 21.4272 26.5835 17.1866 26.5835ZM24.5714 12.2137C24.5714 13.686 24.1322 15.0576 23.3618 16.1978C23.2826 16.3152 23.353 16.4735 23.4928 16.4978C23.6854 16.531 23.8846 16.5498 24.0871 16.5554C26.1067 16.6085 27.9194 15.3012 28.4201 13.3329C29.162 10.4093 26.9839 7.78465 24.2104 7.78465C23.9088 7.78465 23.6204 7.81675 23.3398 7.87432C23.3013 7.88317 23.2605 7.90089 23.2385 7.9352C23.2121 7.97727 23.2319 8.03373 23.2583 8.07026C24.0915 9.24478 24.5714 10.6772 24.5714 12.2137ZM27.9163 18.6093C29.2733 18.8761 30.1659 19.4207 30.5357 20.2122C30.8483 20.862 30.8483 21.6159 30.5357 22.2646C29.97 23.4923 28.1463 23.8864 27.4375 23.9882C27.2911 24.0103 27.1734 23.883 27.1888 23.7358C27.5509 20.334 24.6706 18.7211 23.9255 18.3503C23.8936 18.3337 23.887 18.3082 23.8903 18.2927C23.8925 18.2816 23.9057 18.2639 23.9299 18.2606C25.5423 18.2307 27.2757 18.4521 27.9163 18.6093ZM10.4117 16.5552C10.6142 16.5496 10.8123 16.5319 11.006 16.4976C11.1458 16.4732 11.2162 16.3149 11.137 16.1976C10.3666 15.0574 9.92743 13.6858 9.92743 12.2135C9.92743 10.677 10.4073 9.24456 11.2404 8.07003C11.2669 8.0335 11.2856 7.97705 11.2603 7.93498C11.2382 7.90177 11.1964 7.88295 11.159 7.8741C10.8772 7.81653 10.5889 7.78443 10.2873 7.78443C7.51381 7.78443 5.33573 10.4091 6.07863 13.3327C6.5794 15.3009 8.39209 16.6083 10.4117 16.5552ZM10.6081 18.2925C10.6114 18.3091 10.6048 18.3335 10.574 18.3512C9.82776 18.722 6.94749 20.3349 7.30959 23.7356C7.325 23.8839 7.20833 24.0101 7.06196 23.9891C6.35317 23.8873 4.52948 23.4932 3.96377 22.2655C3.6501 21.6157 3.6501 20.8629 3.96377 20.2131C4.33357 19.4216 5.22506 18.877 6.58209 18.6091C7.22374 18.453 8.95609 18.2316 10.5696 18.2615C10.5938 18.2648 10.6059 18.2825 10.6081 18.2925Z" fill="#FBCB67"/>
</svg>
