<svg width="32" height="32" viewBox="0 0 32 32" fill="none" xmlns="http://www.w3.org/2000/svg">
<path d="M24.5367 19.9824C23.5828 21.1053 22.6487 21.987 21.9113 22.6458C21.7035 22.8315 20.471 24.0668 19.2207 25.3325L20.1927 29.2204L23.0483 26.3647C24.491 24.9221 25.1134 22.8663 24.7133 20.8657L24.5367 19.9824Z" fill="#009191"/>
<path d="M11.7994 12.167C12.4172 11.4756 13.2332 10.61 14.2617 9.72227L13.3738 9.54765C11.3797 9.15548 9.33105 9.77932 7.89391 11.2164L5.02734 14.0829L8.90983 15.0413C10.2552 13.7211 11.6148 12.3737 11.7994 12.167Z" fill="#009191"/>
<path d="M20.56 15.0438C21.3072 15.0438 21.9129 14.438 21.9129 13.6908C21.9129 12.9436 21.3072 12.3379 20.56 12.3379C19.8128 12.3379 19.207 12.9436 19.207 13.6908C19.207 14.438 19.8128 15.0438 20.56 15.0438Z" fill="#009191"/>
<path d="M27.3237 6.25C23.9227 6.25 20.7954 7.06668 18.0289 8.6774C15.6054 10.0884 13.8885 11.8594 12.8079 13.0687C12.5016 13.4114 10.1446 15.7268 9.2623 16.59L8.77344 17.0683L17.1803 25.4751L17.6586 24.9893C18.4742 24.1609 20.6662 21.9436 21.0096 21.6368C22.235 20.5418 24.0321 18.8014 25.4848 16.3387C27.1539 13.5095 28.0001 10.3428 28.0001 6.92647V6.25L27.3237 6.25ZM18.0512 20.2577L13.9924 16.1989L14.9491 15.2422L19.0079 19.3011L18.0512 20.2577ZM20.559 16.3971C19.0669 16.3971 17.8531 15.1832 17.8531 13.6912C17.8531 12.1992 19.0669 10.9853 20.559 10.9853C22.051 10.9853 23.2648 12.1992 23.2648 13.6912C23.2648 15.1832 22.051 16.3971 20.559 16.3971Z" fill="#009191"/>
<path d="M7.02941 25.1914C5.90859 25.1914 5 26.1 5 27.2208V29.2502C5 29.2502 6.42839 29.2502 7.02941 29.2502C8.15023 29.2502 9.05882 28.3416 9.05882 27.2208C9.05882 26.1 8.15023 25.1914 7.02941 25.1914Z" fill="#009191"/>
<path d="M8.10307 20.4556L8.94067 21.2932L7.86328 23.942C9.06145 24.2465 10.0062 25.1923 10.3095 26.3911L12.9584 25.311L13.795 26.1475L14.8678 25.0748L9.17577 19.3828L8.10307 20.4556Z" fill="#009191"/>
</svg>
