<svg width="64" height="64" viewBox="0 0 64 64" fill="none" xmlns="http://www.w3.org/2000/svg">
<path opacity="0.4" d="M32 7C31.2227 7 30.5938 7.62897 30.5938 8.40625V11.3125C30.5938 12.0898 31.2227 12.7188 32 12.7188C32.7773 12.7188 33.4062 12.0898 33.4062 11.3125V8.40625C33.4062 7.62897 32.7773 7 32 7Z" fill="#EEAA3D"/>
<path opacity="0.4" d="M47.8314 21.8591C47.4427 21.1861 47.6734 20.3264 48.3464 19.9378L50.7825 18.5316C51.4514 18.1429 52.3152 18.3736 52.7038 19.0466C53.0924 19.7195 52.8617 20.5792 52.1888 20.9678L49.7526 22.374C49.0872 22.7584 48.2244 22.5375 47.8314 21.8591Z" fill="#EEAA3D"/>
<path opacity="0.4" d="M50.7825 43.4683L48.3464 42.0621C47.6734 41.6734 47.4427 40.8138 47.8314 40.1408C48.2201 39.4693 49.0811 39.2386 49.7526 39.6259L52.1888 41.0321C52.8617 41.4208 53.0925 42.2804 52.7038 42.9533C52.3113 43.6308 51.4489 43.8532 50.7825 43.4683Z" fill="#EEAA3D"/>
<path opacity="0.4" d="M41.1405 15.1691C40.4676 14.7804 40.2369 13.9208 40.6256 13.2479L42.0318 10.8117C42.4205 10.1375 43.2801 9.90534 43.953 10.2967C44.626 10.6854 44.8567 11.545 44.468 12.218L43.0618 14.6542C42.6694 15.3315 41.807 15.5541 41.1405 15.1691Z" fill="#EEAA3D"/>
<path opacity="0.4" d="M54.5938 32.4062H51.6875C50.9102 32.4062 50.2812 31.7773 50.2812 31C50.2812 30.2227 50.9102 29.5938 51.6875 29.5938H54.5938C55.371 29.5938 56 30.2227 56 31C56 31.7773 55.371 32.4062 54.5938 32.4062Z" fill="#EEAA3D"/>
<circle opacity="0.4" cx="18" cy="17" r="6" fill="#EEAA3D"/>
<path fill-rule="evenodd" clip-rule="evenodd" d="M16.7662 28.271C18.267 19.5374 25.138 15.4613 32.0001 15.5447C39.74 15.639 47.4689 21.0254 47.4689 30.9998C47.4689 35.2638 45.766 39.234 42.6747 42.1783C40.3593 44.3839 39.0314 47.5798 39.0314 50.781C39.0314 53.1073 37.1389 54.9998 34.8126 54.9998H32.0001H29.1876C26.8613 54.9998 24.9689 53.1073 24.9689 50.781C24.9689 47.5798 23.6409 44.3839 21.3241 42.1769C17.5846 38.6132 15.8818 33.4153 16.7662 28.271ZM23 30C23 25.0294 27.0294 21 32 21C36.9706 21 41 25.0294 41 30C41 30.5523 41.4477 31 42 31C42.5523 31 43 30.5523 43 30C43 23.9249 38.0751 19 32 19C25.9249 19 21 23.9249 21 30C21 30.5523 21.4477 31 22 31C22.5523 31 23 30.5523 23 30Z" fill="#EEAA3D"/>
</svg>
