<svg width="48" height="48" viewBox="0 0 48 48" fill="none" xmlns="http://www.w3.org/2000/svg">
<path d="M42.4907 42.5002V42.4986H42.4999V28.9289C42.4999 22.2905 41.0708 17.1768 33.3101 17.1768C29.5792 17.1768 27.0756 19.2241 26.0534 21.165H25.9455V17.7965H18.5872V42.4986H26.2492V30.267C26.2492 27.0465 26.8597 23.9323 30.848 23.9323C34.7777 23.9323 34.8363 27.6077 34.8363 30.4736V42.5002H42.4907Z" fill="#2F80ED"/>
<path d="M6.11041 17.7979H13.7817V42.5H6.11041V17.7979Z" fill="#2F80ED"/>
<path d="M9.94308 5.5C7.49029 5.5 5.5 7.49029 5.5 9.94308C5.5 12.3959 7.49029 14.4278 9.94308 14.4278C12.3959 14.4278 14.3862 12.3959 14.3862 9.94308C14.3846 7.49029 12.3943 5.5 9.94308 5.5V5.5Z" fill="#2F80ED"/>
</svg>
