<svg width="16" height="19" viewBox="0 0 16 19" fill="none" xmlns="http://www.w3.org/2000/svg">
<path d="M7.78593 0.5C3.74735 0.5 0.480469 3.74116 0.480469 7.7283C0.480469 12.1785 4.82773 16.0627 7.16857 18.2492C7.5287 18.5836 8.06889 18.5836 8.42902 18.2492C10.6927 16.1141 15.1171 12.1527 15.1171 7.7283C15.1171 3.74116 11.8245 0.5 7.78593 0.5ZM7.78593 10.455C6.26825 10.455 5.03352 9.24598 5.03352 7.7283C5.03352 6.21061 6.26825 5.02733 7.78593 5.02733C9.30362 5.02733 10.5383 6.23633 10.5383 7.75402C10.5383 9.2717 9.30362 10.455 7.78593 10.455Z" fill="white"/>
</svg>
