<svg width="20" height="20" viewBox="0 0 20 20" fill="none" xmlns="http://www.w3.org/2000/svg">
<path d="M10.2271 2.08325C6.63729 2.08325 3.7334 4.96428 3.7334 8.5084C3.7334 12.4641 7.59764 15.9168 9.67838 17.8603C9.99849 18.1576 10.4787 18.1576 10.7988 17.8603C12.8109 15.9625 16.7438 12.4412 16.7438 8.5084C16.7438 4.96428 13.817 2.08325 10.2271 2.08325ZM10.2271 10.9321C8.87809 10.9321 7.78056 9.85746 7.78056 8.5084C7.78056 7.15935 8.87809 6.10755 10.2271 6.10755C11.5762 6.10755 12.6737 7.18222 12.6737 8.53127C12.6737 9.88032 11.5762 10.9321 10.2271 10.9321Z" fill="#009191"/>
</svg>
