<svg width="65" height="64" viewBox="0 0 65 64" fill="none" xmlns="http://www.w3.org/2000/svg">
<path d="M10.6677 32C10.6677 29.6139 9.0816 27.6128 6.91627 26.9334C7.25333 25.2555 7.74933 23.6128 8.41387 22.0406C8.6432 21.4976 8.3904 20.8715 7.84747 20.6422C7.30347 20.4118 6.6784 20.6656 6.44907 21.2086C5.70027 22.9782 5.15093 24.8299 4.78613 26.7211C2.1056 26.9995 0 29.2459 0 31.999C0 34.752 2.1056 36.9984 4.78613 37.2768C5.15093 39.168 5.70027 41.0208 6.44907 42.7894C6.6208 43.1968 7.01653 43.44 7.43147 43.44C7.57013 43.44 7.71093 43.4134 7.8464 43.3558C8.38933 43.1264 8.6432 42.5003 8.4128 41.9574C7.74827 40.3851 7.25227 38.7424 6.9152 37.0646C9.0816 36.3872 10.6677 34.3862 10.6677 32Z" fill="#FF7673"/>
<path d="M64.0017 32.0004C64.0017 29.2474 61.8972 27.001 59.2167 26.7226C58.8519 24.8314 58.3015 22.9786 57.5527 21.21C57.3233 20.6671 56.6983 20.4132 56.1543 20.6436C55.6113 20.873 55.3575 21.4991 55.5879 22.042C56.2535 23.6143 56.7484 25.257 57.0855 26.9348C54.9201 27.6143 53.334 29.6154 53.334 32.0015C53.334 34.3876 54.9201 36.3887 57.0855 37.0682C56.7484 38.746 56.2524 40.3887 55.5879 41.961C55.3585 42.5039 55.6113 43.13 56.1543 43.3594C56.2897 43.417 56.4305 43.4436 56.5692 43.4436C56.9852 43.4436 57.3799 43.1994 57.5516 42.793C58.3004 41.0244 58.8497 39.1716 59.2156 37.2804C61.8972 36.9999 64.0017 34.7535 64.0017 32.0004Z" fill="#FF7673"/>
<path d="M52.2715 16.368C52.4817 16.64 52.7974 16.7829 53.1163 16.7829C53.3446 16.7829 53.5739 16.7104 53.7681 16.56C54.2342 16.2005 54.3206 15.5307 53.9601 15.0645C52.5073 13.1829 50.8145 11.4912 48.9307 10.0363C48.4646 9.67679 47.7958 9.76213 47.4342 10.2283C47.0747 10.6955 47.1601 11.3643 47.6262 11.7237C49.367 13.0677 50.9297 14.6304 52.2715 16.368Z" fill="#FF7673"/>
<path d="M41.9605 55.5863C40.3893 56.2508 38.7456 56.7468 37.0677 57.085C36.3883 54.9196 34.3872 53.3335 32.0011 53.3335C29.6149 53.3335 27.6139 54.9196 26.9344 57.085C25.2565 56.7479 23.6128 56.2519 22.0416 55.5863C21.4976 55.358 20.8725 55.6087 20.6432 56.1527C20.4139 56.6956 20.6667 57.3218 21.2096 57.5511C22.9781 58.2988 24.8309 58.8492 26.7221 59.2151C27.0005 61.8956 29.2469 64.0002 32 64.0002C34.7531 64.0002 36.9995 61.8956 37.2779 59.2151C39.1691 58.8492 41.0219 58.2988 42.7904 57.5511C43.3333 57.3218 43.5872 56.6956 43.3568 56.1527C43.1285 55.6098 42.5035 55.358 41.9605 55.5863Z" fill="#FF7673"/>
<path d="M52.2778 47.623C50.9348 49.3638 49.3722 50.9276 47.6335 52.2694C47.1674 52.6289 47.081 53.2988 47.4415 53.7649C47.6516 54.0369 47.9674 54.1798 48.2863 54.1798C48.5146 54.1798 48.7439 54.1073 48.938 53.9569C50.8207 52.5041 52.5124 50.8113 53.9663 48.9265C54.3258 48.4593 54.2404 47.7905 53.7732 47.43C53.306 47.0726 52.6362 47.1569 52.2778 47.623Z" fill="#FF7673"/>
<path d="M11.7316 47.6319C11.3711 47.1647 10.7012 47.0793 10.2351 47.4399C9.76893 47.7993 9.68253 48.4692 10.0431 48.9353C11.4959 50.8169 13.1887 52.5087 15.0724 53.9636C15.2665 54.114 15.4959 54.1865 15.7241 54.1865C16.0431 54.1865 16.3588 54.0436 16.5689 53.7716C16.9284 53.3044 16.8431 52.6356 16.3769 52.2761C14.6361 50.9321 13.0735 49.3695 11.7316 47.6319Z" fill="#FF7673"/>
<path d="M21.627 8.49813C21.7657 8.49813 21.9065 8.47146 22.042 8.41386C23.6132 7.74933 25.2569 7.25333 26.9348 6.9152C27.6142 9.08053 29.6153 10.6667 32.0014 10.6667C34.3876 10.6667 36.3886 9.08053 37.0681 6.9152C38.7459 7.25226 40.3897 7.74826 41.9609 8.41386C42.0963 8.47146 42.2371 8.49813 42.3758 8.49813C42.7918 8.49813 43.1865 8.25386 43.3582 7.84746C43.5875 7.30453 43.3347 6.6784 42.7918 6.44906C41.0233 5.70133 39.1705 5.15093 37.2793 4.78507C36.9998 2.10453 34.7545 0 32.0014 0C29.2484 0 27.002 2.10453 26.7236 4.78507C24.8324 5.15093 22.9796 5.70133 21.211 6.44906C20.6681 6.6784 20.4142 7.30453 20.6446 7.84746C20.8153 8.25386 21.211 8.49813 21.627 8.49813Z" fill="#FF7673"/>
<path d="M10.8804 16.7903C11.1993 16.7903 11.5151 16.6473 11.7252 16.3753C13.0681 14.6345 14.6308 13.0708 16.3695 11.7289C16.8356 11.3695 16.922 10.6996 16.5615 10.2335C16.2009 9.76627 15.5311 9.682 15.0649 10.0415C13.1823 11.4943 11.4905 13.1871 10.0367 15.0719C9.67721 15.5391 9.76254 16.2079 10.2297 16.5684C10.4239 16.7177 10.6532 16.7903 10.8804 16.7903Z" fill="#FF7673"/>
<path d="M29.6159 22.4003L23.4676 19.3262L17.3193 22.4003L23.4676 25.4744L29.6159 22.4003Z" fill="#FF7673"/>
<path d="M39.4684 36.9258L33.0684 40.1258V46.2741L39.4684 43.074V36.9258Z" fill="#FF7673"/>
<path d="M34.3867 22.4003L40.535 25.4744L46.6833 22.4003L40.535 19.3262L34.3867 22.4003Z" fill="#FF7673"/>
<path d="M41.6016 33.4742L48.0016 30.2742V24.126L41.6016 27.326V33.4742Z" fill="#FF7673"/>
<path d="M30.9342 24.126L24.5342 27.326V33.4742L30.9342 30.2742V24.126Z" fill="#FF7673"/>
<path d="M39.4684 27.326L33.0684 24.126V30.2742L39.4684 33.4742V27.326Z" fill="#FF7673"/>
<path d="M38.149 35.2001L32.0018 32.126L25.8535 35.2001L32.0018 38.2743L38.149 35.2001Z" fill="#FF7673"/>
<path d="M24.5342 43.074L30.9342 46.2741V40.1258L24.5342 36.9258V43.074Z" fill="#FF7673"/>
<path d="M16.002 30.2742L22.402 33.4742V27.326L16.002 24.126V30.2742Z" fill="#FF7673"/>
</svg>
