<svg width="42" height="43" viewBox="0 0 42 43" fill="none" xmlns="http://www.w3.org/2000/svg">
<path d="M25.0299 20.2601C26.8675 18.1481 26.6047 14.9379 24.4172 13.1637C22.2297 11.3894 18.9049 11.6431 17.0673 13.7552C15.2297 15.8673 15.4925 19.0774 17.68 20.8517C19.3424 22.2035 21.6175 22.4568 23.5422 21.4428L23.1923 20.3447H21.0048C19.0797 20.3447 17.5048 18.8242 17.5048 16.9654C17.5048 15.1066 19.0797 13.5861 21.0048 13.5861H23.4546L25.0299 20.2601Z" fill="#EB6161"/>
<path d="M36.7549 12.3188V18.4859L40.78 15.8673L36.7549 12.3188Z" fill="#EB6161"/>
<path d="M19.2549 16.9655C19.2549 17.8949 20.0423 18.6552 21.0049 18.6552H22.8425L22.0551 15.2759H21.0049C20.0423 15.2759 19.2549 16.0361 19.2549 16.9655Z" fill="#EB6161"/>
<path d="M0.879883 41.4653C0.879883 41.9723 1.2298 42.3102 1.75488 42.3102H39.5551L0.879883 17.7256V41.4653Z" fill="#EB6161"/>
<path d="M5.25507 12.5723L1.22998 15.8674L5.25507 18.4861V12.5723Z" fill="#EB6161"/>
<path d="M22.6675 29.5532L41.1301 41.2962V17.7256L22.6675 29.5532Z" fill="#EB6161"/>
<path d="M35.0049 19.5846V0.844828C35.0049 0.337849 34.655 0 34.1299 0H7.87988C7.3548 0 7.00488 0.337849 7.00488 0.844828V19.5846L21.0925 28.5398L35.0049 19.5846ZM33.2549 16.9655H29.7549V15.2759H33.2549V16.9655ZM33.2549 12.7414H28.8799V11.0517H33.2549V12.7414ZM8.75488 2.60345H33.2549V4.2931H8.75488V2.60345ZM8.75488 6.82759H33.2549V8.51724H8.75488V6.82759ZM12.2549 16.9655H8.75488V15.2759H12.2549V16.9655ZM13.1299 12.7414H8.75488V11.0517H13.1299V12.7414ZM14.0049 16.9655C14.0049 13.2484 17.155 10.2069 21.0049 10.2069C24.8548 10.2069 28.0049 13.2484 28.0049 16.9655C28.0049 20.6827 24.8548 23.7241 21.0049 23.7241C17.155 23.7241 14.0049 20.6827 14.0049 16.9655Z" fill="#EB6161"/>
</svg>
