<svg width="80" height="80" viewBox="0 0 80 80" fill="none" xmlns="http://www.w3.org/2000/svg">
<path d="M28.6423 46.4701L51.4749 27.3935L21.2882 40.8481L4.68998 28.159C4.32539 27.8805 4.04859 27.503 3.89257 27.0715C3.73655 26.6401 3.70789 26.1728 3.81001 25.7255C3.91213 25.2782 4.14071 24.8697 4.46853 24.5487C4.79634 24.2277 5.20954 24.0077 5.65888 23.915L72.9272 10.0489C73.3212 9.96799 73.7292 9.98773 74.1135 10.1063C74.4979 10.2248 74.8461 10.4384 75.1261 10.7271C75.406 11.0159 75.6087 11.3706 75.7152 11.7585C75.8218 12.1463 75.8289 12.5548 75.7358 12.946L62.5539 68.1616C62.4616 68.5495 62.2738 68.9082 62.0076 69.205C61.7414 69.5018 61.4052 69.7274 61.0296 69.8612C60.654 69.995 60.2509 70.0329 59.857 69.9713C59.4631 69.9097 59.0908 69.7506 58.774 69.5085L28.6423 46.4701ZM22.3743 65.5372L25.6638 50.14L38.5586 60.0946L25.9915 68.0564C25.5935 68.3085 25.1299 68.4375 24.6589 68.4272C24.1879 68.4168 23.7304 68.2677 23.3438 67.9984C22.9572 67.7291 22.6588 67.3516 22.4859 66.9134C22.313 66.4751 22.2733 65.9955 22.3719 65.5348L22.3743 65.5372Z" fill="white"/>
</svg>
