<svg width="64" height="64" viewBox="0 0 64 64" fill="none" xmlns="http://www.w3.org/2000/svg">
<circle opacity="0.15" cx="10.5" cy="12.5" r="9.5" fill="#FF7673"/>
<path fill-rule="evenodd" clip-rule="evenodd" d="M44.7232 24.2393C44.7232 30.0156 40.1183 34.6472 34.3754 34.6472C28.6324 34.6472 24.0275 30.0156 24.0275 24.2393C24.0275 18.4607 28.6324 13.8335 34.3754 13.8335C40.1183 13.8335 44.7232 18.4607 44.7232 24.2393ZM34.3753 53.1668C25.9403 53.1668 18.738 51.8296 18.738 46.4806C18.738 41.1293 25.8941 39.7434 34.3753 39.7434C42.8103 39.7434 50.0126 41.0806 50.0126 46.4319C50.0126 51.7809 42.8565 53.1668 34.3753 53.1668ZM49.1452 24.427C49.1452 27.3716 48.2669 30.1148 46.7261 32.3952C46.5676 32.6299 46.7084 32.9465 46.988 32.9952C47.3732 33.0616 47.7716 33.0992 48.1766 33.1103C52.2158 33.2166 55.8412 30.6018 56.8428 26.6654C58.3264 20.8182 53.9702 15.5688 48.4232 15.5688C47.82 15.5688 47.2433 15.633 46.682 15.7482C46.605 15.7659 46.5235 15.8013 46.4795 15.8699C46.4267 15.9541 46.4663 16.067 46.5191 16.14C48.1854 18.4891 49.1452 21.354 49.1452 24.427ZM55.8346 37.2186C58.5487 37.7521 60.3339 38.8414 61.0735 40.4244C61.6986 41.724 61.6986 43.2318 61.0735 44.5292C59.9421 46.9845 56.2947 47.7727 54.8771 47.9763C54.5843 48.0206 54.3488 47.766 54.3796 47.4716C55.1038 40.668 49.3433 37.4422 47.8531 36.7005C47.7892 36.6673 47.776 36.6164 47.7826 36.5854C47.787 36.5632 47.8135 36.5278 47.8619 36.5212C51.0866 36.4614 54.5535 36.9042 55.8346 37.2186ZM20.8252 33.1101C21.2303 33.099 21.6265 33.0636 22.0139 32.9949C22.2934 32.9462 22.4343 32.6296 22.2758 32.3949C20.735 30.1145 19.8567 27.3714 19.8567 24.4268C19.8567 21.3538 20.8164 18.4889 22.4827 16.1398C22.5356 16.0668 22.573 15.9538 22.5224 15.8697C22.4783 15.8033 22.3947 15.7657 22.3199 15.7479C21.7563 15.6328 21.1796 15.5686 20.5765 15.5686C15.0295 15.5686 10.6733 20.818 12.1591 26.6651C13.1607 30.6016 16.786 33.2163 20.8252 33.1101ZM21.2181 36.584C21.2247 36.6173 21.2115 36.666 21.1499 36.7014C19.6575 37.4431 13.8969 40.6689 14.6211 47.4702C14.6519 47.7669 14.4186 48.0193 14.1259 47.9772C12.7083 47.7736 9.06091 46.9854 7.92949 44.5301C7.30215 43.2304 7.30215 41.7249 7.92949 40.4253C8.66909 38.8423 10.4521 37.753 13.1661 37.2172C14.4494 36.9051 17.9141 36.4623 21.1411 36.5221C21.1895 36.5287 21.2137 36.5641 21.2181 36.584Z" fill="#FF7673"/>
</svg>
