<svg width="64" height="64" viewBox="0 0 64 64" fill="none" xmlns="http://www.w3.org/2000/svg">
<circle opacity="0.35" cx="10" cy="14" r="10" fill="#326E98"/>
<path fill-rule="evenodd" clip-rule="evenodd" d="M44.8735 30.1164L37.7689 39.2835C37.2035 40.0234 36.2202 40.2177 35.4335 39.7997L35.2123 39.6547L28.206 34.3914L22.0356 42.3343C21.6914 42.7989 21.153 43.0964 20.5852 43.0718C20.1673 43.0718 19.7985 42.9243 19.4543 42.703C18.7168 42.1597 18.5202 41.1518 18.9381 40.3676L19.088 40.1464L26.3623 30.6793C26.6597 30.286 27.1022 30.018 27.5914 29.9443C28.0831 29.8927 28.5748 30.018 28.9927 30.3376L35.8047 35.6968L41.7514 28.0022C42.1472 27.4614 42.8085 27.1664 43.4747 27.2401C44.1114 27.2893 44.7039 27.7072 44.9718 28.3218C45.2423 28.9364 45.1685 29.6247 44.7752 30.1655L44.8735 30.1164ZM42.8331 14.1372C42.8331 13.5226 42.8823 12.908 42.9806 12.2935H23.1935C14.8327 12.2935 9.91602 17.2593 9.91602 25.6176V43.8068C9.91602 52.143 14.8327 57.0843 23.1935 57.0843H41.3581C49.7164 57.0843 54.6331 52.143 54.6331 43.8068V23.9705C54.0185 24.0689 53.4285 24.1402 52.8139 24.1402C47.3073 24.1402 42.8331 19.6685 42.8331 14.1372Z" fill="#326E98"/>
<path d="M57.803 14.2595C57.6438 14.4138 57.5707 14.6368 57.607 14.8556L58.1533 17.8794C58.1994 18.1357 58.0912 18.395 57.8768 18.5431C57.6666 18.6968 57.3869 18.7152 57.1577 18.5923L54.4357 17.1726C54.3411 17.1222 54.236 17.0952 54.1284 17.0921H53.9619C53.9041 17.1007 53.8475 17.1191 53.7959 17.1474L51.0733 18.5739C50.9387 18.6415 50.7863 18.6654 50.637 18.6415C50.2731 18.5726 50.0304 18.226 50.09 17.8603L50.637 14.8366C50.6732 14.616 50.6001 14.3916 50.4409 14.2349L48.2217 12.0839C48.036 11.9038 47.9715 11.6334 48.0563 11.3894C48.1387 11.146 48.3489 10.9684 48.6027 10.9285L51.6572 10.4853C51.8895 10.4614 52.0935 10.32 52.198 10.1111L53.5439 7.35158C53.5759 7.29012 53.6171 7.23358 53.6669 7.18564L53.7222 7.14262C53.7511 7.11066 53.7842 7.08423 53.8211 7.06272L53.8881 7.03814L53.9926 6.99512H54.2513C54.4824 7.01909 54.6858 7.15737 54.7922 7.36387L56.1559 10.1111C56.2543 10.312 56.4454 10.4515 56.666 10.4853L59.7205 10.9285C59.9786 10.9653 60.1944 11.1436 60.2798 11.3894C60.3603 11.6358 60.2908 11.9063 60.1015 12.0839L57.803 14.2595Z" fill="#326E98"/>
</svg>
