<svg width="64" height="64" viewBox="0 0 64 64" fill="none" xmlns="http://www.w3.org/2000/svg">
<path d="M49.0727 39.9648C47.1649 42.2105 45.2967 43.974 43.8221 45.2916C43.4065 45.663 40.9413 48.1335 38.4408 50.665L40.3847 58.4407L46.096 52.7294C48.9814 49.8441 50.2263 45.7326 49.426 41.7313L49.0727 39.9648Z" fill="#EB6161"/>
<path d="M23.5977 24.3345C24.8333 22.9518 26.4652 21.2204 28.5222 19.445L26.7463 19.0958C22.7581 18.3114 18.6609 19.5591 15.7866 22.4333L10.0535 28.1663L17.8184 30.0831C20.5092 27.4427 23.2283 24.7478 23.5977 24.3345Z" fill="#EB6161"/>
<path d="M41.1176 30.0885C42.612 30.0885 43.8235 28.8771 43.8235 27.3826C43.8235 25.8882 42.612 24.6768 41.1176 24.6768C39.6232 24.6768 38.4117 25.8882 38.4117 27.3826C38.4117 28.8771 39.6232 30.0885 41.1176 30.0885Z" fill="#FF7673"/>
<path d="M54.647 12.5C47.845 12.5 41.5905 14.1334 36.0574 17.3548C31.2104 20.1768 27.7765 23.7188 25.6154 26.1374C25.0028 26.8229 20.2889 31.4535 18.5242 33.18L17.5465 34.1365L34.3602 50.9501L35.3168 49.9785C36.948 48.3217 41.3319 43.8872 42.0189 43.2736C44.4697 41.0837 48.0638 37.6027 50.9692 32.6775C54.3074 27.019 55.9999 20.6856 55.9999 13.8529V12.5L54.647 12.5ZM36.1021 40.5154L27.9845 32.3978L29.8978 30.4845L38.0154 38.6021L36.1021 40.5154ZM41.1175 32.7941C38.1335 32.7941 35.7058 30.3664 35.7058 27.3824C35.7058 24.3983 38.1335 21.9706 41.1175 21.9706C44.1016 21.9706 46.5293 24.3983 46.5293 27.3824C46.5293 30.3664 44.1016 32.7941 41.1175 32.7941Z" fill="#EB6161"/>
<path opacity="0.75" d="M14.0588 50.3823C11.8172 50.3823 10 52.1995 10 54.4412V58.5C10 58.5 12.8568 58.5 14.0588 58.5C16.3005 58.5 18.1176 56.6828 18.1176 54.4412C18.1176 52.1995 16.3005 50.3823 14.0588 50.3823Z" fill="#EB6161"/>
<path d="M16.2044 40.9116L17.8796 42.5868L15.7249 47.8844C18.1212 48.4936 20.0107 50.3852 20.6173 52.7826L25.9151 50.6224L27.5883 52.2955L29.7338 50.15L18.3498 38.7661L16.2044 40.9116Z" fill="#EB6161"/>
<circle opacity="0.35" cx="14.5" cy="12" r="6.5" fill="#EB6161"/>
</svg>
