<svg width="60" height="49" viewBox="0 0 60 49" fill="none" xmlns="http://www.w3.org/2000/svg">
<path d="M21.9636 14.3482H38.9337C39.3796 14.3482 39.7409 13.9867 39.7409 13.5408C39.7409 13.0949 39.3796 12.7334 38.9337 12.7334H21.9636C21.5177 12.7334 21.1562 13.0949 21.1562 13.5408C21.1562 13.9867 21.5177 14.3482 21.9636 14.3482Z" fill="#00BCBC"/>
<path d="M6.78786 22.2426H23.7578C24.2037 22.2426 24.5652 21.8811 24.5652 21.4352C24.5652 20.9893 24.2037 20.6279 23.7578 20.6279H6.78786C6.34194 20.6279 5.98047 20.9893 5.98047 21.4352C5.98047 21.8811 6.34194 22.2426 6.78786 22.2426Z" fill="#00BCBC"/>
<path d="M11.3428 30.5495C11.3428 30.9954 11.7042 31.357 12.1502 31.357H29.1201C29.566 31.357 29.9275 30.9954 29.9275 30.5495C29.9275 30.1035 29.566 29.7422 29.1201 29.7422H12.1502C11.7042 29.7422 11.3428 30.1035 11.3428 30.5495Z" fill="#00BCBC"/>
<path d="M21.0549 39.9331H5.80739C5.36147 39.9331 5 40.2945 5 40.7404C5 41.1863 5.36147 41.5478 5.80739 41.5478H21.0549C21.5009 41.5478 21.8623 41.1863 21.8623 40.7404C21.8623 40.2945 21.5009 39.9331 21.0549 39.9331Z" fill="#00BCBC"/>
<path d="M48.4926 19.4103C50.928 19.4103 52.9024 17.4358 52.9024 15.0003C52.9024 12.5648 50.9279 10.5903 48.4926 10.5903C46.0567 10.5903 44.082 12.5649 44.082 15.0003C44.0819 17.4358 46.0566 19.4103 48.4926 19.4103Z" fill="#00BCBC"/>
<path d="M55.7451 18.1405C53.2129 21.6875 49.8221 22.0982 46.1733 19.9321C45.925 19.7849 44.823 19.1777 44.579 19.0327C38.7092 15.5481 32.8462 16.9146 28.9144 22.4208C27.2435 24.7627 31.1079 26.9825 32.76 24.6679C34.7915 21.823 37.3747 20.9998 40.1998 21.9009C38.7533 24.4118 37.4885 26.9075 35.704 30.4533C33.9189 33.999 29.9778 36.8306 26.1909 34.6159C23.4585 33.0189 20.9943 36.9443 23.7186 38.5364C28.8885 41.558 34.9505 39.7026 38.0451 35.7749C38.1524 35.8323 38.2658 35.884 38.3903 35.9276C40.9184 36.8083 44.2323 39.1533 45.242 39.9844C46.2515 40.8154 47.9859 45.0492 49.0158 47.1764C50.2653 49.7575 54.3005 47.8776 53.0464 45.2855C51.8789 42.872 49.9192 38.055 48.3907 36.8363C47.1645 35.8589 44.7841 34.0398 42.7651 33.0078C44.131 30.362 45.5532 27.7448 47.0504 25.1728C51.8228 26.635 56.3591 24.9126 59.5898 20.387C61.2619 18.0455 57.3985 15.8257 55.7451 18.1405Z" fill="#00BCBC"/>
<circle opacity="0.15" cx="8" cy="8" r="8" fill="#00BCBC"/>
</svg>
