<svg width="48" height="43" viewBox="0 0 48 43" fill="none" xmlns="http://www.w3.org/2000/svg">
<path fill-rule="evenodd" clip-rule="evenodd" d="M24.9732 3.05859C15.5991 3.05859 8 10.6577 8 20.0318C8 29.4059 15.5991 37.005 24.9732 37.005C34.3473 37.005 41.9464 29.4059 41.9464 20.0318C41.9464 10.6577 34.3473 3.05859 24.9732 3.05859ZM47.3005 42.1915C46.356 43.1526 44.8024 43.1662 43.8413 42.2218L37.0567 35.5551C38.3474 34.5489 39.5091 33.3852 40.5135 32.0931L47.2702 38.7324C48.2313 39.6767 48.2449 41.2303 47.3005 42.1915ZM24.9732 7.78438C31.7373 7.78438 37.2206 13.2677 37.2206 20.0317C37.2206 26.7957 31.7372 32.2791 24.9732 32.2791C18.2091 32.2791 12.7259 26.7957 12.7259 20.0317C12.7259 13.2677 18.2092 7.78438 24.9732 7.78438Z" fill="#F3B781"/>
<circle opacity="0.15" cx="8" cy="8" r="8" fill="#F3B781"/>
</svg>
