<svg width="42" height="42" viewBox="0 0 42 42" fill="none" xmlns="http://www.w3.org/2000/svg">
<path d="M40.2542 1.90042C39.2333 0.857128 37.7225 0.471253 36.3137 0.879586L3.46333 10.3713C1.97699 10.7837 0.923493 11.9618 0.639702 13.4563C0.349785 14.9793 1.36245 16.9148 2.68545 17.7233L12.9571 23.9953C14.0106 24.6405 15.3703 24.4792 16.2421 23.6054L28.0042 11.8433C28.5962 11.2288 29.5762 11.2288 30.1683 11.8433C30.7604 12.4334 30.7604 13.395 30.1683 14.0075L18.3859 25.7695C17.512 26.6434 17.3487 27.999 17.9918 29.0546L24.2679 39.365C25.0029 40.588 26.2687 41.2842 27.6571 41.2842C27.8204 41.2842 28.0042 41.2842 28.1675 41.2617C29.76 41.0596 31.0258 39.9755 31.4954 38.4442L41.2342 5.84084C41.6629 4.4525 41.275 2.94167 40.2542 1.90042Z" fill="#009191"/>
<path opacity="0.4" fill-rule="evenodd" clip-rule="evenodd" d="M2.65281 30.9529C2.26081 30.9529 1.86881 30.8038 1.57073 30.5037C0.972518 29.9055 0.972518 28.9378 1.57073 28.3396L4.3576 25.5506C4.95581 24.9545 5.9256 24.9545 6.52381 25.5506C7.11998 26.1488 7.11998 27.1186 6.52381 27.7168L3.73489 30.5037C3.43681 30.8038 3.04481 30.9529 2.65281 30.9529ZM10.3319 33.387C9.93995 33.387 9.54795 33.2379 9.24986 32.9378C8.65166 32.3396 8.65166 31.3718 9.24986 30.7736L12.0367 27.9847C12.6349 27.3886 13.6047 27.3886 14.203 27.9847C14.7991 28.5829 14.7991 29.5527 14.203 30.1509L11.414 32.9378C11.1159 33.2379 10.7239 33.387 10.3319 33.387ZM10.8499 40.6717C11.148 40.9718 11.54 41.1209 11.932 41.1209C12.324 41.1209 12.716 40.9718 13.0141 40.6717L15.803 37.8848C16.3992 37.2866 16.3992 36.3168 15.803 35.7186C15.2048 35.1224 14.235 35.1224 13.6368 35.7186L10.8499 38.5075C10.2517 39.1057 10.2517 40.0735 10.8499 40.6717Z" fill="#009191"/>
</svg>
