<svg width="64" height="64" viewBox="0 0 64 64" fill="none" xmlns="http://www.w3.org/2000/svg">
<path d="M51.3442 39.3389C50.9478 38.7264 50.3844 38.1139 49.6541 37.726C49.0699 37.4402 48.6943 36.9706 48.3605 36.4193C47.2964 34.6635 47.9223 32.3564 49.6959 31.3152C51.7824 30.1514 52.45 27.5585 51.2399 25.5372L49.8419 23.1281C48.6526 21.1068 46.0445 20.3922 43.9789 21.5764C42.1427 22.5564 39.785 21.9031 38.7209 20.1677C38.3871 19.596 38.1993 18.9835 38.241 18.371C38.3036 17.5747 38.0532 16.8193 37.6776 16.2068C36.9056 14.941 35.5077 14.0835 33.9637 14.0835H31.0217C29.4986 14.1243 28.1006 14.941 27.3286 16.2068C26.9322 16.8193 26.7027 17.5747 26.7444 18.371C26.7861 18.9835 26.5984 19.596 26.2645 20.1677C25.2004 21.9031 22.8427 22.5564 21.0274 21.5764C18.9409 20.3922 16.3537 21.1068 15.1435 23.1281L13.7455 25.5372C12.5562 27.5585 13.2239 30.1514 15.2895 31.3152C17.0631 32.3564 17.689 34.6635 16.6458 36.4193C16.2911 36.9706 15.9155 37.4402 15.3313 37.726C14.6219 38.1139 13.9959 38.7264 13.6621 39.3389C12.8901 40.6047 12.9318 42.1972 13.7038 43.5243L15.1435 45.9743C15.9155 47.281 17.3552 48.0977 18.8575 48.0977C19.5669 48.0977 20.4015 47.8935 21.0691 47.4852C21.5908 47.1381 22.2167 47.0156 22.9053 47.0156C24.9709 47.0156 26.7027 48.7102 26.7444 50.7314C26.7444 53.0793 28.664 54.9168 31.0843 54.9168H33.922C36.3214 54.9168 38.241 53.0793 38.241 50.7314C38.3036 48.7102 40.0354 47.0156 42.101 47.0156C42.7687 47.0156 43.3946 47.1381 43.9371 47.4852C44.6048 47.8935 45.4185 48.0977 46.1488 48.0977C47.6302 48.0977 49.0699 47.281 49.8419 45.9743L51.3025 43.5243C52.0536 42.1564 52.1162 40.6047 51.3442 39.3389Z" fill="#326E98"/>
<circle opacity="0.15" cx="20.5" cy="15.5" r="9.5" fill="#326E98"/>
<path d="M32.5243 40.2781C29.2485 40.2781 26.5986 37.726 26.5986 34.5206C26.5986 31.3152 29.2485 28.7427 32.5243 28.7427C35.8001 28.7427 38.3873 31.3152 38.3873 34.5206C38.3873 37.726 35.8001 40.2781 32.5243 40.2781Z" fill="white"/>
</svg>
