<svg width="44" height="44" viewBox="0 0 44 44" fill="none" xmlns="http://www.w3.org/2000/svg">
<path d="M16.3439 23.168C13.8499 23.168 11.8271 25.1908 11.8271 27.6848V38.983C11.8271 41.477 13.8499 43.4998 16.3439 43.4998C18.8379 43.4998 20.8607 41.477 20.8607 38.983V27.6848C20.8589 25.1908 18.8361 23.168 16.3439 23.168Z" fill="#EB5757"/>
<path d="M0.533447 27.6849C0.533447 30.1807 2.55803 32.2053 5.05382 32.2053C7.54961 32.2053 9.5742 30.1807 9.5742 27.6849V23.1646H5.05741C5.05561 23.1646 5.05561 23.1646 5.05382 23.1646C2.55803 23.1646 0.533447 25.1891 0.533447 27.6849Z" fill="#EB5757"/>
<path d="M16.3495 0.5C16.3477 0.5 16.3459 0.5 16.3441 0.5C13.8483 0.5 11.8237 2.52458 11.8237 5.02037C11.8237 7.51617 13.8483 9.54075 16.3441 9.54075H20.8609C20.8609 6.97687 20.8609 7.60037 20.8609 5.01142C20.8591 2.51921 18.8399 0.5 16.3495 0.5Z" fill="#56CCF2"/>
<path d="M5.02038 20.5427H16.3401C18.8359 20.5427 20.8605 18.5181 20.8605 16.0223C20.8605 13.5265 18.8359 11.502 16.3401 11.502H5.02038C2.52458 11.502 0.5 13.5265 0.5 16.0223C0.5 18.5181 2.52458 20.5427 5.02038 20.5427Z" fill="#56CCF2"/>
<path d="M38.9443 11.8306C36.4521 11.8306 34.4329 13.8498 34.4329 16.342V16.3509V20.8713H38.9497C41.4454 20.8713 43.47 18.8467 43.47 16.3509C43.47 13.8551 41.4454 11.8306 38.9497 11.8306C38.9479 11.8306 38.9461 11.8306 38.9443 11.8306Z" fill="#6FCF97"/>
<path d="M23.1489 5.02021V16.3525C23.1489 18.8465 25.1717 20.8693 27.6657 20.8693C30.1597 20.8693 32.1825 18.8465 32.1825 16.3525V5.02021C32.1825 2.52621 30.1597 0.503418 27.6657 0.503418C25.1717 0.503418 23.1489 2.52621 23.1489 5.02021Z" fill="#6FCF97"/>
<path d="M32.1796 38.9797C32.1796 36.4857 30.1568 34.4629 27.6628 34.4629H23.146V38.9833C23.1478 41.4755 25.1688 43.4965 27.6628 43.4965C30.1568 43.4965 32.1796 41.4737 32.1796 38.9797Z" fill="#F2C94C"/>
<path d="M38.9827 23.1646H27.663C25.1672 23.1646 23.1426 25.1891 23.1426 27.6849C23.1426 30.1807 25.1672 32.2053 27.663 32.2053H38.9827C41.4785 32.2053 43.5031 30.1807 43.5031 27.6849C43.5031 25.1891 41.4785 23.1646 38.9827 23.1646Z" fill="#F2C94C"/>
</svg>
