<svg width="64" height="64" viewBox="0 0 64 64" fill="none" xmlns="http://www.w3.org/2000/svg">
<circle opacity="0.35" cx="17" cy="15" r="6" fill="#FBCB67"/>
<path d="M46.3031 37.607C45.6772 38.2136 45.3896 39.0908 45.5322 39.9512L47.6806 51.8412C47.8619 52.8489 47.4366 53.8687 46.5931 54.4512C45.7666 55.0553 44.667 55.1278 43.7656 54.6445L33.0622 49.062C32.6901 48.8638 32.2768 48.7575 31.8539 48.7454H31.199C30.9718 48.7792 30.7495 48.8517 30.5465 48.9629L19.8406 54.572C19.3114 54.8378 18.7121 54.9321 18.1248 54.8378C16.6941 54.5672 15.7396 53.2042 15.974 51.7662L18.1248 39.8762C18.2674 39.0087 17.9798 38.1266 17.3539 37.5103L8.6273 29.052C7.89747 28.3439 7.64372 27.2806 7.97722 26.3212C8.30105 25.3642 9.12755 24.6657 10.1256 24.5087L22.1365 22.7662C23.05 22.672 23.8523 22.1162 24.2631 21.2945L29.5556 10.4437C29.6813 10.202 29.8432 9.97966 30.039 9.79116L30.2565 9.62199C30.3701 9.49633 30.5006 9.39241 30.6456 9.30783L30.909 9.21116L31.3198 9.04199H32.3372C33.2459 9.13624 34.0458 9.67999 34.4639 10.492L39.8265 21.2945C40.2131 22.0847 40.9647 22.6333 41.8323 22.7662L53.8431 24.5087C54.8581 24.6537 55.7064 25.3545 56.0423 26.3212C56.3589 27.2902 56.0858 28.3536 55.3415 29.052L46.3031 37.607Z" fill="#FBCB67"/>
</svg>
