<svg width="36" height="36" viewBox="0 0 36 36" fill="none" xmlns="http://www.w3.org/2000/svg">
<path opacity="0.6" d="M28.9031 5.02539H14.9756C12.4059 5.02539 10.2988 7.1098 10.2988 9.7026V20.2263C10.2988 22.8191 12.4059 24.9035 14.9756 24.9035H23.1985L26.4877 27.903C27.4127 28.7673 29.0059 28.1572 29.0059 26.8862V24.8527C31.5242 24.8527 33.5799 22.7683 33.5799 20.2263V9.7026C33.5799 7.1098 31.4728 5.02539 28.9031 5.02539Z" fill="white"/>
<path d="M21.1434 9.33691H7.21584C4.64618 9.33691 2.53906 11.4168 2.53906 14.0039V24.5047C2.53906 27.0411 4.59479 29.121 7.11305 29.1717V31.2009C7.11305 32.4691 8.70624 33.0778 9.63131 32.2154L12.9205 29.2225H21.1434C23.713 29.2225 25.8201 27.1426 25.8201 24.5554V14.0039C25.8201 11.4168 23.713 9.33691 21.1434 9.33691Z" fill="white"/>
<path d="M15.135 16.7602H8.78082C8.19346 16.7602 7.71289 16.3199 7.71289 15.7818V15.4882C7.71289 14.9501 8.19346 14.5098 8.78082 14.5098H15.135C15.7224 14.5098 16.2029 14.9501 16.2029 15.4882V15.7818C16.2029 16.3199 15.7224 16.7602 15.135 16.7602ZM18.766 21.4079H8.78082C8.19346 21.4079 7.71289 20.9676 7.71289 20.4294V20.1359C7.71289 19.5977 8.19346 19.1574 8.78082 19.1574H18.7126C19.2999 19.1574 19.7805 19.5977 19.7805 20.1359V20.4294C19.8339 20.9676 19.3533 21.4079 18.766 21.4079Z" fill="#00BCBC"/>
</svg>
