<svg width="64" height="64" viewBox="0 0 64 64" fill="none" xmlns="http://www.w3.org/2000/svg">
<circle opacity="0.35" cx="14.5" cy="16.5" r="11.5" fill="#00BCBC"/>
<path fill-rule="evenodd" clip-rule="evenodd" d="M32.4994 57.0837C18.9293 57.0837 7.91602 46.0949 7.91602 32.5003C7.91602 18.9303 18.9293 7.91699 32.4994 7.91699C46.0939 7.91699 57.0827 18.9303 57.0827 32.5003C57.0827 46.0949 46.0939 57.0837 32.4994 57.0837ZM40.3414 41.6207C40.6364 41.7928 40.956 41.8911 41.3002 41.8911C41.9148 41.8911 42.5293 41.5716 42.8735 40.9816C43.3898 40.1211 43.1193 38.9903 42.2343 38.4495L33.4827 33.2378V21.8803C33.4827 20.8478 32.6468 20.0366 31.6389 20.0366C30.631 20.0366 29.7952 20.8478 29.7952 21.8803V34.2949C29.7952 34.9341 30.1393 35.5241 30.7048 35.8682L40.3414 41.6207Z" fill="#00BCBC"/>
</svg>
