<svg width="16" height="16" viewBox="0 0 16 16" fill="none" xmlns="http://www.w3.org/2000/svg">
<path d="M7.992 4.00036e-06C6.41009 0.00158591 4.86416 0.472122 3.54962 1.35213C2.23508 2.23215 1.21095 3.48213 0.606673 4.94407C0.00239918 6.40602 -0.154887 8.0143 0.154698 9.56562C0.464282 11.1169 1.22684 12.5417 2.34598 13.6597C3.46511 14.7777 4.89059 15.5388 6.44222 15.8469C7.99385 16.1549 9.60197 15.996 11.0633 15.3903C12.5247 14.7845 13.7736 13.7591 14.6523 12.4437C15.531 11.1283 16 9.58191 16 8C16 6.94875 15.7928 5.90781 15.3903 4.93669C14.9877 3.96556 14.3977 3.08329 13.654 2.34032C12.9103 1.59735 12.0275 1.00824 11.0559 0.60667C10.0844 0.205103 9.04325 -0.00104725 7.992 4.00036e-06ZM11.6971 10.827C11.5327 11.0967 11.1815 11.1832 10.9106 11.0207L7.2 8.79429V4.59429C7.2 4.26292 7.46863 3.99429 7.8 3.99429C8.13137 3.99429 8.4 4.26292 8.4 4.59429V8.19429L11.4997 10.0334C11.775 10.1968 11.8638 10.5537 11.6971 10.827Z" fill="#009191"/>
</svg>
