<svg width="42" height="50" viewBox="0 0 42 50" fill="none" xmlns="http://www.w3.org/2000/svg">
<path d="M35.8397 15.0764L38.7735 12.1425L35.8866 9.2546L32.7481 12.3932C29.8809 10.3613 26.5351 9.10899 23.0384 8.75899V4.57357H27.1218V0.490234H14.8718V4.57357H18.9551V8.75899C15.4584 9.10899 12.1126 10.3613 9.24543 12.3932L6.10688 9.2546L3.21996 12.1425L6.15384 15.0764C3.41524 17.976 1.5859 21.6142 0.891713 25.5417C0.197529 29.4693 0.66891 33.5141 2.24764 37.1768C3.82638 40.8394 6.44332 43.9595 9.77529 46.1516C13.1073 48.3437 17.0083 49.5119 20.9968 49.5119C24.9852 49.5119 28.8862 48.3437 32.2182 46.1516C35.5502 43.9595 38.1671 40.8394 39.7459 37.1768C41.3246 33.5141 41.796 29.4693 41.1018 25.5417C40.4076 21.6142 38.5783 17.976 35.8397 15.0764ZM20.9968 45.4069C17.7663 45.4069 14.6084 44.449 11.9224 42.6542C9.23644 40.8595 7.14295 38.3086 5.90672 35.3241C4.67049 32.3395 4.34704 29.0555 4.97726 25.8871C5.60749 22.7187 7.16309 19.8084 9.44734 17.5242C11.7316 15.2399 14.6419 13.6843 17.8103 13.0541C20.9786 12.4239 24.2627 12.7473 27.2472 13.9835C30.2318 15.2198 32.7827 17.3133 34.5774 19.9993C36.3722 22.6853 37.3301 25.8431 37.3301 29.0736C37.3252 33.4039 35.6028 37.5556 32.5408 40.6176C29.4788 43.6796 25.3271 45.402 20.9968 45.4069Z" fill="#FBCB67"/>
<circle opacity="0.4" cx="20.9961" cy="29.0703" r="12.25" fill="#FBCB67"/>
<path d="M20.9961 16.8237V29.0737H8.74609C8.74609 31.4965 9.46454 33.865 10.8106 35.8795C12.1566 37.894 14.0698 39.4641 16.3082 40.3913C18.5466 41.3184 21.0097 41.561 23.386 41.0883C25.7622 40.6157 27.945 39.449 29.6582 37.7358C31.3713 36.0226 32.538 33.8399 33.0107 31.4636C33.4834 29.0873 33.2408 26.6243 32.3136 24.3859C31.3864 22.1475 29.8163 20.2343 27.8018 18.8882C25.7873 17.5422 23.4189 16.8237 20.9961 16.8237Z" fill="#FBCB67"/>
</svg>
