<svg width="64" height="64" viewBox="0 0 64 64" fill="none" xmlns="http://www.w3.org/2000/svg">
<circle opacity="0.35" cx="13" cy="14" r="6" fill="#F29C9F"/>
<path fill-rule="evenodd" clip-rule="evenodd" d="M42.7826 13.5699C42.7826 18.9003 47.11 23.2214 52.4482 23.2214C53.036 23.2185 53.6223 23.1621 54.1998 23.0528V42.1872C54.1998 50.2371 49.4514 54.9996 41.3897 54.9996H23.8312C15.7484 54.9996 11 50.2371 11 42.1872V24.6544C11 16.6045 15.7484 11.7998 23.8312 11.7998H42.9514C42.8379 12.383 42.7814 12.9758 42.7826 13.5699ZM37.7206 37.9658L44.5794 29.1151V29.0729C45.1665 28.2839 45.0167 27.1714 44.2417 26.5652C43.8666 26.2757 43.3899 26.1503 42.9206 26.2178C42.4513 26.2853 42.0295 26.54 41.7514 26.9235L35.969 34.3623L29.3845 29.1783C29.0086 28.8854 28.5304 28.7561 28.0578 28.8196C27.5853 28.883 27.1583 29.1339 26.8732 29.5155L19.7822 38.6612C19.533 38.9719 19.3988 39.3589 19.4024 39.757C19.3612 40.5615 19.8692 41.2923 20.6384 41.5351C21.4076 41.7779 22.244 41.4715 22.6735 40.7896L28.6037 33.119L35.1881 38.2819C35.5626 38.5838 36.044 38.7207 36.5216 38.6611C36.9992 38.6015 37.432 38.3505 37.7206 37.9658Z" fill="#F29C9F"/>
<ellipse opacity="0.4" cx="52.9999" cy="13" rx="5.99997" ry="5.99997" fill="#F29C9F"/>
</svg>
