<svg width="48" height="48" viewBox="0 0 48 48" fill="none" xmlns="http://www.w3.org/2000/svg">
<path d="M47 9.73712C45.2894 10.4875 43.4666 10.9849 41.5662 11.2264C43.5212 10.0591 45.0134 8.22487 45.7149 6.014C43.8921 7.10075 41.8796 7.86838 39.7349 8.29675C38.0041 6.45388 35.5374 5.3125 32.8464 5.3125C27.6254 5.3125 23.4221 9.55025 23.4221 14.7454C23.4221 15.4929 23.4854 16.2116 23.6406 16.8959C15.8005 16.5135 8.86312 12.7559 4.20275 7.03175C3.38912 8.44338 2.91188 10.0591 2.91188 11.7985C2.91188 15.0645 4.59375 17.9596 7.10075 19.6357C5.58562 19.607 4.09925 19.1671 2.84 18.4742C2.84 18.503 2.84 18.5404 2.84 18.5777C2.84 23.1605 6.10887 26.967 10.3955 27.8439C9.62787 28.0537 8.79125 28.1544 7.923 28.1544C7.31925 28.1544 6.70975 28.1199 6.13762 27.9934C7.3595 31.728 10.8268 34.4736 14.9495 34.5627C11.741 37.0726 7.66713 38.5849 3.25688 38.5849C2.4835 38.5849 1.74175 38.5504 1 38.4555C5.17737 41.1494 10.1281 42.6875 15.467 42.6875C32.8205 42.6875 42.308 28.3125 42.308 15.8523C42.308 15.4354 42.2936 15.0329 42.2735 14.6333C44.1451 13.305 45.7178 11.6461 47 9.73712Z" fill="#56CCF2"/>
</svg>
