<svg width="64" height="64" viewBox="0 0 64 64" fill="none" xmlns="http://www.w3.org/2000/svg">
<circle opacity="0.35" cx="13" cy="10" r="6" fill="#32C8CD"/>
<path opacity="0.4" d="M56.4038 22.4069C55.4041 21.7771 54.1753 21.7214 53.1278 22.2543L49.5918 24.0396C48.2843 24.6984 47.473 26.0307 47.473 27.5131V41.4317C47.473 42.9141 48.2843 44.244 49.5918 44.9077L53.1254 46.6905C53.605 46.9376 54.118 47.0563 54.631 47.0563C55.2466 47.0563 55.8574 46.8819 56.4038 46.5403C57.4035 45.9129 58 44.8253 58 43.6335V25.3161C58 24.1243 57.4035 23.0367 56.4038 22.4069Z" fill="#32C8CD"/>
<path d="M33.801 52.9298H19.8832C14.0633 52.9298 10 48.9295 10 43.2026V26.7272C10 20.9979 14.0633 17 19.8832 17H33.801C39.6209 17 43.6842 20.9979 43.6842 26.7272V43.2026C43.6842 48.9295 39.6209 52.9298 33.801 52.9298Z" fill="#32C8CD"/>
</svg>
