<svg width="36" height="36" viewBox="0 0 36 36" fill="none" xmlns="http://www.w3.org/2000/svg">
<path d="M32.4496 25.7283L23.9696 23.6229C23.8096 23.5689 23.6496 23.5689 23.5429 23.5689C22.3696 23.4609 21.4629 22.4352 21.4629 21.3015V19.0341C21.4629 17.8465 22.3696 16.8748 23.5429 16.7668C23.7029 16.7668 23.8629 16.7128 23.9696 16.7128L32.4496 14.6074C33.3029 14.3915 34.2629 14.6614 34.7962 15.3092C35.1162 15.6871 35.3296 16.173 35.3296 16.7128V23.5689C35.3296 24.1087 35.1162 24.5946 34.7962 24.9725C34.2629 25.6743 33.3029 25.9442 32.4496 25.7283Z" fill="#FBE5B4"/>
<path d="M14.5293 6.30039C14.5293 8.4543 16.4694 10.2004 18.8626 10.2004C21.2559 10.2004 23.196 8.4543 23.196 6.30039C23.196 4.14648 21.2559 2.40039 18.8626 2.40039C16.4694 2.40039 14.5293 4.14648 14.5293 6.30039Z" fill="#FEE5B4"/>
<path d="M8.46484 8.03431C8.46484 9.70957 9.82291 11.0676 11.4982 11.0676C13.1734 11.0676 14.5315 9.70957 14.5315 8.03431C14.5315 6.35905 13.1734 5.00098 11.4982 5.00098C9.82291 5.00098 8.46484 6.35905 8.46484 8.03431Z" fill="#FBE6B4"/>
<path d="M24.975 30.9997H6.68852C4.32898 30.9997 2.39844 29.0349 2.39844 26.6336V13.6991C2.39844 11.2977 4.32898 9.33301 6.68852 9.33301H24.975C27.3346 9.33301 29.2651 11.2977 29.2651 13.6991V26.6336C29.2651 29.0349 27.3346 30.9997 24.975 30.9997Z" fill="white"/>
<path d="M19.4123 19.6859L12.8439 16.3447C12.4182 16.1256 11.9316 16.3995 11.9316 16.8377V23.5201C11.9316 23.9582 12.4182 24.1773 12.8439 24.013L19.4123 20.617C19.8381 20.398 19.8381 19.905 19.4123 19.6859Z" fill="#FBCB67"/>
</svg>
