<svg width="52" height="43" viewBox="0 0 52 43" fill="none" xmlns="http://www.w3.org/2000/svg">
<path d="M25.9996 34.01C30.421 34.01 34.0051 30.4258 34.0051 26.0045C34.0051 21.5832 30.421 17.999 25.9996 17.999C21.5783 17.999 17.9941 21.5832 17.9941 26.0045C17.9941 30.4258 21.5783 34.01 25.9996 34.01Z" fill="#326E98"/>
<path d="M51.2024 23.7869C45.0488 16.3508 35.7339 9.19287 26.0001 9.19287C16.2644 9.19287 6.94732 16.3558 0.797798 23.7869C-0.265933 25.0718 -0.265933 26.9371 0.797798 28.2219C2.34386 30.0902 5.58508 33.6967 9.91406 36.8479C20.8164 44.7845 31.1597 44.802 42.0861 36.8479C46.4151 33.6967 49.6563 30.0902 51.2024 28.2219C52.263 26.9396 52.2685 25.076 51.2024 23.7869ZM26.0001 14.7967C32.1803 14.7967 37.2078 19.8242 37.2078 26.0044C37.2078 32.1847 32.1803 37.2121 26.0001 37.2121C19.8199 37.2121 14.7924 32.1847 14.7924 26.0044C14.7924 19.8242 19.8199 14.7967 26.0001 14.7967Z" fill="#326E98"/>
<circle opacity="0.35" cx="6.5" cy="7" r="6.5" fill="#326E98"/>
</svg>
