<svg width="42" height="38" viewBox="0 0 42 38" fill="none" xmlns="http://www.w3.org/2000/svg">
<path fill-rule="evenodd" clip-rule="evenodd" d="M41.4062 11.6041H32.7604C28.7369 11.6112 25.4775 14.7891 25.4703 18.712C25.4648 22.6438 28.7279 25.8359 32.7604 25.8412H41.4134V26.4658C41.4134 33.3243 37.2557 37.3799 30.2196 37.3799H11.7757C4.73782 37.3799 0.580078 33.3243 0.580078 26.4658V11.528C0.580078 4.66957 4.73782 0.629883 11.7757 0.629883H30.2124C37.2484 0.629883 41.4062 4.66957 41.4062 11.528V11.6041ZM10.2567 11.588H21.7717H21.7789H21.7934C22.6555 11.5845 23.3524 10.8997 23.3487 10.0575C23.3451 9.21696 22.641 8.53749 21.7789 8.54103H10.2567C9.40007 8.54457 8.705 9.22227 8.70137 10.0592C8.69774 10.8997 9.39463 11.5845 10.2567 11.588Z" fill="#EB6161"/>
<path opacity="0.4" d="M29.2395 19.6105C29.6664 21.5525 31.3691 22.9188 33.313 22.8833H39.9482C40.757 22.8833 41.4131 22.2134 41.4131 21.3855V16.2169C41.4114 15.3907 40.757 14.7191 39.9482 14.7173H33.1567C30.9456 14.7244 29.1596 16.5598 29.1631 18.8216C29.1631 19.0863 29.1891 19.3511 29.2395 19.6105Z" fill="#EB6161"/>
<ellipse cx="33.2467" cy="18.8009" rx="2.04167" ry="2.04167" fill="#EB6161"/>
</svg>
