<svg width="42" height="42" viewBox="0 0 42 42" fill="none" xmlns="http://www.w3.org/2000/svg">
<path opacity="0.4" d="M0.589844 19.3247C0.691927 24.0981 0.97776 32.2627 1.01859 33.1631C1.16355 35.0884 1.90059 37.0341 3.04801 38.4061C4.64459 40.3314 6.61072 41.191 9.35268 41.191C13.142 41.2114 17.3193 41.2114 21.376 41.2114C25.4492 41.2114 29.4018 41.2114 32.74 41.191C35.4431 41.191 37.4705 40.309 39.0467 38.4061C40.1941 37.0341 40.9311 35.068 41.0353 33.1631C41.0761 32.4057 41.2803 23.5428 41.4028 19.3247H0.589844Z" fill="#FBCB67"/>
<path d="M19.4658 28.1152V30.7571C19.4658 31.6024 20.1518 32.2884 20.9971 32.2884C21.8423 32.2884 22.5283 31.6024 22.5283 30.7571V28.1152C22.5283 27.27 21.8423 26.584 20.9971 26.584C20.1518 26.584 19.4658 27.27 19.4658 28.1152Z" fill="#FBCB67"/>
<path fill-rule="evenodd" clip-rule="evenodd" d="M17.354 26.4252C17.1498 27.1663 16.4373 27.64 15.6655 27.5379C10.4572 26.8111 5.47964 24.9634 1.27789 22.1888C0.847094 21.907 0.589844 21.4252 0.589844 20.9107V13.8342C0.589844 9.54675 4.08518 6.05958 8.38289 6.05958H12.3988C12.7827 3.09508 15.2939 0.790039 18.3605 0.790039H23.6321C26.6966 0.790039 29.2099 3.09508 29.5938 6.05958H33.6301C37.9156 6.05958 41.4028 9.54675 41.4028 13.8342V20.9107C41.4028 21.4252 41.1435 21.905 40.7168 22.1888C36.5068 24.9756 31.5088 26.8315 26.2658 27.5563C26.1944 27.5665 26.125 27.5706 26.0556 27.5706C25.3634 27.5706 24.7448 27.103 24.5713 26.417C24.1588 24.7919 22.6827 23.6547 20.9861 23.6547C19.267 23.6547 17.8072 24.7674 17.354 26.4252ZM23.6321 3.85254H18.3606C16.9865 3.85254 15.8391 4.79171 15.4961 6.05958H26.4946C26.1516 4.79171 25.0041 3.85254 23.6321 3.85254Z" fill="#FBCB67"/>
</svg>
