<svg width="48" height="48" viewBox="0 0 48 48" fill="none" xmlns="http://www.w3.org/2000/svg">
<path d="M45.9909 13.0182C45.4616 11.0502 43.91 9.49884 41.9422 8.96893C38.3475 7.98535 23.9682 7.98535 23.9682 7.98535C23.9682 7.98535 9.58945 7.98535 5.99469 8.93163C4.06484 9.46099 2.47536 11.0505 1.946 13.0182C1 16.6127 1 24.0671 1 24.0671C1 24.0671 1 31.5592 1.946 35.1161C2.47592 37.0838 4.02698 38.6351 5.99497 39.165C9.6273 40.1489 23.9687 40.1489 23.9687 40.1489C23.9687 40.1489 38.3475 40.1489 41.9422 39.2026C43.9102 38.673 45.4616 37.1216 45.9915 35.1539C46.9372 31.5592 46.9372 24.105 46.9372 24.105C46.9372 24.105 46.9751 16.6127 45.9909 13.0182ZM19.3901 30.9538V17.1804L31.3472 24.0671L19.3901 30.9538Z" fill="#EB5757"/>
</svg>
