<svg width="460" height="240" viewBox="0 0 460 240" fill="none" xmlns="http://www.w3.org/2000/svg">
<path d="M0 16C0 7.16344 7.16344 0 16 0H444C452.837 0 460 7.16344 460 16V240H0V16Z" fill="#D3D3D3"/>
<path fill-rule="evenodd" clip-rule="evenodd" d="M251.737 42.1842C252.421 39.3263 255.277 37.6046 258.123 38.3346L322.338 54.8072C325.2 55.5416 326.963 58.4765 326.268 61.3494L309.457 130.747C308.722 133.782 306.794 136.392 304.111 137.987C298.572 141.28 296.983 148.465 298.545 154.717C299.973 160.432 300.103 166.533 298.678 172.597C293.909 192.877 273.536 205.055 253.174 199.796C244.558 197.571 237.324 192.581 232.207 186.027C230.651 184.034 227.863 183.315 225.69 184.608C222.183 186.692 217.896 183.535 218.845 179.568L224.367 156.505C224.518 155.521 224.708 154.537 224.939 153.554C225.194 152.469 225.494 151.408 225.836 150.371L251.737 42.1842ZM161.501 177.173C181.666 182.235 202.109 169.797 207.162 149.392C212.214 128.987 199.964 108.341 179.799 103.279C159.634 98.2162 139.191 110.654 134.138 131.06C129.085 151.465 141.336 172.111 161.501 177.173Z" fill="#4B4B4B" fill-opacity="0.197115"/>
</svg>
