<svg id="Layer_1" data-name="Layer 1" xmlns="http://www.w3.org/2000/svg" xmlns:xlink="http://www.w3.org/1999/xlink" viewBox="0 0 446.91 427.11"><defs><linearGradient id="linear-gradient" x1="340.96" y1="261.37" x2="326.51" y2="723.6" gradientUnits="userSpaceOnUse"><stop offset="0" stop-color="#010101" stop-opacity="0"/><stop offset="0.95" stop-color="#010101"/></linearGradient><linearGradient id="linear-gradient-2" x1="172.66" y1="253.86" x2="178.85" y2="476.72" xlink:href="#linear-gradient"/><linearGradient id="linear-gradient-3" x1="332.13" y1="165.88" x2="314.59" y2="223.91" xlink:href="#linear-gradient"/><linearGradient id="linear-gradient-4" x1="264.72" y1="176.68" x2="309.23" y2="176.68" gradientUnits="userSpaceOnUse"><stop offset="0" stop-color="#e5c6d6"/><stop offset="0.42" stop-color="#ead4d0"/><stop offset="1" stop-color="#f0e9cb"/></linearGradient><linearGradient id="linear-gradient-5" x1="342.52" y1="271.41" x2="359.4" y2="271.41" xlink:href="#linear-gradient"/><linearGradient id="linear-gradient-6" x1="324.58" y1="244.35" x2="348.74" y2="244.35" xlink:href="#linear-gradient"/><linearGradient id="linear-gradient-7" x1="325.7" y1="233.4" x2="355.9" y2="233.4" xlink:href="#linear-gradient-4"/><linearGradient id="linear-gradient-8" x1="295.68" y1="169.58" x2="318.5" y2="169.58" xlink:href="#linear-gradient-4"/><linearGradient id="linear-gradient-9" x1="355.01" y1="291.71" x2="314.94" y2="328.85" gradientTransform="translate(87.05 -80.14) rotate(14.81)" xlink:href="#linear-gradient"/><linearGradient id="linear-gradient-10" x1="325.97" y1="293.01" x2="389.74" y2="293.01" gradientTransform="translate(86.82 -81.76) rotate(14.81)" xlink:href="#linear-gradient"/><linearGradient id="linear-gradient-11" x1="269.14" y1="290.35" x2="309.91" y2="290.35" xlink:href="#linear-gradient"/></defs><title>Career 5</title><path d="M430.6,417a119,119,0,0,1-44.74,9.53c-82.82,1.21-165.67,1.32-248.49,2-12.93.11-26.45,0-39-2.6-9.49-2-18.47-5.39-26.24-11.25-17.77-13.34-25.21-36.72-26.35-58.93s3-44.3,3.38-66.54c.69-43-12.61-85.31-13-128.37S53.57,69.23,94,54.43c24.84-9.09,53-3.48,78.34-11,19.64-5.79,36.17-18.94,54.53-28,42.84-21.15,96.63-18.32,137,7.22s66,72.92,65.26,120.74c-.47,29.28-10,59.07-2.27,87.32,9.2,33.49,40.75,56.91,51.74,89.89C494,366.82,467.43,401.23,430.6,417Z" transform="translate(-36.16 -1.38)" fill="#00baba" opacity="0.24" style="isolation:isolate"/><rect x="302.61" y="100.24" width="77.38" height="300.36" fill="#00baba"/><rect x="135.46" y="200.32" width="77.38" height="214.6" fill="#00baba"/><rect x="302.61" y="100.24" width="77.38" height="300.36" fill="url(#linear-gradient)"/><rect x="135.46" y="200.32" width="77.38" height="214.6" fill="url(#linear-gradient-2)"/><path d="M303.15,148a7.5,7.5,0,0,1,4.12-4.23,12.45,12.45,0,0,1,17,6.79A50.31,50.31,0,0,1,325.8,157a9.94,9.94,0,0,0,3.14,5.73c2.25,1.76,5.34,1.77,8.17,2.18a20.68,20.68,0,0,1,10.49,4.6,15.34,15.34,0,0,1,5.35,10c.23,2.41-.18,5,.82,7.18.89,2,2.8,3.38,3.59,5.4a6.31,6.31,0,0,1-.84,5.8,8.32,8.32,0,0,1-5,3.18c-3.08.66-6.46-.14-9.3,1.19-1.77.83-3.2,2.43-5.12,2.75a6.49,6.49,0,0,1-4.28-1.11,30.49,30.49,0,0,1-6.24-5.5,34.2,34.2,0,0,1-5.45-6.86,82.34,82.34,0,0,0-5.28-7.86c-1.65-2.38-5.44-2.37-6.84-4.9-2.62-4.73.9-14.25-.27-19.32a8.58,8.58,0,0,0-2.91-5C303.88,152.76,302.3,150.62,303.15,148Z" transform="translate(-36.16 -1.38)" fill="#606161"/><path d="M303.15,148a7.5,7.5,0,0,1,4.12-4.23,12.45,12.45,0,0,1,17,6.79A50.31,50.31,0,0,1,325.8,157a9.94,9.94,0,0,0,3.14,5.73c2.25,1.76,5.34,1.77,8.17,2.18a20.68,20.68,0,0,1,10.49,4.6,15.34,15.34,0,0,1,5.35,10c.23,2.41-.18,5,.82,7.18.89,2,2.8,3.38,3.59,5.4a6.31,6.31,0,0,1-.84,5.8,8.32,8.32,0,0,1-5,3.18c-3.08.66-6.46-.14-9.3,1.19-1.77.83-3.2,2.43-5.12,2.75a6.49,6.49,0,0,1-4.28-1.11,30.49,30.49,0,0,1-6.24-5.5,34.2,34.2,0,0,1-5.45-6.86,82.34,82.34,0,0,0-5.28-7.86c-1.65-2.38-5.44-2.37-6.84-4.9-2.62-4.73.9-14.25-.27-19.32a8.58,8.58,0,0,0-2.91-5C303.88,152.76,302.3,150.62,303.15,148Z" transform="translate(-36.16 -1.38)" fill="url(#linear-gradient-3)"/><path d="M276.67,186.92a16.21,16.21,0,0,1,1.9-5.77q2.54-5.34,5-10.73c.81-1.79,1.67-3.58,2.4-5.4a4.18,4.18,0,0,1,.77-1.55c.56-.56,1.44-.82,2-1.35,1.7-1.48,1.89-4,1.94-6.26a5.16,5.16,0,0,0-.61-3.21,5,5,0,0,0-2.24-1.49,5.51,5.51,0,0,0-2.24-.58,3.83,3.83,0,0,0-2.57,1.31,11.14,11.14,0,0,0-1.59,2.48c-3.07,5.83-6.28,11.44-9.78,17a54.55,54.55,0,0,0-5.7,10.85,18.28,18.28,0,0,0-.37,12,10.48,10.48,0,0,0,3.11,4.59,14.52,14.52,0,0,0,6,2.57,51.7,51.7,0,0,0,27.12-1c2.07-.66,4.21-1.51,5.57-3.21a9.16,9.16,0,0,0,1.76-4.85c.42-3.78-1.07-9.87-5.69-9.14-2.74.43-6.15,2.84-8.67,4C291.91,188.55,276.54,189,276.67,186.92Z" transform="translate(-36.16 -1.38)" fill="url(#linear-gradient-4)"/><path d="M368.93,389.72l-1.8.26-.25-6.56s-3.08,2.2-4.14,3.23-12.35,5.93-15.47,3.88,11.87-13.7,11.87-13.7l-23.48-67.47-17.52-41.62s-35.95,5-33.9,9.63c1.84,4,3.34,34.49,4.4,42.8v0a9.3,9.3,0,0,0,.4,1.94.3.3,0,0,1,0,.11c1,1,2.75,2.57,2.9,4.62s-.66,11-.66,11l-1.58.33L288.2,331s-.84.51-5.83,4-14.62,5.16-15.83,3.26,7.92-5.86,11.36-9.64S256.21,275,261.38,261.54s46.79-23.89,46.79-23.89,28-2.93,30.53.15,12.05,24.15,10.11,27.11,4.91,43.06,10.59,50.28,7.73,28.91,7.22,35.07,2.05,23.34,2.05,23.34,1.94,2.6,2.2,4.29S368.93,389.72,368.93,389.72Z" transform="translate(-36.16 -1.38)" fill="#606161"/><path d="M347.34,267.35s-3.87.9-4.32,1.55-.84,5.48,0,7.54l2.51-.84s-.64-3.8-.06-5,4.45-1.74,4.45-1.74a5.59,5.59,0,0,1,7.16,3.68l2.32-.52s-1.61-5.16-4.52-5.54S347.34,267.35,347.34,267.35Z" transform="translate(-36.16 -1.38)" fill="url(#linear-gradient-5)"/><path d="M298.26,196.39a19.78,19.78,0,0,0-1.43,5.82c-.15,3.9,2,7.46,4,10.83,3.45,6,6.55,12.41,6.79,19.29.1,3-.18,6.39,1.95,8.48,1.36,1.33,3.37,1.72,5.27,2a80.27,80.27,0,0,0,18.78.31c1.83-.18,3.93-.62,4.77-2.26a5.68,5.68,0,0,0,.33-3l-2.22-31.13c-.31-4.41-.64-8.87-2-13.06-1.19-3.59-5.09-7.45-7.66-10.22a16.67,16.67,0,0,0-16.38-4.64C301,181,301.09,188.52,298.26,196.39Z" transform="translate(-36.16 -1.38)" fill="#00baba"/><path d="M294.77,193.56a13.87,13.87,0,0,0-4.28-5.7,29.48,29.48,0,0,1,8.14-5c1-.42,11.81-4.71,12.78-4.23s-8.27,5.47-7.92,6.45a9.65,9.65,0,0,1,.87,4.81,10.72,10.72,0,0,1-1.39,3.25,54.63,54.63,0,0,0-2.58,5.27c-.35.82-1.33,4.88-2.12,5C296.59,203.69,295.29,194.85,294.77,193.56Z" transform="translate(-36.16 -1.38)" fill="#00baba"/><path d="M328.74,226.46c.13,2.74.22,5.64-1.09,8-.67,1.23-1.66,2.25-2.36,3.47a4.07,4.07,0,0,0-.32,4c1.24,2.08,4.52,1.62,6.34,3.22a6.26,6.26,0,0,1,1.52,2.43,45.3,45.3,0,0,1,2.79,25.44c-.34,1.85-.71,4,.51,5.42,1.54,1.8,4.39,1.18,6.73.77,2.19-.38,4.9-.76,5.68-2.85a5.68,5.68,0,0,0,0-2.81c-1.48-10.09-2-20.31-3.66-30.37s-4.55-20.12-10.28-28.55a20.75,20.75,0,0,0-3.83-4.42c-2.32-1.93-2.91-1.69-2.77,1.29Z" transform="translate(-36.16 -1.38)" opacity="0.37" fill="url(#linear-gradient-6)"/><path d="M331.3,212.82c2.11,2.84,3,6.39,3.82,9.83l10,41.59a5.48,5.48,0,0,0,1,2.32c.72.84,2,1.37,2.06,2.47,0,.42-.14.88.11,1.21s.69.31,1.08.28a11.66,11.66,0,0,0,4.15-.87,4,4,0,0,0,2.38-3.28c0-1.87-1.64-3.24-2.81-4.71-2.89-3.63-2.92-8.67-3.07-13.3-.6-17.52-5.14-35.12-14.73-49.8-.77-1.18-1.88-2.48-3.27-2.27a3.47,3.47,0,0,0-1.89,1.25c-1.61,1.75-4.49,5.47-4.43,8C325.76,208.33,329.74,210.73,331.3,212.82Z" transform="translate(-36.16 -1.38)" fill="url(#linear-gradient-7)"/><path d="M300.43,156.76c-.92.53-2,1.1-2.27,2.12a12.15,12.15,0,0,0-.17,1.21c-.31,1.84-2.32,3.16-2.31,5s1.78,2.95,3,4.23a11.73,11.73,0,0,1,2.89,6.09,39.69,39.69,0,0,1,.42,6.81c0,2.07.29,4.54,2.13,5.49a4.72,4.72,0,0,0,2.76.32,5.9,5.9,0,0,0,3-1.18,5.53,5.53,0,0,0,1.74-3.9,25.59,25.59,0,0,0-.27-4.37,29.44,29.44,0,0,1-.06-4.6,4.41,4.41,0,0,1,1.17-3.18,6.54,6.54,0,0,1,2.38-1,5.34,5.34,0,0,0,3.16-2.23,3,3,0,0,0-.39-3.63c-.87-.79-2.39-1-2.68-2.14a3,3,0,0,1,0-.95,10.86,10.86,0,0,0-2.4-7.44c-1.3-1.6-4-3.28-6.05-2-.94.6-1.65,1.85-2.48,2.61A20.74,20.74,0,0,1,300.43,156.76Z" transform="translate(-36.16 -1.38)" fill="url(#linear-gradient-8)"/><path d="M308.42,151a2.77,2.77,0,0,1,.73,2.17c0,.79-.24,1.56-.32,2.34a3.16,3.16,0,0,0,.48,2.26c.72.94,2.23,1.28,2.45,2.44a2.31,2.31,0,0,1-.87,1.95,5.87,5.87,0,0,0-1.45,1.66.84.84,0,0,0-.07.6c.12.34.53.46.89.5a3.71,3.71,0,0,0,1.52-.09,7.73,7.73,0,0,0,1.89-1.17,7.87,7.87,0,0,1,3.38-1.3,2.33,2.33,0,0,0,1.5-.52,1.53,1.53,0,0,0,.32-.8,5.63,5.63,0,0,0-.69-3.09,41.36,41.36,0,0,0-2.92-5.24,6.6,6.6,0,0,0-1.25-1.58,5.85,5.85,0,0,0-2.69-1.08c-1.26-.25-3.7-.55-4.6.62A1.83,1.83,0,0,1,308.42,151Z" transform="translate(-36.16 -1.38)" fill="#606161"/><path d="M291.69,136.66c-3.32,6-4.83,11.47-3.38,12.28.24.14,1.86,1,2.22.9,1.81-.63,3.65-5.27,6.42-10.26s6.14-9.23,5.7-11.09c-.08-.36-2.08-1.06-2.31-1.19C298.89,126.49,295,130.68,291.69,136.66Z" transform="translate(-36.16 -1.38)" fill="#00baba"/><path d="M299.16,140.47c-3.3,6-7.18,10.19-8.65,9.38A1.14,1.14,0,0,1,290,149c-.36-1.91,1.14-6.49,3.89-11.43s5.68-8.47,7.55-9.31a1.31,1.31,0,0,1,1.1-.07C304,129,302.49,134.5,299.16,140.47Z" transform="translate(-36.16 -1.38)"/><path d="M297.62,139.7c-2.68,4.84-5.72,8.54-7.59,9.31-.36-1.91,1.14-6.49,3.89-11.43s5.68-8.47,7.55-9.31C301.87,130.17,300.37,134.79,297.62,139.7Z" transform="translate(-36.16 -1.38)" fill="#fff"/><polygon points="252.57 147.71 251.68 149.78 252.82 150.35 253.79 148.29 252.57 147.71" fill="#00baba"/><path d="M283.13,159.06l-3.43,6.45a1.15,1.15,0,0,0,.77,1.46c1.12.43,1.63.08,1.63.08l3.44-6.45S284.77,158.28,283.13,159.06Z" transform="translate(-36.16 -1.38)"/><rect x="322.86" y="274.87" width="57.78" height="39.72" rx="5.05" transform="matrix(0.97, -0.26, 0.26, 0.97, -99.82, 98.36)" fill="#606161"/><rect x="322.86" y="274.87" width="57.78" height="39.72" rx="5.05" transform="matrix(0.97, -0.26, 0.26, 0.97, -99.82, 98.36)" fill="url(#linear-gradient-9)"/><rect x="328.96" y="273.15" width="57.78" height="39.72" rx="5.05" transform="translate(-99.18 99.86) rotate(-14.81)" fill="#606161"/><rect x="328.96" y="273.15" width="57.78" height="39.72" rx="5.05" transform="translate(-99.18 99.86) rotate(-14.81)" fill="url(#linear-gradient-10)"/><path d="M430.6,385.36V417a119,119,0,0,1-44.74,9.53c-82.82,1.21-165.67,1.32-248.49,2-12.93.11-26.45,0-39-2.6V284.23H219.09v53.68H312v47.45Z" transform="translate(-36.16 -1.38)" fill="#00baba"/><path d="M284.24,277.37c1.84,4,3.34,34.49,4.4,42.8-1.79-8.31-8.43-38.84-10-40.82-1.83-2.34-1.57-8.28-.25-10.59S297,260.52,306,260.52a13.16,13.16,0,0,1,12.13,7.22S282.19,272.72,284.24,277.37Z" transform="translate(-36.16 -1.38)" opacity="0.37" fill="url(#linear-gradient-11)"/><g opacity="0.24" style="isolation:isolate"><path d="M123.56,150.69v-11c-14.45-1.2-22.88-9.75-24.08-21.31h10.6a15.67,15.67,0,0,0,13.48,12.88V102.16c-16-4.81-22.27-10.84-22.27-22,0-12.16,9.39-20.23,22.27-21.08V50.87h6.87v8.3c16,1.57,21.19,11.93,21.91,19.39H142c-1.33-4.94-4.22-9.75-11.56-11.08V93.73c18.42,5.3,23.72,13,23.72,23.72,0,13.37-8.91,21.2-23.72,22.28v11Zm0-59V67.24c-8.67.73-11.8,5.9-11.8,11.68S114.53,88.56,123.56,91.69Zm6.87,12.52v27.21c8.31-.84,12.76-5,12.76-12.88C143.19,112.16,140.42,107.7,130.43,104.21Z" transform="translate(-36.16 -1.38)" fill="#00baba"/></g><path d="M126.89,149.86v-11c-14.45-1.2-22.88-9.75-24.09-21.31h10.6a15.67,15.67,0,0,0,13.49,12.88V101.33c-16-4.82-22.28-10.84-22.28-22,0-12.17,9.39-20.23,22.28-21.08V50h6.86v8.3c16,1.57,21.19,11.93,21.92,19.39H145.31C144,72.79,141.1,68,133.75,66.65V92.9c18.42,5.3,23.72,13,23.72,23.72,0,13.37-8.91,21.2-23.72,22.28v11Zm0-59V66.41c-8.67.72-11.8,5.9-11.8,11.68S117.86,87.73,126.89,90.86Zm6.86,12.52v27.21c8.31-.84,12.76-5,12.76-12.88C146.51,111.33,143.75,106.87,133.75,103.38Z" transform="translate(-36.16 -1.38)" fill="#fff"/><g opacity="0.24" style="isolation:isolate"><path d="M178,177.72V172.6c-6.75-.56-10.69-4.56-11.25-10h5a7.32,7.32,0,0,0,6.3,6V155.05c-7.48-2.25-10.41-5.06-10.41-10.29,0-5.68,4.39-9.45,10.41-9.84v-3.83h3.2V135c7.48.74,9.9,5.57,10.24,9.06h-4.84a6.44,6.44,0,0,0-5.4-5.18v12.27c8.61,2.47,11.08,6.07,11.08,11.07,0,6.25-4.16,9.9-11.08,10.41v5.12Zm0-27.56V138.74c-4,.34-5.51,2.76-5.51,5.46S173.76,148.7,178,150.16Zm3.2,5.85v12.71c3.89-.39,6-2.36,6-6C187.14,159.72,185.85,157.64,181.18,156Z" transform="translate(-36.16 -1.38)" fill="#00baba"/></g><path d="M179.53,177.33v-5.12c-6.75-.56-10.69-4.55-11.25-10h4.95a7.32,7.32,0,0,0,6.3,6V154.66c-7.48-2.25-10.41-5.06-10.41-10.29,0-5.68,4.39-9.45,10.41-9.84v-3.82h3.21v3.88c7.48.73,9.9,5.56,10.23,9h-4.83a6.46,6.46,0,0,0-5.4-5.17v12.26c8.6,2.47,11.08,6.07,11.08,11.08,0,6.24-4.17,9.9-11.08,10.4v5.12Zm0-27.56V138.35c-4.05.34-5.51,2.76-5.51,5.46S175.31,148.31,179.53,149.77Zm3.21,5.85v12.71c3.88-.39,6-2.36,6-6C188.7,159.33,187.4,157.25,182.74,155.62Z" transform="translate(-36.16 -1.38)" fill="#fff"/><g opacity="0.24" style="isolation:isolate"><path d="M107.82,206.53v-5.12c-6.75-.56-10.69-4.55-11.25-9.95h5a7.32,7.32,0,0,0,6.3,6V183.86c-7.48-2.25-10.41-5.06-10.41-10.29,0-5.68,4.39-9.45,10.41-9.84V159.9H111v3.88c7.49.74,9.9,5.57,10.24,9.06h-4.84a6.42,6.42,0,0,0-5.4-5.17v12.26c8.61,2.47,11.09,6.07,11.09,11.08,0,6.24-4.17,9.89-11.09,10.4v5.12Zm0-27.56V167.55c-4,.34-5.51,2.76-5.51,5.46S103.6,177.51,107.82,179Zm3.2,5.85v12.71c3.89-.39,6-2.36,6-6C117,188.53,115.69,186.45,111,184.82Z" transform="translate(-36.16 -1.38)" fill="#00baba"/></g><path d="M109.37,206.14V201c-6.75-.56-10.68-4.55-11.25-10h4.95a7.33,7.33,0,0,0,6.3,6V183.48c-7.48-2.25-10.4-5.07-10.4-10.3,0-5.68,4.38-9.44,10.4-9.84v-3.82h3.21v3.88c7.48.73,9.9,5.57,10.23,9H118a6.46,6.46,0,0,0-5.4-5.17v12.26c8.6,2.47,11.08,6.07,11.08,11.08,0,6.24-4.17,9.9-11.08,10.4v5.12Zm0-27.56V167.17c-4.05.33-5.51,2.75-5.51,5.45S105.15,177.12,109.37,178.58Zm3.21,5.85v12.71c3.88-.39,6-2.36,6-6C118.54,188.14,117.25,186.06,112.58,184.43Z" transform="translate(-36.16 -1.38)" fill="#fff"/></svg>