<svg width="267" height="212" viewBox="0 0 267 212" fill="none" xmlns="http://www.w3.org/2000/svg">
<g clip-path="url(#clip0)">
<path opacity="0.18" d="M246.053 186.835C236.55 199.756 220.64 214.723 204.285 211.591C130.216 197.353 134.737 215.933 71.8261 209.811C64.0491 209.028 55.222 207.889 45.1314 206.252C35.4404 204.663 26.3176 200.619 18.6325 194.505C17.3156 193.473 15.9987 192.405 14.6817 191.266C6.94027 184.575 -0.213898 176.068 0.0352522 165.888C0.355588 153.269 5.07164 141.114 10.1792 129.741C17.0842 114.383 26.6943 98.1871 24.1494 81.084C21.6045 64.1589 25.0393 43.4252 33.9375 28.9205C48.1746 6.12227 73.0896 0.56955 98.0047 0.0534318C114.466 -0.284715 131.409 0.69413 146.411 7.47486C162.179 14.5937 174.885 27.7636 190.902 33.8681C201.58 37.8902 213.254 38.6733 223.701 43.2116C236.853 48.9245 246.996 60.2435 253.581 72.9863C260.166 85.7291 263.476 99.8778 265.95 113.92C270.203 137.75 260.326 167.454 246.053 186.835Z" fill="#00BABA"/>
<path d="M127.974 83.8069L67.3951 70.8684V52.1279H68.1782V70.2277L128.134 83.0416L127.974 83.8069Z" fill="#00BABA"/>
<path d="M206.385 117.141L193.572 113.279L195.707 75.2998L208.503 79.144L206.385 117.141Z" fill="#00BABA"/>
<path d="M221.317 121.626L208.521 117.782L209.589 98.792L222.384 102.636L221.317 121.626Z" fill="#00BABA"/>
<path d="M235.927 126.022L223.132 122.16L226.104 69.0884L238.917 72.9326L235.927 126.022Z" fill="#00BABA"/>
<path d="M250.645 130.435L237.849 126.591L241.711 57.627L254.525 61.4711L250.645 130.435Z" fill="#00BABA"/>
<path d="M206.385 117.141L193.572 113.279L195.707 75.2998L208.503 79.144L206.385 117.141Z" fill="url(#paint0_linear)"/>
<path d="M221.317 121.626L208.521 117.782L209.589 98.792L222.384 102.636L221.317 121.626Z" fill="url(#paint1_linear)"/>
<path d="M235.927 126.022L223.132 122.16L226.104 69.0884L238.917 72.9326L235.927 126.022Z" fill="url(#paint2_linear)"/>
<path d="M250.645 130.435L237.849 126.591L241.711 57.627L254.525 61.4711L250.645 130.435Z" fill="url(#paint3_linear)"/>
<path d="M102.917 195.751L80.4399 205.878C77.5746 207.177 74.7094 208.476 71.8264 209.722C64.0493 208.939 55.2223 207.8 45.1317 206.163C35.4407 204.574 26.3179 200.53 18.6328 194.416C17.3159 193.384 15.9989 192.316 14.682 191.177L58.7816 184.486C63.9852 183.843 69.1198 182.729 74.1221 181.157C75.9018 180.552 84.6042 179.894 81.4365 184.397C81.0115 184.898 80.4666 185.284 79.8526 185.518L65.3663 192.53C64.2018 192.979 63.1809 193.736 62.4121 194.719C62.037 195.222 61.8736 195.852 61.9567 196.474C62.0398 197.096 62.363 197.66 62.857 198.047C63.4121 198.306 64.027 198.411 64.6366 198.35C78.3399 197.94 91.5626 192.548 105.284 192.459C105.96 193.722 104.305 195.128 102.917 195.751Z" fill="url(#paint4_linear)"/>
<path d="M123.045 92.8657L137.015 67.6115C137.112 67.4352 137.262 67.294 137.445 67.2078C137.627 67.1215 137.831 67.0947 138.029 67.131L167.571 71.8472C167.777 71.8874 167.972 71.9738 168.139 72.1C168.307 72.2261 168.444 72.3886 168.54 72.5754C168.636 72.7621 168.688 72.9682 168.693 73.1781C168.698 73.388 168.655 73.5962 168.568 73.7871L152.729 102.476L123.045 92.8657Z" fill="url(#paint5_linear)"/>
<path d="M92.933 94.2363L93.3067 95.5533C93.3661 95.7757 93.4779 95.9805 93.6327 96.1508C93.7875 96.3211 93.9808 96.4519 94.1965 96.5322L120.624 106.321C120.956 106.459 121.316 106.514 121.674 106.481L151.003 104.701C151.146 104.69 151.285 104.651 151.412 104.585C151.54 104.52 151.653 104.43 151.746 104.321C151.838 104.212 151.908 104.086 151.952 103.949C151.995 103.813 152.012 103.669 151.999 103.526V102.263L92.933 94.2363Z" fill="url(#paint6_linear)"/>
<path d="M122.279 92.6876L136.25 67.3622C136.342 67.1854 136.489 67.0432 136.668 66.9566C136.848 66.87 137.05 66.8437 137.246 66.8817L166.806 71.5801C167.01 71.6225 167.203 71.7106 167.368 71.8376C167.534 71.9647 167.669 72.1275 167.763 72.314C167.857 72.5004 167.908 72.7057 167.912 72.9145C167.916 73.1233 167.872 73.3303 167.785 73.52L151.964 102.28L122.279 92.6876Z" fill="#473F47"/>
<path d="M151.964 102.281L121.14 104.043C120.91 104.059 120.679 104.022 120.464 103.936L92.933 94.2363L122.279 92.688L151.964 102.281Z" fill="url(#paint7_linear)"/>
<path d="M107.829 93.9693L132.779 101.871L146.216 101.266L122.066 93.1685L107.829 93.9693Z" fill="#473F47"/>
<path d="M102.312 96.9234L112.651 95.9268L125.162 99.8243L114.876 101.124L102.312 96.9234Z" fill="#473F47"/>
<path d="M103.896 98.1157C104.258 98.6645 104.771 99.097 105.373 99.3615C106.263 99.6997 110.107 101.141 110.107 101.141C110.301 101.168 110.5 101.148 110.685 101.083C110.871 101.018 111.039 100.91 111.174 100.767L103.896 98.1157Z" fill="#EAEAEA"/>
<path d="M123.276 92.0645L150.914 101.141L165.614 73.8936L136.356 68.3765L123.276 92.0645Z" fill="white"/>
<path opacity="0.43" d="M138.937 74.125C139.177 74.1725 139.41 74.2503 139.631 74.3564C139.728 74.3933 139.836 74.3933 139.933 74.3564" stroke="#F8F8F8" stroke-width="0.12" stroke-linecap="round" stroke-linejoin="round"/>
<path d="M78.0196 179.324C77.563 179.862 77.2903 180.532 77.2413 181.236C77.1922 181.94 77.3694 182.641 77.7469 183.237C78.1245 183.834 78.6826 184.293 79.34 184.55C79.9973 184.806 80.7194 184.846 81.4009 184.663C81.639 184.605 81.859 184.489 82.0416 184.325C82.4509 183.952 82.5043 183.329 82.878 182.937C83.2794 182.631 83.7501 182.43 84.2483 182.35C85.122 182.038 85.9484 181.606 86.7043 181.068C86.8168 180.994 86.9186 180.904 87.0068 180.801C87.0808 180.664 87.1234 180.512 87.1314 180.357C87.3099 179.562 87.1828 178.73 86.7754 178.025C86.553 177.754 86.2735 177.535 85.9568 177.384C85.3726 177.025 84.7028 176.828 84.017 176.815C83.4809 176.848 82.9529 176.962 82.4509 177.153C81.0362 177.547 79.7039 178.192 78.5179 179.057" fill="#00BABA"/>
<path d="M80.778 172.989L78.4288 180.909C78.4288 180.909 78.8737 182.902 81.383 182.065C83.8923 181.229 86.0101 174.946 86.0101 174.946L80.778 172.989Z" fill="#FCBCB8"/>
<path d="M105.871 189.54C106.52 189.454 107.174 189.413 107.829 189.416C108.164 189.421 108.495 189.495 108.801 189.633C109.107 189.771 109.382 189.969 109.608 190.216C109.918 190.702 110.041 191.282 109.956 191.851C109.871 192.42 109.583 192.94 109.146 193.313C108.239 194.025 107.144 194.458 105.996 194.559C105.287 194.719 104.551 194.719 103.842 194.559C102.952 194.31 102.063 193.598 101.226 193.847C100.853 194.009 100.505 194.225 100.194 194.488C99.5857 194.909 98.8442 195.093 98.1096 195.004C97.3751 194.916 96.6984 194.561 96.2076 194.007C95.9557 193.632 95.7692 193.217 95.6559 192.779C95.4114 192.109 95.374 191.381 95.5486 190.689C95.7231 189.997 96.1015 189.373 96.6347 188.899C98.0229 187.938 99.0906 188.597 100.425 189.042C102.185 189.59 104.041 189.76 105.871 189.54V189.54Z" fill="#00BABA"/>
<path d="M104.714 181.869L101.155 190.109C100.135 190.724 98.9291 190.951 97.7559 190.75L96.3322 190.234L97.5601 178.719L104.714 181.869Z" fill="#FCBCB8"/>
<path d="M130.537 98.0445C130.768 97.742 131.071 97.4038 131.444 97.4572C131.818 97.5106 131.889 97.653 132.121 97.5996C132.256 97.5432 132.373 97.4508 132.459 97.3326C133.002 96.7886 133.599 96.2997 134.238 95.8733C134.633 95.5427 135.104 95.3163 135.609 95.2148C135.97 95.1769 136.334 95.2504 136.652 95.4254C136.97 95.6003 137.227 95.8684 137.388 96.1936C137.723 96.8407 137.806 97.5892 137.62 98.2937C137.432 98.9844 137.144 99.6439 136.766 100.251C136.521 100.701 136.222 101.12 135.876 101.497C134.575 102.403 133.131 103.083 131.605 103.508C131.452 103.596 131.282 103.65 131.106 103.668C130.804 103.668 130.572 103.401 130.394 103.152C129.84 102.405 129.507 101.517 129.433 100.59C129.517 99.6443 129.904 98.7515 130.537 98.0445Z" fill="#FCBCB8"/>
<path d="M116.691 89.1106C116.858 89.0478 117.041 89.0478 117.207 89.1106C117.293 89.1848 117.371 89.2684 117.439 89.3598C117.741 89.6623 118.24 89.6801 118.631 89.8403C118.881 89.9663 119.1 90.1443 119.275 90.3622C119.45 90.5802 119.576 90.8331 119.645 91.1039C119.791 91.6491 119.857 92.2127 119.841 92.7768C119.861 93.0717 119.825 93.3675 119.734 93.6489C119.689 93.7908 119.602 93.9158 119.484 94.0077C119.367 94.0997 119.225 94.1545 119.076 94.165C118.83 94.1308 118.596 94.0327 118.4 93.8803C117.997 93.6646 117.531 93.5954 117.083 93.6845C116.499 93.871 115.938 94.1217 115.41 94.432C115.226 94.5786 115.008 94.6779 114.777 94.7212C114.545 94.7644 114.307 94.7503 114.082 94.6801C113.857 94.6098 113.653 94.4856 113.488 94.3183C113.322 94.1509 113.2 93.9455 113.132 93.7201C112.634 92.7057 112.1 91.5488 113.132 90.7124C114.152 89.8674 115.382 89.314 116.691 89.1106Z" fill="#FCBCB8"/>
<path d="M85.0136 126.983C85.2635 131.321 85.7626 135.641 86.5085 139.921C87.4695 144.175 88.0568 148.998 88.0568 148.998L79.1586 173.7C79.1586 173.7 84.4975 177.26 88.0568 175.836C91.6161 174.412 100.319 155.512 100.319 155.512L103.664 133.941L94.7661 124.1L85.0136 126.983Z" fill="#473F47"/>
<path d="M109.519 125.256C109.519 125.256 115.801 145.332 115.801 150.546C115.801 155.761 108.202 181.424 108.202 181.424C108.202 181.424 99.9625 184.129 98.0405 181.424L96.2253 178.719L100.799 152.789C100.799 152.789 94.2321 139.281 93.0753 135.792C92.3703 133.66 91.8639 131.468 91.5626 129.243L109.519 125.256Z" fill="#473F47"/>
<path d="M106.903 70.2989C107.648 71.7184 108.124 73.2629 108.309 74.855C108.391 75.654 108.26 76.4605 107.929 77.1922C107.597 77.9239 107.078 78.5544 106.423 79.0196C106.019 79.1916 105.642 79.4192 105.302 79.6959C104.109 80.8883 105.479 83.0239 104.785 84.5367C104.506 85.0383 104.056 85.4224 103.516 85.6185C102.977 85.8147 102.385 85.8097 101.849 85.6045C101.321 85.3739 100.852 85.0293 100.473 84.5954C100.095 84.1615 99.8169 83.6491 99.66 83.0951C99.3605 81.988 99.2285 80.8421 99.2685 79.6959L99.1439 72.8795C98.9814 71.3595 99.2271 69.8237 99.8558 68.4302C100.293 67.7106 100.919 67.1245 101.665 66.7354C102.412 66.3464 103.251 66.1693 104.091 66.2234C105.764 66.4548 106.263 68.9464 106.903 70.2989Z" fill="#FCBCB8"/>
<path d="M131.427 104.309C131.427 104.309 117.919 115.984 116.958 115.984C115.997 115.984 110 108.652 110 108.652L109.519 125.256C107.848 126.209 106.112 127.042 104.323 127.748C101.21 129.1 97.8379 129.75 94.4458 129.652C91.1272 129.571 87.8829 128.652 85.0137 126.983L89.0535 87.8289C89.0535 87.8289 96.7059 82.4898 99.322 83.3262C101.195 83.647 103.108 83.647 104.981 83.3262C108.754 82.8457 112.616 87.8289 112.616 87.8289L117.635 103.846L129.398 99.7886C130.157 100.245 130.758 100.923 131.12 101.731C131.483 102.539 131.59 103.439 131.427 104.309V104.309Z" fill="#00BABA"/>
<path d="M105.711 62.8951C103.84 61.7469 101.71 61.086 99.5177 60.973C98.32 60.8008 97.0995 60.8812 95.9348 61.2092C94.7701 61.5372 93.6869 62.1054 92.7551 62.8773C90.1924 65.2266 89.9255 69.1242 89.961 72.5946C89.9966 76.0651 90.05 79.8737 87.8967 82.5788C86.117 84.8747 83.0738 85.8179 80.7781 87.5798C79.6291 88.4028 78.6728 89.4657 77.9752 90.6949C77.2777 91.9241 76.8556 93.2902 76.7383 94.6987C76.1866 105.377 92.9331 100.75 98.45 98.4005C99.4214 98.0352 100.319 97.4988 101.102 96.8166C101.928 95.9717 102.538 94.9399 102.881 93.8088C104.177 90.0233 103.954 85.8826 102.258 82.2585C102.009 81.7246 101.724 81.0661 102.08 80.5855C102.275 80.3696 102.519 80.2047 102.792 80.105C103.483 79.8095 104.071 79.3184 104.485 78.6921C104.9 78.0659 105.122 77.3321 105.124 76.5812C104.906 75.4904 104.402 74.477 103.664 73.6446C103.3 73.2235 103.047 72.7177 102.929 72.1736C102.811 71.6295 102.831 71.0644 102.988 70.5301C103.38 69.6937 104.305 69.2843 104.981 68.7504C105.676 68.0716 106.152 67.2007 106.349 66.2495C106.545 65.2982 106.453 64.3099 106.085 63.4113C105.986 63.2219 105.86 63.048 105.711 62.8951V62.8951Z" fill="#473F47"/>
<path opacity="0.1" d="M110 108.652L109.519 125.257C107.848 126.209 106.112 127.042 104.323 127.748L105.568 103.206L110 108.652Z" fill="#020202"/>
<path d="M259.632 134.618L185.012 111.856V111.322C185.136 108.723 188.073 47.5187 188.963 40.8804L190.333 41.0761C189.479 47.323 186.774 104.648 186.418 110.841L260.006 133.248L259.632 134.618Z" fill="#00BABA"/>
<g opacity="0.41">
<path opacity="0.41" d="M134.292 88.3276L131.177 87.242L132.761 84.4834L135.876 85.569L134.292 88.3276Z" fill="#00BABA"/>
</g>
<path d="M137.389 89.4132L134.274 88.3275L137.068 83.4155L140.183 84.519L137.389 89.4132Z" fill="#00BABA"/>
<g opacity="0.5">
<path opacity="0.5" d="M140.467 90.5164L137.353 89.413L141.464 82.2407L144.578 83.3442L140.467 90.5164Z" fill="#00BABA"/>
</g>
<path d="M143.564 91.6022L140.45 90.4987L145.806 81.1196L148.921 82.2231L143.564 91.6022Z" fill="#00BABA"/>
<path d="M146.661 92.6879L143.546 91.5845L150.166 79.9985L153.281 81.0842L146.661 92.6879Z" fill="#00BABA"/>
<path d="M146.661 92.6879L143.546 91.5845L150.166 79.9985L153.281 81.0842L146.661 92.6879Z" fill="url(#paint8_linear)"/>
<path d="M204.374 116.464L191.561 112.62L193.696 74.6411L206.51 78.4853L204.374 116.464Z" fill="#00BABA"/>
<path d="M219.323 120.967L206.51 117.123L207.578 98.1157L220.391 101.978L219.323 120.967Z" fill="#00BABA"/>
<path d="M233.934 125.346L221.121 121.501L224.093 68.4302L236.906 72.2744L233.934 125.346Z" fill="#00BABA"/>
<path d="M248.652 129.777L235.839 125.933L239.7 56.9688L252.514 60.8129L248.652 129.777Z" fill="#00BABA"/>
<path d="M85.9925 48.4438C85.9925 53.783 82.54 57.8764 78.251 57.5204L58.3546 55.8475C54.0656 55.4915 50.5953 50.8465 50.5953 45.4539C50.5953 40.0614 54.1546 36.0214 58.3546 36.3774L61.202 36.6087C61.202 36.3596 61.202 36.0926 61.202 35.8256C61.202 30.878 64.4054 27.1406 68.3206 27.4788C72.2358 27.8169 75.4392 32.0882 75.4392 37.0359C75.4573 37.2966 75.4573 37.5582 75.4392 37.8189L78.3044 38.0681C82.5222 38.424 85.9925 43.0691 85.9925 48.4438Z" fill="white"/>
<path opacity="0.53" d="M85.9925 48.4438C85.9925 53.783 82.54 57.8764 78.251 57.5204L58.3546 55.8475C54.0656 55.4915 50.5953 50.8465 50.5953 45.4539C50.5953 40.0614 54.1546 36.0214 58.3546 36.3774L61.202 36.6087C61.202 36.3596 61.202 36.0926 61.202 35.8256C61.202 30.878 64.4054 27.1406 68.3206 27.4788C72.2358 27.8169 75.4392 32.0882 75.4392 37.0359C75.4573 37.2966 75.4573 37.5582 75.4392 37.8189L78.3044 38.0681C82.5222 38.424 85.9925 43.0691 85.9925 48.4438Z" fill="#00BABA"/>
<path d="M83.4831 49.227C83.4831 54.5662 80.0306 58.6595 75.7416 58.3036L55.8452 56.6841C51.5563 56.2747 48.1749 51.6297 48.1749 46.2371C48.1749 40.8446 51.6452 36.8046 55.9342 37.1606L58.7816 37.3919C58.7816 37.125 58.7816 36.8758 58.7816 36.6088C58.7816 31.6612 61.9672 27.9238 65.9002 28.262C69.8332 28.6001 73.0188 32.8714 73.0188 37.8191C73.0188 38.086 73.0188 38.353 73.0188 38.6021L75.8662 38.8513C80.0128 39.2072 83.4831 43.8523 83.4831 49.227Z" fill="white"/>
<path d="M141.944 76.1539L134.256 62.1475L136.641 46.2725L137.424 46.397L135.075 62.0052L142.638 75.7802L141.944 76.1539Z" fill="#00BABA"/>
<path d="M150.737 95.5556L150.524 96.3091L179.26 104.435L179.473 103.682L150.737 95.5556Z" fill="#00BABA"/>
<path d="M146.767 22.727C148.094 22.9851 149.324 23.6005 150.326 24.5067L154.865 18.1531C148.333 11.8529 138.385 13.7928 132.637 22.4778C131.887 23.6052 131.238 24.7963 130.697 26.0372L136.623 28.778C138.723 24.3643 142.852 21.8905 146.767 22.727Z" fill="#00BABA"/>
<path d="M154.793 18.1888L150.255 24.5424C149.253 23.6362 148.022 23.0208 146.696 22.7627C142.781 21.9262 138.652 24.4001 136.481 28.8671L134.701 28.0485L134.826 27.7637L130.697 25.8594C131.202 24.7163 131.797 23.6153 132.477 22.5669C138.314 13.8285 148.262 11.8886 154.793 18.1888Z" fill="url(#paint9_linear)"/>
<path d="M137.513 42.4465L132.993 48.7823C132.541 48.2529 132.125 47.694 131.747 47.1093L135.858 41.3253C134.779 39.8575 134.035 38.1709 133.678 36.3844C133.321 34.5978 133.361 32.7547 133.794 30.9851C134.012 29.9678 134.34 28.9772 134.772 28.0308L136.552 28.8672C136.026 29.8806 135.631 30.9571 135.378 32.0707C134.949 33.8509 134.919 35.7035 135.288 37.4969C135.657 39.2903 136.417 40.9802 137.513 42.4465V42.4465Z" fill="#00BABA"/>
<path d="M140.218 53.1247C137.39 52.4975 134.85 50.9518 132.993 48.7288L135.858 41.2718L137.513 42.3752C140.93 46.611 146.785 46.2906 150.558 41.6278C154.331 36.9649 154.633 29.7748 151.216 25.6103C150.93 25.247 150.615 24.9077 150.273 24.5959L153.174 17.0854L154.829 18.1711C161.36 24.4891 161.948 36.6446 156.217 45.3474C152.213 51.345 146.055 54.3705 140.236 53.1247H140.218Z" fill="#473F47"/>
<path d="M145.112 21.6059C146.433 21.8796 147.66 22.493 148.671 23.3856L153.174 17.0854C146.643 10.7852 136.694 12.7073 130.946 21.4101C130.198 22.5351 129.554 23.7266 129.024 24.9696L134.933 27.7281C137.157 23.261 141.215 20.7694 145.112 21.6059Z" fill="#00BABA"/>
<path d="M135.858 41.2892L131.818 47.0733L131.409 47.625C126.479 42.0189 125.554 32.8356 128.971 24.9692L130.75 25.8057L134.879 27.71L134.755 27.9948C134.32 28.934 133.992 29.919 133.776 30.9313C133.343 32.7049 133.305 34.552 133.665 36.3419C134.024 38.1319 134.773 39.8208 135.858 41.2892V41.2892Z" fill="#00BABA"/>
<path d="M135.858 41.2892L131.818 47.0733L131.409 47.625C126.479 42.0189 125.554 32.8356 128.971 24.9692L130.75 25.8057L134.879 27.71L134.755 27.9948C134.32 28.934 133.992 29.919 133.776 30.9313C133.343 32.7049 133.305 34.552 133.665 36.3419C134.024 38.1319 134.773 39.8208 135.858 41.2892V41.2892Z" fill="url(#paint10_linear)"/>
<path d="M138.563 52.0388C135.736 51.4006 133.197 49.8496 131.338 47.6251L135.858 41.2715C139.293 45.5251 145.13 45.1869 148.903 40.5419C152.676 35.8968 152.996 28.6711 149.561 24.5244C149.28 24.1572 148.964 23.8175 148.618 23.51L153.174 17.0674C159.705 23.3676 160.293 35.5409 154.562 44.2437C150.594 50.2413 144.418 53.249 138.545 52.0032L138.563 52.0388Z" fill="#605860"/>
</g>
<defs>
<linearGradient id="paint0_linear" x1="271.542" y1="37.2708" x2="32.5735" y2="238.86" gradientUnits="userSpaceOnUse">
<stop offset="0.01"/>
<stop offset="0.08" stop-opacity="0.69"/>
<stop offset="0.21" stop-opacity="0.32"/>
<stop offset="1" stop-opacity="0"/>
</linearGradient>
<linearGradient id="paint1_linear" x1="5104.12" y1="-2675.97" x2="2599.83" y2="-1633.28" gradientUnits="userSpaceOnUse">
<stop offset="0.01"/>
<stop offset="0.08" stop-opacity="0.69"/>
<stop offset="0.21" stop-opacity="0.32"/>
<stop offset="1" stop-opacity="0"/>
</linearGradient>
<linearGradient id="paint2_linear" x1="5799.18" y1="-6840.32" x2="2570.12" y2="-6226.36" gradientUnits="userSpaceOnUse">
<stop offset="0.01"/>
<stop offset="0.08" stop-opacity="0.69"/>
<stop offset="0.21" stop-opacity="0.32"/>
<stop offset="1" stop-opacity="0"/>
</linearGradient>
<linearGradient id="paint3_linear" x1="6165.75" y1="-8539.57" x2="2716.43" y2="-7997.82" gradientUnits="userSpaceOnUse">
<stop offset="0.01"/>
<stop offset="0.08" stop-opacity="0.69"/>
<stop offset="0.21" stop-opacity="0.32"/>
<stop offset="1" stop-opacity="0"/>
</linearGradient>
<linearGradient id="paint4_linear" x1="6235.23" y1="2615.51" x2="5669.53" y2="5792.51" gradientUnits="userSpaceOnUse">
<stop offset="0.01"/>
<stop offset="0.08" stop-opacity="0.69"/>
<stop offset="0.21" stop-opacity="0.32"/>
<stop offset="1" stop-opacity="0"/>
</linearGradient>
<linearGradient id="paint5_linear" x1="123.045" y1="84.8036" x2="168.692" y2="84.8036" gradientUnits="userSpaceOnUse">
<stop stop-color="#EAEAEA"/>
<stop offset="1" stop-color="#A3A3A3"/>
</linearGradient>
<linearGradient id="paint6_linear" x1="-18249.6" y1="-5392.31" x2="-18328.6" y2="-5223.17" gradientUnits="userSpaceOnUse">
<stop stop-color="#EAEAEA"/>
<stop offset="1" stop-color="#A3A3A3"/>
</linearGradient>
<linearGradient id="paint7_linear" x1="-17936.6" y1="-5657.57" x2="-17988.9" y2="-5450.9" gradientUnits="userSpaceOnUse">
<stop stop-color="#EAEAEA"/>
<stop offset="1" stop-color="#A3A3A3"/>
</linearGradient>
<linearGradient id="paint8_linear" x1="-9314.08" y1="5648.62" x2="-9194.97" y2="5811.73" gradientUnits="userSpaceOnUse">
<stop offset="0.01"/>
<stop offset="0.08" stop-opacity="0.69"/>
<stop offset="0.21" stop-opacity="0.32"/>
<stop offset="1" stop-opacity="0"/>
</linearGradient>
<linearGradient id="paint9_linear" x1="2311.9" y1="357.213" x2="2452.68" y2="685.293" gradientUnits="userSpaceOnUse">
<stop offset="0.01"/>
<stop offset="0.08" stop-opacity="0.69"/>
<stop offset="0.21" stop-opacity="0.32"/>
<stop offset="1" stop-opacity="0"/>
</linearGradient>
<linearGradient id="paint10_linear" x1="123.454" y1="27.0159" x2="147.943" y2="54.031" gradientUnits="userSpaceOnUse">
<stop offset="0.01" stop-color="white"/>
<stop offset="1" stop-color="white" stop-opacity="0"/>
</linearGradient>
<clipPath id="clip0">
<rect width="267" height="212" fill="white"/>
</clipPath>
</defs>
</svg>
