<svg width="275" height="80" viewBox="0 0 275 80" fill="none" xmlns="http://www.w3.org/2000/svg">
<g clip-path="url(#clip0_13_1232)">
<path fill-rule="evenodd" clip-rule="evenodd" d="M0 30C0 25.3406 0 23.0109 0.761204 21.1732C1.77614 18.7229 3.72287 16.7761 6.17317 15.7612C8.01087 15 10.3406 15 15 15H35C39.6594 15 41.9892 15 43.8269 15.7612C46.2771 16.7761 48.224 18.7229 49.2387 21.1732C50 23.0109 50 25.3406 50 30V50C50 54.6594 50 56.9892 49.2387 58.8269C48.224 61.2771 46.2771 63.224 43.8269 64.2387C41.9892 65 39.6594 65 35 65H15C10.3406 65 8.01087 65 6.17317 64.2387C3.72287 63.224 1.77614 61.2771 0.761204 58.8269C0 56.9892 0 54.6594 0 50L0 30ZM14.65 32.5249C12.7446 32.5249 11.2 30.9803 11.2 29.075C11.2 27.1696 12.7446 25.625 14.65 25.625H30.175C35.5735 25.625 39.95 30.0014 39.95 35.3999C39.95 40.7983 35.5735 45.1748 30.175 45.1748H18.1V50.9246C18.1 52.83 16.5554 54.3746 14.65 54.3746C12.7446 54.3746 11.2 52.83 11.2 50.9246V41.7248C11.2 39.8194 12.7446 38.2748 14.65 38.2748H30.175C31.7629 38.2748 33.05 36.9877 33.05 35.3999C33.05 33.8121 31.7629 32.5249 30.175 32.5249H14.65ZM30.175 48.0498H28.7456L34.0604 53.3646C34.6848 53.9888 35.5473 54.375 36.5 54.375C38.4054 54.375 39.95 52.8304 39.95 50.925C39.95 49.9723 39.5637 49.1098 38.9396 48.4854L36.6958 46.2419C34.7917 47.3896 32.5604 48.0498 30.175 48.0498Z" fill="white"/>
<path fill-rule="evenodd" clip-rule="evenodd" d="M63.75 54.5775H70.0881V45.2817H76.0035C82.1302 45.2817 86.3556 41.0563 86.3556 35.1408C86.3556 29.2254 82.1302 25 76.0035 25H63.75V54.5775ZM70.0881 39.5775V30.7042H75.3698C78.3275 30.7042 80.0175 32.3944 80.0175 35.1408C80.0175 37.8873 78.3275 39.5775 75.3698 39.5775H70.0881Z" fill="white"/>
<path d="M94.9862 54.5775H89.0706V25H94.9862V34.507H95.1974C96.6764 32.8169 98.3664 31.7606 100.902 31.7606C105.761 31.7606 109.141 35.1408 109.141 40.845V54.5775H103.226V41.6902C103.226 38.7323 101.747 37.0423 99.2116 37.0423C96.6764 37.0423 94.9862 38.9438 94.9862 41.6902V54.5775Z" fill="white"/>
<path d="M145.899 54.5775H150.124V49.0844H146.955C145.687 49.0844 144.842 48.2394 144.842 46.9719V37.676H150.124V32.1831H144.842V26.2676H139.772L138.927 32.1831H135.335V37.676H138.927V48.0281C138.927 52.2535 141.251 54.5775 145.899 54.5775Z" fill="white"/>
<path fill-rule="evenodd" clip-rule="evenodd" d="M152.258 43.3802C152.258 50.7746 156.483 55 163.244 55C170.004 55 174.23 50.7746 174.23 43.3802C174.23 35.9859 170.004 31.7606 163.244 31.7606C156.483 31.7606 152.258 35.9859 152.258 43.3802ZM168.314 43.3802C168.314 47.8169 165.99 49.7184 163.244 49.7184C160.497 49.7184 158.173 47.8169 158.173 43.3802C158.173 38.9438 160.497 37.0423 163.244 37.0423C165.99 37.0423 168.314 38.9438 168.314 43.3802Z" fill="white"/>
<path fill-rule="evenodd" clip-rule="evenodd" d="M203.589 55C196.829 55 192.603 50.7746 192.603 43.3802C192.603 35.9859 196.829 31.7606 203.589 31.7606C210.35 31.7606 214.575 35.9859 214.575 43.3802C214.575 50.7746 210.35 55 203.589 55ZM203.589 49.7184C206.336 49.7184 208.66 47.8169 208.66 43.3802C208.66 38.9438 206.336 37.0423 203.589 37.0423C200.843 37.0423 198.519 38.9438 198.519 43.3802C198.519 47.8169 200.843 49.7184 203.589 49.7184Z" fill="white"/>
<path fill-rule="evenodd" clip-rule="evenodd" d="M228.089 55C221.329 55 217.104 50.7746 217.104 43.3802C217.104 35.9859 221.329 31.7606 228.089 31.7606C234.85 31.7606 239.075 35.9859 239.075 43.3802C239.075 50.7746 234.85 55 228.089 55ZM228.089 49.7184C230.835 49.7184 233.16 47.8169 233.16 43.3802C233.16 38.9438 230.835 37.0423 228.089 37.0423C225.344 37.0423 223.019 38.9438 223.019 43.3802C223.019 47.8169 225.344 49.7184 228.089 49.7184Z" fill="white"/>
<path d="M242.238 54.5775H248.154V41.479C248.154 38.5211 249.844 37.0423 251.746 37.0423C253.858 37.0423 255.548 38.3098 255.548 41.479V54.5775H261.463V41.479C261.463 38.5211 263.154 37.0423 265.054 37.0423C267.167 37.0423 268.858 38.3098 268.858 41.479V54.5775H274.773V40.6338C274.773 35.1409 271.394 31.7606 266.533 31.7606C263.66 31.7606 260.829 33.2817 259.773 35.3522H259.563C258.463 33.155 256.098 31.7606 253.435 31.7606C251.11 31.7606 249.421 32.817 248.154 34.7183H247.942L247.308 32.1831H242.238V54.5775Z" fill="white"/>
<path d="M183.308 54.5775H177.392V32.1831H182.463L183.096 34.7183H183.308C184.575 32.8169 186.477 32.1831 188.589 32.1831H191.336V37.8873H189.012C185.42 37.8873 183.308 40 183.308 43.3804V54.5775Z" fill="white"/>
<path fill-rule="evenodd" clip-rule="evenodd" d="M123.073 55C116.313 55 112.087 50.7746 112.087 43.3802C112.087 35.9859 116.313 31.7606 123.073 31.7606C129.834 31.7606 134.059 35.9859 134.059 43.3802C134.059 50.7746 129.834 55 123.073 55ZM123.073 49.7184C125.82 49.7184 128.144 47.8169 128.144 43.3802C128.144 38.9438 125.82 37.0423 123.073 37.0423C120.327 37.0423 118.003 38.9438 118.003 43.3802C118.003 47.8169 120.327 49.7184 123.073 49.7184Z" fill="white"/>
</g>
<defs>
<clipPath id="clip0_13_1232">
<rect width="274.773" height="80" fill="white"/>
</clipPath>
</defs>
</svg>
