<svg width="375" height="180" viewBox="0 0 375 180" fill="none" xmlns="http://www.w3.org/2000/svg">
<path fill-rule="evenodd" clip-rule="evenodd" d="M258.969 91.2058C258.969 127.943 228.784 157.727 191.551 157.727C154.316 157.727 124.131 127.943 124.131 91.2058C124.131 54.4655 154.316 24.6836 191.551 24.6836C228.784 24.6836 258.969 54.4655 258.969 91.2058Z" fill="#F7D6A7"/>
<path fill-rule="evenodd" clip-rule="evenodd" d="M221.285 114.334C214.488 111.925 211.373 103.524 214.33 95.5734C217.284 87.6194 225.189 83.1247 231.986 85.534C238.783 87.9432 241.898 96.3405 238.941 104.295C235.988 112.248 228.083 116.743 221.285 114.334Z" fill="#EFBA6E"/>
<path fill-rule="evenodd" clip-rule="evenodd" d="M175.876 71.1576L173.575 68.8788C153.036 89.215 135.775 109.466 123.58 126.859C117.479 135.558 112.648 143.542 109.293 150.528C107.618 154.025 106.311 157.274 105.408 160.27C104.509 163.266 104.003 166.011 104 168.556C104 170.153 104.204 171.679 104.692 173.114C104.935 173.831 105.251 174.523 105.648 175.17C106.041 175.82 106.518 176.427 107.065 176.966C107.609 177.507 108.222 177.976 108.876 178.369C109.861 178.957 110.938 179.364 112.056 179.625C113.181 179.886 114.346 179.997 115.559 180C118.127 179.994 120.9 179.493 123.929 178.603C126.577 177.821 129.42 176.734 132.456 175.363C137.767 172.962 143.666 169.696 150.051 165.657C159.619 159.599 170.264 151.802 181.471 142.602C192.681 133.402 204.448 122.793 216.241 111.118C236.779 90.785 254.043 70.5337 266.238 53.1412C272.336 44.4391 277.17 36.4575 280.522 29.4689C282.2 25.9737 283.505 22.7257 284.407 19.7296C285.306 16.7317 285.812 13.9869 285.818 11.4422C285.815 9.84561 285.614 8.319 285.126 6.88408C284.883 6.16793 284.567 5.47697 284.17 4.8279C283.774 4.17913 283.3 3.5737 282.753 3.033C282.209 2.4923 281.596 2.0219 280.939 1.63088C279.957 1.04273 278.88 0.633254 277.759 0.373743C276.638 0.114232 275.469 0.000292902 274.259 0C271.688 0.00351482 268.916 0.50467 265.889 1.39539C263.241 2.17685 260.398 3.26527 257.362 4.63635C252.052 7.03609 246.149 10.3037 239.767 14.3425C230.196 20.4003 219.554 28.1953 208.344 37.3977C197.137 46.5978 185.368 57.2038 173.575 68.8788L178.178 73.4364C198.474 53.3404 218.693 36.4634 235.85 24.6767C244.424 18.7838 252.235 14.165 258.842 11.0626C262.14 9.51082 265.138 8.33951 267.747 7.57064C270.354 6.79884 272.572 6.44033 274.259 6.44384C275.318 6.44326 276.161 6.58121 276.783 6.79035C277.096 6.89462 277.357 7.01559 277.578 7.14798C277.8 7.28066 277.984 7.42448 278.152 7.58968C278.318 7.75487 278.463 7.93764 278.596 8.15732C278.797 8.48596 278.972 8.90246 279.102 9.44638C279.229 9.98884 279.309 10.6558 279.309 11.4422C279.312 13.1121 278.948 15.3088 278.17 17.8893C277.49 20.1487 276.499 22.7037 275.212 25.4954C272.96 30.3827 269.8 35.9947 265.845 42.1164C259.913 51.3076 252.188 61.6559 243.034 72.584C233.877 83.5122 223.294 95.0233 211.64 106.564C191.344 126.657 171.122 143.537 153.965 155.323C145.394 161.216 137.58 165.835 130.977 168.937C127.675 170.487 124.678 171.658 122.071 172.428C119.465 173.199 117.246 173.559 115.559 173.556C114.497 173.556 113.657 173.418 113.033 173.208C112.722 173.105 112.462 172.982 112.24 172.85C112.018 172.718 111.834 172.575 111.666 172.408C111.5 172.244 111.355 172.062 111.219 171.843C111.021 171.512 110.843 171.096 110.716 170.554C110.586 170.009 110.509 169.344 110.509 168.556C110.506 166.887 110.867 164.69 111.648 162.11C112.326 159.851 113.317 157.294 114.604 154.503C116.858 149.617 120.015 144.005 123.971 137.881C129.906 128.692 137.63 118.344 146.784 107.416C155.938 96.4848 166.521 84.9738 178.178 73.4364L175.876 71.1576Z" fill="#EDAA55"/>
<path fill-rule="evenodd" clip-rule="evenodd" d="M130.211 119.454C130.94 121.091 131.304 121.636 132.032 122.909L136.037 128.909L229.529 36.2536C227.126 34.515 223.276 32.2688 218.186 30.1389C216.188 29.3029 211.674 27.8525 211.674 27.8525L128.209 114L128.755 115.636L130.211 119.454Z" fill="#F7D6A7"/>
<path fill-rule="evenodd" clip-rule="evenodd" d="M214.434 43.6457C214.434 47.4684 210.2 50.5688 204.975 50.5688C199.753 50.5688 195.52 47.4684 195.52 43.6457C195.52 39.8231 199.753 36.7227 204.975 36.7227C210.2 36.7227 214.434 39.8231 214.434 43.6457Z" fill="#EFBA6E"/>
<path fill-rule="evenodd" clip-rule="evenodd" d="M155.329 127.874C153.05 123.261 156.632 117.115 163.329 114.151C170.026 111.188 177.303 112.524 179.582 117.14C181.86 121.756 178.279 127.9 171.582 130.866C164.885 133.829 157.607 132.49 155.329 127.874Z" fill="#EFBA6E"/>
<path fill-rule="evenodd" clip-rule="evenodd" d="M195.414 68.8114C196.218 72.8297 192.413 76.9471 186.913 78.0107C181.413 79.0713 176.301 76.679 175.494 72.6607C174.69 68.6453 178.495 64.5279 183.995 63.4643C189.495 62.4007 194.606 64.796 195.414 68.8114Z" fill="#EFBA6E"/>
<path fill-rule="evenodd" clip-rule="evenodd" d="M143.193 53.1277C144.309 53.7207 144.605 55.8858 143.849 57.9644C143.096 60.0399 141.579 61.2445 140.463 60.6515C139.345 60.0585 139.051 57.8934 139.804 55.8179C140.557 53.7393 142.074 52.5347 143.193 53.1277Z" fill="#EFBA6E"/>
<path fill-rule="evenodd" clip-rule="evenodd" d="M137.582 85.5113C142.44 85.9406 145.959 91.3965 145.44 97.6989C144.923 104.001 140.564 108.763 135.706 108.334C130.848 107.901 127.328 102.445 127.848 96.1431C128.364 89.8407 132.723 85.082 137.582 85.5113Z" fill="#EFBA6E"/>
<path fill-rule="evenodd" clip-rule="evenodd" d="M201.522 142.863C202.719 143.44 203.184 145.172 202.563 146.73C201.94 148.287 200.469 149.084 199.272 148.507C198.077 147.929 197.61 146.198 198.233 144.64C198.854 143.082 200.327 142.286 201.522 142.863Z" fill="#EFBA6E"/>
<path d="M70.49 106.74V64.58L43.63 106.74H70.49ZM68.45 154V131.9H11.33V108.44L65.05 31.6H97.52V106.74H111.46V131.9H97.52V154H68.45Z" fill="#EFBA6E"/>
<path d="M67.49 106.74V64.58L40.63 106.74H67.49ZM65.45 154V131.9H8.33V108.44L62.05 31.6H94.52V106.74H108.46V131.9H94.52V154H65.45Z" fill="#F7D6A7"/>
<path d="M326.49 106.74V64.58L299.63 106.74H326.49ZM324.45 154V131.9H267.33V108.44L321.05 31.6H353.52V106.74H367.46V131.9H353.52V154H324.45Z" fill="#EFBA6E"/>
<path d="M323.49 106.74V64.58L296.63 106.74H323.49ZM321.45 154V131.9H264.33V108.44L318.05 31.6H350.52V106.74H364.46V131.9H350.52V154H321.45Z" fill="#F7D6A7"/>
</svg>
