<svg width="700" height="555" viewBox="0 0 700 555" fill="none" xmlns="http://www.w3.org/2000/svg">
<mask id="mask0" mask-type="alpha" maskUnits="userSpaceOnUse" x="68" y="68" width="477" height="451">
<path d="M176.074 302.64C235.762 302.64 284.149 351.044 284.149 410.752C284.149 470.461 235.762 518.865 176.074 518.865C116.387 518.865 68 470.461 68 410.752C68 351.044 116.387 302.64 176.074 302.64ZM518.425 68.1548C532.577 68.1548 544.049 79.5974 544.049 93.7125V93.8522L542.909 301.809C542.909 420.487 447.418 516.919 328.891 518.836L325.292 518.865L325.292 301.809L325.904 301.802L326.5 93.6401C326.54 79.5533 338 68.1548 352.124 68.1548L518.425 68.1548Z" fill="white"/>
</mask>
<g mask="url(#mask0)">
<path d="M176.074 302.64C235.762 302.64 284.149 351.044 284.149 410.752C284.149 470.461 235.762 518.865 176.074 518.865C116.387 518.865 68 470.461 68 410.752C68 351.044 116.387 302.64 176.074 302.64ZM518.425 68.1548C532.577 68.1548 544.049 79.5974 544.049 93.7125V93.8522L542.909 301.809C542.909 420.487 447.418 516.919 328.891 518.836L325.292 518.865L325.292 301.809L325.904 301.802L326.5 93.6401C326.54 79.5533 338 68.1548 352.124 68.1548L518.425 68.1548Z" fill="#F8F8F8"/>
</g>
<path d="M339.754 380.543C358.415 399.21 358.415 429.879 339.754 448.547C321.093 467.215 266.108 491.55 247.447 472.883C228.786 454.215 253.112 399.211 271.774 380.543C290.435 361.875 320.76 361.875 339.754 380.543Z" fill="#FFCC66"/>
<path d="M283.632 371.589V373.583C283.632 408.146 311.928 436.395 346.549 436.395H347.88C357.201 418.448 354.205 395.85 338.892 380.563C324.245 365.607 301.608 362.616 283.632 371.589Z" fill="#DEB957"/>
<path d="M437.179 276.146C494.097 333.108 505.413 414.052 451.492 468.016L425.862 493.665C371.941 547.628 409.22 418.05 352.302 361.088C295.385 304.127 165.573 341.768 219.828 287.471L245.457 261.822C299.38 207.86 380.262 219.186 437.179 276.146Z" fill="#FF6666"/>
<path d="M625.623 87.7618C642.925 105.083 635.273 215.003 529.131 321.593C459.922 390.543 416.334 414.859 416.334 414.859C370.084 446.17 347.791 424.851 318.51 395.539C289.229 366.228 267.602 343.91 299.212 297.61C299.212 297.61 323.834 253.641 392.71 184.358C498.851 78.1025 608.321 70.1086 625.623 87.7618Z" fill="#F4F0D3"/>
<path d="M434.617 399.765C386.376 432.035 363.087 410.078 332.812 379.805C302.204 349.199 279.913 326.245 312.85 278.007L317.841 270.023C304.865 287.655 299.21 297.635 299.21 297.635C267.604 343.876 289.229 366.165 318.506 395.441C347.783 424.716 370.074 445.674 416.319 414.736C416.319 414.736 436.946 403.092 472.545 373.484C448.258 392.114 434.617 399.765 434.617 399.765Z" fill="#E8E4C8"/>
<path d="M514.442 199.126C530.821 215.511 530.821 241.928 514.442 258.314C498.063 274.699 471.655 274.699 455.275 258.314C438.895 241.929 438.895 215.512 455.275 199.126C471.654 182.74 498.397 182.74 514.442 199.126Z" fill="#32C8CD"/>
<path d="M417.675 302.45C425.998 310.779 410.018 340.433 369.401 381.083C328.784 421.734 304.148 432.728 295.825 424.065C287.502 415.735 298.156 391.079 338.772 350.43C379.722 309.78 409.019 293.787 417.675 302.45Z" fill="#FF6666"/>
<path d="M523.539 96.0581C526.536 118.443 538.523 142.164 558.169 161.877C575.484 178.916 595.464 190.275 615.11 194.953C637.086 140.159 635.421 98.0626 625.432 87.7048C615.775 77.682 575.818 76.0117 523.539 96.0581Z" fill="#FF6666"/>
<ellipse rx="17.4605" ry="17.5408" transform="matrix(-0.910467 0.413538 -0.415102 -0.909754 326.95 161.179)" fill="#009191"/>
<ellipse cx="144.15" cy="461.085" rx="14.8161" ry="14.2235" transform="rotate(155.52 144.15 461.085)" fill="#009999"/>
</svg>
