<svg width="749" height="490" viewBox="0 0 749 490" fill="none" xmlns="http://www.w3.org/2000/svg">
<path d="M597.908 427.458C597.908 437.1 590.093 444.917 580.453 444.917C570.815 444.917 563.001 437.1 563.001 427.458C563.001 417.816 570.815 410 580.453 410C590.093 410 597.908 417.816 597.908 427.458Z" fill="#F3B781"/>
<circle cx="367.579" cy="239.579" r="232.079" stroke="#009191" stroke-opacity="0.4" stroke-miterlimit="14.3356" stroke-dasharray="8 8"/>
<circle cx="366.039" cy="241.119" r="165.848" stroke="#009191" stroke-opacity="0.4" stroke-miterlimit="14.3356" stroke-dasharray="8 8"/>
<path d="M463.929 231.157C464.232 233.681 464.436 236.234 464.539 238.814L464.039 238.834C464.089 240.103 464.115 241.378 464.115 242.659C464.115 243.94 464.089 245.216 464.039 246.485L464.539 246.505C464.436 249.084 464.232 251.637 463.929 254.161L463.433 254.101C463.127 256.647 462.722 259.161 462.219 261.642L462.709 261.741C462.198 264.265 461.587 266.754 460.881 269.203L460.401 269.065C459.692 271.522 458.887 273.939 457.991 276.312L458.458 276.489C457.55 278.892 456.548 281.251 455.456 283.56L455.004 283.346C453.913 285.654 452.731 287.912 451.465 290.117L451.898 290.366C450.62 292.589 449.256 294.758 447.81 296.868L447.398 296.585C445.956 298.688 444.433 300.732 442.832 302.713L443.221 303.027C441.611 305.019 439.923 306.947 438.162 308.806L437.799 308.463C436.049 310.312 434.225 312.093 432.333 313.802L432.668 314.173C430.77 315.888 428.803 317.53 426.773 319.096L426.467 318.7C424.453 320.253 422.375 321.73 420.238 323.127L420.512 323.546C418.374 324.944 416.177 326.262 413.925 327.496L413.685 327.058C411.458 328.279 409.177 329.417 406.847 330.467L407.053 330.923C404.726 331.973 402.351 332.935 399.931 333.807L399.762 333.337C397.377 334.197 394.948 334.968 392.481 335.646L392.613 336.128C390.157 336.803 387.662 337.387 385.133 337.876L385.038 337.385C382.553 337.865 380.034 338.253 377.486 338.545L377.542 339.041C375.018 339.33 372.463 339.525 369.884 339.623L369.865 339.123C368.596 339.171 367.32 339.195 366.038 339.195C364.757 339.195 363.481 339.171 362.211 339.123L362.192 339.623C359.613 339.525 357.059 339.33 354.534 339.041L354.591 338.545C352.042 338.253 349.524 337.865 347.039 337.385L346.944 337.876C344.414 337.387 341.92 336.803 339.463 336.128L339.596 335.646C337.128 334.968 334.7 334.197 332.315 333.337L332.145 333.807C329.726 332.935 327.35 331.973 325.024 330.923L325.229 330.467C322.9 329.417 320.619 328.279 318.391 327.058L318.151 327.496C315.9 326.262 313.703 324.944 311.565 323.546L311.838 323.127C309.702 321.73 307.624 320.253 305.609 318.7L305.304 319.096C303.273 317.53 301.307 315.888 299.409 314.173L299.744 313.802C297.852 312.093 296.028 310.312 294.277 308.463L293.914 308.806C292.153 306.947 290.465 305.019 288.856 303.027L289.244 302.713C287.644 300.732 286.12 298.688 284.679 296.585L284.266 296.868C282.82 294.758 281.456 292.589 280.178 290.366L280.612 290.117C279.345 287.912 278.164 285.654 277.072 283.346L276.62 283.56C275.529 281.251 274.526 278.893 273.618 276.489L274.086 276.312C273.189 273.939 272.384 271.522 271.676 269.065L271.195 269.203C270.489 266.754 269.879 264.265 269.367 261.741L269.857 261.642C269.355 259.161 268.949 256.647 268.644 254.101L268.147 254.161C267.844 251.637 267.64 249.084 267.538 246.505L268.038 246.485C267.987 245.216 267.962 243.94 267.962 242.659C267.962 241.378 267.987 240.103 268.038 238.833L267.538 238.814C267.64 236.234 267.844 233.681 268.147 231.157L268.644 231.217C268.949 228.672 269.355 226.157 269.857 223.676L269.367 223.577C269.879 221.053 270.489 218.564 271.195 216.115L271.676 216.254C272.384 213.796 273.189 211.379 274.086 209.006L273.618 208.829C274.526 206.426 275.529 204.067 276.62 201.759L277.072 201.972C278.164 199.664 279.345 197.406 280.612 195.201L280.178 194.952C281.456 192.729 282.82 190.56 284.266 188.451L284.679 188.733C286.12 186.63 287.644 184.586 289.244 182.606L288.856 182.291C290.465 180.3 292.153 178.372 293.914 176.512L294.277 176.856C296.028 175.007 297.852 173.225 299.744 171.516L299.409 171.145C301.307 169.43 303.273 167.788 305.304 166.223L305.609 166.619C307.624 165.065 309.702 163.588 311.838 162.191L311.565 161.772C313.703 160.374 315.9 159.056 318.151 157.822L318.391 158.26C320.619 157.039 322.9 155.902 325.229 154.851L325.024 154.395C327.35 153.346 329.726 152.383 332.145 151.511L332.315 151.981C334.7 151.122 337.128 150.351 339.596 149.672L339.463 149.19C341.919 148.515 344.414 147.931 346.944 147.442L347.039 147.933C349.524 147.453 352.042 147.065 354.591 146.774L354.534 146.277C357.059 145.988 359.613 145.793 362.192 145.696L362.211 146.195C363.481 146.147 364.757 146.123 366.038 146.123C367.32 146.123 368.596 146.147 369.865 146.195L369.884 145.696C372.463 145.793 375.018 145.988 377.542 146.277L377.486 146.774C380.034 147.065 382.553 147.453 385.038 147.933L385.132 147.442C387.662 147.931 390.157 148.515 392.613 149.19L392.481 149.672C394.948 150.351 397.377 151.122 399.762 151.981L399.931 151.511C402.351 152.383 404.726 153.346 407.053 154.395L406.847 154.851C409.177 155.902 411.458 157.039 413.685 158.26L413.925 157.822C416.177 159.056 418.374 160.374 420.512 161.772L420.238 162.191C422.375 163.588 424.453 165.065 426.467 166.619L426.772 166.223C428.803 167.788 430.77 169.43 432.668 171.145L432.333 171.516C434.225 173.225 436.048 175.007 437.799 176.856L438.162 176.512C439.923 178.372 441.611 180.3 443.221 182.291L442.832 182.606C444.433 184.586 445.956 186.63 447.398 188.733L447.81 188.451C449.256 190.56 450.62 192.729 451.898 194.952L451.465 195.201C452.731 197.406 453.913 199.664 455.004 201.972L455.456 201.759C456.548 204.067 457.55 206.426 458.458 208.829L457.991 209.006C458.887 211.379 459.692 213.796 460.401 216.254L460.881 216.115C461.587 218.564 462.198 221.053 462.709 223.577L462.219 223.676C462.722 226.157 463.127 228.672 463.433 231.217L463.929 231.157Z" stroke="#009191" stroke-opacity="0.4" stroke-miterlimit="14.3356" stroke-dasharray="8 8"/>
<rect x="463.611" y="53" width="285.781" height="217.613" rx="8" transform="rotate(6.22866 463.611 53)" fill="white" stroke="#E4E4E4" stroke-width="2"/>
<path fill-rule="evenodd" clip-rule="evenodd" d="M576.643 138.419C576.959 135.527 574.868 132.927 571.972 132.611L476.437 122.185C473.542 121.868 470.939 123.956 470.623 126.848C470.307 129.739 472.399 132.339 475.294 132.655L570.829 143.082C573.725 143.398 576.328 141.31 576.643 138.419ZM583.368 151.07C586.264 151.386 588.355 153.986 588.039 156.878C587.724 159.769 585.121 161.857 582.225 161.541L473.438 149.668C470.542 149.352 468.451 146.751 468.766 143.86C469.082 140.969 471.685 138.881 474.581 139.197L583.368 151.07ZM597.578 192.353C597.894 189.462 595.802 186.862 592.907 186.546L470.867 173.226C467.971 172.91 465.368 174.998 465.052 177.89C464.737 180.781 466.828 183.381 469.724 183.697L591.764 197.017C594.659 197.333 597.262 195.245 597.578 192.353ZM551.292 199.221C554.187 199.538 556.279 202.138 555.963 205.029C555.648 207.92 553.045 210.008 550.149 209.692L467.867 200.712C464.971 200.396 462.88 197.796 463.195 194.904C463.511 192.013 466.114 189.925 469.01 190.241L551.292 199.221ZM580.611 224.937C580.927 222.045 578.836 219.445 575.94 219.129L467.153 207.256C464.257 206.94 461.654 209.028 461.338 211.919C461.023 214.81 463.114 217.411 466.01 217.727L574.797 229.6C577.693 229.916 580.296 227.828 580.611 224.937ZM592.007 243.401C592.322 240.51 590.231 237.91 587.335 237.594L465.295 224.274C462.4 223.958 459.797 226.046 459.481 228.937C459.165 231.829 461.257 234.429 464.152 234.745L586.192 248.065C589.088 248.381 591.691 246.293 592.007 243.401Z" fill="#E4E4E4"/>
<rect x="473.002" y="105.049" width="133.313" height="9.80032" rx="3.76046" transform="rotate(6.22866 473.002 105.049)" fill="#E4E4E4"/>
<path fill-rule="evenodd" clip-rule="evenodd" d="M727.814 154.99C728.134 152.059 726.014 149.424 723.079 149.103L640.448 140.085C637.514 139.765 634.875 141.881 634.555 144.811C634.235 147.742 636.355 150.378 639.29 150.698L721.921 159.716C724.856 160.037 727.494 157.921 727.814 154.99ZM694.551 163.441C697.486 163.762 699.606 166.397 699.286 169.328C698.966 172.259 696.327 174.375 693.392 174.055L637.407 167.944C634.472 167.624 632.352 164.988 632.672 162.058C632.992 159.127 635.631 157.011 638.566 157.331L694.551 163.441ZM710.726 188.028C711.046 185.098 708.926 182.462 705.991 182.142L636.683 174.577C633.748 174.257 631.11 176.373 630.79 179.304C630.47 182.235 632.59 184.87 635.525 185.19L704.833 192.755C707.768 193.075 710.406 190.959 710.726 188.028ZM682.199 202.365C682.519 199.434 680.399 196.799 677.464 196.479L634.801 191.822C631.866 191.502 629.228 193.618 628.908 196.549C628.588 199.48 630.708 202.115 633.643 202.435L676.305 207.092C679.24 207.412 681.879 205.296 682.199 202.365Z" fill="#E4E4E4"/>
<rect x="0.000976562" y="60.2148" width="312" height="241.21" rx="8" transform="rotate(-5.74195 0.000976562 60.2148)" fill="#F9F9F9"/>
<ellipse cx="80.3377" cy="158.829" rx="27.6971" ry="27.773" transform="rotate(-5.74195 80.3377 158.829)" fill="#FF6666"/>
<path fill-rule="evenodd" clip-rule="evenodd" d="M193.073 205.753C198.619 205.195 203.572 209.301 204.138 214.924C204.703 220.546 200.666 225.557 195.12 226.114L157.186 229.929C151.64 230.486 146.686 226.38 146.121 220.757C145.555 215.135 149.593 210.125 155.138 209.567L193.073 205.753ZM106.739 214.434C112.284 213.876 117.238 217.982 117.804 223.605C118.369 229.228 114.332 234.238 108.786 234.796L70.8513 238.61C65.3057 239.168 60.3518 235.062 59.7864 229.439C59.2211 223.816 63.2583 218.806 68.8038 218.248L106.739 214.434ZM291.082 206.181C290.517 200.558 285.563 196.452 280.018 197.01L242.083 200.824C236.537 201.382 232.5 206.392 233.065 212.015C233.631 217.638 238.584 221.744 244.13 221.186L282.065 217.372C287.61 216.814 291.648 211.804 291.082 206.181Z" fill="#E4E4E4"/>
<ellipse cx="166.675" cy="150.148" rx="27.6971" ry="27.773" transform="rotate(-5.74195 166.675 150.148)" fill="#FFCC66"/>
<ellipse cx="253.618" cy="141.405" rx="27.6971" ry="27.773" transform="rotate(-5.74195 253.618 141.405)" fill="#32C8CD"/>
<rect x="200.001" y="229.36" width="278.147" height="263.516" rx="20" transform="rotate(-9.59462 200.001 229.36)" fill="#009191"/>
<ellipse cx="278.746" cy="293.772" rx="40.4028" ry="40.3572" transform="rotate(-9.59462 278.746 293.772)" fill="white"/>
<rect x="267.182" y="407.302" width="115.375" height="13.8879" rx="3.87015" transform="rotate(-9.59462 267.182 407.302)" fill="white"/>
<rect x="262.182" y="374.01" width="155.623" height="13.8879" rx="3.87015" transform="rotate(-9.59462 262.182 374.01)" fill="white"/>
<g opacity="0.8">
<ellipse cx="658.817" cy="14.2235" rx="14.8161" ry="14.2235" fill="#009999"/>
<circle cx="126.088" cy="347.087" r="23.0866" fill="#FBCB67"/>
</g>
</svg>
