<svg width="817" height="419" viewBox="0 0 817 419" fill="none" xmlns="http://www.w3.org/2000/svg">
<g opacity="0.8">
<ellipse cx="801.541" cy="284.085" rx="14.8161" ry="14.2235" fill="#009999"/>
<circle cx="12" cy="281" r="12" fill="#009191"/>
<path d="M486.917 352.849C486.917 360.499 480.716 366.701 473.065 366.701C465.415 366.701 459.213 360.499 459.213 352.849C459.213 345.199 465.415 338.997 473.065 338.997C480.716 338.997 486.917 345.199 486.917 352.849Z" fill="#777CFF"/>
<circle cx="336.084" cy="185.087" r="23.0866" fill="#EB6161"/>
</g>
<path d="M229 102.5H183V173H29V379H560V266.5H654.5V151H603V102.5H371H317.5H229Z" stroke="#009191" stroke-width="2" stroke-dasharray="6 6"/>
<path fill-rule="evenodd" clip-rule="evenodd" d="M288.892 185H79.1076C74.6299 185 71 180.429 71 174.791V32.2094C71 26.5709 74.6299 22 79.1076 22H288.892C293.37 22 297 26.5709 297 32.2094V174.791C297 180.429 293.37 185 288.892 185Z" fill="#FFE4B2"/>
<path fill-rule="evenodd" clip-rule="evenodd" d="M273.892 199H64.1076C59.6299 199 56 194.429 56 188.791V46.2094C56 40.5709 59.6299 36 64.1076 36H273.892C278.37 36 282 40.5709 282 46.2094V188.791C282 194.429 278.37 199 273.892 199Z" fill="#F3B781"/>
<path fill-rule="evenodd" clip-rule="evenodd" d="M192.676 69H84.3243C82.4882 69 81 67.6568 81 66.0003C81 64.3432 82.4882 63 84.3243 63H192.676C194.512 63 196 64.3432 196 66.0003C196 67.6568 194.512 69 192.676 69Z" fill="#FFE4B2"/>
<path fill-rule="evenodd" clip-rule="evenodd" d="M192.676 82H84.3243C82.4882 82 81 80.6568 81 78.9997C81 77.3432 82.4882 76 84.3243 76H192.676C194.512 76 196 77.3432 196 78.9997C196 80.6568 194.512 82 192.676 82Z" fill="#FFE4B2"/>
<path fill-rule="evenodd" clip-rule="evenodd" d="M141.666 95H84.3336C82.4927 95 81 93.6568 81 91.9997C81 90.3432 82.4927 89 84.3336 89H141.666C143.507 89 145 90.3432 145 91.9997C145 93.6568 143.507 95 141.666 95Z" fill="#FFE4B2"/>
<path fill-rule="evenodd" clip-rule="evenodd" d="M572.898 137H382.102C378.179 137 375 133.696 375 129.62V7.38005C375 3.30419 378.179 0 382.102 0H572.898C576.821 0 580 3.30419 580 7.38005V129.62C580 133.696 576.821 137 572.898 137Z" fill="#83DDE0"/>
<path fill-rule="evenodd" clip-rule="evenodd" d="M572.898 21H382.102C378.179 21 375 20.4935 375 19.8688V1.13125C375 0.506482 378.179 0 382.102 0H572.898C576.821 0 580 0.506482 580 1.13125V19.8688C580 20.4935 576.821 21 572.898 21Z" fill="#009191"/>
<path d="M519 107.891L529.734 97.1572" stroke="#CBEAEA" stroke-width="4.4" stroke-linecap="round" stroke-linejoin="round"/>
<path d="M529.734 118.626L519 107.892" stroke="#CBEAEA" stroke-width="4.4" stroke-linecap="round" stroke-linejoin="round"/>
<path d="M559.897 108.161L549.163 97.4268" stroke="#CBEAEA" stroke-width="4.4" stroke-linecap="round" stroke-linejoin="round"/>
<path d="M549.163 118.895L559.897 108.161" stroke="#CBEAEA" stroke-width="4.4" stroke-linecap="round" stroke-linejoin="round"/>
<path d="M542.195 96L536.184 120.412" stroke="#CBEAEA" stroke-width="4.4" stroke-linecap="round" stroke-linejoin="round"/>
<path fill-rule="evenodd" clip-rule="evenodd" d="M393.109 419H190.891C186.533 419 183 415 183 410.065V263.935C183 259.001 186.533 255 190.891 255H393.109C397.467 255 401 259.001 401 263.935V410.065C401 415 397.467 419 393.109 419Z" fill="#FF7673"/>
<path d="M203 399L219 383L235 399" stroke="#FFDFDF" stroke-width="4.4" stroke-linecap="round" stroke-linejoin="round"/>
<path d="M235 399L251.5 383L268 399" stroke="#FFDFDF" stroke-width="4.4" stroke-linecap="round" stroke-linejoin="round"/>
<path d="M268 399L285 383" stroke="#FFDFDF" stroke-width="4.4" stroke-linecap="round" stroke-linejoin="round"/>
<path fill-rule="evenodd" clip-rule="evenodd" d="M705.952 337H485.048C479.499 337 475 333.78 475 329.807V215.193C475 211.22 479.499 208 485.048 208H705.952C711.502 208 716 211.22 716 215.193V329.807C716 333.78 711.502 337 705.952 337Z" fill="#FF7673"/>
<path fill-rule="evenodd" clip-rule="evenodd" d="M689.952 319H469.048C463.499 319 459 315.78 459 311.807V197.193C459 193.22 463.499 190 469.048 190H689.952C695.502 190 700 193.22 700 197.193V311.807C700 315.78 695.502 319 689.952 319Z" fill="#FFC1C1"/>
<path fill-rule="evenodd" clip-rule="evenodd" d="M477 243C477 245.209 478.791 247 481 247H505C507.209 247 509 245.209 509 243V219C509 216.791 507.209 215 505 215H481C478.791 215 477 216.791 477 219V243Z" fill="#F1F1F1"/>
<path d="M527 218H668" stroke="#F1F1F1" stroke-width="6" stroke-linecap="round"/>
<path d="M527 233H668" stroke="#F1F1F1" stroke-width="6" stroke-linecap="round"/>
<path d="M527 250H668" stroke="#F1F1F1" stroke-width="6" stroke-linecap="round"/>
<path d="M527 265H610" stroke="#F1F1F1" stroke-width="6" stroke-linecap="round"/>
<path d="M700.5 212.012C688.626 212.012 679 202.383 679 190.506C679 178.629 688.626 169 700.5 169C712.374 169 722 178.629 722 190.506C722 202.383 712.374 212.012 700.5 212.012Z" fill="#326E98"/>
<path d="M303.72 292.548C303.72 296.091 300.848 298.964 297.305 298.964C293.763 298.964 290.892 296.091 290.892 292.548C290.892 289.005 293.763 286.132 297.305 286.132C300.848 286.132 303.72 289.005 303.72 292.548Z" fill="#F3B781"/>
<circle cx="216.47" cy="251.47" r="84.9697" stroke="#F8F8F8" stroke-miterlimit="14.3356" stroke-dasharray="8 8"/>
<circle cx="215.903" cy="252.036" r="60.6306" stroke="#F8F8F8" stroke-miterlimit="14.3356" stroke-dasharray="8 8"/>
<path d="M250.555 242.172C251.243 244.39 251.717 246.7 251.954 249.078L251.457 249.127C251.571 250.27 251.629 251.429 251.629 252.602C251.629 253.775 251.571 254.934 251.457 256.076L251.954 256.126C251.717 258.504 251.243 260.814 250.555 263.032L250.077 262.884C249.384 265.118 248.471 267.257 247.363 269.278L247.801 269.518C246.667 271.587 245.33 273.533 243.818 275.331L243.435 275.009C241.943 276.783 240.278 278.41 238.464 279.865L238.777 280.255C236.95 281.721 234.976 283.015 232.879 284.112L232.647 283.669C230.609 284.735 228.454 285.612 226.206 286.278L226.347 286.757C224.123 287.415 221.809 287.868 219.428 288.095L219.381 287.597C218.237 287.706 217.077 287.761 215.903 287.761C214.73 287.761 213.57 287.706 212.426 287.597L212.379 288.095C209.997 287.868 207.683 287.415 205.459 286.757L205.601 286.278C203.352 285.612 201.197 284.735 199.159 283.669L198.928 284.112C196.831 283.015 194.856 281.721 193.03 280.255L193.343 279.865C191.529 278.41 189.863 276.783 188.371 275.009L187.989 275.331C186.476 273.533 185.14 271.587 184.005 269.518L184.444 269.278C183.335 267.257 182.422 265.118 181.729 262.884L181.252 263.032C180.564 260.814 180.089 258.504 179.852 256.126L180.35 256.076C180.236 254.934 180.178 253.775 180.178 252.602C180.178 251.429 180.236 250.27 180.35 249.127L179.852 249.078C180.089 246.7 180.564 244.39 181.252 242.172L181.729 242.32C182.422 240.086 183.335 237.947 184.444 235.926L184.005 235.686C185.14 233.617 186.476 231.671 187.989 229.873L188.371 230.195C189.863 228.421 191.529 226.794 193.343 225.339L193.03 224.949C194.856 223.483 196.831 222.189 198.928 221.092L199.159 221.535C201.197 220.469 203.352 219.592 205.601 218.926L205.459 218.447C207.683 217.789 209.997 217.335 212.379 217.109L212.426 217.607C213.57 217.498 214.73 217.442 215.903 217.442C217.077 217.442 218.237 217.498 219.381 217.607L219.428 217.109C221.809 217.335 224.123 217.789 226.347 218.447L226.206 218.926C228.454 219.592 230.609 220.469 232.647 221.535L232.879 221.092C234.976 222.189 236.95 223.483 238.777 224.949L238.464 225.339C240.278 226.794 241.943 228.421 243.435 230.195L243.818 229.873C245.33 231.671 246.667 233.617 247.801 235.686L247.363 235.926C248.471 237.947 249.384 240.086 250.077 242.32L250.555 242.172Z" stroke="#F8F8F8" stroke-miterlimit="14.3356" stroke-dasharray="8 8"/>
</svg>
