<svg width="500" height="500" viewBox="0 0 500 500" fill="none" xmlns="http://www.w3.org/2000/svg">
<path d="M299.39 202.743H301.381C341.044 204.275 363.249 220.201 381.014 243.632C372.897 324.796 301.687 384.061 220.829 380.845C179.635 378.395 143.8 360.018 118.072 332.147C162.023 271.962 232.927 203.968 297.399 202.743H299.39Z" fill="#FFCC66"/>
<path d="M318.226 270.59C331.09 267.374 340.585 263.393 343.188 262.321C364.168 253.439 357.43 256.348 381.014 243.638C379.329 260.789 374.735 277.022 367.844 291.877C342.269 347.16 284.536 383.455 220.829 380.851C179.635 378.401 143.8 360.024 118.072 332.153C162.023 271.969 179.022 277.022 243.341 275.797L287.292 275.031C302.453 274.419 318.226 270.59 318.226 270.59Z" fill="#FF9F73"/>
<path d="M82.5195 276.55C97.9867 254.498 122.642 232.599 155.72 241.481C218.508 259.398 277.62 296.305 313.608 295.233C347.911 294.314 361.694 284.36 376.702 270.884C358.478 338.265 293.24 384.973 220.039 382.064C153.73 378.082 100.896 334.131 82.5195 276.55Z" fill="#FF7673"/>
<path d="M394.17 356.957L455.426 411.934C468.137 423.266 469.056 442.715 457.723 455.426C446.391 467.983 427.249 469.055 414.538 458.029L414.078 457.723L349.453 399.683C366.452 387.738 381.46 373.343 394.17 356.957ZM47.1549 218.978C52.5148 118.365 140.417 41.6414 241.03 47.1544C341.643 54.5052 420.357 140.417 413.007 241.03C405.656 341.643 319.744 418.366 218.978 413.006C118.212 407.646 41.6419 319.591 47.1549 218.978ZM238.886 78.395C156.497 75.0259 82.5303 138.885 79.1612 221.275C75.7921 303.664 137.967 375.946 222.041 381C304.43 384.369 376.712 322.194 381.766 238.12C385.135 156.65 324.185 84.98 241.49 78.5481L238.886 78.395Z" fill="white"/>
</svg>
