<svg width="500" height="500" viewBox="0 0 500 500" fill="none" xmlns="http://www.w3.org/2000/svg">
<path d="M212.843 157.766C175.989 172.45 149.955 208.346 149.955 250.299C149.955 305.319 194.732 349.921 249.968 349.921C305.203 349.921 349.98 305.319 349.98 250.299C349.98 239.662 348.307 229.414 345.208 219.803" stroke="white" stroke-width="2" stroke-linecap="round" stroke-linejoin="round"/>
<path d="M303.446 126.547C287.06 119.451 268.975 115.516 249.967 115.516C175.828 115.516 115.726 175.383 115.726 249.233C115.726 323.084 175.828 382.951 249.967 382.951C324.107 382.951 384.209 323.084 384.209 249.233C384.209 234.16 381.705 219.669 377.089 206.15" stroke="white" stroke-width="2" stroke-linecap="round" stroke-linejoin="round"/>
<path d="M105.231 99.4967C44.4195 158.213 25.4257 247.775 57.2041 325.96C88.982 404.143 165.187 455.342 249.894 455.42C320.153 455.427 385.669 420.135 424.103 361.577L425.24 359.824C462.279 302.129 468.297 229.936 441.322 166.96L440.538 165.159C437.888 158.676 431.87 154.108 424.843 153.276C417.817 152.444 410.891 155.477 406.759 161.197C402.713 166.798 401.966 174.118 404.792 180.411L404.904 180.651C437.534 254.859 412.448 341.731 345.179 387.375C277.907 433.02 187.526 424.492 130.064 367.077C72.603 309.664 64.3531 219.647 110.428 152.827C156.002 86.7333 242.032 61.7987 316.062 93.1311L318.314 94.1031C328.121 98.4256 339.611 94.0047 343.96 84.2215C348.309 74.4364 343.869 62.9929 334.043 58.6624C256.529 24.6309 166.042 40.7804 105.231 99.4967Z" fill="white"/>
<path d="M370.794 115.994C373.445 114.695 376.553 114.704 379.196 116.018C383.873 118.343 385.773 124.005 383.438 128.664L379.111 137.302C372.635 150.141 315.295 263.755 292.283 286.678C277.94 300.92 257.06 306.459 237.507 301.207C217.954 295.955 202.699 280.711 197.488 261.217C192.277 241.722 197.902 220.94 212.245 206.697C233.185 185.837 329.465 136.503 356.386 123.072L358.059 122.239C359.89 121.33 361.292 120.641 362.198 120.203L370.794 115.994ZM250.228 226.081C237.652 226.081 227.457 236.23 227.457 248.75C227.457 261.269 237.652 271.419 250.228 271.419C262.804 271.419 272.999 261.269 272.999 248.75C272.999 236.23 262.804 226.081 250.228 226.081Z" fill="#FFCC66"/>
<path d="M206.646 171.986C213.144 171.986 218.412 166.739 218.412 160.266C218.412 153.793 213.144 148.546 206.646 148.546C200.148 148.546 194.88 153.793 194.88 160.266C194.88 166.739 200.148 171.986 206.646 171.986Z" fill="#FF7673"/>
<path d="M174.418 320.957C177.371 320.957 179.766 318.571 179.766 315.629C179.766 312.687 177.371 310.302 174.418 310.302C171.464 310.302 169.069 312.687 169.069 315.629C169.069 318.571 171.464 320.957 174.418 320.957Z" fill="#99D7D7"/>
<path d="M378.791 214.54C381.744 214.54 384.139 212.154 384.139 209.212C384.139 206.27 381.744 203.885 378.791 203.885C375.837 203.885 373.442 206.27 373.442 209.212C373.442 212.154 375.837 214.54 378.791 214.54Z" fill="#99D7D7"/>
<path fill-rule="evenodd" clip-rule="evenodd" d="M295.428 381.091C295.428 388.446 289.441 394.41 282.057 394.41C274.673 394.41 268.687 388.446 268.687 381.091C268.687 373.735 274.673 367.772 282.057 367.772C289.441 367.772 295.428 373.735 295.428 381.091Z" fill="#FFD273"/>
<path fill-rule="evenodd" clip-rule="evenodd" d="M288.478 385.747C287.124 385.235 286.504 383.451 287.093 381.763C287.681 380.073 289.256 379.119 290.61 379.63C291.964 380.142 292.585 381.925 291.996 383.615C291.407 385.304 289.833 386.259 288.478 385.747Z" fill="#EFBA6E"/>
<path fill-rule="evenodd" clip-rule="evenodd" d="M270.214 387.2C270.319 387.441 270.443 387.674 270.586 387.894L271.351 389.082L290.079 370.522C289.599 370.174 288.83 369.723 287.813 369.296C287.547 369.185 287.114 369.032 286.512 368.838L269.756 386.155L270.214 387.2Z" fill="#FFD273"/>
<path fill-rule="evenodd" clip-rule="evenodd" d="M285.801 372.034C285.801 372.623 285.083 373.1 284.196 373.1C283.31 373.1 282.592 372.623 282.592 372.034C282.592 371.446 283.31 370.969 284.196 370.969C285.083 370.969 285.801 371.446 285.801 372.034Z" fill="#EFBA6E"/>
<path fill-rule="evenodd" clip-rule="evenodd" d="M275.248 389.168C274.772 388.178 275.52 386.86 276.917 386.224C278.315 385.588 279.834 385.875 280.31 386.865C280.785 387.855 280.038 389.173 278.64 389.81C277.242 390.445 275.723 390.158 275.248 389.168Z" fill="#EFBA6E"/>
<path fill-rule="evenodd" clip-rule="evenodd" d="M282.569 377.485C282.74 378.339 281.932 379.213 280.763 379.439C279.594 379.664 278.508 379.156 278.336 378.303C278.165 377.45 278.974 376.575 280.143 376.35C281.312 376.124 282.398 376.632 282.569 377.485Z" fill="#EFBA6E"/>
<path fill-rule="evenodd" clip-rule="evenodd" d="M272.73 373.141C272.974 373.302 273.039 373.892 272.873 374.458C272.708 375.023 272.376 375.351 272.131 375.189C271.886 375.028 271.822 374.438 271.987 373.873C272.152 373.307 272.485 372.979 272.73 373.141Z" fill="#EFBA6E"/>
<path fill-rule="evenodd" clip-rule="evenodd" d="M271.53 380.563C272.412 380.643 273.05 381.659 272.956 382.833C272.862 384.007 272.071 384.894 271.19 384.815C270.309 384.734 269.671 383.718 269.765 382.543C269.859 381.369 270.649 380.483 271.53 380.563Z" fill="#EFBA6E"/>
<path fill-rule="evenodd" clip-rule="evenodd" d="M284.442 392.312C284.705 392.414 284.807 392.72 284.671 392.996C284.534 393.272 284.212 393.413 283.949 393.311C283.688 393.208 283.585 392.902 283.722 392.626C283.858 392.35 284.181 392.209 284.442 392.312Z" fill="#EFBA6E"/>
</svg>
