<svg width="500" height="500" viewBox="0 0 500 500" fill="none" xmlns="http://www.w3.org/2000/svg">
<path fill-rule="evenodd" clip-rule="evenodd" d="M281.672 114.701H359.165L434.175 149.701L434.416 178.833L382.672 209.701H281.672V114.701Z" fill="#EC9F31"/>
<path d="M347.641 213.924L296.09 186.674C291.758 184.382 289.049 179.891 289.049 175C289.049 170.109 291.758 165.618 296.09 163.326L347.641 136.076C355.402 131.975 364.696 131.975 372.457 136.076L424.007 163.326C428.34 165.618 431.049 170.109 431.049 175C431.049 179.891 428.34 184.382 424.007 186.674L372.457 213.924C364.696 218.025 355.402 218.025 347.641 213.924Z" fill="#CE8010"/>
<path fill-rule="evenodd" clip-rule="evenodd" d="M87.0178 166.021L81.0342 147.62L114.895 115.432L177.787 114.021L207 133.68L215.043 164.289L87.0178 166.021Z" fill="#EC9F31"/>
<path d="M146.5 208.029C179.913 208.029 207 191.24 207 170.529C207 149.819 179.913 133.029 146.5 133.029C113.087 133.029 86 149.819 86 170.529C86 191.24 113.087 208.029 146.5 208.029Z" fill="#CE8010"/>
<path d="M286.583 51.1096L438.365 131.542C451.122 138.307 459.098 151.563 459.098 166C459.098 180.437 451.122 193.694 438.365 200.458L286.583 280.891C263.732 292.998 236.366 292.998 213.515 280.891L61.733 200.458C48.9762 193.694 41 180.437 41 166C41 151.563 48.9762 138.307 61.733 131.542L213.515 51.1096C236.366 39.0025 263.732 39.0025 286.583 51.1096ZM345.206 121.069L344.767 121.296L289.586 150.492C284.949 152.948 282.049 157.76 282.049 163C282.049 168.127 284.824 172.843 289.286 175.344L289.586 175.508L344.767 204.704C352.929 209.022 362.675 209.098 370.892 204.931L371.331 204.704L426.511 175.508C431.149 173.053 434.049 168.241 434.049 163C434.049 157.874 431.274 153.157 426.811 150.656L426.511 150.492L371.331 121.296C363.169 116.979 353.423 116.903 345.206 121.069ZM146.5 120.029C113.087 120.029 86 136.819 86 157.529C86 178.24 113.087 195.029 146.5 195.029C179.913 195.029 207 178.24 207 157.529C207 136.819 179.913 120.029 146.5 120.029Z" fill="#FFD273"/>
<path d="M262.331 55.2961L310.966 81.029L325 81.0291L325.002 95.8416C325.033 96.2248 325.049 96.6112 325.049 97C325.049 97.3888 325.033 97.7752 325.002 98.1584L325 100.029L324.721 100.029C323.84 104.043 321.237 107.536 317.511 109.508L262.331 138.704C254.023 143.099 244.074 143.099 235.767 138.704L180.586 109.508C176.861 107.536 174.258 104.043 173.377 100.029L173 100.029V81.0291L187.131 81.029L235.767 55.2961C244.074 50.9013 254.023 50.9013 262.331 55.2961Z" fill="#A57836"/>
<path d="M235.767 126.704L180.586 97.5078C175.949 95.0524 173.049 90.2405 173.049 85C173.049 79.7595 175.949 74.9476 180.586 72.4922L235.767 43.2961C244.074 38.9013 254.023 38.9013 262.331 43.2961L317.511 72.4922C322.149 74.9476 325.049 79.7595 325.049 85C325.049 90.2405 322.149 95.0524 317.511 97.5078L262.331 126.704C254.023 131.099 244.074 131.099 235.767 126.704Z" fill="#EFBA6E"/>
<path d="M250.049 460.127C235.368 460.123 220.912 456.57 207.941 449.778L69.9721 377.543C52.1476 368.216 41 349.921 41 329.993C41 310.066 52.1476 291.771 69.9721 282.444C79.2376 277.583 90.7378 281.062 95.6586 290.216C100.579 299.37 97.0575 310.732 87.792 315.594C82.4107 318.421 79.0477 323.951 79.0477 329.973C79.0477 335.994 82.4107 341.525 87.792 344.352L225.719 416.608C240.933 424.591 259.165 424.591 274.379 416.608L412.306 344.352C417.687 341.525 421.05 335.994 421.05 329.973C421.05 323.951 417.687 318.421 412.306 315.594C403.04 310.732 399.518 299.37 404.439 290.216C409.36 281.062 420.86 277.583 430.126 282.444C447.95 291.771 459.098 310.066 459.098 329.993C459.098 349.921 447.95 368.216 430.126 377.543L292.157 449.778C279.186 456.57 264.729 460.123 250.049 460.127Z" fill="white"/>
<path fill-rule="evenodd" clip-rule="evenodd" d="M212.401 185.726L328.432 209.211V223.057C328.459 225.96 326.903 228.776 324.159 230.222L249.49 269.579C249.255 269.703 249.015 269.815 248.769 269.915C244.675 271.576 240.009 269.605 238.347 265.511L212.967 202.98C212.507 201.845 212.315 200.625 212.399 199.414L212.401 185.726Z" fill="#A57836"/>
<path fill-rule="evenodd" clip-rule="evenodd" d="M212.967 188.98L238.347 251.511C240.009 255.605 244.675 257.576 248.769 255.915C249.015 255.815 249.255 255.703 249.49 255.579L324.159 216.222C328.068 214.161 329.566 209.323 327.506 205.414C326.422 203.358 324.498 201.875 322.234 201.351L222.185 178.178C217.881 177.181 213.583 179.862 212.586 184.166C212.214 185.772 212.347 187.453 212.967 188.98Z" fill="#EFBA6E"/>
</svg>
