<?xml version="1.0" encoding="UTF-8"?>
<svg width="232px" height="67px" viewBox="0 0 232 67" version="1.1" xmlns="http://www.w3.org/2000/svg" xmlns:xlink="http://www.w3.org/1999/xlink">
    <!-- Generator: Sketch 64 (93537) - https://sketch.com -->
    <title>Product logo/Core/vertical/light/Product logo_Core_vertical_light</title>
    <desc>Created with Sketch.</desc>
    <defs>
        <path d="M15.5964049,8.5232166 C16.7279744,8.5232166 17.7023814,8.11459429 18.519626,7.29734966 C19.3368707,6.48010504 19.745493,5.50569799 19.745493,4.37412852 C19.745493,3.24255904 19.3368707,2.26815199 18.519626,1.45090737 C17.7023814,0.633662751 16.7279744,0.22504044 15.5964049,0.22504044 C14.4648354,0.22504044 13.4904284,0.633662751 12.6731837,1.45090737 C11.8559391,2.26815199 11.4473168,3.24255904 11.4473168,4.37412852 C11.4473168,5.50569799 11.8559391,6.48010504 12.6731837,7.29734966 C13.4904284,8.11459429 14.4648354,8.5232166 15.5964049,8.5232166 Z M3.9035203,63.2157413 C6.83721894,63.2157413 9.41468275,62.5766141 11.6359117,61.2983597 C13.8571407,60.0201052 15.6068824,58.2703636 16.8851368,56.0491346 C18.1633912,53.8279056 18.8025184,51.2713968 18.8025184,48.3796081 L18.8025184,48.3796081 L18.8025184,17.3243125 C18.8025184,16.360383 18.5091485,15.5850483 17.9224088,14.9983086 C17.3356691,14.4115689 16.5603344,14.118199 15.5964049,14.118199 C14.6743853,14.118199 13.9095282,14.4115689 13.3018334,14.9983086 C12.6941387,15.5850483 12.3902914,16.360383 12.3902914,17.3243125 L12.3902914,17.3243125 L12.3902914,48.3796081 C12.3902914,50.0140974 12.023579,51.4599917 11.2901544,52.7172911 C10.5567297,53.9745905 9.56136768,54.9699526 8.30406826,55.7033772 C7.04676885,56.4368019 5.57991952,56.8035142 3.9035203,56.8035142 C2.98150073,56.8035142 2.22712108,57.0968841 1.64038135,57.6836238 C1.05364162,58.2703636 0.760271757,59.0456982 0.760271757,60.0096277 C0.760271757,60.9316473 1.05364162,61.6965045 1.64038135,62.3041992 C2.22712108,62.9118939 2.98150073,63.2157413 3.9035203,63.2157413 Z M41.3081561,8.5232166 C42.4397255,8.5232166 43.4141326,8.11459429 44.2313772,7.29734966 C45.0486218,6.48010504 45.4572442,5.50569799 45.4572442,4.37412852 C45.4572442,3.24255904 45.0486218,2.26815199 44.2313772,1.45090737 C43.4141326,0.633662751 42.4397255,0.22504044 41.3081561,0.22504044 C40.1765866,0.22504044 39.2021795,0.633662751 38.3849349,1.45090737 C37.5676903,2.26815199 37.159068,3.24255904 37.159068,4.37412852 C37.159068,5.50569799 37.5676903,6.48010504 38.3849349,7.29734966 C39.2021795,8.11459429 40.1765866,8.5232166 41.3081561,8.5232166 Z M41.3081561,48.5053381 C42.2720856,48.5053381 43.0474203,48.2014907 43.63416,47.593796 C44.2208997,46.9861013 44.5142696,46.2212441 44.5142696,45.2992246 L44.5142696,45.2992246 L44.5142696,17.3243125 C44.5142696,16.360383 44.2208997,15.5850483 43.63416,14.9983086 C43.0474203,14.4115689 42.2720856,14.118199 41.3081561,14.118199 C40.3861365,14.118199 39.6212794,14.4115689 39.0135846,14.9983086 C38.4058899,15.5850483 38.1020426,16.360383 38.1020426,17.3243125 L38.1020426,17.3243125 L38.1020426,45.2992246 C38.1020426,46.2212441 38.4058899,46.9861013 39.0135846,47.593796 C39.6212794,48.2014907 40.3861365,48.5053381 41.3081561,48.5053381 Z M92.2287606,48.568203 C93.1507802,48.568203 93.9156373,48.2643557 94.523332,47.656661 C95.1310267,47.0489663 95.4348741,46.2841091 95.4348741,45.3620895 L95.4348741,45.3620895 L95.4348741,29.8973067 C95.4348741,26.4187783 94.7747919,23.4850797 93.4546275,21.0962108 C92.1344631,18.7073419 90.332334,16.8947352 88.04824,15.6583908 C85.7641461,14.4220464 83.1762048,13.8038742 80.2844161,13.8038742 C77.5183574,13.8038742 75.0247136,14.4115689 72.8034846,15.6269583 C71.6928701,16.234653 70.7001274,16.9497421 69.8252566,17.7722254 L69.5969112,17.9929715 L69.5973711,17.3243125 C69.5973711,16.4345314 69.3473991,15.7054465 68.8474552,15.1370579 L68.7172615,14.9983086 C68.1305217,14.4115689 67.3551871,14.118199 66.3912576,14.118199 C65.469238,14.118199 64.7043808,14.4115689 64.0966861,14.9983086 C63.4889914,15.5850483 63.185144,16.360383 63.185144,17.3243125 L63.185144,17.3243125 L63.185144,45.3620895 C63.185144,46.2841091 63.4889914,47.0489663 64.0966861,47.656661 C64.7043808,48.2643557 65.469238,48.568203 66.3912576,48.568203 C67.3551871,48.568203 68.1305217,48.2643557 68.7172615,47.656661 C69.3040012,47.0489663 69.5973711,46.2841091 69.5973711,45.3620895 L69.5973711,45.3620895 L69.5969112,27.6346619 L69.6029591,27.3264088 C69.6513884,26.0030779 70.0146082,24.8135329 70.6926186,23.7577739 L70.8546705,23.5165122 C71.6928701,22.3220777 72.8244396,21.3686256 74.2493789,20.656156 C75.6743183,19.9436863 77.2668975,19.5874515 79.0271167,19.5874515 C80.9549758,19.5874515 82.6628075,19.9541638 84.1506118,20.6875885 C85.6384161,21.4210131 86.8223731,22.5421051 87.7024827,24.0508644 C88.5825923,25.5596237 89.0226471,27.5084378 89.0226471,29.8973067 L89.0226471,29.8973067 L89.0226471,45.3620895 C89.0226471,46.2841091 89.3264944,47.0489663 89.9341891,47.656661 C90.5418839,48.2643557 91.306741,48.568203 92.2287606,48.568203 Z M127.118798,48.756798 C130.178226,48.756798 132.92333,47.9919408 135.354109,46.4622265 C136.743125,45.5881041 137.964502,44.536078 139.018238,43.3061484 L139.251413,43.0267438 L139.251737,45.3620895 C139.251737,46.2131845 139.510636,46.930366 140.028435,47.5136339 L140.163279,47.656661 C140.770974,48.2643557 141.535831,48.568203 142.45785,48.568203 C143.37987,48.568203 144.144727,48.2643557 144.752422,47.656661 C145.360117,47.0489663 145.663964,46.2841091 145.663964,45.3620895 L145.663964,45.3620895 L145.663964,31.343201 C145.663964,28.0323126 144.899107,25.0567039 143.369392,22.4163752 C141.839678,19.7760464 139.775612,17.6910249 137.177193,16.1613106 C134.578774,14.6315963 131.645075,13.8667391 128.376097,13.8667391 C125.107118,13.8667391 122.162942,14.6315963 119.543569,16.1613106 C116.924195,17.6910249 114.849651,19.7760464 113.319936,22.4163752 C111.790222,25.0567039 111.025365,28.0323126 111.025365,31.343201 C111.025365,34.6540895 111.727357,37.6192206 113.131342,40.2385944 C114.535326,42.8579682 116.452707,44.9325122 118.883486,46.4622265 C121.314265,47.9919408 124.059369,48.756798 127.118798,48.756798 Z M128.376097,43.0989506 C126.280598,43.0989506 124.384171,42.5855533 122.686817,41.5587588 C120.989463,40.5319643 119.648343,39.1279799 118.663459,37.3468057 C117.678574,35.5656316 117.186132,33.56443 117.186132,31.343201 C117.186132,29.0800621 117.678574,27.0579055 118.663459,25.2767313 C119.648343,23.4955572 120.989463,22.0915728 122.686817,21.0647783 C124.384171,20.0379838 126.280598,19.5245865 128.376097,19.5245865 C130.513506,19.5245865 132.42041,20.0379838 134.096809,21.0647783 C135.773209,22.0915728 137.093373,23.4955572 138.057302,25.2767313 C139.021232,27.0579055 139.503197,29.0800621 139.503197,31.343201 C139.503197,33.56443 139.021232,35.5656316 138.057302,37.3468057 C137.093373,39.1279799 135.773209,40.5319643 134.096809,41.5587588 C132.42041,42.5855533 130.513506,43.0989506 128.376097,43.0989506 Z" id="path-1"></path>
    </defs>
    <g id="页面-2" stroke="none" stroke-width="1" fill="none" fill-rule="evenodd">
        <g id="Product-logo/Core/vertical/light/Product-logo_Core_vertical_light" transform="translate(-3.000000, -3.000000)" fill-rule="nonzero">
            <g id="编组-14备份-3" transform="translate(87.000000, 5.000000)">
                <g id="编组-8" transform="translate(0.811388, 0.690391)">
                    <g id="编组-4" transform="translate(0.349250, 0.000000)">
                        <g id="jina">
                            <use fill="#009999" xlink:href="#path-1"></use>
                            <use stroke="#00939B" stroke-width="1.67259786" fill="#00939B" xlink:href="#path-1"></use>
                        </g>
                    </g>
                </g>
            </g>
            <g id="编组-11备份-6" fill="#00939B">
                <g id="编组-6">
                    <g id="编组-2" transform="translate(51.458003, 52.574464)">
                        <g id="编组" transform="translate(-0.000000, -0.000000)">
                            <path d="M7.07010885,0.0653575116 L16.7214599,8.74812149 C18.7212267,10.5472038 18.883068,13.6215989 17.0831903,15.6196831 C15.3056773,17.5929397 12.2736647,17.7734006 10.2742747,16.0391095 L10.2071442,15.979808 L0.0141316763,6.80945457 C2.69079304,4.92579448 5.07072397,2.64984472 7.07010885,0.0653575116 Z" id="形状结合"></path>
                        </g>
                    </g>
                    <g id="编组-5">
                        <g id="编组-4">
                            <g id="编组-3">
                                <g id="编组" transform="translate(32.905205, 32.811744) rotate(8.000000) translate(-32.905205, -32.811744) translate(3.791091, 3.802735)">
                                    <path d="M30.3921954,5.00439838 C43.6940739,5.80251955 53.5374641,17.2422563 53.005389,30.2782353 C52.2072763,43.5802547 40.7676607,53.423749 27.7318197,52.8916683 C14.4299411,52.0935471 4.58655097,40.6538104 5.11862616,27.6178314 C5.65070134,14.5818523 17.3563545,4.47231757 30.3921954,5.00439838 M30.7456522,0.0437667745 C14.8154436,-0.824582734 0.912716024,11.3323104 0.0437955523,27.2520514 C-0.825124919,43.1717924 11.3397617,57.0653845 27.2699704,57.933734 C43.200179,58.8020835 56.8132664,46.6451904 57.971827,30.7254494 C59.1303876,14.8057085 46.6758608,1.20156614 30.7456522,0.0437667745 Z" id="形状"></path>
                                </g>
                            </g>
                        </g>
                    </g>
                </g>
                <path d="M45.5713608,27.1216759 C32.8604043,26.831057 20.4383331,40.4901453 11.7717718,52.4055201 C16.6828232,57.3460414 23.3271869,60.8334682 30.8382066,61.1240871 C46.438017,61.9959438 59.7267443,50.6618067 61.1711712,35.2590051 C57.7045467,30.6091027 53.371266,27.4122949 45.5713608,27.1216759 Z" id="路径" fill-opacity="0.598475743"></path>
                <path d="M60.1201201,38.5364852 C56.6647898,41.7267429 52.3456269,44.3369537 48.026464,43.7569069 C34.4930869,42.5968131 30.7498123,37.0863681 18.9441004,33.606087 C12.6093281,31.8659464 7.7142768,36.2162978 4.83483483,40.5666492 C8.29016517,51.8775628 18.3682119,60.2882422 30.7498123,60.8682891 C44.8590779,62.0283828 57.2406782,52.1675863 60.1201201,38.5364852 Z" id="路径" fill-opacity="0.598475743"></path>
            </g>
        </g>
    </g>
</svg>