<svg width="1920" height="800" viewBox="0 0 1920 800" fill="none" xmlns="http://www.w3.org/2000/svg">
<path d="M2010.13 623.953C1476.46 626.256 1562.53 191.718 1642.51 -104.232L2512.99 82.2213C2567.11 449.395 2400.2 622.271 2010.13 623.953Z" fill="#F8F8F8"/>
<g opacity="0.8">
<ellipse cx="1666.54" cy="437.086" rx="14.8161" ry="14.2235" fill="#009999"/>
<circle cx="893.5" cy="332.501" r="17.5" fill="#009191"/>
<path d="M1351.92 505.85C1351.92 513.5 1345.72 519.702 1338.06 519.702C1330.41 519.702 1324.21 513.5 1324.21 505.85C1324.21 498.2 1330.41 491.998 1338.06 491.998C1345.72 491.998 1351.92 498.2 1351.92 505.85Z" fill="#777CFF"/>
<circle cx="1521.22" cy="373.487" r="23.0866" fill="#FBCB67"/>
<circle cx="1378.09" cy="200.088" r="23.0866" fill="#EB6161"/>
</g>
<path d="M741.5 -118.631C813.5 410.169 227.833 649.702 -74 703.369L-276 -163.631C33.1667 -368.965 669.5 -647.431 741.5 -118.631Z" fill="#F8F8F8"/>
<path opacity="0.5" d="M775.209 -286.022C949.015 311.318 314.376 688.058 -24.6685 801.761L-406.496 -163.2C-85.0138 -453.033 601.403 -883.362 775.209 -286.022Z" stroke="#FBCB67" stroke-width="2"/>
<path opacity="0.5" d="M846.912 -197.2C930.9 419.217 247.721 698.438 -104.367 760.997L-340 -249.656C20.6425 -489.011 762.924 -813.617 846.912 -197.2Z" stroke="#EB6161" stroke-width="2"/>
<path opacity="0.5" d="M1957.91 577.605C1424.24 579.907 1510.31 145.369 1590.29 -150.581L2460.77 35.8726C2514.89 403.046 2347.98 575.922 1957.91 577.605Z" stroke="#009191" stroke-width="2"/>
</svg>
