<svg width="1920" height="800" viewBox="0 0 1920 800" fill="none" xmlns="http://www.w3.org/2000/svg">
<mask id="mask0" mask-type="alpha" maskUnits="userSpaceOnUse" x="0" y="0" width="1920" height="800">
<rect width="1920" height="800" fill="#C4C4C4"/>
</mask>
<g mask="url(#mask0)">
<path fill-rule="evenodd" clip-rule="evenodd" d="M1920 0H0V600H363.92C489.198 690.776 709.345 751 960 751C1210.66 751 1430.8 690.776 1556.08 600H1920V0Z" fill="#009191"/>
<path d="M1181.16 665.941C1179.8 664.557 1178.98 665.072 1178.58 665.415C1178.18 665.758 1177.57 666.377 1178.89 667.905C1189.22 679.845 1192.69 691.539 1192.91 699.067C1193.13 706.118 1188.6 711.99 1178.64 716.862C1176.9 717.713 1176.19 719.813 1177.05 721.552C1177.91 723.291 1180.01 724.01 1181.75 723.159C1193.95 717.188 1200.24 709.036 1199.94 698.881C1199.65 689.203 1193.31 678.298 1181.16 665.941Z" fill="#EBEDED"/>
<path d="M1182.9 710.165L1185.97 708.395L1193.26 721.008L1190.19 722.779L1182.9 710.165Z" fill="#EB676C"/>
<path d="M1183.06 732.368C1178.53 739.356 1170.07 741.914 1164.18 738.083C1158.28 734.251 1157.18 725.481 1161.71 718.494C1166.25 711.507 1174.7 708.949 1180.6 712.78C1186.49 716.611 1187.6 725.381 1183.06 732.368Z" fill="white"/>
<path d="M1164.16 734.151C1162.39 736.885 1159.22 737.977 1157.09 736.59C1154.95 735.203 1154.66 731.862 1156.43 729.128C1158.21 726.393 1161.38 725.301 1163.51 726.689C1165.65 728.076 1165.94 731.417 1164.16 734.151Z" fill="white"/>
<mask id="mask1" mask-type="alpha" maskUnits="userSpaceOnUse" x="1225" y="751" width="37" height="64">
<path d="M1259.67 751.518L1259.33 751.593L1259.05 751.676L1258.48 751.843L1257.43 752.234C1256.73 752.508 1256.08 752.841 1255.39 753.149L1253.46 754.242L1251.65 755.437C1251.05 755.85 1250.47 756.296 1249.91 756.775C1249.33 757.216 1248.77 757.688 1248.24 758.187L1246.67 759.705L1245.89 760.474L1245.17 761.293C1241.32 765.633 1238.12 770.501 1235.65 775.748L1234.68 777.681L1233.86 779.649L1232.22 783.693C1231.73 785.042 1231.28 786.428 1230.83 787.756L1230.11 789.796C1229.88 790.487 1229.63 791.161 1229.47 791.849L1228.37 795.975L1227.81 798.048C1227.61 798.76 1227.43 799.431 1227.31 800.134L1225.6 808.515C1225.1 811.299 1226.92 813.981 1229.7 814.553C1232.48 815.126 1235.2 813.378 1235.83 810.62C1235.86 810.425 1235.89 810.227 1235.91 810.034L1235.93 809.763L1236.62 801.744C1236.67 801.075 1236.79 800.421 1236.87 799.757L1237.16 797.77L1237.74 793.795C1237.82 793.127 1237.98 792.483 1238.12 791.832L1238.53 789.883C1238.82 788.579 1239.07 787.261 1239.38 785.969L1240.49 782.141L1241.03 780.216L1241.72 778.356C1243.4 773.345 1245.79 768.601 1248.81 764.267L1249.37 763.449L1249.97 762.678L1251.23 761.188C1251.65 760.649 1252.13 760.245 1252.57 759.762C1253.01 759.282 1253.48 758.826 1253.97 758.396L1255.45 757.119L1257.03 755.981C1257.57 755.647 1258.12 755.293 1258.68 754.991L1259.53 754.566L1259.95 754.389L1260.15 754.296L1260.31 754.232L1260.48 754.167C1261.21 753.943 1261.62 753.173 1261.39 752.447C1261.16 751.721 1260.39 751.314 1259.66 751.539L1259.67 751.518Z" fill="white"/>
</mask>
<g mask="url(#mask1)">
<path d="M1251.18 748.418L1250.87 748.578L1250.62 748.731L1250.11 749.038L1249.2 749.69C1248.6 750.134 1248.05 750.625 1247.47 751.099L1245.88 752.657L1244.44 754.279C1243.97 754.834 1243.52 755.415 1243.11 756.02C1242.67 756.597 1242.25 757.197 1241.87 757.818L1240.74 759.69L1240.18 760.636L1239.7 761.613C1237.11 766.802 1235.27 772.333 1234.25 778.04L1233.81 780.159L1233.53 782.271L1233 786.602C1232.87 788.033 1232.79 789.489 1232.7 790.887L1232.53 793.045C1232.49 793.771 1232.43 794.487 1232.45 795.194L1232.45 799.464L1232.45 801.612C1232.44 802.351 1232.45 803.044 1232.51 803.755L1233.03 812.294C1233.26 815.114 1235.71 817.235 1238.55 817.069C1241.38 816.902 1243.56 814.51 1243.45 811.683C1243.44 811.484 1243.41 811.286 1243.38 811.095L1243.33 810.828L1241.92 802.902C1241.79 802.244 1241.73 801.582 1241.64 800.919L1241.41 798.924L1240.94 794.934C1240.84 794.268 1240.84 793.603 1240.8 792.94L1240.7 790.949C1240.64 789.615 1240.53 788.278 1240.5 786.948L1240.58 782.965L1240.61 780.963L1240.79 778.989C1241.11 773.713 1242.19 768.512 1243.99 763.543L1244.31 762.609L1244.7 761.708L1245.53 759.943C1245.8 759.313 1246.15 758.8 1246.45 758.22C1246.75 757.641 1247.09 757.079 1247.46 756.536L1248.55 754.919L1249.79 753.411C1250.22 752.949 1250.66 752.465 1251.12 752.029L1251.83 751.399L1252.19 751.12L1252.36 750.977L1252.5 750.873L1252.65 750.766C1253.29 750.361 1253.49 749.513 1253.08 748.87C1252.67 748.228 1251.82 748.035 1251.18 748.439L1251.18 748.418Z" fill="#EBEDED"/>
<path fill-rule="evenodd" clip-rule="evenodd" d="M1248.14 794.25L1228.57 794.266L1228.57 798.115L1248.14 798.099L1248.14 794.25Z" fill="#EB676C"/>
</g>
<path d="M1253.72 815.122L1214.72 845.306C1214.16 845.734 1213.42 845.852 1212.75 845.619C1212.09 845.386 1211.59 844.834 1211.42 844.15C1209.12 834.891 1206.18 807.649 1252.62 811.384C1253.47 811.466 1254.19 812.057 1254.43 812.879C1254.68 813.701 1254.4 814.589 1253.72 815.122Z" fill="white"/>
<mask id="mask2" mask-type="alpha" maskUnits="userSpaceOnUse" x="1211" y="539" width="182" height="236">
<path d="M1387.67 617.273L1378.68 625.52C1381.46 639.139 1381.75 653.139 1379.54 666.833L1391.99 676.895C1391.99 676.895 1395.65 690.051 1378.53 709.83C1376.65 712.006 1370.8 710.127 1365.55 707.796C1360.7 716.663 1354.72 724.85 1347.75 732.15C1349 739.165 1350.09 747.584 1348.86 750.325C1345.48 757.826 1323.09 770.02 1323.09 770.02L1306.25 757.916C1294.53 761.346 1282.12 761.685 1270.21 758.897L1261.48 774.48C1261.48 774.48 1221.85 758.58 1217.73 744.92C1216.33 740.306 1230.71 739.22 1232.5 734.885C1212.19 710.152 1205.67 671.232 1218.54 633.359C1230.49 598.188 1256.16 572.73 1284.58 563.818L1285.95 539.51C1285.95 539.51 1321.8 536.841 1338.32 551.332C1341.39 554.033 1341.93 562.703 1341.75 570C1348.1 573.807 1348.86 573.007 1353.79 578.614C1356.75 575.846 1365.12 578.756 1368.65 579.728C1385.95 584.484 1387.67 617.273 1387.67 617.273Z" fill="white"/>
</mask>
<g mask="url(#mask2)">
<path d="M1387.73 617.238L1378.73 625.487C1381.51 639.101 1381.79 653.097 1379.57 666.788L1392.01 676.842C1392.01 676.842 1395.67 689.992 1378.54 709.775C1376.66 711.951 1370.8 710.075 1365.55 707.747C1360.7 716.615 1354.71 724.803 1347.74 732.103C1348.98 739.116 1350.07 747.532 1348.83 750.273C1345.45 757.773 1323.04 769.976 1323.04 769.976L1306.2 757.884C1294.48 761.319 1282.06 761.664 1270.14 758.883L1261.41 774.466C1261.41 774.466 1221.77 758.591 1217.65 744.936C1216.25 740.324 1230.63 739.231 1232.43 734.897C1212.12 710.181 1205.63 671.275 1218.52 633.405C1230.49 598.239 1256.19 572.774 1284.63 563.851L1286 539.549C1286 539.549 1321.87 536.862 1338.39 551.34C1341.46 554.039 1342 562.707 1341.82 570.002C1348.17 573.804 1348.92 573.004 1353.85 578.607C1356.82 575.839 1365.19 578.743 1368.72 579.713C1386.02 584.458 1387.73 617.238 1387.73 617.238Z" fill="#4F5356"/>
<path fill-rule="evenodd" clip-rule="evenodd" d="M1369.76 665.135L1372.92 668.451C1366.45 685.615 1360.22 694.774 1354.22 695.927C1348.23 697.079 1345.1 697.561 1344.84 697.371C1336.23 710.576 1330.2 717.567 1326.76 718.344C1328.61 722.635 1329.81 727.05 1330.35 731.587L1351.07 741.472L1368.47 710.405L1382.47 711.772L1399.57 675.469L1369.76 665.135Z" fill="#EBEDED"/>
<path fill-rule="evenodd" clip-rule="evenodd" d="M1353.53 740.781L1326.58 729.995L1194.1 743.882L1282.66 787.894L1363.16 751.982L1353.53 740.781Z" fill="#EBEDED"/>
</g>
<mask id="mask3" mask-type="alpha" maskUnits="userSpaceOnUse" x="1179" y="538" width="194" height="223">
<path d="M1365.82 608.241L1358.62 614.855C1361.31 627.955 1361.67 641.417 1359.66 654.61L1372.85 668.68C1372.85 668.68 1366.68 696.909 1358.82 700.569C1356.04 701.863 1349.79 699.788 1344.8 697.688C1340.38 705.473 1335.06 712.701 1328.95 719.224C1329.85 723.995 1331.6 734.751 1329.88 738.525C1326.53 745.911 1304.15 758.114 1304.15 758.114L1287.03 745.447C1276.52 748.463 1265.44 748.965 1254.67 746.914L1246.99 760.655C1246.99 760.655 1221.95 752.078 1217.94 744.832C1216.05 741.423 1217 732.755 1218.05 726.432C1209.12 716.925 1202.5 704.854 1198.58 691.309L1180.65 683.072C1180.65 683.072 1176.63 650.102 1183.55 642.839C1185.58 640.698 1191.47 640.361 1196.35 640.496C1198.37 629.34 1201.9 618.524 1206.83 608.348L1194.2 594.045C1194.2 594.045 1211.32 568.199 1220.72 566.475C1223.9 565.863 1229.87 568.725 1234.93 571.648C1243.84 563.974 1254.15 558.12 1265.3 554.41L1269.15 541.86C1269.15 541.86 1307.21 534.77 1315.76 542.782C1318.32 545.198 1319.07 552.04 1319.12 558.513C1327.8 563.143 1335.42 569.548 1341.5 577.313C1347.4 575.601 1354.06 574.271 1357.13 576.295C1364.04 580.802 1365.82 608.241 1365.82 608.241Z" fill="white"/>
</mask>
<g mask="url(#mask3)">
<path d="M1365.86 608.221L1358.65 614.836C1361.34 627.932 1361.69 641.392 1359.68 654.582L1372.87 668.646C1372.87 668.646 1366.69 696.872 1358.82 700.533C1356.04 701.828 1349.79 699.755 1344.8 697.657C1340.37 705.441 1335.05 712.67 1328.94 719.194C1329.84 723.963 1331.58 734.717 1329.86 738.491C1326.51 745.877 1304.12 758.084 1304.12 758.084L1287 745.425C1276.49 748.444 1265.41 748.95 1254.64 746.903L1246.95 760.643C1246.95 760.643 1221.9 752.076 1217.89 744.833C1216 741.425 1216.96 732.758 1218.01 726.436C1209.08 716.933 1202.46 704.867 1198.55 691.326L1180.62 683.096C1180.62 683.096 1176.61 650.134 1183.53 642.87C1185.56 640.729 1191.45 640.39 1196.33 640.523C1198.36 629.369 1201.89 618.554 1206.83 608.378L1194.2 594.082C1194.2 594.082 1211.33 568.236 1220.74 566.509C1223.92 565.896 1229.88 568.756 1234.95 571.676C1243.86 564.001 1254.18 558.144 1265.33 554.432L1269.18 541.883C1269.18 541.883 1307.26 534.782 1315.81 542.79C1318.36 545.205 1319.11 552.045 1319.16 558.517C1327.84 563.143 1335.46 569.544 1341.54 577.306C1347.44 575.593 1354.1 574.261 1357.17 576.284C1364.08 580.788 1365.86 608.221 1365.86 608.221Z" fill="#6D7278"/>
<path fill-rule="evenodd" clip-rule="evenodd" d="M1204.43 641.036L1196.88 641.014C1186.4 640.982 1177.93 649.414 1177.95 659.846C1177.95 660.176 1177.96 660.506 1177.98 660.836L1179.25 683.993L1195.33 690.915C1204.58 709.919 1210.14 719.423 1212 719.429C1213.86 719.435 1252.92 723.485 1329.17 731.579L1336.74 734.993C1341.7 737.231 1347.53 735.878 1350.95 731.696C1350.96 731.679 1350.98 731.662 1350.99 731.645C1361.08 719.877 1366.21 711.701 1366.2 709.973C1366.2 709.174 1366.89 708.85 1368.26 709C1375.78 709.826 1382.99 705.883 1386.3 699.135L1388.74 694.166C1393.09 685.304 1389.37 674.574 1380.45 670.199C1380.24 670.099 1380.04 670.003 1379.83 669.911L1369.7 665.408C1360.35 670.551 1346.78 674.594 1329 677.538C1302.32 681.954 1292.88 685.107 1267.74 682.285C1242.59 679.463 1240.04 677.007 1223.72 665.723C1212.84 658.2 1206.41 649.971 1204.43 641.036Z" fill="white"/>
<path fill-rule="evenodd" clip-rule="evenodd" d="M1332.72 731.261L1321.91 762.383L1232.54 765.178L1204.88 744.263L1211.82 718.984L1332.72 731.261Z" fill="white"/>
</g>
<path d="M1318.58 562.317C1318.23 561.573 1317.84 560.852 1317.39 560.161C1316.96 559.485 1316.49 558.833 1315.99 558.21C1314.93 556.913 1313.71 555.764 1312.35 554.797C1311.64 554.297 1310.89 553.849 1310.11 553.456C1309.71 553.266 1309.3 553.108 1308.89 552.935C1308.68 552.857 1308.47 552.763 1308.26 552.692L1307.61 552.509C1305.87 552.003 1304.05 551.776 1302.24 551.837C1300.96 551.833 1299.79 552.513 1299.15 553.621C1298.51 554.729 1298.51 556.096 1299.15 557.208C1299.79 558.319 1300.97 559.006 1302.25 559.01C1302.52 559.012 1302.8 558.98 1303.06 558.915L1303.21 558.888C1304.28 558.573 1305.4 558.424 1306.52 558.443L1306.95 558.444C1307.09 558.452 1307.23 558.481 1307.37 558.502C1307.65 558.546 1307.95 558.566 1308.23 558.623C1308.82 558.75 1309.4 558.919 1309.96 559.131C1311.15 559.586 1312.27 560.208 1313.28 560.978C1313.82 561.377 1314.33 561.805 1314.81 562.26C1315.28 562.712 1315.73 563.191 1316.14 563.692L1316.25 563.82C1316.66 564.465 1317.51 564.657 1318.15 564.248C1318.79 563.84 1318.98 562.985 1318.57 562.34L1318.58 562.317Z" fill="#363637"/>
<path d="M1302.33 655.453C1302.62 655.606 1302.9 655.774 1303.18 655.956C1303.47 656.146 1303.74 656.353 1304.01 656.575C1304.51 656.996 1304.95 657.487 1305.31 658.032C1305.65 658.522 1305.9 659.071 1306.04 659.65C1306.17 660.201 1306.23 660.77 1306.19 661.336L1306.21 661.418C1306.18 662.311 1306.63 663.151 1307.4 663.61C1308.17 664.068 1309.13 664.074 1309.91 663.623C1310.68 663.173 1311.15 662.338 1311.13 661.445C1311.12 661.282 1311.11 661.119 1311.08 660.958C1310.9 659.914 1310.57 658.903 1310.08 657.96C1309.61 657.033 1308.98 656.195 1308.22 655.483C1307.52 654.809 1306.72 654.235 1305.85 653.779C1305 653.329 1304.1 652.983 1303.17 652.745C1302.46 652.495 1301.68 652.85 1301.4 653.547C1301.13 654.244 1301.45 655.033 1302.14 655.333L1302.33 655.453Z" fill="#363637"/>
<path d="M1242.45 650.462C1242.77 650.102 1243.12 649.767 1243.5 649.459C1243.86 649.159 1244.25 648.904 1244.67 648.698C1245.04 648.517 1245.42 648.393 1245.82 648.331C1246.16 648.289 1246.5 648.307 1246.82 648.383C1248.17 648.628 1249.45 647.717 1249.67 646.347C1249.9 644.978 1248.99 643.669 1247.65 643.424C1247.39 643.375 1247.12 643.37 1246.85 643.411L1246.66 643.448C1245.82 643.563 1245.01 643.818 1244.25 644.204C1243.57 644.567 1242.95 645.022 1242.39 645.557C1241.88 646.058 1241.42 646.611 1241.02 647.206C1240.63 647.794 1240.29 648.417 1240.01 649.067C1239.66 649.712 1239.86 650.526 1240.47 650.935C1241.08 651.345 1241.89 651.212 1242.33 650.63L1242.45 650.462Z" fill="#363637"/>
<path d="M1271.91 560.731C1272.34 560.239 1272.79 559.772 1273.26 559.332C1273.75 558.886 1274.27 558.467 1274.8 558.078C1275.84 557.332 1276.97 556.73 1278.17 556.291C1278.73 556.086 1279.31 555.926 1279.89 555.811C1280.18 555.755 1280.48 555.739 1280.76 555.699C1280.9 555.671 1281.04 555.644 1281.19 555.651L1281.62 555.65C1282.74 555.64 1283.86 555.803 1284.93 556.132L1285.06 556.163C1286.98 556.643 1288.93 555.493 1289.42 553.594C1289.91 551.695 1288.75 549.765 1286.83 549.285C1286.56 549.214 1286.27 549.178 1285.99 549.177C1284.17 549.099 1282.35 549.302 1280.59 549.778L1279.93 549.956C1279.71 549.997 1279.51 550.113 1279.27 550.2C1278.86 550.363 1278.44 550.514 1278.04 550.695C1277.25 551.072 1276.5 551.508 1275.78 551.998C1274.4 552.934 1273.17 554.053 1272.1 555.324C1271.58 555.941 1271.1 556.587 1270.66 557.258C1270.21 557.935 1269.81 558.643 1269.46 559.376C1269.04 560.008 1269.22 560.853 1269.86 561.264C1270.49 561.674 1271.35 561.495 1271.76 560.863L1271.91 560.731Z" fill="#363637"/>
<path d="M1242.67 648.3C1244.27 650.97 1246.17 653.44 1248.35 655.657C1250.52 657.911 1252.89 659.958 1255.44 661.773C1260.62 665.529 1266.55 668.132 1272.81 669.409L1274 669.646C1274.4 669.715 1274.8 669.763 1275.2 669.818L1276.41 669.968C1276.81 670.028 1277.21 670.064 1277.62 670.075L1280.05 670.196L1282.48 670.129C1282.89 670.12 1283.3 670.09 1283.7 670.04L1284.91 669.91L1286.11 669.761L1287.31 669.53C1288.1 669.377 1288.89 669.224 1289.67 669.017L1291.98 668.334C1297.94 666.311 1303.31 662.829 1307.58 658.203C1307.83 657.926 1307.81 657.498 1307.54 657.242C1307.34 657.065 1307.06 657.016 1306.82 657.117C1301.38 659.645 1296.01 661.702 1290.55 662.626C1287.85 663.09 1285.12 663.298 1282.38 663.247C1279.66 663.185 1276.95 662.862 1274.29 662.283C1268.86 661.057 1263.62 659.108 1258.7 656.489C1253.53 653.768 1248.56 650.701 1243.81 647.307C1243.51 647.097 1243.11 647.121 1242.85 647.363C1242.58 647.606 1242.52 648.003 1242.7 648.315L1242.67 648.3Z" fill="#363637"/>
<path d="M1297.02 614.296C1286.09 610.524 1280.79 597.08 1285.19 584.267C1289.6 571.455 1302.03 564.126 1312.96 567.898C1323.89 571.67 1329.19 585.114 1324.78 597.927C1320.38 610.739 1307.95 618.068 1297.02 614.296Z" fill="white"/>
<path d="M1295.98 603.707C1290.59 602.056 1288.07 594.663 1290.35 587.194C1292.63 579.725 1298.84 575.009 1304.23 576.66C1309.61 578.31 1312.13 585.703 1309.85 593.172C1307.58 600.641 1301.36 605.358 1295.98 603.707Z" fill="#363637"/>
<path d="M1265.86 607.817C1256.45 604.57 1252.08 592.437 1256.11 580.717C1260.14 568.998 1271.03 562.131 1280.44 565.378C1289.86 568.626 1294.22 580.759 1290.2 592.478C1286.17 604.198 1275.27 611.065 1265.86 607.817Z" fill="white"/>
<path d="M1265.94 596.605C1261.51 595.063 1259.92 588.055 1262.38 580.95C1264.84 573.846 1270.43 569.336 1274.86 570.877C1279.28 572.418 1280.88 579.427 1278.41 586.532C1275.95 593.636 1270.36 598.146 1265.94 596.605Z" fill="#363637"/>
<path d="M1378.11 684.179C1378.59 682.305 1379.56 682.343 1380.07 682.443C1380.58 682.544 1381.43 682.775 1381.05 684.754C1378.12 700.217 1380.99 712.065 1384.57 718.693C1387.93 724.902 1394.79 727.735 1405.84 727.008C1407.77 726.881 1409.44 728.344 1409.57 730.276C1409.7 732.208 1408.24 733.877 1406.31 734.004C1392.77 734.895 1383.25 730.962 1378.41 722.021C1373.81 713.5 1373.81 700.912 1378.11 684.179Z" fill="#EBEDED"/>
<path fill-rule="evenodd" clip-rule="evenodd" d="M1399.83 725.019L1396.07 724.216L1393.23 737.583L1397 738.386L1399.83 725.019Z" fill="#EB676C"/>
<path d="M1409.72 742.629C1417.14 746.404 1425.75 744.383 1428.95 738.115C1432.15 731.847 1428.72 723.705 1421.3 719.93C1413.88 716.155 1405.28 718.176 1402.08 724.444C1398.88 730.712 1402.3 738.854 1409.72 742.629Z" fill="white"/>
<path d="M1426.99 734.72C1429.89 736.198 1433.18 735.555 1434.34 733.286C1435.5 731.016 1434.08 727.978 1431.18 726.501C1428.28 725.024 1424.98 725.666 1423.83 727.936C1422.67 730.205 1424.08 733.243 1426.99 734.72Z" fill="white"/>
<mask id="mask4" mask-type="alpha" maskUnits="userSpaceOnUse" x="1325" y="751" width="24" height="70">
<path d="M1330.68 752.047L1330.46 752.314L1330.29 752.553L1329.95 753.032L1329.36 753.991C1328.98 754.634 1328.67 755.298 1328.33 755.962L1327.48 758.016L1326.79 760.07C1326.57 760.767 1326.39 761.475 1326.25 762.192C1326.06 762.899 1325.92 763.614 1325.81 764.336L1325.5 766.499L1325.36 767.588L1325.3 768.677C1324.95 774.467 1325.43 780.278 1326.73 785.935L1327.15 788.058L1327.72 790.113L1328.93 794.312C1329.37 795.681 1329.87 797.051 1330.34 798.373L1331.02 800.428C1331.27 801.113 1331.49 801.798 1331.79 802.442L1333.46 806.374L1334.3 808.354C1334.58 809.039 1334.86 809.676 1335.2 810.306L1339.02 817.971C1340.34 820.479 1343.42 821.478 1345.96 820.221C1348.5 818.964 1349.56 815.911 1348.35 813.348C1348.26 813.17 1348.16 812.999 1348.06 812.835L1347.91 812.608L1343.51 805.853C1343.13 805.298 1342.82 804.709 1342.48 804.134L1341.48 802.387L1339.49 798.893C1339.14 798.318 1338.87 797.708 1338.58 797.112L1337.7 795.317C1337.13 794.112 1336.51 792.92 1335.96 791.707L1334.47 788.008L1333.71 786.152L1333.11 784.261C1331.34 779.275 1330.29 774.063 1330 768.783L1329.93 767.797L1329.93 766.817L1330.01 764.866C1330.01 764.181 1330.13 763.572 1330.18 762.921C1330.23 762.268 1330.32 761.619 1330.44 760.976L1330.82 759.059L1331.36 757.19C1331.58 756.594 1331.79 755.978 1332.04 755.396L1332.45 754.54L1332.67 754.143L1332.77 753.945L1332.86 753.794L1332.96 753.637C1333.39 753.013 1333.23 752.156 1332.61 751.723C1331.98 751.289 1331.12 751.443 1330.69 752.067L1330.68 752.047Z" fill="white"/>
</mask>
<g mask="url(#mask4)">
<path d="M1336.7 751.465L1336.43 751.69L1336.22 751.896L1335.8 752.308L1335.06 753.15C1334.57 753.718 1334.15 754.318 1333.69 754.912L1332.5 756.787L1331.47 758.691C1331.13 759.338 1330.83 760.005 1330.57 760.687C1330.26 761.35 1329.99 762.029 1329.76 762.72L1329.09 764.799L1328.76 765.846L1328.51 766.908C1327.16 772.549 1326.62 778.356 1326.91 784.151L1326.97 786.316L1327.17 788.439L1327.63 792.783C1327.82 794.208 1328.08 795.645 1328.31 797.028L1328.63 799.171C1328.76 799.888 1328.85 800.601 1329.03 801.287L1330 805.45L1330.48 807.545C1330.64 808.269 1330.8 808.944 1331.02 809.623L1333.46 817.836C1334.32 820.534 1337.18 822.053 1339.9 821.256C1342.62 820.459 1344.2 817.637 1343.45 814.904C1343.4 814.713 1343.32 814.527 1343.25 814.347L1343.14 814.098L1339.99 806.682C1339.71 806.07 1339.51 805.436 1339.27 804.81L1338.59 802.916L1337.24 799.129C1336.99 798.502 1336.83 797.855 1336.65 797.217L1336.1 795.298C1335.74 794.01 1335.34 792.729 1335.01 791.439L1334.18 787.538L1333.76 785.578L1333.49 783.611C1332.61 778.393 1332.49 773.079 1333.12 767.829L1333.22 766.845L1333.39 765.881L1333.8 763.972C1333.92 763.297 1334.15 762.718 1334.31 762.086C1334.47 761.453 1334.67 760.829 1334.91 760.217L1335.61 758.394L1336.47 756.648C1336.79 756.099 1337.1 755.529 1337.45 755L1338 754.228L1338.29 753.875L1338.42 753.697L1338.54 753.564L1338.66 753.426C1339.19 752.887 1339.19 752.016 1338.65 751.48C1338.11 750.945 1337.23 750.948 1336.7 751.487L1336.7 751.465Z" fill="#EBEDED"/>
<path d="M1324.52 796.944H1344.07V800.806H1324.52V796.944Z" fill="#EB676C"/>
</g>
<path d="M1331.13 819.781L1372.41 839.717C1373.3 840.142 1374.34 840.089 1375.16 839.576C1375.99 839.062 1376.5 838.161 1376.5 837.186C1376.49 827.009 1372.3 803.394 1331.58 814.501C1330.45 814.826 1329.64 815.809 1329.54 816.978C1329.44 818.146 1330.07 819.26 1331.13 819.781Z" fill="white"/>
<path opacity="0.260209" fill-rule="evenodd" clip-rule="evenodd" d="M1187.55 641.885C1185.85 636.351 1185 631.254 1185 626.596C1185 564.963 1234.88 515 1296.42 515C1357.95 515 1407.83 564.963 1407.83 626.596C1407.83 639.09 1402.8 655.994 1392.74 677.307C1384.24 669.733 1377.51 666.81 1372.53 668.539C1333.85 681.991 1288.6 686.366 1267.37 684.781C1245.34 683.137 1213.02 669.028 1203.35 643.249C1202.71 641.544 1197.44 641.089 1187.55 641.885Z" fill="url(#paint0_linear)"/>
<path d="M1211.11 580.869C1210.22 582.37 1208.99 584.669 1207.42 587.764M1240.04 549.331C1236.37 552.001 1232.78 554.993 1229.27 558.308C1224.01 563.279 1219.4 568.563 1215.45 574.16L1240.04 549.331Z" stroke="white" stroke-opacity="0.697628" stroke-width="5" stroke-linecap="round" stroke-linejoin="round"/>
<path fill-rule="evenodd" clip-rule="evenodd" d="M1244 703.842L1238.15 702.915C1236.53 702.658 1235.01 703.761 1234.76 705.379C1234.76 705.379 1234.76 705.379 1234.76 705.38C1234.5 706.998 1235.6 708.517 1237.22 708.774L1243.07 709.701C1244.69 709.957 1246.2 708.854 1246.46 707.237C1246.46 707.236 1246.46 707.236 1246.46 707.236C1246.72 705.618 1245.61 704.098 1244 703.842Z" fill="#FF6666"/>
<path fill-rule="evenodd" clip-rule="evenodd" d="M1245.48 695.833L1239.63 694.906C1238.01 694.649 1236.49 695.753 1236.24 697.37C1236.24 697.37 1236.24 697.371 1236.24 697.371C1235.98 698.989 1237.08 700.508 1238.7 700.765L1244.55 701.692C1246.17 701.948 1247.69 700.845 1247.94 699.228C1247.94 699.227 1247.94 699.227 1247.94 699.227C1248.2 697.609 1247.09 696.089 1245.48 695.833Z" fill="#009191"/>
<path fill-rule="evenodd" clip-rule="evenodd" d="M1242.81 711.849L1236.96 710.922C1235.34 710.666 1233.83 711.769 1233.57 713.386C1233.57 713.387 1233.57 713.387 1233.57 713.387C1233.31 715.006 1234.42 716.525 1236.03 716.781L1241.88 717.708C1243.5 717.965 1245.02 716.862 1245.27 715.244C1245.27 715.244 1245.27 715.244 1245.27 715.243C1245.53 713.625 1244.43 712.106 1242.81 711.849Z" fill="#FFCC66"/>
<path fill-rule="evenodd" clip-rule="evenodd" d="M1309.18 697.561C1291.88 696.54 1278.9 695.421 1270.25 694.204C1261.6 692.986 1249.34 690.556 1233.49 686.912L1228.75 720.689C1244.52 724.346 1256.8 726.791 1265.56 728.025C1274.33 729.258 1287.29 730.363 1304.44 731.339L1309.18 697.561Z" stroke="#EBEDED" stroke-width="2" stroke-linejoin="round"/>
<mask id="mask5" mask-type="alpha" maskUnits="userSpaceOnUse" x="1250" y="698" width="51" height="26">
<path d="M1300.77 698.983C1286.16 699.791 1275.96 700.2 1270.17 700.212C1267.43 700.217 1260.88 700.249 1250.51 700.308L1250.67 722.613C1261.94 722.98 1268.96 723.161 1271.75 723.156C1277.62 723.144 1287.24 722.492 1300.61 721.2L1300.77 698.983Z" fill="white"/>
</mask>
<g mask="url(#mask5)">
<path d="M1302.36 703.062C1287.8 701.574 1277.66 700.383 1271.93 699.488C1269.23 699.065 1262.75 698.071 1252.5 696.508L1249.17 718.564C1260.24 720.689 1267.16 721.967 1269.91 722.397C1275.7 723.303 1285.31 724.164 1298.72 724.98L1302.36 703.062Z" fill="#E3E3E3"/>
<path opacity="0.30422" d="M1250.32 703.029C1250.15 702.855 1249.86 702.849 1249.69 703.017C1249.51 703.184 1249.51 703.461 1249.68 703.636L1250.06 704.033C1250.13 704.099 1250.19 704.164 1250.26 704.229L1250.64 704.615L1251.03 704.994C1251.41 705.369 1251.79 705.733 1252.17 706.086L1252.54 706.435C1253.04 706.896 1253.53 707.337 1254.02 707.758L1254.39 708.07C1255.11 708.686 1255.83 709.258 1256.53 709.786L1256.88 710.046C1259.38 711.883 1261.71 713.148 1263.89 713.84C1266.38 714.631 1269.08 714.747 1272.25 714.309C1272.64 714.255 1273.02 714.198 1273.39 714.136L1273.58 714.105L1274.04 714.023L1274.4 713.952L1274.88 713.857L1275.27 713.773L1275.78 713.658L1276.33 713.53L1276.79 713.417L1277.41 713.263L1278.52 712.981L1279.61 712.694L1282.17 712.015L1283.2 711.745L1284.02 711.537L1284.12 711.512C1288.32 710.472 1293.37 711.939 1299.29 715.952L1299.68 716.217C1300.07 716.486 1300.46 716.766 1300.85 717.057C1301.05 717.201 1301.33 717.161 1301.47 716.967C1301.62 716.773 1301.58 716.499 1301.38 716.354C1301.04 716.105 1300.71 715.863 1300.37 715.629L1299.97 715.352C1293.85 711.162 1288.55 709.574 1284.05 710.627L1283.8 710.688L1282.87 710.925L1282.06 711.135L1279.39 711.846L1278.31 712.13L1277.34 712.377L1276.84 712.503L1276.25 712.647L1275.7 712.776L1275.29 712.87L1274.9 712.956L1274.42 713.055L1273.97 713.144L1273.61 713.209L1273.43 713.241L1273.06 713.302L1272.88 713.332C1272.63 713.37 1272.38 713.406 1272.13 713.442C1269.08 713.862 1266.51 713.752 1264.16 713.006C1262.12 712.357 1259.91 711.169 1257.54 709.44L1257.2 709.189C1256.57 708.723 1255.94 708.22 1255.29 707.679L1254.94 707.381C1254.46 706.978 1253.98 706.555 1253.49 706.113L1253.13 705.778C1252.82 705.496 1252.52 705.206 1252.2 704.908L1251.83 704.547C1251.71 704.425 1251.58 704.302 1251.46 704.178L1251.08 703.803L1250.7 703.42C1250.57 703.291 1250.44 703.161 1250.32 703.029Z" fill="#009191"/>
</g>
<path d="M531.952 649.257C528.13 652.171 512.965 659.449 501.548 659.075C499.553 659.01 497.885 660.574 497.824 662.568C497.763 664.563 499.289 666.523 501.327 666.298C513.628 664.939 526.796 658.222 532.537 654.238C538.278 650.253 535.775 646.343 531.952 649.257Z" fill="#EBEDED"/>
<path d="M477.777 698.149C469.14 698.464 461.943 692.881 461.703 685.678C461.463 678.476 468.271 672.382 476.909 672.067C485.547 671.752 492.743 677.335 492.983 684.537C493.223 691.739 486.415 697.834 477.777 698.149Z" fill="white"/>
<path d="M465.033 695.044C461.653 695.168 458.843 693.154 458.756 690.546C458.669 687.939 461.339 685.725 464.718 685.602C468.098 685.479 470.908 687.493 470.995 690.1C471.082 692.707 468.413 694.921 465.033 695.044Z" fill="white"/>
<path d="M566.507 594.285L677.666 634.679L653.054 702.19L541.895 661.796L566.507 594.285Z" fill="#73524B"/>
<path d="M542.684 741.909L542.353 741.792L542.064 741.711L541.488 741.55L540.369 741.318C539.624 741.18 538.884 741.114 538.129 741.01L535.875 740.905L533.679 740.957C532.939 740.986 532.201 741.057 531.469 741.17C530.731 741.235 529.998 741.339 529.272 741.48L527.106 741.934L526.019 742.17L524.96 742.484C519.324 744.13 513.958 746.571 509.024 749.731L507.152 750.861L505.395 752.105L501.818 754.681C500.667 755.566 499.538 756.51 498.443 757.405L496.727 758.759C496.161 759.228 495.586 759.671 495.077 760.171L491.919 763.105L490.328 764.577C489.774 765.078 489.264 765.556 488.782 766.091L482.82 772.333C480.893 774.441 481.022 777.706 483.108 779.685C485.195 781.664 488.475 781.631 490.493 779.61C490.631 779.465 490.758 779.308 490.878 779.155L491.041 778.934L495.934 772.456C496.33 771.908 496.783 771.414 497.211 770.891L498.525 769.35L501.155 766.266C501.58 765.737 502.067 765.275 502.531 764.791L503.935 763.35C504.881 762.391 505.799 761.397 506.761 760.461L509.761 757.783L511.264 756.432L512.853 755.212C516.983 751.831 521.58 749.059 526.506 746.979L527.421 746.576L528.353 746.241L530.238 745.645C530.89 745.411 531.514 745.319 532.15 745.142C532.79 744.97 533.439 744.833 534.095 744.73L536.053 744.432L538.022 744.307C538.666 744.311 539.327 744.302 539.97 744.344L540.927 744.435L541.382 744.507L541.607 744.537L541.782 744.57L541.965 744.608C542.711 744.806 543.473 744.365 543.666 743.624C543.86 742.882 543.412 742.12 542.667 741.922L542.684 741.909Z" fill="#EBEDED"/>
<path d="M499.992 774.369L459.407 803.603C458.824 804.018 458.075 804.112 457.411 803.855C456.748 803.597 456.261 803.022 456.115 802.324C454.135 792.883 452.185 765.232 499.018 770.551C499.876 770.662 500.578 771.284 500.792 772.124C501.007 772.963 500.69 773.851 499.992 774.369Z" fill="white"/>
<path d="M669.581 687.178C668.496 689.836 667.261 692.431 666.071 695.043C659.946 694.684 645.506 694.507 641.221 694.657C642.023 692.456 642.828 690.248 643.602 688.035C645.766 681.589 647.878 675.124 650.015 668.681C650.374 667.696 651.65 667.016 650.85 666.284C652.398 665.566 652.016 666.612 653.564 665.893C655.479 664.998 657.245 663.786 657.698 661.802C658.094 660.045 657.553 658.532 655.689 657.559C656.113 656.962 657.34 653.647 657.613 652.988C659.736 647.87 661.798 642.723 663.87 637.587C664.017 637.073 664.252 636.588 664.564 636.158C666.8 634.153 670.989 605.553 670.989 605.553C672.618 606.712 674.432 607.566 676.355 608.082C678.256 607.684 680.934 605.344 682.2 603.882C683.393 602.497 683.458 601.26 682.658 599.874C682.27 599.175 681.661 598.589 681.283 597.88C681.076 597.351 680.934 596.795 680.858 596.224C682.493 592.885 684.149 589.56 685.755 586.211C686.207 585.229 686.594 584.219 686.915 583.188C687.634 581.004 687.382 580.602 685.224 580.562C682.714 580.532 680.262 580.363 678.223 578.707C674.853 575.994 672.812 572.669 673.209 567.771C673.474 564.361 675.142 561.744 676.795 559.045C677.407 558.034 678.064 557.15 677.778 555.958C673.437 555.379 672.529 554.484 671.567 550.07C670.687 545.921 672.297 542.634 675.138 539.761C675.428 539.688 689.506 532.942 690.601 530.853C681.892 554.746 698.62 555.259 698.62 555.259C697.724 556.439 696.901 557.677 696.157 558.965C694.393 562.533 695.146 570.997 698.851 574.589C701.514 577.162 711.578 579.786 711.578 579.786C711.578 579.786 672.44 680.165 669.581 687.178Z" fill="#48322D"/>
<path d="M568.803 555.859C570.67 551.399 572.887 545.711 574.811 541.271C576.984 536.252 579.261 531.269 581.489 526.277C581.638 525.868 581.785 525.466 581.974 525.072C584.355 519.554 586.742 514.039 589.106 508.516C589.22 508.115 589.294 507.704 589.327 507.29C589.812 504.987 590.04 504.787 592.69 504.602L593.412 504.395L594.606 504.662C594.75 504.922 594.837 505.32 595.059 505.421C597.969 506.754 600.889 508.077 603.845 509.302C608.09 511.119 612.359 512.87 616.623 514.632C616.817 514.702 617.005 514.771 617.18 514.876C621.149 516.759 625.119 518.636 629.084 520.531C630.7 521.304 632.301 522.12 633.908 522.918L639.274 525.557C640.299 526.48 640.531 528.067 639.827 529.349C638.8 531.456 623.254 569.869 621.536 573.818C621.207 574.447 620.819 575.043 620.378 575.594C618.611 576.472 568.639 556.256 568.803 555.859Z" fill="#72524B"/>
<path fill-rule="evenodd" clip-rule="evenodd" d="M565.297 562.195C567.94 563.25 569.896 564.03 571.164 564.535C587.336 570.981 601.055 573.597 609.53 576.892C619.003 580.574 622.392 582.725 619.696 583.343L597.717 634.846L545.393 613.192L565.297 562.195Z" fill="#72524B"/>
<path d="M675.01 673.559C673.013 679.303 642.071 764.493 639.191 771.694C636.928 772.621 620.199 776.503 611.325 779.278C619.497 756.851 644.608 685.213 646.104 681.795C646.3 682.091 651.596 681.318 661.233 678.424C663.855 677.637 668.447 676.015 675.01 673.559Z" fill="#EBEDED"/>
<path d="M602.952 576.721C599.593 575.411 572.988 565.192 565.395 562.146C572.968 563.371 572.056 559.133 569.725 555.568C570.774 555.433 584.02 561.555 589.525 563.448C596.859 566 604.139 568.701 611.416 571.409C612.999 571.984 619.111 574.934 620.856 574.162C624.053 576.004 624.531 579.487 621.839 582.312C620.468 583.757 618.246 582.989 614.396 582.323C610.64 579.592 609.49 578.113 602.952 576.721Z" fill="#5F4C48"/>
<path d="M639.063 525.34L633.705 522.699C632.099 521.9 630.501 521.083 628.887 520.309C624.927 518.412 620.961 516.534 616.998 514.649C616.81 514.58 616.633 514.482 616.442 514.405C612.189 512.623 607.925 510.872 603.679 509.071C600.738 507.815 597.821 506.491 594.903 505.187C594.676 505.105 594.595 504.687 594.451 504.427C598.664 504.112 602.866 503.792 607.056 503.468C611.196 503.151 615.333 502.896 619.466 502.438C621.996 502.171 624.517 502.61 626.775 503.71C629.685 505.052 689.123 529.971 689.929 530.679C688.84 532.784 674.71 539.577 674.408 539.647C665.353 535.343 652.811 530.11 648.504 528.78C651.649 527.796 651.653 526.28 650.063 525.404C647.527 523.99 644.817 523.019 641.792 524.205C640.906 524.548 639.99 524.956 639.063 525.34Z" fill="#5D4C49"/>
<path d="M546.258 613.635C552.605 615.942 596.629 634.203 598.275 634.572C600.587 638.891 598.515 642.959 593.774 643.371C594.108 642.455 547.182 622.862 544.034 621.71C552.719 620.304 551.128 616.282 546.258 613.635Z" fill="#5F4C48"/>
<path d="M593.036 504.198L592.633 504.299L593.036 504.198Z" fill="#5D4C49"/>
<path d="M574.715 707.807C576.835 709.713 576.689 711.246 575.028 713.372C571.91 717.604 567.089 720.047 562.132 719.905C557.555 719.795 554.583 714.9 555.858 710.168C556.259 708.679 556.897 706.701 558.002 706.063C560.075 704.891 562.331 704.16 564.636 703.914C566.343 703.695 570.578 703.646 574.715 707.807Z" fill="#FF6666"/>
<path d="M674.529 539.936C671.679 542.799 670.069 546.077 670.962 550.224C671.94 554.635 674.211 555.768 678.572 556.348C677.624 557.137 676.828 558.11 676.234 559.211C674.602 561.911 672.908 564.514 672.649 567.919C672.279 572.816 674.338 576.141 677.715 578.852C680.463 581.053 683.946 580.62 687.308 580.747C686.752 582.648 686.086 584.516 685.312 586.34C683.705 589.682 682.048 592.998 680.413 596.33C678.842 596.77 677.361 597.284 675.665 596.702C663.946 592.606 652.195 588.614 640.46 584.559C637.305 583.476 628.416 580.221 628.416 580.221L647.723 528.402C647.723 528.402 670.184 537.341 674.529 539.936Z" fill="#72524B"/>
<path d="M640.813 694.803C632.423 688.91 596.256 665.066 596.071 664.826C596.81 662.713 601.598 648.009 601.598 648.009L605.535 649.48C620.089 655.139 638.383 661.568 650.956 666.944C648.78 673.424 645.361 681.66 643.186 688.139C642.458 690.381 641.615 692.588 640.813 694.803Z" fill="#73524B"/>
<path d="M605.972 639.404C614.888 642.646 627.998 648.561 636.949 651.708C641.487 653.311 646.107 654.693 650.725 656.042C651.707 656.325 655.03 657.897 655.881 657.566C657.755 658.538 658.31 660.029 657.928 661.753C657.485 663.711 655.538 666.54 651.081 666.803C635.77 660.689 616.8 653.514 602.277 647.862C607.128 646.426 606.043 640.112 605.972 639.404Z" fill="#5F4C48"/>
<path d="M624.71 588.351C624.889 587.951 630.373 587.409 628.938 579.905C632.073 581.045 637.819 583.133 640.96 584.24C652.675 588.284 664.408 592.263 676.107 596.351C677.789 596.962 679.293 596.378 680.875 595.9C680.944 596.491 681.082 597.065 681.284 597.61C681.663 598.342 682.248 598.934 682.648 599.66C683.422 601.08 685.534 607.154 677.24 608.336C675.015 608.184 629.705 590.217 624.71 588.351Z" fill="#604E4A"/>
<path d="M605.988 640.104C606.044 640.817 607.591 645.53 601.521 648.166C601.521 648.166 598.827 656.615 598.188 658.624C597.518 660.754 590.357 677.812 589.619 679.924L580.922 675.101C582.505 670.758 590.389 651.423 592.037 647.103C592.73 645.499 593.507 643.933 594.364 642.415C598.909 641.923 600.364 639.546 598.198 635.293C598.974 632.653 600.067 630.114 601.449 627.744C603.135 624.663 604.307 621.277 605.701 618.028C607.532 616.964 609.383 615.963 611.171 614.828C612.623 613.903 613.997 612.832 615.411 611.825L605.312 639.547C606.716 640.452 604.712 639.288 605.988 640.104Z" fill="#48322D"/>
<path d="M630.001 581.658C632.651 588.783 624.763 588.15 624.596 588.538C621.416 587.623 624.252 588.344 624.252 588.344C624.252 588.344 621.596 596.167 621.077 597.538L620.19 595.836L619.486 594.821L619.563 594.945C619.654 594.289 619.951 593.562 619.806 592.964C619.343 591.182 618.45 585.572 613.591 582.681C622.731 586.004 623.02 577.755 620.49 574.524C620.82 574.261 621.109 573.944 621.344 573.586C623.05 569.666 638.564 531.299 639.598 529.171C640.301 527.89 640.067 526.305 639.039 525.38C639.958 525.024 640.884 524.595 641.819 524.231C644.836 523.052 657.186 525.251 649.25 528.692C647.249 528.041 647.713 528.133 647.713 528.133L628.362 580.138C628.362 580.138 629.107 580.223 630.001 581.658Z" fill="#48322D"/>
<path d="M625.308 586.626L616.623 583.468L597.844 635.016L606.53 638.174L625.308 586.626Z" fill="#48322D"/>
<path d="M592.477 562.036C593.644 557.441 596.893 555.172 600.274 553.523C605.091 551.186 610.16 550.216 615.218 551.808C616.732 552.286 618.339 552.635 618.956 554.466C619.986 557.499 618.744 560.046 615.656 561.416C612.818 562.684 610.048 562.447 607.225 561.994C605.164 561.6 603.075 561.335 600.968 561.199C599.863 561.222 598.758 561.483 597.724 561.965C595.953 562.685 594.253 563.175 592.477 562.036Z" fill="#373737"/>
<path d="M663.573 589.425C663.783 580.449 658.415 577.842 651.581 576.982C651.38 574.417 652.787 572.918 654.082 571.473C656.767 568.487 659.973 566.822 663.831 567.827C664.974 568.128 666.006 568.773 666.81 569.688C668.548 571.872 669.526 574.651 669.581 577.565C669.683 580.561 669.176 583.563 668.097 586.36C667.243 588.817 666.186 589.607 663.573 589.425Z" fill="#373737"/>
<path d="M649.184 642.773L648.794 642.967L649.184 642.773Z" fill="#FDFDFD"/>
<path d="M620.295 595.399L619.885 594.52L620.295 595.399Z" fill="#FBFCFC"/>
<path d="M586.789 659.46C585.708 659.455 531.665 654.272 530.883 654.085C532.841 649.176 543.805 621.842 543.805 621.842C543.805 621.842 584.14 637.383 593.902 641.71C593.289 642.701 588.361 655.097 586.789 659.46Z" fill="#73524B"/>
<path d="M649.573 642.528C654.352 642.976 658.351 640.666 662.31 638.199C662.813 637.888 663.369 637.665 663.899 637.405C661.822 642.509 659.767 647.627 657.661 652.72C657.419 653.386 656.168 656.672 655.743 657.265C654.886 657.604 651.547 656.022 650.559 655.739C645.906 654.412 641.254 653.046 636.707 651.394C627.708 648.237 607.106 639.962 605.568 639.033L615.578 611.599C616.183 610.742 616.804 609.893 617.406 609.028C619.348 606.233 621.197 603.424 620.898 599.76C620.832 598.961 621.213 598.113 621.385 597.285C621.888 595.906 624.541 588.155 624.541 588.155L644.402 595.503C641.296 596.896 638.017 597.98 635.033 599.699C625.206 605.27 617.795 613.123 614.745 624.58C613.032 631.056 613.943 637.032 618.422 641.967C620.947 644.747 624.257 646.141 627.748 646.792C634.96 648.206 642.515 646.807 648.991 642.858L648.878 642.92L649.573 642.528Z" fill="#73534C"/>
<path fill-rule="evenodd" clip-rule="evenodd" d="M624.873 588.275L675.164 607.533L656.838 657.758C649.828 656.093 642.868 654.007 635.961 651.499C629.054 648.991 618.911 644.868 605.533 639.129L624.873 588.275Z" fill="#72524B"/>
<path d="M611.371 779.674C610.422 779.44 572.768 764.858 498.408 735.928C523.712 672.238 536.744 639.355 537.502 637.277C537.624 636.943 550.465 651.727 584.877 668.732C603.718 678.043 624.124 682.369 646.093 681.713C628.401 731.987 616.827 764.641 611.371 779.674Z" fill="white"/>
<path d="M582.354 612.391C575.893 604.68 578.457 591.872 588.081 583.784C597.705 575.697 610.745 575.392 617.206 583.104C623.667 590.816 621.102 603.624 611.478 611.711C601.854 619.798 588.815 620.103 582.354 612.391Z" fill="white"/>
<path d="M602.024 606.683C598.183 604.362 598.068 597.522 601.767 591.407C605.465 585.292 611.577 582.217 615.417 584.538C619.258 586.86 619.373 593.7 615.674 599.815C611.976 605.93 605.864 609.005 602.024 606.683Z" fill="#363637"/>
<path d="M610.361 629.928C601.979 619.923 604.699 603.817 616.436 593.955C628.172 584.092 644.482 584.207 652.864 594.211C661.246 604.216 658.527 620.322 646.79 630.184C635.053 640.047 618.744 639.932 610.361 629.928Z" fill="white"/>
<path d="M630.22 621.262C626.35 618.434 626.973 610.994 631.611 604.646C636.249 598.298 643.146 595.445 647.015 598.273C650.885 601.102 650.262 608.542 645.624 614.89C640.986 621.238 634.089 624.091 630.22 621.262Z" fill="#363637"/>
<path d="M620.414 762.478L620.17 762.727L619.977 762.952L619.59 763.403L618.913 764.312C618.478 764.925 618.109 765.563 617.699 766.199L616.664 768.184L615.793 770.183C615.51 770.862 615.265 771.557 615.061 772.263C614.813 772.955 614.6 773.659 614.424 774.373L613.929 776.515L613.688 777.594L613.53 778.68C612.663 784.452 612.626 790.317 613.42 796.097L613.659 798.262L614.048 800.37L614.881 804.682C615.201 806.092 615.582 807.509 615.933 808.874L616.44 810.992C616.627 811.7 616.786 812.405 617.025 813.076L618.357 817.161L619.022 819.217C619.243 819.928 619.462 820.59 619.744 821.251L622.893 829.262C623.992 831.888 626.997 833.155 629.656 832.114C632.316 831.073 633.656 828.106 632.673 825.434C632.6 825.248 632.511 825.067 632.423 824.894L632.291 824.654L628.483 817.506C628.154 816.917 627.896 816.3 627.603 815.693L626.759 813.857L625.072 810.184C624.772 809.577 624.557 808.943 624.314 808.32L623.598 806.446C623.127 805.188 622.613 803.941 622.169 802.678L621.003 798.843L620.41 796.917L619.971 794.97C618.642 789.821 618.058 784.507 618.237 779.191L618.255 778.197L618.342 777.216L618.591 775.266C618.651 774.58 618.829 773.98 618.935 773.332C619.047 772.683 619.194 772.04 619.376 771.406L619.924 769.517L620.634 767.691C620.907 767.113 621.175 766.514 621.481 765.952L621.963 765.13L622.218 764.751L622.339 764.561L622.442 764.417L622.553 764.268C623.043 763.68 622.963 762.808 622.374 762.32C621.785 761.831 620.91 761.912 620.419 762.499L620.414 762.478Z" fill="#EBEDED"/>
<path d="M611.928 813.966L630.344 856.562C630.739 857.473 631.569 858.124 632.542 858.285C633.515 858.447 634.497 858.098 635.143 857.359C641.854 849.624 654.239 828.9 615.756 810.253C614.677 809.747 613.408 809.955 612.561 810.777C611.713 811.598 611.462 812.865 611.928 813.966Z" fill="white"/>
<path opacity="0.260209" d="M619.154 685.377C561.914 681.393 518.767 631.833 522.782 574.682C526.797 517.531 576.453 474.43 633.693 478.415C690.932 482.399 734.079 531.959 730.065 589.11C726.05 646.261 676.393 689.361 619.154 685.377Z" fill="#D8D8D8"/>
<path fill-rule="evenodd" clip-rule="evenodd" d="M629.627 728.598C603.499 723.576 583.932 718.833 570.927 714.371C557.921 709.908 539.92 701.355 516.921 688.71L512.356 700.321C535.591 712.897 553.738 721.426 566.797 725.907C579.855 730.387 599.401 735.331 625.432 740.739L629.627 728.598Z" fill="url(#paint1_linear)"/>
<path d="M715.137 631.84C709.89 629.93 708.958 619.252 713.055 607.991C717.151 596.73 724.726 589.149 729.973 591.06C735.219 592.971 736.152 603.648 732.055 614.91C727.958 626.171 720.384 633.751 715.137 631.84Z" fill="#EBEDED"/>
<path d="M737.025 568.22C735.569 567.777 734.75 566.239 735.196 564.785C735.642 563.331 737.184 562.512 738.64 562.956C740.095 563.399 740.914 564.937 740.468 566.391C740.022 567.845 738.48 568.664 737.025 568.22Z" fill="#EBEDED"/>
<path d="M728.183 597.187L737.346 567.185" stroke="#EBEDED" stroke-width="2" stroke-linecap="round" stroke-linejoin="round"/>
<path d="M566.817 730.921C558.895 730.37 552.913 723.649 553.457 715.91C554 708.17 560.863 702.344 568.786 702.895C576.708 703.447 582.69 710.167 582.146 717.907C581.603 725.646 574.74 731.473 566.817 730.921Z" fill="url(#paint2_linear)"/>
<path d="M567.094 726.609C561.548 726.223 557.369 721.406 557.759 715.849C558.15 710.293 562.962 706.102 568.507 706.488C574.053 706.874 578.232 711.691 577.842 717.247C577.452 722.804 572.64 726.995 567.094 726.609Z" fill="url(#paint3_linear)"/>
<path d="M549.488 532.701C548.468 534.179 547.035 536.451 545.189 539.517M581.572 502.399C577.596 504.875 573.681 507.688 569.827 510.84C564.047 515.565 558.919 520.659 554.441 526.123L581.572 502.399Z" stroke="white" stroke-opacity="0.697628" stroke-width="5" stroke-linecap="round" stroke-linejoin="round"/>
<path fill-rule="evenodd" clip-rule="evenodd" d="M630.532 728.798C636.46 729.635 640.851 730.2 643.706 730.491C646.561 730.782 650.152 731.032 654.481 731.241L650.579 742.776C648.031 742.879 645.049 742.812 641.633 742.574C638.218 742.336 633.138 741.843 626.395 741.093L630.532 728.798Z" fill="url(#paint4_linear)"/>
<path d="M654.047 695.21C656.351 699.413 667.25 712.179 677.857 716.447C679.712 717.193 680.597 719.293 679.834 721.139C679.072 722.984 676.87 724.157 675.096 723.129C664.39 716.921 655.089 705.474 651.467 699.519C647.846 693.565 651.742 691.007 654.047 695.21Z" fill="white"/>
<path d="M674.509 759.969C682.255 763.745 691.107 761.536 694.28 755.035C697.453 748.533 693.746 740.202 685.999 736.426C678.252 732.65 669.401 734.859 666.228 741.361C663.055 747.862 666.762 756.193 674.509 759.969Z" fill="white"/>
<path d="M687.446 762.301C690.477 763.779 693.866 763.068 695.015 760.714C696.164 758.36 694.638 755.254 691.606 753.776C688.575 752.298 685.186 753.009 684.037 755.363C682.888 757.717 684.414 760.824 687.446 762.301Z" fill="white"/>
<path opacity="0.801631" d="M562.1 712.071C561.633 711.472 562.01 710.395 562.942 709.665C563.875 708.936 565.01 708.83 565.477 709.43C565.945 710.029 565.568 711.106 564.636 711.835C563.703 712.565 562.568 712.67 562.1 712.071Z" fill="white"/>
<path opacity="0.801631" d="M560.556 714.386C560.16 714.358 559.861 714.014 559.889 713.617C559.917 713.221 560.261 712.921 560.657 712.949C561.054 712.977 561.352 713.321 561.325 713.717C561.297 714.114 560.953 714.413 560.556 714.386Z" fill="white"/>
<g filter="url(#filter0_d)">
<path fill-rule="evenodd" clip-rule="evenodd" d="M363.92 600H0V820H1920V600H1556.08C1430.8 690.776 1210.66 751 960 751C709.345 751 489.198 690.776 363.92 600Z" fill="white"/>
</g>
<path d="M1333.14 710.951C1341.92 704.267 1341 703 1342.5 697C1343.83 693.001 1349.5 684 1356 695L1351.5 696.5C1350.3 694.9 1349.55 696 1349.5 697C1349 707.499 1345 710.611 1337.31 716.465C1335.77 717.634 1333.6 717.347 1332.44 715.823C1331.29 714.301 1331.6 712.119 1333.14 710.951Z" fill="#EBEDED"/>
<path fill-rule="evenodd" clip-rule="evenodd" d="M1339 696.585L1340.38 693L1352.98 697.78L1351.61 701.364L1339 696.585Z" fill="#EB676C"/>
<g filter="url(#filter1_d)">
<path d="M1324.37 704.115C1321.37 711.911 1324.24 720.262 1330.78 722.768C1337.33 725.274 1345.07 720.986 1348.07 713.191C1351.07 705.395 1348.19 697.044 1341.65 694.538C1335.1 692.032 1327.37 696.32 1324.37 704.115Z" fill="white"/>
<path d="M1326.13 719.524C1324.95 722.574 1325.92 725.782 1328.29 726.689C1330.66 727.597 1333.53 725.859 1334.71 722.809C1335.88 719.759 1334.91 716.551 1332.54 715.643C1330.17 714.736 1327.3 716.473 1326.13 719.524Z" fill="white"/>
</g>
<g filter="url(#filter2_d)">
<path d="M1183.57 731.067C1179.91 738.572 1171.83 742.169 1165.52 739.1C1159.22 736.032 1157.09 727.46 1160.75 719.955C1164.42 712.45 1172.5 708.854 1178.8 711.922C1185.1 714.99 1187.24 723.562 1183.57 731.067Z" fill="white"/>
<path d="M1165.05 735.157C1163.62 738.094 1160.61 739.574 1158.33 738.463C1156.05 737.352 1155.36 734.071 1156.79 731.134C1158.23 728.198 1161.24 726.718 1163.52 727.829C1165.8 728.94 1166.49 732.221 1165.05 735.157Z" fill="white"/>
</g>
<circle cx="258" cy="317" r="8" fill="white"/>
<circle cx="495.5" cy="313.5" r="30.5" fill="#DB6F70"/>
<circle cx="1669.5" cy="509.5" r="11.5" fill="white"/>
<circle cx="1812" cy="336" r="6" fill="white"/>
<circle cx="1869.5" cy="430.5" r="7.5" fill="#DB6F70"/>
<circle cx="1533.5" cy="240.5" r="11.5" fill="#DB6F70"/>
<circle cx="1850.5" cy="202.5" r="11.5" fill="white"/>
<circle cx="397.5" cy="496.5" r="11.5" fill="#99D7D7"/>
<circle cx="69.5" cy="473.5" r="11.5" fill="#DB6F70"/>
<circle cx="668" cy="215" r="8" fill="#FBCB67"/>
<circle cx="1341" cy="252" r="8" fill="white"/>
<circle cx="1193" cy="463" r="8" fill="white"/>
<circle cx="898" cy="631" r="8" fill="white"/>
<circle cx="1534" cy="426" r="8" fill="#FBCB67"/>
<circle cx="1357" cy="418" r="8" fill="#DB6F70"/>
<circle cx="1498" cy="147" r="8" fill="#FBCB67"/>
<circle cx="882" cy="170" r="8" fill="white"/>
<circle cx="766" cy="360" r="8" fill="white"/>
<circle cx="378" cy="199" r="8" fill="#FBCB67"/>
<circle cx="13" cy="207" r="57" fill="#99D7D7"/>
<circle cx="210" cy="469" r="20" fill="#FBCB67"/>
<circle cx="1301.5" cy="107.5" r="43.5" fill="#99D7D7"/>
<path fill-rule="evenodd" clip-rule="evenodd" d="M2014.66 115.815C2014.66 216.843 1931.75 298.748 1829.48 298.748C1727.21 298.748 1644.3 216.843 1644.3 115.815C1644.3 14.7791 1727.21 -67.1211 1829.48 -67.1211C1931.75 -67.1211 2014.66 14.7791 2014.66 115.815Z" fill="#F7D6A7"/>
<path fill-rule="evenodd" clip-rule="evenodd" d="M1911.15 179.42C1892.48 172.794 1883.92 149.694 1892.04 127.828C1900.15 105.955 1921.87 93.5942 1940.54 100.22C1959.21 106.845 1967.76 129.938 1959.64 151.811C1951.53 173.685 1929.82 186.045 1911.15 179.42Z" fill="#EFBA6E"/>
<path fill-rule="evenodd" clip-rule="evenodd" d="M1786.42 60.6834L1780.1 54.4168C1723.69 110.341 1676.28 166.032 1642.78 213.862C1626.02 237.784 1612.75 259.742 1603.54 278.953C1598.94 288.57 1595.35 297.503 1592.87 305.743C1590.4 313.983 1589.01 321.53 1589 328.53C1589 332.92 1589.56 337.116 1590.9 341.063C1591.57 343.037 1592.44 344.938 1593.53 346.718C1594.61 348.506 1595.92 350.173 1597.42 351.655C1598.91 353.145 1600.6 354.434 1602.39 355.513C1605.1 357.132 1608.06 358.252 1611.13 358.969C1614.22 359.686 1617.42 359.992 1620.75 360C1627.8 359.984 1635.42 358.607 1643.74 356.158C1651.01 354.007 1658.82 351.019 1667.16 347.249C1681.75 340.644 1697.95 331.663 1715.49 320.556C1741.77 303.898 1771.01 282.456 1801.79 257.156C1832.58 231.856 1864.9 202.682 1897.29 170.575C1953.7 114.659 2001.12 58.9678 2034.62 11.1383C2051.37 -12.7925 2064.64 -34.7418 2073.85 -53.9606C2078.46 -63.5724 2082.04 -72.5044 2084.52 -80.7436C2086.99 -88.9877 2088.38 -96.5359 2088.4 -103.534C2088.39 -107.925 2087.84 -112.123 2086.5 -116.069C2085.83 -118.038 2084.96 -119.938 2083.87 -121.723C2082.78 -123.507 2081.48 -125.172 2079.98 -126.659C2078.48 -128.146 2076.8 -129.44 2075 -130.515C2072.3 -132.132 2069.34 -133.259 2066.26 -133.972C2063.18 -134.686 2059.97 -134.999 2056.65 -135C2049.59 -134.99 2041.97 -133.612 2033.66 -131.163C2026.39 -129.014 2018.58 -126.021 2010.24 -122.25C1995.65 -115.651 1979.44 -106.665 1961.91 -95.558C1935.62 -78.8991 1906.39 -57.4628 1875.6 -32.1562C1844.82 -6.85611 1812.49 22.3103 1780.1 54.4168L1792.74 66.9501C1848.49 11.6861 1904.03 -34.7257 1951.15 -67.1391C1974.7 -83.3445 1996.16 -96.0462 2014.3 -104.578C2023.36 -108.845 2031.59 -112.066 2038.76 -114.181C2045.92 -116.303 2052.02 -117.289 2056.65 -117.279C2059.56 -117.281 2061.87 -116.902 2063.58 -116.327C2064.44 -116.04 2065.16 -115.707 2065.77 -115.343C2066.38 -114.978 2066.88 -114.583 2067.34 -114.128C2067.8 -113.674 2068.2 -113.171 2068.56 -112.567C2069.11 -111.664 2069.59 -110.518 2069.95 -109.022C2070.3 -107.531 2070.52 -105.697 2070.52 -103.534C2070.53 -98.9419 2069.53 -92.9008 2067.39 -85.8045C2065.52 -79.591 2062.8 -72.5648 2059.26 -64.8878C2053.08 -51.4475 2044.4 -36.0145 2033.54 -19.18C2017.24 6.09602 1996.03 34.5536 1970.88 64.6061C1945.73 94.6586 1916.66 126.314 1884.65 158.05C1828.91 213.306 1773.36 259.726 1726.24 292.138C1702.7 308.345 1681.23 321.047 1663.1 329.577C1654.03 333.838 1645.8 337.06 1638.64 339.178C1631.48 341.297 1625.38 342.287 1620.75 342.279C1617.83 342.279 1615.52 341.901 1613.81 341.321C1612.96 341.039 1612.24 340.701 1611.63 340.338C1611.02 339.976 1610.52 339.581 1610.06 339.122C1609.6 338.671 1609.2 338.171 1608.83 337.567C1608.28 336.657 1607.8 335.513 1607.45 334.023C1607.09 332.525 1606.88 330.697 1606.88 328.53C1606.87 323.939 1607.86 317.898 1610.01 310.801C1611.87 304.591 1614.59 297.559 1618.12 289.883C1624.32 276.447 1632.99 261.014 1643.85 244.172C1660.15 218.904 1681.37 190.446 1706.52 160.394C1731.66 130.333 1760.73 98.6779 1792.74 66.9501L1786.42 60.6834Z" fill="#EDAA55"/>
<path fill-rule="evenodd" clip-rule="evenodd" d="M1661 193.5C1663 198 1664 199.5 1666 203L1677 219.5L1933.79 -35.3024C1927.19 -40.0835 1916.62 -46.2607 1902.64 -52.1179C1897.15 -54.4168 1884.75 -58.4053 1884.75 -58.4053L1655.5 178.5L1657 183L1661 193.5Z" fill="#F7D6A7"/>
<path fill-rule="evenodd" clip-rule="evenodd" d="M1892.32 -14.9742C1892.32 -4.462 1880.7 4.06423 1866.34 4.06423C1852 4.06423 1840.37 -4.462 1840.37 -14.9742C1840.37 -25.4865 1852 -34.0127 1866.34 -34.0127C1880.7 -34.0127 1892.32 -25.4865 1892.32 -14.9742Z" fill="#EFBA6E"/>
<path fill-rule="evenodd" clip-rule="evenodd" d="M1729.98 216.654C1723.72 203.968 1733.56 187.066 1751.96 178.917C1770.35 170.768 1790.34 174.443 1796.6 187.137C1802.86 199.831 1793.02 216.725 1774.62 224.882C1756.23 233.031 1736.24 229.348 1729.98 216.654Z" fill="#EFBA6E"/>
<path fill-rule="evenodd" clip-rule="evenodd" d="M1840.08 54.2306C1842.29 65.2809 1831.84 76.6037 1816.73 79.5286C1801.63 82.4454 1787.59 75.8665 1785.37 64.8162C1783.16 53.7738 1793.61 42.451 1808.72 39.5262C1823.83 36.6013 1837.86 43.1883 1840.08 54.2306Z" fill="#EFBA6E"/>
<path fill-rule="evenodd" clip-rule="evenodd" d="M1696.65 11.1042C1699.72 12.7349 1700.53 18.6889 1698.45 24.4051C1696.38 30.1128 1692.22 33.4253 1689.15 31.7945C1686.08 30.1637 1685.27 24.2097 1687.34 18.5021C1689.41 12.7859 1693.58 9.47339 1696.65 11.1042Z" fill="#EFBA6E"/>
<path fill-rule="evenodd" clip-rule="evenodd" d="M1681.23 100.157C1694.58 101.338 1704.25 116.341 1702.82 133.673C1701.4 151.004 1689.43 164.099 1676.08 162.919C1662.74 161.73 1653.07 146.726 1654.5 129.394C1655.92 112.063 1667.89 98.9764 1681.23 100.157Z" fill="#EFBA6E"/>
<path fill-rule="evenodd" clip-rule="evenodd" d="M1856.87 257.876C1860.15 259.464 1861.43 264.227 1859.73 268.51C1858.01 272.794 1853.97 274.985 1850.69 273.397C1847.41 271.81 1846.12 267.047 1847.83 262.763C1849.54 258.48 1853.58 256.289 1856.87 257.876Z" fill="#EFBA6E"/>
<path d="M910.117 384.834C921.759 400.828 918.168 423.505 902.153 435.119C886.138 446.733 842.542 458.273 830.899 442.28C819.257 426.286 843.725 388.469 859.741 376.856C875.756 365.242 898.228 368.801 910.117 384.834Z" fill="#F7C85F"/>
<path d="M869.965 371.704L869.731 373.184C865.667 398.839 883.33 423.131 909.005 427.198L909.992 427.354C919.015 415.128 919.449 398.001 909.891 384.855C900.787 372.034 884.351 367.154 869.965 371.704Z" fill="#CE9A32"/>
<path d="M994.946 319.002C1030.49 367.825 1029.4 429.031 983.083 462.615L961.066 478.577C914.746 512.16 957.581 420.687 922.034 371.864C886.487 323.041 785.785 335.634 832.392 301.843L854.408 285.881C900.729 252.299 959.399 270.179 994.946 319.002Z" fill="#EB676C"/>
<mask id="mask6" mask-type="alpha" maskUnits="userSpaceOnUse" x="862" y="156" width="301" height="300">
<path d="M1156.81 201.613C1167.62 216.464 1149.06 296.903 1057.8 363.302C998.355 406.19 963.158 419.06 963.158 419.06C925.166 436.793 911.121 418.398 892.827 393.266C874.533 368.134 861.099 349.077 889.983 318.531C889.983 318.531 913.409 288.89 972.642 245.717C1063.86 179.565 1146.04 186.516 1156.81 201.613Z" fill="white"/>
</mask>
<g mask="url(#mask6)">
<path d="M1156.81 201.613C1167.62 216.464 1149.06 296.903 1057.8 363.302C998.355 406.19 963.158 419.06 963.158 419.06C925.166 436.793 911.121 418.398 892.827 393.266C874.533 368.134 861.099 349.077 889.983 318.531C889.983 318.531 913.409 288.89 972.642 245.717C1063.86 179.565 1146.04 186.516 1156.81 201.613Z" fill="#FBDBD0"/>
</g>
<path d="M978.482 410.096C938.896 428.34 924.191 409.331 905.278 383.338C886.156 357.059 872.309 337.428 902.413 305.551L907.054 300.221C895.355 311.762 889.987 318.494 889.987 318.494C861.105 349.048 874.537 368.107 892.826 393.244C911.116 418.381 925.198 436.532 963.147 419.04C963.147 419.04 979.82 412.835 1009.71 395.077C989.503 406.029 978.482 410.096 978.482 410.096Z" fill="#ECC0B0"/>
<path d="M977.517 336.166C982.712 343.306 967.39 363.367 932.512 388.671C897.635 413.975 878.081 419.216 872.926 411.829C867.731 404.69 878.519 387.7 913.395 362.396C948.519 337.132 972.115 328.74 977.517 336.166Z" fill="#F26C4F"/>
<path d="M1080.29 195.75C1079.89 212.616 1086.01 231.522 1098.26 248.37C1109.1 262.973 1122.58 273.698 1136.59 279.454C1159.28 241.611 1162.97 210.361 1156.77 201.547C1150.79 193.02 1121.37 187.098 1080.29 195.75Z" fill="#EB676C"/>
<path d="M1028.41 333.248C1049.07 336.521 1068.69 321.103 1072.22 298.812C1075.75 276.52 1061.86 255.797 1041.2 252.524C1020.54 249.252 1000.92 264.669 997.392 286.961C993.862 309.252 1007.75 329.976 1028.41 333.248Z" fill="#009999"/>
<path fill-rule="evenodd" clip-rule="evenodd" d="M1040.52 256.799C1022.53 253.949 1004.88 267.389 1001.68 287.638C998.468 307.888 1011.1 326.123 1029.09 328.973C1047.08 331.822 1064.73 318.382 1067.93 298.133C1071.14 277.884 1058.51 259.648 1040.52 256.799ZM993.11 286.282C996.964 261.948 1018.54 244.552 1041.87 248.248C1065.21 251.944 1080.35 275.156 1076.5 299.489C1072.65 323.823 1051.07 341.219 1027.74 337.523C1004.4 333.827 989.256 310.615 993.11 286.282Z" fill="#4F5356"/>
<g filter="url(#filter3_d)">
<path fill-rule="evenodd" clip-rule="evenodd" d="M473.802 672.079C476.305 676.753 482.011 679.908 488.535 679.681C497.159 679.382 503.945 673.288 503.691 666.07C503.437 658.851 496.241 653.242 487.617 653.542C480.451 653.79 474.555 658.039 472.911 663.61C472.721 663.496 472.523 663.389 472.319 663.289C469.283 661.806 465.894 662.508 464.75 664.857C463.606 667.206 465.14 670.313 468.176 671.796C470.138 672.754 472.246 672.8 473.802 672.079Z" fill="white"/>
</g>
<g filter="url(#filter4_d)">
<path fill-rule="evenodd" clip-rule="evenodd" d="M693.748 742.889C690.199 743.733 686.099 743.32 682.265 741.447C674.505 737.658 670.777 729.326 673.937 722.838C677.097 716.351 685.949 714.164 693.708 717.953C701.468 721.743 705.196 730.074 702.036 736.562C701.943 736.754 701.844 736.943 701.74 737.128C703.073 738.678 703.535 740.628 702.756 742.227C701.612 744.576 698.223 745.278 695.187 743.795C694.66 743.538 694.178 743.232 693.748 742.889Z" fill="white"/>
</g>
</g>
<defs>
<filter id="filter0_d" x="-4" y="592" width="1928" height="228" filterUnits="userSpaceOnUse" color-interpolation-filters="sRGB">
<feFlood flood-opacity="0" result="BackgroundImageFix"/>
<feColorMatrix in="SourceAlpha" type="matrix" values="0 0 0 0 0 0 0 0 0 0 0 0 0 0 0 0 0 0 127 0" result="hardAlpha"/>
<feOffset dy="-4"/>
<feGaussianBlur stdDeviation="2"/>
<feComposite in2="hardAlpha" operator="out"/>
<feColorMatrix type="matrix" values="0 0 0 0 0.00392157 0 0 0 0 0.329412 0 0 0 0 0.329412 0 0 0 0.25 0"/>
<feBlend mode="normal" in2="BackgroundImageFix" result="effect1_dropShadow"/>
<feBlend mode="normal" in="SourceGraphic" in2="effect1_dropShadow" result="shape"/>
</filter>
<filter id="filter1_d" x="1319.18" y="693.822" width="34.0785" height="41.1073" filterUnits="userSpaceOnUse" color-interpolation-filters="sRGB">
<feFlood flood-opacity="0" result="BackgroundImageFix"/>
<feColorMatrix in="SourceAlpha" type="matrix" values="0 0 0 0 0 0 0 0 0 0 0 0 0 0 0 0 0 0 127 0" result="hardAlpha"/>
<feOffset dy="4"/>
<feGaussianBlur stdDeviation="2"/>
<feComposite in2="hardAlpha" operator="out"/>
<feColorMatrix type="matrix" values="0 0 0 0 0.566667 0 0 0 0 0.566667 0 0 0 0 0.566667 0 0 0 0.25 0"/>
<feBlend mode="normal" in2="BackgroundImageFix" result="effect1_dropShadow"/>
<feBlend mode="normal" in="SourceGraphic" in2="effect1_dropShadow" result="shape"/>
</filter>
<filter id="filter2_d" x="1152.04" y="710.826" width="37.3228" height="37.3697" filterUnits="userSpaceOnUse" color-interpolation-filters="sRGB">
<feFlood flood-opacity="0" result="BackgroundImageFix"/>
<feColorMatrix in="SourceAlpha" type="matrix" values="0 0 0 0 0 0 0 0 0 0 0 0 0 0 0 0 0 0 127 0" result="hardAlpha"/>
<feOffset dy="4"/>
<feGaussianBlur stdDeviation="2"/>
<feComposite in2="hardAlpha" operator="out"/>
<feColorMatrix type="matrix" values="0 0 0 0 0.566667 0 0 0 0 0.566667 0 0 0 0 0.566667 0 0 0 0.25 0"/>
<feBlend mode="normal" in2="BackgroundImageFix" result="effect1_dropShadow"/>
<feBlend mode="normal" in="SourceGraphic" in2="effect1_dropShadow" result="shape"/>
</filter>
<filter id="filter3_d" x="460.371" y="653.53" width="47.3268" height="34.1623" filterUnits="userSpaceOnUse" color-interpolation-filters="sRGB">
<feFlood flood-opacity="0" result="BackgroundImageFix"/>
<feColorMatrix in="SourceAlpha" type="matrix" values="0 0 0 0 0 0 0 0 0 0 0 0 0 0 0 0 0 0 127 0" result="hardAlpha"/>
<feOffset dy="4"/>
<feGaussianBlur stdDeviation="2"/>
<feComposite in2="hardAlpha" operator="out"/>
<feColorMatrix type="matrix" values="0 0 0 0 0.566667 0 0 0 0 0.566667 0 0 0 0 0.566667 0 0 0 0.25 0"/>
<feBlend mode="normal" in2="BackgroundImageFix" result="effect1_dropShadow"/>
<feBlend mode="normal" in="SourceGraphic" in2="effect1_dropShadow" result="shape"/>
</filter>
<filter id="filter4_d" x="668.812" y="716.094" width="38.3482" height="36.479" filterUnits="userSpaceOnUse" color-interpolation-filters="sRGB">
<feFlood flood-opacity="0" result="BackgroundImageFix"/>
<feColorMatrix in="SourceAlpha" type="matrix" values="0 0 0 0 0 0 0 0 0 0 0 0 0 0 0 0 0 0 127 0" result="hardAlpha"/>
<feOffset dy="4"/>
<feGaussianBlur stdDeviation="2"/>
<feComposite in2="hardAlpha" operator="out"/>
<feColorMatrix type="matrix" values="0 0 0 0 0.566667 0 0 0 0 0.566667 0 0 0 0 0.566667 0 0 0 0.25 0"/>
<feBlend mode="normal" in2="BackgroundImageFix" result="effect1_dropShadow"/>
<feBlend mode="normal" in="SourceGraphic" in2="effect1_dropShadow" result="shape"/>
</filter>
<linearGradient id="paint0_linear" x1="1207.13" y1="575.311" x2="1310.91" y2="675.303" gradientUnits="userSpaceOnUse">
<stop stop-color="#EFEFEF" stop-opacity="0.824594"/>
<stop offset="1" stop-color="#DBDBDB" stop-opacity="0.723057"/>
</linearGradient>
<linearGradient id="paint1_linear" x1="640.325" y1="741.081" x2="552.168" y2="726.533" gradientUnits="userSpaceOnUse">
<stop stop-color="#F4F4F4"/>
<stop offset="1" stop-color="#E5E5E5"/>
</linearGradient>
<linearGradient id="paint2_linear" x1="560.522" y1="706.884" x2="569.56" y2="724.249" gradientUnits="userSpaceOnUse">
<stop stop-color="#F7F7F7"/>
<stop offset="1" stop-color="#EDEDED"/>
</linearGradient>
<linearGradient id="paint3_linear" x1="562.814" y1="706.091" x2="571.393" y2="726.889" gradientUnits="userSpaceOnUse">
<stop stop-color="#FCE698"/>
<stop offset="1" stop-color="#F7C85F"/>
</linearGradient>
<linearGradient id="paint4_linear" x1="657.363" y1="736.25" x2="639.475" y2="743.855" gradientUnits="userSpaceOnUse">
<stop stop-color="#F4F4F4"/>
<stop offset="1" stop-color="#E5E5E5"/>
</linearGradient>
</defs>
</svg>
