<svg width="375" height="478" viewBox="0 0 375 478" fill="none" xmlns="http://www.w3.org/2000/svg">
<mask id="mask0" mask-type="alpha" maskUnits="userSpaceOnUse" x="0" y="0" width="375" height="478">
<rect width="375" height="478" fill="#009191"/>
</mask>
<g mask="url(#mask0)">
<rect width="375" height="478" fill="#009191"/>
<circle cx="61" cy="75" r="5" fill="#FBCB67"/>
<circle cx="192" cy="115" r="5" fill="#FBCB67"/>
<circle cx="259" cy="79" r="5" fill="white"/>
<circle cx="56" cy="202" r="4" fill="white"/>
<circle cx="344" cy="322" r="5" fill="#FBCB67"/>
<circle cx="2" cy="111" r="22" fill="#99D7D7"/>
<circle cx="321" cy="225" r="6" fill="#99D7D7"/>
<circle cx="362" cy="155" r="5" fill="white"/>
<circle cx="102" cy="132" r="16" fill="#DB6F70"/>
<circle cx="241" cy="341" r="4" fill="white"/>
<circle cx="38" cy="293" r="7" fill="#FBCB67"/>
<circle cx="10" cy="235" r="4" fill="#DB6F70"/>
<path d="M157.315 250.886C163.318 259.149 161.462 270.868 153.199 276.872C144.936 282.876 122.444 288.846 116.44 280.583C110.437 272.32 123.065 252.774 131.328 246.77C139.592 240.766 151.184 242.602 157.315 250.886Z" fill="#F7C85F"/>
<path d="M136.603 244.106L136.482 244.871C134.382 258.129 143.491 270.68 156.735 272.778L157.244 272.858C161.9 266.539 162.127 257.688 157.198 250.896C152.503 244.272 144.026 241.753 136.603 244.106Z" fill="#CE9A32"/>
<path d="M201.083 216.854C219.414 242.079 218.843 273.708 194.943 291.069L183.583 299.321C159.683 316.682 181.793 269.406 163.463 244.182C145.132 218.957 93.1815 225.479 117.229 208.011L128.589 199.759C152.49 182.398 182.753 191.63 201.083 216.854Z" fill="#EB676C"/>
<mask id="mask1" mask-type="alpha" maskUnits="userSpaceOnUse" x="132" y="132" width="156" height="156">
<path d="M284.602 156.169C290.176 163.842 280.589 205.412 233.501 239.738C202.831 261.909 184.672 268.565 184.672 268.565C165.071 277.734 157.828 268.23 148.394 255.246C138.961 242.261 132.033 232.416 146.938 216.626C146.938 216.626 159.027 201.305 189.59 178.987C236.657 144.789 279.048 148.369 284.602 156.169Z" fill="white"/>
</mask>
<g mask="url(#mask1)">
<path d="M284.602 156.169C290.176 163.842 280.589 205.412 233.501 239.738C202.831 261.909 184.672 268.565 184.672 268.565C165.071 277.734 157.828 268.23 148.394 255.246C138.961 242.261 132.033 232.416 146.938 216.626C146.938 216.626 159.027 201.305 189.59 178.987C236.657 144.789 279.048 148.369 284.602 156.169Z" fill="#FBDBD0"/>
</g>
<path d="M192.578 263.93C172.154 273.364 164.571 263.543 154.818 250.114C144.958 236.536 137.817 226.394 153.352 209.917L155.746 207.162C149.71 213.128 146.94 216.607 146.94 216.607C132.036 232.4 138.962 242.247 148.394 255.234C157.825 268.221 165.087 277.599 184.666 268.554C184.666 268.554 193.268 265.346 208.691 256.165C198.264 261.827 192.578 263.93 192.578 263.93Z" fill="#ECC0B0"/>
<path d="M192.091 225.726C194.769 229.415 186.862 239.785 168.866 252.865C150.871 265.946 140.783 268.658 138.124 264.841C135.445 261.153 141.013 252.371 159.008 239.291C177.131 226.23 189.305 221.89 192.091 225.726Z" fill="#F26C4F"/>
<path d="M245.128 153.15C244.922 161.866 248.072 171.635 254.392 180.34C259.982 187.884 266.933 193.425 274.161 196.397C285.871 176.838 287.776 160.689 284.583 156.135C281.497 151.729 266.323 148.673 245.128 153.15Z" fill="#EB676C"/>
<path d="M218.347 224.211C229.005 225.9 239.125 217.929 240.949 206.41C242.774 194.89 235.613 184.183 224.954 182.495C214.296 180.806 204.176 188.777 202.352 200.296C200.527 211.816 207.688 222.523 218.347 224.211Z" fill="#009999" stroke="#4F5356" stroke-width="4"/>
<path fill-rule="evenodd" clip-rule="evenodd" d="M399.209 63.3505C399.209 89.2707 377.937 110.285 351.699 110.285C325.459 110.285 304.188 89.2707 304.188 63.3505C304.188 37.4282 325.459 16.4154 351.699 16.4154C377.937 16.4154 399.209 37.4282 399.209 63.3505Z" fill="#F7D6A7"/>
<path fill-rule="evenodd" clip-rule="evenodd" d="M372.652 79.6694C367.862 77.9695 365.667 72.0427 367.75 66.4327C369.832 60.8208 375.402 57.6495 380.192 59.3494C384.982 61.0492 387.178 66.974 385.094 72.586C383.013 78.1979 377.442 81.3692 372.652 79.6694Z" fill="#EFBA6E"/>
<path fill-rule="evenodd" clip-rule="evenodd" d="M340.652 49.2057L339.03 47.5978C324.556 61.9462 312.392 76.2345 303.798 88.5059C299.499 94.6437 296.094 100.277 293.73 105.206C292.55 107.674 291.628 109.965 290.992 112.079C290.359 114.194 290.002 116.13 290 117.926C290 119.052 290.144 120.129 290.488 121.141C290.659 121.648 290.882 122.135 291.161 122.592C291.439 123.051 291.774 123.479 292.16 123.859C292.544 124.241 292.975 124.572 293.436 124.849C294.13 125.264 294.889 125.552 295.677 125.735C296.47 125.919 297.291 125.998 298.146 126C299.956 125.996 301.909 125.642 304.044 125.014C305.91 124.462 307.914 123.696 310.053 122.729C313.795 121.034 317.953 118.73 322.452 115.88C329.195 111.606 336.697 106.105 344.594 99.6138C352.494 93.1227 360.786 85.6375 369.097 77.4001C383.57 63.0538 395.736 48.7655 404.33 36.4941C408.627 30.3542 412.034 24.7228 414.396 19.7919C415.578 17.3259 416.498 15.0342 417.134 12.9203C417.768 10.8052 418.124 8.86857 418.128 7.07312C418.126 5.94662 417.984 4.86952 417.64 3.8571C417.469 3.35182 417.246 2.86431 416.967 2.40635C416.688 1.94861 416.354 1.52144 415.968 1.13995C415.585 0.758458 415.153 0.426565 414.69 0.150675C413.998 -0.264295 413.239 -0.553204 412.449 -0.736304C411.659 -0.919403 410.835 -0.999793 409.982 -1C408.171 -0.99752 406.217 -0.643927 404.084 -0.0154783C402.218 0.535887 400.214 1.30383 398.075 2.2712C394.333 3.96435 390.173 6.26984 385.676 9.11945C378.931 13.3936 371.432 18.8934 363.532 25.3862C355.634 31.8773 347.34 39.3604 339.03 47.5978L342.274 50.8135C356.577 36.6346 370.825 24.7269 382.916 16.4108C388.958 12.253 394.462 8.99422 399.118 6.80529C401.442 5.71041 403.555 4.88399 405.393 4.34151C407.23 3.79696 408.794 3.54401 409.982 3.54649C410.729 3.54608 411.323 3.64341 411.761 3.79097C411.982 3.86454 412.165 3.94989 412.322 4.0433C412.478 4.13691 412.607 4.23838 412.726 4.35494C412.843 4.47149 412.945 4.60045 413.039 4.75544C413.181 4.98731 413.304 5.28118 413.395 5.66495C413.485 6.04768 413.541 6.51824 413.541 7.07312C413.544 8.25128 413.287 9.80122 412.739 11.6219C412.259 13.216 411.561 15.0187 410.654 16.9884C409.067 20.4367 406.84 24.3963 404.053 28.7154C399.873 35.2004 394.429 42.5016 387.978 50.2121C381.525 57.9225 374.067 66.0442 365.855 74.1865C351.552 88.3633 337.301 100.273 325.211 108.589C319.17 112.747 313.664 116.006 309.011 118.195C306.684 119.288 304.572 120.114 302.735 120.658C300.898 121.201 299.334 121.456 298.146 121.454C297.397 121.454 296.805 121.356 296.365 121.208C296.146 121.135 295.963 121.048 295.807 120.955C295.65 120.862 295.521 120.761 295.402 120.643C295.285 120.528 295.183 120.4 295.087 120.245C294.948 120.011 294.822 119.718 294.733 119.335C294.641 118.951 294.587 118.482 294.587 117.926C294.585 116.748 294.839 115.198 295.39 113.377C295.867 111.784 296.565 109.98 297.472 108.01C299.061 104.563 301.286 100.604 304.073 96.2825C308.256 89.7996 313.7 82.4984 320.15 74.7879C326.601 67.0754 334.059 58.9537 342.274 50.8135L340.652 49.2057Z" fill="#EDAA55"/>
<path fill-rule="evenodd" clip-rule="evenodd" d="M308.473 83.2819C308.986 84.4364 309.242 84.8213 309.755 85.7192L312.578 89.9526L378.462 24.579C376.769 23.3524 374.056 21.7675 370.469 20.2647C369.061 19.6749 365.879 18.6516 365.879 18.6516L307.062 79.4334L307.446 80.5879L308.473 83.2819Z" fill="#F7D6A7"/>
<path fill-rule="evenodd" clip-rule="evenodd" d="M367.823 29.7945C367.823 32.4916 364.84 34.6791 361.158 34.6791C357.477 34.6791 354.494 32.4916 354.494 29.7945C354.494 27.0975 357.477 24.9099 361.158 24.9099C364.84 24.9099 367.823 27.0975 367.823 29.7945Z" fill="#EFBA6E"/>
<path fill-rule="evenodd" clip-rule="evenodd" d="M326.171 89.2225C324.565 85.9676 327.089 81.6312 331.809 79.5404C336.528 77.4496 341.657 78.3924 343.262 81.6493C344.868 84.9061 342.344 89.2406 337.625 91.3334C332.905 93.4242 327.777 92.4793 326.171 89.2225Z" fill="#EFBA6E"/>
<path fill-rule="evenodd" clip-rule="evenodd" d="M354.419 47.55C354.986 50.3851 352.304 53.2902 348.428 54.0406C344.552 54.7889 340.95 53.101 340.381 50.2659C339.814 47.4328 342.496 44.5278 346.372 43.7773C350.248 43.0269 353.85 44.7169 354.419 47.55Z" fill="#EFBA6E"/>
<path fill-rule="evenodd" clip-rule="evenodd" d="M317.62 36.4854C318.406 36.9038 318.615 38.4314 318.082 39.898C317.551 41.3624 316.482 42.2123 315.696 41.7939C314.908 41.3755 314.701 39.8479 315.232 38.3835C315.763 36.9169 316.831 36.067 317.62 36.4854Z" fill="#EFBA6E"/>
<path fill-rule="evenodd" clip-rule="evenodd" d="M313.664 59.3332C317.087 59.6361 319.568 63.4856 319.202 67.9322C318.837 72.3789 315.766 75.7386 312.342 75.4357C308.919 75.1307 306.438 71.2812 306.804 66.8345C307.168 62.3879 310.24 59.0303 313.664 59.3332Z" fill="#EFBA6E"/>
<path fill-rule="evenodd" clip-rule="evenodd" d="M358.725 99.7987C359.569 100.206 359.896 101.428 359.459 102.527C359.02 103.626 357.983 104.188 357.14 103.781C356.298 103.373 355.968 102.151 356.408 101.053C356.845 99.9536 357.883 99.3914 358.725 99.7987Z" fill="#EFBA6E"/>
<path d="M242.919 431.888C242.238 431.193 241.827 431.453 241.628 431.626C241.429 431.799 241.121 432.111 241.782 432.879C246.944 438.876 247.615 444.756 247.721 448.543C247.82 452.09 245.544 455.048 240.553 457.508C239.68 457.938 239.32 458.995 239.749 459.869C240.178 460.743 241.233 461.103 242.106 460.673C248.224 457.658 251.383 453.551 251.24 448.442C251.104 443.574 248.997 438.094 242.919 431.888Z" fill="#EBEDED"/>
<path d="M242.7 454.129L244.248 453.236L247.908 459.574L246.36 460.468L242.7 454.129Z" fill="#EB676C"/>
<mask id="mask2" mask-type="alpha" maskUnits="userSpaceOnUse" x="264" y="474" width="19" height="33">
<path d="M281.305 474.916L281.135 474.954L280.993 474.995L280.708 475.079L280.177 475.276C279.828 475.414 279.499 475.582 279.155 475.736L278.181 476.287L277.272 476.888C276.969 477.095 276.677 477.32 276.4 477.56C276.107 477.783 275.826 478.02 275.559 478.271L274.768 479.034L274.374 479.421L274.012 479.833C272.078 482.016 270.466 484.464 269.225 487.102L268.736 488.074L268.326 489.063L267.501 491.097C267.251 491.775 267.025 492.472 266.801 493.139L266.436 494.165C266.322 494.512 266.197 494.851 266.114 495.198L265.56 497.272L265.279 498.314C265.179 498.672 265.09 499.009 265.028 499.363L264.167 503.576C263.912 504.976 264.826 506.324 266.223 506.611C267.62 506.898 268.989 506.019 269.305 504.632C269.324 504.534 269.337 504.434 269.347 504.337L269.357 504.201L269.708 500.17C269.73 499.833 269.79 499.505 269.832 499.171L269.978 498.172L270.272 496.174C270.311 495.838 270.394 495.514 270.461 495.187L270.672 494.207C270.816 493.551 270.941 492.889 271.099 492.239L271.654 490.315L271.93 489.346L272.276 488.411C273.121 485.892 274.322 483.506 275.844 481.327L276.122 480.916L276.426 480.528L277.06 479.779C277.273 479.508 277.51 479.304 277.731 479.062C277.955 478.82 278.191 478.591 278.44 478.375L279.184 477.732L279.978 477.16C280.249 476.992 280.525 476.814 280.806 476.662L281.232 476.448L281.442 476.359L281.544 476.312L281.626 476.28L281.713 476.247C282.079 476.134 282.283 475.747 282.169 475.382C282.055 475.017 281.666 474.813 281.301 474.926L281.305 474.916Z" fill="white"/>
</mask>
<g mask="url(#mask2)">
<path d="M277.035 473.356L276.881 473.437L276.755 473.514L276.501 473.669L276.039 473.996C275.738 474.22 275.464 474.467 275.171 474.706L274.373 475.489L273.651 476.305C273.411 476.584 273.188 476.876 272.982 477.181C272.757 477.471 272.547 477.773 272.353 478.085L271.788 479.027L271.507 479.502L271.264 479.994C269.961 482.603 269.037 485.384 268.522 488.254L268.301 489.319L268.16 490.381L267.89 492.559C267.824 493.278 267.786 494.01 267.742 494.713L267.656 495.798C267.635 496.163 267.602 496.523 267.612 496.879L267.614 499.025L267.612 500.105C267.607 500.477 267.609 500.825 267.641 501.183L267.899 505.476C268.016 506.894 269.247 507.959 270.671 507.875C272.095 507.791 273.19 506.587 273.135 505.166C273.129 505.066 273.115 504.967 273.1 504.87L273.074 504.736L272.37 500.752C272.304 500.421 272.277 500.088 272.231 499.755L272.114 498.752L271.88 496.746C271.831 496.411 271.827 496.077 271.808 495.743L271.758 494.742C271.728 494.072 271.676 493.399 271.661 492.731L271.699 490.728L271.715 489.722L271.807 488.729C271.971 486.077 272.514 483.462 273.42 480.963L273.583 480.493L273.775 480.04L274.194 479.152C274.329 478.835 274.506 478.578 274.657 478.286C274.81 477.995 274.979 477.712 275.163 477.439L275.716 476.626L276.335 475.867C276.554 475.635 276.773 475.391 277.005 475.172L277.361 474.855L277.541 474.715L277.628 474.643L277.699 474.591L277.775 474.537C278.098 474.333 278.195 473.906 277.991 473.583C277.786 473.26 277.358 473.164 277.035 473.367L277.035 473.356Z" fill="#EBEDED"/>
</g>
<mask id="mask3" mask-type="alpha" maskUnits="userSpaceOnUse" x="257" y="368" width="92" height="119">
<path d="M345.807 407.329L341.265 411.481C342.648 418.315 342.776 425.343 341.643 432.221L347.9 437.257C347.9 437.257 349.728 443.857 341.078 453.81C340.127 454.905 337.178 453.969 334.538 452.806C332.083 457.265 329.057 461.383 325.538 465.057C326.156 468.577 326.694 472.803 326.071 474.18C324.359 477.951 313.058 484.103 313.058 484.103L304.587 478.049C298.681 479.787 292.426 479.973 286.425 478.589L282.009 486.424C282.009 486.424 262.061 478.495 260.002 471.642C259.304 469.327 266.548 468.763 267.456 466.584C257.257 454.194 254.026 434.662 260.563 415.63C266.629 397.957 279.6 385.141 293.934 380.629L294.653 368.423C294.653 368.423 312.724 367.035 321.026 374.288C322.571 375.64 322.834 379.992 322.732 383.656C325.928 385.559 326.307 385.156 328.785 387.965C330.282 386.571 334.494 388.021 336.275 388.504C344.983 390.869 345.807 407.329 345.807 407.329Z" fill="white"/>
</mask>
<g mask="url(#mask3)">
<path d="M345.807 407.329L341.265 411.481C342.648 418.315 342.776 425.343 341.643 432.221L347.9 437.257C347.9 437.257 349.728 443.857 341.078 453.81C340.127 454.905 337.178 453.969 334.538 452.806C332.083 457.265 329.057 461.383 325.538 465.057C326.156 468.577 326.694 472.803 326.071 474.18C324.359 477.951 313.058 484.103 313.058 484.103L304.587 478.049C298.681 479.787 292.426 479.973 286.425 478.589L282.009 486.424C282.009 486.424 262.061 478.495 260.002 471.642C259.304 469.327 266.548 468.763 267.456 466.584C257.257 454.194 254.026 434.662 260.563 415.63C266.629 397.957 279.6 385.141 293.934 380.629L294.653 368.423C294.653 368.423 312.724 367.035 321.026 374.288C322.571 375.64 322.834 379.992 322.732 383.656C325.928 385.559 326.307 385.156 328.785 387.965C330.282 386.571 334.494 388.021 336.275 388.504C344.983 390.869 345.807 407.329 345.807 407.329Z" fill="#4F5356"/>
<path fill-rule="evenodd" clip-rule="evenodd" d="M336.699 431.439L338.288 433.106C335.007 441.76 331.855 446.381 328.833 446.968C325.811 447.556 324.236 447.802 324.107 447.707C319.751 454.368 316.707 457.897 314.973 458.292C315.901 460.452 316.498 462.675 316.767 464.961L327.198 469.918L335.999 454.248L343.05 454.921L351.71 436.613L336.699 431.439Z" fill="#EBEDED"/>
<path fill-rule="evenodd" clip-rule="evenodd" d="M328.518 469.471L314.976 464.096L248.328 471.196L292.826 493.15L333.352 475.072L328.518 469.471Z" fill="#EBEDED"/>
</g>
<mask id="mask4" mask-type="alpha" maskUnits="userSpaceOnUse" x="240" y="368" width="99" height="112">
<path d="M334.838 402.784L331.199 406.114C332.536 412.684 332.693 419.44 331.663 426.064L338.288 433.106C338.288 433.106 335.138 447.283 331.17 449.132C329.768 449.785 326.621 448.753 324.107 447.707C321.868 451.62 319.178 455.256 316.091 458.539C316.535 460.932 317.399 466.328 316.528 468.225C314.827 471.937 303.532 478.094 303.532 478.094L294.926 471.763C289.626 473.292 284.042 473.561 278.618 472.548L274.725 479.456C274.725 479.456 262.119 475.188 260.108 471.558C259.161 469.85 259.656 465.498 260.194 462.323C255.709 457.565 252.39 451.517 250.434 444.725L241.413 440.617C241.413 440.617 239.437 424.076 242.932 420.421C243.962 419.343 246.929 419.165 249.387 419.226C250.422 413.623 252.216 408.19 254.719 403.075L248.375 395.916C248.375 395.916 257.042 382.918 261.782 382.039C263.386 381.727 266.386 383.155 268.935 384.614C273.435 380.749 278.641 377.796 284.264 375.917L286.222 369.613C286.222 369.613 305.415 365.997 309.712 370.005C310.994 371.214 311.361 374.647 311.378 377.896C315.744 380.206 319.578 383.409 322.63 387.297C325.603 386.429 328.962 385.752 330.505 386.763C333.98 389.015 334.838 402.784 334.838 402.784Z" fill="white"/>
</mask>
<g mask="url(#mask4)">
<path d="M334.838 402.784L331.199 406.114C332.536 412.684 332.693 419.44 331.663 426.064L338.288 433.106C338.288 433.106 335.138 447.283 331.17 449.132C329.768 449.785 326.621 448.753 324.107 447.707C321.868 451.62 319.178 455.256 316.091 458.539C316.535 460.932 317.399 466.328 316.528 468.225C314.827 471.937 303.532 478.094 303.532 478.094L294.926 471.763C289.626 473.292 284.042 473.561 278.618 472.548L274.725 479.456C274.725 479.456 262.119 475.188 260.108 471.558C259.161 469.85 259.656 465.498 260.194 462.323C255.709 457.565 252.39 451.517 250.434 444.725L241.413 440.617C241.413 440.617 239.437 424.076 242.932 420.421C243.962 419.343 246.929 419.165 249.387 419.226C250.422 413.623 252.216 408.19 254.719 403.075L248.375 395.916C248.375 395.916 257.042 382.918 261.782 382.039C263.386 381.727 266.386 383.155 268.935 384.614C273.435 380.749 278.641 377.796 284.264 375.917L286.222 369.613C286.222 369.613 305.415 365.997 309.712 370.005C310.994 371.214 311.361 374.647 311.378 377.896C315.744 380.206 319.578 383.409 322.63 387.297C325.603 386.429 328.962 385.752 330.505 386.763C333.98 389.015 334.838 402.784 334.838 402.784Z" fill="#6D7278"/>
<path fill-rule="evenodd" clip-rule="evenodd" d="M253.539 419.334L249.741 419.332C240.941 417.941 240.186 423.606 240.184 428.882C240.184 429.049 240.188 429.216 240.197 429.383L240.807 441.093L248.892 444.573C253.522 454.172 256.306 458.972 257.244 458.972C258.181 458.973 277.837 460.969 316.21 464.961L320.013 466.678C322.506 467.803 325.444 467.11 327.172 464.991C327.179 464.982 327.186 464.973 327.194 464.965C332.287 458.999 334.881 454.858 334.881 453.983C334.881 453.579 335.226 453.414 335.918 453.489C339.702 453.896 343.337 451.892 345.013 448.475L346.246 445.959C348.447 441.471 346.593 436.049 342.105 433.848C342.003 433.798 341.899 433.749 341.795 433.703L336.7 431.439C331.987 434.053 325.152 436.116 316.196 437.629C302.761 439.898 298.004 441.505 285.351 440.111C272.697 438.718 271.416 437.479 263.215 431.794C257.747 428.003 254.522 423.85 253.539 419.334Z" fill="white"/>
<path fill-rule="evenodd" clip-rule="evenodd" d="M318.059 464.663L312.581 480.27L267.607 481.79L253.721 471.348L257.244 458.674L318.059 464.663Z" fill="white"/>
</g>
<path d="M310.915 379.781C310.742 379.408 310.544 379.046 310.322 378.699C310.105 378.36 309.869 378.033 309.615 377.72C309.086 377.069 308.471 376.493 307.787 376.009C307.428 375.758 307.053 375.533 306.662 375.336C306.461 375.242 306.253 375.162 306.046 375.076C305.94 375.036 305.836 374.99 305.731 374.954L305.404 374.862C304.527 374.61 303.615 374.497 302.702 374.528C302.061 374.527 301.467 374.87 301.146 375.427C300.825 375.983 300.824 376.67 301.145 377.228C301.466 377.786 302.059 378.13 302.7 378.131C302.839 378.132 302.978 378.116 303.112 378.083L303.183 378.069C303.724 377.911 304.286 377.835 304.85 377.844L305.067 377.844C305.138 377.848 305.208 377.862 305.28 377.873C305.421 377.895 305.571 377.904 305.713 377.933C306.008 377.996 306.298 378.081 306.581 378.187C307.179 378.415 307.742 378.726 308.253 379.112C308.52 379.312 308.776 379.527 309.021 379.755C309.257 379.982 309.481 380.222 309.69 380.474L309.742 380.538C309.947 380.861 310.375 380.957 310.698 380.752C311.02 380.546 311.115 380.117 310.91 379.793L310.915 379.781Z" fill="#363637"/>
<path d="M302.745 426.621C302.891 426.698 303.033 426.782 303.171 426.873C303.316 426.969 303.456 427.072 303.589 427.184C303.842 427.395 304.062 427.641 304.244 427.915C304.415 428.161 304.539 428.436 304.61 428.727C304.677 429.004 304.703 429.29 304.685 429.575L304.693 429.616C304.676 430.064 304.906 430.486 305.294 430.716C305.681 430.946 306.164 430.948 306.554 430.721C306.944 430.495 307.18 430.075 307.169 429.626C307.169 429.544 307.161 429.462 307.147 429.381C307.058 428.857 306.889 428.349 306.646 427.876C306.41 427.41 306.094 426.989 305.712 426.632C305.357 426.294 304.956 426.006 304.521 425.777C304.092 425.552 303.639 425.378 303.169 425.26C302.812 425.135 302.419 425.313 302.279 425.664C302.14 426.014 302.304 426.411 302.651 426.561L302.745 426.621Z" fill="#363637"/>
<path d="M272.636 424.107C272.799 423.926 272.975 423.758 273.163 423.603C273.345 423.452 273.544 423.323 273.756 423.22C273.939 423.129 274.134 423.066 274.335 423.035C274.502 423.014 274.672 423.022 274.837 423.06C275.514 423.182 276.157 422.724 276.272 422.036C276.388 421.348 275.933 420.692 275.256 420.57C275.124 420.545 274.989 420.543 274.857 420.564L274.761 420.583C274.337 420.641 273.926 420.769 273.545 420.964C273.205 421.147 272.891 421.376 272.612 421.644C272.354 421.896 272.123 422.174 271.92 422.473C271.722 422.769 271.551 423.081 271.409 423.408C271.233 423.732 271.333 424.141 271.639 424.346C271.944 424.551 272.351 424.484 272.574 424.191L272.636 424.107Z" fill="#363637"/>
<path d="M287.448 378.992C287.66 378.745 287.888 378.511 288.128 378.29C288.374 378.065 288.633 377.854 288.904 377.659C289.423 377.284 289.993 376.981 290.596 376.76C290.878 376.657 291.169 376.576 291.464 376.518C291.61 376.49 291.76 376.481 291.901 376.461C291.972 376.447 292.043 376.433 292.114 376.437L292.333 376.436C292.898 376.43 293.46 376.511 293.999 376.676L294.062 376.691C295.026 376.931 296.008 376.353 296.255 375.399C296.503 374.446 295.922 373.478 294.958 373.238C294.82 373.203 294.678 373.185 294.536 373.185C293.621 373.147 292.704 373.25 291.82 373.49L291.485 373.579C291.376 373.601 291.275 373.659 291.157 373.702C290.947 373.785 290.737 373.861 290.536 373.952C290.141 374.141 289.761 374.361 289.399 374.607C288.706 375.078 288.082 375.64 287.544 376.279C287.284 376.589 287.042 376.913 286.82 377.25C286.593 377.591 286.39 377.946 286.213 378.314C286.004 378.631 286.093 379.055 286.413 379.261C286.733 379.467 287.163 379.376 287.372 379.059L287.448 378.992Z" fill="#363637"/>
<path d="M272.75 423.05C273.55 424.389 274.507 425.627 275.602 426.738C276.691 427.868 277.883 428.894 279.162 429.803C281.767 431.685 284.745 432.988 287.896 433.624L288.493 433.743C288.695 433.777 288.896 433.8 289.097 433.828L289.703 433.902C289.905 433.932 290.108 433.95 290.312 433.955L291.534 434.015L292.759 433.979C292.964 433.974 293.167 433.959 293.37 433.934L293.98 433.868L294.585 433.792L295.185 433.675C295.583 433.598 295.981 433.521 296.374 433.416L297.536 433.072C300.537 432.053 303.237 430.301 305.39 427.977C305.516 427.837 305.507 427.623 305.369 427.495C305.271 427.406 305.13 427.381 305.007 427.432C302.273 428.705 299.569 429.741 296.821 430.208C295.464 430.443 294.088 430.549 292.711 430.525C291.344 430.496 289.982 430.336 288.646 430.047C285.914 429.435 283.278 428.46 280.806 427.149C278.21 425.787 275.709 424.251 273.322 422.551C273.174 422.445 272.973 422.457 272.839 422.58C272.705 422.702 272.674 422.901 272.766 423.057L272.75 423.05Z" fill="#363637"/>
<path d="M300.063 405.936C294.573 404.045 291.923 397.286 294.143 390.838C296.363 384.389 302.614 380.694 308.103 382.585C313.593 384.475 316.243 391.234 314.023 397.683C311.802 404.131 305.552 407.826 300.063 405.936Z" fill="white"/>
<path d="M298.573 398.344C296.102 397.493 295.058 394.02 296.24 390.586C297.422 387.152 300.384 385.058 302.855 385.908C305.325 386.759 306.37 390.232 305.187 393.666C304.005 397.1 301.043 399.194 298.573 398.344Z" fill="#363637"/>
<path d="M284.4 402.677C279.673 401.05 277.488 394.949 279.519 389.051C281.55 383.154 287.027 379.692 291.754 381.319C296.48 382.947 298.665 389.047 296.635 394.945C294.604 400.843 289.126 404.304 284.4 402.677Z" fill="white"/>
<path d="M282.906 395.394C280.715 394.325 280.169 390.937 281.687 387.826C283.204 384.715 286.21 383.059 288.401 384.128C290.592 385.196 291.138 388.585 289.621 391.696C288.103 394.807 285.097 396.462 282.906 395.394Z" fill="#363637"/>
<mask id="mask5" mask-type="alpha" maskUnits="userSpaceOnUse" x="338" y="440" width="14" height="31">
<path d="M350.143 441.173C350.893 440.553 351.275 440.855 351.454 441.048C351.634 441.241 351.908 441.583 351.17 442.277C345.409 447.702 343.075 453.369 342.573 457.124C342.104 460.641 344.058 463.821 348.765 466.789C349.588 467.308 349.835 468.397 349.317 469.222C348.8 470.046 347.713 470.294 346.89 469.775C341.12 466.137 338.408 461.722 339.084 456.656C339.728 451.829 343.449 446.709 350.143 441.173Z" fill="white"/>
</mask>
<g mask="url(#mask5)">
<path d="M340.845 441.06C341.087 440.118 341.573 440.137 341.832 440.187C342.09 440.238 342.513 440.354 342.325 441.349C340.852 449.124 342.295 455.081 344.096 458.413C345.784 461.535 349.234 462.959 354.787 462.593C355.758 462.53 356.598 463.265 356.663 464.237C356.729 465.208 355.995 466.047 355.025 466.111C348.218 466.559 343.429 464.582 340.999 460.086C338.682 455.802 338.683 449.473 340.845 441.06Z" fill="#EBEDED"/>
<path fill-rule="evenodd" clip-rule="evenodd" d="M351.769 461.594L349.875 461.19L348.451 467.911L350.345 468.315L351.769 461.594Z" fill="#EB676C"/>
</g>
<path d="M356.75 470.438C360.485 472.342 364.813 471.334 366.416 468.188C368.019 465.042 366.291 460.948 362.555 459.045C358.819 457.142 354.491 458.149 352.888 461.295C351.285 464.441 353.014 468.535 356.75 470.438Z" fill="white"/>
<path d="M365.426 466.468C366.888 467.213 368.543 466.894 369.123 465.754C369.704 464.615 368.989 463.088 367.528 462.343C366.066 461.598 364.41 461.918 363.83 463.057C363.25 464.196 363.964 465.724 365.426 466.468Z" fill="white"/>
<mask id="mask6" mask-type="alpha" maskUnits="userSpaceOnUse" x="314" y="474" width="13" height="36">
<path d="M317.001 475.183L316.891 475.317L316.804 475.438L316.632 475.678L316.336 476.16C316.146 476.484 315.991 476.818 315.815 477.152L315.388 478.184L315.044 479.217C314.933 479.567 314.842 479.923 314.772 480.284C314.679 480.639 314.604 480.999 314.548 481.362L314.397 482.449L314.325 482.997L314.294 483.544C314.119 486.455 314.36 489.377 315.011 492.221L315.226 493.289L315.513 494.322L316.118 496.433C316.339 497.122 316.592 497.811 316.827 498.475L317.172 499.508C317.297 499.853 317.407 500.197 317.556 500.521L318.399 502.498L318.821 503.493C318.963 503.837 319.101 504.158 319.27 504.475L321.191 508.329C321.854 509.589 323.404 510.092 324.681 509.46C325.958 508.828 326.493 507.293 325.886 506.004C325.841 505.915 325.789 505.829 325.737 505.746L325.661 505.632L323.451 502.236C323.261 501.957 323.105 501.661 322.932 501.371L322.432 500.493L321.43 498.736C321.254 498.447 321.119 498.141 320.97 497.841L320.531 496.939C320.241 496.332 319.93 495.733 319.654 495.124L318.904 493.264L318.524 492.33L318.219 491.38C317.33 488.873 316.805 486.252 316.658 483.598L316.623 483.102L316.623 482.609L316.66 481.628C316.66 481.284 316.722 480.977 316.746 480.65C316.773 480.322 316.818 479.996 316.88 479.673L317.069 478.709L317.341 477.769C317.451 477.469 317.558 477.16 317.685 476.867L317.889 476.437L317.999 476.237L318.051 476.137L318.095 476.062L318.144 475.982C318.362 475.669 318.283 475.238 317.969 475.02C317.654 474.802 317.222 474.88 317.004 475.193L317.001 475.183Z" fill="white"/>
</mask>
<g mask="url(#mask6)">
<path d="M320.025 474.89L319.893 475.003L319.787 475.107L319.575 475.314L319.2 475.737C318.957 476.023 318.746 476.324 318.515 476.623L317.915 477.566L317.397 478.523C317.227 478.848 317.075 479.184 316.944 479.526C316.79 479.86 316.654 480.201 316.536 480.549L316.199 481.594L316.033 482.121L315.907 482.654C315.229 485.491 314.959 488.41 315.106 491.324L315.132 492.413L315.235 493.48L315.465 495.664C315.563 496.381 315.692 497.103 315.808 497.798L315.969 498.876C316.032 499.236 316.081 499.595 316.171 499.939L316.658 502.033L316.901 503.086C316.981 503.45 317.061 503.789 317.173 504.131L318.395 508.26C318.829 509.616 320.269 510.38 321.636 509.98C323.003 509.579 323.796 508.16 323.422 506.786C323.393 506.69 323.357 506.596 323.321 506.506L323.266 506.381L321.678 502.652C321.54 502.344 321.438 502.026 321.318 501.711L320.978 500.759L320.296 498.855C320.173 498.539 320.093 498.214 319.999 497.893L319.724 496.928C319.543 496.281 319.341 495.637 319.174 494.988L318.759 493.027L318.546 492.041L318.412 491.052C317.972 488.429 317.909 485.757 318.226 483.117L318.277 482.623L318.363 482.138L318.57 481.178C318.629 480.839 318.744 480.548 318.824 480.23C318.907 479.912 319.008 479.598 319.126 479.29L319.479 478.374L319.91 477.496C320.071 477.22 320.23 476.933 320.406 476.667L320.681 476.279L320.824 476.101L320.892 476.012L320.95 475.945L321.011 475.876C321.28 475.605 321.278 475.167 321.006 474.897C320.734 474.628 320.295 474.63 320.026 474.901L320.025 474.89Z" fill="#EBEDED"/>
</g>
<path fill-rule="evenodd" clip-rule="evenodd" d="M274.162 446.92L271.222 446.454C270.409 446.325 269.645 446.879 269.516 447.693C269.516 447.693 269.516 447.693 269.516 447.693C269.388 448.507 269.943 449.27 270.756 449.399L273.696 449.866C274.509 449.994 275.272 449.44 275.401 448.627C275.401 448.627 275.401 448.626 275.401 448.626C275.53 447.813 274.975 447.049 274.162 446.92Z" fill="#009191"/>
<path fill-rule="evenodd" clip-rule="evenodd" d="M273.416 450.946L270.477 450.48C269.664 450.351 268.9 450.906 268.771 451.719C268.771 451.719 268.771 451.719 268.771 451.719C268.642 452.533 269.197 453.297 270.011 453.426L272.95 453.892C273.764 454.021 274.527 453.466 274.656 452.653C274.656 452.653 274.656 452.653 274.656 452.653C274.785 451.839 274.23 451.075 273.416 450.946Z" fill="#FF6666"/>
<path fill-rule="evenodd" clip-rule="evenodd" d="M272.821 454.973L269.881 454.507C269.068 454.378 268.304 454.932 268.175 455.746C268.175 455.746 268.175 455.746 268.175 455.746C268.047 456.56 268.602 457.323 269.415 457.452L272.355 457.919C273.168 458.047 273.932 457.493 274.06 456.68C274.06 456.679 274.061 456.679 274.061 456.679C274.189 455.866 273.634 455.102 272.821 454.973Z" fill="#FFCC66"/>
<path opacity="0.260209" fill-rule="evenodd" clip-rule="evenodd" d="M245.036 419.796C244.183 417.013 243.756 414.451 243.756 412.108C243.756 381.121 268.835 356 299.772 356C330.71 356 355.789 381.121 355.789 412.108C355.789 418.39 353.26 426.89 348.201 437.606C343.93 433.797 340.544 432.328 338.044 433.197C318.593 439.96 295.844 442.16 285.171 441.363C274.095 440.536 257.84 433.443 252.98 420.482C252.658 419.624 250.01 419.396 245.036 419.796Z" fill="url(#paint0_linear)"/>
<path d="M256.882 389.118C256.437 389.873 255.818 391.028 255.025 392.585M271.426 373.261C269.581 374.603 267.776 376.108 266.013 377.775C263.368 380.274 261.052 382.931 259.064 385.745L271.426 373.261Z" stroke="white" stroke-opacity="0.697628" stroke-width="3" stroke-linecap="round" stroke-linejoin="round"/>
<path fill-rule="evenodd" clip-rule="evenodd" d="M306.193 447.789C297.493 447.275 290.968 446.713 286.618 446.1C282.267 445.488 276.106 444.266 268.135 442.434L265.751 459.417C273.683 461.255 279.853 462.485 284.261 463.105C288.668 463.725 295.184 464.28 303.809 464.771L306.193 447.789Z" stroke="#EBEDED" stroke-width="2" stroke-linejoin="round"/>
<mask id="mask7" mask-type="alpha" maskUnits="userSpaceOnUse" x="276" y="448" width="26" height="13">
<path d="M301.965 448.504C294.618 448.91 289.489 449.115 286.577 449.121C285.199 449.124 281.905 449.14 276.693 449.17L276.774 460.384C282.439 460.569 285.971 460.66 287.372 460.657C290.322 460.651 295.159 460.324 301.882 459.674L301.965 448.504Z" fill="white"/>
</mask>
<g mask="url(#mask7)">
<path d="M302.76 450.555C295.44 449.807 290.342 449.208 287.464 448.758C286.104 448.545 282.847 448.046 277.695 447.26L276.021 458.349C281.587 459.417 285.062 460.06 286.445 460.276C289.36 460.732 294.188 461.165 300.931 461.575L302.76 450.555Z" fill="#E3E3E3"/>
<path opacity="0.30422" d="M276.594 450.538C276.509 450.45 276.368 450.447 276.279 450.531C276.19 450.616 276.187 450.755 276.272 450.843L276.468 451.042C276.501 451.075 276.533 451.108 276.565 451.141L276.759 451.335L276.952 451.526C277.145 451.714 277.336 451.897 277.525 452.075L277.713 452.25C277.964 452.482 278.212 452.703 278.457 452.915L278.641 453.072C279.006 453.382 279.365 453.67 279.718 453.935L279.894 454.066C281.151 454.989 282.325 455.625 283.42 455.973C284.671 456.371 286.03 456.429 287.623 456.209C287.821 456.182 288.009 456.153 288.196 456.122L288.29 456.106L288.521 456.065L288.706 456.03L288.943 455.982L289.14 455.939L289.398 455.882L289.672 455.817L289.906 455.761L290.218 455.683L290.773 455.541L291.323 455.397L292.608 455.055L293.127 454.92L293.54 454.815L293.591 454.803C295.701 454.28 298.243 455.017 301.218 457.035L301.413 457.169C301.608 457.304 301.805 457.444 302.004 457.591C302.103 457.663 302.243 457.643 302.316 457.545C302.39 457.448 302.369 457.31 302.27 457.237C302.1 457.112 301.93 456.99 301.762 456.873L301.561 456.734C298.484 454.627 295.816 453.829 293.556 454.358L293.431 454.388L292.962 454.508L292.556 454.613L291.212 454.97L290.667 455.113L290.182 455.238L289.929 455.301L289.634 455.373L289.359 455.438L289.152 455.485L288.953 455.529L288.716 455.578L288.487 455.623L288.307 455.656L288.215 455.672L288.031 455.703L287.939 455.718C287.815 455.737 287.69 455.755 287.561 455.773C286.029 455.984 284.737 455.929 283.557 455.554C282.53 455.228 281.42 454.63 280.227 453.761L280.056 453.635C279.741 453.4 279.421 453.147 279.095 452.876L278.917 452.726C278.678 452.523 278.437 452.311 278.193 452.088L278.009 451.92C277.855 451.778 277.7 451.632 277.544 451.482L277.356 451.301C277.294 451.24 277.231 451.178 277.167 451.115L276.977 450.927L276.786 450.734C276.722 450.669 276.658 450.604 276.594 450.538Z" fill="#009191"/>
</g>
<path d="M43.4698 425.16C41.3065 426.807 32.7196 430.913 26.248 430.688C25.1168 430.649 24.1735 431.533 24.1411 432.663C24.1087 433.793 24.976 434.905 26.1307 434.78C33.1017 434.023 40.5578 430.233 43.8072 427.982C47.0566 425.732 45.6331 423.514 43.4698 425.16Z" fill="#EBEDED"/>
<path d="M12.8021 452.858C7.91771 453.027 3.84151 449.849 3.69764 445.76C3.55377 441.67 7.3967 438.218 12.2811 438.048C17.1654 437.879 21.2416 441.057 21.3855 445.147C21.5294 449.236 17.6865 452.689 12.8021 452.858Z" fill="white"/>
<path d="M5.57362 451.089C3.66231 451.155 2.07066 450.009 2.01856 448.528C1.96647 447.047 3.47366 445.793 5.38497 445.727C7.29628 445.661 8.88793 446.807 8.94003 448.288C8.99212 449.769 7.48493 451.023 5.57362 451.089Z" fill="white"/>
<path d="M62.9616 394L126.004 416.987L112.146 455.131L49.1038 432.143L62.9616 394Z" fill="#73524B"/>
<path d="M49.5482 477.681L49.3603 477.615L49.1967 477.569L48.8696 477.477L48.2346 477.344C47.812 477.265 47.3919 477.227 46.9637 477.167L45.6855 477.105L44.4401 477.131C44.0201 477.147 43.6016 477.186 43.1866 477.248C42.7685 477.285 42.3528 477.342 41.9411 477.421L40.7133 477.675L40.0971 477.807L39.4973 477.984C36.3028 478.908 33.2626 480.283 30.4686 482.065L29.4081 482.702L28.4133 483.404L26.3881 484.857C25.7368 485.357 25.0978 485.89 24.4778 486.395L23.5063 487.159C23.1861 487.424 22.8604 487.674 22.572 487.956L20.7853 489.613L19.8846 490.444C19.5713 490.727 19.2824 490.997 19.0096 491.299L15.6365 494.825C14.5469 496.015 14.624 497.864 15.81 498.987C16.9961 500.109 18.8563 500.095 19.9978 498.954C20.076 498.871 20.1479 498.783 20.216 498.696L20.3078 498.572L23.0745 494.911C23.2985 494.602 23.5546 494.322 23.7965 494.027L24.5401 493.156L26.0273 491.414C26.2679 491.116 26.5433 490.855 26.8058 490.581L27.6 489.767C28.1352 489.226 28.6549 488.664 29.1993 488.136L30.8973 486.624L31.748 485.861L32.6473 485.173C34.985 483.264 37.5888 481.701 40.3799 480.53L40.8982 480.304L41.4266 480.115L42.4946 479.78C42.8641 479.648 43.2176 479.597 43.5782 479.498C43.9411 479.401 44.3092 479.324 44.6809 479.267L45.7907 479.101L46.9076 479.033C47.2729 479.036 47.6478 479.032 48.0125 479.056L48.5552 479.109L48.8133 479.151L48.941 479.168L49.0401 479.187L49.1442 479.208C49.5675 479.321 49.9989 479.073 50.1078 478.653C50.2166 478.234 49.9617 477.802 49.5385 477.689L49.5482 477.681Z" fill="#EBEDED"/>
<path d="M121.537 446.63C120.924 448.134 120.226 449.602 119.554 451.081C116.07 450.867 107.859 450.743 105.422 450.821C105.875 449.575 106.329 448.325 106.765 447.073C107.985 443.423 109.176 439.763 110.38 436.116C110.583 435.559 111.307 435.176 110.851 434.76C111.73 434.355 111.515 434.947 112.394 434.542C113.481 434.038 114.483 433.355 114.738 432.231C114.96 431.236 114.65 430.378 113.589 429.823C113.828 429.486 114.521 427.61 114.675 427.237C115.874 424.34 117.038 421.427 118.208 418.52C118.29 418.229 118.423 417.955 118.6 417.712C119.868 416.579 122.203 400.38 122.203 400.38C123.131 401.039 124.164 401.526 125.259 401.822C126.339 401.599 127.858 400.278 128.576 399.452C129.252 398.669 129.287 397.968 128.829 397.181C128.608 396.785 128.26 396.451 128.044 396.049C127.926 395.749 127.844 395.434 127.8 395.11C128.724 393.221 129.66 391.339 130.568 389.444C130.823 388.889 131.042 388.317 131.223 387.733C131.628 386.497 131.484 386.269 130.256 386.242C128.83 386.221 127.435 386.122 126.273 385.18C124.352 383.637 123.186 381.75 123.403 378.975C123.549 377.043 124.493 375.563 125.428 374.036C125.775 373.465 126.147 372.965 125.982 372.289C123.513 371.954 122.995 371.445 122.44 368.942C121.933 366.59 122.843 364.73 124.454 363.107C124.619 363.066 132.613 359.266 133.233 358.084C128.319 371.608 137.833 371.927 137.833 371.927C137.325 372.594 136.859 373.294 136.438 374.023C135.441 376.042 135.883 380.839 137.996 382.881C139.514 384.343 145.241 385.846 145.241 385.846C145.241 385.846 123.151 442.66 121.537 446.63Z" fill="#48322D"/>
<path d="M64.3419 372.159C65.3932 369.638 66.6414 366.424 67.7251 363.915C68.9496 361.079 70.2325 358.264 71.4882 355.443C71.5721 355.212 71.6547 354.984 71.7613 354.761C73.1027 351.644 74.4474 348.527 75.7791 345.406C75.843 345.179 75.8843 344.947 75.9025 344.713C76.1739 343.411 76.3029 343.298 77.8057 343.198L78.2146 343.082L78.8921 343.235C78.9744 343.382 79.0246 343.607 79.1503 343.665C80.8031 344.424 82.4616 345.177 84.1402 345.875C86.5505 346.91 88.9746 347.908 91.3962 348.912C91.5063 348.952 91.6131 348.991 91.7125 349.05C93.9665 350.122 96.2218 351.191 98.4733 352.27C99.3913 352.71 100.301 353.174 101.214 353.628L104.261 355.13C104.844 355.654 104.978 356.552 104.581 357.276C104.002 358.467 95.2479 380.174 94.2798 382.406C94.0944 382.761 93.8753 383.097 93.6259 383.408C92.6252 383.902 64.2495 372.383 64.3419 372.159Z" fill="#72524B"/>
<path fill-rule="evenodd" clip-rule="evenodd" d="M62.2909 375.814C63.7914 376.415 64.9017 376.86 65.6217 377.148C74.8018 380.823 82.5852 382.325 87.3966 384.204C92.7741 386.303 94.699 387.526 93.1712 387.871L80.7931 416.98L51.0885 404.641L62.2909 375.814Z" fill="#72524B"/>
<path d="M124.499 438.951C123.372 442.203 105.904 490.436 104.276 494.512C102.99 495.034 93.4762 497.206 88.4308 498.765C93.0444 486.067 107.217 445.506 108.063 443.571C108.175 443.739 111.187 443.31 116.667 441.685C118.158 441.243 120.768 440.332 124.499 438.951Z" fill="#EBEDED"/>
<path d="M83.6948 384.043C81.7915 383.299 66.7136 377.496 62.4106 375.767C66.6993 376.47 66.1761 374.08 64.851 372.066C65.4442 371.992 72.9531 375.464 76.0725 376.54C80.2285 377.99 84.3538 379.525 88.4779 381.063C89.3746 381.39 92.8397 383.062 93.826 382.63C95.6386 383.674 95.915 385.637 94.3956 387.225C93.622 388.037 92.3632 387.601 90.1824 387.219C88.0519 385.673 87.3982 384.838 83.6948 384.043Z" fill="#5F4C48"/>
<path d="M104.152 354.917L101.114 353.419C100.204 352.966 99.2979 352.503 98.3828 352.064C96.1383 350.988 93.8901 349.923 91.6431 348.854C91.5366 348.815 91.4364 348.759 91.3279 348.716C88.9175 347.704 86.5008 346.71 84.0942 345.688C82.4271 344.975 80.7737 344.224 79.1198 343.484C78.9907 343.437 78.9446 343.202 78.8627 343.055C81.2471 342.884 83.625 342.711 85.9965 342.535C88.3397 342.363 90.6814 342.226 93.0206 341.975C94.4523 341.828 95.88 342.08 97.1601 342.704C98.8098 343.465 132.499 357.609 132.957 358.01C132.343 359.195 124.356 363 124.184 363.039C119.051 360.598 111.943 357.628 109.502 356.871C111.281 356.322 111.281 355.467 110.379 354.971C108.941 354.17 107.406 353.618 105.695 354.281C105.194 354.473 104.676 354.702 104.152 354.917Z" fill="#5D4C49"/>
<path d="M51.5557 404.962C55.1528 406.274 80.1068 416.641 81.0395 416.852C82.3553 419.291 81.1891 421.581 78.5056 421.806C78.6929 421.29 52.0943 410.166 50.3099 409.512C55.2244 408.733 54.3171 406.463 51.5557 404.962Z" fill="#5F4C48"/>
<path d="M78.0699 342.963L77.8417 343.02L78.0699 342.963Z" fill="#5D4C49"/>
<path d="M67.6914 458.334C68.897 459.415 68.8168 460.282 67.8788 461.482C66.1182 463.87 63.3883 465.242 60.5767 465.153C57.981 465.083 56.2866 462.309 57.0013 459.635C57.2263 458.794 57.5846 457.677 58.2098 457.318C59.3835 456.659 60.6618 456.249 61.9686 456.114C62.9362 455.993 65.3375 455.973 67.6914 458.334Z" fill="#FF6666"/>
<path d="M124.195 363.246C122.584 364.861 121.676 366.713 122.19 369.06C122.751 371.557 124.041 372.202 126.515 372.538C125.979 372.982 125.53 373.532 125.194 374.154C124.273 375.679 123.317 377.148 123.175 379.074C122.973 381.844 124.147 383.729 126.066 385.268C127.629 386.518 129.603 386.278 131.51 386.356C131.198 387.43 130.823 388.486 130.388 389.517C129.481 391.405 128.547 393.278 127.625 395.16C126.735 395.407 125.896 395.695 124.933 395.364C118.28 393.026 111.609 390.749 104.947 388.436C103.155 387.817 98.1082 385.961 98.1082 385.961L108.974 356.676C108.974 356.676 121.727 361.77 124.195 363.246Z" fill="#72524B"/>
<path d="M105.175 450.946C100.41 447.602 79.8759 434.067 79.771 433.931C80.1861 432.738 82.875 424.436 82.875 424.436L85.1084 425.274C93.3655 428.496 103.743 432.159 110.877 435.218C109.654 438.876 107.731 443.525 106.508 447.184C106.1 448.45 105.625 449.695 105.175 450.946Z" fill="#73524B"/>
<path d="M85.3794 419.562C90.4322 421.404 97.8638 424.76 102.936 426.548C105.508 427.459 108.125 428.246 110.742 429.014C111.299 429.175 113.182 430.067 113.663 429.881C114.726 430.432 115.043 431.274 114.829 432.245C114.582 433.348 113.484 434.94 110.961 435.081C102.283 431.609 91.5328 427.534 83.3014 424.323C86.0454 423.522 85.4211 419.961 85.3794 419.562Z" fill="#5F4C48"/>
<path d="M96.008 390.602C96.1083 390.377 99.2126 390.08 98.3874 385.846C100.164 386.494 103.421 387.681 105.201 388.31C111.841 390.61 118.49 392.873 125.121 395.198C126.074 395.545 126.924 395.218 127.819 394.951C127.859 395.284 127.938 395.609 128.054 395.916C128.269 396.33 128.601 396.664 128.829 397.074C129.27 397.876 130.475 401.305 125.782 401.958C124.521 401.869 98.8389 391.663 96.008 390.602Z" fill="#604E4A"/>
<path d="M85.4185 419.968C85.4518 420.372 86.3399 423.046 82.8893 424.53C82.8893 424.53 81.3694 429.315 81.0089 430.453C80.6308 431.659 76.5829 441.316 76.1661 442.512L71.2076 439.764C72.1012 437.304 76.5575 426.358 77.4885 423.912C77.8803 423.004 78.3201 422.118 78.8056 421.259C81.3921 420.988 82.216 419.643 80.976 417.228C81.4134 415.733 82.0319 414.296 82.8145 412.955C83.7692 411.211 84.4306 409.294 85.219 407.454C86.2593 406.854 87.3113 406.29 88.3274 405.65C89.1522 405.128 89.933 404.523 90.7361 403.954L85.0326 419.651C85.8335 420.166 84.6911 419.503 85.4185 419.968Z" fill="#48322D"/>
<path d="M99.0401 386.85C100.56 390.892 96.0704 390.521 95.9759 390.74C94.1652 390.217 95.7802 390.63 95.7802 390.63C95.7802 390.63 94.2813 395.06 93.9884 395.835L93.4809 394.869L93.0786 394.293L93.1229 394.364C93.1733 393.992 93.3412 393.58 93.258 393.241C92.9916 392.23 92.4743 389.05 89.7046 387.403C94.9106 389.301 95.0615 384.627 93.6169 382.791C93.8042 382.643 93.9677 382.463 94.1008 382.261C95.0652 380.042 103.83 358.323 104.415 357.119C104.813 356.394 104.677 355.495 104.09 354.969C104.613 354.769 105.139 354.528 105.67 354.323C107.385 353.659 114.416 354.926 109.906 356.863C108.766 356.491 109.031 356.544 109.031 356.544L98.105 385.986C98.105 385.986 98.5292 386.035 99.0401 386.85Z" fill="#48322D"/>
<path d="M96.3481 389.676L91.3984 387.872L80.7927 417.06L85.7424 418.864L96.3481 389.676Z" fill="#48322D"/>
<path d="M77.7537 375.705C78.4081 373.106 80.2455 371.827 82.1595 370.9C84.886 369.585 87.7574 369.044 90.6269 369.953C91.486 370.226 92.3972 370.427 92.75 371.464C93.3388 373.182 92.6389 374.622 90.8909 375.392C89.2845 376.105 87.7139 375.967 86.1129 375.705C84.9444 375.48 83.76 375.326 82.5656 375.246C81.939 375.257 81.3133 375.403 80.7278 375.674C79.725 376.078 78.7627 376.353 77.7537 375.705Z" fill="#373737"/>
<path d="M118.045 391.24C118.149 386.165 115.097 384.681 111.215 384.184C111.097 382.733 111.894 381.888 112.627 381.073C114.146 379.388 115.963 378.452 118.156 379.027C118.805 379.199 119.393 379.565 119.85 380.084C120.841 381.322 121.401 382.895 121.437 384.543C121.499 386.238 121.217 387.934 120.608 389.514C120.128 390.902 119.529 391.347 118.045 391.24Z" fill="#373737"/>
<path d="M109.871 421.47L109.651 421.58L109.871 421.47Z" fill="#FDFDFD"/>
<path d="M93.5093 394.631L93.2754 394.133L93.5093 394.631Z" fill="#FBFCFC"/>
<path d="M74.5603 430.947C73.9478 430.943 43.3104 427.924 42.8667 427.817C43.9686 425.046 50.1377 409.613 50.1377 409.613C50.1377 409.613 73.0232 418.463 78.5625 420.926C78.217 421.484 75.4443 428.483 74.5603 430.947Z" fill="#73524B"/>
<path d="M110.131 421.332C112.842 421.593 115.107 420.293 117.348 418.903C117.633 418.729 117.948 418.603 118.248 418.457C117.078 421.341 115.921 424.234 114.735 427.112C114.599 427.488 113.894 429.345 113.655 429.68C113.169 429.871 111.273 428.97 110.712 428.808C108.07 428.05 105.43 427.269 102.848 426.327C97.7387 424.526 86.0403 419.81 85.1663 419.282L90.7987 403.777C91.1402 403.294 91.4915 402.814 91.831 402.326C92.928 400.747 93.9725 399.161 93.7965 397.087C93.7578 396.636 93.9724 396.156 94.0688 395.688C94.3519 394.909 95.8438 390.527 95.8438 390.527L107.121 394.718C105.361 395.501 103.503 396.109 101.813 397.076C96.2493 400.212 92.0586 404.643 90.3474 411.12C89.3864 414.781 89.9129 418.164 92.4617 420.963C93.8984 422.541 95.7782 423.335 97.759 423.709C101.852 424.52 106.135 423.741 109.802 421.518L109.737 421.553L110.131 421.332Z" fill="#73534C"/>
<path fill-rule="evenodd" clip-rule="evenodd" d="M96.0323 390.596L124.588 401.574L114.277 429.96C110.297 429.007 106.347 427.816 102.425 426.385C98.5033 424.955 92.7438 422.606 85.1466 419.337L96.0323 390.596Z" fill="#72524B"/>
<path d="M88.5976 499.027C88.0596 498.894 66.6835 490.584 24.4694 474.097C38.7139 438.113 46.0494 419.533 46.4759 418.359C46.5444 418.171 53.8507 426.555 73.3922 436.23C84.0915 441.527 95.6695 444.008 108.126 443.673C98.1765 472.081 91.667 490.533 88.5976 499.027Z" fill="white"/>
<path d="M72.0436 404.233C68.3709 399.851 69.8019 392.595 75.2398 388.027C80.6777 383.458 88.0632 383.307 91.7359 387.69C95.4085 392.072 93.9775 399.328 88.5396 403.896C83.1017 408.465 75.7162 408.616 72.0436 404.233Z" fill="white"/>
<path d="M83.1736 401.013C80.9913 399.691 80.9146 395.816 83.0023 392.358C85.0901 388.9 88.5517 387.168 90.734 388.49C92.9164 389.811 92.9931 393.686 90.9053 397.144C88.8176 400.602 85.356 402.334 83.1736 401.013Z" fill="#363637"/>
<path d="M87.9133 414.162C83.1492 408.477 84.6626 399.353 91.2936 393.782C97.9247 388.211 107.162 388.303 111.926 393.988C116.691 399.672 115.177 408.797 108.546 414.368C101.915 419.939 92.6775 419.846 87.9133 414.162Z" fill="white"/>
<path d="M99.1434 409.271C96.9444 407.661 97.2853 403.447 99.9048 399.857C102.524 396.267 106.431 394.662 108.63 396.272C110.829 397.881 110.488 402.096 107.868 405.685C105.249 409.275 101.342 410.88 99.1434 409.271Z" fill="#363637"/>
<path opacity="0.260209" d="M92.893 445.576C60.4563 443.302 35.9911 415.225 38.2486 382.864C40.506 350.503 68.6312 326.112 101.068 328.386C133.505 330.66 157.97 358.737 155.712 391.098C153.455 423.459 125.33 447.849 92.893 445.576Z" fill="#D8D8D8"/>
<path fill-rule="evenodd" clip-rule="evenodd" d="M98.7952 470.103C83.9961 467.253 72.9131 464.563 65.5464 462.033C58.1797 459.503 47.9818 454.657 34.9529 447.494L32.3711 454.064C45.5341 461.188 55.8141 466.02 63.2111 468.56C70.6081 471.1 81.6788 473.904 96.4233 476.973L98.7952 470.103Z" fill="url(#paint1_linear)"/>
<path d="M146.568 416.106C143.594 415.022 143.062 408.973 145.381 402.594C147.699 396.216 151.989 391.925 154.963 393.009C157.937 394.092 158.468 400.142 156.15 406.52C153.832 412.898 149.542 417.19 146.568 416.106Z" fill="#EBEDED"/>
<path d="M158.965 380.063C158.139 379.81 157.673 378.939 157.924 378.117C158.175 377.294 159.048 376.833 159.874 377.086C160.7 377.338 161.166 378.21 160.915 379.032C160.664 379.854 159.791 380.316 158.965 380.063Z" fill="#EBEDED"/>
<path d="M153.954 396.477L159.144 379.479" stroke="#EBEDED" stroke-width="2" stroke-linecap="round" stroke-linejoin="round"/>
<path d="M63.223 471.404C58.7335 471.089 55.3418 467.282 55.6475 462.899C55.9532 458.517 59.8405 455.22 64.33 455.534C68.8195 455.849 72.2112 459.657 71.9055 464.039C71.5998 468.421 67.7125 471.719 63.223 471.404Z" fill="url(#paint2_linear)"/>
<path d="M63.3792 468.962C60.2365 468.742 57.8668 466.012 58.0863 462.866C58.3058 459.72 61.0313 457.348 64.174 457.568C67.3166 457.789 69.6863 460.518 69.4669 463.664C69.2474 466.81 66.5218 469.182 63.3792 468.962Z" fill="url(#paint3_linear)"/>
<path d="M55.1032 359.106C54.5257 359.943 53.7144 361.229 52.6692 362.966M73.2764 341.951C71.0239 343.353 68.8061 344.945 66.6228 346.729C63.3489 349.404 60.4441 352.288 57.9084 355.381L73.2764 341.951Z" stroke="white" stroke-opacity="0.697628" stroke-width="3" stroke-linecap="round" stroke-linejoin="round"/>
<path fill-rule="evenodd" clip-rule="evenodd" d="M99.3035 470.206C102.662 470.682 105.15 471.002 106.767 471.168C108.385 471.334 110.42 471.476 112.872 471.596L110.665 478.124C109.221 478.181 107.532 478.142 105.597 478.006C103.662 477.871 100.784 477.59 96.9635 477.163L99.3035 470.206Z" fill="url(#paint4_linear)"/>
<path d="M112.624 451.153C113.931 453.54 120.108 460.795 126.108 463.23C127.157 463.655 127.66 464.848 127.232 465.893C126.803 466.939 125.56 467.601 124.557 467.016C118.498 463.481 113.226 456.976 111.171 453.594C109.117 450.212 111.316 448.766 112.624 451.153Z" fill="white"/>
<path d="M124.23 487.85C128.625 489.997 133.639 488.758 135.429 485.083C137.218 481.408 135.106 476.688 130.711 474.541C126.316 472.393 121.302 473.632 119.513 477.307C117.723 480.983 119.835 485.703 124.23 487.85Z" fill="white"/>
<path opacity="0.801631" d="M60.5488 460.728C60.2837 460.388 60.4968 459.778 61.0247 459.365C61.5526 458.952 62.1954 458.893 62.4605 459.233C62.7256 459.572 62.5125 460.182 61.9846 460.595C61.4566 461.008 60.8138 461.068 60.5488 460.728Z" fill="white"/>
<path opacity="0.801631" d="M59.6745 462.04C59.45 462.025 59.2807 461.83 59.2964 461.605C59.3121 461.38 59.5068 461.211 59.7312 461.227C59.9557 461.242 60.125 461.437 60.1093 461.662C60.0936 461.887 59.899 462.056 59.6745 462.04Z" fill="white"/>
<g filter="url(#filter0_d)">
<path fill-rule="evenodd" clip-rule="evenodd" d="M0 420.26V507H375V430.312C332.55 453.923 267.907 469 195.5 469C113.28 469 41.0717 449.559 0 420.26Z" fill="white"/>
</g>
<path d="M319.87 456.982C324.215 453.675 323.76 453.049 324.502 450.08C325.162 448.101 327.966 443.647 331.182 449.09L328.955 449.832C328.361 449.04 327.989 449.585 327.965 450.08C327.717 455.275 325.739 456.814 321.934 459.711C321.174 460.289 320.097 460.147 319.527 459.393C318.957 458.64 319.111 457.561 319.87 456.982Z" fill="#EBEDED"/>
<path fill-rule="evenodd" clip-rule="evenodd" d="M322.772 449.874L323.452 448.1L329.687 450.465L329.007 452.239L322.772 449.874Z" fill="#EB676C"/>
<g filter="url(#filter1_d)">
<path d="M315.655 453.711C314.101 457.63 315.411 461.762 318.58 462.941C321.749 464.119 325.578 461.898 327.131 457.98C328.685 454.061 327.375 449.929 324.206 448.75C321.037 447.572 317.208 449.793 315.655 453.711Z" fill="white"/>
<path d="M316.448 461.265C315.84 462.797 316.277 464.384 317.423 464.81C318.569 465.237 319.991 464.341 320.598 462.809C321.205 461.277 320.768 459.69 319.622 459.263C318.476 458.837 317.055 459.733 316.448 461.265Z" fill="white"/>
</g>
<g filter="url(#filter2_d)">
<path d="M239.762 467.923C236.89 470.994 232.526 471.612 230.014 469.304C227.503 466.995 227.795 462.633 230.668 459.562C233.54 456.49 237.904 455.872 240.415 458.181C242.927 460.489 242.634 464.851 239.762 467.923Z" fill="white"/>
<path d="M230.43 467.265C229.307 468.466 227.66 468.762 226.751 467.927C225.843 467.092 226.016 465.441 227.139 464.24C228.262 463.039 229.909 462.742 230.818 463.577C231.726 464.413 231.553 466.064 230.43 467.265Z" fill="white"/>
</g>
<g filter="url(#filter3_d)">
<path fill-rule="evenodd" clip-rule="evenodd" d="M15.6857 436.217C16.9294 438.54 19.765 440.107 23.0065 439.994C27.2917 439.846 30.6635 436.817 30.5374 433.231C30.4114 429.644 26.8354 426.857 22.5501 427.006C18.9898 427.129 16.0601 429.24 15.243 432.008C15.1486 431.952 15.0507 431.899 14.9494 431.849C13.4407 431.112 11.7568 431.461 11.1883 432.629C10.6198 433.796 11.382 435.339 12.8907 436.076C13.8652 436.552 14.9128 436.575 15.6857 436.217Z" fill="white"/>
</g>
<g filter="url(#filter4_d)">
<path fill-rule="evenodd" clip-rule="evenodd" d="M127.027 472.113C125.158 472.558 122.998 472.34 120.979 471.354C116.892 469.358 114.928 464.97 116.592 461.552C118.257 458.135 122.919 456.983 127.006 458.979C131.093 460.975 133.057 465.364 131.392 468.781C131.343 468.882 131.291 468.981 131.236 469.079C131.938 469.895 132.182 470.922 131.772 471.765C131.169 473.002 129.384 473.372 127.785 472.591C127.507 472.455 127.254 472.294 127.027 472.113Z" fill="white"/>
</g>
</g>
<defs>
<filter id="filter0_d" x="-4" y="412.26" width="383" height="94.7404" filterUnits="userSpaceOnUse" color-interpolation-filters="sRGB">
<feFlood flood-opacity="0" result="BackgroundImageFix"/>
<feColorMatrix in="SourceAlpha" type="matrix" values="0 0 0 0 0 0 0 0 0 0 0 0 0 0 0 0 0 0 127 0" result="hardAlpha"/>
<feOffset dy="-4"/>
<feGaussianBlur stdDeviation="2"/>
<feComposite in2="hardAlpha" operator="out"/>
<feColorMatrix type="matrix" values="0 0 0 0 0.00392157 0 0 0 0 0.329412 0 0 0 0 0.329412 0 0 0 0.25 0"/>
<feBlend mode="normal" in2="BackgroundImageFix" result="effect1_dropShadow"/>
<feBlend mode="normal" in="SourceGraphic" in2="effect1_dropShadow" result="shape"/>
</filter>
<filter id="filter1_d" x="311.001" y="448.434" width="20.7844" height="24.4822" filterUnits="userSpaceOnUse" color-interpolation-filters="sRGB">
<feFlood flood-opacity="0" result="BackgroundImageFix"/>
<feColorMatrix in="SourceAlpha" type="matrix" values="0 0 0 0 0 0 0 0 0 0 0 0 0 0 0 0 0 0 127 0" result="hardAlpha"/>
<feOffset dy="4"/>
<feGaussianBlur stdDeviation="2"/>
<feComposite in2="hardAlpha" operator="out"/>
<feColorMatrix type="matrix" values="0 0 0 0 0.566667 0 0 0 0 0.566667 0 0 0 0 0.566667 0 0 0 0.25 0"/>
<feBlend mode="normal" in2="BackgroundImageFix" result="effect1_dropShadow"/>
<feBlend mode="normal" in="SourceGraphic" in2="effect1_dropShadow" result="shape"/>
</filter>
<filter id="filter2_d" x="222.169" y="456.784" width="23.9542" height="21.9159" filterUnits="userSpaceOnUse" color-interpolation-filters="sRGB">
<feFlood flood-opacity="0" result="BackgroundImageFix"/>
<feColorMatrix in="SourceAlpha" type="matrix" values="0 0 0 0 0 0 0 0 0 0 0 0 0 0 0 0 0 0 127 0" result="hardAlpha"/>
<feOffset dy="4"/>
<feGaussianBlur stdDeviation="2"/>
<feComposite in2="hardAlpha" operator="out"/>
<feColorMatrix type="matrix" values="0 0 0 0 0.566667 0 0 0 0 0.566667 0 0 0 0 0.566667 0 0 0 0.25 0"/>
<feBlend mode="normal" in2="BackgroundImageFix" result="effect1_dropShadow"/>
<feBlend mode="normal" in="SourceGraphic" in2="effect1_dropShadow" result="shape"/>
</filter>
<filter id="filter3_d" x="7" y="427" width="27.5409" height="21" filterUnits="userSpaceOnUse" color-interpolation-filters="sRGB">
<feFlood flood-opacity="0" result="BackgroundImageFix"/>
<feColorMatrix in="SourceAlpha" type="matrix" values="0 0 0 0 0 0 0 0 0 0 0 0 0 0 0 0 0 0 127 0" result="hardAlpha"/>
<feOffset dy="4"/>
<feGaussianBlur stdDeviation="2"/>
<feComposite in2="hardAlpha" operator="out"/>
<feColorMatrix type="matrix" values="0 0 0 0 0.566667 0 0 0 0 0.566667 0 0 0 0 0.566667 0 0 0 0.25 0"/>
<feBlend mode="normal" in2="BackgroundImageFix" result="effect1_dropShadow"/>
<feBlend mode="normal" in="SourceGraphic" in2="effect1_dropShadow" result="shape"/>
</filter>
<filter id="filter4_d" x="112" y="458" width="23.9845" height="23.0001" filterUnits="userSpaceOnUse" color-interpolation-filters="sRGB">
<feFlood flood-opacity="0" result="BackgroundImageFix"/>
<feColorMatrix in="SourceAlpha" type="matrix" values="0 0 0 0 0 0 0 0 0 0 0 0 0 0 0 0 0 0 127 0" result="hardAlpha"/>
<feOffset dy="4"/>
<feGaussianBlur stdDeviation="2"/>
<feComposite in2="hardAlpha" operator="out"/>
<feColorMatrix type="matrix" values="0 0 0 0 0.566667 0 0 0 0 0.566667 0 0 0 0 0.566667 0 0 0 0.25 0"/>
<feBlend mode="normal" in2="BackgroundImageFix" result="effect1_dropShadow"/>
<feBlend mode="normal" in="SourceGraphic" in2="effect1_dropShadow" result="shape"/>
</filter>
<linearGradient id="paint0_linear" x1="254.882" y1="386.323" x2="307.059" y2="436.598" gradientUnits="userSpaceOnUse">
<stop stop-color="#EFEFEF" stop-opacity="0.824594"/>
<stop offset="1" stop-color="#DBDBDB" stop-opacity="0.723057"/>
</linearGradient>
<linearGradient id="paint1_linear" x1="104.858" y1="477.171" x2="54.9197" y2="468.95" gradientUnits="userSpaceOnUse">
<stop stop-color="#F4F4F4"/>
<stop offset="1" stop-color="#E5E5E5"/>
</linearGradient>
<linearGradient id="paint2_linear" x1="59.6482" y1="457.791" x2="64.7631" y2="467.632" gradientUnits="userSpaceOnUse">
<stop stop-color="#F7F7F7"/>
<stop offset="1" stop-color="#EDEDED"/>
</linearGradient>
<linearGradient id="paint3_linear" x1="60.9474" y1="457.342" x2="65.8002" y2="469.128" gradientUnits="userSpaceOnUse">
<stop stop-color="#FCE698"/>
<stop offset="1" stop-color="#F7C85F"/>
</linearGradient>
<linearGradient id="paint4_linear" x1="114.506" y1="474.432" x2="104.381" y2="478.745" gradientUnits="userSpaceOnUse">
<stop stop-color="#F4F4F4"/>
<stop offset="1" stop-color="#E5E5E5"/>
</linearGradient>
</defs>
</svg>
