<svg width="298" height="469" viewBox="0 0 298 469" fill="none" xmlns="http://www.w3.org/2000/svg">
<g opacity="0.903365">
<path d="M4.105 115.86C3.145 114.95 2.385 113.75 1.825 112.26C1.275 110.77 1 109.16 1 107.43C1 105.7 1.275 104.09 1.825 102.6C2.385 101.11 3.145 99.91 4.105 99H7.315V99.315C6.345 100.335 5.58 101.565 5.02 103.005C4.46 104.435 4.18 105.91 4.18 107.43C4.18 108.96 4.46 110.445 5.02 111.885C5.58 113.315 6.345 114.54 7.315 115.56V115.86H4.105Z" fill="#FF7673"/>
<path d="M11.8191 112.545C11.2391 112.545 10.7741 112.39 10.4241 112.08C10.0741 111.77 9.89908 111.38 9.89908 110.91C9.89908 110.43 10.0741 110.035 10.4241 109.725C10.7741 109.405 11.2391 109.245 11.8191 109.245C12.3891 109.245 12.8491 109.405 13.1991 109.725C13.5491 110.035 13.7241 110.43 13.7241 110.91C13.7241 111.38 13.5491 111.77 13.1991 112.08C12.8491 112.39 12.3891 112.545 11.8191 112.545Z" fill="#FF7673"/>
<path d="M18.8948 112.545C18.3148 112.545 17.8498 112.39 17.4998 112.08C17.1498 111.77 16.9748 111.38 16.9748 110.91C16.9748 110.43 17.1498 110.035 17.4998 109.725C17.8498 109.405 18.3148 109.245 18.8948 109.245C19.4648 109.245 19.9248 109.405 20.2748 109.725C20.6248 110.035 20.7998 110.43 20.7998 110.91C20.7998 111.38 20.6248 111.77 20.2748 112.08C19.9248 112.39 19.4648 112.545 18.8948 112.545Z" fill="#FF7673"/>
<path d="M25.9706 112.545C25.3906 112.545 24.9256 112.39 24.5756 112.08C24.2256 111.77 24.0506 111.38 24.0506 110.91C24.0506 110.43 24.2256 110.035 24.5756 109.725C24.9256 109.405 25.3906 109.245 25.9706 109.245C26.5406 109.245 27.0006 109.405 27.3506 109.725C27.7006 110.035 27.8756 110.43 27.8756 110.91C27.8756 111.38 27.7006 111.77 27.3506 112.08C27.0006 112.39 26.5406 112.545 25.9706 112.545Z" fill="#FF7673"/>
<path d="M30.4663 115.86V115.56C31.4363 114.54 32.2013 113.315 32.7613 111.885C33.3213 110.445 33.6013 108.96 33.6013 107.43C33.6013 105.91 33.3213 104.435 32.7613 103.005C32.2013 101.565 31.4363 100.335 30.4663 99.315V99H33.6763C34.6363 99.91 35.3913 101.11 35.9413 102.6C36.5013 104.09 36.7813 105.7 36.7813 107.43C36.7813 109.16 36.5013 110.77 35.9413 112.26C35.3913 113.75 34.6363 114.95 33.6763 115.86H30.4663Z" fill="#FF7673"/>
<path d="M4.105 115.86C3.145 114.95 2.385 113.75 1.825 112.26C1.275 110.77 1 109.16 1 107.43C1 105.7 1.275 104.09 1.825 102.6C2.385 101.11 3.145 99.91 4.105 99H7.315V99.315C6.345 100.335 5.58 101.565 5.02 103.005C4.46 104.435 4.18 105.91 4.18 107.43C4.18 108.96 4.46 110.445 5.02 111.885C5.58 113.315 6.345 114.54 7.315 115.56V115.86H4.105Z" stroke="#FF7673" stroke-width="2"/>
<path d="M11.8191 112.545C11.2391 112.545 10.7741 112.39 10.4241 112.08C10.0741 111.77 9.89908 111.38 9.89908 110.91C9.89908 110.43 10.0741 110.035 10.4241 109.725C10.7741 109.405 11.2391 109.245 11.8191 109.245C12.3891 109.245 12.8491 109.405 13.1991 109.725C13.5491 110.035 13.7241 110.43 13.7241 110.91C13.7241 111.38 13.5491 111.77 13.1991 112.08C12.8491 112.39 12.3891 112.545 11.8191 112.545Z" stroke="#FF7673" stroke-width="2"/>
<path d="M18.8948 112.545C18.3148 112.545 17.8498 112.39 17.4998 112.08C17.1498 111.77 16.9748 111.38 16.9748 110.91C16.9748 110.43 17.1498 110.035 17.4998 109.725C17.8498 109.405 18.3148 109.245 18.8948 109.245C19.4648 109.245 19.9248 109.405 20.2748 109.725C20.6248 110.035 20.7998 110.43 20.7998 110.91C20.7998 111.38 20.6248 111.77 20.2748 112.08C19.9248 112.39 19.4648 112.545 18.8948 112.545Z" stroke="#FF7673" stroke-width="2"/>
<path d="M25.9706 112.545C25.3906 112.545 24.9256 112.39 24.5756 112.08C24.2256 111.77 24.0506 111.38 24.0506 110.91C24.0506 110.43 24.2256 110.035 24.5756 109.725C24.9256 109.405 25.3906 109.245 25.9706 109.245C26.5406 109.245 27.0006 109.405 27.3506 109.725C27.7006 110.035 27.8756 110.43 27.8756 110.91C27.8756 111.38 27.7006 111.77 27.3506 112.08C27.0006 112.39 26.5406 112.545 25.9706 112.545Z" stroke="#FF7673" stroke-width="2"/>
<path d="M30.4663 115.86V115.56C31.4363 114.54 32.2013 113.315 32.7613 111.885C33.3213 110.445 33.6013 108.96 33.6013 107.43C33.6013 105.91 33.3213 104.435 32.7613 103.005C32.2013 101.565 31.4363 100.335 30.4663 99.315V99H33.6763C34.6363 99.91 35.3913 101.11 35.9413 102.6C36.5013 104.09 36.7813 105.7 36.7813 107.43C36.7813 109.16 36.5013 110.77 35.9413 112.26C35.3913 113.75 34.6363 114.95 33.6763 115.86H30.4663Z" stroke="#FF7673" stroke-width="2"/>
</g>
<g clip-path="url(#clip0)">
<path d="M246.758 238.915L236.805 228.961C236.495 228.652 235.948 228.652 235.638 228.961L233.48 231.119C233.158 231.441 233.158 231.964 233.48 232.286L240.693 239.498L233.481 246.711C233.158 247.033 233.158 247.555 233.481 247.878L235.638 250.036C235.793 250.19 236.003 250.278 236.222 250.278C236.44 250.278 236.651 250.19 236.806 250.036L246.758 240.082C247.08 239.76 247.08 239.237 246.758 238.915Z" fill="#00BCBC"/>
<path d="M221.519 246.71L214.308 239.498L221.52 232.287C221.675 232.132 221.762 231.922 221.762 231.703C221.762 231.484 221.675 231.274 221.52 231.119L219.362 228.962C219.208 228.807 218.998 228.72 218.779 228.72C218.56 228.72 218.35 228.807 218.195 228.962L208.241 238.914C207.919 239.236 207.919 239.759 208.241 240.082L218.195 250.035C218.35 250.189 218.56 250.277 218.778 250.277C218.997 250.277 219.207 250.189 219.362 250.035L221.52 247.877C221.842 247.555 221.842 247.032 221.519 246.71Z" fill="#00BCBC"/>
<path d="M233.16 225.612C233.055 225.42 232.878 225.277 232.669 225.215L230.92 224.699C230.483 224.57 230.023 224.82 229.894 225.257L221.773 252.759C221.711 252.969 221.735 253.195 221.84 253.387C221.944 253.58 222.121 253.722 222.331 253.785L224.08 254.301C224.158 254.324 224.237 254.335 224.314 254.335C224.67 254.335 224.999 254.102 225.105 253.743L233.226 226.24C233.288 226.03 233.265 225.804 233.16 225.612Z" fill="#00BCBC"/>
</g>
<path d="M114.52 313.186L104.566 303.232C104.257 302.923 103.709 302.923 103.4 303.232L101.242 305.39C100.919 305.712 100.919 306.235 101.242 306.557L108.454 313.769L101.242 320.982C100.92 321.304 100.92 321.826 101.242 322.149L103.4 324.307C103.555 324.461 103.765 324.549 103.984 324.549C104.202 324.549 104.412 324.461 104.567 324.307L114.52 314.353C114.842 314.031 114.842 313.508 114.52 313.186Z" fill="#00BCBC"/>
<path d="M297.52 10.1856L287.566 0.232133C287.257 -0.0773777 286.709 -0.0773777 286.4 0.232133L284.242 2.39004C283.919 2.71235 283.919 3.2348 284.242 3.5571L291.454 10.7687L284.242 17.9815C283.92 18.3038 283.92 18.8263 284.242 19.1486L286.4 21.3065C286.555 21.4613 286.765 21.5488 286.984 21.5488C287.202 21.5488 287.412 21.4613 287.567 21.3065L297.52 11.3535C297.842 11.0308 297.842 10.5079 297.52 10.1856Z" fill="#F3B781"/>
<g clip-path="url(#clip1)">
<path d="M162.758 448.915L152.805 438.961C152.495 438.652 151.948 438.652 151.638 438.961L149.48 441.119C149.158 441.441 149.158 441.964 149.48 442.286L156.693 449.498L149.481 456.711C149.158 457.033 149.158 457.555 149.481 457.878L151.638 460.036C151.793 460.19 152.003 460.278 152.222 460.278C152.44 460.278 152.651 460.19 152.806 460.036L162.758 450.082C163.08 449.76 163.08 449.237 162.758 448.915Z" fill="#326E98"/>
<path d="M137.519 456.71L130.308 449.498L137.52 442.287C137.675 442.132 137.762 441.922 137.762 441.703C137.762 441.484 137.675 441.274 137.52 441.119L135.362 438.962C135.208 438.807 134.998 438.72 134.779 438.72C134.56 438.72 134.35 438.807 134.195 438.962L124.241 448.914C123.919 449.236 123.919 449.759 124.241 450.082L134.195 460.035C134.35 460.189 134.56 460.277 134.778 460.277C134.997 460.277 135.207 460.189 135.362 460.035L137.52 457.877C137.842 457.555 137.842 457.032 137.519 456.71Z" fill="#326E98"/>
<path d="M149.16 435.612C149.055 435.42 148.878 435.277 148.669 435.215L146.92 434.699C146.483 434.57 146.023 434.82 145.894 435.257L137.773 462.759C137.711 462.969 137.735 463.195 137.84 463.387C137.944 463.58 138.121 463.722 138.331 463.785L140.08 464.301C140.158 464.324 140.237 464.335 140.314 464.335C140.67 464.335 140.999 464.102 141.105 463.743L149.226 436.24C149.288 436.03 149.265 435.804 149.16 435.612Z" fill="#326E98"/>
</g>
<circle cx="156" cy="158" r="9" stroke="#FF7673" stroke-width="4"/>
<circle cx="261" cy="405" r="5" stroke="#00BCBC" stroke-width="4"/>
<defs>
<clipPath id="clip0">
<rect width="39" height="39" fill="white" transform="translate(208 220)"/>
</clipPath>
<clipPath id="clip1">
<rect width="39" height="39" fill="white" transform="translate(124 430)"/>
</clipPath>
</defs>
</svg>
