<svg width="362" height="511" viewBox="0 0 362 511" fill="none" xmlns="http://www.w3.org/2000/svg">
<g opacity="0.903365">
<path d="M328.105 331.86C327.145 330.95 326.385 329.75 325.825 328.26C325.275 326.77 325 325.16 325 323.43C325 321.7 325.275 320.09 325.825 318.6C326.385 317.11 327.145 315.91 328.105 315H331.315V315.315C330.345 316.335 329.58 317.565 329.02 319.005C328.46 320.435 328.18 321.91 328.18 323.43C328.18 324.96 328.46 326.445 329.02 327.885C329.58 329.315 330.345 330.54 331.315 331.56V331.86H328.105Z" fill="#009999"/>
<path d="M335.819 328.545C335.239 328.545 334.774 328.39 334.424 328.08C334.074 327.77 333.899 327.38 333.899 326.91C333.899 326.43 334.074 326.035 334.424 325.725C334.774 325.405 335.239 325.245 335.819 325.245C336.389 325.245 336.849 325.405 337.199 325.725C337.549 326.035 337.724 326.43 337.724 326.91C337.724 327.38 337.549 327.77 337.199 328.08C336.849 328.39 336.389 328.545 335.819 328.545Z" fill="#009999"/>
<path d="M342.895 328.545C342.315 328.545 341.85 328.39 341.5 328.08C341.15 327.77 340.975 327.38 340.975 326.91C340.975 326.43 341.15 326.035 341.5 325.725C341.85 325.405 342.315 325.245 342.895 325.245C343.465 325.245 343.925 325.405 344.275 325.725C344.625 326.035 344.8 326.43 344.8 326.91C344.8 327.38 344.625 327.77 344.275 328.08C343.925 328.39 343.465 328.545 342.895 328.545Z" fill="#009999"/>
<path d="M349.971 328.545C349.391 328.545 348.926 328.39 348.576 328.08C348.226 327.77 348.051 327.38 348.051 326.91C348.051 326.43 348.226 326.035 348.576 325.725C348.926 325.405 349.391 325.245 349.971 325.245C350.541 325.245 351.001 325.405 351.351 325.725C351.701 326.035 351.876 326.43 351.876 326.91C351.876 327.38 351.701 327.77 351.351 328.08C351.001 328.39 350.541 328.545 349.971 328.545Z" fill="#009999"/>
<path d="M354.466 331.86V331.56C355.436 330.54 356.201 329.315 356.761 327.885C357.321 326.445 357.601 324.96 357.601 323.43C357.601 321.91 357.321 320.435 356.761 319.005C356.201 317.565 355.436 316.335 354.466 315.315V315H357.676C358.636 315.91 359.391 317.11 359.941 318.6C360.501 320.09 360.781 321.7 360.781 323.43C360.781 325.16 360.501 326.77 359.941 328.26C359.391 329.75 358.636 330.95 357.676 331.86H354.466Z" fill="#009999"/>
<path d="M328.105 331.86C327.145 330.95 326.385 329.75 325.825 328.26C325.275 326.77 325 325.16 325 323.43C325 321.7 325.275 320.09 325.825 318.6C326.385 317.11 327.145 315.91 328.105 315H331.315V315.315C330.345 316.335 329.58 317.565 329.02 319.005C328.46 320.435 328.18 321.91 328.18 323.43C328.18 324.96 328.46 326.445 329.02 327.885C329.58 329.315 330.345 330.54 331.315 331.56V331.86H328.105Z" stroke="#009999" stroke-width="2"/>
<path d="M335.819 328.545C335.239 328.545 334.774 328.39 334.424 328.08C334.074 327.77 333.899 327.38 333.899 326.91C333.899 326.43 334.074 326.035 334.424 325.725C334.774 325.405 335.239 325.245 335.819 325.245C336.389 325.245 336.849 325.405 337.199 325.725C337.549 326.035 337.724 326.43 337.724 326.91C337.724 327.38 337.549 327.77 337.199 328.08C336.849 328.39 336.389 328.545 335.819 328.545Z" stroke="#009999" stroke-width="2"/>
<path d="M342.895 328.545C342.315 328.545 341.85 328.39 341.5 328.08C341.15 327.77 340.975 327.38 340.975 326.91C340.975 326.43 341.15 326.035 341.5 325.725C341.85 325.405 342.315 325.245 342.895 325.245C343.465 325.245 343.925 325.405 344.275 325.725C344.625 326.035 344.8 326.43 344.8 326.91C344.8 327.38 344.625 327.77 344.275 328.08C343.925 328.39 343.465 328.545 342.895 328.545Z" stroke="#009999" stroke-width="2"/>
<path d="M349.971 328.545C349.391 328.545 348.926 328.39 348.576 328.08C348.226 327.77 348.051 327.38 348.051 326.91C348.051 326.43 348.226 326.035 348.576 325.725C348.926 325.405 349.391 325.245 349.971 325.245C350.541 325.245 351.001 325.405 351.351 325.725C351.701 326.035 351.876 326.43 351.876 326.91C351.876 327.38 351.701 327.77 351.351 328.08C351.001 328.39 350.541 328.545 349.971 328.545Z" stroke="#009999" stroke-width="2"/>
<path d="M354.466 331.86V331.56C355.436 330.54 356.201 329.315 356.761 327.885C357.321 326.445 357.601 324.96 357.601 323.43C357.601 321.91 357.321 320.435 356.761 319.005C356.201 317.565 355.436 316.335 354.466 315.315V315H357.676C358.636 315.91 359.391 317.11 359.941 318.6C360.501 320.09 360.781 321.7 360.781 323.43C360.781 325.16 360.501 326.77 359.941 328.26C359.391 329.75 358.636 330.95 357.676 331.86H354.466Z" stroke="#009999" stroke-width="2"/>
</g>
<path d="M13.5197 274.186L3.56628 264.232C3.25677 263.923 2.70915 263.923 2.39964 264.232L0.241728 266.39C-0.0805759 266.712 -0.0805759 267.235 0.241728 267.557L7.45415 274.769L0.24214 281.982C-0.0801635 282.304 -0.0801635 282.826 0.24214 283.149L2.40005 285.307C2.5548 285.461 2.76486 285.549 2.98358 285.549C3.20189 285.549 3.41235 285.461 3.56711 285.307L13.5197 275.353C13.842 275.031 13.842 274.508 13.5197 274.186Z" fill="#FF7673"/>
<path d="M218.52 10.1856L208.566 0.232133C208.257 -0.0773777 207.709 -0.0773777 207.4 0.232133L205.242 2.39004C204.919 2.71235 204.919 3.2348 205.242 3.5571L212.454 10.7687L205.242 17.9815C204.92 18.3038 204.92 18.8263 205.242 19.1486L207.4 21.3065C207.555 21.4613 207.765 21.5488 207.984 21.5488C208.202 21.5488 208.412 21.4613 208.567 21.3065L218.52 11.3535C218.842 11.0308 218.842 10.5079 218.52 10.1856Z" fill="#00BCBC"/>
<g clip-path="url(#clip0)">
<path d="M276.758 135.915L266.805 125.961C266.495 125.652 265.948 125.652 265.638 125.961L263.48 128.119C263.158 128.441 263.158 128.964 263.48 129.286L270.693 136.498L263.481 143.711C263.158 144.033 263.158 144.555 263.481 144.878L265.638 147.036C265.793 147.19 266.003 147.278 266.222 147.278C266.44 147.278 266.651 147.19 266.806 147.036L276.758 137.082C277.08 136.76 277.08 136.237 276.758 135.915Z" fill="#FF7673"/>
<path d="M251.519 143.71L244.308 136.498L251.52 129.287C251.675 129.132 251.762 128.922 251.762 128.703C251.762 128.484 251.675 128.274 251.52 128.119L249.362 125.962C249.208 125.807 248.997 125.72 248.779 125.72C248.56 125.72 248.35 125.807 248.195 125.962L238.241 135.914C237.919 136.236 237.919 136.759 238.241 137.082L248.195 147.035C248.35 147.189 248.56 147.277 248.778 147.277C248.997 147.277 249.207 147.189 249.362 147.035L251.52 144.877C251.842 144.555 251.842 144.032 251.519 143.71Z" fill="#FF7673"/>
<path d="M263.16 122.612C263.055 122.42 262.878 122.277 262.669 122.215L260.919 121.699C260.483 121.57 260.023 121.82 259.894 122.257L251.773 149.759C251.711 149.969 251.735 150.195 251.84 150.387C251.944 150.58 252.121 150.722 252.331 150.785L254.08 151.301C254.158 151.324 254.237 151.335 254.314 151.335C254.67 151.335 254.999 151.102 255.105 150.743L263.226 123.24C263.288 123.03 263.265 122.804 263.16 122.612Z" fill="#FF7673"/>
</g>
<g clip-path="url(#clip1)">
<path d="M99.814 495.549L92.1575 487.893C91.9194 487.655 91.4981 487.655 91.2601 487.893L89.6001 489.553C89.3522 489.801 89.3522 490.203 89.6001 490.451L95.1481 495.998L89.6004 501.546C89.3525 501.794 89.3525 502.196 89.6004 502.444L91.2604 504.104C91.3794 504.223 91.541 504.29 91.7092 504.29C91.8772 504.29 92.0391 504.223 92.1581 504.104L99.814 496.448C100.062 496.2 100.062 495.797 99.814 495.549Z" fill="#F3B781"/>
<path d="M80.3992 501.546L74.8522 495.999L80.4002 490.451C80.5192 490.332 80.5862 490.171 80.5862 490.002C80.5862 489.834 80.5196 489.673 80.4002 489.553L78.7403 487.894C78.6212 487.775 78.4596 487.708 78.2914 487.708C78.1231 487.708 77.9616 487.775 77.8425 487.894L70.1857 495.549C69.9378 495.797 69.9378 496.199 70.1857 496.447L77.8422 504.104C77.9612 504.223 78.1228 504.29 78.2911 504.29C78.4593 504.29 78.6209 504.223 78.7399 504.104L80.3999 502.444C80.6478 502.196 80.6478 501.794 80.3992 501.546Z" fill="#F3B781"/>
<path d="M89.3538 485.317C89.2732 485.169 89.1373 485.059 88.976 485.012L87.6304 484.615C87.2945 484.515 86.9409 484.708 86.8418 485.044L80.5948 506.199C80.5472 506.361 80.5656 506.535 80.6459 506.682C80.7262 506.831 80.8624 506.94 81.0237 506.988L82.3693 507.385C82.4293 507.403 82.49 507.411 82.5493 507.411C82.8233 507.411 83.0763 507.232 83.1579 506.956L89.4049 485.8C89.4525 485.638 89.4344 485.465 89.3538 485.317Z" fill="#F3B781"/>
</g>
<circle cx="276.5" cy="495.5" r="4.5" transform="rotate(-180 276.5 495.5)" stroke="#F3B781" stroke-width="4"/>
<circle cx="149.5" cy="286.5" r="8.5" transform="rotate(-180 149.5 286.5)" stroke="#326E98" stroke-width="4"/>
<defs>
<clipPath id="clip0">
<rect width="39" height="39" fill="white" transform="translate(238 117)"/>
</clipPath>
<clipPath id="clip1">
<rect width="30" height="30" fill="white" transform="translate(70 481)"/>
</clipPath>
</defs>
</svg>
