<svg width="1881" height="800" viewBox="0 0 1881 800" fill="none" xmlns="http://www.w3.org/2000/svg">
<path opacity="0.5" d="M298.192 636.552C-273.456 881.994 -724.868 298.105 -879.118 -24.5191L32.0008 -521.314C358.918 -237.626 869.841 391.11 298.192 636.552Z" stroke="#FBCB67" stroke-width="2"/>
<path opacity="0.5" d="M218.79 718.564C-382.759 877.19 -743.309 233.216 -848.391 -108.599L125.929 -465.872C407.528 -137.154 820.34 559.939 218.79 718.564Z" stroke="#EB6161" stroke-width="2"/>
<path d="M1468 394.777L1663.2 590L1707.48 545.705C1723.18 530.009 1720.94 524.87 1712.4 516.379C1703.85 507.889 1676.1 509.9 1668.45 483.87C1664.26 469.57 1673.03 450.355 1687.6 436.111C1702.18 421.868 1721.11 412.763 1735.35 416.952C1761.49 424.493 1758.53 451.361 1767.86 460.801C1777.19 470.241 1781.49 471.581 1797.18 455.885L1858 395.112L1799.64 336.74C1783.94 321.044 1786.18 315.961 1794.72 307.415C1803.27 298.869 1831.02 300.935 1838.68 274.905C1842.86 260.606 1834.04 241.391 1819.52 227.147C1805 212.903 1786.01 203.798 1771.77 207.988C1745.74 215.584 1748.59 242.564 1739.26 251.948C1729.94 261.332 1725.64 262.728 1709.94 247.032L1662.8 200L1468 394.777Z" fill="#F9F9F9"/>
<path opacity="0.5" d="M1485.78 489.303L1684.72 680.705L1728.14 635.559C1743.53 619.561 1741.2 614.467 1732.49 606.143C1723.78 597.82 1696.07 600.369 1687.91 574.493C1683.45 560.277 1691.84 540.895 1706.14 526.372C1720.44 511.848 1739.19 502.378 1753.51 506.29C1779.79 513.322 1777.35 540.242 1786.86 549.5C1796.37 558.757 1800.69 560.014 1816.08 544.017L1875.71 482.075L1816.23 424.846C1800.23 409.458 1802.37 404.332 1810.74 395.622C1819.12 386.911 1846.91 388.439 1854.06 362.266C1857.97 347.888 1848.77 328.848 1833.98 314.888C1819.19 300.929 1800.02 292.194 1785.87 296.659C1759.99 304.759 1763.36 331.678 1754.22 341.241C1745.08 350.804 1740.8 352.284 1724.81 336.895L1676.77 290.786L1485.78 489.303Z" stroke="#009191" stroke-width="2" stroke-linecap="round" stroke-linejoin="round" stroke-dasharray="8 8"/>
<path d="M178.702 546.214C191.924 529.057 194.483 510.396 182.833 498.734C166.373 482.259 139.454 493.495 126.02 470.241C112.586 446.988 136.069 420.086 163.369 404.331C190.669 388.576 225.725 381.708 239.159 404.961C252.593 428.215 229.395 445.897 235.445 468.379C239.723 484.291 257.173 491.408 278.654 488.544L370.146 435.755L317.323 344.322C314.453 322.854 321.579 305.415 337.498 301.14C359.994 295.097 377.687 318.277 400.956 304.852C424.224 291.427 417.349 256.396 401.587 229.11C385.825 201.824 358.902 178.359 335.634 191.785C312.365 205.21 323.609 232.112 307.123 248.562C295.457 260.201 276.784 257.647 259.613 244.433L206.79 153L115.298 205.789C102.076 222.946 99.5168 241.607 111.167 253.266C127.627 269.741 154.546 258.505 167.98 281.759C181.414 305.012 157.931 331.914 130.631 347.669C103.328 363.421 68.2745 370.292 54.8406 347.039C41.4067 323.785 64.6046 306.103 58.5553 283.621C54.277 267.709 36.8273 260.592 15.3458 263.456L-76.1459 316.245L-23.3228 407.678C-20.4535 429.146 -27.5788 446.585 -43.4977 450.86C-65.9944 456.902 -83.6874 433.723 -106.956 447.148C-130.224 460.573 -123.349 495.604 -107.587 522.89C-91.8247 550.176 -64.9024 573.641 -41.6339 560.215C-18.3655 546.79 -29.6091 519.888 -13.1233 503.438C-1.45704 491.799 17.216 494.353 34.3871 507.567L87.2101 599L178.702 546.214Z" fill="#F9F9F9"/>
<path d="M614.47 304L641 277.473L634.98 271.455C632.847 269.322 632.149 269.626 630.995 270.787C629.841 271.948 630.115 275.72 626.577 276.76C624.634 277.329 622.023 276.138 620.087 274.157C618.151 272.176 616.914 269.603 617.483 267.667C618.508 264.115 622.159 264.518 623.442 263.25C624.725 261.983 624.907 261.398 622.774 259.265L614.515 251L606.583 258.931C604.45 261.064 603.759 260.761 602.597 259.599C601.436 258.438 601.717 254.666 598.179 253.626C596.236 253.057 593.625 254.256 591.689 256.229C589.754 258.203 588.516 260.783 589.086 262.719C590.118 266.256 593.784 265.869 595.06 267.136C596.335 268.404 596.525 268.988 594.392 271.121L588 277.527L614.47 304Z" fill="#F8C8C8"/>
<rect x="1432.68" y="317" width="27.1361" height="27.1361" rx="4" transform="rotate(20.8978 1432.68 317)" fill="#99D3D3"/>
<path d="M1314.5 490.316L1311.99 514.011L1293.38 501.339L1314.5 490.316Z" fill="#FBCB67"/>
</svg>
