<svg width="1920" height="800" viewBox="0 0 1920 800" fill="none" xmlns="http://www.w3.org/2000/svg">
<mask id="mask0" mask-type="alpha" maskUnits="userSpaceOnUse" x="0" y="0" width="1920" height="800">
<path d="M0 0H1920V800H0V0Z" fill="#C4C4C4"/>
</mask>
<g mask="url(#mask0)">
<path d="M145.218 633.372C924.426 699.302 767.357 -84.4275 596.987 -339.295L-504.403 280.76C-274.882 537.132 -27.9727 618.718 145.218 633.372Z" fill="#F8F8F8"/>
<path opacity="0.5" d="M99.2178 719.372C878.426 785.302 721.357 1.5725 550.987 -253.295L-550.403 366.76C-320.882 623.132 -73.9727 704.718 99.2178 719.372Z" stroke="#EB6161" stroke-width="2"/>
<path opacity="0.5" d="M41.2178 771.372C820.426 837.302 663.357 53.5725 492.987 -201.295L-608.403 418.76C-378.882 675.132 -131.973 756.718 41.2178 771.372Z" stroke="#FBCB67" stroke-width="2"/>
<path d="M1757.62 449.652C1727.81 511.613 1660.65 616.061 1598.69 586.25C1536.73 556.44 1503.43 403.659 1533.24 341.698C1563.05 279.736 1695.84 225.725 1757.8 255.536C1819.76 285.347 1787.43 387.691 1757.62 449.652Z" fill="#F9F9F9"/>
<path opacity="0.5" d="M1784.72 488.218C1769.84 519.155 1745.65 560.655 1717.48 590.681C1703.4 605.696 1688.37 617.784 1673.08 624.276C1657.81 630.755 1642.3 631.653 1627.12 624.349C1611.88 617.019 1598.31 602.072 1586.99 582.672C1575.68 563.288 1566.67 539.553 1560.52 514.789C1554.37 490.027 1551.08 464.272 1551.18 440.861C1551.28 417.433 1554.78 396.434 1562.14 381.131C1569.5 365.836 1583.26 350.957 1600.8 337.701C1618.32 324.451 1639.57 312.865 1661.83 304.133C1684.09 295.401 1707.33 289.535 1728.85 287.705C1750.38 285.874 1770.1 288.09 1785.37 295.437C1815.75 310.055 1823.18 342.491 1819.13 379.429C1815.09 416.323 1799.61 457.281 1784.72 488.218Z" stroke="#009191" stroke-width="2"/>
<rect x="1474.68" y="323" width="27.1361" height="27.1361" rx="4" transform="rotate(20.8978 1474.68 323)" fill="#99D3D3"/>
<circle cx="540" cy="437" r="18" fill="#F8C8C8"/>
<path d="M1356.5 496.316L1353.99 520.011L1335.38 507.339L1356.5 496.316Z" fill="#FBCB67"/>
</g>
</svg>
