<svg width="32" height="32" viewBox="0 0 32 32" fill="none" xmlns="http://www.w3.org/2000/svg">
<circle cx="16" cy="16" r="16" fill="#009191"/>
<path fill-rule="evenodd" clip-rule="evenodd" d="M22.9856 8.0083C23.5175 8.0083 23.9486 8.43941 23.9486 8.97122V8.97648L23.9057 16.8115C23.9057 21.2828 20.3173 24.916 15.8631 24.9883L15.7279 24.9894V16.8115L15.7509 16.8112L15.7733 8.96849C15.7748 8.43775 16.2055 8.0083 16.7362 8.0083H22.9856ZM10.0889 16.8062C12.3472 16.8062 14.1778 18.6368 14.1778 20.8951C14.1778 23.1533 12.3472 24.984 10.0889 24.984C7.83067 24.984 6 23.1533 6 20.8951C6 18.6368 7.83067 16.8062 10.0889 16.8062Z" fill="white"/>
</svg>
