<?xml version="1.0" encoding="UTF-8" standalone="no"?>
<svg
   xmlns:dc="http://purl.org/dc/elements/1.1/"
   xmlns:cc="http://creativecommons.org/ns#"
   xmlns:rdf="http://www.w3.org/1999/02/22-rdf-syntax-ns#"
   xmlns:svg="http://www.w3.org/2000/svg"
   xmlns="http://www.w3.org/2000/svg"
   xmlns:sodipodi="http://sodipodi.sourceforge.net/DTD/sodipodi-0.dtd"
   xmlns:inkscape="http://www.inkscape.org/namespaces/inkscape"
   version="1.1"
   viewBox="0 0 208.5354 238.82939"
   fill="none"
   stroke="none"
   stroke-linecap="square"
   stroke-miterlimit="10"
   id="svg1598"
   sodipodi:docname="pod-encode.svg"
   width="208.5354"
   height="238.82939"
   inkscape:version="1.0.1 (3bc2e813f5, 2020-09-07)">
  <metadata
     id="metadata1604">
    <rdf:RDF>
      <cc:Work
         rdf:about="">
        <dc:format>image/svg+xml</dc:format>
        <dc:type
           rdf:resource="http://purl.org/dc/dcmitype/StillImage" />
      </cc:Work>
    </rdf:RDF>
  </metadata>
  <defs
     id="defs1602" />
  <sodipodi:namedview
     pagecolor="#ffffff"
     bordercolor="#666666"
     borderopacity="1"
     objecttolerance="10"
     gridtolerance="10"
     guidetolerance="10"
     inkscape:pageopacity="0"
     inkscape:pageshadow="2"
     inkscape:window-width="640"
     inkscape:window-height="480"
     id="namedview1600"
     showgrid="false"
     inkscape:zoom="1.3645833"
     inkscape:cx="104.26764"
     inkscape:cy="212.8294"
     inkscape:current-layer="g1596" />
  <clipPath
     id="ga9043cc9aa_0_72.0">
    <path
       d="M 0,0 H 960 V 540 H 0 Z"
       clip-rule="nonzero"
       id="path1569" />
  </clipPath>
  <g
     clip-path="url(#ga9043cc9aa_0_72.0)"
     id="g1596"
     transform="translate(-375.73236,-57.170604)">
    <path
       fill="#93c47d"
       d="m 428.39438,160.73586 v 0 c 0,-4.78658 3.88028,-8.66684 8.66684,-8.66684 h 85.87891 c 2.29858,0 4.50305,0.9131 6.12836,2.53845 1.62536,1.62535 2.53851,3.82979 2.53851,6.12839 v 34.66632 c 0,4.78656 -3.88031,8.66684 -8.66687,8.66684 h -85.87891 c -4.78656,0 -8.66684,-3.88028 -8.66684,-8.66684 z"
       fill-rule="evenodd"
       id="path1574" />
    <path
       fill="#000000"
       d="m 463.1784,182.714 q -1.42188,0 -2.25,-0.875 -0.82813,-0.875 -0.82813,-2.40625 0,-1.5625 0.76563,-2.46875 0.76562,-0.92188 2.0625,-0.92188 1.20312,0 1.90625,0.79688 0.70312,0.79687 0.70312,2.09375 v 0.625 h -4.42187 q 0.0312,1.125 0.5625,1.71875 0.54687,0.57812 1.53125,0.57812 1.03125,0 2.04687,-0.4375 v 0.875 q -0.51562,0.21875 -0.98437,0.3125 -0.45313,0.10938 -1.09375,0.10938 z m -0.26563,-5.84375 q -0.78125,0 -1.25,0.5 -0.45312,0.5 -0.53125,1.39062 h 3.35938 q 0,-0.92187 -0.40625,-1.40625 -0.40625,-0.48437 -1.17188,-0.48437 z m 8.66993,5.71875 v -4.15625 q 0,-0.78125 -0.35938,-1.17188 -0.34375,-0.39062 -1.10937,-0.39062 -1.01563,0 -1.48438,0.54687 -0.46875,0.54688 -0.46875,1.79688 v 3.375 h -0.96875 v -6.42188 h 0.79688 l 0.15625,0.875 h 0.0469 q 0.29688,-0.46875 0.82813,-0.73437 0.54687,-0.26563 1.20312,-0.26563 1.17188,0 1.75,0.5625 0.59375,0.5625 0.59375,1.79688 v 4.1875 z m 5.53711,0.125 q -1.39063,0 -2.15625,-0.85938 -0.76563,-0.85937 -0.76563,-2.4375 0,-1.60937 0.78125,-2.48437 0.78125,-0.89063 2.20313,-0.89063 0.46875,0 0.92187,0.10938 0.46875,0.0937 0.73438,0.23437 l -0.29688,0.82813 q -0.32812,-0.14063 -0.70312,-0.21875 -0.375,-0.0781 -0.67188,-0.0781 -1.95312,0 -1.95312,2.48438 0,1.1875 0.46875,1.82812 0.48437,0.625 1.42187,0.625 0.79688,0 1.64063,-0.34375 v 0.85938 q -0.64063,0.34375 -1.625,0.34375 z m 8.69726,-3.34375 q 0,1.57812 -0.79687,2.46875 -0.78125,0.875 -2.1875,0.875 -0.85938,0 -1.53125,-0.40625 -0.65625,-0.40625 -1.03125,-1.15625 -0.35938,-0.76563 -0.35938,-1.78125 0,-1.5625 0.78125,-2.4375 0.79688,-0.89063 2.1875,-0.89063 1.34375,0 2.14063,0.90625 0.79687,0.89063 0.79687,2.42188 z m -4.89062,0 q 0,1.23437 0.48437,1.875 0.5,0.64062 1.45313,0.64062 0.95312,0 1.4375,-0.64062 0.5,-0.64063 0.5,-1.875 0,-1.21875 -0.5,-1.85938 -0.48438,-0.64062 -1.45313,-0.64062 -0.95312,0 -1.4375,0.64062 -0.48437,0.625 -0.48437,1.85938 z m 10.96679,2.35937 h -0.0625 q -0.67187,0.98438 -2.01562,0.98438 -1.25,0 -1.95313,-0.85938 -0.70312,-0.875 -0.70312,-2.45312 0,-1.59375 0.70312,-2.46875 0.70313,-0.89063 1.95313,-0.89063 1.3125,0 2.01562,0.95313 h 0.0781 l -0.0469,-0.45313 -0.0312,-0.45312 v -2.625 h 0.98438 v 9.125 h -0.79688 z m -1.95312,0.15625 q 1,0 1.4375,-0.53125 0.45312,-0.54687 0.45312,-1.75 v -0.20312 q 0,-1.375 -0.45312,-1.95313 -0.45313,-0.57812 -1.4375,-0.57812 -0.85938,0 -1.3125,0.67187 -0.45313,0.65625 -0.45313,1.85938 0,1.23437 0.4375,1.85937 0.45313,0.625 1.32813,0.625 z m 7.65039,0.82813 q -1.42188,0 -2.25,-0.875 -0.82813,-0.875 -0.82813,-2.40625 0,-1.5625 0.76563,-2.46875 0.76562,-0.92188 2.0625,-0.92188 1.20312,0 1.90625,0.79688 0.70312,0.79687 0.70312,2.09375 v 0.625 h -4.42187 q 0.0312,1.125 0.5625,1.71875 0.54687,0.57812 1.53125,0.57812 1.03125,0 2.04687,-0.4375 v 0.875 q -0.51562,0.21875 -0.98437,0.3125 -0.45313,0.10938 -1.09375,0.10938 z m -0.26563,-5.84375 q -0.78125,0 -1.25,0.5 -0.45312,0.5 -0.53125,1.39062 h 3.35938 q 0,-0.92187 -0.40625,-1.40625 -0.40625,-0.48437 -1.17188,-0.48437 z"
       fill-rule="nonzero"
       id="path1576" />
    <path
       fill="#000000"
       fill-opacity="0"
       d="m 480,109.1706 v 42.89764"
       fill-rule="evenodd"
       id="path1578" />
    <path
       stroke="#6d9eeb"
       stroke-width="24"
       stroke-linejoin="round"
       stroke-linecap="butt"
       d="m 480,109.1706 v 42.89764"
       fill-rule="evenodd"
       id="path1580" />
    <path
       fill="#6d9eeb"
       d="m 416.5827,65.83744 v 0 c 0,-4.78656 3.88028,-8.666836 8.66684,-8.666836 h 109.50095 c 2.29858,0 4.50305,0.913109 6.12841,2.538456 1.62531,1.625351 2.53846,3.829796 2.53846,6.12838 v 34.66632 c 0,4.78657 -3.88031,8.66684 -8.66687,8.66684 H 425.24954 c -4.78656,0 -8.66684,-3.88027 -8.66684,-8.66684 z"
       fill-rule="evenodd"
       id="path1582" />
    <path
       fill="#ffffff"
       d="m 438.26367,80.690605 h -1 v -4.03125 h -4.51563 v 4.03125 h -1 v -8.5625 h 1 v 3.640625 h 4.51563 v -3.640625 h 1 z m 4.91602,0.125 q -1.42188,0 -2.25,-0.875 -0.82813,-0.875 -0.82813,-2.40625 0,-1.5625 0.76563,-2.46875 0.76562,-0.921875 2.0625,-0.921875 1.20312,0 1.90625,0.796875 0.70312,0.796875 0.70312,2.09375 v 0.625 h -4.42187 q 0.0312,1.125 0.5625,1.71875 0.54687,0.578125 1.53125,0.578125 1.03125,0 2.04687,-0.4375 v 0.875 q -0.51562,0.21875 -0.98437,0.3125 -0.45313,0.109375 -1.09375,0.109375 z m -0.26563,-5.84375 q -0.78125,0 -1.25,0.5 -0.45312,0.5 -0.53125,1.390625 h 3.35938 q 0,-0.921875 -0.40625,-1.40625 -0.40625,-0.484375 -1.17188,-0.484375 z m 5.24805,5.71875 h -0.96875 v -9.125 h 0.96875 z m 5.05078,0.125 q -0.625,0 -1.14063,-0.234375 -0.51562,-0.234375 -0.875,-0.71875 h -0.0625 q 0.0625,0.5625 0.0625,1.0625 v 2.65625 h -0.96875 v -9.3125 h 0.79688 l 0.125,0.875 h 0.0469 q 0.375,-0.53125 0.875,-0.765625 0.5,-0.234375 1.14063,-0.234375 1.28125,0 1.96875,0.875 0.70312,0.875 0.70312,2.453125 0,1.578125 -0.70312,2.46875 -0.70313,0.875 -1.96875,0.875 z m -0.14063,-5.84375 q -0.98437,0 -1.42187,0.546875 -0.4375,0.546875 -0.45313,1.734375 v 0.21875 q 0,1.359375 0.45313,1.9375 0.45312,0.578125 1.45312,0.578125 0.82813,0 1.29688,-0.671875 0.46875,-0.671875 0.46875,-1.859375 0,-1.203125 -0.46875,-1.84375 -0.46875,-0.640625 -1.32813,-0.640625 z m 15.81446,5.71875 V 76.51873 q 0,-0.78125 -0.32813,-1.15625 -0.32812,-0.390625 -1.01562,-0.390625 -0.90625,0 -1.34375,0.53125 -0.4375,0.515625 -0.4375,1.59375 v 3.59375 h -0.96875 V 76.51873 q 0,-0.78125 -0.32813,-1.15625 -0.32812,-0.390625 -1.03125,-0.390625 -0.90625,0 -1.34375,0.546875 -0.42187,0.546875 -0.42187,1.796875 v 3.375 h -0.96875 V 74.26873 h 0.79687 l 0.15625,0.875 h 0.0469 q 0.26562,-0.46875 0.76562,-0.734375 0.51563,-0.265625 1.125,-0.265625 1.51563,0 1.96875,1.09375 h 0.0469 q 0.29687,-0.5 0.82812,-0.796875 0.54688,-0.296875 1.25,-0.296875 1.09375,0 1.625,0.5625 0.54688,0.5625 0.54688,1.796875 v 4.1875 z m 5.69336,0.125 q -1.42188,0 -2.25,-0.875 -0.82813,-0.875 -0.82813,-2.40625 0,-1.5625 0.76563,-2.46875 0.76562,-0.921875 2.0625,-0.921875 1.20312,0 1.90625,0.796875 0.70312,0.796875 0.70312,2.09375 v 0.625 h -4.42187 q 0.0312,1.125 0.5625,1.71875 0.54687,0.578125 1.53125,0.578125 1.03125,0 2.04687,-0.4375 v 0.875 q -0.51562,0.21875 -0.98437,0.3125 -0.45313,0.109375 -1.09375,0.109375 z m -0.26563,-5.84375 q -0.78125,0 -1.25,0.5 -0.45312,0.5 -0.53125,1.390625 h 3.35938 q 0,-0.921875 -0.40625,-1.40625 -0.40625,-0.484375 -1.17188,-0.484375 z m 14.97461,1.421875 q 0,2.0625 -1.04687,3.25 -1.03125,1.171875 -2.875,1.171875 -1.89063,0 -2.92188,-1.15625 -1.03125,-1.171875 -1.03125,-3.28125 0,-2.09375 1.03125,-3.234375 1.03125,-1.15625 2.92188,-1.15625 1.85937,0 2.89062,1.171875 1.03125,1.171875 1.03125,3.234375 z m -6.82812,0 q 0,1.734375 0.73437,2.640625 0.75,0.90625 2.17188,0.90625 1.42187,0 2.14062,-0.890625 0.73438,-0.90625 0.73438,-2.65625 0,-1.734375 -0.73438,-2.625 -0.71875,-0.890625 -2.14062,-0.890625 -1.42188,0 -2.17188,0.90625 -0.73437,0.890625 -0.73437,2.609375 z m 11.58007,-2.234375 q 1.26563,0 1.96875,0.875 0.70313,0.859375 0.70313,2.4375 0,1.578125 -0.70313,2.46875 -0.70312,0.875 -1.96875,0.875 -0.625,0 -1.14062,-0.234375 -0.51563,-0.234375 -0.875,-0.71875 h -0.0625 l -0.20313,0.828125 h -0.70312 v -9.125 h 0.96875 v 2.21875 q 0,0.75 -0.0469,1.34375 h 0.0469 q 0.6875,-0.96875 2.01562,-0.96875 z m -0.14062,0.8125 q -0.98438,0 -1.4375,0.578125 -0.4375,0.5625 -0.4375,1.921875 0,1.359375 0.45312,1.9375 0.45313,0.578125 1.45313,0.578125 0.89062,0 1.32812,-0.640625 0.4375,-0.65625 0.4375,-1.890625 0,-1.25 -0.4375,-1.859375 -0.4375,-0.625 -1.35937,-0.625 z m 5.47851,5.71875 h -0.96875 V 74.26873 h 0.96875 z m -1.04687,-8.15625 q 0,-0.34375 0.15625,-0.5 0.17187,-0.15625 0.42187,-0.15625 0.23438,0 0.39063,0.171875 0.17187,0.15625 0.17187,0.484375 0,0.328125 -0.17187,0.484375 -0.15625,0.15625 -0.39063,0.15625 -0.25,0 -0.42187,-0.15625 -0.15625,-0.15625 -0.15625,-0.484375 z m 2.58203,5.390625 v -0.890625 h 2.875 v 0.890625 z m 12.01758,2.765625 h -0.98438 l -1.73437,-5.734375 q -0.125,-0.390625 -0.28125,-0.96875 -0.14063,-0.578125 -0.14063,-0.6875 -0.14062,0.765625 -0.42187,1.6875 l -1.67188,5.703125 h -0.98437 l -2.28125,-8.5625 h 1.0625 l 1.34375,5.28125 q 0.28125,1.125 0.42187,2.015625 0.15625,-1.0625 0.46875,-2.09375 l 1.53125,-5.203125 h 1.04688 l 1.60937,5.25 q 0.28125,0.90625 0.48438,2.046875 0.10937,-0.828125 0.42187,-2.015625 l 1.34375,-5.28125 h 1.0625 z m 7.4375,0 -0.20313,-0.921875 h -0.0469 q -0.46875,0.609375 -0.95313,0.828125 -0.46875,0.21875 -1.1875,0.21875 -0.95312,0 -1.5,-0.5 -0.54687,-0.5 -0.54687,-1.40625 0,-1.9375 3.10937,-2.03125 l 1.09375,-0.03125 v -0.40625 q 0,-0.75 -0.32812,-1.109375 -0.3125,-0.359375 -1.03125,-0.359375 -0.8125,0 -1.8125,0.484375 l -0.3125,-0.75 q 0.48437,-0.25 1.04687,-0.390625 0.5625,-0.15625 1.14063,-0.15625 1.14062,0 1.6875,0.515625 0.5625,0.5 0.5625,1.625 v 4.390625 z m -2.20313,-0.6875 q 0.90625,0 1.42188,-0.5 0.53125,-0.5 0.53125,-1.390625 v -0.578125 l -0.98438,0.03125 q -1.15625,0.04687 -1.67187,0.375 -0.5,0.3125 -0.5,0.984375 0,0.53125 0.3125,0.8125 0.3125,0.265625 0.89062,0.265625 z m 9.31446,0.6875 v -4.15625 q 0,-0.78125 -0.35938,-1.171875 -0.34375,-0.390625 -1.10937,-0.390625 -1.01563,0 -1.48438,0.546875 -0.46875,0.546875 -0.46875,1.796875 v 3.375 h -0.96875 V 74.26873 h 0.79688 l 0.15625,0.875 h 0.0469 q 0.29688,-0.46875 0.82813,-0.734375 0.54687,-0.265625 1.20312,-0.265625 1.17188,0 1.75,0.5625 0.59375,0.5625 0.59375,1.796875 v 4.1875 z"
       fill-rule="nonzero"
       id="path1584" />
    <path
       fill="#ffffff"
       d="m 467.80957,94.690605 h -1.17188 l -3.10937,-4.15625 -0.90625,0.796875 v 3.359375 h -1 v -8.5625 h 1 v 4.25 l 3.89062,-4.25 h 1.17188 l -3.4375,3.71875 z m 3.75586,0.125 q -1.42188,0 -2.25,-0.875 -0.82813,-0.875 -0.82813,-2.40625 0,-1.5625 0.76563,-2.46875 0.76562,-0.921875 2.0625,-0.921875 1.20312,0 1.90625,0.796875 0.70312,0.796875 0.70312,2.09375 v 0.625 h -4.42187 q 0.0312,1.125 0.5625,1.71875 0.54687,0.578125 1.53125,0.578125 1.03125,0 2.04687,-0.4375 v 0.875 q -0.51562,0.21875 -0.98437,0.3125 -0.45313,0.109375 -1.09375,0.109375 z m -0.26563,-5.84375 q -0.78125,0 -1.25,0.5 -0.45312,0.5 -0.53125,1.390625 h 3.35938 q 0,-0.921875 -0.40625,-1.40625 -0.40625,-0.484375 -1.17188,-0.484375 z m 8.66993,5.71875 v -4.15625 q 0,-0.78125 -0.35938,-1.171875 -0.34375,-0.390625 -1.10937,-0.390625 -1.01563,0 -1.48438,0.546875 -0.46875,0.546875 -0.46875,1.796875 v 3.375 H 475.5791 V 88.26873 h 0.79688 l 0.15625,0.875 h 0.0469 q 0.29688,-0.46875 0.82813,-0.734375 0.54687,-0.265625 1.20312,-0.265625 1.17188,0 1.75,0.5625 0.59375,0.5625 0.59375,1.796875 v 4.1875 z m 8.52148,-3.21875 q 0,1.578125 -0.79687,2.46875 -0.78125,0.875 -2.1875,0.875 -0.85938,0 -1.53125,-0.40625 -0.65625,-0.40625 -1.03125,-1.15625 -0.35938,-0.765625 -0.35938,-1.78125 0,-1.5625 0.78125,-2.4375 0.79688,-0.890625 2.1875,-0.890625 1.34375,0 2.14063,0.90625 0.79687,0.890625 0.79687,2.421875 z m -4.89062,0 q 0,1.234375 0.48437,1.875 0.5,0.640625 1.45313,0.640625 0.95312,0 1.4375,-0.640625 0.5,-0.640625 0.5,-1.875 0,-1.21875 -0.5,-1.859375 -0.48438,-0.640625 -1.45313,-0.640625 -0.95312,0 -1.4375,0.640625 -0.48437,0.625 -0.48437,1.859375 z m 9.57617,-3.3125 q 1.26562,0 1.96875,0.875 0.70312,0.859375 0.70312,2.4375 0,1.578125 -0.70312,2.46875 -0.70313,0.875 -1.96875,0.875 -0.625,0 -1.14063,-0.234375 -0.51562,-0.234375 -0.875,-0.71875 h -0.0625 l -0.20312,0.828125 h -0.70313 v -9.125 h 0.96875 v 2.21875 q 0,0.75 -0.0469,1.34375 h 0.0469 q 0.6875,-0.96875 2.01563,-0.96875 z m -0.14063,0.8125 q -0.98437,0 -1.4375,0.578125 -0.4375,0.5625 -0.4375,1.921875 0,1.359375 0.45313,1.9375 0.45312,0.578125 1.45312,0.578125 0.89063,0 1.32813,-0.640625 0.4375,-0.65625 0.4375,-1.890625 0,-1.25 -0.4375,-1.859375 -0.4375,-0.625 -1.35938,-0.625 z m 5.47852,5.71875 H 497.5459 V 88.26873 h 0.96875 z m -1.04688,-8.15625 q 0,-0.34375 0.15625,-0.5 0.17188,-0.15625 0.42188,-0.15625 0.23437,0 0.39062,0.171875 0.17188,0.15625 0.17188,0.484375 0,0.328125 -0.17188,0.484375 -0.15625,0.15625 -0.39062,0.15625 -0.25,0 -0.42188,-0.15625 -0.15625,-0.15625 -0.15625,-0.484375 z"
       fill-rule="nonzero"
       id="path1586" />
    <path
       fill="#8e7cc3"
       d="m 375.73236,252.66684 v 0 c 0,-4.78656 3.88028,-8.66684 8.66684,-8.66684 h 191.20175 c 2.29858,0 4.50305,0.91312 6.12836,2.53845 1.62536,1.62535 2.53845,3.82981 2.53845,6.12839 v 34.66632 c 0,4.78656 -3.88025,8.66684 -8.66681,8.66684 H 384.3992 c -4.78656,0 -8.66684,-3.88028 -8.66684,-8.66684 z"
       fill-rule="evenodd"
       id="path1588" />
    <path
       fill="#ffffff"
       d="m 399.32037,276.6606 0.125,-0.67188 q -0.375,-0.0156 -0.60937,-0.20312 -0.23438,-0.1875 -0.375,-0.46875 -0.14063,-0.29688 -0.20313,-0.65625 -0.0625,-0.35938 -0.0625,-0.71875 v -1 q 0,-0.6875 -0.32812,-1.21875 -0.3125,-0.53125 -1,-0.79688 0.6875,-0.28125 1,-0.8125 0.32812,-0.53125 0.32812,-1.23437 v -1 q 0,-0.34375 0.0312,-0.70313 0.0469,-0.375 0.17188,-0.67187 0.125,-0.28125 0.375,-0.46875 0.25,-0.1875 0.67187,-0.20313 l -0.125,-0.67187 q -0.59375,0.0156 -1.01562,0.26562 -0.40625,0.23438 -0.67188,0.60938 -0.26562,0.39062 -0.40625,0.89062 -0.125,0.48438 -0.125,0.95313 v 1 q 0,0.85937 -0.40625,1.23437 -0.39062,0.375 -1.21875,0.375 v 0.84375 q 0.82813,0.0156 1.21875,0.39063 0.40625,0.375 0.40625,1.21875 v 1 q 0,0.46875 0.14063,0.9375 0.14062,0.48437 0.40625,0.875 0.26562,0.40625 0.67187,0.64062 0.42188,0.25 1,0.26563 z m 7.8418,-5.40625 v -2 q 0,-0.8125 -0.1875,-1.4375 -0.1875,-0.64063 -0.53125,-1.0625 -0.35938,-0.4375 -0.875,-0.65625 -0.51563,-0.23438 -1.17188,-0.23438 -0.65625,0 -1.17187,0.23438 -0.5,0.21875 -0.85938,0.65625 -0.35937,0.42187 -0.54687,1.0625 -0.1875,0.625 -0.1875,1.4375 v 2 q 0,0.8125 0.1875,1.45312 0.1875,0.625 0.54687,1.04688 0.35938,0.4375 0.875,0.67187 0.51563,0.21875 1.17188,0.21875 0.65625,0 1.15625,-0.21875 0.51562,-0.23437 0.875,-0.67187 0.34375,-0.42188 0.53125,-1.04688 0.1875,-0.64062 0.1875,-1.45312 z m -4.4375,-0.21875 q 0,-0.15625 0,-0.29688 0,-0.14062 0,-0.29687 v -1.42188 q 0,-0.59375 0.125,-1.04687 0.125,-0.46875 0.35937,-0.75 0.20313,-0.23438 0.5,-0.34375 0.29688,-0.125 0.6875,-0.125 0.375,0 0.67188,0.10937 0.29687,0.10938 0.48437,0.34375 0.20313,0.20313 0.32813,0.53125 0.125,0.32813 0.17187,0.75 z m 3.34375,0.45312 q 0,0.625 -0.125,1.09375 -0.125,0.45313 -0.39063,0.73438 -0.20312,0.21875 -0.5,0.32812 -0.28125,0.10938 -0.64062,0.10938 -0.35938,0 -0.64063,-0.0937 -0.28125,-0.10938 -0.46875,-0.3125 -0.21875,-0.20313 -0.35937,-0.53125 -0.14063,-0.32813 -0.1875,-0.75 l 3.3125,-2.54688 q 0,0.17188 0,0.42188 0,0.25 0,0.32812 z m 4.82617,2.32813 q 0,0.34375 0.20312,0.57812 0.21875,0.23438 0.64063,0.23438 0.42187,0 0.64062,-0.23438 0.23438,-0.23437 0.23438,-0.57812 0,-0.35938 -0.23438,-0.59375 -0.21875,-0.25 -0.64062,-0.25 -0.42188,0 -0.64063,0.25 -0.20312,0.25 -0.20312,0.59375 z m 8.82617,0.70312 v -8.53125 h -0.0781 l -3.23438,1.23438 v 1 l 2.23438,-0.85938 v 7.15625 z m 6.43555,-0.25 v -1.03125 h -1.17188 v 1.04688 q 0,0.5 -0.125,0.95312 -0.10937,0.46875 -0.39062,0.875 l 0.67187,0.375 q 0.46875,-0.42187 0.73438,-1.03125 0.28125,-0.60937 0.28125,-1.1875 z m 16.88672,0.25 v -0.89062 h -4.28125 l 2.29687,-2.48438 q 0.3125,-0.34375 0.59375,-0.70312 0.29688,-0.35938 0.53125,-0.71875 0.21875,-0.35938 0.34375,-0.73438 0.125,-0.375 0.125,-0.75 0,-0.51562 -0.1875,-0.9375 -0.17187,-0.4375 -0.5,-0.75 -0.34375,-0.32812 -0.82812,-0.5 -0.46875,-0.1875 -1.07813,-0.1875 -0.65625,0 -1.17187,0.21875 -0.51563,0.20313 -0.85938,0.5625 -0.35937,0.35938 -0.54687,0.84375 -0.1875,0.46875 -0.1875,1.01563 h 1.09375 q 0,-0.40625 0.0937,-0.71875 0.10937,-0.32813 0.3125,-0.5625 0.20312,-0.21875 0.51562,-0.34375 0.32813,-0.125 0.75,-0.125 0.34375,0 0.625,0.125 0.28125,0.125 0.48438,0.32812 0.1875,0.20313 0.28125,0.48438 0.10937,0.28125 0.10937,0.59375 0,0.25 -0.0625,0.5 -0.0625,0.25 -0.21875,0.51562 -0.14062,0.26563 -0.40625,0.59375 -0.25,0.32813 -0.625,0.73438 l -2.79687,3.10937 v 0.78125 z m 3.85742,-0.70312 q 0,0.34375 0.20312,0.57812 0.21875,0.23438 0.64063,0.23438 0.42187,0 0.64062,-0.23438 0.23438,-0.23437 0.23438,-0.57812 0,-0.35938 -0.23438,-0.59375 -0.21875,-0.25 -0.64062,-0.25 -0.42188,0 -0.64063,0.25 -0.20312,0.25 -0.20312,0.59375 z m 6.57617,-4.07813 v 0.875 h 0.78125 q 0.40625,0 0.73438,0.0937 0.34375,0.0937 0.57812,0.28125 0.23438,0.20313 0.35938,0.5 0.14062,0.28125 0.14062,0.67188 0,0.40625 -0.125,0.70312 -0.10937,0.29688 -0.3125,0.5 -0.21875,0.1875 -0.51562,0.29688 -0.29688,0.0937 -0.65625,0.0937 -0.375,0 -0.6875,-0.10938 -0.29688,-0.10937 -0.5,-0.29687 -0.21875,-0.1875 -0.32813,-0.46875 -0.10937,-0.28125 -0.10937,-0.60938 h -1.09375 q 0,0.5625 0.21875,1 0.21875,0.4375 0.57812,0.75 0.35938,0.29688 0.85938,0.46875 0.5,0.15625 1.0625,0.15625 0.5625,0 1.0625,-0.17187 0.5,-0.17188 0.85937,-0.5 0.35938,-0.3125 0.5625,-0.76563 0.20313,-0.46875 0.20313,-1.0625 0,-0.29687 -0.0625,-0.59375 -0.0625,-0.29687 -0.23438,-0.57812 -0.17187,-0.26563 -0.45312,-0.48438 -0.26563,-0.21875 -0.6875,-0.34375 0.34375,-0.15625 0.59375,-0.375 0.25,-0.21875 0.40625,-0.46875 0.15625,-0.25 0.23437,-0.5 0.0781,-0.26562 0.0781,-0.51562 0,-0.59375 -0.1875,-1.04688 -0.1875,-0.45312 -0.53125,-0.75 -0.32813,-0.3125 -0.8125,-0.46875 -0.46875,-0.15625 -1.04688,-0.15625 -0.59375,0 -1.07812,0.1875 -0.48438,0.1875 -0.82813,0.5 -0.34375,0.32813 -0.53125,0.76563 -0.1875,0.42187 -0.1875,0.90625 h 1.09375 q 0,-0.32813 0.10938,-0.59375 0.10937,-0.28125 0.3125,-0.46875 0.20312,-0.1875 0.48437,-0.29688 0.28125,-0.10937 0.625,-0.10937 0.35938,0 0.64063,0.0937 0.28125,0.0937 0.46875,0.28125 0.1875,0.1875 0.28125,0.46875 0.10937,0.28125 0.10937,0.65625 0,0.32812 -0.10937,0.60937 -0.10938,0.26563 -0.32813,0.45313 -0.21875,0.1875 -0.53125,0.3125 -0.3125,0.10937 -0.71875,0.10937 z m 8.68555,4.53125 v -1.03125 h -1.17188 v 1.04688 q 0,0.5 -0.125,0.95312 -0.10937,0.46875 -0.39062,0.875 l 0.67187,0.375 q 0.46875,-0.42187 0.73438,-1.03125 0.28125,-0.60937 0.28125,-1.1875 z m 16.40234,-3.03125 v -0.89062 h -4.48437 v 0.89062 z m 5.9668,3.28125 v -8.53125 h -0.0781 l -3.23437,1.23438 v 1 l 2.23437,-0.85938 v 7.15625 z m 5.57617,-0.70312 q 0,0.34375 0.20313,0.57812 0.21875,0.23438 0.64062,0.23438 0.42188,0 0.64063,-0.23438 0.23437,-0.23437 0.23437,-0.57812 0,-0.35938 -0.23437,-0.59375 -0.21875,-0.25 -0.64063,-0.25 -0.42187,0 -0.64062,0.25 -0.20313,0.25 -0.20313,0.59375 z m 9.7168,-2.15625 v -5.67188 h -1.15625 l -3.82813,5.90625 v 0.64063 h 3.89063 v 1.98437 h 1.09375 v -1.98437 h 1.1875 v -0.875 z m -3.78125,0 2.51562,-3.90625 0.17188,-0.32813 v 4.23438 z m 9.32617,2.60937 v -1.03125 h -1.17188 v 1.04688 q 0,0.5 -0.125,0.95312 -0.10937,0.46875 -0.39062,0.875 l 0.67187,0.375 q 0.46875,-0.42187 0.73438,-1.03125 0.28125,-0.60937 0.28125,-1.1875 z m 12.91797,-4.53125 v 0.875 h 0.78125 q 0.40625,0 0.73437,0.0937 0.34375,0.0937 0.57813,0.28125 0.23437,0.20313 0.35937,0.5 0.14063,0.28125 0.14063,0.67188 0,0.40625 -0.125,0.70312 -0.10938,0.29688 -0.3125,0.5 -0.21875,0.1875 -0.51563,0.29688 -0.29687,0.0937 -0.65625,0.0937 -0.375,0 -0.6875,-0.10938 -0.29687,-0.10937 -0.5,-0.29687 -0.21875,-0.1875 -0.32812,-0.46875 -0.10938,-0.28125 -0.10938,-0.60938 h -1.09375 q 0,0.5625 0.21875,1 0.21875,0.4375 0.57813,0.75 0.35937,0.29688 0.85937,0.46875 0.5,0.15625 1.0625,0.15625 0.5625,0 1.0625,-0.17187 0.5,-0.17188 0.85938,-0.5 0.35937,-0.3125 0.5625,-0.76563 0.20312,-0.46875 0.20312,-1.0625 0,-0.29687 -0.0625,-0.59375 -0.0625,-0.29687 -0.23437,-0.57812 -0.17188,-0.26563 -0.45313,-0.48438 -0.26562,-0.21875 -0.6875,-0.34375 0.34375,-0.15625 0.59375,-0.375 0.25,-0.21875 0.40625,-0.46875 0.15625,-0.25 0.23438,-0.5 0.0781,-0.26562 0.0781,-0.51562 0,-0.59375 -0.1875,-1.04688 -0.1875,-0.45312 -0.53125,-0.75 -0.32812,-0.3125 -0.8125,-0.46875 -0.46875,-0.15625 -1.04687,-0.15625 -0.59375,0 -1.07813,0.1875 -0.48437,0.1875 -0.82812,0.5 -0.34375,0.32813 -0.53125,0.76563 -0.1875,0.42187 -0.1875,0.90625 h 1.09375 q 0,-0.32813 0.10937,-0.59375 0.10938,-0.28125 0.3125,-0.46875 0.20313,-0.1875 0.48438,-0.29688 0.28125,-0.10937 0.625,-0.10937 0.35937,0 0.64062,0.0937 0.28125,0.0937 0.46875,0.28125 0.1875,0.1875 0.28125,0.46875 0.10938,0.28125 0.10938,0.65625 0,0.32812 -0.10938,0.60937 -0.10937,0.26563 -0.32812,0.45313 -0.21875,0.1875 -0.53125,0.3125 -0.3125,0.10937 -0.71875,0.10937 z m 7.82617,4.07813 q 0,0.34375 0.20313,0.57812 0.21875,0.23438 0.64062,0.23438 0.42188,0 0.64063,-0.23438 0.23437,-0.23437 0.23437,-0.57812 0,-0.35938 -0.23437,-0.59375 -0.21875,-0.25 -0.64063,-0.25 -0.42187,0 -0.64062,0.25 -0.20313,0.25 -0.20313,0.59375 z m 9.7168,-2.15625 v -5.67188 h -1.15625 l -3.82813,5.90625 v 0.64063 h 3.89063 v 1.98437 h 1.09375 v -1.98437 h 1.1875 v -0.875 z m -3.78125,0 2.51562,-3.90625 0.17188,-0.32813 v 4.23438 z m 9.32617,2.60937 v -1.03125 h -1.17188 v 1.04688 q 0,0.5 -0.125,0.95312 -0.10937,0.46875 -0.39062,0.875 l 0.67187,0.375 q 0.46875,-0.42187 0.73438,-1.03125 0.28125,-0.60937 0.28125,-1.1875 z m 12.18359,-0.45312 q 0,0.34375 0.20313,0.57812 0.21875,0.23438 0.64062,0.23438 0.42188,0 0.64063,-0.23438 0.23437,-0.23437 0.23437,-0.57812 0,-0.35938 -0.23437,-0.59375 -0.21875,-0.25 -0.64063,-0.25 -0.42187,0 -0.64062,0.25 -0.20313,0.25 -0.20313,0.59375 z m 2.28125,0 q 0,0.34375 0.20313,0.57812 0.21875,0.23438 0.64062,0.23438 0.42188,0 0.64063,-0.23438 0.23437,-0.23437 0.23437,-0.57812 0,-0.35938 -0.23437,-0.59375 -0.21875,-0.25 -0.64063,-0.25 -0.42187,0 -0.64062,0.25 -0.20313,0.25 -0.20313,0.59375 z m 2.1875,0 q 0,0.34375 0.20313,0.57812 0.21875,0.23438 0.64062,0.23438 0.42188,0 0.64063,-0.23438 0.23437,-0.23437 0.23437,-0.57812 0,-0.35938 -0.23437,-0.59375 -0.21875,-0.25 -0.64063,-0.25 -0.42187,0 -0.64062,0.25 -0.20313,0.25 -0.20313,0.59375 z m 3.07618,2.17187 0.125,0.67188 q 0.57812,0 0.98437,-0.26563 0.42188,-0.25 0.70313,-0.64062 0.26562,-0.39063 0.39062,-0.875 0.125,-0.46875 0.125,-0.9375 v -1 q 0,-0.40625 0.0937,-0.70313 0.0937,-0.29687 0.29688,-0.5 0.20312,-0.20312 0.51562,-0.29687 0.3125,-0.0937 0.73438,-0.10938 v -0.84375 q -0.48438,0 -0.82813,-0.125 -0.34375,-0.125 -0.53125,-0.40625 -0.14062,-0.1875 -0.21875,-0.45312 -0.0625,-0.26563 -0.0625,-0.625 v -1 q 0,-0.48438 -0.125,-0.98438 -0.125,-0.51562 -0.4375,-0.90625 -0.25,-0.35937 -0.67187,-0.57812 -0.40625,-0.23438 -0.96875,-0.25 l -0.10938,0.67187 q 0.42188,0.0156 0.65625,0.20313 0.25,0.1875 0.375,0.46875 0.125,0.29687 0.15625,0.67187 0.0469,0.35938 0.0469,0.70313 v 1 q 0,0.45312 0.125,0.84375 0.14062,0.39062 0.42187,0.6875 0.15625,0.15625 0.34375,0.29687 0.20313,0.125 0.4375,0.21875 -0.23437,0.0937 -0.42187,0.21875 -0.1875,0.10938 -0.34375,0.26563 -0.28125,0.29687 -0.42188,0.6875 -0.14062,0.39062 -0.14062,0.84375 v 1 q 0,0.35937 -0.0625,0.71875 -0.0625,0.35937 -0.20313,0.65625 -0.14062,0.28125 -0.39062,0.46875 -0.23438,0.1875 -0.59375,0.20312 z"
       fill-rule="nonzero"
       id="path1590" />
    <path
       fill="#000000"
       fill-opacity="0"
       d="m 480.00067,204.06902 c 0,9.98265 0.0157,14.97317 0.0315,19.9653 0.0158,4.99213 0.0315,9.98586 0.0315,19.9717"
       fill-rule="evenodd"
       id="path1592" />
    <path
       stroke="#93c47d"
       stroke-width="24"
       stroke-linejoin="round"
       stroke-linecap="butt"
       d="m 480.00067,204.06902 c 0,9.98265 0.0157,14.97317 0.0315,19.9653 0.0158,4.99213 0.0315,9.98586 0.0315,19.9717"
       fill-rule="evenodd"
       id="path1594" />
  </g>
</svg>
