<?xml version="1.0" encoding="UTF-8" standalone="no"?>
<svg
   xmlns:dc="http://purl.org/dc/elements/1.1/"
   xmlns:cc="http://creativecommons.org/ns#"
   xmlns:rdf="http://www.w3.org/1999/02/22-rdf-syntax-ns#"
   xmlns:svg="http://www.w3.org/2000/svg"
   xmlns="http://www.w3.org/2000/svg"
   xmlns:sodipodi="http://sodipodi.sourceforge.net/DTD/sodipodi-0.dtd"
   xmlns:inkscape="http://www.inkscape.org/namespaces/inkscape"
   version="1.1"
   viewBox="0 0 669.78479 403.52426"
   fill="none"
   stroke="none"
   stroke-linecap="square"
   stroke-miterlimit="10"
   id="svg902"
   sodipodi:docname="pod-doc_idx.svg"
   width="669.78479"
   height="403.52426"
   inkscape:version="1.0.1 (3bc2e813f5, 2020-09-07)">
  <metadata
     id="metadata908">
    <rdf:RDF>
      <cc:Work
         rdf:about="">
        <dc:format>image/svg+xml</dc:format>
        <dc:type
           rdf:resource="http://purl.org/dc/dcmitype/StillImage" />
      </cc:Work>
    </rdf:RDF>
  </metadata>
  <defs
     id="defs906" />
  <sodipodi:namedview
     pagecolor="#ffffff"
     bordercolor="#666666"
     borderopacity="1"
     objecttolerance="10"
     gridtolerance="10"
     guidetolerance="10"
     inkscape:pageopacity="0"
     inkscape:pageshadow="2"
     inkscape:window-width="640"
     inkscape:window-height="480"
     id="namedview904"
     showgrid="false"
     inkscape:zoom="1.36875"
     inkscape:cx="289.14961"
     inkscape:cy="241.66142"
     inkscape:current-layer="g900" />
  <clipPath
     id="gb1b07343c7_0_1.0">
    <path
       d="M 0,0 H 960 V 540 H 0 Z"
       clip-rule="nonzero"
       id="path833" />
  </clipPath>
  <g
     clip-path="url(#gb1b07343c7_0_1.0)"
     id="g900"
     transform="translate(-190.85039,-28.338582)">
    <path
       fill="#000000"
       fill-opacity="0"
       d="m 473.49213,41.643044 h 10.4567 V 76.54068 h -10.4567 z"
       fill-rule="evenodd"
       id="path838" />
    <path
       fill="#93c47d"
       d="m 428.39438,152.73586 v 0 c 0,-4.78658 3.88028,-8.66684 8.66684,-8.66684 h 85.87891 c 2.29858,0 4.50305,0.9131 6.12836,2.53845 1.62536,1.62535 2.53851,3.82979 2.53851,6.12839 v 34.66632 c 0,4.78656 -3.88031,8.66684 -8.66687,8.66684 h -85.87891 c -4.78656,0 -8.66684,-3.88028 -8.66684,-8.66684 z"
       fill-rule="evenodd"
       id="path840" />
    <path
       fill="#000000"
       d="m 457.17352,173.72963 h -0.0625 q -0.67188,0.98437 -2.01563,0.98437 -1.25,0 -1.95312,-0.85937 -0.70313,-0.875 -0.70313,-2.45313 0,-1.59375 0.70313,-2.46875 0.70312,-0.89062 1.95312,-0.89062 1.3125,0 2.01563,0.95312 h 0.0781 l -0.0469,-0.45312 -0.0312,-0.45313 v -2.625 h 0.98437 v 9.125 h -0.79687 z m -1.95313,0.15625 q 1,0 1.4375,-0.53125 0.45313,-0.54688 0.45313,-1.75 v -0.20313 q 0,-1.375 -0.45313,-1.95312 -0.45312,-0.57813 -1.4375,-0.57813 -0.85937,0 -1.3125,0.67188 -0.45312,0.65625 -0.45312,1.85937 0,1.23438 0.4375,1.85938 0.45312,0.625 1.32812,0.625 z m 10.47852,-2.51563 q 0,1.57813 -0.79687,2.46875 -0.78125,0.875 -2.1875,0.875 -0.85938,0 -1.53125,-0.40625 -0.65625,-0.40625 -1.03125,-1.15625 -0.35938,-0.76562 -0.35938,-1.78125 0,-1.5625 0.78125,-2.4375 0.79688,-0.89062 2.1875,-0.89062 1.34375,0 2.14063,0.90625 0.79687,0.89062 0.79687,2.42187 z m -4.89062,0 q 0,1.23438 0.48437,1.875 0.5,0.64063 1.45313,0.64063 0.95312,0 1.4375,-0.64063 0.5,-0.64062 0.5,-1.875 0,-1.21875 -0.5,-1.85937 -0.48438,-0.64063 -1.45313,-0.64063 -0.95312,0 -1.4375,0.64063 -0.48437,0.625 -0.48437,1.85937 z m 9.15429,3.34375 q -1.39062,0 -2.15625,-0.85937 -0.76562,-0.85938 -0.76562,-2.4375 0,-1.60938 0.78125,-2.48438 0.78125,-0.89062 2.20312,-0.89062 0.46875,0 0.92188,0.10937 0.46875,0.0937 0.73437,0.23438 l -0.29687,0.82812 q -0.32813,-0.14062 -0.70313,-0.21875 -0.375,-0.0781 -0.67187,-0.0781 -1.95313,0 -1.95313,2.48437 0,1.1875 0.46875,1.82813 0.48438,0.625 1.42188,0.625 0.79687,0 1.64062,-0.34375 v 0.85937 q -0.64062,0.34375 -1.625,0.34375 z m 7.52539,1.71875 h -5.4375 v -0.76562 h 5.4375 z m 1.97266,-1.84375 h -0.96875 v -6.42187 h 0.96875 z m -1.04688,-8.15625 q 0,-0.34375 0.15625,-0.5 0.17188,-0.15625 0.42188,-0.15625 0.23437,0 0.39062,0.17188 0.17188,0.15625 0.17188,0.48437 0,0.32813 -0.17188,0.48438 -0.15625,0.15625 -0.39062,0.15625 -0.25,0 -0.42188,-0.15625 -0.15625,-0.15625 -0.15625,-0.48438 z m 7.50391,8.15625 v -4.15625 q 0,-0.78125 -0.35937,-1.17187 -0.34375,-0.39063 -1.10938,-0.39063 -1.01562,0 -1.48437,0.54688 -0.46875,0.54687 -0.46875,1.79687 v 3.375 h -0.96875 v -6.42187 h 0.79687 l 0.15625,0.875 h 0.0469 q 0.29687,-0.46875 0.82812,-0.73438 0.54688,-0.26562 1.20313,-0.26562 1.17187,0 1.75,0.5625 0.59375,0.5625 0.59375,1.79687 v 4.1875 z m 7.34961,-0.85937 h -0.0625 q -0.67187,0.98437 -2.01562,0.98437 -1.25,0 -1.95313,-0.85937 -0.70312,-0.875 -0.70312,-2.45313 0,-1.59375 0.70312,-2.46875 0.70313,-0.89062 1.95313,-0.89062 1.3125,0 2.01562,0.95312 h 0.0781 l -0.0469,-0.45312 -0.0312,-0.45313 v -2.625 h 0.98438 v 9.125 h -0.79688 z m -1.95312,0.15625 q 1,0 1.4375,-0.53125 0.45312,-0.54688 0.45312,-1.75 v -0.20313 q 0,-1.375 -0.45312,-1.95312 -0.45313,-0.57813 -1.4375,-0.57813 -0.85938,0 -1.3125,0.67188 -0.45313,0.65625 -0.45313,1.85937 0,1.23438 0.4375,1.85938 0.45313,0.625 1.32813,0.625 z m 7.65039,0.82812 q -1.42188,0 -2.25,-0.875 -0.82813,-0.875 -0.82813,-2.40625 0,-1.5625 0.76563,-2.46875 0.76562,-0.92187 2.0625,-0.92187 1.20312,0 1.90625,0.79687 0.70312,0.79688 0.70312,2.09375 v 0.625 h -4.42187 q 0.0312,1.125 0.5625,1.71875 0.54687,0.57813 1.53125,0.57813 1.03125,0 2.04687,-0.4375 v 0.875 q -0.51562,0.21875 -0.98437,0.3125 -0.45313,0.10937 -1.09375,0.10937 z m -0.26563,-5.84375 q -0.78125,0 -1.25,0.5 -0.45312,0.5 -0.53125,1.39063 h 3.35938 q 0,-0.92188 -0.40625,-1.40625 -0.40625,-0.48438 -1.17188,-0.48438 z m 5.82617,2.4375 -2.23437,-3.14062 h 1.10937 l 1.6875,2.45312 1.6875,-2.45312 h 1.10938 l -2.23438,3.14062 2.34375,3.28125 h -1.09375 l -1.8125,-2.60937 -1.8125,2.60937 h -1.09375 z"
       fill-rule="nonzero"
       id="path842" />
    <path
       fill="#000000"
       fill-opacity="0"
       d="m 480.00067,196.06902 c 0,23.3307 8.1496,34.99606 16.29922,46.66141 8.1496,11.66536 16.29923,23.3307 16.29923,46.66142"
       fill-rule="evenodd"
       id="path844" />
    <path
       stroke="#93c47d"
       stroke-width="24"
       stroke-linejoin="round"
       stroke-linecap="butt"
       d="m 480.00067,196.06902 c 0,23.3307 8.1496,34.99606 16.29922,46.66141 8.1496,11.66536 16.29923,23.3307 16.29923,46.66142"
       fill-rule="evenodd"
       id="path846" />
    <path
       shape-rendering="crispEdges"
       fill="#f3f3f3"
       d="m 191.35039,325.7723 h 147.35432 v 35.19684 H 191.35039 Z"
       fill-rule="nonzero"
       id="path848" />
    <path
       shape-rendering="crispEdges"
       fill="#f3f3f3"
       d="m 338.7047,325.7723 h 521.4305 v 35.19684 H 338.7047 Z"
       fill-rule="nonzero"
       id="path850" />
    <path
       shape-rendering="crispEdges"
       fill="#f3f3f3"
       d="m 191.35039,360.96915 h 147.35432 v 35.19687 H 191.35039 Z"
       fill-rule="nonzero"
       id="path852" />
    <path
       shape-rendering="crispEdges"
       fill="#f3f3f3"
       d="m 338.7047,360.96915 h 521.4305 v 35.19687 H 338.7047 Z"
       fill-rule="nonzero"
       id="path854" />
    <path
       shape-rendering="crispEdges"
       fill="#b7b7b7"
       d="m 191.35039,396.16602 h 147.35432 v 35.19684 H 191.35039 Z"
       fill-rule="nonzero"
       id="path856" />
    <path
       shape-rendering="crispEdges"
       fill="#b7b7b7"
       d="m 338.7047,396.16602 h 521.4305 v 35.19684 H 338.7047 Z"
       fill-rule="nonzero"
       id="path858" />
    <path
       stroke="#9e9e9e"
       stroke-width="1"
       stroke-linecap="butt"
       d="M 191.35039,290.07678 V 431.86154"
       fill-rule="nonzero"
       id="path860" />
    <path
       stroke="#9e9e9e"
       stroke-width="1"
       stroke-linecap="butt"
       d="M 338.7047,290.07678 V 431.86154"
       fill-rule="nonzero"
       id="path862" />
    <path
       stroke="#9e9e9e"
       stroke-width="1"
       stroke-linecap="butt"
       d="M 860.1352,290.07678 V 431.86154"
       fill-rule="nonzero"
       id="path864" />
    <path
       stroke="#9e9e9e"
       stroke-width="1"
       stroke-linecap="butt"
       d="M 190.8517,290.57547 H 860.63387"
       fill-rule="nonzero"
       id="path866" />
    <path
       stroke="#9e9e9e"
       stroke-width="1"
       stroke-linecap="butt"
       d="M 190.8517,325.7723 H 860.63387"
       fill-rule="nonzero"
       id="path868" />
    <path
       stroke="#9e9e9e"
       stroke-width="1"
       stroke-linecap="butt"
       d="M 190.8517,360.96915 H 860.63387"
       fill-rule="nonzero"
       id="path870" />
    <path
       stroke="#9e9e9e"
       stroke-width="1"
       stroke-linecap="butt"
       d="M 190.8517,396.16602 H 860.63387"
       fill-rule="nonzero"
       id="path872" />
    <path
       stroke="#9e9e9e"
       stroke-width="1"
       stroke-linecap="butt"
       d="M 190.8517,431.36285 H 860.63387"
       fill-rule="nonzero"
       id="path874" />
    <path
       fill="#000000"
       d="m 201.08476,308.79733 v 0.14062 q 0,0.76563 0.1875,1.42188 0.1875,0.65625 0.54687,1.125 0.34375,0.48437 0.85938,0.75 0.51562,0.26562 1.15625,0.26562 0.59375,0 1.03125,-0.21875 0.45312,-0.23437 0.78125,-0.64062 l 0.0937,0.73437 h 1.64062 v -10 h -1.8125 v 3.59375 q -0.32812,-0.375 -0.75,-0.5625 -0.42187,-0.20312 -0.96875,-0.20312 -0.65625,0 -1.17187,0.26562 -0.51563,0.25 -0.875,0.73438 -0.35938,0.46875 -0.54688,1.14062 -0.17187,0.65625 -0.17187,1.45313 z m 1.79687,0.14062 v -0.14062 q 0,-0.4375 0.0781,-0.82813 0.0781,-0.39062 0.25,-0.67187 0.17187,-0.29688 0.4375,-0.45313 0.28125,-0.17187 0.65625,-0.17187 0.46875,0 0.76562,0.20312 0.3125,0.20313 0.5,0.54688 v 2.85937 q -0.1875,0.34375 -0.5,0.54688 -0.3125,0.20312 -0.78125,0.20312 -0.375,0 -0.64062,-0.15625 -0.26563,-0.17187 -0.4375,-0.45312 -0.17188,-0.28125 -0.25,-0.65625 -0.0781,-0.39063 -0.0781,-0.82813 z m 6.13881,-0.14062 v 0.125 q 0,0.78125 0.21875,1.4375 0.21875,0.65625 0.65625,1.125 0.42188,0.48437 1.03125,0.76562 0.625,0.26563 1.42188,0.26563 0.79687,0 1.40625,-0.26563 0.625,-0.28125 1.04687,-0.76562 0.42188,-0.46875 0.64063,-1.125 0.21875,-0.65625 0.21875,-1.4375 v -0.125 q 0,-0.78125 -0.21875,-1.42188 -0.21875,-0.65625 -0.64063,-1.14062 -0.4375,-0.48438 -1.0625,-0.75 -0.60937,-0.28125 -1.40625,-0.28125 -0.78125,0 -1.40625,0.28125 -0.60937,0.26562 -1.03125,0.75 -0.4375,0.48437 -0.65625,1.14062 -0.21875,0.64063 -0.21875,1.42188 z m 1.8125,0.125 v -0.125 q 0,-0.4375 0.0781,-0.8125 0.0937,-0.39063 0.26562,-0.6875 0.1875,-0.29688 0.46875,-0.45313 0.28125,-0.17187 0.6875,-0.17187 0.42188,0 0.70313,0.17187 0.28125,0.15625 0.46875,0.45313 0.17187,0.29687 0.25,0.6875 0.0937,0.375 0.0937,0.8125 v 0.125 q 0,0.45312 -0.0937,0.84375 -0.0781,0.375 -0.25,0.65625 -0.1875,0.29687 -0.46875,0.46875 -0.28125,0.17187 -0.6875,0.17187 -0.40625,0 -0.70313,-0.17187 -0.28125,-0.17188 -0.46875,-0.46875 -0.17187,-0.28125 -0.26562,-0.65625 -0.0781,-0.39063 -0.0781,-0.84375 z m 9.54506,2.14062 q -0.4375,0 -0.71875,-0.17187 -0.28125,-0.1875 -0.4375,-0.46875 -0.17187,-0.29688 -0.23437,-0.67188 -0.0625,-0.375 -0.0625,-0.79687 v -0.1875 q 0,-0.40625 0.0625,-0.78125 0.0625,-0.375 0.23437,-0.67188 0.17188,-0.29687 0.4375,-0.46875 0.28125,-0.17187 0.71875,-0.17187 0.29688,0 0.53125,0.10937 0.25,0.0937 0.42188,0.25 0.1875,0.17188 0.26562,0.40625 0.0937,0.23438 0.0937,0.5 h 1.70313 q 0,-0.625 -0.21875,-1.125 -0.21875,-0.51562 -0.60938,-0.875 -0.40625,-0.34375 -0.96875,-0.53125 -0.54687,-0.20312 -1.20312,-0.20312 -0.8125,0 -1.42188,0.28125 -0.60937,0.28125 -1.03125,0.76562 -0.42187,0.46875 -0.625,1.125 -0.20312,0.64063 -0.20312,1.39063 v 0.1875 q 0,0.75 0.20312,1.40625 0.21875,0.64062 0.625,1.125 0.42188,0.46875 1.03125,0.75 0.625,0.28125 1.4375,0.28125 0.60938,0 1.15625,-0.1875 0.54688,-0.20313 0.95313,-0.53125 0.40625,-0.34375 0.64062,-0.8125 0.23438,-0.46875 0.23438,-1.01563 h -1.70313 q 0,0.25 -0.10937,0.45313 -0.0937,0.20312 -0.26563,0.34375 -0.1875,0.14062 -0.4375,0.21875 -0.23437,0.0781 -0.5,0.0781 z m 10.85756,2.71875 v -1.40625 h -5.92187 v 1.40625 z m 2.51381,-8.45312 v 1.48437 h 2 v 4.09375 h -2 v 1.46875 h 5.73438 v -1.46875 h -1.90625 v -5.57812 z m 1.875,-1.79688 q 0,0.20313 0.0625,0.39063 0.0781,0.17187 0.21875,0.29687 0.14063,0.125 0.32813,0.20313 0.1875,0.0781 0.42187,0.0781 0.48438,0 0.76563,-0.26562 0.28125,-0.28125 0.28125,-0.70313 0,-0.42187 -0.28125,-0.6875 -0.28125,-0.28125 -0.76563,-0.28125 -0.23437,0 -0.42187,0.0781 -0.1875,0.0625 -0.32813,0.1875 -0.14062,0.14062 -0.21875,0.32812 -0.0625,0.17188 -0.0625,0.375 z m 5.45131,5.26563 v 0.14062 q 0,0.76563 0.1875,1.42188 0.1875,0.65625 0.54688,1.125 0.34375,0.48437 0.85937,0.75 0.51563,0.26562 1.15625,0.26562 0.59375,0 1.03125,-0.21875 0.45313,-0.23437 0.78125,-0.64062 l 0.0937,0.73437 h 1.64063 v -10 h -1.8125 v 3.59375 q -0.32813,-0.375 -0.75,-0.5625 -0.42188,-0.20312 -0.96875,-0.20312 -0.65625,0 -1.17188,0.26562 -0.51562,0.25 -0.875,0.73438 -0.35937,0.46875 -0.54687,1.14062 -0.17188,0.65625 -0.17188,1.45313 z m 1.79688,0.14062 v -0.14062 q 0,-0.4375 0.0781,-0.82813 0.0781,-0.39062 0.25,-0.67187 0.17188,-0.29688 0.4375,-0.45313 0.28125,-0.17187 0.65625,-0.17187 0.46875,0 0.76563,0.20312 0.3125,0.20313 0.5,0.54688 v 2.85937 q -0.1875,0.34375 -0.5,0.54688 -0.3125,0.20312 -0.78125,0.20312 -0.375,0 -0.64063,-0.15625 -0.26562,-0.17187 -0.4375,-0.45312 -0.17187,-0.28125 -0.25,-0.65625 -0.0781,-0.39063 -0.0781,-0.82813 z"
       fill-rule="nonzero"
       id="path876" />
    <path
       fill="#000000"
       d="m 351.9391,303.60983 h -1.8125 v 1.71875 h -1.60938 v 1.34375 h 1.60938 v 3.20312 q 0,0.6875 0.1875,1.1875 0.1875,0.5 0.51562,0.8125 0.34375,0.32813 0.8125,0.48438 0.46875,0.15625 1.04688,0.15625 0.29687,0 0.60937,-0.0312 0.3125,-0.0312 0.59375,-0.0781 0.28125,-0.0625 0.53125,-0.14062 0.26563,-0.0781 0.45313,-0.1875 l -0.17188,-1.25 q -0.125,0.0312 -0.29687,0.0781 -0.17188,0.0312 -0.375,0.0469 -0.20313,0.0312 -0.42188,0.0625 -0.21875,0.0156 -0.42187,0.0156 -0.28125,0 -0.51563,-0.0625 -0.23437,-0.0781 -0.39062,-0.23437 -0.17188,-0.14063 -0.26563,-0.39063 -0.0781,-0.26562 -0.0781,-0.65625 v -3.01562 h 2.625 v -1.34375 h -2.625 z m 8.09195,8.89062 q 1.03125,0 1.78125,-0.39062 0.75,-0.39063 1.09375,-0.89063 l -0.90625,-0.96875 q -0.3125,0.40625 -0.8125,0.60938 -0.5,0.1875 -1.04688,0.1875 -0.375,0 -0.70312,-0.10938 -0.3125,-0.125 -0.54688,-0.32812 -0.25,-0.21875 -0.39062,-0.46875 -0.14063,-0.26563 -0.23438,-0.6875 v -0.0156 h 4.78125 v -0.76562 q 0,-0.78125 -0.21875,-1.42188 -0.21875,-0.64062 -0.625,-1.09375 -0.42187,-0.45312 -1.01562,-0.70312 -0.59375,-0.25 -1.35938,-0.25 -0.73437,0 -1.35937,0.26562 -0.625,0.26563 -1.07813,0.75 -0.45312,0.48438 -0.70312,1.15625 -0.25,0.65625 -0.25,1.46875 v 0.25 q 0,0.71875 0.25,1.34375 0.26562,0.60938 0.73437,1.07813 0.46875,0.45312 1.125,0.71875 0.67188,0.26562 1.48438,0.26562 z m -0.20313,-5.82812 q 0.34375,0 0.59375,0.10937 0.26563,0.0937 0.45313,0.28125 0.1875,0.1875 0.28125,0.45313 0.10937,0.25 0.10937,0.53125 v 0.14062 h -2.96875 q 0.0625,-0.34375 0.1875,-0.625 0.14063,-0.28125 0.34375,-0.48437 0.1875,-0.20313 0.4375,-0.29688 0.25,-0.10937 0.5625,-0.10937 z m 8.0138,0.85937 -1.53125,-2.20312 h -1.9375 l 2.35937,3.46875 -2.45312,3.57812 h 1.95312 l 1.60938,-2.29687 1.625,2.29687 h 1.95312 l -2.45312,-3.57812 2.375,-3.46875 h -1.95313 z m 8.09195,-3.92187 h -1.8125 v 1.71875 h -1.60938 v 1.34375 h 1.60938 v 3.20312 q 0,0.6875 0.1875,1.1875 0.1875,0.5 0.51562,0.8125 0.34375,0.32813 0.8125,0.48438 0.46875,0.15625 1.04688,0.15625 0.29687,0 0.60937,-0.0312 0.3125,-0.0312 0.59375,-0.0781 0.28125,-0.0625 0.53125,-0.14062 0.26563,-0.0781 0.45313,-0.1875 l -0.17188,-1.25 q -0.125,0.0312 -0.29687,0.0781 -0.17188,0.0312 -0.375,0.0469 -0.20313,0.0312 -0.42188,0.0625 -0.21875,0.0156 -0.42187,0.0156 -0.28125,0 -0.51563,-0.0625 -0.23437,-0.0781 -0.39062,-0.23437 -0.17188,-0.14063 -0.26563,-0.39063 -0.0781,-0.26562 -0.0781,-0.65625 v -3.01562 h 2.625 v -1.34375 h -2.625 z"
       fill-rule="nonzero"
       id="path878" />
    <path
       fill="#000000"
       d="m 206.36601,344.3848 v -6.28125 h -1.28125 l -4.25,6.5625 v 0.70312 h 4.32812 v 2.20313 h 1.20313 v -2.20313 h 1.3125 v -0.98437 z m -4.1875,0 2.78125,-4.32813 0.20312,-0.35937 v 4.6875 z m 12.18568,0 v -6.28125 h -1.28125 l -4.25,6.5625 v 0.70312 h 4.32813 v 2.20313 h 1.20312 v -2.20313 h 1.3125 v -0.98437 z m -4.1875,0 2.78125,-4.32813 0.20313,-0.35937 v 4.6875 z m 8.59194,2.125 h -0.125 v 1.0625 h 0.125 q 1.17187,0 1.98437,-0.3125 0.82813,-0.32813 1.28125,-0.84375 0.78125,-0.85938 1.01563,-1.96875 0.23437,-1.10938 0.23437,-2.21875 v -0.42188 q 0,-0.78125 -0.21875,-1.5625 -0.21875,-0.78125 -0.64062,-1.29687 -0.375,-0.4375 -0.90625,-0.70313 -0.53125,-0.28125 -1.26563,-0.28125 -0.73437,0 -1.28125,0.26563 -0.54687,0.26562 -0.90625,0.70312 -0.375,0.45313 -0.5625,1.04688 -0.1875,0.59375 -0.1875,1.26562 0,0.57813 0.15625,1.14063 0.15625,0.5625 0.48438,1.01562 0.34375,0.45313 0.84375,0.73438 0.51562,0.26562 1.21875,0.26562 0.35937,0 0.67187,-0.0625 0.3125,-0.0781 0.5625,-0.21875 0.25,-0.125 0.45313,-0.29687 0.20312,-0.17188 0.35937,-0.375 v 0.0156 q -0.0312,0.60938 -0.1875,1.17188 -0.15625,0.54687 -0.60937,1.03125 -0.35938,0.40625 -0.96875,0.625 -0.60938,0.21875 -1.53125,0.21875 z m 1.4375,-3.10938 q -0.4375,0 -0.76563,-0.1875 -0.3125,-0.1875 -0.51562,-0.5 -0.21875,-0.3125 -0.32813,-0.70312 -0.0937,-0.40625 -0.0937,-0.82813 0,-0.46875 0.10938,-0.875 0.125,-0.40625 0.34375,-0.70312 0.23437,-0.29688 0.54687,-0.46875 0.32813,-0.17188 0.75,-0.17188 0.375,0 0.70313,0.1875 0.32812,0.1875 0.57812,0.51563 0.25,0.34375 0.39063,0.84375 0.15625,0.5 0.15625,1.125 v 0.39062 q -0.10938,0.3125 -0.3125,0.5625 -0.1875,0.25 -0.42188,0.42188 -0.25,0.20312 -0.54687,0.29687 -0.28125,0.0937 -0.59375,0.0937 z m 6.56068,3.10938 h -0.125 v 1.0625 h 0.125 q 1.17188,0 1.98438,-0.3125 0.82812,-0.32813 1.28125,-0.84375 0.78125,-0.85938 1.01562,-1.96875 0.23438,-1.10938 0.23438,-2.21875 v -0.42188 q 0,-0.78125 -0.21875,-1.5625 -0.21875,-0.78125 -0.64063,-1.29687 -0.375,-0.4375 -0.90625,-0.70313 -0.53125,-0.28125 -1.26562,-0.28125 -0.73438,0 -1.28125,0.26563 -0.54688,0.26562 -0.90625,0.70312 -0.375,0.45313 -0.5625,1.04688 -0.1875,0.59375 -0.1875,1.26562 0,0.57813 0.15625,1.14063 0.15625,0.5625 0.48437,1.01562 0.34375,0.45313 0.84375,0.73438 0.51563,0.26562 1.21875,0.26562 0.35938,0 0.67188,-0.0625 0.3125,-0.0781 0.5625,-0.21875 0.25,-0.125 0.45312,-0.29687 0.20313,-0.17188 0.35938,-0.375 v 0.0156 q -0.0312,0.60938 -0.1875,1.17188 -0.15625,0.54687 -0.60938,1.03125 -0.35937,0.40625 -0.96875,0.625 -0.60937,0.21875 -1.53125,0.21875 z m 1.4375,-3.10938 q -0.4375,0 -0.76562,-0.1875 -0.3125,-0.1875 -0.51563,-0.5 -0.21875,-0.3125 -0.32812,-0.70312 -0.0937,-0.40625 -0.0937,-0.82813 0,-0.46875 0.10937,-0.875 0.125,-0.40625 0.34375,-0.70312 0.23438,-0.29688 0.54688,-0.46875 0.32812,-0.17188 0.75,-0.17188 0.375,0 0.70312,0.1875 0.32813,0.1875 0.57813,0.51563 0.25,0.34375 0.39062,0.84375 0.15625,0.5 0.15625,1.125 v 0.39062 q -0.10937,0.3125 -0.3125,0.5625 -0.1875,0.25 -0.42187,0.42188 -0.25,0.20312 -0.54688,0.29687 -0.28125,0.0937 -0.59375,0.0937 z"
       fill-rule="nonzero"
       id="path880" />
    <path
       fill="#000000"
       d="m 349.84534,339.85355 v 0.95312 h 1.17188 v -0.96875 q 0,-0.5625 0.15625,-1.03125 0.15625,-0.48437 0.45312,-0.95312 l -0.65625,-0.46875 q -0.26562,0.23437 -0.48437,0.53125 -0.20313,0.29687 -0.34375,0.625 -0.15625,0.34375 -0.23438,0.6875 -0.0625,0.32812 -0.0625,0.625 z m 2.10938,0 v 0.95312 h 1.17187 v -0.96875 q 0,-0.5625 0.15625,-1.03125 0.15625,-0.48437 0.45313,-0.95312 l -0.65625,-0.46875 q -0.26563,0.23437 -0.48438,0.53125 -0.20312,0.29687 -0.34375,0.625 -0.15625,0.34375 -0.23437,0.6875 -0.0625,0.32812 -0.0625,0.625 z m 10.82632,7.71875 v -9.46875 h -1.14063 v 4.0625 h -3.89062 v -4.0625 h -1.125 v 9.46875 h 1.125 v -4.375 h 3.89062 v 4.375 z m 5.17004,0.125 q 1.01563,0 1.71875,-0.40625 0.70313,-0.42188 1.04688,-0.95313 l -0.73438,-0.5625 q -0.32812,0.42188 -0.82812,0.6875 -0.5,0.25 -1.14063,0.25 -0.5,0 -0.90625,-0.17187 -0.39062,-0.1875 -0.67187,-0.5 -0.28125,-0.29688 -0.45313,-0.6875 -0.15625,-0.39063 -0.20312,-0.90625 v -0.0469 h 5.03125 v -0.54687 q 0,-0.73438 -0.1875,-1.35938 -0.1875,-0.64062 -0.5625,-1.10937 -0.375,-0.45313 -0.95313,-0.71875 -0.5625,-0.26563 -1.3125,-0.26563 -0.60937,0 -1.1875,0.25 -0.57812,0.25 -1.03125,0.70313 -0.45312,0.46875 -0.73437,1.14062 -0.26563,0.67188 -0.26563,1.53125 v 0.26563 q 0,0.75 0.25,1.375 0.25,0.625 0.6875,1.07812 0.45313,0.45313 1.0625,0.70313 0.625,0.25 1.375,0.25 z m -0.15625,-6.3125 q 0.45313,0 0.78125,0.17187 0.34375,0.17188 0.5625,0.4375 0.21875,0.28125 0.34375,0.65625 0.125,0.375 0.125,0.70313 v 0.0469 h -3.78125 q 0.0625,-0.48437 0.23438,-0.85937 0.1875,-0.375 0.45312,-0.625 0.26563,-0.26563 0.57813,-0.39063 0.32812,-0.14062 0.70312,-0.14062 z m 17.66825,6.1875 h 1.25 v -0.10938 q -0.125,-0.28125 -0.1875,-0.67187 -0.0625,-0.40625 -0.0625,-0.75 v -3.28125 q 0,-0.59375 -0.21875,-1.03125 -0.20313,-0.4375 -0.57813,-0.75 -0.375,-0.28125 -0.89062,-0.42188 -0.51563,-0.15625 -1.10938,-0.15625 -0.65625,0 -1.1875,0.1875 -0.51562,0.17188 -0.875,0.46875 -0.35937,0.29688 -0.54687,0.67188 -0.1875,0.375 -0.20313,0.75 h 1.21875 q 0,-0.21875 0.0937,-0.42188 0.10938,-0.20312 0.3125,-0.35937 0.1875,-0.14063 0.46875,-0.23438 0.29688,-0.0937 0.64063,-0.0937 0.39062,0 0.70312,0.10938 0.3125,0.0937 0.51563,0.26562 0.21875,0.17188 0.32812,0.4375 0.125,0.25 0.125,0.5625 v 0.5625 h -1.3125 q -0.73437,0 -1.32812,0.14063 -0.59375,0.14062 -1.01563,0.42187 -0.42187,0.29688 -0.65625,0.73438 -0.23437,0.4375 -0.23437,1.01562 0,0.4375 0.17187,0.82813 0.17188,0.375 0.48438,0.65625 0.3125,0.28125 0.76562,0.4375 0.45313,0.15625 1.01563,0.15625 0.34375,0 0.64062,-0.0781 0.3125,-0.0625 0.59375,-0.1875 0.26563,-0.125 0.48438,-0.28125 0.23437,-0.15625 0.40625,-0.34375 0.0312,0.21875 0.0625,0.42188 0.0469,0.20312 0.125,0.34375 z m -2.14063,-0.92188 q -0.34375,0 -0.60937,-0.0781 -0.26563,-0.0937 -0.4375,-0.26563 -0.1875,-0.15625 -0.28125,-0.375 -0.0781,-0.21875 -0.0781,-0.48437 0,-0.26563 0.0937,-0.48438 0.10938,-0.21875 0.29688,-0.375 0.28125,-0.21875 0.73437,-0.32812 0.46875,-0.10938 1.09375,-0.10938 h 1.125 v 1.4375 q -0.10937,0.20313 -0.29687,0.39063 -0.17188,0.1875 -0.42188,0.34375 -0.25,0.15625 -0.5625,0.25 -0.29687,0.0781 -0.65625,0.0781 z m 10.1857,-0.95312 q 0,0.17187 -0.0625,0.32812 -0.0625,0.14063 -0.1875,0.26563 -0.20312,0.20312 -0.5625,0.32812 -0.35937,0.10938 -0.84375,0.10938 -0.29687,0 -0.60937,-0.0625 -0.3125,-0.0625 -0.57813,-0.21875 -0.25,-0.15625 -0.42187,-0.40625 -0.17188,-0.26563 -0.20313,-0.64063 h -1.20312 q 0,0.45313 0.20312,0.875 0.20313,0.40625 0.59375,0.71875 0.39063,0.32813 0.9375,0.51563 0.5625,0.1875 1.28125,0.1875 0.625,0 1.15625,-0.14063 0.53125,-0.15625 0.90625,-0.42187 0.375,-0.28125 0.57813,-0.65625 0.21875,-0.39063 0.21875,-0.85938 0,-0.4375 -0.1875,-0.76562 -0.1875,-0.32813 -0.53125,-0.59375 -0.35938,-0.23438 -0.875,-0.40625 -0.51563,-0.1875 -1.15625,-0.32813 -0.5,-0.0937 -0.82813,-0.20312 -0.3125,-0.10938 -0.5,-0.23438 -0.20312,-0.125 -0.28125,-0.28125 -0.0781,-0.17187 -0.0781,-0.375 0,-0.20312 0.0937,-0.39062 0.10937,-0.20313 0.29687,-0.34375 0.1875,-0.14063 0.46875,-0.21875 0.29688,-0.0937 0.6875,-0.0937 0.375,0 0.67188,0.10937 0.29687,0.10938 0.5,0.26563 0.20312,0.17187 0.3125,0.39062 0.125,0.21875 0.125,0.45313 h 1.20312 q 0,-0.46875 -0.20312,-0.85938 -0.1875,-0.40625 -0.54688,-0.70312 -0.375,-0.29688 -0.89062,-0.46875 -0.51563,-0.17188 -1.17188,-0.17188 -0.60937,0 -1.10937,0.17188 -0.5,0.15625 -0.875,0.4375 -0.35938,0.28125 -0.5625,0.65625 -0.20313,0.375 -0.20313,0.79687 0,0.4375 0.1875,0.76563 0.20313,0.32812 0.5625,0.5625 0.35938,0.25 0.84375,0.4375 0.5,0.17187 1.10938,0.29687 0.5,0.0937 0.82812,0.21875 0.32813,0.10938 0.53125,0.25 0.20313,0.15625 0.28125,0.32813 0.0937,0.17187 0.0937,0.375 z m 5.42004,-1.40625 2.59375,3.28125 h 1.53125 l -3.29687,-4.10938 2.85937,-2.9375 h -1.46875 l -2.3125,2.32813 -0.78125,0.84375 v -6.125 h -1.21875 v 10 h 1.21875 v -2.4375 z m 9.01383,3.40625 q 1.01562,0 1.71875,-0.40625 0.70312,-0.42188 1.04687,-0.95313 l -0.73437,-0.5625 q -0.32813,0.42188 -0.82813,0.6875 -0.5,0.25 -1.14062,0.25 -0.5,0 -0.90625,-0.17187 -0.39063,-0.1875 -0.67188,-0.5 -0.28125,-0.29688 -0.45312,-0.6875 -0.15625,-0.39063 -0.20313,-0.90625 v -0.0469 h 5.03125 v -0.54687 q 0,-0.73438 -0.1875,-1.35938 -0.1875,-0.64062 -0.5625,-1.10937 -0.375,-0.45313 -0.95312,-0.71875 -0.5625,-0.26563 -1.3125,-0.26563 -0.60938,0 -1.1875,0.25 -0.57813,0.25 -1.03125,0.70313 -0.45313,0.46875 -0.73438,1.14062 -0.26562,0.67188 -0.26562,1.53125 v 0.26563 q 0,0.75 0.25,1.375 0.25,0.625 0.6875,1.07812 0.45312,0.45313 1.0625,0.70313 0.625,0.25 1.375,0.25 z m -0.15625,-6.3125 q 0.45312,0 0.78125,0.17187 0.34375,0.17188 0.5625,0.4375 0.21875,0.28125 0.34375,0.65625 0.125,0.375 0.125,0.70313 v 0.0469 h -3.78125 q 0.0625,-0.48437 0.23437,-0.85937 0.1875,-0.375 0.45313,-0.625 0.26562,-0.26563 0.57812,-0.39063 0.32813,-0.14062 0.70313,-0.14062 z m 4.81067,2.60937 v 0.14063 q 0,0.75 0.20312,1.40625 0.20313,0.65625 0.5625,1.14062 0.35938,0.46875 0.875,0.75 0.53125,0.26563 1.15625,0.26563 0.65625,0 1.14063,-0.21875 0.5,-0.21875 0.84375,-0.64063 l 0.0469,0.73438 h 1.10938 v -10 h -1.20313 v 3.65625 q -0.34375,-0.40625 -0.8125,-0.60938 -0.46875,-0.21875 -1.10937,-0.21875 -0.64063,0 -1.17188,0.26563 -0.51562,0.26562 -0.875,0.75 -0.375,0.46875 -0.57812,1.14062 -0.1875,0.65625 -0.1875,1.4375 z m 1.20312,0.14063 v -0.14063 q 0,-0.51562 0.10938,-0.98437 0.10937,-0.46875 0.34375,-0.8125 0.23437,-0.35938 0.59375,-0.5625 0.35937,-0.21875 0.85937,-0.21875 0.59375,0 0.98438,0.28125 0.40625,0.28125 0.64062,0.70312 v 3.26563 q -0.23437,0.46875 -0.64062,0.75 -0.39063,0.26562 -0.98438,0.26562 -0.51562,0 -0.875,-0.20312 -0.34375,-0.20313 -0.57812,-0.5625 -0.23438,-0.34375 -0.34375,-0.79688 -0.10938,-0.46875 -0.10938,-0.98437 z m 15.59012,6.28125 q 0.46875,0 0.82813,-0.17188 0.375,-0.17187 0.64062,-0.4375 0.28125,-0.26562 0.46875,-0.57812 0.1875,-0.29688 0.3125,-0.5625 l 3.57813,-8.14063 h -1.34375 l -1.82813,4.57813 -0.32812,0.82812 -0.3125,-0.85937 -1.92188,-4.54688 h -1.35937 l 3.03125,6.71875 -0.46875,0.9375 q -0.0781,0.125 -0.1875,0.32813 -0.10938,0.20312 -0.26563,0.39062 -0.17187,0.1875 -0.375,0.32813 -0.20312,0.14062 -0.45312,0.14062 -0.0781,0 -0.25,-0.0156 -0.15625,-0.0156 -0.3125,-0.0312 l -0.20313,0.98437 q 0.125,0.0312 0.34375,0.0625 0.23438,0.0469 0.40625,0.0469 z m 7.09195,-6.42188 v 0.14063 q 0,0.75 0.21875,1.40625 0.21875,0.65625 0.64062,1.14062 0.40625,0.46875 1,0.75 0.59375,0.26563 1.34375,0.26563 0.75,0 1.32813,-0.26563 0.59375,-0.28125 1.01562,-0.75 0.40625,-0.48437 0.625,-1.14062 0.23438,-0.65625 0.23438,-1.40625 v -0.14063 q 0,-0.76562 -0.23438,-1.42187 -0.21875,-0.65625 -0.625,-1.14063 -0.42187,-0.48437 -1.01562,-0.75 -0.59375,-0.28125 -1.34375,-0.28125 -0.73438,0 -1.32813,0.28125 -0.59375,0.26563 -1,0.75 -0.42187,0.48438 -0.64062,1.14063 -0.21875,0.65625 -0.21875,1.42187 z m 1.20312,0.14063 v -0.14063 q 0,-0.51562 0.125,-0.98437 0.125,-0.48438 0.375,-0.84375 0.25,-0.35938 0.60938,-0.5625 0.375,-0.21875 0.875,-0.21875 0.5,0 0.875,0.21875 0.375,0.20312 0.64062,0.5625 0.23438,0.35937 0.35938,0.84375 0.14062,0.46875 0.14062,0.98437 v 0.14063 q 0,0.51562 -0.125,0.98437 -0.125,0.46875 -0.375,0.82813 -0.25,0.35937 -0.625,0.57812 -0.375,0.20313 -0.875,0.20313 -0.5,0 -0.875,-0.20313 -0.375,-0.21875 -0.625,-0.57812 -0.25,-0.35938 -0.375,-0.82813 -0.125,-0.46875 -0.125,-0.98437 z m 11.7638,3.4375 h 1.09375 v -7.04688 h -1.20313 v 5.0625 q -0.0937,0.21875 -0.25,0.42188 -0.14062,0.1875 -0.34375,0.3125 -0.23437,0.17187 -0.54687,0.26562 -0.3125,0.0937 -0.71875,0.0937 -0.34375,0 -0.60938,-0.0781 -0.26562,-0.0937 -0.45312,-0.32813 -0.17188,-0.21875 -0.26563,-0.59375 -0.0937,-0.375 -0.0937,-0.95312 v -4.20313 h -1.20312 v 4.1875 q 0,0.79688 0.17187,1.35938 0.17188,0.5625 0.48438,0.92187 0.32812,0.35938 0.76562,0.53125 0.45313,0.17188 1.01563,0.17188 0.6875,0 1.20312,-0.28125 0.53125,-0.29688 0.89063,-0.8125 z m 15.99637,0 h 1.25 v -0.10938 q -0.125,-0.28125 -0.1875,-0.67187 -0.0625,-0.40625 -0.0625,-0.75 v -3.28125 q 0,-0.59375 -0.21875,-1.03125 -0.20313,-0.4375 -0.57813,-0.75 -0.375,-0.28125 -0.89062,-0.42188 -0.51563,-0.15625 -1.10938,-0.15625 -0.65625,0 -1.1875,0.1875 -0.51562,0.17188 -0.875,0.46875 -0.35937,0.29688 -0.54687,0.67188 -0.1875,0.375 -0.20313,0.75 h 1.21875 q 0,-0.21875 0.0937,-0.42188 0.10938,-0.20312 0.3125,-0.35937 0.1875,-0.14063 0.46875,-0.23438 0.29688,-0.0937 0.64063,-0.0937 0.39062,0 0.70312,0.10938 0.3125,0.0937 0.51563,0.26562 0.21875,0.17188 0.32812,0.4375 0.125,0.25 0.125,0.5625 v 0.5625 h -1.3125 q -0.73437,0 -1.32812,0.14063 -0.59375,0.14062 -1.01563,0.42187 -0.42187,0.29688 -0.65625,0.73438 -0.23437,0.4375 -0.23437,1.01562 0,0.4375 0.17187,0.82813 0.17188,0.375 0.48438,0.65625 0.3125,0.28125 0.76562,0.4375 0.45313,0.15625 1.01563,0.15625 0.34375,0 0.64062,-0.0781 0.3125,-0.0625 0.59375,-0.1875 0.26563,-0.125 0.48438,-0.28125 0.23437,-0.15625 0.40625,-0.34375 0.0312,0.21875 0.0625,0.42188 0.0469,0.20312 0.125,0.34375 z m -2.14063,-0.92188 q -0.34375,0 -0.60937,-0.0781 -0.26563,-0.0937 -0.4375,-0.26563 -0.1875,-0.15625 -0.28125,-0.375 -0.0781,-0.21875 -0.0781,-0.48437 0,-0.26563 0.0937,-0.48438 0.10938,-0.21875 0.29688,-0.375 0.28125,-0.21875 0.73437,-0.32812 0.46875,-0.10938 1.09375,-0.10938 h 1.125 v 1.4375 q -0.10937,0.20313 -0.29687,0.39063 -0.17188,0.1875 -0.42188,0.34375 -0.25,0.15625 -0.5625,0.25 -0.29687,0.0781 -0.65625,0.0781 z m 13.27762,-2.65625 v 0.14063 q 0,0.75 0.1875,1.40625 0.20312,0.65625 0.5625,1.14062 0.375,0.46875 0.89062,0.75 0.53125,0.26563 1.1875,0.26563 0.35938,0 0.65625,-0.0625 0.29688,-0.0625 0.54688,-0.1875 0.20312,-0.0937 0.375,-0.21875 0.17187,-0.125 0.32812,-0.29688 v 3.34375 h 1.20313 v -9.75 h -1.10938 l -0.0469,0.70313 q -0.14063,-0.15625 -0.29688,-0.28125 -0.15625,-0.14063 -0.32812,-0.23438 -0.26563,-0.15625 -0.60938,-0.23437 -0.32812,-0.0781 -0.70312,-0.0781 -0.67188,0 -1.20313,0.26563 -0.53125,0.26562 -0.89062,0.75 -0.375,0.46875 -0.5625,1.14062 -0.1875,0.65625 -0.1875,1.4375 z m 1.20312,0.14063 v -0.14063 q 0,-0.51562 0.10938,-0.98437 0.125,-0.46875 0.35937,-0.82813 0.23438,-0.35937 0.59375,-0.57812 0.375,-0.21875 0.875,-0.21875 0.28125,0 0.51563,0.0781 0.23437,0.0625 0.4375,0.1875 0.20312,0.125 0.35937,0.29688 0.15625,0.15625 0.28125,0.35937 v 3.46875 q -0.125,0.21875 -0.29687,0.40625 -0.15625,0.17188 -0.35938,0.29688 -0.20312,0.10937 -0.4375,0.17187 -0.23437,0.0625 -0.51562,0.0625 -0.5,0 -0.85938,-0.20312 -0.35937,-0.21875 -0.59375,-0.57813 -0.23437,-0.34375 -0.35937,-0.8125 -0.10938,-0.46875 -0.10938,-0.98437 z m 11.65445,3.4375 h 1.09375 v -7.04688 h -1.20312 v 5.0625 q -0.0937,0.21875 -0.25,0.42188 -0.14063,0.1875 -0.34375,0.3125 -0.23438,0.17187 -0.54688,0.26562 -0.3125,0.0937 -0.71875,0.0937 -0.34375,0 -0.60937,-0.0781 -0.26563,-0.0937 -0.45313,-0.32813 -0.17187,-0.21875 -0.26562,-0.59375 -0.0937,-0.375 -0.0937,-0.95312 v -4.20313 h -1.20313 v 4.1875 q 0,0.79688 0.17188,1.35938 0.17187,0.5625 0.48437,0.92187 0.32813,0.35938 0.76563,0.53125 0.45312,0.17188 1.01562,0.17188 0.6875,0 1.20313,-0.28125 0.53125,-0.29688 0.89062,-0.8125 z m 6.48255,0.125 q 1.01562,0 1.71875,-0.40625 0.70312,-0.42188 1.04687,-0.95313 l -0.73437,-0.5625 q -0.32813,0.42188 -0.82813,0.6875 -0.5,0.25 -1.14062,0.25 -0.5,0 -0.90625,-0.17187 -0.39063,-0.1875 -0.67188,-0.5 -0.28125,-0.29688 -0.45312,-0.6875 -0.15625,-0.39063 -0.20313,-0.90625 v -0.0469 h 5.03125 v -0.54687 q 0,-0.73438 -0.1875,-1.35938 -0.1875,-0.64062 -0.5625,-1.10937 -0.375,-0.45313 -0.95312,-0.71875 -0.5625,-0.26563 -1.3125,-0.26563 -0.60938,0 -1.1875,0.25 -0.57813,0.25 -1.03125,0.70313 -0.45313,0.46875 -0.73438,1.14062 -0.26562,0.67188 -0.26562,1.53125 v 0.26563 q 0,0.75 0.25,1.375 0.25,0.625 0.6875,1.07812 0.45312,0.45313 1.0625,0.70313 0.625,0.25 1.375,0.25 z m -0.15625,-6.3125 q 0.45312,0 0.78125,0.17187 0.34375,0.17188 0.5625,0.4375 0.21875,0.28125 0.34375,0.65625 0.125,0.375 0.125,0.70313 v 0.0469 h -3.78125 q 0.0625,-0.48437 0.23437,-0.85937 0.1875,-0.375 0.45313,-0.625 0.26562,-0.26563 0.57812,-0.39063 0.32813,-0.14062 0.70313,-0.14062 z m 9.71695,4.3125 q 0,0.17187 -0.0625,0.32812 -0.0625,0.14063 -0.1875,0.26563 -0.20313,0.20312 -0.5625,0.32812 -0.35938,0.10938 -0.84375,0.10938 -0.29688,0 -0.60938,-0.0625 -0.3125,-0.0625 -0.57812,-0.21875 -0.25,-0.15625 -0.42188,-0.40625 -0.17187,-0.26563 -0.20312,-0.64063 h -1.20313 q 0,0.45313 0.20313,0.875 0.20312,0.40625 0.59375,0.71875 0.39062,0.32813 0.9375,0.51563 0.5625,0.1875 1.28125,0.1875 0.625,0 1.15625,-0.14063 0.53125,-0.15625 0.90625,-0.42187 0.375,-0.28125 0.57812,-0.65625 0.21875,-0.39063 0.21875,-0.85938 0,-0.4375 -0.1875,-0.76562 -0.1875,-0.32813 -0.53125,-0.59375 -0.35937,-0.23438 -0.875,-0.40625 -0.51562,-0.1875 -1.15625,-0.32813 -0.5,-0.0937 -0.82812,-0.20312 -0.3125,-0.10938 -0.5,-0.23438 -0.20313,-0.125 -0.28125,-0.28125 -0.0781,-0.17187 -0.0781,-0.375 0,-0.20312 0.0937,-0.39062 0.10938,-0.20313 0.29688,-0.34375 0.1875,-0.14063 0.46875,-0.21875 0.29687,-0.0937 0.6875,-0.0937 0.375,0 0.67187,0.10937 0.29688,0.10938 0.5,0.26563 0.20313,0.17187 0.3125,0.39062 0.125,0.21875 0.125,0.45313 h 1.20313 q 0,-0.46875 -0.20313,-0.85938 -0.1875,-0.40625 -0.54687,-0.70312 -0.375,-0.29688 -0.89063,-0.46875 -0.51562,-0.17188 -1.17187,-0.17188 -0.60938,0 -1.10938,0.17188 -0.5,0.15625 -0.875,0.4375 -0.35937,0.28125 -0.5625,0.65625 -0.20312,0.375 -0.20312,0.79687 0,0.4375 0.1875,0.76563 0.20312,0.32812 0.5625,0.5625 0.35937,0.25 0.84375,0.4375 0.5,0.17187 1.10937,0.29687 0.5,0.0937 0.82813,0.21875 0.32812,0.10938 0.53125,0.25 0.20312,0.15625 0.28125,0.32813 0.0937,0.17187 0.0937,0.375 z m 6.17004,-6.875 h -1.21875 v 1.70312 h -1.84375 v 0.9375 h 1.84375 v 3.82813 q 0,0.64062 0.17188,1.10937 0.1875,0.45313 0.48437,0.75 0.29688,0.28125 0.70313,0.42188 0.40625,0.125 0.875,0.125 0.28125,0 0.5625,-0.0312 0.28125,-0.0156 0.53125,-0.0625 0.26562,-0.0469 0.46875,-0.10938 0.21875,-0.0781 0.375,-0.17187 l -0.17188,-0.84375 q -0.10937,0.0156 -0.28125,0.0625 -0.17187,0.0312 -0.375,0.0625 -0.20312,0.0312 -0.40625,0.0625 -0.20312,0.0156 -0.40625,0.0156 -0.26562,0 -0.5,-0.0625 -0.23437,-0.0625 -0.42187,-0.23437 -0.1875,-0.15625 -0.29688,-0.42188 -0.0937,-0.26562 -0.0937,-0.67187 v -3.82813 h 2.6875 v -0.9375 h -2.6875 z m 5.34192,1.70312 v 1.04688 h 2.39062 v 4.95312 h -2.39062 v 1.04688 h 5.89062 v -1.04688 h -2.29687 v -6 z m 2.23437,-1.84375 q 0,0.29688 0.17188,0.5 0.1875,0.1875 0.54687,0.1875 0.35938,0 0.53125,-0.1875 0.1875,-0.20312 0.1875,-0.5 0,-0.15625 -0.0469,-0.29687 -0.0469,-0.14063 -0.15625,-0.23438 -0.0781,-0.0781 -0.21875,-0.125 -0.125,-0.0469 -0.29688,-0.0469 -0.17187,0 -0.3125,0.0469 -0.125,0.0469 -0.20312,0.125 -0.10938,0.10938 -0.15625,0.25 -0.0469,0.125 -0.0469,0.28125 z m 5.23261,5.3125 v 0.14063 q 0,0.75 0.21875,1.40625 0.21875,0.65625 0.64062,1.14062 0.40625,0.46875 1,0.75 0.59375,0.26563 1.34375,0.26563 0.75,0 1.32813,-0.26563 0.59375,-0.28125 1.01562,-0.75 0.40625,-0.48437 0.625,-1.14062 0.23438,-0.65625 0.23438,-1.40625 v -0.14063 q 0,-0.76562 -0.23438,-1.42187 -0.21875,-0.65625 -0.625,-1.14063 -0.42187,-0.48437 -1.01562,-0.75 -0.59375,-0.28125 -1.34375,-0.28125 -0.73438,0 -1.32813,0.28125 -0.59375,0.26563 -1,0.75 -0.42187,0.48438 -0.64062,1.14063 -0.21875,0.65625 -0.21875,1.42187 z m 1.20312,0.14063 v -0.14063 q 0,-0.51562 0.125,-0.98437 0.125,-0.48438 0.375,-0.84375 0.25,-0.35938 0.60938,-0.5625 0.375,-0.21875 0.875,-0.21875 0.5,0 0.875,0.21875 0.375,0.20312 0.64062,0.5625 0.23438,0.35937 0.35938,0.84375 0.14062,0.46875 0.14062,0.98437 v 0.14063 q 0,0.51562 -0.125,0.98437 -0.125,0.46875 -0.375,0.82813 -0.25,0.35937 -0.625,0.57812 -0.375,0.20313 -0.875,0.20313 -0.5,0 -0.875,-0.20313 -0.375,-0.21875 -0.625,-0.57812 -0.25,-0.35938 -0.375,-0.82813 -0.125,-0.46875 -0.125,-0.98437 z m 7.12317,3.4375 h 1.21875 v -5.04688 q 0.10938,-0.23437 0.28125,-0.42187 0.17188,-0.1875 0.35938,-0.32813 0.25,-0.17187 0.53125,-0.26562 0.28125,-0.0937 0.60937,-0.0937 0.39063,0 0.6875,0.0937 0.29688,0.0937 0.5,0.29687 0.20313,0.20313 0.3125,0.53125 0.10938,0.32813 0.10938,0.79688 v 4.4375 h 1.20312 v -4.46875 q 0,-0.70313 -0.17187,-1.21875 -0.17188,-0.51563 -0.5,-0.84375 -0.3125,-0.32813 -0.76563,-0.48438 -0.45312,-0.15625 -1.01562,-0.15625 -0.40625,0 -0.78125,0.125 -0.35938,0.10938 -0.67188,0.3125 -0.20312,0.14063 -0.39062,0.32813 -0.1875,0.1875 -0.34375,0.40625 l -0.0781,-1.04688 h -1.09375 z m 10.10755,-0.78125 q 0,0.375 0.23437,0.64062 0.23438,0.26563 0.70313,0.26563 0.46875,0 0.70312,-0.25 0.25,-0.26563 0.25,-0.65625 0,-0.39063 -0.25,-0.65625 -0.23437,-0.28125 -0.70312,-0.28125 -0.46875,0 -0.70313,0.28125 -0.23437,0.26562 -0.23437,0.65625 z m 7.99817,0 q 0,0.375 0.23437,0.64062 0.23438,0.26563 0.70313,0.26563 0.46875,0 0.70312,-0.25 0.25,-0.26563 0.25,-0.65625 0,-0.39063 -0.25,-0.65625 -0.23437,-0.28125 -0.70312,-0.28125 -0.46875,0 -0.70313,0.28125 -0.23437,0.26562 -0.23437,0.65625 z m 7.99823,0 q 0,0.375 0.23437,0.64062 0.23438,0.26563 0.70313,0.26563 0.46875,0 0.70312,-0.25 0.25,-0.26563 0.25,-0.65625 0,-0.39063 -0.25,-0.65625 -0.23437,-0.28125 -0.70312,-0.28125 -0.46875,0 -0.70313,0.28125 -0.23437,0.26562 -0.23437,0.65625 z m 8.51379,-8.40625 v -0.95313 h -1.1875 v 0.98438 q 0,0.54687 -0.15625,1.03125 -0.14062,0.48437 -0.45312,0.95312 l 0.65625,0.46875 q 0.28125,-0.23437 0.48437,-0.53125 0.20313,-0.3125 0.35938,-0.64062 0.14062,-0.32813 0.21875,-0.65625 0.0781,-0.34375 0.0781,-0.65625 z m 2.17188,0 v -0.95313 h -1.1875 v 0.98438 q 0,0.54687 -0.15625,1.03125 -0.14063,0.48437 -0.45313,0.95312 l 0.65625,0.46875 q 0.28125,-0.23437 0.48438,-0.53125 0.20312,-0.3125 0.35937,-0.64062 0.14063,-0.32813 0.21875,-0.65625 0.0781,-0.34375 0.0781,-0.65625 z"
       fill-rule="nonzero"
       id="path882" />
    <path
       fill="#000000"
       d="m 206.36601,379.58167 v -6.28125 h -1.28125 l -4.25,6.5625 v 0.70312 h 4.32812 v 2.20313 h 1.20313 v -2.20313 h 1.3125 v -0.98437 z m -4.1875,0 2.78125,-4.32813 0.20312,-0.35937 v 4.6875 z m 7.73256,-1.5625 0.96875,0.25 q 0.15625,-0.14063 0.3125,-0.25 0.15625,-0.125 0.32812,-0.20313 0.17188,-0.0781 0.39063,-0.10937 0.21875,-0.0469 0.51562,-0.0469 0.45313,0 0.79688,0.17188 0.35937,0.15625 0.60937,0.4375 0.23438,0.28125 0.35938,0.67187 0.125,0.375 0.125,0.82813 0,0.48437 -0.10938,0.89062 -0.10937,0.39063 -0.32812,0.67188 -0.23438,0.28125 -0.5625,0.4375 -0.32813,0.14062 -0.76563,0.14062 -0.76562,0 -1.25,-0.40625 -0.48437,-0.42187 -0.59375,-1.23437 h -1.14062 q 0.0625,0.67187 0.3125,1.17187 0.26562,0.48438 0.67187,0.8125 0.39063,0.32813 0.90625,0.48438 0.51563,0.15625 1.09375,0.15625 0.75,0 1.3125,-0.23438 0.5625,-0.23437 0.9375,-0.65625 0.35938,-0.42187 0.53125,-1 0.1875,-0.57812 0.1875,-1.25 0,-0.71875 -0.20312,-1.29687 -0.1875,-0.59375 -0.54688,-1.01563 -0.35937,-0.40625 -0.89062,-0.625 -0.51563,-0.23437 -1.17188,-0.23437 -0.51562,0 -0.90625,0.125 -0.39062,0.125 -0.67187,0.28125 l 0.26562,-2.51563 h 3.84375 v -1.17187 h -4.85937 z m 13.51381,1.125 v -2.21875 q 0,-0.90625 -0.20313,-1.59375 -0.20312,-0.70313 -0.59375,-1.1875 -0.40625,-0.48438 -0.98437,-0.73438 -0.5625,-0.25 -1.28125,-0.25 -0.73438,0 -1.3125,0.25 -0.5625,0.25 -0.95313,0.73438 -0.39062,0.48437 -0.60937,1.1875 -0.20313,0.6875 -0.20313,1.59375 v 2.21875 q 0,0.90625 0.20313,1.60937 0.21875,0.6875 0.60937,1.17188 0.40625,0.48437 0.96875,0.73437 0.57813,0.23438 1.29688,0.23438 0.73437,0 1.29687,-0.23438 0.57813,-0.25 0.96875,-0.73437 0.39063,-0.48438 0.59375,-1.17188 0.20313,-0.70312 0.20313,-1.60937 z m -4.92188,-0.23438 q 0,-0.17187 0,-0.32812 0,-0.17188 0,-0.32813 v -1.59375 q 0,-0.67187 0.125,-1.17187 0.14063,-0.5 0.40625,-0.82813 0.23438,-0.25 0.5625,-0.375 0.32813,-0.14062 0.76563,-0.14062 0.42187,0 0.73437,0.125 0.32813,0.125 0.54688,0.375 0.23437,0.23437 0.35937,0.59375 0.14063,0.35937 0.1875,0.82812 z m 3.71875,0.48438 q 0,0.70312 -0.14062,1.21875 -0.14063,0.51562 -0.4375,0.82812 -0.23438,0.23438 -0.54688,0.35938 -0.3125,0.125 -0.73437,0.125 -0.39063,0 -0.70313,-0.10938 -0.3125,-0.125 -0.53125,-0.34375 -0.23437,-0.23437 -0.39062,-0.59375 -0.14063,-0.35937 -0.20313,-0.84375 l 3.6875,-2.8125 q 0,0.1875 0,0.46875 0,0.26563 0,0.35938 z m 9.20131,-0.25 v -2.21875 q 0,-0.90625 -0.20312,-1.59375 -0.20313,-0.70313 -0.59375,-1.1875 -0.40625,-0.48438 -0.98438,-0.73438 -0.5625,-0.25 -1.28125,-0.25 -0.73437,0 -1.3125,0.25 -0.5625,0.25 -0.95312,0.73438 -0.39063,0.48437 -0.60938,1.1875 -0.20312,0.6875 -0.20312,1.59375 v 2.21875 q 0,0.90625 0.20312,1.60937 0.21875,0.6875 0.60938,1.17188 0.40625,0.48437 0.96875,0.73437 0.57812,0.23438 1.29687,0.23438 0.73438,0 1.29688,-0.23438 0.57812,-0.25 0.96875,-0.73437 0.39062,-0.48438 0.59375,-1.17188 0.20312,-0.70312 0.20312,-1.60937 z m -4.92187,-0.23438 q 0,-0.17187 0,-0.32812 0,-0.17188 0,-0.32813 v -1.59375 q 0,-0.67187 0.125,-1.17187 0.14062,-0.5 0.40625,-0.82813 0.23437,-0.25 0.5625,-0.375 0.32812,-0.14062 0.76562,-0.14062 0.42188,0 0.73438,0.125 0.32812,0.125 0.54687,0.375 0.23438,0.23437 0.35938,0.59375 0.14062,0.35937 0.1875,0.82812 z m 3.71875,0.48438 q 0,0.70312 -0.14063,1.21875 -0.14062,0.51562 -0.4375,0.82812 -0.23437,0.23438 -0.54687,0.35938 -0.3125,0.125 -0.73438,0.125 -0.39062,0 -0.70312,-0.10938 -0.3125,-0.125 -0.53125,-0.34375 -0.23438,-0.23437 -0.39063,-0.59375 -0.14062,-0.35937 -0.20312,-0.84375 l 3.6875,-2.8125 q 0,0.1875 0,0.46875 0,0.26563 0,0.35938 z"
       fill-rule="nonzero"
       id="path884" />
    <path
       fill="#000000"
       d="m 349.84534,375.0504 v 0.95313 h 1.17188 v -0.96875 q 0,-0.5625 0.15625,-1.03125 0.15625,-0.48438 0.45312,-0.95313 l -0.65625,-0.46875 q -0.26562,0.23438 -0.48437,0.53125 -0.20313,0.29688 -0.34375,0.625 -0.15625,0.34375 -0.23438,0.6875 -0.0625,0.32813 -0.0625,0.625 z m 2.10938,0 v 0.95313 h 1.17187 v -0.96875 q 0,-0.5625 0.15625,-1.03125 0.15625,-0.48438 0.45313,-0.95313 l -0.65625,-0.46875 q -0.26563,0.23438 -0.48438,0.53125 -0.20312,0.29688 -0.34375,0.625 -0.15625,0.34375 -0.23437,0.6875 -0.0625,0.32813 -0.0625,0.625 z m 5.37319,7.71875 h 1.23438 l 1.15625,-6.73437 0.0781,-0.40625 0.0625,0.40625 1.15625,6.73437 h 1.23438 l 1.14062,-9.46875 h -1.14062 l -0.67188,6.51563 -0.0469,0.39062 -0.0625,-0.39062 -1.15625,-6.51563 h -1.04688 l -1.14062,6.51563 -0.0781,0.39062 -0.0469,-0.375 -0.67188,-6.53125 h -1.15625 z m 8.71692,-6 v -4 h -1.21875 v 10 h 1.21875 v -5.10937 q 0.125,-0.21875 0.28125,-0.39063 0.17188,-0.17187 0.375,-0.29687 0.23438,-0.17188 0.53125,-0.26563 0.29688,-0.0937 0.625,-0.0937 0.39063,0 0.6875,0.125 0.3125,0.10938 0.51563,0.32813 0.1875,0.20312 0.28125,0.53125 0.10937,0.3125 0.10937,0.73437 v 4.4375 h 1.20313 v -4.4375 q 0,-0.70312 -0.17188,-1.21875 -0.17187,-0.51562 -0.5,-0.85937 -0.3125,-0.34375 -0.76562,-0.5 -0.45313,-0.15625 -1,-0.15625 -0.42188,0 -0.79688,0.125 -0.375,0.10937 -0.6875,0.34375 -0.20312,0.14062 -0.375,0.32812 -0.17187,0.17188 -0.3125,0.375 z m 11.42008,6 h 1.25 v -0.10937 q -0.125,-0.28125 -0.1875,-0.67188 -0.0625,-0.40625 -0.0625,-0.75 v -3.28125 q 0,-0.59375 -0.21875,-1.03125 -0.20313,-0.4375 -0.57813,-0.75 -0.375,-0.28125 -0.89062,-0.42187 -0.51563,-0.15625 -1.10938,-0.15625 -0.65625,0 -1.1875,0.1875 -0.51562,0.17187 -0.875,0.46875 -0.35937,0.29687 -0.54687,0.67187 -0.1875,0.375 -0.20313,0.75 h 1.21875 q 0,-0.21875 0.0937,-0.42187 0.10938,-0.20313 0.3125,-0.35938 0.1875,-0.14062 0.46875,-0.23437 0.29688,-0.0937 0.64063,-0.0937 0.39062,0 0.70312,0.10937 0.3125,0.0937 0.51563,0.26563 0.21875,0.17187 0.32812,0.4375 0.125,0.25 0.125,0.5625 v 0.5625 h -1.3125 q -0.73437,0 -1.32812,0.14062 -0.59375,0.14063 -1.01563,0.42188 -0.42187,0.29687 -0.65625,0.73437 -0.23437,0.4375 -0.23437,1.01563 0,0.4375 0.17187,0.82812 0.17188,0.375 0.48438,0.65625 0.3125,0.28125 0.76562,0.4375 0.45313,0.15625 1.01563,0.15625 0.34375,0 0.64062,-0.0781 0.3125,-0.0625 0.59375,-0.1875 0.26563,-0.125 0.48438,-0.28125 0.23437,-0.15625 0.40625,-0.34375 0.0312,0.21875 0.0625,0.42187 0.0469,0.20313 0.125,0.34375 z m -2.14063,-0.92187 q -0.34375,0 -0.60937,-0.0781 -0.26563,-0.0937 -0.4375,-0.26562 -0.1875,-0.15625 -0.28125,-0.375 -0.0781,-0.21875 -0.0781,-0.48438 0,-0.26562 0.0937,-0.48437 0.10938,-0.21875 0.29688,-0.375 0.28125,-0.21875 0.73437,-0.32813 0.46875,-0.10937 1.09375,-0.10937 h 1.125 v 1.4375 q -0.10937,0.20312 -0.29687,0.39062 -0.17188,0.1875 -0.42188,0.34375 -0.25,0.15625 -0.5625,0.25 -0.29687,0.0781 -0.65625,0.0781 z m 8.35755,-7.82813 h -1.21875 v 1.70313 h -1.84375 v 0.9375 h 1.84375 v 3.82812 q 0,0.64063 0.17187,1.10938 0.1875,0.45312 0.48438,0.75 0.29687,0.28125 0.70312,0.42187 0.40625,0.125 0.875,0.125 0.28125,0 0.5625,-0.0312 0.28125,-0.0156 0.53125,-0.0625 0.26563,-0.0469 0.46875,-0.10937 0.21875,-0.0781 0.375,-0.17188 l -0.17187,-0.84375 q -0.10938,0.0156 -0.28125,0.0625 -0.17188,0.0312 -0.375,0.0625 -0.20313,0.0312 -0.40625,0.0625 -0.20313,0.0156 -0.40625,0.0156 -0.26563,0 -0.5,-0.0625 -0.23438,-0.0625 -0.42188,-0.23438 -0.1875,-0.15625 -0.29687,-0.42187 -0.0937,-0.26563 -0.0937,-0.67188 v -3.82812 h 2.6875 v -0.9375 h -2.6875 z m 13.34011,1.70313 v 1.04687 h 2.39063 v 4.95313 h -2.39063 v 1.04687 h 5.89063 v -1.04687 h -2.29688 v -6 z m 2.23438,-1.84375 q 0,0.29687 0.17187,0.5 0.1875,0.1875 0.54688,0.1875 0.35937,0 0.53125,-0.1875 0.1875,-0.20313 0.1875,-0.5 0,-0.15625 -0.0469,-0.29688 -0.0469,-0.14062 -0.15625,-0.23437 -0.0781,-0.0781 -0.21875,-0.125 -0.125,-0.0469 -0.29687,-0.0469 -0.17188,0 -0.3125,0.0469 -0.125,0.0469 -0.20313,0.125 -0.10937,0.10937 -0.15625,0.25 -0.0469,0.125 -0.0469,0.28125 z m 10.2482,7.01562 q 0,0.17188 -0.0625,0.32813 -0.0625,0.14062 -0.1875,0.26562 -0.20313,0.20313 -0.5625,0.32813 -0.35938,0.10937 -0.84375,0.10937 -0.29688,0 -0.60938,-0.0625 -0.3125,-0.0625 -0.57812,-0.21875 -0.25,-0.15625 -0.42188,-0.40625 -0.17187,-0.26562 -0.20312,-0.64062 h -1.20313 q 0,0.45312 0.20313,0.875 0.20312,0.40625 0.59375,0.71875 0.39062,0.32812 0.9375,0.51562 0.5625,0.1875 1.28125,0.1875 0.625,0 1.15625,-0.14062 0.53125,-0.15625 0.90625,-0.42188 0.375,-0.28125 0.57812,-0.65625 0.21875,-0.39062 0.21875,-0.85937 0,-0.4375 -0.1875,-0.76563 -0.1875,-0.32812 -0.53125,-0.59375 -0.35937,-0.23437 -0.875,-0.40625 -0.51562,-0.1875 -1.15625,-0.32812 -0.5,-0.0937 -0.82812,-0.20313 -0.3125,-0.10937 -0.5,-0.23437 -0.20313,-0.125 -0.28125,-0.28125 -0.0781,-0.17188 -0.0781,-0.375 0,-0.20313 0.0937,-0.39063 0.10938,-0.20312 0.29688,-0.34375 0.1875,-0.14062 0.46875,-0.21875 0.29687,-0.0937 0.6875,-0.0937 0.375,0 0.67187,0.10938 0.29688,0.10937 0.5,0.26562 0.20313,0.17188 0.3125,0.39063 0.125,0.21875 0.125,0.45312 h 1.20313 q 0,-0.46875 -0.20313,-0.85937 -0.1875,-0.40625 -0.54687,-0.70313 -0.375,-0.29687 -0.89063,-0.46875 -0.51562,-0.17187 -1.17187,-0.17187 -0.60938,0 -1.10938,0.17187 -0.5,0.15625 -0.875,0.4375 -0.35937,0.28125 -0.5625,0.65625 -0.20312,0.375 -0.20312,0.79688 0,0.4375 0.1875,0.76562 0.20312,0.32813 0.5625,0.5625 0.35937,0.25 0.84375,0.4375 0.5,0.17188 1.10937,0.29688 0.5,0.0937 0.82813,0.21875 0.32812,0.10937 0.53125,0.25 0.20312,0.15625 0.28125,0.32812 0.0937,0.17188 0.0937,0.375 z m 14.16824,-6.875 h -1.21875 v 1.70313 h -1.84375 v 0.9375 h 1.84375 v 3.82812 q 0,0.64063 0.17188,1.10938 0.1875,0.45312 0.48437,0.75 0.29688,0.28125 0.70313,0.42187 0.40625,0.125 0.875,0.125 0.28125,0 0.5625,-0.0312 0.28125,-0.0156 0.53125,-0.0625 0.26562,-0.0469 0.46875,-0.10937 0.21875,-0.0781 0.375,-0.17188 l -0.17188,-0.84375 q -0.10937,0.0156 -0.28125,0.0625 -0.17187,0.0312 -0.375,0.0625 -0.20312,0.0312 -0.40625,0.0625 -0.20312,0.0156 -0.40625,0.0156 -0.26562,0 -0.5,-0.0625 -0.23437,-0.0625 -0.42187,-0.23438 -0.1875,-0.15625 -0.29688,-0.42187 -0.0937,-0.26563 -0.0937,-0.67188 v -3.82812 h 2.6875 v -0.9375 h -2.6875 z m 6.35755,2.75 v -4 h -1.21875 v 10 h 1.21875 v -5.10937 q 0.125,-0.21875 0.28125,-0.39063 0.17187,-0.17187 0.375,-0.29687 0.23437,-0.17188 0.53125,-0.26563 0.29687,-0.0937 0.625,-0.0937 0.39062,0 0.6875,0.125 0.3125,0.10938 0.51562,0.32813 0.1875,0.20312 0.28125,0.53125 0.10938,0.3125 0.10938,0.73437 v 4.4375 h 1.20312 v -4.4375 q 0,-0.70312 -0.17187,-1.21875 -0.17188,-0.51562 -0.5,-0.85937 -0.3125,-0.34375 -0.76563,-0.5 -0.45312,-0.15625 -1,-0.15625 -0.42187,0 -0.79687,0.125 -0.375,0.10937 -0.6875,0.34375 -0.20313,0.14062 -0.375,0.32812 -0.17188,0.17188 -0.3125,0.375 z m 11.42007,6 h 1.25 v -0.10937 q -0.125,-0.28125 -0.1875,-0.67188 -0.0625,-0.40625 -0.0625,-0.75 v -3.28125 q 0,-0.59375 -0.21875,-1.03125 -0.20313,-0.4375 -0.57813,-0.75 -0.375,-0.28125 -0.89062,-0.42187 -0.51563,-0.15625 -1.10938,-0.15625 -0.65625,0 -1.1875,0.1875 -0.51562,0.17187 -0.875,0.46875 -0.35937,0.29687 -0.54687,0.67187 -0.1875,0.375 -0.20313,0.75 h 1.21875 q 0,-0.21875 0.0937,-0.42187 0.10938,-0.20313 0.3125,-0.35938 0.1875,-0.14062 0.46875,-0.23437 0.29688,-0.0937 0.64063,-0.0937 0.39062,0 0.70312,0.10937 0.3125,0.0937 0.51563,0.26563 0.21875,0.17187 0.32812,0.4375 0.125,0.25 0.125,0.5625 v 0.5625 h -1.3125 q -0.73437,0 -1.32812,0.14062 -0.59375,0.14063 -1.01563,0.42188 -0.42187,0.29687 -0.65625,0.73437 -0.23437,0.4375 -0.23437,1.01563 0,0.4375 0.17187,0.82812 0.17188,0.375 0.48438,0.65625 0.3125,0.28125 0.76562,0.4375 0.45313,0.15625 1.01563,0.15625 0.34375,0 0.64062,-0.0781 0.3125,-0.0625 0.59375,-0.1875 0.26563,-0.125 0.48438,-0.28125 0.23437,-0.15625 0.40625,-0.34375 0.0312,0.21875 0.0625,0.42187 0.0469,0.20313 0.125,0.34375 z m -2.14063,-0.92187 q -0.34375,0 -0.60937,-0.0781 -0.26563,-0.0937 -0.4375,-0.26562 -0.1875,-0.15625 -0.28125,-0.375 -0.0781,-0.21875 -0.0781,-0.48438 0,-0.26562 0.0937,-0.48437 0.10938,-0.21875 0.29688,-0.375 0.28125,-0.21875 0.73437,-0.32813 0.46875,-0.10937 1.09375,-0.10937 h 1.125 v 1.4375 q -0.10937,0.20312 -0.29687,0.39062 -0.17188,0.1875 -0.42188,0.34375 -0.25,0.15625 -0.5625,0.25 -0.29687,0.0781 -0.65625,0.0781 z m 8.35755,-7.82813 h -1.21875 v 1.70313 h -1.84375 v 0.9375 h 1.84375 v 3.82812 q 0,0.64063 0.17187,1.10938 0.1875,0.45312 0.48438,0.75 0.29687,0.28125 0.70312,0.42187 0.40625,0.125 0.875,0.125 0.28125,0 0.5625,-0.0312 0.28125,-0.0156 0.53125,-0.0625 0.26563,-0.0469 0.46875,-0.10937 0.21875,-0.0781 0.375,-0.17188 l -0.17187,-0.84375 q -0.10938,0.0156 -0.28125,0.0625 -0.17188,0.0312 -0.375,0.0625 -0.20313,0.0312 -0.40625,0.0625 -0.20313,0.0156 -0.40625,0.0156 -0.26563,0 -0.5,-0.0625 -0.23438,-0.0625 -0.42188,-0.23438 -0.1875,-0.15625 -0.29687,-0.42187 -0.0937,-0.26563 -0.0937,-0.67188 v -3.82812 h 2.6875 v -0.9375 h -2.6875 z m 7.34195,6.07813 h 1.20312 q 0,-0.25 0.0156,-0.4375 0.0156,-0.20313 0.0625,-0.39063 0.0469,-0.17187 0.15625,-0.34375 0.10937,-0.17187 0.29687,-0.35937 0.3125,-0.26563 0.625,-0.57813 0.3125,-0.32812 0.57813,-0.70312 0.25,-0.35938 0.40625,-0.76563 0.17187,-0.42187 0.17187,-0.89062 0,-0.57813 -0.1875,-1.03125 -0.1875,-0.46875 -0.54687,-0.78125 -0.35938,-0.32813 -0.875,-0.48438 -0.51563,-0.17187 -1.1875,-0.17187 -0.57813,0 -1.09375,0.17187 -0.51563,0.15625 -0.89063,0.45313 -0.375,0.29687 -0.59375,0.73437 -0.21875,0.4375 -0.21875,0.98438 h 1.20313 q 0,-0.32813 0.125,-0.57813 0.14062,-0.25 0.375,-0.40625 0.21875,-0.15625 0.5,-0.23437 0.29687,-0.0781 0.59375,-0.0781 0.40625,0 0.70312,0.10938 0.3125,0.10937 0.51563,0.3125 0.1875,0.17187 0.28125,0.4375 0.0937,0.26562 0.0937,0.60937 0,0.3125 -0.125,0.60938 -0.125,0.29687 -0.3125,0.5625 -0.20313,0.26562 -0.4375,0.5 -0.21875,0.23437 -0.4375,0.46875 -0.32813,0.29687 -0.53125,0.51562 -0.1875,0.21875 -0.29688,0.45313 -0.10937,0.25 -0.14062,0.54687 -0.0312,0.29688 -0.0312,0.76563 z m -0.14063,2.04687 q 0,0.29688 0.1875,0.5 0.1875,0.20313 0.5625,0.20313 0.35938,0 0.54688,-0.20313 0.20312,-0.20312 0.20312,-0.5 0,-0.3125 -0.20312,-0.51562 -0.1875,-0.21875 -0.54688,-0.21875 -0.375,0 -0.5625,0.21875 -0.1875,0.20312 -0.1875,0.51562 z m 8.56067,-8.5625 v -0.95312 h -1.1875 v 0.98437 q 0,0.54688 -0.15625,1.03125 -0.14062,0.48438 -0.45312,0.95313 l 0.65625,0.46875 q 0.28125,-0.23438 0.48437,-0.53125 0.20313,-0.3125 0.35938,-0.64063 0.14062,-0.32812 0.21875,-0.65625 0.0781,-0.34375 0.0781,-0.65625 z m 2.17188,0 v -0.95312 h -1.1875 v 0.98437 q 0,0.54688 -0.15625,1.03125 -0.14063,0.48438 -0.45313,0.95313 l 0.65625,0.46875 q 0.28125,-0.23438 0.48438,-0.53125 0.20312,-0.3125 0.35937,-0.64063 0.14063,-0.32812 0.21875,-0.65625 0.0781,-0.34375 0.0781,-0.65625 z"
       fill-rule="nonzero"
       id="path886" />
    <path
       fill="#000000"
       d="m 206.55351,414.45038 v -5.95313 h -1.84375 l -3.96875,6.28125 0.0625,1.125 h 3.9375 v 2.0625 h 1.8125 v -2.0625 h 1.09375 v -1.45312 z m -4.04688,0 2.0625,-3.21875 0.17188,-0.3125 v 3.53125 z m 6.85756,-1.15625 1.4375,0.35937 q 0.10938,-0.0937 0.21875,-0.1875 0.125,-0.0937 0.26563,-0.17187 0.15625,-0.0781 0.34375,-0.10938 0.20312,-0.0469 0.46875,-0.0469 0.39062,0 0.6875,0.125 0.29687,0.10937 0.48437,0.34375 0.20313,0.23437 0.29688,0.54687 0.0937,0.3125 0.0937,0.6875 0,0.39063 -0.0781,0.71875 -0.0781,0.32813 -0.23437,0.57813 -0.15625,0.23437 -0.42188,0.375 -0.25,0.125 -0.60937,0.125 -0.59375,0 -0.98438,-0.32813 -0.375,-0.34375 -0.4375,-0.95312 h -1.78125 q 0.0156,0.65625 0.28125,1.17187 0.28125,0.5 0.73438,0.85938 0.4375,0.34375 1,0.53125 0.57812,0.17187 1.1875,0.17187 0.8125,0 1.40625,-0.25 0.59375,-0.25 0.98437,-0.6875 0.375,-0.4375 0.5625,-1 0.20313,-0.57812 0.20313,-1.21875 0,-0.75 -0.20313,-1.34375 -0.1875,-0.59375 -0.5625,-1 -0.35937,-0.40625 -0.90625,-0.625 -0.53125,-0.21875 -1.21875,-0.21875 -0.48437,0 -0.85937,0.125 -0.35938,0.125 -0.5625,0.23438 l 0.23437,-2.07813 h 3.76563 v -1.53125 h -5.26563 z m 14.07631,1.0625 V 412.091 q 0,-0.90625 -0.21875,-1.60937 -0.21875,-0.70313 -0.60937,-1.17188 -0.40625,-0.46875 -0.98438,-0.70312 -0.5625,-0.25 -1.28125,-0.25 -0.71875,0 -1.29687,0.25 -0.5625,0.23437 -0.95313,0.70312 -0.40625,0.46875 -0.625,1.17188 -0.20312,0.70312 -0.20312,1.60937 v 2.26563 q 0,0.92187 0.21875,1.625 0.21875,0.70312 0.60937,1.17187 0.40625,0.46875 0.96875,0.71875 0.57813,0.23438 1.29688,0.23438 0.70312,0 1.28125,-0.23438 0.57812,-0.25 0.96875,-0.71875 0.40625,-0.46875 0.60937,-1.17187 0.21875,-0.70313 0.21875,-1.625 z m -4.35937,-0.78125 q 0,-0.20313 0,-0.29688 0,-0.10937 0,-0.42187 v -1.04688 q 0,-0.53125 0.0781,-0.90625 0.0937,-0.39062 0.26563,-0.625 0.15625,-0.23437 0.375,-0.34375 0.23437,-0.10937 0.54687,-0.10937 0.26563,0 0.48438,0.0937 0.21875,0.0781 0.375,0.25 0.1875,0.23437 0.28125,0.625 0.10937,0.375 0.125,0.90625 z m 2.53125,1.0625 q 0,0.51562 -0.0781,0.90625 -0.0781,0.39062 -0.25,0.64062 -0.15625,0.23438 -0.39062,0.34375 -0.23438,0.10938 -0.53125,0.10938 -0.34375,0 -0.57813,-0.125 -0.23437,-0.125 -0.39062,-0.39063 -0.14063,-0.21875 -0.21875,-0.54687 -0.0781,-0.34375 -0.0937,-0.76563 l 2.53125,-1.875 q 0,0.1875 0,0.29688 0,0.0937 0,0.29687 z m 8.07631,3.32812 v -9.46875 h -0.0937 l -4.125,1.48438 v 1.57812 l 2.39062,-0.85937 v 7.26562 z"
       fill-rule="nonzero"
       id="path888" />
    <path
       fill="#000000"
       d="m 349.8297,410.23163 v 1.14062 h 1.4375 v -1.14062 q 0,-0.64063 0.15625,-1.125 0.17187,-0.48438 0.42187,-0.90625 l -0.82812,-0.51563 q -0.26563,0.23438 -0.48438,0.53125 -0.20312,0.29688 -0.35937,0.64063 -0.17188,0.34375 -0.26563,0.70312 -0.0781,0.34375 -0.0781,0.67188 z m 2.21875,0 v 1.14062 h 1.4375 v -1.14062 q 0,-0.64063 0.15625,-1.125 0.17187,-0.48438 0.42187,-0.90625 l -0.82812,-0.51563 q -0.26563,0.23438 -0.48438,0.53125 -0.20312,0.29688 -0.35937,0.64063 -0.17188,0.34375 -0.26563,0.70312 -0.0781,0.34375 -0.0781,0.67188 z m 10.76382,7.73437 v -9.46875 h -1.8125 v 3.875 h -2.6875 v -3.875 h -1.8125 v 9.46875 h 1.8125 v -4.10937 h 2.6875 v 4.10937 z m 5.21692,0.125 q 1.03125,0 1.78125,-0.39062 0.75,-0.39063 1.09375,-0.89063 l -0.90625,-0.96875 q -0.3125,0.40625 -0.8125,0.60938 -0.5,0.1875 -1.04687,0.1875 -0.375,0 -0.70313,-0.10938 -0.3125,-0.125 -0.54687,-0.32812 -0.25,-0.21875 -0.39063,-0.46875 -0.14062,-0.26563 -0.23437,-0.6875 v -0.0156 h 4.78125 v -0.76562 q 0,-0.78125 -0.21875,-1.42188 -0.21875,-0.64062 -0.625,-1.09375 -0.42188,-0.45312 -1.01563,-0.70312 -0.59375,-0.25 -1.35937,-0.25 -0.73438,0 -1.35938,0.26562 -0.625,0.26563 -1.07812,0.75 -0.45313,0.48438 -0.70313,1.15625 -0.25,0.65625 -0.25,1.46875 v 0.25 q 0,0.71875 0.25,1.34375 0.26563,0.60938 0.73438,1.07813 0.46875,0.45312 1.125,0.71875 0.67187,0.26562 1.48437,0.26562 z m -0.20312,-5.82812 q 0.34375,0 0.59375,0.10937 0.26562,0.0937 0.45312,0.28125 0.1875,0.1875 0.28125,0.45313 0.10938,0.25 0.10938,0.53125 v 0.14062 h -2.96875 q 0.0625,-0.34375 0.1875,-0.625 0.14062,-0.28125 0.34375,-0.48437 0.1875,-0.20313 0.4375,-0.29688 0.25,-0.10937 0.5625,-0.10937 z m 5.17007,-4.29688 v 1.48438 h 2.10938 v 7.04687 h -2.10938 v 1.46875 h 5.95313 v -1.46875 h -2.01563 V 407.966 Z m 7.6388,12.70313 h 1.8125 v -3.3125 q 0.125,0.14062 0.26562,0.25 0.14063,0.10937 0.28125,0.20312 0.25,0.14063 0.54688,0.20313 0.29687,0.0781 0.65625,0.0781 0.65625,0 1.17187,-0.26562 0.51563,-0.28125 0.875,-0.75 0.34375,-0.48438 0.51563,-1.14063 0.1875,-0.65625 0.1875,-1.42187 v -0.14063 q 0,-0.79687 -0.1875,-1.45312 -0.17188,-0.67188 -0.53125,-1.14063 -0.34375,-0.46875 -0.85938,-0.71875 -0.51562,-0.26562 -1.1875,-0.26562 -0.32812,0 -0.60937,0.0781 -0.28125,0.0625 -0.51563,0.1875 -0.20312,0.0937 -0.375,0.23438 -0.15625,0.14062 -0.29687,0.3125 l -0.0781,-0.6875 h -1.67187 z m 4.5,-6.29688 v 0.14063 q 0,0.4375 -0.0781,0.82812 -0.0781,0.375 -0.25,0.67188 -0.17187,0.29687 -0.4375,0.46875 -0.26562,0.15625 -0.65625,0.15625 -0.23437,0 -0.4375,-0.0469 -0.1875,-0.0469 -0.34375,-0.14062 -0.15625,-0.0937 -0.28125,-0.21875 -0.10937,-0.14063 -0.20312,-0.3125 v -2.9375 q 0.0937,-0.1875 0.21875,-0.32813 0.125,-0.14062 0.29687,-0.21875 0.15625,-0.0781 0.32813,-0.125 0.1875,-0.0469 0.40625,-0.0469 0.39062,0 0.65625,0.17187 0.26562,0.15625 0.45312,0.4375 0.15625,0.28125 0.23438,0.67188 0.0937,0.39062 0.0937,0.82812 z m 12.60574,-3.45312 h -1.5625 v 7.04687 h 1.65625 v -5.26562 q 0.0312,-0.0937 0.0625,-0.15625 0.0469,-0.0781 0.0937,-0.125 0.0781,-0.0781 0.15625,-0.10938 0.0937,-0.0469 0.21875,-0.0469 0.0937,0 0.1875,0.0312 0.0937,0.0312 0.17187,0.0937 0.0625,0.0781 0.0937,0.21875 0.0469,0.125 0.0469,0.32812 v 5.03125 h 1.59375 v -5.1875 q 0,-0.0781 0,-0.125 0,-0.0469 0,-0.0625 0.0312,-0.0781 0.0781,-0.125 0.0469,-0.0625 0.10938,-0.10937 0.0625,-0.0469 0.14062,-0.0625 0.0937,-0.0312 0.1875,-0.0312 0.0937,0 0.1875,0.0312 0.10938,0.0312 0.17188,0.0937 0.0781,0.0781 0.10937,0.21875 0.0469,0.125 0.0469,0.32812 v 5.03125 h 1.64062 v -5.03125 q 0,-0.57812 -0.10937,-0.98437 -0.10938,-0.40625 -0.3125,-0.67188 -0.20313,-0.25 -0.48438,-0.35937 -0.28125,-0.125 -0.59375,-0.125 -0.25,0 -0.46875,0.0625 -0.21875,0.0625 -0.39062,0.1875 -0.125,0.0937 -0.25,0.21875 -0.10938,0.125 -0.20313,0.28125 -0.0625,-0.17188 -0.14062,-0.29688 -0.0781,-0.125 -0.1875,-0.21875 -0.14063,-0.10937 -0.34375,-0.17187 -0.1875,-0.0625 -0.4375,-0.0625 -0.51563,0 -0.875,0.26562 -0.34375,0.26563 -0.54688,0.71875 z m 10.27945,7.17187 q 1.03125,0 1.78125,-0.39062 0.75,-0.39063 1.09375,-0.89063 l -0.90625,-0.96875 q -0.3125,0.40625 -0.8125,0.60938 -0.5,0.1875 -1.04688,0.1875 -0.375,0 -0.70312,-0.10938 -0.3125,-0.125 -0.54688,-0.32812 -0.25,-0.21875 -0.39062,-0.46875 -0.14063,-0.26563 -0.23438,-0.6875 v -0.0156 h 4.78125 v -0.76562 q 0,-0.78125 -0.21875,-1.42188 -0.21875,-0.64062 -0.625,-1.09375 -0.42187,-0.45312 -1.01562,-0.70312 -0.59375,-0.25 -1.35938,-0.25 -0.73437,0 -1.35937,0.26562 -0.625,0.26563 -1.07813,0.75 -0.45312,0.48438 -0.70312,1.15625 -0.25,0.65625 -0.25,1.46875 v 0.25 q 0,0.71875 0.25,1.34375 0.26562,0.60938 0.73437,1.07813 0.46875,0.45312 1.125,0.71875 0.67188,0.26562 1.48438,0.26562 z m -0.20313,-5.82812 q 0.34375,0 0.59375,0.10937 0.26563,0.0937 0.45313,0.28125 0.1875,0.1875 0.28125,0.45313 0.10937,0.25 0.10937,0.53125 v 0.14062 h -2.96875 q 0.0625,-0.34375 0.1875,-0.625 0.14063,-0.28125 0.34375,-0.48437 0.1875,-0.20313 0.4375,-0.29688 0.25,-0.10937 0.5625,-0.10937 z m 19.34012,1.65625 v -1.375 q 0,-0.64063 -0.125,-1.20313 -0.125,-0.57812 -0.34375,-1.0625 -0.21875,-0.42187 -0.51562,-0.76562 -0.28125,-0.35938 -0.65625,-0.60938 -0.39063,-0.26562 -0.875,-0.40625 -0.46875,-0.14062 -1.01563,-0.14062 -0.54687,0 -1.01562,0.14062 -0.45313,0.14063 -0.8125,0.39063 -0.39063,0.26562 -0.6875,0.625 -0.28125,0.35937 -0.48438,0.8125 -0.20312,0.46875 -0.3125,1.03125 -0.10937,0.5625 -0.10937,1.1875 v 1.375 q 0,0.59375 0.0937,1.125 0.0937,0.51562 0.28125,0.96875 0.20312,0.48437 0.5,0.875 0.29687,0.39062 0.67187,0.65625 0.39063,0.26562 0.85938,0.40625 0.46875,0.14062 1.01562,0.14062 0.53125,0 0.98438,-0.125 0.45312,-0.125 0.82812,-0.34375 0.40625,-0.26562 0.73438,-0.65625 0.32812,-0.39062 0.54687,-0.85937 0.21875,-0.46875 0.32813,-1.01563 0.10937,-0.54687 0.10937,-1.17187 z m -1.85937,-1.39063 v 1.39063 q 0,0.35937 -0.0469,0.6875 -0.0312,0.3125 -0.0937,0.59375 -0.0937,0.34375 -0.25,0.625 -0.15625,0.28125 -0.375,0.46875 -0.17187,0.14062 -0.40625,0.21875 -0.21875,0.0781 -0.5,0.0781 -0.28125,0 -0.51562,-0.0781 -0.21875,-0.0937 -0.39063,-0.25 -0.1875,-0.17188 -0.32812,-0.45313 -0.14063,-0.28125 -0.20313,-0.625 -0.0781,-0.28125 -0.10937,-0.59375 -0.0156,-0.32812 -0.0156,-0.67187 v -1.39063 q 0,-0.35937 0.0312,-0.6875 0.0312,-0.34375 0.0937,-0.60937 0.0781,-0.375 0.23438,-0.64063 0.15625,-0.28125 0.375,-0.45312 0.17187,-0.125 0.375,-0.1875 0.20312,-0.0781 0.45312,-0.0781 0.26563,0 0.48438,0.0781 0.21875,0.0625 0.39062,0.20312 0.21875,0.17188 0.375,0.45313 0.17188,0.26562 0.26563,0.625 0.0781,0.28125 0.10937,0.60937 0.0469,0.32813 0.0469,0.6875 z m 9.65442,1.98438 v -0.125 q 0,-0.64063 -0.125,-1.20313 -0.10938,-0.5625 -0.34375,-1.01562 -0.14063,-0.28125 -0.34375,-0.51563 -0.1875,-0.23437 -0.4375,-0.40625 -0.29688,-0.21875 -0.6875,-0.32812 -0.375,-0.125 -0.82813,-0.125 -0.32812,0 -0.60937,0.0781 -0.28125,0.0625 -0.53125,0.20313 -0.15625,0.0781 -0.3125,0.21875 -0.15625,0.125 -0.28125,0.26562 V 407.966 h -1.8125 v 10 h 1.625 l 0.0937,-0.75 q 0.10937,0.14063 0.23437,0.26563 0.125,0.125 0.26563,0.21875 0.26562,0.1875 0.59375,0.28125 0.34375,0.10937 0.75,0.10937 0.45312,0 0.82812,-0.10937 0.375,-0.10938 0.67188,-0.32813 0.32812,-0.23437 0.5625,-0.57812 0.25,-0.34375 0.40625,-0.76563 0.14062,-0.375 0.20312,-0.82812 0.0781,-0.45313 0.0781,-0.96875 z m -1.8125,-0.125 v 0.125 q 0,0.28125 -0.0312,0.53125 -0.0156,0.25 -0.0625,0.46875 -0.0625,0.29687 -0.20313,0.53125 -0.125,0.21875 -0.32812,0.35937 -0.14063,0.10938 -0.34375,0.17188 -0.1875,0.0625 -0.42188,0.0625 -0.28125,0 -0.5,-0.0625 -0.21875,-0.0781 -0.375,-0.20313 -0.14062,-0.0937 -0.25,-0.21875 -0.0937,-0.14062 -0.17187,-0.29687 v -2.8125 q 0.0625,-0.125 0.125,-0.23438 0.0781,-0.10937 0.15625,-0.1875 0.1875,-0.17187 0.42187,-0.26562 0.25,-0.0937 0.57813,-0.0937 0.23437,0 0.42187,0.0625 0.20313,0.0469 0.34375,0.15625 0.23438,0.1875 0.34375,0.40625 0.10938,0.20312 0.1875,0.46875 0.0625,0.21875 0.0781,0.48437 0.0312,0.26563 0.0312,0.54688 z m 3.95132,-3.46875 v 1.48437 h 2 v 4.09375 h -2 v 1.46875 h 5.73438 v -1.46875 h -1.90625 v -5.57812 z m 1.875,-1.79688 q 0,0.20313 0.0625,0.39063 0.0781,0.17187 0.21875,0.29687 0.14063,0.125 0.32813,0.20313 0.1875,0.0781 0.42187,0.0781 0.48438,0 0.76563,-0.26562 0.28125,-0.28125 0.28125,-0.70313 0,-0.42187 -0.28125,-0.6875 -0.28125,-0.28125 -0.76563,-0.28125 -0.23437,0 -0.42187,0.0781 -0.1875,0.0625 -0.32813,0.1875 -0.14062,0.14062 -0.21875,0.32812 -0.0625,0.17188 -0.0625,0.375 z m 11.96692,5.39063 v -1.45313 h -5.42188 v 1.45313 z m 2.21695,3.45312 h 1.65625 l 0.79687,-5.10937 0.0625,-0.48438 0.0781,0.48438 0.82812,5.10937 h 1.65625 l 1.3125,-9.46875 h -1.6875 l -0.64062,5.29688 -0.0469,0.40625 -0.0625,-0.39063 -0.78125,-5.3125 h -1.3125 l -0.75,5.26563 -0.0625,0.39062 -0.0469,-0.35937 -0.625,-5.29688 h -1.67188 z m 11.84192,0 h 1.84375 v -0.10937 q -0.14063,-0.26563 -0.21875,-0.64063 -0.0625,-0.375 -0.0625,-0.9375 v -3.01562 q 0,-0.60938 -0.23438,-1.07813 -0.21875,-0.46875 -0.625,-0.76562 -0.40625,-0.3125 -0.95312,-0.46875 -0.54688,-0.15625 -1.1875,-0.15625 -0.71875,0 -1.26563,0.1875 -0.54687,0.17187 -0.92187,0.46875 -0.39063,0.3125 -0.59375,0.71875 -0.1875,0.40625 -0.1875,0.84375 h 1.8125 q 0,-0.1875 0.0469,-0.34375 0.0625,-0.15625 0.17188,-0.26563 0.14062,-0.125 0.34375,-0.1875 0.20312,-0.0625 0.5,-0.0625 0.3125,0 0.5625,0.0781 0.25,0.0781 0.40625,0.23437 0.15625,0.14063 0.23437,0.34375 0.0781,0.1875 0.0781,0.4375 v 0.42188 h -1.01563 q -0.76562,0 -1.375,0.14062 -0.60937,0.14063 -1.01562,0.40625 -0.45313,0.28125 -0.6875,0.73438 -0.21875,0.45312 -0.21875,1.04687 0,0.45313 0.17187,0.84375 0.1875,0.39063 0.51563,0.65625 0.32812,0.28125 0.78125,0.4375 0.45312,0.15625 0.98437,0.15625 0.34375,0 0.625,-0.0625 0.28125,-0.0625 0.53125,-0.17187 0.23438,-0.0937 0.42188,-0.23438 0.20312,-0.15625 0.34375,-0.3125 0.0312,0.1875 0.0781,0.35938 0.0469,0.17187 0.10938,0.29687 z m -1.71875,-1.26562 q -0.25,0 -0.45313,-0.0625 -0.1875,-0.0625 -0.3125,-0.17188 -0.14062,-0.10937 -0.20312,-0.26562 -0.0625,-0.15625 -0.0625,-0.34375 0,-0.25 0.0781,-0.45313 0.0937,-0.20312 0.28125,-0.35937 0.20313,-0.14063 0.5,-0.21875 0.29688,-0.0781 0.71875,-0.0781 h 0.92188 v 1.20313 q -0.0781,0.14062 -0.21875,0.28125 -0.125,0.125 -0.32813,0.23437 -0.1875,0.0937 -0.42187,0.17188 -0.23438,0.0625 -0.5,0.0625 z m 5.32632,1.26562 h 1.8125 v -5 q 0.0937,-0.14062 0.20313,-0.25 0.10937,-0.125 0.25,-0.21875 0.15625,-0.10937 0.375,-0.17187 0.21875,-0.0625 0.48437,-0.0625 0.3125,0 0.5625,0.0625 0.25,0.0625 0.42188,0.21875 0.17187,0.15625 0.26562,0.4375 0.0937,0.26562 0.0937,0.67187 v 4.3125 h 1.8125 v -4.32812 q 0,-0.78125 -0.1875,-1.3125 -0.17187,-0.53125 -0.48437,-0.875 -0.32813,-0.34375 -0.78125,-0.5 -0.4375,-0.15625 -0.96875,-0.15625 -0.42188,0 -0.79688,0.125 -0.35937,0.10937 -0.67187,0.32812 -0.1875,0.125 -0.34375,0.29688 -0.15625,0.15625 -0.29688,0.35937 l -0.10937,-0.98437 h -1.64063 z m 18.74637,-3.89062 2.34375,3.89062 h 2.17188 l -3.29688,-5.28125 3.1875,-4.1875 h -2.23437 l -2.3125,3.17188 -0.85938,1.15625 v -4.32813 h -1.82812 v 9.46875 h 1.82812 v -2.79687 z m 8.65442,4.01562 q 1.03125,0 1.78125,-0.39062 0.75,-0.39063 1.09375,-0.89063 l -0.90625,-0.96875 q -0.3125,0.40625 -0.8125,0.60938 -0.5,0.1875 -1.04688,0.1875 -0.375,0 -0.70312,-0.10938 -0.3125,-0.125 -0.54688,-0.32812 -0.25,-0.21875 -0.39062,-0.46875 -0.14063,-0.26563 -0.23438,-0.6875 v -0.0156 h 4.78125 v -0.76562 q 0,-0.78125 -0.21875,-1.42188 -0.21875,-0.64062 -0.625,-1.09375 -0.42187,-0.45312 -1.01562,-0.70312 -0.59375,-0.25 -1.35938,-0.25 -0.73437,0 -1.35937,0.26562 -0.625,0.26563 -1.07813,0.75 -0.45312,0.48438 -0.70312,1.15625 -0.25,0.65625 -0.25,1.46875 v 0.25 q 0,0.71875 0.25,1.34375 0.26562,0.60938 0.73437,1.07813 0.46875,0.45312 1.125,0.71875 0.67188,0.26562 1.48438,0.26562 z m -0.20313,-5.82812 q 0.34375,0 0.59375,0.10937 0.26563,0.0937 0.45313,0.28125 0.1875,0.1875 0.28125,0.45313 0.10937,0.25 0.10937,0.53125 v 0.14062 h -2.96875 q 0.0625,-0.34375 0.1875,-0.625 0.14063,-0.28125 0.34375,-0.48437 0.1875,-0.20313 0.4375,-0.29688 0.25,-0.10937 0.5625,-0.10937 z m 4.79508,5.70312 h 1.8125 v -5 q 0.0937,-0.14062 0.20312,-0.25 0.10938,-0.125 0.25,-0.21875 0.15625,-0.10937 0.375,-0.17187 0.21875,-0.0625 0.48438,-0.0625 0.3125,0 0.5625,0.0625 0.25,0.0625 0.42187,0.21875 0.17188,0.15625 0.26563,0.4375 0.0937,0.26562 0.0937,0.67187 v 4.3125 h 1.8125 v -4.32812 q 0,-0.78125 -0.1875,-1.3125 -0.17188,-0.53125 -0.48438,-0.875 -0.32812,-0.34375 -0.78125,-0.5 -0.4375,-0.15625 -0.96875,-0.15625 -0.42187,0 -0.79687,0.125 -0.35938,0.10937 -0.67188,0.32812 -0.1875,0.125 -0.34375,0.29688 -0.15625,0.15625 -0.29687,0.35937 l -0.10938,-0.98437 h -1.64062 z m 7.74817,-3.57812 v 0.125 q 0,0.78125 0.21875,1.4375 0.21875,0.65625 0.65625,1.125 0.42187,0.48437 1.03125,0.76562 0.625,0.26563 1.42187,0.26563 0.79688,0 1.40625,-0.26563 0.625,-0.28125 1.04688,-0.76562 0.42187,-0.46875 0.64062,-1.125 0.21875,-0.65625 0.21875,-1.4375 v -0.125 q 0,-0.78125 -0.21875,-1.42188 -0.21875,-0.65625 -0.64062,-1.14062 -0.4375,-0.48438 -1.0625,-0.75 -0.60938,-0.28125 -1.40625,-0.28125 -0.78125,0 -1.40625,0.28125 -0.60938,0.26562 -1.03125,0.75 -0.4375,0.48437 -0.65625,1.14062 -0.21875,0.64063 -0.21875,1.42188 z m 1.8125,0.125 v -0.125 q 0,-0.4375 0.0781,-0.8125 0.0937,-0.39063 0.26563,-0.6875 0.1875,-0.29688 0.46875,-0.45313 0.28125,-0.17187 0.6875,-0.17187 0.42187,0 0.70312,0.17187 0.28125,0.15625 0.46875,0.45313 0.17188,0.29687 0.25,0.6875 0.0937,0.375 0.0937,0.8125 v 0.125 q 0,0.45312 -0.0937,0.84375 -0.0781,0.375 -0.25,0.65625 -0.1875,0.29687 -0.46875,0.46875 -0.28125,0.17187 -0.6875,0.17187 -0.40625,0 -0.70312,-0.17187 -0.28125,-0.17188 -0.46875,-0.46875 -0.17188,-0.28125 -0.26563,-0.65625 -0.0781,-0.39063 -0.0781,-0.84375 z m 12.77942,0 v -0.125 q 0,-0.64063 -0.125,-1.20313 -0.10938,-0.5625 -0.34375,-1.01562 -0.14063,-0.28125 -0.34375,-0.51563 -0.1875,-0.23437 -0.4375,-0.40625 -0.29688,-0.21875 -0.6875,-0.32812 -0.375,-0.125 -0.82813,-0.125 -0.32812,0 -0.60937,0.0781 -0.28125,0.0625 -0.53125,0.20313 -0.15625,0.0781 -0.3125,0.21875 -0.15625,0.125 -0.28125,0.26562 V 407.966 h -1.8125 v 10 h 1.625 l 0.0937,-0.75 q 0.10937,0.14063 0.23437,0.26563 0.125,0.125 0.26563,0.21875 0.26562,0.1875 0.59375,0.28125 0.34375,0.10937 0.75,0.10937 0.45312,0 0.82812,-0.10937 0.375,-0.10938 0.67188,-0.32813 0.32812,-0.23437 0.5625,-0.57812 0.25,-0.34375 0.40625,-0.76563 0.14062,-0.375 0.20312,-0.82812 0.0781,-0.45313 0.0781,-0.96875 z m -1.8125,-0.125 v 0.125 q 0,0.28125 -0.0312,0.53125 -0.0156,0.25 -0.0625,0.46875 -0.0625,0.29687 -0.20313,0.53125 -0.125,0.21875 -0.32812,0.35937 -0.14063,0.10938 -0.34375,0.17188 -0.1875,0.0625 -0.42188,0.0625 -0.28125,0 -0.5,-0.0625 -0.21875,-0.0781 -0.375,-0.20313 -0.14062,-0.0937 -0.25,-0.21875 -0.0937,-0.14062 -0.17187,-0.29687 v -2.8125 q 0.0625,-0.125 0.125,-0.23438 0.0781,-0.10937 0.15625,-0.1875 0.1875,-0.17187 0.42187,-0.26562 0.25,-0.0937 0.57813,-0.0937 0.23437,0 0.42187,0.0625 0.20313,0.0469 0.34375,0.15625 0.23438,0.1875 0.34375,0.40625 0.10938,0.20312 0.1875,0.46875 0.0625,0.21875 0.0781,0.48437 0.0312,0.26563 0.0312,0.54688 z m 3.95135,-3.46875 v 1.48437 h 2 v 4.09375 h -2 v 1.46875 h 5.73438 v -1.46875 h -1.90625 v -5.57812 z m 1.875,-1.79688 q 0,0.20313 0.0625,0.39063 0.0781,0.17187 0.21875,0.29687 0.14063,0.125 0.32813,0.20313 0.1875,0.0781 0.42187,0.0781 0.48438,0 0.76563,-0.26562 0.28125,-0.28125 0.28125,-0.70313 0,-0.42187 -0.28125,-0.6875 -0.28125,-0.28125 -0.76563,-0.28125 -0.23437,0 -0.42187,0.0781 -0.1875,0.0625 -0.32813,0.1875 -0.14062,0.14062 -0.21875,0.32812 -0.0625,0.17188 -0.0625,0.375 z m 8.68567,-0.1875 v -1.125 h -1.45312 v 1.125 q 0,0.64063 -0.15625,1.125 -0.15625,0.48438 -0.40625,0.90625 l 0.82812,0.51563 q 0.25,-0.21875 0.46875,-0.51563 0.21875,-0.3125 0.375,-0.65625 0.17188,-0.32812 0.25,-0.67187 0.0937,-0.35938 0.0937,-0.70313 z m 2.32813,0 v -1.125 h -1.45313 v 1.125 q 0,0.64063 -0.15625,1.125 -0.15625,0.48438 -0.40625,0.90625 l 0.82813,0.51563 q 0.25,-0.21875 0.46875,-0.51563 0.21875,-0.3125 0.375,-0.65625 0.17187,-0.32812 0.25,-0.67187 0.0937,-0.35938 0.0937,-0.70313 z"
       fill-rule="nonzero"
       id="path890" />
    <path
       fill="#000000"
       fill-opacity="0"
       d="m 478.70932,76.54145 c 0,16.88189 0.32285,25.32283 0.64569,33.76378 0.32282,8.44095 0.64566,16.88189 0.64566,33.76379"
       fill-rule="evenodd"
       id="path892" />
    <path
       stroke="#6d9eeb"
       stroke-width="24"
       stroke-linejoin="round"
       stroke-linecap="butt"
       d="m 478.70932,76.54145 c 0,16.88189 0.32285,25.32283 0.64569,33.76378 0.32282,8.44095 0.64566,16.88189 0.64566,33.76379"
       fill-rule="evenodd"
       id="path894" />
    <path
       fill="#6d9eeb"
       d="m 308.8954,37.005424 v 0 c 0,-4.786564 3.88028,-8.666842 8.66684,-8.666842 h 322.31985 c 2.29858,0 4.50305,0.913111 6.12842,2.538458 1.6253,1.625347 2.53845,3.829792 2.53845,6.128384 v 34.66632 c 0,4.78656 -3.88031,8.66684 -8.66687,8.66684 H 317.56224 c -4.78656,0 -8.66684,-3.88028 -8.66684,-8.66684 z"
       fill-rule="evenodd"
       id="path896" />
    <path
       fill="#ffffff"
       d="m 415.87744,58.85858 h -1 v -4.03125 h -4.51563 v 4.03125 h -1 v -8.5625 h 1 v 3.640625 h 4.51563 V 50.29608 h 1 z m 4.91602,0.125 q -1.42188,0 -2.25,-0.875 -0.82813,-0.875 -0.82813,-2.40625 0,-1.5625 0.76563,-2.46875 0.76562,-0.921875 2.0625,-0.921875 1.20312,0 1.90625,0.796875 0.70312,0.796875 0.70312,2.09375 v 0.625 h -4.42187 q 0.0312,1.125 0.5625,1.71875 0.54687,0.578125 1.53125,0.578125 1.03125,0 2.04687,-0.4375 v 0.875 q -0.51562,0.21875 -0.98437,0.3125 -0.45313,0.109375 -1.09375,0.109375 z m -0.26563,-5.84375 q -0.78125,0 -1.25,0.5 -0.45312,0.5 -0.53125,1.390625 h 3.35938 q 0,-0.921875 -0.40625,-1.40625 -0.40625,-0.484375 -1.17188,-0.484375 z m 5.24805,5.71875 h -0.96875 v -9.125 h 0.96875 z m 5.05078,0.125 q -0.625,0 -1.14063,-0.234375 -0.51562,-0.234375 -0.875,-0.71875 h -0.0625 q 0.0625,0.5625 0.0625,1.0625 v 2.65625 h -0.96875 v -9.3125 h 0.79688 l 0.125,0.875 h 0.0469 q 0.375,-0.53125 0.875,-0.765625 0.5,-0.234375 1.14063,-0.234375 1.28125,0 1.96875,0.875 0.70312,0.875 0.70312,2.453125 0,1.578125 -0.70312,2.46875 -0.70313,0.875 -1.96875,0.875 z m -0.14063,-5.84375 q -0.98437,0 -1.42187,0.546875 -0.4375,0.546875 -0.45313,1.734375 v 0.21875 q 0,1.359375 0.45313,1.9375 0.45312,0.578125 1.45312,0.578125 0.82813,0 1.29688,-0.671875 0.46875,-0.671875 0.46875,-1.859375 0,-1.203125 -0.46875,-1.84375 -0.46875,-0.640625 -1.32813,-0.640625 z m 15.81446,5.71875 v -4.171875 q 0,-0.78125 -0.32813,-1.15625 -0.32812,-0.390625 -1.01562,-0.390625 -0.90625,0 -1.34375,0.53125 -0.4375,0.515625 -0.4375,1.59375 v 3.59375 h -0.96875 v -4.171875 q 0,-0.78125 -0.32813,-1.15625 -0.32812,-0.390625 -1.03125,-0.390625 -0.90625,0 -1.34375,0.546875 -0.42187,0.546875 -0.42187,1.796875 v 3.375 h -0.96875 v -6.421875 h 0.79687 l 0.15625,0.875 h 0.0469 q 0.26562,-0.46875 0.76562,-0.734375 0.51563,-0.265625 1.125,-0.265625 1.51563,0 1.96875,1.09375 h 0.0469 q 0.29687,-0.5 0.82812,-0.796875 0.54688,-0.296875 1.25,-0.296875 1.09375,0 1.625,0.5625 0.54688,0.5625 0.54688,1.796875 v 4.1875 z m 5.69336,0.125 q -1.42188,0 -2.25,-0.875 -0.82813,-0.875 -0.82813,-2.40625 0,-1.5625 0.76563,-2.46875 0.76562,-0.921875 2.0625,-0.921875 1.20312,0 1.90625,0.796875 0.70312,0.796875 0.70312,2.09375 v 0.625 h -4.42187 q 0.0312,1.125 0.5625,1.71875 0.54687,0.578125 1.53125,0.578125 1.03125,0 2.04687,-0.4375 v 0.875 q -0.51562,0.21875 -0.98437,0.3125 -0.45313,0.109375 -1.09375,0.109375 z m -0.26563,-5.84375 q -0.78125,0 -1.25,0.5 -0.45312,0.5 -0.53125,1.390625 h 3.35938 q 0,-0.921875 -0.40625,-1.40625 -0.40625,-0.484375 -1.17188,-0.484375 z m 14.97461,1.421875 q 0,2.0625 -1.04687,3.25 -1.03125,1.171875 -2.875,1.171875 -1.89063,0 -2.92188,-1.15625 -1.03125,-1.171875 -1.03125,-3.28125 0,-2.09375 1.03125,-3.234375 1.03125,-1.15625 2.92188,-1.15625 1.85937,0 2.89062,1.171875 1.03125,1.171875 1.03125,3.234375 z m -6.82812,0 q 0,1.734375 0.73437,2.640625 0.75,0.90625 2.17188,0.90625 1.42187,0 2.14062,-0.890625 0.73438,-0.90625 0.73438,-2.65625 0,-1.734375 -0.73438,-2.625 -0.71875,-0.890625 -2.14062,-0.890625 -1.42188,0 -2.17188,0.90625 -0.73437,0.890625 -0.73437,2.609375 z m 11.58007,-2.234375 q 1.26563,0 1.96875,0.875 0.70313,0.859375 0.70313,2.4375 0,1.578125 -0.70313,2.46875 -0.70312,0.875 -1.96875,0.875 -0.625,0 -1.14062,-0.234375 -0.51563,-0.234375 -0.875,-0.71875 h -0.0625 l -0.20313,0.828125 h -0.70312 v -9.125 h 0.96875 v 2.21875 q 0,0.75 -0.0469,1.34375 h 0.0469 q 0.6875,-0.96875 2.01562,-0.96875 z m -0.14062,0.8125 q -0.98438,0 -1.4375,0.578125 -0.4375,0.5625 -0.4375,1.921875 0,1.359375 0.45312,1.9375 0.45313,0.578125 1.45313,0.578125 0.89062,0 1.32812,-0.640625 0.4375,-0.65625 0.4375,-1.890625 0,-1.25 -0.4375,-1.859375 -0.4375,-0.625 -1.35937,-0.625 z m 5.47851,5.71875 h -0.96875 v -6.421875 h 0.96875 z m -1.04687,-8.15625 q 0,-0.34375 0.15625,-0.5 0.17187,-0.15625 0.42187,-0.15625 0.23438,0 0.39063,0.171875 0.17187,0.15625 0.17187,0.484375 0,0.328125 -0.17187,0.484375 -0.15625,0.15625 -0.39063,0.15625 -0.25,0 -0.42187,-0.15625 -0.15625,-0.15625 -0.15625,-0.484375 z m 2.58203,5.390625 V 55.20233 h 2.875 v 0.890625 z m 12.01758,2.765625 h -0.98438 l -1.73437,-5.734375 q -0.125,-0.390625 -0.28125,-0.96875 -0.14063,-0.578125 -0.14063,-0.6875 -0.14062,0.765625 -0.42187,1.6875 l -1.67188,5.703125 h -0.98437 l -2.28125,-8.5625 h 1.0625 l 1.34375,5.28125 q 0.28125,1.125 0.42187,2.015625 0.15625,-1.0625 0.46875,-2.09375 l 1.53125,-5.203125 h 1.04688 l 1.60937,5.25 q 0.28125,0.90625 0.48438,2.046875 0.10937,-0.828125 0.42187,-2.015625 l 1.34375,-5.28125 h 1.0625 z m 7.4375,0 -0.20313,-0.921875 h -0.0469 q -0.46875,0.609375 -0.95313,0.828125 -0.46875,0.21875 -1.1875,0.21875 -0.95312,0 -1.5,-0.5 -0.54687,-0.5 -0.54687,-1.40625 0,-1.9375 3.10937,-2.03125 l 1.09375,-0.03125 v -0.40625 q 0,-0.75 -0.32812,-1.109375 -0.3125,-0.359375 -1.03125,-0.359375 -0.8125,0 -1.8125,0.484375 l -0.3125,-0.75 q 0.48437,-0.25 1.04687,-0.390625 0.5625,-0.15625 1.14063,-0.15625 1.14062,0 1.6875,0.515625 0.5625,0.5 0.5625,1.625 v 4.390625 z m -2.20313,-0.6875 q 0.90625,0 1.42188,-0.5 0.53125,-0.5 0.53125,-1.390625 V 55.70233 l -0.98438,0.03125 q -1.15625,0.04687 -1.67187,0.375 -0.5,0.3125 -0.5,0.984375 0,0.53125 0.3125,0.8125 0.3125,0.265625 0.89062,0.265625 z m 9.31446,0.6875 v -4.15625 q 0,-0.78125 -0.35938,-1.171875 -0.34375,-0.390625 -1.10937,-0.390625 -1.01563,0 -1.48438,0.546875 -0.46875,0.546875 -0.46875,1.796875 v 3.375 h -0.96875 v -6.421875 h 0.79688 l 0.15625,0.875 h 0.0469 q 0.29688,-0.46875 0.82813,-0.734375 0.54687,-0.265625 1.20312,-0.265625 1.17188,0 1.75,0.5625 0.59375,0.5625 0.59375,1.796875 v 4.1875 z m 12.41992,0 h -1.17188 l -3.10937,-4.15625 -0.90625,0.796875 v 3.359375 h -1 v -8.5625 h 1 v 4.25 l 3.89062,-4.25 h 1.17188 l -3.4375,3.71875 z m 3.75586,0.125 q -1.42188,0 -2.25,-0.875 -0.82813,-0.875 -0.82813,-2.40625 0,-1.5625 0.76563,-2.46875 0.76562,-0.921875 2.0625,-0.921875 1.20312,0 1.90625,0.796875 0.70312,0.796875 0.70312,2.09375 v 0.625 h -4.42187 q 0.0312,1.125 0.5625,1.71875 0.54687,0.578125 1.53125,0.578125 1.03125,0 2.04687,-0.4375 v 0.875 q -0.51562,0.21875 -0.98437,0.3125 -0.45313,0.109375 -1.09375,0.109375 z m -0.26563,-5.84375 q -0.78125,0 -1.25,0.5 -0.45312,0.5 -0.53125,1.390625 h 3.35938 q 0,-0.921875 -0.40625,-1.40625 -0.40625,-0.484375 -1.17188,-0.484375 z m 8.66992,5.71875 v -4.15625 q 0,-0.78125 -0.35937,-1.171875 -0.34375,-0.390625 -1.10938,-0.390625 -1.01562,0 -1.48437,0.546875 -0.46875,0.546875 -0.46875,1.796875 v 3.375 h -0.96875 v -6.421875 h 0.79687 l 0.15625,0.875 h 0.0469 q 0.29687,-0.46875 0.82812,-0.734375 0.54688,-0.265625 1.20313,-0.265625 1.17187,0 1.75,0.5625 0.59375,0.5625 0.59375,1.796875 v 4.1875 z m 8.52149,-3.21875 q 0,1.578125 -0.79688,2.46875 -0.78125,0.875 -2.1875,0.875 -0.85937,0 -1.53125,-0.40625 -0.65625,-0.40625 -1.03125,-1.15625 -0.35937,-0.765625 -0.35937,-1.78125 0,-1.5625 0.78125,-2.4375 0.79687,-0.890625 2.1875,-0.890625 1.34375,0 2.14062,0.90625 0.79688,0.890625 0.79688,2.421875 z m -4.89063,0 q 0,1.234375 0.48438,1.875 0.5,0.640625 1.45312,0.640625 0.95313,0 1.4375,-0.640625 0.5,-0.640625 0.5,-1.875 0,-1.21875 -0.5,-1.859375 -0.48437,-0.640625 -1.45312,-0.640625 -0.95313,0 -1.4375,0.640625 -0.48438,0.625 -0.48438,1.859375 z m 9.57618,-3.3125 q 1.26562,0 1.96875,0.875 0.70312,0.859375 0.70312,2.4375 0,1.578125 -0.70312,2.46875 -0.70313,0.875 -1.96875,0.875 -0.625,0 -1.14063,-0.234375 -0.51562,-0.234375 -0.875,-0.71875 h -0.0625 l -0.20312,0.828125 h -0.70313 v -9.125 h 0.96875 v 2.21875 q 0,0.75 -0.0469,1.34375 h 0.0469 q 0.6875,-0.96875 2.01563,-0.96875 z m -0.14063,0.8125 q -0.98437,0 -1.4375,0.578125 -0.4375,0.5625 -0.4375,1.921875 0,1.359375 0.45313,1.9375 0.45312,0.578125 1.45312,0.578125 0.89063,0 1.32813,-0.640625 0.4375,-0.65625 0.4375,-1.890625 0,-1.25 -0.4375,-1.859375 -0.4375,-0.625 -1.35938,-0.625 z m 5.47852,5.71875 h -0.96875 v -6.421875 h 0.96875 z m -1.04688,-8.15625 q 0,-0.34375 0.15625,-0.5 0.17188,-0.15625 0.42188,-0.15625 0.23437,0 0.39062,0.171875 0.17188,0.15625 0.17188,0.484375 0,0.328125 -0.17188,0.484375 -0.15625,0.15625 -0.39062,0.15625 -0.25,0 -0.42188,-0.15625 -0.15625,-0.15625 -0.15625,-0.484375 z"
       fill-rule="nonzero"
       id="path898" />
  </g>
</svg>
